<svg xmlns="http://www.w3.org/2000/svg" viewBox="0 0 1920 673" xml:space="preserve"><path fill="#9ac33c" d="M0 0h1920v673H0z"/><path d="M476.3 241.9H515l67.1 174.4h-38.9l-66.9-174.4zM621.6 296c7.9-10 18.1-15 30.4-15 13.2 0 23.1 3.9 29.8 11.7 6.7 7.8 10.1 19.3 10.3 34.5v75.3h-37.3V328c0-6.3-1.3-11-3.9-14-2.6-3-7-4.5-13.1-4.5-7.7 0-13.1 2.4-16.2 7.3v85.6h-37.2V233.1h37.2V296zm138.9 54.5 19.9-67.3h39.8l-48.7 139.3-2.1 5.1c-6.9 15.4-19.1 23.2-36.6 23.2-4.9 0-10-.7-15.3-2.2v-26.5h4.9c5.2 0 9.2-.8 12-2.3 2.8-1.5 4.8-4.2 6.1-8.1l3-7.9L702 283.2h39.7l18.8 67.3zm180.2-6.8c0 18.5-4.2 33.3-12.5 44.4-8.3 11.1-19.6 16.6-33.8 16.6-11 0-20-4-27-12v55.7h-37.2V283.2H865l1.1 11c7.1-8.8 16.5-13.2 28.1-13.2 14.7 0 26.1 5.4 34.3 16.3 8.2 10.8 12.2 25.8 12.2 44.7v1.7zm-37.2-2.3c0-21.2-6.2-31.8-18.5-31.8-8.8 0-14.7 3.2-17.7 9.5v47c3.2 6.6 9.2 9.9 17.9 9.9 11.8 0 17.9-10.2 18.3-30.7v-3.9zm111.3 63.3c-18.3 0-33.1-5.5-44.5-16.4-11.3-10.9-17-25.1-17-42.6v-3.1c0-12.2 2.3-23 6.8-32.3 4.5-9.3 11.1-16.6 19.8-21.7 8.7-5.1 19-7.7 30.9-7.7 16.8 0 30 5.2 39.7 15.6 9.7 10.4 14.6 24.9 14.6 43.5v14.5h-73.9c1.3 6.7 4.2 12 8.7 15.8 4.5 3.8 10.3 5.7 17.4 5.7 11.8 0 21-4.1 27.6-12.4l17 20.1c-4.6 6.4-11.2 11.5-19.7 15.3-8.5 3.8-17.6 5.7-27.4 5.7zm-4.2-95.1c-10.9 0-17.4 7.2-19.4 21.6h37.5v-2.9c.1-6-1.4-10.6-4.5-13.8-3.2-3.2-7.7-4.9-13.6-4.9zm141.6 7.2-12.2-.9c-11.7 0-19.2 3.7-22.5 11v75.6h-37.2V283.2h34.9l1.2 15.3c6.3-11.7 15-17.5 26.1-17.5 4 0 7.4.4 10.4 1.3l-.7 34.5zm85.7 0-12.2-.9c-11.7 0-19.2 3.7-22.5 11v75.6H1166V283.2h34.9l1.2 15.3c6.3-11.7 15-17.5 26.1-17.5 4 0 7.4.4 10.4 1.3l-.7 34.5zm69 87.9c-18.3 0-33.1-5.5-44.5-16.4-11.3-10.9-17-25.1-17-42.6v-3.1c0-12.2 2.3-23 6.8-32.3 4.5-9.3 11.1-16.6 19.8-21.7 8.7-5.1 19-7.7 30.9-7.7 16.8 0 30 5.2 39.7 15.6 9.7 10.4 14.6 24.9 14.6 43.5v14.5h-73.9c1.3 6.7 4.2 12 8.7 15.8 4.5 3.8 10.3 5.7 17.4 5.7 11.8 0 21-4.1 27.6-12.4l17 20.1c-4.6 6.4-11.2 11.5-19.7 15.3-8.5 3.8-17.6 5.7-27.4 5.7zm-4.2-95.1c-10.9 0-17.4 7.2-19.4 21.6h37.5v-2.9c.1-6-1.4-10.6-4.5-13.8-3.2-3.2-7.7-4.9-13.6-4.9zm77.7 92.9V309h-17.3v-25.8h17.3v-9.5c0-13.6 4-24.2 12-31.7s19.3-11.3 33.8-11.3c5.3 0 11.1.8 17.4 2.3l.1 27.4c-2.3-.7-5.3-1-9.2-1-11.3 0-16.9 4.9-16.9 14.6v9.2h23.3V309h-23.3v93.5h-37.2z" fill="#fff"/></svg>