<svg xmlns="http://www.w3.org/2000/svg" viewBox="0 0 1920 673" xml:space="preserve"><path fill="#e5684b" d="M0 0h1920v673H0z"/><path d="M478.6 491.4V307.9h-34v-50.6h34v-18.6c0-26.7 7.9-47.4 23.6-62.1 15.7-14.7 37.8-22.1 66.2-22.1 10.4 0 21.8 1.5 34.2 4.5l.2 53.6c-4.5-1.3-10.5-1.9-18-1.9-22.1 0-33.1 9.5-33.1 28.6v18h45.6v50.6h-45.6v183.4h-73.1zM622.4 197c0-10.4 3.7-18.9 11.2-25.5 7.5-6.6 17.2-10 29.2-10s21.7 3.3 29.2 10c7.5 6.6 11.2 15.1 11.2 25.5s-3.8 18.9-11.2 25.5c-7.5 6.6-17.2 10-29.2 10s-21.7-3.3-29.2-10c-7.4-6.6-11.2-15.1-11.2-25.5zm77.5 294.4h-73.1V257.3h73.1v234.1zm121.8 0h-73.1V159.1h73.1v332.3zm158.1 4.3c-35.9 0-65-10.7-87.2-32.1-22.2-21.4-33.3-49.3-33.3-83.6v-6.1c0-23.9 4.4-45.1 13.3-63.4 8.9-18.3 21.8-32.5 38.8-42.5 17-10 37.2-15 60.6-15 32.9 0 58.8 10.2 77.9 30.6 19 20.4 28.6 48.9 28.6 85.3v28.3h-145c2.6 13.1 8.3 23.4 17.1 30.9s20.2 11.2 34.2 11.2c23.1 0 41.1-8.1 54.1-24.2l33.3 39.4c-9.1 12.5-22 22.5-38.6 30-16.7 7.5-34.6 11.2-53.8 11.2zm-8.2-186.5c-21.3 0-34 14.1-38.1 42.4h73.5V346c.3-11.7-2.7-20.7-8.9-27.1-6.1-6.4-15-9.7-26.5-9.7zm181.5-61.2c11.5 0 21.1 3.4 28.8 10.3 7.6 6.9 11.5 15.6 11.5 26.3 0 10.7-3.8 19.4-11.5 26.3-7.6 6.9-17.2 10.3-28.8 10.3-11.7 0-21.3-3.5-28.9-10.4-7.6-6.9-11.4-15.6-11.4-26.2 0-10.5 3.8-19.3 11.4-26.2s17.2-10.4 28.9-10.4zm0 172.6c11.5 0 21.1 3.4 28.8 10.3 7.6 6.9 11.5 15.6 11.5 26.3 0 10.7-3.8 19.4-11.5 26.3-7.6 6.9-17.2 10.3-28.8 10.3-11.7 0-21.3-3.5-28.9-10.4s-11.4-15.6-11.4-26.2c0-10.5 3.8-19.3 11.4-26.2 7.6-6.9 17.2-10.4 28.9-10.4zm112.7 97.8h-51.7l107.5-342h51.9l-107.7 342zm101.9 0H1316l107.5-342h51.9l-107.7 342z" fill="#fff"/></svg>