<svg xmlns="http://www.w3.org/2000/svg" viewBox="0 0 1920 673" xml:space="preserve"><style>.st1{fill:#fff}</style><path fill="#9ac33c" d="M0 0h1920v673H0z"/><path class="st1" d="M838.3 523.2h-82.9v85H704V394.9h142.7v39.7h-91.3v49.1h82.9v39.5zM961 568.3h-70.5l-12.3 39.8h-54.9l78.2-213.3h48.3l78.8 213.3h-55.2L961 568.3zm-58.1-39.7h45.8l-23-74-22.8 74zm319.2-22.7c0 19.7-3.3 36.9-9.8 51.6-6.5 14.7-15.6 26.5-27.1 35.4l34.4 27.2-31.8 27-45.8-36.9c-4.3.6-8.6.9-12.9.9-18.2 0-34.3-4.2-48.3-12.6-14.1-8.4-25-20.4-32.9-36-7.9-15.6-11.9-33.6-12.2-53.9v-11.3c0-21 3.8-39.5 11.5-55.4 7.7-15.9 18.6-28.2 32.8-36.9 14.2-8.7 30.5-13 48.9-13 18.1 0 34.2 4.3 48.3 12.9 14.2 8.6 25.2 20.8 33 36.7 7.9 15.9 11.8 34.1 11.9 54.6v9.7zm-52.3-8.9c0-21.2-3.5-37.3-10.6-48.3s-17.2-16.5-30.4-16.5c-13.6 0-23.8 5.4-30.6 16.3-6.8 10.8-10.3 26.7-10.4 47.6v9.8c0 21 3.5 37.1 10.4 48.3 6.9 11.2 17.2 16.8 30.9 16.8 13.1 0 23.1-5.5 30.1-16.6 7-11 10.5-26.9 10.6-47.6V497zM746.5 202h-9c-4.5 31.5-9 67.5-63 67.5h-27c-13.5 0-13.5 0-13.5-13.5V94c0-9 0-13.5 27-13.5h9v-9h-94.5v9h9C607 80.5 607 85 607 94v162c0 9 0 13.5-22.5 13.5H580v9h157.5l9-76.5z"/><path class="st1" d="M742 71.5c0-4.5 0-4.5-4.5-4.5s-4.5 0-4.5 4.5l-49.5 126c0 4.5-4.5 13.5-27 13.5v9H706v-9c-9 0-13.5-4.5-13.5-9v-4.5l9-27H760l13.5 31.5v4.5c0 4.5-13.5 4.5-18 4.5v9H814v-9h-4.5c-13.5 0-18 0-18-9L742 71.5zM728.5 94l27 67.5h-54l27-67.5zM985 71.5H800.5L796 139h9c4.5-49.5 9-58.5 54-58.5h18c4.5 0 4.5 4.5 4.5 13.5v162c0 9 0 13.5-31.5 13.5h-13.5v9h117v-9H940c-31.5 0-31.5-4.5-31.5-13.5V94c0-4.5 0-9 4.5-13.5h18c45 0 49.5 9 54 58.5h9l-9-67.5z"/><path class="st1" d="M1151.5 269.5h-9c-9 45-13.5 67.5-67.5 67.5h-40.5c-13.5 0-13.5 0-13.5-13.5v-81h27c31.5 0 31.5 9 31.5 36h9v-81h-9c0 27-4.5 36-31.5 36h-27v-72c0-9 0-13.5 13.5-13.5h40.5c45 0 54 18 58.5 58.5h9l-9-67.5h-171v9h9c22.5 0 22.5 4.5 22.5 13.5V319c0 9 0 13.5-22.5 13.5h-9v9H1138l13.5-72z"/><path class="st1" d="m1241.5 161.5 40.5-63c4.5-9 18-18 45-18v-9h-72v9c13.5 0 18 9 18 13.5s0 4.5-4.5 9l-36 49.5L1192 94v-4.5c0-4.5 4.5-9 18-9v-9h-85.5v9h4.5c18 0 22.5 0 27 9l63 85.5-49.5 72c-4.5 4.5-13.5 18-45 18v9h72v-4.5c-13.5 0-18-9-18-13.5s0-4.5 4.5-9l45-63 49.5 72v4.5c0 4.5-4.5 9-18 9v9h85.5v-9h-4.5c-18 0-22.5 0-27-9l-72-99z"/></svg>