<svg xmlns="http://www.w3.org/2000/svg" viewBox="0 0 1920 673" xml:space="preserve"><style>.st1{fill:#36434f}.st3{fill:#f0f0f0}</style><path fill="#1ca5a1" d="M0 0h1920v673H0z"/><path class="st1" d="M1228.2 496.5c.9 2.6-.5 5.4-3 6.3L840.7 640.5c-2.6.9-5.4-.5-6.3-3l-110.2-308c-.9-2.6.5-5.4 3-6.3l384.6-137.6c2.6-.9 5.4.5 6.3 3l110.1 307.9z"/><path d="M1190.9 483.6c.9 2.6-.5 5.4-3 6.3L861.2 606.8c-2.6.9-5.4-.5-6.3-3l-93.5-261.4c-.9-2.6.5-5.4 3-6.3L1091 219.2c2.6-.9 5.4.5 6.3 3l93.6 261.4z" fill="#eec646"/><path class="st3" d="M888.1 309.8 834 329.1c2.6-.9 5.2-3.9 5.9-6.4L851 279c.6-2.6-.9-4-3.4-3.1l54.1-19.4c-2.6.9-5.2 3.9-5.9 6.4l-11.1 43.7c-.7 2.6.9 4.1 3.4 3.2zm63.8-27.2 11.1-43.7c.6-2.6 3.3-5.5 5.9-6.4l-54.1 19.4c2.6-.9 4.1.5 3.4 3.1l-11.1 43.7c-.6 2.6-3.3 5.5-5.9 6.4l54.1-19.4c-2.5.9-4.1-.5-3.4-3.1zm134.4-48.1 11.1-43.7c.6-2.6 3.3-5.5 5.9-6.4l-54.1 19.4c2.6-.9 4.1.5 3.4 3.1l-11.1 43.7c-.6 2.6-3.3 5.5-5.9 6.4l54.1-19.4c-2.5.9-4.1-.5-3.4-3.1zm-67.2 24.1 11.1-43.7c.6-2.6 3.3-5.5 5.9-6.4L982 227.8c2.6-.9 4.1.5 3.4 3.1l-11.1 43.7c-.6 2.6-3.3 5.5-5.9 6.4l54.1-19.4c-2.5.9-4.1-.5-3.4-3z"/><path class="st1" d="M847.5 275.8c2.6-.9 4.1.5 3.4 3.1l-11.1 43.7c-.6 2.6-3.3 5.5-5.9 6.4L735 364.5c-2.6.9-5.4-.5-6.3-3l-12-33.6c-.9-2.6.5-5.4 3-6.3l127.8-45.8zm121.4-43.4c-2.6.9-5.2 3.9-5.9 6.4l-11.1 43.7c-.6 2.6.9 4 3.4 3.1l13.1-4.7c2.6-.9 5.2-3.9 5.9-6.4l11.1-43.7c.6-2.6-.9-4-3.4-3.1l-13.1 4.7zm-67.2 24.1c-2.6.9-5.2 3.9-5.9 6.4l-11.1 43.7c-.6 2.6.9 4 3.4 3.1l13.1-4.7c2.6-.9 5.2-3.9 5.9-6.4l11.1-43.7c.6-2.6-.9-4-3.4-3.1l-13.1 4.7zm134.4-48.1c-2.6.9-5.2 3.9-5.9 6.4l-11.1 43.7c-.6 2.6.9 4 3.4 3.1l13.1-4.7c2.6-.9 5.2-3.9 5.9-6.4l11.1-43.7c.6-2.6-.9-4-3.4-3.1l-13.1 4.7zm67.2-24.1c-2.6.9-5.2 3.9-5.9 6.4l-11.1 43.7c-.6 2.6.9 4 3.4 3.1l42-15c2.6-.9 3.9-3.8 3-6.3l-12-33.6c-.9-2.6-3.8-3.9-6.3-3l-13.1 4.7z"/><path class="st3" d="m851.3 223.6-46.2 34.2c2.2-1.6 3.9-5.2 3.8-7.9l-2-45.1c-.1-2.7-2-3.6-4.2-2l46.2-34.2c-2.2 1.6-3.9 5.2-3.8 7.9l2 45c.1 2.9 2 3.8 4.2 2.1zm53.1-44.5-2-45c-.1-2.7 1.6-6.2 3.8-7.9L860 160.4c2.2-1.6 4.1-.7 4.2 2l2 45c.1 2.7-1.6 6.2-3.8 7.9l46.2-34.2c-2.1 1.7-4 .8-4.2-2zm114.9-84.9-2-45c-.1-2.7 1.6-6.2 3.8-7.9l-46.2 34.1c2.2-1.6 4.1-.7 4.2 2l2 45c.1 2.7-1.6 6.2-3.8 7.9l46.2-34.2c-2.2 1.8-4.1.9-4.2-1.9zm-57.4 42.5-2-45c-.1-2.7 1.6-6.2 3.8-7.9L917.5 118c2.2-1.6 4.1-.7 4.2 2l2 45c.1 2.7-1.6 6.2-3.8 7.9l46.2-34.2c-2.2 1.7-4.1.8-4.2-2z"/><path class="st1" d="M802.7 202.9c2.2-1.6 4.1-.7 4.2 2l2 45c.1 2.7-1.6 6.2-3.8 7.9l-84.5 62.6c-2.2 1.6-5.3 1.2-6.9-1l-21.2-28.7c-1.6-2.2-1.2-5.3 1-6.9 0-.1 109.2-80.9 109.2-80.9zm103.6-76.6c-2.2 1.6-3.9 5.2-3.8 7.9l2 45c.1 2.7 2 3.6 4.2 2l11.2-8.2c2.2-1.6 3.9-5.2 3.8-7.9l-2-45c-.1-2.7-2-3.6-4.2-2-.1-.1-11.2 8.2-11.2 8.2zm-57.4 42.4c-2.2 1.6-3.9 5.2-3.8 7.9l2 45c.1 2.7 2 3.6 4.2 2l11.2-8.2c2.2-1.6 3.9-5.2 3.8-7.9l-2-45c-.1-2.7-2-3.6-4.2-2l-11.2 8.2zm114.8-84.9c-2.2 1.6-3.9 5.2-3.8 7.9l2 45c.1 2.7 2 3.6 4.2 2l11.2-8.2c2.2-1.6 3.9-5.2 3.8-7.9l-2-45c-.1-2.7-2-3.6-4.2-2l-11.2 8.2zm57.4-42.4c-2.2 1.6-3.9 5.2-3.8 7.9l2 45c.1 2.7 2 3.6 4.2 2l35.9-26.5c2.2-1.6 2.6-4.7 1-6.9l-21.2-28.6c-1.6-2.2-4.7-2.6-6.9-1l-11.2 8.1z"/><path d="m736.4 364 393.9-141 7.3 20.5-393.9 141-7.3-20.5z" opacity=".15" fill="#444"/><path d="M712.8 273.1c-2.5.9-3.9 3.7-2.9 6.2l27.2 73.4c.9 2.5 3.8 3.9 6.4 3l71.8-25.7c2.6-.9 5.9-3.5 7.5-5.7l1.3-1.8c1.6-2.3 2.1-6.1 1.2-8.7L823 307c-.9-2.6-3.6-5.8-6-7.1l-64.2-36.6c-2.4-1.4-6.4-1.7-9.1-.9 0-.1-30.9 10.7-30.9 10.7z" fill="#263642"/><circle class="st3" cx="747.9" cy="335.7" r="5.5"/><circle class="st3" cx="805.8" cy="315" r="5.5"/><circle class="st3" cx="729.2" cy="283.5" r="5.5"/></svg>