<svg xmlns="http://www.w3.org/2000/svg" viewBox="0 0 1920 673" xml:space="preserve"><path fill="#73a5b1" d="M0 0h1920v673H0z"/><path d="M507 359.9c0-5.8-1.4-10.4-4.3-13.7-2.9-3.3-7.9-6.4-15.1-9.4-7.2-2.9-13.9-5.9-20-8.9s-11.4-6.5-15.8-10.5-7.8-8.6-10.1-13.8c-2.4-5.2-3.5-11.5-3.5-19 0-12.4 4.2-22.7 12.6-30.7 8.4-8.1 19.6-12.7 33.5-14.1v-23.3h17.5v23.7c13.5 2 24 7.5 31.7 16.6 7.7 9.1 11.5 20.6 11.5 34.6h-37.3c0-7.6-1.5-13.5-4.4-17.7-2.9-4.1-7.1-6.2-12.6-6.2-4.9 0-8.6 1.5-11.3 4.6-2.7 3.1-4 7.3-4 12.6 0 5.4 1.5 9.8 4.6 13 3.1 3.2 8.1 6.3 14.9 9.2 6.8 2.9 13.3 5.9 19.4 9 6.1 3.1 11.3 6.7 15.7 10.6 4.4 4 7.9 8.6 10.4 13.9 2.5 5.3 3.8 11.7 3.8 19.1 0 12.6-4 22.8-12 30.8-8 7.9-18.8 12.6-32.6 13.9v22.2h-17.5v-22.3c-16-1.7-28.3-7.2-36.9-16.5-8.6-9.3-12.9-21.6-12.9-36.8h37.2c0 8.4 1.9 14.8 5.6 19.1 3.7 4.4 9 6.6 15.8 6.6 5 0 8.9-1.5 11.8-4.5 2.9-2.7 4.3-6.8 4.3-12.1zm181 42.6c-1.3-2.4-2.5-6-3.5-10.7-6.8 8.6-16.4 12.9-28.7 12.9-11.3 0-20.8-3.4-28.7-10.2-7.9-6.8-11.8-15.4-11.8-25.6 0-12.9 4.8-22.7 14.3-29.3 9.6-6.6 23.5-9.9 41.7-9.9h11.5v-6.3c0-11-4.7-16.5-14.2-16.5-8.8 0-13.2 4.4-13.2 13.1h-37.2c0-11.5 4.9-20.9 14.7-28.1s22.3-10.8 37.6-10.8 27.2 3.7 36.1 11.1c8.8 7.4 13.3 17.6 13.6 30.6v52.8c.1 11 1.8 19.3 5.1 25.2v1.9H688zm-23.3-24.2c4.6 0 8.5-1 11.5-3 3.1-2 5.2-4.2 6.6-6.7v-19.1H672c-12.9 0-19.4 5.8-19.4 17.4 0 3.4 1.1 6.1 3.4 8.2 2.2 2.1 5.1 3.2 8.7 3.2zm165.1 51.9h-99.6v-27.7h99.6v27.7zM888.7 316l17.3-32.9h38.6l-31.4 58.1 33 61.2h-38.8l-18.8-35.3-18.4 35.3h-39.1l33.1-61.2-31.3-58.1H872l16.7 32.9zm119.5 126.2c-26.5-7.4-39.7-24.5-39.7-51.3v-21.8c0-14.9-6-22.3-17.9-22.3v-25c11.9 0 17.9-7.5 17.9-22.4v-23.2c.2-13.2 3.7-23.9 10.3-32.1 6.7-8.2 16.5-14.1 29.4-17.8l7 19.4c-9.3 3.5-14.1 13.4-14.5 29.7v23.9c0 16.5-6.8 28.1-20.4 34.9 13.6 6.8 20.4 18.4 20.4 35V393c.4 16.3 5.2 26.1 14.5 29.7l-7 19.5zm15.9-19.5c9.3-3.5 14.1-13.4 14.5-29.7v-23.9c0-16.5 6.8-28.2 20.5-34.9-13.7-6.7-20.5-18.3-20.5-34.9v-23.9c-.4-16.3-5.2-26.1-14.5-29.7l6.9-19.4c13.2 3.7 23.1 9.7 29.7 18 6.6 8.3 10 19.3 10 32.8v22.2c0 14.9 6 22.4 17.9 22.4v25c-11.9 0-17.9 7.4-17.9 22.2v23.5c-.5 25.9-13.8 42.5-39.7 49.8l-6.9-19.5zm168.4 7.5h-99.6v-27.7h99.6v27.7zm58.3-79.7 19.9-67.3h39.8l-48.7 139.3-2.1 5.1c-6.9 15.4-19.1 23.2-36.6 23.2-4.9 0-10-.7-15.3-2.2v-26.5h4.9c5.2 0 9.2-.8 12-2.3 2.8-1.5 4.8-4.2 6.1-8.1l3-7.9-41.5-120.6h39.7l18.8 67.3zm199 9.4c0-5.8-1.4-10.4-4.3-13.7-2.9-3.3-7.9-6.4-15.1-9.4-7.2-2.9-13.9-5.9-20-8.9s-11.4-6.5-15.8-10.5-7.8-8.6-10.1-13.8c-2.4-5.2-3.5-11.5-3.5-19 0-12.4 4.2-22.7 12.6-30.7 8.4-8.1 19.6-12.7 33.5-14.1v-23.3h17.5v23.7c13.5 2 24 7.5 31.7 16.6 7.7 9.1 11.5 20.6 11.5 34.6h-37.3c0-7.6-1.5-13.5-4.4-17.7-2.9-4.1-7.1-6.2-12.6-6.2-4.9 0-8.6 1.5-11.3 4.6-2.7 3.1-4 7.3-4 12.6 0 5.4 1.5 9.8 4.6 13s8.1 6.3 14.9 9.2c6.8 2.9 13.3 5.9 19.4 9 6.1 3.1 11.3 6.7 15.7 10.6 4.4 4 7.9 8.6 10.4 13.9 2.5 5.3 3.8 11.7 3.8 19.1 0 12.6-4 22.8-12 30.8-8 7.9-18.8 12.6-32.6 13.9v22.2h-17.5v-22.3c-16-1.7-28.3-7.2-36.9-16.5-8.6-9.3-12.9-21.6-12.9-36.8h37.2c0 8.4 1.9 14.8 5.6 19.1 3.7 4.4 9 6.6 15.8 6.6 5 0 8.9-1.5 11.8-4.5s4.3-6.8 4.3-12.1z" fill="#fff"/></svg>