<svg xmlns="http://www.w3.org/2000/svg" viewBox="0 0 1920 673" xml:space="preserve"><style>.st2{fill:#fff}</style><path fill="#ef8821" d="M0 0h1920v673H0z"/><path class="st2" d="M1719 301.7c28.4 31.4 36.7 65.1 36.7 92 0 80.1-71.1 142.2-155.7 142.2-78.6 0-154.9-50.1-154.9-129.5 0-74.1 64.4-116 107.8-137.7-18.7-12.7-46.4-31.4-54.6-40.4-31.4-35.2-32.9-68.8-32.9-82.3 0-69.6 60.6-125 135.4-125 68.1 0 134.7 42.7 134.7 111.5 0 49.4-36.7 88.3-90.5 116 47.8 30 59.8 37.5 74 53.2zm-236.5 104.8c0 62.1 53.9 108.5 118.2 108.5 61.4 0 117.5-38.9 117.5-94.3 0-45.6-35.2-68.1-56.1-82.3l-92-58.4c-63.6 35.2-87.6 83.1-87.6 126.5zm145.9-169.2c44.9-26.2 74.1-62.1 74.1-104.8 0-53.9-47.9-92.8-102.5-92.8-53.1 0-101.8 31.4-101.8 77.1 0 12.7 3 38.2 37.4 60.6l92.8 59.9zM1169.5 587h97.3c8.7 0 50.3 0 53.6-4.4 6.6-10.4 10.9-37.7 12.6-48.7h16.9l-15.9 97.9h-216c0-13.7 0-14.8 6.6-20.8l68.9-71.1C1258 473.8 1298 432.2 1298 375.4c0-45.9-26.2-89.1-77.1-89.1-26.8 0-63.4 13.7-79.3 53.6 6.6 0 33.9 0 33.9 28.4 0 20.8-16.9 29-28.4 29-7.7 0-29-3.8-29-30.6 0-48.7 43.2-98.4 108.8-98.4 68.3 0 123 42.1 123 107.2 0 49.8-32.3 79.8-66.2 111-8.7 7.7-31.7 25.7-40.5 33.9l-73.7 66.6zM216.7 440.9c-3.7 14.2-4.5 18-4.5 35.9 0 10.5 0 34.4 22.4 34.4 29.9 0 44.2-44.2 56.9-92.8 2.2-10.5 3-13.5 10.5-13.5 2.2 0 9 0 9 7.5 0 1.5-9 44.9-22.5 73.3-12.7 26.9-31.4 41.9-56.1 41.9-35.2 0-68.1-26.2-68.1-68.8 0-12 1.5-17.2 3.7-25.4l94.3-374.2 2.2-15c0-6-.7-12.7-36.7-12.7-11.2 0-18.7 0-18.7-8.2 0-14.2 8.2-15 14.2-15.7C242.8 6.1 297.4.1 314.6.1c9.7 0 9.7 7.5 9.7 8.2L216.7 440.9zm303.1 86.8c-69.6 0-119.7-52.4-119.7-126.5 0-106.3 100.3-212.5 200.6-212.5 67.3 0 119.7 48.6 119.7 126.5-.1 109.2-101.1 212.5-200.6 212.5zm102.5-85.3c28.4-48.6 43.4-127.2 43.4-156.4 0-44.9-22.4-80.8-65.9-80.8-21 0-63.6 11.2-101 68.8-23.9 38.2-43.4 119-43.4 155.7 0 58.4 32.9 81.6 65.1 81.6 34.5-.1 75.6-25.5 101.8-68.9zM1001 569.6c-11.2 44.9-65.1 103.3-158.6 103.3-71.8 0-99.5-15-99.5-45.7 0-29.9 23.9-43.4 40.4-43.4 20.2 0 28.4 14.2 28.4 26.2 0 12.7-8.2 32.2-30.7 38.9 21 6.7 45.6 7.5 59.9 7.5 79.3 0 104.8-74.1 107.8-80.8 0-1.5 9-32.2 24.7-98.8l-.7-.7c-7.5 8.2-42.7 43.4-86.8 43.4-53.9 0-99.5-44.2-99.5-118.2 0-107.8 92.8-212.5 178.1-212.5 29.9 0 56.1 19.5 69.6 47.1 3-26.9 23.2-32.2 30.7-32.2 12.7 0 21.7 7.5 21.7 20.2 0 5.2-1.5 9-2.2 13.5L1001 569.6zm21.7-288.9c.7-3 2.2-7.5 2.2-11.2 0-3.7-10.5-64.4-59.9-64.4-31.4 0-63.6 29.9-83.8 66.6-20.2 38.2-41.9 126.5-41.9 162.4 0 29.9 11.2 68.8 48.6 68.8 21.7 0 44.9-13.5 60.6-26.9 16.5-14.2 33.7-32.9 38.2-52.4l36-142.9z" opacity=".1"/><path class="st2" d="M1296.7 321.1c12.6 13.9 16.3 28.9 16.3 40.8 0 35.5-31.5 63.1-69.1 63.1-34.9 0-68.7-22.2-68.7-57.4 0-32.9 28.6-51.5 47.8-61.1-8.3-5.6-20.6-13.9-24.2-17.9-13.9-15.6-14.6-30.5-14.6-36.5 0-30.9 26.9-55.4 60.1-55.4 30.2 0 59.8 18.9 59.8 49.5 0 21.9-16.3 39.2-40.2 51.5 21.2 13.1 26.5 16.4 32.8 23.4zm-104.9 46.4c0 27.6 23.9 48.1 52.5 48.1 27.2 0 52.1-17.3 52.1-41.8 0-20.3-15.6-30.2-24.9-36.5l-40.8-25.9c-28.3 15.6-38.9 36.9-38.9 56.1zm64.8-75c19.9-11.6 32.9-27.6 32.9-46.5 0-23.9-21.2-41.2-45.5-41.2-23.6 0-45.2 13.9-45.2 34.2 0 5.6 1.3 16.9 16.6 26.9l41.2 26.6zm-203.7 155.1h43.2c3.9 0 22.3 0 23.8-1.9 2.9-4.6 4.9-16.7 5.6-21.6h7.5l-7 43.4h-95.8c0-6.1 0-6.5 2.9-9.2l30.6-31.5c28.6-29.4 46.3-47.8 46.3-73 0-20.4-11.6-39.5-34.2-39.5-11.9 0-28.1 6.1-35.2 23.8 2.9 0 15 0 15 12.6 0 9.2-7.5 12.9-12.6 12.9-3.4 0-12.9-1.7-12.9-13.6 0-21.6 19.2-43.7 48.3-43.7 30.3 0 54.6 18.7 54.6 47.5 0 22.1-14.3 35.4-29.4 49.2-3.9 3.4-14.1 11.4-18 15l-32.7 29.6zm-422.7-64.8c-1.7 6.3-2 8-2 15.9 0 4.6 0 15.3 10 15.3 13.3 0 19.6-19.6 25.2-41.2 1-4.6 1.3-6 4.6-6 1 0 4 0 4 3.3 0 .7-4 19.9-10 32.5-5.6 12-13.9 18.6-24.9 18.6-15.6 0-30.2-11.6-30.2-30.5 0-5.3.7-7.6 1.7-11.3l41.8-166 1-6.6c0-2.7-.3-5.6-16.3-5.6-5 0-8.3 0-8.3-3.7 0-6.3 3.7-6.6 6.3-7 8.6-.7 32.9-3.3 40.5-3.3 4.3 0 4.3 3.3 4.3 3.7l-47.7 191.9zm134.5 38.5c-30.9 0-53.1-23.2-53.1-56.1 0-47.1 44.5-94.3 89-94.3 29.9 0 53.1 21.6 53.1 56.1 0 48.5-44.8 94.3-89 94.3zm45.5-37.8c12.6-21.6 19.3-56.4 19.3-69.4 0-19.9-10-35.9-29.2-35.9-9.3 0-28.2 5-44.8 30.5-10.6 16.9-19.3 52.8-19.3 69.1 0 25.9 14.6 36.2 28.9 36.2 15.2 0 33.5-11.3 45.1-30.5zm168 56.4c-5 19.9-28.9 45.8-70.4 45.8-31.9 0-44.2-6.6-44.2-20.3 0-13.3 10.6-19.3 17.9-19.3 9 0 12.6 6.3 12.6 11.6 0 5.6-3.7 14.3-13.6 17.3 9.3 3 20.3 3.3 26.6 3.3 35.2 0 46.5-32.9 47.8-35.9 0-.7 4-14.3 11-43.8l-.3-.3c-3.3 3.7-18.9 19.3-38.5 19.3-23.9 0-44.2-19.6-44.2-52.5 0-47.8 41.2-94.3 79-94.3 13.3 0 24.9 8.6 30.9 20.9 1.3-12 10.3-14.3 13.6-14.3 5.6 0 9.6 3.3 9.6 9 0 2.3-.7 4-1 6l-36.8 147.5zm9.6-128.1c.3-1.3 1-3.3 1-5s-4.6-28.6-26.6-28.6c-13.9 0-28.2 13.3-37.2 29.5-9 16.9-18.6 56.1-18.6 72 0 13.3 5 30.5 21.6 30.5 9.6 0 19.9-6 26.9-12 7.3-6.3 14.9-14.6 16.9-23.2l16-63.2z"/></svg>