<svg xmlns="http://www.w3.org/2000/svg" viewBox="0 0 1920 673" xml:space="preserve"><style>.st1{fill:#303f0d}.st2{fill:#fff}</style><path fill="#9ac33c" d="M0 0h1920v673H0z"/><path class="st1" d="M511 188.3h-27.8v-48.5H442v48.5h-28v-116h28v46.1h41.2V72.3H511v116z"/><path class="st2" d="M607.5 145.9c0 14.1-2.9 25-8.8 32.6-5.8 7.6-14.1 11.4-24.7 11.4-8.8 0-15.8-3.5-21.2-10.4l-1.1 8.8h-24.1V65.9h26.9V109c5-5.7 11.4-8.5 19.4-8.5 10.7 0 19 3.9 24.9 11.6 5.8 7.7 8.8 18.5 8.8 32.5v1.3zm-26.9-1.7c0-8.3-1.1-14.2-3.3-17.7-2.2-3.5-5.6-5.3-10.2-5.3-6.1 0-10.3 2.3-12.6 6.9v34.2c2.3 4.6 6.5 6.8 12.8 6.8 6.3 0 10.3-3.1 12-9.2.9-2.9 1.3-8.2 1.3-15.7zm90.1 34.8c-5.7 7.3-13.4 10.9-23 10.9-9.5 0-16.6-2.7-21.5-8.2-4.9-5.5-7.3-13.4-7.3-23.7v-55.9h26.9v56c0 7.4 3.6 11.1 10.8 11.1 6.2 0 10.5-2.2 13.2-6.6v-60.5h27v86.2h-25.2l-.9-9.3zm72-98.3v21.4h14.2v18.6h-14.2v39.5c0 3.2.6 5.5 1.8 6.8 1.2 1.3 3.5 1.9 6.9 1.9 2.7 0 4.9-.2 6.7-.5v19.2c-4.8 1.5-9.9 2.3-15.1 2.3-9.2 0-16.1-2.2-20.5-6.5-4.4-4.4-6.6-11-6.6-19.8v-42.8h-11v-18.6h11V80.7h26.8zm56 0v21.4h14.2v18.6h-14.2v39.5c0 3.2.6 5.5 1.8 6.8 1.2 1.3 3.5 1.9 6.9 1.9 2.7 0 4.9-.2 6.7-.5v19.2c-4.8 1.5-9.9 2.3-15.1 2.3-9.2 0-16.1-2.2-20.5-6.5-4.4-4.4-6.6-11-6.6-19.8v-42.8h-11v-18.6h11V80.7h26.8zm19 63.7c0-8.6 1.7-16.3 5-23 3.3-6.7 8.2-11.9 14.4-15.5 6.3-3.6 13.6-5.4 22.1-5.4 12.9 0 23.1 4 30.5 12 7.4 8 11.2 18.9 11.2 32.6v1c0 13.4-3.7 24.1-11.2 32-7.5 7.9-17.6 11.8-30.3 11.8-12.3 0-22.1-3.7-29.6-11-7.4-7.4-11.5-17.3-12-29.9l-.1-4.6zm26.8 1.7c0 8 1.2 13.8 3.7 17.5 2.5 3.7 6.2 5.6 11.1 5.6 9.6 0 14.5-7.4 14.7-22.1v-2.7c0-15.5-4.9-23.2-14.8-23.2-9 0-13.8 6.7-14.6 20l-.1 4.9zm92.9-44 .9 10.1c5.9-7.8 14.2-11.7 24.6-11.7 9 0 15.7 2.7 20.1 8 4.4 5.4 6.7 13.4 6.9 24.2v55.5H963v-54.4c0-4.4-.9-7.6-2.6-9.6-1.8-2-4.9-3.1-9.6-3.1-5.3 0-9.2 2.1-11.7 6.2v60.9h-26.9V102h25.2zm84 60.2c4.3 0 7.8 1.3 10.6 3.8s4.2 5.8 4.2 9.7c0 3.9-1.4 7.2-4.2 9.7-2.8 2.5-6.3 3.8-10.6 3.8s-7.9-1.3-10.6-3.8-4.2-5.8-4.2-9.6c0-3.9 1.4-7.1 4.2-9.6s6.3-4 10.6-4zm29.3-18c0-13.7 3-24.4 8.9-32.2 6-7.8 14.2-11.6 24.6-11.6 8.8 0 15.9 3.6 21.2 10.8l1.9-9.2h23.3v119.4h-26.9v-40.3c-5.2 5.8-11.7 8.8-19.6 8.8-10.2 0-18.3-3.9-24.3-11.8-6.1-8-9.1-19.2-9.1-33.9zm26.9 1.7c0 15.5 4.5 23.2 13.4 23.2 6.2 0 10.4-2.3 12.8-7v-34.1c-2.2-4.6-6.4-6.9-12.6-6.9-8.3 0-12.8 6.7-13.5 20l-.1 4.8zm93.6-43.9.9 10.1c6.1-7.8 14.3-11.7 24.6-11.7 10.9 0 18.3 4.3 22.1 13 5.8-8.7 14.3-13 25.3-13 17.5 0 26.5 10.6 26.9 31.7v56.1h-26.9v-54.4c0-4.4-.7-7.6-2.2-9.6-1.5-2-4.2-3-8.1-3-5.3 0-9.3 2.4-11.9 7.1l.1 1.1v58.9h-26.9v-54.3c0-4.5-.7-7.8-2.2-9.8-1.4-2-4.2-3-8.2-3-5.2 0-9.1 2.4-11.8 7.1v60H1146v-86.2h25.2zm143.6 86.2h-26.9V65.9h26.9v122.4zM447.2 352.2l13.6-54.3h28.3L461 384.2h-27.4L405.4 298h28.4l13.4 54.2zm95.1 7.8c0-2.3-1.2-4.1-3.6-5.5-2.4-1.4-6.9-2.8-13.6-4.3-6.7-1.5-12.2-3.4-16.6-5.9-4.4-2.4-7.7-5.4-10-8.8-2.3-3.5-3.4-7.4-3.4-11.9 0-7.9 3.3-14.4 9.8-19.6 6.5-5.1 15.1-7.7 25.7-7.7 11.4 0 20.5 2.6 27.4 7.7 6.9 5.2 10.4 11.9 10.4 20.3h-26.9c0-6.9-3.6-10.4-10.9-10.4-2.8 0-5.2.8-7.1 2.4-1.9 1.6-2.9 3.5-2.9 5.9 0 2.4 1.2 4.3 3.5 5.8s6.1 2.7 11.2 3.7 9.6 2.1 13.5 3.4c13 4.5 19.4 12.5 19.4 24 0 7.9-3.5 14.3-10.5 19.2-7 4.9-16 7.4-27.1 7.4-7.4 0-14-1.3-19.8-4-5.8-2.7-10.3-6.3-13.5-10.8-3.2-4.6-4.9-9.4-4.9-14.4h25.1c.1 4 1.4 6.9 4 8.7 2.6 1.8 5.8 2.8 9.8 2.8 3.7 0 6.4-.7 8.2-2.2s2.8-3.4 2.8-5.8zm55-1.9c4.3 0 7.8 1.3 10.6 3.8s4.2 5.8 4.2 9.7-1.4 7.2-4.2 9.7c-2.8 2.5-6.3 3.8-10.6 3.8s-7.9-1.3-10.6-3.8-4.2-5.8-4.2-9.6 1.4-7.1 4.2-9.6 6.3-4 10.6-4z"/><path class="st1" d="M439 503.1c5.7-7.2 13.1-10.8 22-10.8 9.5 0 16.7 2.8 21.5 8.4 4.8 5.6 7.3 13.9 7.4 24.9V580H463v-53.8c0-4.6-.9-7.9-2.8-10.1-1.9-2.2-5-3.2-9.5-3.2-5.5 0-9.4 1.8-11.7 5.3V580h-26.9V457.6H439v45.5z"/><path class="st2" d="M585 537.7c0 14.1-2.9 25-8.8 32.6-5.8 7.6-14.1 11.4-24.7 11.4-8.8 0-15.8-3.5-21.2-10.4l-1.1 8.8h-24.1V457.6H532v43.1c5-5.7 11.4-8.5 19.4-8.5 10.7 0 19 3.9 24.9 11.6 5.8 7.7 8.8 18.5 8.8 32.5v1.4zm-27-1.7c0-8.3-1.1-14.2-3.3-17.7-2.2-3.5-5.6-5.3-10.2-5.3-6.1 0-10.3 2.3-12.6 6.9v34.2c2.3 4.6 6.5 6.8 12.8 6.8 6.3 0 10.3-3.1 12-9.2.9-3 1.3-8.3 1.3-15.7zm90.2 34.7c-5.7 7.3-13.4 10.9-23 10.9-9.5 0-16.6-2.7-21.5-8.2-4.9-5.5-7.3-13.4-7.3-23.7v-55.9h26.9v56c0 7.4 3.6 11.1 10.8 11.1 6.2 0 10.5-2.2 13.2-6.6v-60.5h27V580H649l-.8-9.3zm71.9-98.3v21.4h14.2v18.6h-14.2v39.5c0 3.2.6 5.5 1.8 6.8 1.2 1.3 3.5 1.9 6.9 1.9 2.7 0 4.9-.2 6.7-.5v19.2c-4.8 1.5-9.9 2.3-15.1 2.3-9.2 0-16.1-2.2-20.5-6.5-4.4-4.4-6.6-11-6.6-19.8v-42.8h-11v-18.6h11v-21.4h26.8zm56.1 0v21.4h14.2v18.6h-14.2v39.5c0 3.2.6 5.5 1.8 6.8 1.2 1.3 3.5 1.9 6.9 1.9 2.7 0 4.9-.2 6.7-.5v19.2c-4.8 1.5-9.9 2.3-15.1 2.3-9.2 0-16.1-2.2-20.5-6.5-4.4-4.4-6.6-11-6.6-19.8v-42.8h-11v-18.6h11v-21.4h26.8zm18.9 63.8c0-8.6 1.7-16.3 5-23 3.3-6.7 8.2-11.9 14.4-15.5 6.3-3.6 13.6-5.4 22.1-5.4 12.9 0 23.1 4 30.5 12 7.4 8 11.2 18.9 11.2 32.6v1c0 13.4-3.7 24.1-11.2 32-7.5 7.9-17.6 11.8-30.3 11.8-12.3 0-22.1-3.7-29.6-11-7.4-7.4-11.5-17.3-12-29.9l-.1-4.6zm26.9 1.6c0 8 1.2 13.8 3.7 17.5 2.5 3.7 6.2 5.6 11.1 5.6 9.6 0 14.5-7.4 14.7-22.1v-2.7c0-15.5-4.9-23.2-14.8-23.2-9 0-13.8 6.7-14.6 20l-.1 4.9zm92.8-44 .9 10.1c5.9-7.8 14.2-11.7 24.6-11.7 9 0 15.7 2.7 20.1 8 4.4 5.4 6.7 13.4 6.9 24.2v55.5h-26.9v-54.4c0-4.4-.9-7.6-2.6-9.6-1.8-2-4.9-3.1-9.6-3.1-5.3 0-9.2 2.1-11.7 6.2v60.9h-26.9v-86.2h25.2zm84 60.2c4.3 0 7.8 1.3 10.6 3.8s4.2 5.8 4.2 9.7-1.4 7.2-4.2 9.7c-2.8 2.5-6.3 3.8-10.6 3.8s-7.9-1.3-10.6-3.8c-2.8-2.5-4.2-5.8-4.2-9.6 0-3.9 1.4-7.1 4.2-9.6 2.8-2.7 6.3-4 10.6-4zm29.4-17.9c0-13.7 3-24.4 8.9-32.2 6-7.8 14.2-11.6 24.6-11.6 8.8 0 15.9 3.6 21.2 10.8l1.9-9.2h23.3v119.4h-26.9V573c-5.2 5.8-11.7 8.8-19.6 8.8-10.2 0-18.3-3.9-24.3-11.8-6.1-8.1-9.1-19.3-9.1-33.9zm26.8 1.6c0 15.5 4.5 23.2 13.4 23.2 6.2 0 10.4-2.3 12.8-7v-34.1c-2.2-4.6-6.4-6.9-12.6-6.9-8.3 0-12.8 6.7-13.5 20l-.1 4.8zm93.7-43.9.9 10.1c6.1-7.8 14.3-11.7 24.6-11.7 10.9 0 18.3 4.3 22.1 13 5.8-8.7 14.3-13 25.3-13 17.5 0 26.5 10.6 26.9 31.7V580h-26.9v-54.4c0-4.4-.7-7.6-2.2-9.6-1.5-2-4.2-3-8.1-3-5.3 0-9.3 2.4-11.9 7.1l.1 1.1v58.9h-26.9v-54.3c0-4.5-.7-7.8-2.2-9.8s-4.2-3-8.2-3c-5.2 0-9.1 2.4-11.8 7.1v60h-26.9v-86.2h25.2zm143.5 86.3h-26.9V457.6h26.9v122.5z"/></svg>