<svg xmlns="http://www.w3.org/2000/svg" viewBox="0 0 1920 673" xml:space="preserve"><path fill="#2668a3" d="M0 0h1920v673H0z"/><path d="M506.9 97.2h-2.3l1.5-13.3c4.8-.1 6.5-1.5 8.2-4.6 3.3-6.3 4.7-18.7 4.7-25.9 0-7.6-1.8-7.6-4.5-7.6h-1.1v-3.2h35.8v3.2H548c-2.7 0-3.6.8-3.6 3.3v30.7c0 2.8 1 3.3 3.6 3.3h1.8l2.1 14.1h-2c-4.4-9.5-10-10.5-20.4-10.5h-5.8c-8.7 0-15 4.1-16.8 10.5zM534.3 50c0-1.8 0-3.3-3.5-3.3h-3.7c-3.7 0-4 3.3-4.1 5.9-1 19.9-4 27-5.7 30v.6h13.5c2.7 0 3.5-.8 3.5-3.1V50zm20 22.1c0-6.6 4.2-15.3 14.8-15.3 10.6 0 14.8 8.7 14.8 15.3 0 6.8-4.2 15.3-14.8 15.3-10.6 0-14.8-8.5-14.8-15.3zm8.8 0c0 6.2 1.2 12 6 12 5 0 6-6.6 6-12 0-9.9-3.2-12-6-12-3.2 0-6 2.7-6 12zm53.8 12.4h.8c1.8 0 2.4-.5 2.4-2.2V62c0-1.1-.6-1.2-1.7-1.2-.3 0-4.2.3-6.6 5.4h-2l2.3-8.7H636l2.2 8.7h-1.9c-3-5.2-5.5-5.4-6.6-5.4-1.3 0-1.8.3-1.8 2v19.5c0 1.7.6 2.2 2.5 2.2h.7v2.2h-14.2v-2.2zm52-5.1c-4.3 6.2-7.4 8-12.6 8-8.5 0-14.3-7-14.3-16 0-9.2 5.8-14.6 13.5-14.6 9.2 0 12.6 9.2 12.6 15.3h-17.3c0 6.8 2.7 11.3 8.2 11.3 3.2 0 5.3-2.4 7.8-5.6l2.1 1.6zm-9-10.5c0-6.6-2.7-8.7-4-8.7-2.1 0-5.1 1.9-5.1 8.7h9.1zM671 84.5h.9c1.6 0 3.6-.6 5-2.8l5.9-9.7-4.4-8.6c-1.3-2.3-2.6-3.7-5.6-3.7v-2.2h13.1v2.2h-.9c-.4 0-.6.3-.6.5 0 .4.4 1.2.6 1.5l2.8 5.4h.4l3.3-5.3c.2-.3.6-.9.6-1.4 0-.5-.4-.6-.7-.6h-1.1v-2.2h10v2.2c-4 0-5.6 2.7-6.4 4l-3.4 5.6 6.8 12.7c.6 1.1 2 2.5 4.6 2.5v2.2h-13.5v-2.2h1.1c.3 0 .6-.1.6-.6 0-.3-.4-1-.6-1.5l-4.2-7.9h-.4l-4.7 7.6c-.3.4-.8 1.5-.8 1.8 0 .3.2.5.5.5h1.8v2.2H671v-2.2zm57 0h.8c1.8 0 2.4-.4 2.4-2.2V62c0-1.8-.6-2.2-2.4-2.2h-.8v-2.2h32.9v2.2h-.8c-1.8 0-2.4.4-2.4 2.2v20.3c0 1.8.6 2.2 2.4 2.2h.8v2.2h-14.2v-2.2h.7c2.3 0 2.5-.9 2.5-2V62.8c0-2-1.5-2-2.5-2h-5.9c-.9 0-2.5 0-2.5 2v19.7c0 1.5.6 2 2.5 2h.7v2.2H728v-2.2zm37.1-12.4c0-6.6 4.2-15.3 14.8-15.3 10.6 0 14.8 8.7 14.8 15.3 0 6.8-4.2 15.3-14.8 15.3-10.5 0-14.8-8.5-14.8-15.3zm8.9 0c0 6.2 1.2 12 6 12 5 0 6-6.6 6-12 0-9.9-3.2-12-6-12-3.2 0-6 2.7-6 12zm24.9 12.4h.8c1.8 0 2.4-.5 2.4-2.2V62c0-2.2-1-2.2-3.2-2.2v-2.2h14.2v2.2h-.8c-1.8 0-2.4.5-2.4 2.2v9.4h.5l8.9-9c.4-.4.7-.9.7-1.7 0-.5-.4-.8-1.7-.8v-2.2H829v2.2c-2.5.1-4.4 1.5-6.2 3.4l-3.3 3.5 6.8 13.6c1.3 2.5 2.8 4.3 5.8 4.3v2.2h-14.5v-2.2h.9c.3 0 1.1 0 1.1-.6 0-.4-.4-1.6-.7-2.3l-4.7-9.5-4.2 4.3v5.9c0 1.7.6 2.2 2.4 2.2h.8v2.2H799v-2.4zm67.1-.6c-2.3 2.6-4.9 3.5-7.6 3.5-1.4 0-4.4-.1-5.5-2.9h-.3c-3.5 2.2-6.2 2.9-8.7 2.9-4 0-8.7-1.6-8.7-7 0-8.2 11.8-11.3 17.5-12.2v-4.4c0-3.1-1.6-3.7-4.4-3.7-3.2 0-3.9 2.7-4 3.5-.3 1.6-.9 3.5-3.4 3.5-2.1 0-3.2-1.4-3.2-3.2 0-2.8 3.5-7.1 12.1-7.1 10 0 10.9 5.1 10.9 8v14.8c0 2 .2 3.9 1.8 3.9.8 0 1.8-.8 2.4-1.2l1.1 1.6zm-13.3-12.4c-4.8.9-8.7 4.3-8.7 8.1 0 2.1 1.8 3.5 4.1 3.5 1.5 0 3.2-.8 4.5-2v-9.6zm58.8-2.7c-.5.6-.6.8-.9 2l-2.2 8.9c-.3 1.3-.9 3.5-.9 4 0 .8.4.9 1.7 1 1.1.1 2.3.1 2.4.1 1.2 0 1.8 0 1.8.7 0 1.3-.8 1.3-1.2 1.3-1.8 0-6.3-.2-8.1-.2-1.8 0-6.2.2-8 .2-.1 0-.9 0-.9-.7 0-1.3.5-1.3 1.7-1.3 5.1-.1 5.1-.3 5.9-3.7.3-1.1 2.8-11.3 2.8-11.5 0-.2-.2-.9-.3-1.1l-7.8-20.8c-.6-1.6-.8-2.1-4.6-2.1-.8 0-1.5 0-1.5-.7 0-1.3.8-1.3 1.2-1.3 1.6 0 5.5.2 7.1.2 1.8 0 6.2-.2 8-.2.2 0 .9 0 .9.7 0 1.3-.6 1.3-1.5 1.3-.6 0-3.7 0-3.7 1.5 0 .1 0 .2.4 1.1l7 18.8 14.8-17c.3-.3 1.7-2 1.7-3 0-1.3-1.8-1.5-2.3-1.5-.3 0-.9-.1-.9-.8 0-1.2.8-1.2 1.2-1.2 2 0 4.2.2 6.3.2 1.7 0 3.5-.2 5.2-.2.5 0 .8.3.8.8 0 1.1-.6 1.1-1.3 1.2-4.3.3-6.4 2.5-8.3 4.4l-.9.9-15.6 18zm35.7 27.4H929c0-1.2 0-1.3.4-1.7L940.1 84c1.4-1.6 4.2-4.6 4.2-8.5 0-3.6-2.3-7-6.7-7-2.1 0-5.1 1-6.5 4.1 2.3 0 2.6 1.5 2.6 2.3 0 1.6-1.3 2.3-2.3 2.3-.4 0-2.3-.2-2.3-2.5 0-4.1 3.7-7.9 9.2-7.9 5.7 0 10.4 3.3 10.4 8.6 0 4.2-3.1 6.9-6.3 9.6-2.7 2.1-4.2 3.3-8.8 7.4h8.1c.6 0 4 0 4.4-.3.6-.4 1-3.1 1.2-4h1.5l-1.6 8.1zm34.4-25.3 33.2 15.7c.8.4 1.2.7 1.2 1.4s-.6 1.3-1.3 1.3c-.2 0-.3 0-1.1-.4l-35-16.5c-.7-.3-1.2-.6-1.2-1.4 0-.8.5-1.1 1.2-1.4l35-16.5c.8-.4.9-.4 1.1-.4.7 0 1.3.6 1.3 1.3 0 .7-.4 1-1.2 1.4l-33.2 15.5zm71.8 17.2c-7.1 0-11.4-6.1-11.4-11.6 0-2.9 2.2-3.3 3.1-3.3 2.1 0 3.2 1.6 3.2 3.1s-1.1 3.1-3.2 3.1c-.7 0-.9-.1-1.1-.1 1.1 3.7 4.7 7.1 9.3 7.1 2.9 0 5.2-1.6 6.8-4.1 1.5-2.7 1.5-6.4 1.5-8.7 0-3.2-.1-5.6-1.1-8-.5-1.1-2.1-4-5.4-4-5.1 0-7.5 3.4-8.2 4.4-.3.4-.4.6-.8.6-.9 0-.9-.5-.9-1.6V46.2c0-1 0-1.5.6-1.5.1 0 .3 0 .8.2 3 1.3 5.9 1.8 8.4 1.8 4.2 0 7.3-1.3 8.6-1.8.3-.2.4-.2.5-.2.4 0 .6.3.6.7 0 .8-4.4 6.6-12.2 6.6-2 0-4.1-.4-5.4-.8v12.3c2.3-2.2 5-3.2 8-3.2 6.8 0 12 6.3 12 13.8.1 8-6.4 14-13.7 14zm41.6-3.6h.7c2.3 0 2.5-1.1 2.5-2V61.6c0-.9-.1-1.9-2.5-1.9h-.7v-2.2h15.3c3.7 0 11.8.1 11.8 7.4 0 2-.8 5.1-7.3 6.1v.3c8.1 1 9 5.6 9 7.6 0 1.8-1 7.8-11.6 7.8H1095v-2.2zm13.4-14.4c1.7 0 5.4-.4 5.4-4.8 0-4.2-3.3-4.4-4.4-4.4-1.8 0-3.3.1-3.3 1.8v7.5h2.3zm-2.4 11.6c0 .9.1 1.8 2.7 1.8 5.8 0 6.3-3.6 6.3-5.8 0-3.6-3.5-4.4-6.8-4.4h-2.1v8.4zm22 2.8h.8c1.8 0 2.4-.5 2.4-2.2V62.2c0-2.3-.5-2.5-2.8-2.5h-.3v-2.2h14.2v2.2h-.7c-1.6 0-2.5.3-2.5 2.2v7.8c1.4-.1 4.3-.3 6.2-.3 8.5 0 11.4 5.2 11.4 9 0 3.7-3 8.2-12.5 8.2h-16v-2.1zm11-2.9c0 1.8 1.6 1.8 2.5 1.8 5.9 0 6.3-4.4 6.3-5.2 0-3.3-2.3-5.4-5.8-5.4-.9 0-2 .1-2.9.3v8.5zm18.7 2.9h.8c1.8 0 2.4-.4 2.4-2.2V62c0-1.8-.6-2.2-2.4-2.2h-.8v-2.2h14.2v2.2h-.7c-2.5 0-2.5 1.2-2.5 2.7v19.8c0 1.7.6 2.2 2.5 2.2h.7v2.2h-14.2v-2.2zm19.2 0h.8c1.8 0 2.4-.4 2.4-2.2V62c0-1.8-.6-2.2-2.4-2.2h-.8v-2.2h32.9v2.2h-.8c-1.8 0-2.4.4-2.4 2.2v20.3c0 1.8.6 2.2 2.4 2.2h.8v2.2h-14.2v-2.2h.7c2.3 0 2.5-.9 2.5-2V62.8c0-2-1.5-2-2.5-2h-5.9c-.9 0-2.5 0-2.5 2v19.7c0 1.5.6 2 2.5 2h.7v2.2h-14.2v-2.2zm37.1-12.4c0-6.6 4.2-15.3 14.8-15.3s14.8 8.7 14.8 15.3c0 6.8-4.2 15.3-14.8 15.3s-14.8-8.5-14.8-15.3zm8.9 0c0 6.2 1.2 12 6 12 5 0 6-6.6 6-12 0-9.9-3.2-12-6-12-3.3 0-6 2.7-6 12zm41.2 12.4h.8c1.8 0 2.4-.5 2.4-2.2V63.2c0-1.8-1.3-2.4-2-2.4h-2.8c-2 0-2 1.3-2 4.5v7.3c0 7.4-.7 14.8-7.4 14.8-5.1 0-6.6-4-6.6-6.8 0-3.1 2.1-4.4 3.7-4.4 1.3 0 3 .8 3 3.5 0 2.3-1.5 2.3-1.5 3.6 0 .4.9.8 1.6.8 3.9 0 3.9-7.4 3.9-11.7v-9.3c0-.3-.1-2-.4-2.7-.6-.8-1.1-.8-2.7-.8v-2.2h24.3v2.2h-.8c-1.8 0-2.4.5-2.4 2.2v20.3c0 1.7.6 2.2 2.3 2.2h.8v2.2h-14.2v-2zm19.2 0h.8c1.8 0 2.4-.5 2.4-2.2V62c0-1.7-.6-2.2-2.4-2.2h-.8v-2.2h14.2v2.2h-.8c-1.8 0-2.4.5-2.4 2.2v7.5h10.6V62c0-1.7-.6-2.2-2.4-2.2h-.8v-2.2h14.2v2.2h-.8c-1.8 0-2.4.5-2.4 2.2v20.3c0 1.7.6 2.2 2.4 2.2h.8v2.2h-14.2v-2.2h.8c1.8 0 2.4-.5 2.4-2.2v-9.5h-10.6v9.5c0 1.7.6 2.2 2.4 2.2h.8v2.2h-14.2v-2.2zm36.4 0c3.7-.3 4.5-2.4 6.1-4.9l3.5-5.6v-.3c-3-.9-7.8-3-7.8-8.2 0-4.2 3.3-8.1 12.1-8.1h17.3v2.2h-.8c-1.8 0-2.4.5-2.4 2.2v20.3c0 1.7.6 2.2 2.4 2.2h.8v2.2h-14.2v-2.2h.8c1.5 0 2.4-.3 2.4-1.9v-8.5h-2.8l-5.4 8.7c-.3.4-.6.9-.6 1.3 0 .1.1.4.5.4h1.5v2.2h-13.5v-2zm20.3-21.3c0-.9 0-2.4-1.7-2.4h-1.9c-4 0-5.9 2.1-5.9 5.3 0 2.8 1.8 5.1 6.5 5.1 1.1 0 2.1-.1 3-.3v-7.7zm21.8 21.3h.8c1.8 0 2.4-.5 2.4-2.2V62c0-1.1-.6-1.2-1.7-1.2-.3 0-4.2.3-6.6 5.4h-2l2.3-8.7h23.8l2.2 8.7h-1.9c-3-5.2-5.5-5.4-6.6-5.4-1.3 0-1.8.3-1.8 2v19.5c0 1.7.6 2.2 2.5 2.2h.7v2.2h-14.2v-2.2zm25 0h.8c2 0 2.4-.5 2.4-2.2V62.2c0-2.3-.6-2.5-2-2.5h-1.1v-2.2h14.2v2.2h-.8c-2.4 0-2.4 1.3-2.4 2.5v7.6c1.4-.1 4.3-.3 6.2-.3 8.5 0 11.4 5.2 11.4 9 0 1.9-1.1 8.2-12.5 8.2h-16v-2.2zm11-2.9c0 .9.2 1.8 2.5 1.8 1.2 0 6.3-.4 6.3-5.2 0-3.3-2.3-5.4-5.8-5.4-.9 0-2 .1-2.9.3v8.5zm-796.2 77.7h1.2c3.4 0 3.5-1.6 3.5-3.3v-31.2c0-1.6-.1-3.3-3.5-3.3h-1.2v-3.2h33.1l1.9 10.7h-2c-1.1-2.6-3.7-6.9-9.9-6.9H620c-2.6 0-3.6.6-3.6 3.4v11.3h4.3c7.5 0 7.6-.6 8.1-4.2h2V145h-2c-.5-2.7-.6-4.2-5.6-4.2h-6.8v14.6c0 2.5.8 3.3 3.6 3.3h5.4c2.7 0 7.9-.1 11.5-7h2.1l-2.2 10.9h-35.2v-3.3zm68-1.2c-4.3 3.9-7.2 5.2-10.5 5.2-9.3 0-15.1-6.2-15.1-14.4 0-8 4.8-16.2 15.7-16.2 6.9 0 9.4 4.2 9.4 6.9 0 1.3-1.1 2.7-2.8 2.7-2.8 0-3.9-2.1-4.2-3.1-.6-1.6-1.1-3.2-3.3-3.2-4.6 0-5.9 6.1-5.9 10.6 0 7.6 2.6 13.4 8.2 13.4 2.9 0 5.2-1.7 7.3-3.6l1.2 1.7zm21.2 2.2h.8c1.8 0 2.4-.5 2.4-2.2V139c0-1.8-1.3-2.4-2-2.4h-3c-2 0-2 1.3-2 4.5v7.3c0 7.4-.7 14.8-7.4 14.8-5.1 0-6.6-4-6.6-6.8 0-3.1 2.1-4.4 3.7-4.4 1.3 0 3 .8 3 3.5 0 2.3-1.5 2.3-1.5 3.6 0 .4.9.8 1.6.8 3.9 0 3.9-7.4 3.9-11.7v-9.3c0-.3-.1-2-.4-2.7-.6-.8-1.1-.8-2.7-.8v-2.2h24.3v2.2h-.8c-1.8 0-2.4.5-2.4 2.2v20.3c0 1.7.6 2.2 2.3 2.2h.8v2.2h-14.2v-2zm19.2 0h.8c1.8 0 2.4-.5 2.4-2.2v-20.3c0-1.7-.6-2.2-2.4-2.2h-.8v-2.2h14.2v2.2h-.8c-1.8 0-2.4.5-2.4 2.2v14h.4l10.5-14.2v-.8c0-1.3-1.8-1.3-2.5-1.3h-.7v-2.2h14.2v2.2h-.8c-2.3 0-2.4.9-2.4 1.8v21.2c0 .9.1 1.8 2.4 1.8h.8v2.2h-14.2v-2.2h.7c1.8 0 2.5-.5 2.5-2.2v-14.7h-.4L721 157.6v.9c0 1.8.8 1.8 3.2 1.8v2.2H710v-2.2zm77.4 10.2c-.1.6-.3.9-.3 1.4 0 .6 0 1 3 1 1 0 1.6 0 1.6.7 0 1.3-.8 1.3-1.1 1.3-2.1 0-4.4-.2-6.5-.2-2.1 0-4.3.2-6.3.2-.8 0-.8-.6-.8-.7 0-1.3.6-1.3 1.5-1.3 3.5-.1 4-.3 4.5-2.1.2-.6 2.3-9.1 2.8-11.3-2.3 2.3-4.7 3.8-7.5 3.8-4.6 0-8.3-3.9-8.3-10.1 0-9.2 7.8-18.5 15.2-18.5 2 0 4.5 1 5.9 4.4 1.1-1.8 3.6-4.4 4.3-4.4.4 0 .6.4.6.6l-8.6 35.2zm-.8-14.4c.2-.3 3.7-14.1 3.7-14.5 0-.4-.9-5.6-5-5.6-2.6 0-5.9 2.7-7.8 7.3-1.1 2.7-2.9 9.5-2.9 12.6 0 1.1.3 5.9 4 5.9 3.5.1 7.1-4 8-5.7zm26 7.2c-3.4 0-7.8-1.6-7.8-7.6 0-3.1 1.3-7 3.7-13.3.4-.9 1.1-2.8 1.1-4.3 0-2-1-2.1-1.6-2.1-2.4 0-4.8 2.3-6.4 7.8-.3 1-.4 1.1-1 1.1-.1 0-.8 0-.8-.6s2.3-9.7 8.3-9.7c3.2 0 5.2 2.3 5.2 5.2 0 1.2-.3 2.1-1.1 4-1.6 4.4-3.4 9.4-3.4 12.9 0 2.3.6 5.2 3.9 5.2 4.6 0 7.1-5.1 7.2-5.3.8-3.3 3.5-14.4 4.7-19 .5-2.1 2.1-2.2 2.5-2.2.9 0 1.8.6 1.8 1.7 0 .4-.6 2.8-.9 4.2-.3.9-.9 3.3-1.1 4.3l-1.8 6.8c-.5 2.2-1.3 5.2-1.3 6.6 0 2.1.6 2.9 2 2.9 2.7 0 3.9-4.3 4.7-7.8.2-.9.3-1.1.9-1.1.2 0 .8 0 .8.6 0 .1-.8 4-1.9 6.3-1 2-2.5 3.5-4.7 3.5-2.7 0-4.9-1.6-5.6-4.2-1 1.2-3.2 4.1-7.4 4.1zm47.8-27.4c1.1 0 1.8.6 1.8 1.7 0 .3 0 .4-.4 2.1l-2.3 8.8c-.6 2.4-.7 3-1.4 5.7-.7 2.8-.8 3.3-.8 4.7 0 1.3.2 2.9 1.9 2.9 2.6 0 3.7-3.7 4.8-7.8.2-.9.3-1.1.9-1.1.2 0 .8 0 .8.6 0 .1-.8 4-1.9 6.3-1 2-2.5 3.5-4.7 3.5-3 0-5.2-2.1-5.8-4.7-3.8 4.5-7 4.7-8.2 4.7-4.9 0-8.4-4.2-8.4-10.1 0-9.2 7.8-18.5 15.2-18.5 2.8 0 4.7 1.7 5.8 4 .2-1.4 1.1-2.8 2.7-2.8zm-3.6 6.8c.1-.3.2-.7.2-1.1 0-.4-.9-5.6-5-5.6-2.5 0-5.4 2.3-7.3 6.1-1.5 2.9-3.5 10.7-3.5 13.8 0 2.5.9 5.9 4 5.9 1.8 0 4.4-1 7.1-4.5.9-1.1.9-1.2 1.3-2.3l3.2-12.3zm17.9 13.2c-.3 1.2-.4 1.5-.4 3 0 .9 0 2.9 1.9 2.9 2.5 0 3.7-3.7 4.8-7.8.2-.9.3-1.1.9-1.1.2 0 .8 0 .8.6 0 .1-.8 3.8-1.9 6.2-1.1 2.3-2.7 3.5-4.7 3.5-3 0-5.8-2.2-5.8-5.8 0-1 .1-1.5.3-2.1l8-31.6.2-1.3c0-.5-.1-1.1-3.1-1.1-.9 0-1.6 0-1.6-.7 0-1.2.7-1.3 1.2-1.3 1.6-.1 6.3-.6 7.7-.6.8 0 .8.6.8.7l-9.1 36.5zm23.5-2.4c-1.5 3.9-1.8 4.7-1.8 6.3 0 1.5.4 2.1 1.5 2.1 3.2 0 5.3-3.9 6.4-7.8.3-.9.3-1.1.9-1.1.2 0 .8 0 .8.6s-2.3 9.7-8.3 9.7c-3 0-5.2-2.2-5.2-5.2 0-1.3.8-3.4 1.5-5.1 1-2.7 3.9-10 4.4-11.7.3-.6.7-2 .7-3.3 0-2-1.1-2-1.6-2-2.1 0-4.7 1.9-6.4 7.8-.3 1-.4 1.1-1 1.1-.1 0-.8 0-.8-.6s2.4-9.7 8.3-9.7c3.2 0 5.2 2.3 5.2 5.2 0 1.2-.3 2.1-.8 3.3-.6 1.7-.6 1.8-1.4 3.7l-2.4 6.7zm3.9-27.1c-1.5 0-2.4-1.1-2.4-2.3 0-1.7 1.7-3.3 3.4-3.3 1.5 0 2.3 1 2.3 2.3.1 1.9-1.8 3.3-3.3 3.3zm15.5 29.5c-.3 1.1-.4 1.5-.4 3 0 2.1.6 2.9 2 2.9 2.1 0 5.5-1.5 8.2-8.1.3-.7.4-.9.9-.9.3 0 .8 0 .8.6 0 .5-3.6 9.7-10 9.7-3.4 0-5.8-2.4-5.8-5.8 0-1.1.3-2.2 4.8-20.2h-5.6c-1.3 0-1.8 0-1.8-.8 0-1.2.6-1.2 1.9-1.2h5.9l2.5-10c.6-2.2 2.3-2.3 2.5-2.3 1.1 0 1.8.6 1.8 1.7 0 .4-.3 1.6-2.6 10.6h5.6c1.1 0 1.8 0 1.8.7 0 1.3-.6 1.3-1.9 1.3h-5.9l-4.7 18.8zm39.1 6.7c-1.8 7.1-8.3 12.9-14.8 12.9-3.9 0-6.7-2.3-6.7-5.5 0-3.1 2.1-4.1 3.5-4.1.6 0 2.3.3 2.3 2.2 0 1.2-.6 2-1.3 2.6-.9.8-1.7.8-2.7.8 1.1 2.5 3.9 2.7 4.8 2.7 2.9 0 5.3-1.8 7-4 2.5-3.3 3.3-6.4 4.1-9.7-1.8 1.8-3.9 2.8-6.4 2.8-3.7 0-7.7-1.9-7.7-7.5 0-3 1.1-6.6 3.7-13.3.4-1.2 1.1-2.8 1.1-4.4 0-2-1.1-2-1.6-2-2.1 0-4.7 1.9-6.4 7.8-.3 1-.4 1.1-1 1.1-.1 0-.8 0-.8-.6s2.3-9.7 8.3-9.7c3.2 0 5.2 2.3 5.2 5.2 0 1.3-.3 2-1.3 4.5-2.1 5.6-3.2 9.5-3.2 12.4 0 2.3.7 5.1 3.9 5.1 4.2 0 6.9-4.4 7.1-5.4l2.8-11.4c.4-1.7.8-3.4 1.3-5.1.3-1.1.8-3.1.9-3.4.6-.9 1.6-1.3 2.2-1.3.9 0 1.8.6 1.8 1.7 0 .4 0 .6-.3 1.5l-5.8 24.1zm34-4.1c-.8.4-.9.4-1.1.4-.7 0-1.3-.6-1.3-1.3 0-.4.1-.9 1.3-1.5l33-15.6-33.1-15.5c-.7-.3-1.2-.6-1.2-1.4 0-.7.5-1.3 1.3-1.3.1 0 .4 0 1.3.4l34.8 16.4c1 .4 1.3.8 1.3 1.5 0 .6-.4 1-1.3 1.4l-35 16.5zm-.2 12.7c-1.1 0-2.2 0-2.2-1.3s1.3-1.3 2.3-1.3h34.1c.9 0 2.3 0 2.3 1.3s-1.1 1.3-2.2 1.3h-34.3zm74.6-22.4c-7.1 0-12.6-6.2-12.6-14.1 0-4.7 1.5-7.4 4-10.2 2.7-2.8 5.8-4 9.3-4 5.6 0 12.9 4.3 12.9 21.3 0 13.6-7.7 22.2-15.9 22.2-5.4 0-8.8-2.6-8.8-6.8 0-2.5 1.9-3 2.9-3 1.4 0 2.9.9 2.9 2.9 0 1.1-.5 2.9-3.3 2.9 1.7 2.1 5.1 2.3 6.2 2.3 3.7 0 10.2-2.9 10.2-17.7v-2c-1.4 3.5-4 6.2-7.8 6.2zm7.7-12.8c0-2.9-.3-6.9-1-8.9-1.1-2.8-3.2-5-6.1-5-2.2 0-4.6.8-6.3 4-1.3 2.3-1.3 5.3-1.3 8.7 0 3.1 0 6.3 1.1 8.6 2 4 4.9 4 5.9 4 5.6-.1 7.7-6.2 7.7-11.4zm39 24.3h.8c1.8 0 2.4-.5 2.4-2.2v-20.3c0-1.1-.6-1.2-1.7-1.2-.3 0-4.2.3-6.6 5.4h-2l2.3-8.7h23.8l2.2 8.7h-1.9c-3-5.2-5.5-5.4-6.6-5.4-1.3 0-1.8.3-1.8 2v19.5c0 1.7.6 2.2 2.5 2.2h.7v2.2h-14.2v-2.2zm25.1-12.3c0-6.6 4.2-15.3 14.8-15.3s14.8 8.7 14.8 15.3c0 6.8-4.2 15.3-14.8 15.3s-14.8-8.6-14.8-15.3zm8.8 0c0 6.2 1.2 12 6 12 5 0 6-6.6 6-12 0-9.9-3.2-12-6-12-3.2 0-6 2.7-6 12zm25.1 12.3h.8c1.8 0 2.4-.5 2.4-2.2v-20.3c0-1.7-.6-2.2-2.4-2.2h-.8v-2.2h22.6l2.4 8.5h-1.9c-3.7-4.7-6.2-5.2-8.7-5.2h-.7c-1.6 0-2.7.1-2.7 2.3v19.2c0 1.7.6 2.2 2.4 2.2h1.4v2.2h-14.8v-2.3zm27.2 10.2h-2l1.1-9.7c3.6 0 5-3.2 5.4-4.2.9-2.6 2.9-12.1 2.9-17.4 0-3-.7-3.5-3.1-3.5h-.4v-2.2h24.2v2.3c-3.2 0-3.2.6-3.2 1.6v21.2c0 1.1.8 2.4 2.7 2.4h2.3l1.3 9.7h-1.9c-2.6-5.8-5.2-8-11.2-8h-6.8c-3.7-.1-9.9.4-11.3 7.8zm14.8-11.2c2.3 0 2.4-1.6 2.4-2.5v-18c0-1.9-.8-2.1-1.7-2.1h-3.5c-1.9 0-1.8 1.3-1.9 3.8-.1 3.2-1.4 14.7-3.2 18.2v.6h7.9zm50 .4c-2.3 2.6-4.9 3.5-7.6 3.5-1.4 0-4.4-.1-5.5-2.9h-.3c-3.5 2.2-6.2 2.9-8.7 2.9-4 0-8.7-1.6-8.7-7 0-8.2 11.8-11.3 17.5-12.2v-4.4c0-3.1-1.6-3.7-4.4-3.7-3.2 0-3.9 2.7-4 3.5-.3 1.6-.9 3.5-3.4 3.5-2.1 0-3.2-1.4-3.2-3.2 0-2.8 3.5-7.1 12.1-7.1 10 0 10.9 5.1 10.9 8v14.8c0 2 .2 3.9 1.8 3.9.8 0 1.8-.8 2.4-1.2l1.1 1.6zm-13.3-12.4c-4.8.9-8.7 4.3-8.7 8.1 0 2.1 1.8 3.5 4.1 3.5 1.5 0 3.2-.8 4.5-2v-9.6zm-530.4 64.4c1.1 0 1.8.6 1.8 1.7 0 .3 0 .4-.4 2.1l-2.3 8.8c-.6 2.4-.7 3-1.4 5.7-.7 2.8-.8 3.3-.8 4.7 0 1.3.2 2.9 1.9 2.9 2.6 0 3.7-3.7 4.8-7.8.2-.9.3-1.1.9-1.1.2 0 .8 0 .8.6 0 .1-.8 4-1.9 6.3-1 2-2.5 3.5-4.7 3.5-3 0-5.2-2.1-5.8-4.7-3.8 4.5-7 4.7-8.2 4.7-4.9 0-8.4-4.2-8.4-10.1 0-9.2 7.8-18.5 15.2-18.5 2.8 0 4.7 1.7 5.8 4 .3-1.4 1.2-2.8 2.7-2.8zm-3.6 6.8c.1-.3.2-.7.2-1.1 0-.4-.9-5.6-5-5.6-2.5 0-5.4 2.3-7.3 6.1-1.5 2.9-3.5 10.7-3.5 13.8 0 2.5.9 5.9 4 5.9 1.8 0 4.4-1 7.1-4.5.9-1.1.9-1.2 1.3-2.3l3.2-12.3zm38.8 5.4c2.7 2 4.5 4.2 5.8 6.1 2.7 4.2 3.2 8.2 3.2 8.3 0 .8-.8.8-1.3.8-1.1 0-1.1-.2-1.3-.9-1.6-7.1-5.8-12-12.4-14.7-.6-.3-.9-.4-.9-.8s.3-.6.9-.8c7.1-3 10.9-8.2 12.3-14.4.3-1.1.3-1.3 1.4-1.3.5 0 1.3 0 1.3.8 0 .1-.5 4-3.3 8.4-.5.8-2.2 3.4-5.7 6.1h46.9c1.1 0 2.3 0 2.3 1.3s-1.1 1.3-2.3 1.3h-46.9zm80.2-5.9c.3-1.1.4-1.8.4-3.2 0-2.4-.9-2.9-2-2.9-2.3 0-3.5 3-4.6 7.5-.4 1.4-.4 1.5-1.1 1.5-.1 0-.8 0-.8-.6 0-.2.8-4 2-6.1.6-1.1 1.8-3.6 4.7-3.6 2.3 0 5.1 1.3 5.7 4.7 2.1-2.5 5.1-4.7 8.3-4.7 4.8 0 8.4 4.2 8.4 10.1 0 9.3-7.9 18.5-15.2 18.5-3.2 0-5-2.2-5.8-4-.4 1.6-3.1 11.9-3.1 12.6 0 .6 0 1 3.2 1 .9 0 1.5 0 1.5.7 0 1.3-.8 1.3-1.1 1.3-2 0-4.2-.2-6.3-.2-1.8 0-3.6.2-5.3.2-.5 0-.8-.3-.8-.8 0-1.2.7-1.2 1.5-1.2 2.8 0 2.9-.4 3.4-2.6l7-28.2zm1 13.1c-.2.8-.2.9-.2 1 0 .4.8 5.6 5 5.6 2.3 0 5.4-2.1 7.5-6.5 1.1-2.4 3.2-9.7 3.2-13.4s-1.5-5.9-4-5.9c-1.1 0-2.9.4-5.1 2.4-1.1.9-2.8 2.7-3.3 4.4l-3.1 12.4zm29.4-7.3c-.9 3.9-1 5.8-1 6.6 0 2 .6 7.3 5.5 7.3.8 0 7.6 0 12.6-6.3.4-.5.5-.6.8-.6.4 0 .8.4.8.8 0 .8-5.3 7.5-14.3 7.5-6.2 0-9.9-5-9.9-11.4 0-11.1 9.5-17.2 16.6-17.2 4.4 0 6.8 2.6 6.8 5.4 0 .9-.3 4.6-4.7 6.5-3.2 1.3-7.8 1.5-9.7 1.5h-3.5zm2.9-1.4c2.6 0 12.7 0 12.7-6.6 0-2.1-1.7-4-4.7-4-1.6 0-8.2.9-10.6 10.6h2.6zm27.2-2.3c.8-3.3 1-4 1-5.3 0-2.4-.9-2.9-2-2.9-2.3 0-3.5 3-4.6 7.5-.4 1.4-.4 1.5-1.1 1.5-.1 0-.8 0-.8-.6 0-.2.8-4 2-6.1.6-1.1 1.8-3.6 4.7-3.6 3 0 5.2 2 5.8 4.9 1.2-1.8 4-4.9 8.1-4.9 3.2 0 5.2 1.9 5.2 4.1 0 2.3-1.8 3.7-3.5 3.7s-2.4-1.2-2.4-2.2c0-1.6 1.4-3.2 3.3-3.5-.1 0-1-.8-2.7-.8-2.7 0-4.5 1.6-5.1 2.1-1.5 1.4-3.3 4.4-3.5 5.2-.4 1.7-1.5 6.1-2 8.2-.3 1.1-2.4 9.7-2.5 10-.4 1.3-1.6 1.8-2.3 1.8-.9 0-1.8-.6-1.8-1.7 0-.3.4-1.8.6-2.7l3.6-14.7zm40.4 13c-.1.4-1.5 8.1-3.5 12.1-1.1 2.4-3.7 6.1-7.1 6.1-2.6 0-5.4-1.5-5.4-4.4 0-2.4 1.8-3.8 3.5-3.8 1.2 0 2.3.8 2.3 2.2 0 .9-.6 3.2-3.5 3.4 1.2 1.1 2.8 1.1 3 1.1 3.3 0 4.4-5.8 5.5-11.9l4.7-25h-4.2c-1.2 0-1.8 0-1.8-.8 0-1.2.7-1.2 1.9-1.2h4.4c1.5-8 1.7-8.6 2.1-9.9 1.9-6.3 5.9-7.4 8-7.4 2.6 0 5.5 1.5 5.5 4.4 0 2.4-1.8 3.8-3.5 3.8-1.2 0-2.3-.8-2.3-2.2 0-.9.6-3.2 3.4-3.4-1.2-1.1-2.8-1.1-3.1-1.1-1.3 0-2.4.9-3 2.1-.4.8-1.3 5.2-1.5 6.6l-1.3 7.2h5.2c1.1 0 1.7 0 1.7.7 0 1.3-.6 1.3-1.9 1.3h-5.4l-3.7 20.1zm26.8-9.3c-.9 3.9-1 5.8-1 6.6 0 2 .6 7.3 5.5 7.3.8 0 7.6 0 12.6-6.3.4-.5.5-.6.8-.6.4 0 .8.4.8.8 0 .8-5.3 7.5-14.3 7.5-6.2 0-9.9-5-9.9-11.4 0-11.1 9.5-17.2 16.6-17.2 4.4 0 6.8 2.6 6.8 5.4 0 .9-.3 4.6-4.7 6.5-3.2 1.3-7.8 1.5-9.7 1.5h-3.5zm2.9-1.4c2.6 0 12.7 0 12.7-6.6 0-2.1-1.7-4-4.7-4-1.6 0-8.2.9-10.6 10.6h2.6zm37.6-10.5c-3.5 0-7 2.7-8.9 6.3-2.1 3.9-3.4 10-3.4 12.6 0 3.8 1.7 6.9 5.7 6.9.8 0 7.6 0 12.6-6.3.4-.5.5-.6.8-.6.4 0 .8.4.8.8 0 .8-5.3 7.5-14.3 7.5-6.6 0-10.2-5-10.2-10.7 0-8.9 8.4-17.9 16.9-17.9 4.5 0 7.5 2.3 7.5 5.4 0 2.5-1.7 4-3.5 4-1.2 0-2.3-.7-2.3-2.2 0-.4.1-1.5 1.1-2.5.9-.9 1.8-.9 2.8-.9-1.1-1.6-3.5-2.4-5.6-2.4zm16 19.9c-.3 1.1-.4 1.5-.4 3 0 2.1.6 2.9 2 2.9 2.1 0 5.5-1.5 8.2-8.1.3-.7.4-.9.9-.9.3 0 .8 0 .8.6 0 .5-3.6 9.7-10 9.7-3.4 0-5.8-2.4-5.8-5.8 0-1.1.3-2.2 4.8-20.2h-5.6c-1.3 0-1.8 0-1.8-.8 0-1.2.6-1.2 1.9-1.2h5.9l2.5-10c.6-2.2 2.3-2.3 2.5-2.3 1.1 0 1.8.6 1.8 1.7 0 .4-.3 1.6-2.6 10.6h5.6c1.1 0 1.8 0 1.8.7 0 1.3-.6 1.3-1.9 1.3h-5.9l-4.7 18.8zM600.6 312h.8c1.8 0 2.4-.5 2.4-2.2v-20.3c0-1.7-.6-2.2-2.4-2.2h-.8V285h14.2v2.2h-.8c-1.8 0-2.4.5-2.4 2.2v14h.4l10.5-14.2v-.8c0-1.3-1.8-1.3-2.5-1.3h-.7V285h14.2v2.2h-.8c-2.3 0-2.4.9-2.4 1.8v21.2c0 .9.1 1.8 2.4 1.8h.8v2.2h-14.2V312h.7c1.8 0 2.5-.5 2.5-2.2v-14.7h-.4l-10.5 14.2v.9c0 1.8.8 1.8 3.2 1.8v2.2h-14.2V312zm38 0h.8c1.8 0 2.4-.5 2.4-2.2v-20.3c0-1.7-.6-2.2-2.4-2.2h-.8V285h14.2v2.2h-.8c-1.8 0-2.4.5-2.4 2.2v7.5h10.6v-7.5c0-1.7-.6-2.2-2.4-2.2h-.8V285h14.2v2.2h-.8c-1.8 0-2.4.5-2.4 2.2v20.3c0 1.7.6 2.2 2.4 2.2h.8v2.2H657V312h.8c1.8 0 2.4-.5 2.4-2.2v-9.5h-10.6v9.5c0 1.7.6 2.2 2.4 2.2h.8v2.2h-14.2V312zm67.6-.6c-2.3 2.6-4.9 3.5-7.6 3.5-1.4 0-4.4-.1-5.5-2.9h-.3c-3.5 2.2-6.2 2.9-8.7 2.9-4 0-8.7-1.6-8.7-7 0-8.2 11.8-11.3 17.5-12.2v-4.4c0-3.1-1.6-3.7-4.4-3.7-3.2 0-3.9 2.7-4 3.5-.3 1.6-.9 3.5-3.4 3.5-2.1 0-3.2-1.4-3.2-3.2 0-2.8 3.5-7.1 12.1-7.1 10 0 10.9 5.1 10.9 8v14.8c0 2 .2 3.9 1.8 3.9.8 0 1.8-.8 2.4-1.2l1.1 1.6zM692.9 299c-4.8.9-8.7 4.3-8.7 8.1 0 2.1 1.8 3.5 4.1 3.5 1.5 0 3.2-.8 4.5-2V299zm29.3 13h1.7c1.8 0 2.4-.5 2.4-2.2v-7.1c-5.5 1.2-7.3 1.5-10.4 1.5-4.3 0-7-.8-7-5.8v-9c0-1.4-.6-2.1-2.5-2.1h-.7V285h13.5v2.2c-1.9 0-2.5.4-2.5 2.2v7.8c0 2.3.8 3.1 3.5 3.1 1.4 0 3-.3 6.1-.9v-9.9c0-1.6-.6-2.2-2.5-2.2V285h13.5v2.2h-.8c-1.8 0-2.4.5-2.4 2.2v20.3c0 1.7.6 2.2 2.4 2.2h.8v2.2h-15.1V312zm46.3-5.1c-4.3 6.2-7.4 8-12.6 8-8.5 0-14.3-7-14.3-16 0-9.2 5.8-14.6 13.5-14.6 9.2 0 12.6 9.2 12.6 15.3h-17.3c0 6.8 2.7 11.3 8.2 11.3 3.2 0 5.3-2.4 7.8-5.6l2.1 1.6zm-9-10.6c0-6.6-2.7-8.7-4-8.7-2.1 0-5.1 1.9-5.1 8.7h9.1zm63.1 10.6c-4.3 6.2-7.4 8-12.6 8-8.5 0-14.3-7-14.3-16 0-9.2 5.8-14.6 13.5-14.6 9.2 0 12.6 9.2 12.6 15.3h-17.3c0 6.8 2.7 11.3 8.2 11.3 3.2 0 5.3-2.4 7.8-5.6l2.1 1.6zm-9-10.6c0-6.6-2.7-8.7-4-8.7-2.1 0-5.1 1.9-5.1 8.7h9.1zm39.6 13.4c-4.3 3.9-7.2 5.2-10.5 5.2-9.3 0-15.1-6.2-15.1-14.4 0-8 4.8-16.2 15.7-16.2 6.9 0 9.4 4.2 9.4 6.9 0 1.3-1.1 2.7-2.8 2.7-2.8 0-3.9-2.1-4.2-3.1-.6-1.6-1.1-3.2-3.3-3.2-4.6 0-5.9 6.1-5.9 10.6 0 7.6 2.6 13.4 8.2 13.4 2.9 0 5.2-1.7 7.3-3.6l1.2 1.7zm21.1 2.3h.8c1.8 0 2.4-.5 2.4-2.2v-19.1c0-1.8-1.3-2.4-2-2.4h-2.8c-2 0-2 1.3-2 4.5v7.3c0 7.4-.7 14.8-7.4 14.8-5.1 0-6.6-4-6.6-6.8 0-3.1 2.1-4.4 3.7-4.4 1.3 0 3 .8 3 3.5 0 2.3-1.5 2.3-1.5 3.6 0 .4.9.8 1.6.8 3.9 0 3.9-7.4 3.9-11.7v-9.3c0-.3-.1-2-.4-2.7-.6-.8-1.1-.8-2.7-.8V285h24.3v2.2h-.8c-1.8 0-2.4.5-2.4 2.2v20.3c0 1.7.6 2.2 2.3 2.2h.8v2.2h-14.2V312zm19.2 0h.8c1.8 0 2.4-.5 2.4-2.2v-20.3c0-1.7-.6-2.2-2.4-2.2h-.8V285h14.2v2.2h-.8c-1.8 0-2.4.5-2.4 2.2v14h.4l10.5-14.2v-.8c0-1.3-1.8-1.3-2.5-1.3h-.7V285h14.2v2.2h-.8c-2.3 0-2.4.9-2.4 1.8v21.2c0 .9.1 1.8 2.4 1.8h.8v2.2h-14.2V312h.7c1.8 0 2.5-.5 2.5-2.2v-14.7h-.4l-10.5 14.2v.9c0 1.8.8 1.8 3.2 1.8v2.2h-14.2V312zm77.3 10.1c-.1.6-.3.9-.3 1.4 0 .6 0 1 3 1 1 0 1.6 0 1.6.7 0 1.3-.8 1.3-1.1 1.3-2.1 0-4.4-.2-6.5-.2-2.1 0-4.3.2-6.3.2-.8 0-.8-.6-.8-.7 0-1.3.6-1.3 1.5-1.3 3.5-.1 4-.3 4.5-2.1.2-.6 2.3-9.1 2.8-11.3-2.3 2.3-4.7 3.8-7.5 3.8-4.6 0-8.3-3.9-8.3-10.1 0-9.2 7.8-18.5 15.2-18.5 2 0 4.5 1 5.9 4.4 1.1-1.8 3.6-4.4 4.3-4.4.4 0 .6.4.6.6l-8.6 35.2zm-.7-14.4c.2-.3 3.7-14.1 3.7-14.5 0-.4-.9-5.6-5-5.6-2.6 0-5.9 2.7-7.8 7.3-1.1 2.7-2.9 9.5-2.9 12.6 0 1.1.3 5.9 4 5.9 3.5.1 7-3.9 8-5.7zm25.9 7.2c-3.4 0-7.8-1.6-7.8-7.6 0-3.1 1.3-7 3.7-13.3.4-.9 1.1-2.8 1.1-4.3 0-2-1-2.1-1.6-2.1-2.4 0-4.8 2.3-6.4 7.8-.3 1-.4 1.1-1 1.1-.1 0-.8 0-.8-.6s2.3-9.7 8.3-9.7c3.2 0 5.2 2.3 5.2 5.2 0 1.2-.3 2.1-1.1 4-1.6 4.4-3.4 9.4-3.4 12.9 0 2.3.6 5.2 3.9 5.2 4.6 0 7.1-5.1 7.2-5.3.8-3.3 3.5-14.4 4.7-19 .5-2.1 2.1-2.2 2.5-2.2.9 0 1.8.6 1.8 1.7 0 .4-.6 2.8-.9 4.2-.3.9-.9 3.3-1.1 4.3l-1.8 6.8c-.5 2.2-1.3 5.2-1.3 6.6 0 2.1.6 2.9 2 2.9 2.7 0 3.9-4.3 4.7-7.8.2-.9.3-1.1.9-1.1.2 0 .8 0 .8.6 0 .1-.8 4-1.9 6.3-1 2-2.5 3.5-4.7 3.5-2.7 0-4.9-1.6-5.6-4.2-.9 1.3-3.2 4.1-7.4 4.1zm47.8-27.3c1.1 0 1.8.6 1.8 1.7 0 .3 0 .4-.4 2.1l-2.3 8.8c-.6 2.4-.7 3-1.4 5.7-.7 2.8-.8 3.3-.8 4.7 0 1.3.2 2.9 1.9 2.9 2.6 0 3.7-3.7 4.8-7.8.2-.9.3-1.1.9-1.1.2 0 .8 0 .8.6 0 .1-.8 4-1.9 6.3-1 2-2.5 3.5-4.7 3.5-3 0-5.2-2.1-5.8-4.7-3.8 4.5-7 4.7-8.2 4.7-4.9 0-8.4-4.2-8.4-10.1 0-9.2 7.8-18.5 15.2-18.5 2.8 0 4.7 1.7 5.8 4 .2-1.4 1.2-2.8 2.7-2.8zm-3.6 6.7c.1-.3.2-.7.2-1.1 0-.4-.9-5.6-5-5.6-2.5 0-5.4 2.3-7.3 6.1-1.5 2.9-3.5 10.7-3.5 13.8 0 2.5.9 5.9 4 5.9 1.8 0 4.4-1 7.1-4.5.9-1.1.9-1.2 1.3-2.3l3.2-12.3zm18 13.3c-.3 1.2-.4 1.5-.4 3 0 .9 0 2.9 1.9 2.9 2.5 0 3.7-3.7 4.8-7.8.2-.9.3-1.1.9-1.1.2 0 .8 0 .8.6 0 .1-.8 3.8-1.9 6.2-1.1 2.3-2.7 3.5-4.7 3.5-3 0-5.8-2.2-5.8-5.8 0-1 .1-1.5.3-2.1l8-31.6.2-1.3c0-.5-.1-1.1-3.1-1.1-.9 0-1.6 0-1.6-.7 0-1.2.7-1.3 1.2-1.3 1.6-.1 6.3-.6 7.7-.6.8 0 .8.6.8.7l-9.1 36.5zm23.5-2.5c-1.5 3.9-1.8 4.7-1.8 6.3 0 1.5.4 2.1 1.5 2.1 3.2 0 5.3-3.9 6.4-7.8.3-.9.3-1.1.9-1.1.2 0 .8 0 .8.6s-2.3 9.7-8.3 9.7c-3 0-5.2-2.2-5.2-5.2 0-1.3.8-3.4 1.5-5.1 1-2.7 3.9-10 4.4-11.7.3-.6.7-2 .7-3.3 0-2-1.1-2-1.6-2-2.1 0-4.7 1.9-6.4 7.8-.3 1-.4 1.1-1 1.1-.1 0-.8 0-.8-.6s2.4-9.7 8.3-9.7c3.2 0 5.2 2.3 5.2 5.2 0 1.2-.3 2.1-.8 3.3-.6 1.7-.6 1.8-1.4 3.7l-2.4 6.7zm3.9-27c-1.5 0-2.4-1.1-2.4-2.3 0-1.7 1.7-3.3 3.4-3.3 1.5 0 2.3 1 2.3 2.3.1 1.8-1.8 3.3-3.3 3.3zm15.5 29.5c-.3 1.1-.4 1.5-.4 3 0 2.1.6 2.9 2 2.9 2.1 0 5.5-1.5 8.2-8.1.3-.7.4-.9.9-.9.3 0 .8 0 .8.6 0 .5-3.6 9.7-10 9.7-3.4 0-5.8-2.4-5.8-5.8 0-1.1.3-2.2 4.8-20.2h-5.6c-1.3 0-1.8 0-1.8-.8 0-1.2.6-1.2 1.9-1.2h5.9l2.5-10c.6-2.2 2.3-2.3 2.5-2.3 1.1 0 1.8.6 1.8 1.7 0 .4-.3 1.6-2.6 10.6h5.6c1.1 0 1.8 0 1.8.7 0 1.3-.6 1.3-1.9 1.3h-5.9l-4.7 18.8zm39.1 6.7c-1.8 7.1-8.3 12.9-14.8 12.9-3.9 0-6.7-2.3-6.7-5.5 0-3.1 2.1-4.1 3.5-4.1.6 0 2.3.3 2.3 2.2 0 1.2-.6 2-1.3 2.6-.9.8-1.7.8-2.7.8 1.1 2.5 3.9 2.7 4.8 2.7 2.9 0 5.3-1.8 7-4 2.5-3.3 3.3-6.4 4.1-9.7-1.8 1.8-3.9 2.8-6.4 2.8-3.7 0-7.7-1.9-7.7-7.5 0-3 1.1-6.6 3.7-13.3.4-1.2 1.1-2.8 1.1-4.4 0-2-1.1-2-1.6-2-2.1 0-4.7 1.9-6.4 7.8-.3 1-.4 1.1-1 1.1-.1 0-.8 0-.8-.6s2.3-9.7 8.3-9.7c3.2 0 5.2 2.3 5.2 5.2 0 1.3-.3 2-1.3 4.5-2.1 5.6-3.2 9.5-3.2 12.4 0 2.3.7 5.1 3.9 5.1 4.2 0 6.9-4.4 7.1-5.4l2.8-11.4c.4-1.7.8-3.4 1.3-5.1.3-1.1.8-3.1.9-3.4.6-.9 1.6-1.3 2.2-1.3.9 0 1.8.6 1.8 1.7 0 .4 0 .6-.3 1.5l-5.8 24.1zm34-4.1c-.8.4-.9.4-1.1.4-.7 0-1.3-.6-1.3-1.3 0-.4.1-.9 1.3-1.5l33-15.6-33.2-15.6c-.7-.3-1.2-.6-1.2-1.4 0-.7.5-1.3 1.3-1.3.1 0 .4 0 1.3.4l34.8 16.4c1 .4 1.3.8 1.3 1.5 0 .6-.4 1-1.3 1.4l-34.9 16.6zm-.2 12.7c-1.1 0-2.2 0-2.2-1.3s1.3-1.3 2.3-1.3h34.1c.9 0 2.3 0 2.3 1.3s-1.1 1.3-2.2 1.3H1174zm80.8-35.2c-2.8 3.9-3.7 9.4-3.9 10.8-.5 3.4-.7 6.9-.7 10.4v3.2c0 .6 0 3.5-2.9 3.5s-2.9-2.8-2.9-3.5c0-6.4 2.1-15.2 7.8-23.8 1.4-2.1 6.4-9 7.1-10h-13.1c-.8 0-5.8 0-6.2.4-.8.8-1.4 4.7-1.6 5.8h-1.6l2.1-13h1.6c.3 1.2.4 2 8.1 2h15.4c0 1.3 0 1.5-.6 2.2l-8.6 12zm-535.7 75.7c1.1 0 1.8.6 1.8 1.7 0 .3 0 .4-.4 2.1l-2.3 8.8c-.6 2.4-.7 3-1.4 5.7-.7 2.8-.8 3.3-.8 4.7 0 1.3.2 2.9 1.9 2.9 2.6 0 3.7-3.7 4.8-7.8.2-.9.3-1.1.9-1.1.2 0 .8 0 .8.6 0 .1-.8 4-1.9 6.3-1 2-2.5 3.5-4.7 3.5-3 0-5.2-2.1-5.8-4.7-3.8 4.5-7 4.7-8.2 4.7-4.9 0-8.4-4.2-8.4-10.1 0-9.2 7.8-18.5 15.2-18.5 2.8 0 4.7 1.7 5.8 4 .3-1.4 1.2-2.8 2.7-2.8zm-3.6 6.7c.1-.3.2-.7.2-1.1 0-.4-.9-5.6-5-5.6-2.5 0-5.4 2.3-7.3 6.1-1.5 2.9-3.5 10.7-3.5 13.8 0 2.5.9 5.9 4 5.9 1.8 0 4.4-1 7.1-4.5.9-1.1.9-1.2 1.3-2.3l3.2-12.3zm38.8 5.4c2.7 2 4.5 4.2 5.8 6.1 2.7 4.2 3.2 8.2 3.2 8.3 0 .8-.8.8-1.3.8-1.1 0-1.1-.2-1.3-.9-1.6-7.1-5.8-12-12.4-14.7-.6-.3-.9-.4-.9-.8s.3-.6.9-.8c7.1-3 10.9-8.2 12.3-14.4.3-1.1.3-1.3 1.4-1.3.5 0 1.3 0 1.3.8 0 .1-.5 4-3.3 8.4-.5.8-2.2 3.4-5.7 6.1h46.9c1.1 0 2.3 0 2.3 1.3s-1.1 1.3-2.3 1.3h-46.9zm93.1 18.8c-.9 3.8-5.5 8.7-13.4 8.7-6.1 0-8.4-1.3-8.4-3.9 0-2.5 2-3.7 3.4-3.7 1.7 0 2.4 1.2 2.4 2.2 0 1.1-.7 2.7-2.6 3.3 1.8.6 3.9.6 5.1.6 6.7 0 8.8-6.3 9.1-6.8 0-.1.8-2.7 2.1-8.3l-.1-.1c-.6.7-3.6 3.7-7.3 3.7-4.5 0-8.4-3.7-8.4-10 0-9.1 7.8-17.9 15-17.9 2.5 0 4.7 1.6 5.9 4 .3-2.3 2-2.7 2.6-2.7 1.1 0 1.8.6 1.8 1.7 0 .4-.1.8-.2 1.1l-7 28.1zm1.8-24.4c.1-.3.2-.6.2-.9 0-.3-.9-5.4-5.1-5.4-2.7 0-5.4 2.5-7.1 5.6-1.7 3.2-3.5 10.7-3.5 13.7 0 2.5.9 5.8 4.1 5.8 1.8 0 3.8-1.1 5.1-2.3 1.4-1.2 2.8-2.8 3.2-4.4l3.1-12.1zm20.5 20.8c-5.9 0-10.1-4.4-10.1-10.7 0-9 8.5-17.9 16.9-17.9 5.7 0 10.1 4.1 10.1 10.7.1 9.2-8.5 17.9-16.9 17.9zm8.7-7.2c2.4-4.1 3.7-10.7 3.7-13.2 0-3.8-1.9-6.8-5.6-6.8-1.8 0-5.4.9-8.5 5.8-2 3.2-3.7 10-3.7 13.1 0 4.9 2.8 6.9 5.5 6.9 2.9.1 6.4-2.1 8.6-5.8zm21.9 7.2c-5.9 0-10.1-4.4-10.1-10.7 0-9 8.5-17.9 16.9-17.9 5.7 0 10.1 4.1 10.1 10.7 0 9.2-8.5 17.9-16.9 17.9zm8.7-7.2c2.4-4.1 3.7-10.7 3.7-13.2 0-3.8-1.9-6.8-5.6-6.8-1.8 0-5.4.9-8.5 5.8-2 3.2-3.7 10-3.7 13.1 0 4.9 2.8 6.9 5.5 6.9 2.9.1 6.4-2.1 8.6-5.8zm32.7-.1c-.3 1.1-.4 1.5-.4 3 0 1.3.2 2.9 1.9 2.9 2.6 0 3.7-3.7 4.8-7.8.2-.9.3-1.1.9-1.1.2 0 .8 0 .8.6 0 .1-.8 4-1.9 6.3-1 2-2.5 3.5-4.7 3.5-3 0-5.2-2.1-5.8-4.7-3.8 4.5-7 4.7-8.2 4.7-4.9 0-8.4-4.2-8.4-10.1 0-9.2 7.8-18.5 15.2-18.5 2.8 0 4.7 1.7 5.8 4l3.8-15 .2-1.3c0-.6-.1-1.1-3.2-1.1-.9 0-1.5 0-1.5-.8s.4-1.1.9-1.2c1.1-.1 7.1-.7 8-.7.8 0 .8.6.8.7l-9 36.6zm-.9-13.3c.1-.3.2-.7.2-1.1 0-.4-.9-5.6-5-5.6-2.5 0-5.4 2.3-7.3 6.1-1.5 2.9-3.5 10.7-3.5 13.8 0 2.5.9 5.9 4 5.9 1.8 0 4.4-1 7.1-4.5.9-1.1.9-1.2 1.3-2.3l3.2-12.3zm-340.2 93.6h.8c1.8 0 2.4-.5 2.4-2.2v-20.3c0-1.7-.6-2.2-2.4-2.2h-.8v-2.2h14.2v2.2h-.8c-1.8 0-2.4.5-2.4 2.2v14h.4l10.5-14.2v-.8c0-1.3-1.8-1.3-2.5-1.3h-.7v-2.2h14.2v2.2h-.8c-2.3 0-2.4.9-2.4 1.8v21.2c0 .9.1 1.8 2.4 1.8h.8v2.2h-14.2v-2.2h.7c1.8 0 2.5-.5 2.5-2.2v-14.7h-.4L611.6 461v.9c0 1.8.8 1.8 3.2 1.8v2.2h-14.2v-2.2zm38 0h.8c1.8 0 2.4-.5 2.4-2.2v-20.3c0-1.7-.6-2.2-2.4-2.2h-.8v-2.2h14.2v2.2h-.8c-1.8 0-2.4.5-2.4 2.2v7.5h10.6v-7.5c0-1.7-.6-2.2-2.4-2.2h-.8v-2.2h14.2v2.2h-.8c-1.8 0-2.4.5-2.4 2.2v20.3c0 1.7.6 2.2 2.4 2.2h.8v2.2H657v-2.2h.8c1.8 0 2.4-.5 2.4-2.2V452h-10.6v9.5c0 1.7.6 2.2 2.4 2.2h.8v2.2h-14.2v-2.2zm67.6-.7c-2.3 2.6-4.9 3.5-7.6 3.5-1.4 0-4.4-.1-5.5-2.9h-.3c-3.5 2.2-6.2 2.9-8.7 2.9-4 0-8.7-1.6-8.7-7 0-8.2 11.8-11.3 17.5-12.2v-4.4c0-3.1-1.6-3.7-4.4-3.7-3.2 0-3.9 2.7-4 3.5-.3 1.6-.9 3.5-3.4 3.5-2.1 0-3.2-1.4-3.2-3.2 0-2.8 3.5-7.1 12.1-7.1 10 0 10.9 5.1 10.9 8v14.8c0 2 .2 3.9 1.8 3.9.8 0 1.8-.8 2.4-1.2l1.1 1.6zm-13.3-12.3c-4.8.9-8.7 4.3-8.7 8.1 0 2.1 1.8 3.5 4.1 3.5 1.5 0 3.2-.8 4.5-2v-9.6zm29.3 13h1.7c1.8 0 2.4-.5 2.4-2.2v-7.1c-5.5 1.2-7.3 1.5-10.4 1.5-4.3 0-7-.8-7-5.8v-9c0-1.4-.6-2.1-2.5-2.1h-.7v-2.2h13.5v2.2c-1.9 0-2.5.4-2.5 2.2v7.8c0 2.3.8 3.1 3.5 3.1 1.4 0 3-.3 6.1-.9v-9.9c0-1.6-.6-2.2-2.5-2.2v-2.2h13.5v2.2h-.8c-1.8 0-2.4.5-2.4 2.2v20.3c0 1.7.6 2.2 2.4 2.2h.8v2.2h-15.1v-2.3zm46.3-5.1c-4.3 6.2-7.4 8-12.6 8-8.5 0-14.3-7-14.3-16 0-9.2 5.8-14.6 13.5-14.6 9.2 0 12.6 9.2 12.6 15.3h-17.3c0 6.8 2.7 11.3 8.2 11.3 3.2 0 5.3-2.4 7.8-5.6l2.1 1.6zm-9-10.6c0-6.6-2.7-8.7-4-8.7-2.1 0-5.1 1.9-5.1 8.7h9.1zm63.1 10.6c-4.3 6.2-7.4 8-12.6 8-8.5 0-14.3-7-14.3-16 0-9.2 5.8-14.6 13.5-14.6 9.2 0 12.6 9.2 12.6 15.3h-17.3c0 6.8 2.7 11.3 8.2 11.3 3.2 0 5.3-2.4 7.8-5.6l2.1 1.6zm-9-10.6c0-6.6-2.7-8.7-4-8.7-2.1 0-5.1 1.9-5.1 8.7h9.1zm39.6 13.4c-4.3 3.9-7.2 5.2-10.5 5.2-9.3 0-15.1-6.2-15.1-14.4 0-8 4.8-16.2 15.7-16.2 6.9 0 9.4 4.2 9.4 6.9 0 1.3-1.1 2.7-2.8 2.7-2.8 0-3.9-2.1-4.2-3.1-.6-1.6-1.1-3.2-3.3-3.2-4.6 0-5.9 6.1-5.9 10.6 0 7.6 2.6 13.4 8.2 13.4 2.9 0 5.2-1.7 7.3-3.6l1.2 1.7zm21.1 2.3h.8c1.8 0 2.4-.5 2.4-2.2v-19.1c0-1.8-1.3-2.4-2-2.4h-2.8c-2 0-2 1.3-2 4.5v7.3c0 7.4-.7 14.8-7.4 14.8-5.1 0-6.6-4-6.6-6.8 0-3.1 2.1-4.4 3.7-4.4 1.3 0 3 .8 3 3.5 0 2.3-1.5 2.3-1.5 3.6 0 .4.9.8 1.6.8 3.9 0 3.9-7.4 3.9-11.7v-9.3c0-.3-.1-2-.4-2.7-.6-.8-1.1-.8-2.7-.8v-2.2h24.3v2.2h-.8c-1.8 0-2.4.5-2.4 2.2v20.3c0 1.7.6 2.2 2.3 2.2h.8v2.2h-14.2v-2zm19.2 0h.8c1.8 0 2.4-.5 2.4-2.2v-20.3c0-1.7-.6-2.2-2.4-2.2h-.8v-2.2h14.2v2.2h-.8c-1.8 0-2.4.5-2.4 2.2v14h.4l10.5-14.2v-.8c0-1.3-1.8-1.3-2.5-1.3h-.7v-2.2h14.2v2.2h-.8c-2.3 0-2.4.9-2.4 1.8v21.2c0 .9.1 1.8 2.4 1.8h.8v2.2h-14.2v-2.2h.7c1.8 0 2.5-.5 2.5-2.2v-14.7h-.4L904.5 461v.9c0 1.8.8 1.8 3.2 1.8v2.2h-14.2v-2.2zm77.3 10.1c-.1.6-.3.9-.3 1.4 0 .6 0 1 3 1 1 0 1.6 0 1.6.7 0 1.3-.8 1.3-1.1 1.3-2.1 0-4.4-.2-6.5-.2-2.1 0-4.3.2-6.3.2-.8 0-.8-.6-.8-.7 0-1.3.6-1.3 1.5-1.3 3.5-.1 4-.3 4.5-2.1.2-.6 2.3-9.1 2.8-11.3-2.3 2.3-4.7 3.8-7.5 3.8-4.6 0-8.3-3.9-8.3-10.1 0-9.2 7.8-18.5 15.2-18.5 2 0 4.5 1 5.9 4.4 1.1-1.8 3.6-4.4 4.3-4.4.4 0 .6.4.6.6l-8.6 35.2zm-.7-14.4c.2-.3 3.7-14.1 3.7-14.5 0-.4-.9-5.6-5-5.6-2.6 0-5.9 2.7-7.8 7.3-1.1 2.7-2.9 9.5-2.9 12.6 0 1.1.3 5.9 4 5.9 3.5.1 7-4 8-5.7zm25.9 7.2c-3.4 0-7.8-1.6-7.8-7.6 0-3.1 1.3-7 3.7-13.3.4-.9 1.1-2.8 1.1-4.3 0-2-1-2.1-1.6-2.1-2.4 0-4.8 2.3-6.4 7.8-.3 1-.4 1.1-1 1.1-.1 0-.8 0-.8-.6s2.3-9.7 8.3-9.7c3.2 0 5.2 2.3 5.2 5.2 0 1.2-.3 2.1-1.1 4-1.6 4.4-3.4 9.4-3.4 12.9 0 2.3.6 5.2 3.9 5.2 4.6 0 7.1-5.1 7.2-5.3.8-3.3 3.5-14.4 4.7-19 .5-2.1 2.1-2.2 2.5-2.2.9 0 1.8.6 1.8 1.7 0 .4-.6 2.8-.9 4.2-.3.9-.9 3.3-1.1 4.3l-1.8 6.8c-.5 2.2-1.3 5.2-1.3 6.6 0 2.1.6 2.9 2 2.9 2.7 0 3.9-4.3 4.7-7.8.2-.9.3-1.1.9-1.1.2 0 .8 0 .8.6 0 .1-.8 4-1.9 6.3-1 2-2.5 3.5-4.7 3.5-2.7 0-4.9-1.6-5.6-4.2-.9 1.2-3.2 4.1-7.4 4.1zm47.8-27.4c1.1 0 1.8.6 1.8 1.7 0 .3 0 .4-.4 2.1l-2.3 8.8c-.6 2.4-.7 3-1.4 5.7-.7 2.8-.8 3.3-.8 4.7 0 1.3.2 2.9 1.9 2.9 2.6 0 3.7-3.7 4.8-7.8.2-.9.3-1.1.9-1.1.2 0 .8 0 .8.6 0 .1-.8 4-1.9 6.3-1 2-2.5 3.5-4.7 3.5-3 0-5.2-2.1-5.8-4.7-3.8 4.5-7 4.7-8.2 4.7-4.9 0-8.4-4.2-8.4-10.1 0-9.2 7.8-18.5 15.2-18.5 2.8 0 4.7 1.7 5.8 4 .2-1.4 1.2-2.8 2.7-2.8zm-3.6 6.8c.1-.3.2-.7.2-1.1 0-.4-.9-5.6-5-5.6-2.5 0-5.4 2.3-7.3 6.1-1.5 2.9-3.5 10.7-3.5 13.8 0 2.5.9 5.9 4 5.9 1.8 0 4.4-1 7.1-4.5.9-1.1.9-1.2 1.3-2.3l3.2-12.3zm18 13.3c-.3 1.2-.4 1.5-.4 3 0 .9 0 2.9 1.9 2.9 2.5 0 3.7-3.7 4.8-7.8.2-.9.3-1.1.9-1.1.2 0 .8 0 .8.6 0 .1-.8 3.8-1.9 6.2-1.1 2.3-2.7 3.5-4.7 3.5-3 0-5.8-2.2-5.8-5.8 0-1 .1-1.5.3-2.1l8-31.6.2-1.3c0-.5-.1-1.1-3.1-1.1-.9 0-1.6 0-1.6-.7 0-1.2.7-1.3 1.2-1.3 1.6-.1 6.3-.6 7.7-.6.8 0 .8.6.8.7l-9.1 36.5zm23.5-2.5c-1.5 3.9-1.8 4.7-1.8 6.3 0 1.5.4 2.1 1.5 2.1 3.2 0 5.3-3.9 6.4-7.8.3-.9.3-1.1.9-1.1.2 0 .8 0 .8.6s-2.3 9.7-8.3 9.7c-3 0-5.2-2.2-5.2-5.2 0-1.3.8-3.4 1.5-5.1 1-2.7 3.9-10 4.4-11.7.3-.6.7-2 .7-3.3 0-2-1.1-2-1.6-2-2.1 0-4.7 1.9-6.4 7.8-.3 1-.4 1.1-1 1.1-.1 0-.8 0-.8-.6s2.4-9.7 8.3-9.7c3.2 0 5.2 2.3 5.2 5.2 0 1.2-.3 2.1-.8 3.3-.6 1.7-.6 1.8-1.4 3.7l-2.4 6.7zm3.9-27.1c-1.5 0-2.4-1.1-2.4-2.3 0-1.7 1.7-3.3 3.4-3.3 1.5 0 2.3 1 2.3 2.3.1 1.9-1.8 3.3-3.3 3.3zm15.5 29.6c-.3 1.1-.4 1.5-.4 3 0 2.1.6 2.9 2 2.9 2.1 0 5.5-1.5 8.2-8.1.3-.7.4-.9.9-.9.3 0 .8 0 .8.6 0 .5-3.6 9.7-10 9.7-3.4 0-5.8-2.4-5.8-5.8 0-1.1.3-2.2 4.8-20.2h-5.6c-1.3 0-1.8 0-1.8-.8 0-1.2.6-1.2 1.9-1.2h5.9l2.5-10c.6-2.2 2.3-2.3 2.5-2.3 1.1 0 1.8.6 1.8 1.7 0 .4-.3 1.6-2.6 10.6h5.6c1.1 0 1.8 0 1.8.7 0 1.3-.6 1.3-1.9 1.3h-5.9l-4.7 18.8zm39.1 6.6c-1.8 7.1-8.3 12.9-14.8 12.9-3.9 0-6.7-2.3-6.7-5.5 0-3.1 2.1-4.1 3.5-4.1.6 0 2.3.3 2.3 2.2 0 1.2-.6 2-1.3 2.6-.9.8-1.7.8-2.7.8 1.1 2.5 3.9 2.7 4.8 2.7 2.9 0 5.3-1.8 7-4 2.5-3.3 3.3-6.4 4.1-9.7-1.8 1.8-3.9 2.8-6.4 2.8-3.7 0-7.7-1.9-7.7-7.5 0-3 1.1-6.6 3.7-13.3.4-1.2 1.1-2.8 1.1-4.4 0-2-1.1-2-1.6-2-2.1 0-4.7 1.9-6.4 7.8-.3 1-.4 1.1-1 1.1-.1 0-.8 0-.8-.6s2.3-9.7 8.3-9.7c3.2 0 5.2 2.3 5.2 5.2 0 1.3-.3 2-1.3 4.5-2.1 5.6-3.2 9.5-3.2 12.4 0 2.3.7 5.1 3.9 5.1 4.2 0 6.9-4.4 7.1-5.4l2.8-11.4c.4-1.7.8-3.4 1.3-5.1.3-1.1.8-3.1.9-3.4.6-.9 1.6-1.3 2.2-1.3.9 0 1.8.6 1.8 1.7 0 .4 0 .6-.3 1.5l-5.8 24.1zm34-4.1c-.8.4-.9.4-1.1.4-.7 0-1.3-.6-1.3-1.3 0-.4.1-.9 1.3-1.5l33-15.6-33.2-15.6c-.7-.3-1.2-.6-1.2-1.4 0-.7.5-1.3 1.3-1.3.1 0 .4 0 1.3.4l34.8 16.4c1 .4 1.3.8 1.3 1.5 0 .6-.4 1-1.3 1.4l-34.9 16.6zm-.2 12.7c-1.1 0-2.2 0-2.2-1.3s1.3-1.3 2.3-1.3h34.1c.9 0 2.3 0 2.3 1.3s-1.1 1.3-2.2 1.3H1174zm73.8-7.2c-7.1 0-11.4-6.1-11.4-11.6 0-2.9 2.2-3.3 3.1-3.3 2.1 0 3.2 1.6 3.2 3.1s-1.1 3.1-3.2 3.1c-.7 0-.9-.1-1.1-.1 1.1 3.7 4.7 7.1 9.3 7.1 2.9 0 5.2-1.6 6.8-4.1 1.5-2.7 1.5-6.4 1.5-8.7 0-3.2-.1-5.6-1.1-8-.5-1.1-2.1-4-5.4-4-5.1 0-7.5 3.4-8.2 4.4-.3.4-.4.6-.8.6-.9 0-.9-.5-.9-1.6v-18.7c0-1 0-1.5.6-1.5.1 0 .3 0 .8.2 3 1.3 5.9 1.8 8.4 1.8 4.2 0 7.3-1.3 8.6-1.8.3-.2.4-.2.5-.2.4 0 .6.3.6.7 0 .8-4.4 6.6-12.2 6.6-2 0-4.1-.4-5.4-.8v12.3c2.3-2.2 5-3.2 8-3.2 6.8 0 12 6.3 12 13.8.1 7.8-6.3 13.9-13.7 13.9zM719.1 515c1.1 0 1.8.6 1.8 1.7 0 .3 0 .4-.4 2.1l-2.3 8.8c-.6 2.4-.7 3-1.4 5.7-.7 2.8-.8 3.3-.8 4.7 0 1.3.2 2.9 1.9 2.9 2.6 0 3.7-3.7 4.8-7.8.2-.9.3-1.1.9-1.1.2 0 .8 0 .8.6 0 .1-.8 4-1.9 6.3-1 2-2.5 3.5-4.7 3.5-3 0-5.2-2.1-5.8-4.7-3.8 4.5-7 4.7-8.2 4.7-4.9 0-8.4-4.2-8.4-10.1 0-9.2 7.8-18.5 15.2-18.5 2.8 0 4.7 1.7 5.8 4 .3-1.4 1.2-2.8 2.7-2.8zm-3.6 6.8c.1-.3.2-.7.2-1.1 0-.4-.9-5.6-5-5.6-2.5 0-5.4 2.3-7.3 6.1-1.5 2.9-3.5 10.7-3.5 13.8 0 2.5.9 5.9 4 5.9 1.8 0 4.4-1 7.1-4.5.9-1.1.9-1.2 1.3-2.3l3.2-12.3zm38.8 5.4c2.7 2 4.5 4.2 5.8 6.1 2.7 4.2 3.2 8.2 3.2 8.3 0 .8-.8.8-1.3.8-1.1 0-1.1-.2-1.3-.9-1.6-7.1-5.8-12-12.4-14.7-.6-.3-.9-.4-.9-.8s.3-.6.9-.8c7.1-3 10.9-8.2 12.3-14.4.3-1.1.3-1.3 1.4-1.3.5 0 1.3 0 1.3.8 0 .1-.5 4-3.3 8.4-.5.8-2.2 3.4-5.7 6.1h46.9c1.1 0 2.3 0 2.3 1.3s-1.1 1.3-2.3 1.3h-46.9zm79.5-3.8c.8-3.3 1-4 1-5.3 0-2.4-.9-2.9-2-2.9-2.3 0-3.5 3-4.6 7.5-.4 1.4-.4 1.5-1.1 1.5-.1 0-.8 0-.8-.6 0-.2.8-3.9 2-6.1.6-1.1 1.8-3.6 4.7-3.6 2.8 0 5.5 1.9 5.8 5.5 1.1-1.5 4.2-5.5 9.9-5.5 1.6 0 3.6.3 5.2 1.6 1.8 1.5 2 3.7 2 4.5 2.3-3.3 5.6-6.1 10.3-6.1 4.7 0 7.3 2.7 7.3 6.8 0 3.6-2.7 10.6-3.9 13.9-.6 1.4-1.1 2.9-1.1 4.5 0 1.5.4 2.1 1.5 2.1 3.5 0 5.5-4.5 6.4-7.8.3-.9.3-1.1.9-1.1.2 0 .8 0 .8.6 0 .5-2.3 9.7-8.3 9.7-3 0-5.2-2.2-5.2-5.2 0-1.3.3-2 .8-3.5 1.3-3.3 3.9-10.6 3.9-14.2 0-2.3-.7-4.4-3.4-4.4-6.9 0-10.2 7.6-10.4 8.4-.6 2.5-2.9 11.7-3.8 15.2-.5 2-.9 3.6-2.8 3.6-.9 0-1.8-.6-1.8-1.7 0-.3.6-2.5.8-3.7l1.3-4.8 1.8-7.3c.5-1.9.9-3.7.9-5.2 0-2.1-.6-4.4-3.4-4.4-6 0-9.4 5.8-10.3 7.7-.1.3-.6 2.1-.8 3.2-.3 1.5-.7 2.8-1.1 4.2L835 536c-.4 1.6-1.1 4.5-1.2 4.7-.4 1.3-1.6 1.8-2.3 1.8-.9 0-1.8-.6-1.8-1.7 0-.3.4-1.8.6-2.7l3.5-14.7zm54.8 3.7c-.9 3.9-1 5.8-1 6.6 0 2 .6 7.3 5.5 7.3.8 0 7.6 0 12.6-6.3.4-.5.5-.6.8-.6.4 0 .8.4.8.8 0 .8-5.3 7.5-14.3 7.5-6.2 0-9.9-5-9.9-11.4 0-11.1 9.5-17.2 16.6-17.2 4.4 0 6.8 2.6 6.8 5.4 0 .9-.3 4.6-4.7 6.5-3.2 1.3-7.8 1.5-9.7 1.5h-3.5zm2.9-1.4c2.6 0 12.7 0 12.7-6.6 0-2.1-1.7-4-4.7-4-1.6 0-8.2.9-10.6 10.6h2.6zm41.5 9.4c-.3 1.1-.4 1.5-.4 3 0 1.3.2 2.9 1.9 2.9 2.6 0 3.7-3.7 4.8-7.8.2-.9.3-1.1.9-1.1.2 0 .8 0 .8.6 0 .1-.8 4-1.9 6.3-1 2-2.5 3.5-4.7 3.5-3 0-5.2-2.1-5.8-4.7-3.8 4.5-7 4.7-8.2 4.7-4.9 0-8.4-4.2-8.4-10.1 0-9.2 7.8-18.5 15.2-18.5 2.8 0 4.7 1.7 5.8 4l3.8-15 .2-1.3c0-.6-.1-1.1-3.2-1.1-.9 0-1.5 0-1.5-.8s.4-1.1.9-1.2c1.1-.1 7.1-.7 8-.7.8 0 .8.6.8.7l-9 36.6zm-.9-13.3c.1-.3.2-.7.2-1.1 0-.4-.9-5.6-5-5.6-2.5 0-5.4 2.3-7.3 6.1-1.5 2.9-3.5 10.7-3.5 13.8 0 2.5.9 5.9 4 5.9 1.8 0 4.4-1 7.1-4.5.9-1.1.9-1.2 1.3-2.3l3.2-12.3zm20.9 10.8c-1.5 3.9-1.8 4.7-1.8 6.3 0 1.5.4 2.1 1.5 2.1 3.2 0 5.3-3.9 6.4-7.8.3-.9.3-1.1.9-1.1.2 0 .8 0 .8.6s-2.3 9.7-8.3 9.7c-3 0-5.2-2.2-5.2-5.2 0-1.3.8-3.4 1.5-5.1 1-2.7 3.9-10 4.4-11.7.3-.6.7-2 .7-3.3 0-2-1.1-2-1.6-2-2.1 0-4.7 1.9-6.4 7.8-.3 1-.4 1.1-1 1.1-.1 0-.8 0-.8-.6s2.4-9.7 8.3-9.7c3.2 0 5.2 2.3 5.2 5.2 0 1.2-.3 2.1-.8 3.3-.6 1.7-.6 1.8-1.4 3.7l-2.4 6.7zm3.9-27c-1.5 0-2.4-1.1-2.4-2.3 0-1.7 1.7-3.3 3.4-3.3 1.5 0 2.3 1 2.3 2.3.1 1.8-1.8 3.3-3.3 3.3zm21.8 36.8c-3.4 0-7.8-1.6-7.8-7.6 0-3.1 1.3-7 3.7-13.3.4-.9 1.1-2.8 1.1-4.3 0-2-1-2.1-1.6-2.1-2.4 0-4.8 2.3-6.4 7.8-.3 1-.4 1.1-1 1.1-.1 0-.8 0-.8-.6s2.3-9.7 8.3-9.7c3.2 0 5.2 2.3 5.2 5.2 0 1.2-.3 2.1-1.1 4-1.6 4.4-3.4 9.4-3.4 12.9 0 2.3.6 5.2 3.9 5.2 4.6 0 7.1-5.1 7.2-5.3.8-3.3 3.5-14.4 4.7-19 .5-2.1 2.1-2.2 2.5-2.2.9 0 1.8.6 1.8 1.7 0 .4-.6 2.8-.9 4.2-.3.9-.9 3.3-1.1 4.3l-1.8 6.8c-.5 2.2-1.3 5.2-1.3 6.6 0 2.1.6 2.9 2 2.9 2.7 0 3.9-4.3 4.7-7.8.2-.9.3-1.1.9-1.1.2 0 .8 0 .8.6 0 .1-.8 4-1.9 6.3-1 2-2.5 3.5-4.7 3.5-2.7 0-4.9-1.6-5.6-4.2-1 1.3-3.3 4.1-7.4 4.1zm30.7-19c.8-3.3 1-4 1-5.3 0-2.4-.9-2.9-2-2.9-2.3 0-3.5 3-4.6 7.5-.4 1.4-.4 1.5-1.1 1.5-.1 0-.8 0-.8-.6 0-.2.8-3.9 2-6.1.6-1.1 1.8-3.6 4.7-3.6 2.8 0 5.5 1.9 5.8 5.5 1.1-1.5 4.2-5.5 9.9-5.5 1.6 0 3.6.3 5.2 1.6 1.8 1.5 2 3.7 2 4.5 2.3-3.3 5.6-6.1 10.3-6.1 4.7 0 7.3 2.7 7.3 6.8 0 3.6-2.7 10.6-3.9 13.9-.6 1.4-1.1 2.9-1.1 4.5 0 1.5.4 2.1 1.5 2.1 3.5 0 5.5-4.5 6.4-7.8.3-.9.3-1.1.9-1.1.2 0 .8 0 .8.6 0 .5-2.3 9.7-8.3 9.7-3 0-5.2-2.2-5.2-5.2 0-1.3.3-2 .8-3.5 1.3-3.3 3.9-10.6 3.9-14.2 0-2.3-.7-4.4-3.4-4.4-6.9 0-10.2 7.6-10.4 8.4-.6 2.5-2.9 11.7-3.8 15.2-.5 2-.9 3.6-2.8 3.6-.9 0-1.8-.6-1.8-1.7 0-.3.6-2.5.8-3.7l1.3-4.8 1.8-7.3c.5-1.9.9-3.7.9-5.2 0-2.1-.6-4.4-3.4-4.4-6 0-9.4 5.8-10.3 7.7-.1.3-.6 2.1-.8 3.2-.3 1.5-.7 2.8-1.1 4.2l-1.4 5.7c-.4 1.6-1.1 4.5-1.2 4.7-.4 1.3-1.6 1.8-2.3 1.8-.9 0-1.8-.6-1.8-1.7 0-.3.4-1.8.6-2.7l3.6-14.9zm-408.8 91.9h.8c1.8 0 2.4-.5 2.4-2.2v-20.3c0-1.7-.6-2.2-2.4-2.2h-.8v-2.2h14.2v2.2h-.8c-1.8 0-2.4.5-2.4 2.2v14h.4l10.5-14.2v-.8c0-1.3-1.8-1.3-2.5-1.3h-.7v-2.2h14.2v2.2h-.8c-2.3 0-2.4.9-2.4 1.8v21.2c0 .9.1 1.8 2.4 1.8h.8v2.2h-14.2v-2.2h.7c1.8 0 2.5-.5 2.5-2.2v-14.7h-.4l-10.5 14.2v.9c0 1.8.8 1.8 3.2 1.8v2.2h-14.2v-2.2zm38 0h.8c1.8 0 2.4-.5 2.4-2.2v-20.3c0-1.7-.6-2.2-2.4-2.2h-.8v-2.2h14.2v2.2h-.8c-1.8 0-2.4.5-2.4 2.2v7.5h10.6v-7.5c0-1.7-.6-2.2-2.4-2.2h-.8v-2.2h14.2v2.2h-.8c-1.8 0-2.4.5-2.4 2.2v20.3c0 1.7.6 2.2 2.4 2.2h.8v2.2H657v-2.2h.8c1.8 0 2.4-.5 2.4-2.2v-9.5h-10.6v9.5c0 1.7.6 2.2 2.4 2.2h.8v2.2h-14.2v-2.2zm67.6-.6c-2.3 2.6-4.9 3.5-7.6 3.5-1.4 0-4.4-.1-5.5-2.9h-.3c-3.5 2.2-6.2 2.9-8.7 2.9-4 0-8.7-1.6-8.7-7 0-8.2 11.8-11.3 17.5-12.2v-4.4c0-3.1-1.6-3.7-4.4-3.7-3.2 0-3.9 2.7-4 3.5-.3 1.6-.9 3.5-3.4 3.5-2.1 0-3.2-1.4-3.2-3.2 0-2.8 3.5-7.1 12.1-7.1 10 0 10.9 5.1 10.9 8v14.8c0 2 .2 3.9 1.8 3.9.8 0 1.8-.8 2.4-1.2l1.1 1.6zm-13.3-12.4c-4.8.9-8.7 4.3-8.7 8.1 0 2.1 1.8 3.5 4.1 3.5 1.5 0 3.2-.8 4.5-2v-9.6zm29.3 13h1.7c1.8 0 2.4-.5 2.4-2.2V606c-5.5 1.2-7.3 1.5-10.4 1.5-4.3 0-7-.8-7-5.8v-9c0-1.4-.6-2.1-2.5-2.1h-.7v-2.2h13.5v2.2c-1.9 0-2.5.4-2.5 2.2v7.8c0 2.3.8 3.1 3.5 3.1 1.4 0 3-.3 6.1-.9v-9.9c0-1.6-.6-2.2-2.5-2.2v-2.2h13.5v2.2h-.8c-1.8 0-2.4.5-2.4 2.2v20.3c0 1.7.6 2.2 2.4 2.2h.8v2.2h-15.1v-2.3zm46.3-5.1c-4.3 6.2-7.4 8-12.6 8-8.5 0-14.3-7-14.3-16 0-9.2 5.8-14.6 13.5-14.6 9.2 0 12.6 9.2 12.6 15.3h-17.3c0 6.8 2.7 11.3 8.2 11.3 3.2 0 5.3-2.4 7.8-5.6l2.1 1.6zm-9-10.5c0-6.6-2.7-8.7-4-8.7-2.1 0-5.1 1.9-5.1 8.7h9.1zm63.1 10.5c-4.3 6.2-7.4 8-12.6 8-8.5 0-14.3-7-14.3-16 0-9.2 5.8-14.6 13.5-14.6 9.2 0 12.6 9.2 12.6 15.3h-17.3c0 6.8 2.7 11.3 8.2 11.3 3.2 0 5.3-2.4 7.8-5.6l2.1 1.6zm-9-10.5c0-6.6-2.7-8.7-4-8.7-2.1 0-5.1 1.9-5.1 8.7h9.1zm39.6 13.4c-4.3 3.9-7.2 5.2-10.5 5.2-9.3 0-15.1-6.2-15.1-14.4 0-8 4.8-16.2 15.7-16.2 6.9 0 9.4 4.2 9.4 6.9 0 1.3-1.1 2.7-2.8 2.7-2.8 0-3.9-2.1-4.2-3.1-.6-1.6-1.1-3.2-3.3-3.2-4.6 0-5.9 6.1-5.9 10.6 0 7.6 2.6 13.4 8.2 13.4 2.9 0 5.2-1.7 7.3-3.6l1.2 1.7zm21.1 2.2h.8c1.8 0 2.4-.5 2.4-2.2V594c0-1.8-1.3-2.4-2-2.4h-2.8c-2 0-2 1.3-2 4.5v7.3c0 7.4-.7 14.8-7.4 14.8-5.1 0-6.6-4-6.6-6.8 0-3.1 2.1-4.4 3.7-4.4 1.3 0 3 .8 3 3.5 0 2.3-1.5 2.3-1.5 3.6 0 .4.9.8 1.6.8 3.9 0 3.9-7.4 3.9-11.7V594c0-.3-.1-2-.4-2.7-.6-.8-1.1-.8-2.7-.8v-2.2h24.3v2.2h-.8c-1.8 0-2.4.5-2.4 2.2V613c0 1.7.6 2.2 2.3 2.2h.8v2.2h-14.2v-2.1zm19.2 0h.8c1.8 0 2.4-.5 2.4-2.2v-20.3c0-1.7-.6-2.2-2.4-2.2h-.8v-2.2h14.2v2.2h-.8c-1.8 0-2.4.5-2.4 2.2v14h.4l10.5-14.2v-.8c0-1.3-1.8-1.3-2.5-1.3h-.7v-2.2h14.2v2.2h-.8c-2.3 0-2.4.9-2.4 1.8v21.2c0 .9.1 1.8 2.4 1.8h.8v2.2h-14.2v-2.2h.7c1.8 0 2.5-.5 2.5-2.2v-14.7h-.4l-10.5 14.2v.9c0 1.8.8 1.8 3.2 1.8v2.2h-14.2v-2.2zm77.3 10.1c-.1.6-.3.9-.3 1.4 0 .6 0 1 3 1 1 0 1.6 0 1.6.7 0 1.3-.8 1.3-1.1 1.3-2.1 0-4.4-.2-6.5-.2-2.1 0-4.3.2-6.3.2-.8 0-.8-.6-.8-.7 0-1.3.6-1.3 1.5-1.3 3.5-.1 4-.3 4.5-2.1.2-.6 2.3-9.1 2.8-11.3-2.3 2.3-4.7 3.8-7.5 3.8-4.6 0-8.3-3.9-8.3-10.1 0-9.2 7.8-18.5 15.2-18.5 2 0 4.5 1 5.9 4.4 1.1-1.8 3.6-4.4 4.3-4.4.4 0 .6.4.6.6l-8.6 35.2zm-.7-14.4c.2-.3 3.7-14.1 3.7-14.5 0-.4-.9-5.6-5-5.6-2.6 0-5.9 2.7-7.8 7.3-1.1 2.7-2.9 9.5-2.9 12.6 0 1.1.3 5.9 4 5.9 3.5.1 7-3.9 8-5.7zm25.9 7.2c-3.4 0-7.8-1.6-7.8-7.6 0-3.1 1.3-7 3.7-13.3.4-.9 1.1-2.8 1.1-4.3 0-2-1-2.1-1.6-2.1-2.4 0-4.8 2.3-6.4 7.8-.3 1-.4 1.1-1 1.1-.1 0-.8 0-.8-.6s2.3-9.7 8.3-9.7c3.2 0 5.2 2.3 5.2 5.2 0 1.2-.3 2.1-1.1 4-1.6 4.4-3.4 9.4-3.4 12.9 0 2.3.6 5.2 3.9 5.2 4.6 0 7.1-5.1 7.2-5.3.8-3.3 3.5-14.4 4.7-19 .5-2.1 2.1-2.2 2.5-2.2.9 0 1.8.6 1.8 1.7 0 .4-.6 2.8-.9 4.2-.3.9-.9 3.3-1.1 4.3l-1.8 6.8c-.5 2.2-1.3 5.2-1.3 6.6 0 2.1.6 2.9 2 2.9 2.7 0 3.9-4.3 4.7-7.8.2-.9.3-1.1.9-1.1.2 0 .8 0 .8.6 0 .1-.8 4-1.9 6.3-1 2-2.5 3.5-4.7 3.5-2.7 0-4.9-1.6-5.6-4.2-.9 1.3-3.2 4.1-7.4 4.1zm47.8-27.3c1.1 0 1.8.6 1.8 1.7 0 .3 0 .4-.4 2.1l-2.3 8.8c-.6 2.4-.7 3-1.4 5.7-.7 2.8-.8 3.3-.8 4.7 0 1.3.2 2.9 1.9 2.9 2.6 0 3.7-3.7 4.8-7.8.2-.9.3-1.1.9-1.1.2 0 .8 0 .8.6 0 .1-.8 4-1.9 6.3-1 2-2.5 3.5-4.7 3.5-3 0-5.2-2.1-5.8-4.7-3.8 4.5-7 4.7-8.2 4.7-4.9 0-8.4-4.2-8.4-10.1 0-9.2 7.8-18.5 15.2-18.5 2.8 0 4.7 1.7 5.8 4 .2-1.4 1.2-2.8 2.7-2.8zm-3.6 6.7c.1-.3.2-.7.2-1.1 0-.4-.9-5.6-5-5.6-2.5 0-5.4 2.3-7.3 6.1-1.5 2.9-3.5 10.7-3.5 13.8 0 2.5.9 5.9 4 5.9 1.8 0 4.4-1 7.1-4.5.9-1.1.9-1.2 1.3-2.3l3.2-12.3zm18 13.3c-.3 1.2-.4 1.5-.4 3 0 .9 0 2.9 1.9 2.9 2.5 0 3.7-3.7 4.8-7.8.2-.9.3-1.1.9-1.1.2 0 .8 0 .8.6 0 .1-.8 3.8-1.9 6.2-1.1 2.3-2.7 3.5-4.7 3.5-3 0-5.8-2.2-5.8-5.8 0-1 .1-1.5.3-2.1l8-31.6.2-1.3c0-.5-.1-1.1-3.1-1.1-.9 0-1.6 0-1.6-.7 0-1.2.7-1.3 1.2-1.3 1.6-.1 6.3-.6 7.7-.6.8 0 .8.6.8.7l-9.1 36.5zm23.5-2.5c-1.5 3.9-1.8 4.7-1.8 6.3 0 1.5.4 2.1 1.5 2.1 3.2 0 5.3-3.9 6.4-7.8.3-.9.3-1.1.9-1.1.2 0 .8 0 .8.6s-2.3 9.7-8.3 9.7c-3 0-5.2-2.2-5.2-5.2 0-1.3.8-3.4 1.5-5.1 1-2.7 3.9-10 4.4-11.7.3-.6.7-2 .7-3.3 0-2-1.1-2-1.6-2-2.1 0-4.7 1.9-6.4 7.8-.3 1-.4 1.1-1 1.1-.1 0-.8 0-.8-.6s2.4-9.7 8.3-9.7c3.2 0 5.2 2.3 5.2 5.2 0 1.2-.3 2.1-.8 3.3-.6 1.7-.6 1.8-1.4 3.7l-2.4 6.7zm3.9-27c-1.5 0-2.4-1.1-2.4-2.3 0-1.7 1.7-3.3 3.4-3.3 1.5 0 2.3 1 2.3 2.3.1 1.8-1.8 3.3-3.3 3.3zm15.5 29.5c-.3 1.1-.4 1.5-.4 3 0 2.1.6 2.9 2 2.9 2.1 0 5.5-1.5 8.2-8.1.3-.7.4-.9.9-.9.3 0 .8 0 .8.6 0 .5-3.6 9.7-10 9.7-3.4 0-5.8-2.4-5.8-5.8 0-1.1.3-2.2 4.8-20.2h-5.6c-1.3 0-1.8 0-1.8-.8 0-1.2.6-1.2 1.9-1.2h5.9l2.5-10c.6-2.2 2.3-2.3 2.5-2.3 1.1 0 1.8.6 1.8 1.7 0 .4-.3 1.6-2.6 10.6h5.6c1.1 0 1.8 0 1.8.7 0 1.3-.6 1.3-1.9 1.3h-5.9l-4.7 18.8zm39.1 6.7c-1.8 7.1-8.3 12.9-14.8 12.9-3.9 0-6.7-2.3-6.7-5.5 0-3.1 2.1-4.1 3.5-4.1.6 0 2.3.3 2.3 2.2 0 1.2-.6 2-1.3 2.6-.9.8-1.7.8-2.7.8 1.1 2.5 3.9 2.7 4.8 2.7 2.9 0 5.3-1.8 7-4 2.5-3.3 3.3-6.4 4.1-9.7-1.8 1.8-3.9 2.8-6.4 2.8-3.7 0-7.7-1.9-7.7-7.5 0-3 1.1-6.6 3.7-13.3.4-1.2 1.1-2.8 1.1-4.4 0-2-1.1-2-1.6-2-2.1 0-4.7 1.9-6.4 7.8-.3 1-.4 1.1-1 1.1-.1 0-.8 0-.8-.6s2.3-9.7 8.3-9.7c3.2 0 5.2 2.3 5.2 5.2 0 1.3-.3 2-1.3 4.5-2.1 5.6-3.2 9.5-3.2 12.4 0 2.3.7 5.1 3.9 5.1 4.2 0 6.9-4.4 7.1-5.4l2.8-11.4c.4-1.7.8-3.4 1.3-5.1.3-1.1.8-3.1.9-3.4.6-.9 1.6-1.3 2.2-1.3.9 0 1.8.6 1.8 1.7 0 .4 0 .6-.3 1.5l-5.8 24.1zm34-4.1c-.8.4-.9.4-1.1.4-.7 0-1.3-.6-1.3-1.3 0-.4.1-.9 1.3-1.5l33-15.6L1173 580c-.7-.3-1.2-.6-1.2-1.4 0-.7.5-1.3 1.3-1.3.1 0 .4 0 1.3.4l34.8 16.4c1 .4 1.3.8 1.3 1.5 0 .6-.4 1-1.3 1.4l-35 16.5zm-.2 12.7c-1.1 0-2.2 0-2.2-1.3s1.3-1.3 2.3-1.3h34.1c.9 0 2.3 0 2.3 1.3s-1.1 1.3-2.2 1.3H1174zm88.1-19.5c0 6.4-5.8 12.2-13.5 12.2-6.9 0-12.8-4.2-12.8-9.9 0-2.8 2-3.7 3.5-3.7 1.8 0 3.5 1.3 3.5 3.5 0 2.4-2 3.8-4.2 3.5 2.2 3.7 7 4.8 9.7 4.8 2.8 0 7.1-1.8 7.1-10.4 0-6.2-2.3-10.5-7.5-10.5h-2.8c-1.1 0-1.5 0-1.5-.7 0-.6.4-.7.9-.8.4 0 2-.1 2.5-.2 1.6-.1 3.7-.3 5.6-3.3 1.6-2.8 1.8-6.4 1.8-7.2 0-5.7-3.5-7.1-6.1-7.1-2.3 0-6.4.8-8.4 3.9.9 0 3.9 0 3.9 3.2 0 1.8-1.3 3.2-3.2 3.2-1.8 0-3.2-1.2-3.2-3.3 0-4.8 4.8-8.6 11.2-8.6 6.1 0 11.6 3.5 11.6 8.7 0 5-3.7 9.4-8.8 11.1 6.7 1.5 10.7 6.5 10.7 11.6z" fill="#fff"/></svg>