<svg xmlns="http://www.w3.org/2000/svg" viewBox="0 0 1920 673" xml:space="preserve"><path fill="#2d4355" d="M0 0h1920v673H0z"/><path d="M405.7 288.4h19.7l34.1 88.6h-19.8l-34-88.6zm91.5 75.1c-4 5.1-9.4 7.7-16.2 7.7-6.7 0-11.7-1.9-15.1-5.8-3.4-3.9-5.1-9.4-5.1-16.7v-39.3h18.9v39.4c0 5.2 2.5 7.8 7.6 7.8 4.3 0 7.4-1.6 9.3-4.7v-42.6h19V370h-17.7l-.7-6.5zm60.4-10.5c0-1.6-.8-2.9-2.5-3.9s-4.9-2-9.6-3c-4.7-1-8.6-2.4-11.7-4.1-3.1-1.7-5.4-3.8-7-6.2-1.6-2.4-2.4-5.2-2.4-8.4 0-5.6 2.3-10.2 6.9-13.8 4.6-3.6 10.6-5.4 18.1-5.4 8 0 14.4 1.8 19.3 5.4 4.9 3.6 7.3 8.4 7.3 14.3h-19c0-4.9-2.6-7.3-7.7-7.3-2 0-3.6.6-5 1.7-1.3 1.1-2 2.5-2 4.1 0 1.7.8 3 2.5 4.1s4.3 1.9 7.9 2.6c3.6.7 6.8 1.5 9.5 2.4 9.1 3.1 13.7 8.8 13.7 16.9 0 5.5-2.5 10-7.4 13.5s-11.3 5.2-19.1 5.2c-5.2 0-9.8-.9-13.9-2.8s-7.3-4.4-9.5-7.6c-2.3-3.2-3.4-6.6-3.4-10.1h17.7c.1 2.8 1 4.8 2.8 6.1 1.8 1.3 4.1 1.9 6.9 1.9 2.6 0 4.5-.5 5.8-1.6 1.1-.9 1.8-2.3 1.8-4zm56.4 18.2c-9.3 0-16.8-2.8-22.6-8.3-5.8-5.6-8.6-12.8-8.6-21.7v-1.6c0-6.2 1.1-11.7 3.4-16.4s5.7-8.4 10.1-11c4.4-2.6 9.6-3.9 15.7-3.9 8.5 0 15.3 2.6 20.2 7.9 4.9 5.3 7.4 12.7 7.4 22.1v7.3H602c.7 3.4 2.1 6.1 4.4 8 2.3 1.9 5.2 2.9 8.9 2.9 6 0 10.7-2.1 14-6.3l8.6 10.2c-2.4 3.3-5.7 5.8-10 7.8s-9 3-13.9 3zm-2.2-48.4c-5.5 0-8.8 3.7-9.9 11H621v-1.5c.1-3-.7-5.4-2.3-7-1.6-1.6-3.9-2.5-6.9-2.5zm91.7 17.4c0 9.4-2.1 16.9-6.4 22.6-4.2 5.6-10 8.4-17.2 8.4-5.6 0-10.1-2-13.7-6.1v28.3h-18.9v-84H665l.6 5.6c3.6-4.5 8.4-6.7 14.3-6.7 7.5 0 13.3 2.8 17.4 8.3 4.1 5.5 6.2 13.1 6.2 22.7v.9zm-18.9-1.2c0-10.8-3.1-16.1-9.4-16.1-4.5 0-7.5 1.6-9 4.8v23.9c1.6 3.4 4.7 5 9.1 5 6 0 9.1-5.2 9.3-15.6v-2zm61.4 31.1c-.7-1.2-1.3-3-1.8-5.4-3.5 4.4-8.3 6.6-14.6 6.6-5.7 0-10.6-1.7-14.6-5.2s-6-7.8-6-13c0-6.6 2.4-11.5 7.3-14.9 4.9-3.4 11.9-5 21.2-5h5.8V330c0-5.6-2.4-8.4-7.2-8.4-4.5 0-6.7 2.2-6.7 6.6h-18.9c0-5.9 2.5-10.6 7.5-14.3 5-3.7 11.4-5.5 19.1-5.5 7.7 0 13.8 1.9 18.3 5.7 4.5 3.8 6.8 9 6.9 15.5v26.9c.1 5.6.9 9.8 2.6 12.8v1H746zm-11.9-12.4c2.4 0 4.3-.5 5.9-1.5 1.6-1 2.7-2.1 3.3-3.4v-9.7h-5.5c-6.6 0-9.9 3-9.9 8.9 0 1.7.6 3.1 1.7 4.2 1.3 1 2.7 1.5 4.5 1.5zm64.3-1.1c2.7 0 4.7-.7 6.2-2.2 1.5-1.4 2.2-3.4 2.1-6h17.7c0 6.7-2.4 12.1-7.1 16.4-4.8 4.3-10.9 6.4-18.4 6.4-8.8 0-15.8-2.8-20.9-8.3-5.1-5.5-7.6-13.2-7.6-23v-.8c0-6.1 1.1-11.5 3.4-16.2 2.3-4.7 5.5-8.3 9.8-10.8 4.3-2.5 9.3-3.8 15.1-3.8 7.9 0 14.1 2.2 18.8 6.6 4.6 4.4 7 10.3 7 17.8h-17.7c0-3.1-.8-5.6-2.3-7.2-1.5-1.7-3.6-2.5-6.2-2.5-4.9 0-7.8 3.1-8.6 9.4-.3 2-.4 4.7-.4 8.2 0 6.1.7 10.3 2.2 12.7s3.7 3.3 6.9 3.3zm58.3-9.1-5.3 5.3v17.3h-18.9v-86.2h18.9v45.8l1.9-2.5 14.2-17.7h22.7l-21.3 25 22.7 35.7H870l-13.3-22.7zm72.7 22.6c-.7-1.2-1.3-3-1.8-5.4-3.5 4.4-8.3 6.6-14.6 6.6-5.7 0-10.6-1.7-14.6-5.2s-6-7.8-6-13c0-6.6 2.4-11.5 7.3-14.9 4.9-3.4 11.9-5 21.2-5h5.8V330c0-5.6-2.4-8.4-7.2-8.4-4.5 0-6.7 2.2-6.7 6.6h-18.9c0-5.9 2.5-10.6 7.5-14.3 5-3.7 11.4-5.5 19.1-5.5 7.7 0 13.8 1.9 18.3 5.7 4.5 3.8 6.8 9 6.9 15.5v26.9c.1 5.6.9 9.8 2.6 12.8v1h-18.9zm-11.9-12.4c2.4 0 4.3-.5 5.9-1.5 1.6-1 2.7-2.1 3.3-3.4v-9.7h-5.5c-6.6 0-9.9 3-9.9 8.9 0 1.7.6 3.1 1.7 4.2 1.3 1 2.7 1.5 4.5 1.5zm36.4-18.4c0-6.1 1-11.6 3-16.3 2-4.7 4.9-8.3 8.7-10.9 3.8-2.6 8.2-3.8 13.2-3.8 6.3 0 11.3 2.1 14.8 6.4l.7-5.3h17.2v58.4c0 5.3-1.2 10-3.7 13.9-2.5 3.9-6.1 7-10.8 9.1-4.7 2.1-10.2 3.2-16.4 3.2-4.4 0-8.8-.8-12.9-2.5-4.2-1.7-7.4-3.9-9.6-6.6l7.9-11.1c3.5 4.1 8.1 6.2 13.9 6.2 8.4 0 12.6-4.3 12.6-12.9v-1.9c-3.6 4-8.2 6-13.7 6-7.4 0-13.4-2.8-17.9-8.5s-6.8-13.2-6.8-22.7v-.7zm19 1.2c0 5 .9 8.9 2.8 11.8 1.9 2.9 4.5 4.3 7.8 4.3 4.1 0 7-1.4 8.9-4.1V327c-1.8-2.8-4.8-4.1-8.8-4.1-3.4 0-6 1.5-7.9 4.5-1.9 3-2.8 7.3-2.8 13.1zm78.6 30.7c-9.3 0-16.8-2.8-22.6-8.3-5.8-5.6-8.6-12.8-8.6-21.7v-1.6c0-6.2 1.1-11.7 3.4-16.4s5.7-8.4 10.1-11c4.4-2.6 9.6-3.9 15.7-3.9 8.5 0 15.3 2.6 20.2 7.9 4.9 5.3 7.4 12.7 7.4 22.1v7.3h-37.6c.7 3.4 2.1 6.1 4.4 8 2.3 1.9 5.2 2.9 8.9 2.9 6 0 10.7-2.1 14-6.3l8.6 10.2c-2.4 3.3-5.7 5.8-10 7.8s-8.9 3-13.9 3zm-2.1-48.4c-5.5 0-8.8 3.7-9.9 11h19.1v-1.5c.1-3-.7-5.4-2.3-7-1.6-1.6-3.9-2.5-6.9-2.5zm61.5 67.4c-13.5-3.8-20.2-12.5-20.2-26.1V353c0-7.5-3-11.3-9.1-11.3V329c6.1 0 9.1-3.8 9.1-11.4v-11.8c.1-6.7 1.9-12.2 5.2-16.3s8.4-7.2 14.9-9l3.5 9.9c-4.7 1.8-7.2 6.8-7.3 15.1v12.2c0 8.4-3.5 14.3-10.4 17.7 6.9 3.4 10.4 9.4 10.4 17.8v12.1c.2 8.3 2.6 13.3 7.3 15.1l-3.4 9.8zm33.1-95.9v15.1h10v13.1h-10v27.8c0 2.3.4 3.9 1.2 4.8.8.9 2.4 1.3 4.9 1.3 1.9 0 3.4-.1 4.7-.3v13.5c-3.4 1.1-7 1.6-10.7 1.6-6.5 0-11.3-1.5-14.4-4.6-3.1-3.1-4.7-7.7-4.7-14v-30.1h-7.7v-13.1h7.7v-15.1h19zm17.3-.6c0-2.7 1-4.9 2.9-6.6 1.9-1.7 4.5-2.6 7.6-2.6 3.1 0 5.6.9 7.6 2.6 1.9 1.7 2.9 3.9 2.9 6.6s-1 4.9-2.9 6.6c-1.9 1.7-4.5 2.6-7.6 2.6-3.1 0-5.6-.9-7.6-2.6-2-1.7-2.9-3.9-2.9-6.6zm20 76.4h-19v-60.7h19v60.7zm33.7-75.8v15.1h10v13.1h-10v27.8c0 2.3.4 3.9 1.2 4.8.8.9 2.4 1.3 4.9 1.3 1.9 0 3.4-.1 4.7-.3v13.5c-3.4 1.1-7 1.6-10.7 1.6-6.5 0-11.3-1.5-14.4-4.6-3.1-3.1-4.7-7.7-4.7-14v-30.1h-7.7v-13.1h7.7v-15.1h19zm37.3 75.8h-19V284h19v86.1zm41 1.1c-9.3 0-16.8-2.8-22.6-8.3-5.8-5.6-8.6-12.8-8.6-21.7v-1.6c0-6.2 1.1-11.7 3.4-16.4s5.7-8.4 10.1-11c4.4-2.6 9.6-3.9 15.7-3.9 8.5 0 15.3 2.6 20.2 7.9 4.9 5.3 7.4 12.7 7.4 22.1v7.3h-37.6c.7 3.4 2.1 6.1 4.4 8 2.3 1.9 5.2 2.9 8.9 2.9 6 0 10.7-2.1 14-6.3l8.6 10.2c-2.4 3.3-5.7 5.8-10 7.8s-8.9 3-13.9 3zm-2.1-48.4c-5.5 0-8.8 3.7-9.9 11h19.1v-1.5c.1-3-.7-5.4-2.3-7-1.6-1.6-3.9-2.5-6.9-2.5zm91.6 17.4c0 9.4-2.1 16.9-6.4 22.6-4.2 5.6-10 8.4-17.2 8.4-5.6 0-10.1-2-13.7-6.1v28.3h-18.9v-84h17.7l.6 5.6c3.6-4.5 8.4-6.7 14.3-6.7 7.5 0 13.3 2.8 17.4 8.3s6.2 13.1 6.2 22.7v.9zm-18.9-1.2c0-10.8-3.1-16.1-9.4-16.1-4.5 0-7.5 1.6-9 4.8v23.9c1.6 3.4 4.7 5 9.1 5 6 0 9.1-5.2 9.3-15.6v-2zm27.1-45.3c0-2.7 1-4.9 2.9-6.6 1.9-1.7 4.5-2.6 7.6-2.6 3.1 0 5.6.9 7.6 2.6 1.9 1.7 2.9 3.9 2.9 6.6s-1 4.9-2.9 6.6c-1.9 1.7-4.5 2.6-7.6 2.6-3.1 0-5.6-.9-7.6-2.6-1.9-1.7-2.9-3.9-2.9-6.6zm20.1 76.4h-19v-60.7h19v60.7zm37.2-13.5c2.7 0 4.7-.7 6.2-2.2 1.5-1.4 2.2-3.4 2.1-6h17.7c0 6.7-2.4 12.1-7.1 16.4s-10.9 6.4-18.4 6.4c-8.8 0-15.8-2.8-20.9-8.3-5.1-5.5-7.6-13.2-7.6-23v-.8c0-6.1 1.1-11.5 3.4-16.2 2.3-4.7 5.5-8.3 9.8-10.8 4.3-2.5 9.3-3.8 15.1-3.8 7.9 0 14.1 2.2 18.8 6.6 4.6 4.4 7 10.3 7 17.8h-17.7c0-3.1-.8-5.6-2.3-7.2-1.5-1.7-3.6-2.5-6.2-2.5-4.9 0-7.8 3.1-8.6 9.4-.3 2-.4 4.7-.4 8.2 0 6.1.7 10.3 2.2 12.7s3.8 3.3 6.9 3.3zm31 23.7c4.7-1.8 7.2-6.8 7.3-15.1V353c0-8.4 3.5-14.3 10.4-17.7-7-3.4-10.4-9.3-10.4-17.7v-12.2c-.2-8.3-2.6-13.3-7.3-15.1l3.5-9.9c6.7 1.9 11.7 4.9 15.1 9.2 3.4 4.2 5.1 9.8 5.1 16.7v11.3c0 7.6 3 11.4 9.1 11.4v12.7c-6.1 0-9.1 3.8-9.1 11.3v12c-.3 13.2-7 21.6-20.2 25.3l-3.5-10z" fill="#fff"/></svg>