<svg xmlns="http://www.w3.org/2000/svg" viewBox="0 0 1920 673" xml:space="preserve"><path fill="#dc4844" d="M0 0h1920v673H0z"/><path d="M549.4 325.8c0 14.4-2.4 27-7.2 37.8-4.8 10.8-11.4 19.4-19.8 25.9l25.2 19.9-23.3 19.7-33.5-27c-3.1.4-6.3.6-9.4.6-13.3 0-25.1-3.1-35.4-9.2-10.3-6.1-18.3-14.9-24.1-26.4-5.8-11.4-8.7-24.6-8.9-39.4v-8.3c0-15.4 2.8-28.9 8.4-40.5 5.6-11.6 13.6-20.6 24-27 10.4-6.4 22.3-9.5 35.7-9.5 13.2 0 25 3.1 35.4 9.4 10.4 6.3 18.4 15.2 24.2 26.8 5.8 11.6 8.7 24.9 8.7 39.9v7.3zm-38.3-6.5c0-15.5-2.6-27.3-7.8-35.3-5.2-8-12.6-12.1-22.2-12.1-9.9 0-17.4 4-22.4 11.9s-7.5 19.5-7.6 34.8v7.2c0 15.4 2.5 27.1 7.6 35.3 5.1 8.2 12.6 12.3 22.6 12.3 9.6 0 16.9-4 22-12.1 5.1-8.1 7.7-19.7 7.8-34.8v-7.2zm97.9-63.5v28.8h19.1v25.1H609v53.1c0 4.4.8 7.4 2.4 9.1 1.6 1.7 4.7 2.6 9.3 2.6 3.6 0 6.6-.2 9-.6v25.8c-6.5 2.1-13.3 3.1-20.4 3.1-12.4 0-21.6-2.9-27.5-8.8-5.9-5.9-8.9-14.8-8.9-26.7v-57.6h-14.8v-25.1h14.8v-28.8H609zm34.8 68.6 9.5-79.8h91.2v28.1h-61.8l-3.5 31c2.6-1.5 5.9-2.8 10.1-4 4.2-1.1 8.3-1.7 12.3-1.7 15.5 0 27.4 4.6 35.7 13.8 8.3 9.2 12.5 22.1 12.5 38.6 0 10-2.2 19.1-6.7 27.2-4.5 8.1-10.7 14.3-18.8 18.7-8.1 4.4-17.6 6.5-28.6 6.5-9.8 0-19-2-27.5-6.1-8.6-4-15.3-9.6-20.1-16.6-4.9-7-7.3-15-7.2-23.8h36.2c.4 5.7 2.2 10.2 5.5 13.6 3.3 3.4 7.6 5 13 5 12.1 0 18.2-9 18.2-27 0-16.6-7.4-24.9-22.3-24.9-8.4 0-14.7 2.7-18.9 8.1l-28.8-6.7zm226.5 33.3 18.3-73h38l-37.8 116H852l-37.8-116h38.2l17.9 73zm127.9 10.4c0-3.1-1.6-5.5-4.8-7.4-3.2-1.9-9.3-3.8-18.3-5.8s-16.4-4.6-22.3-7.9c-5.9-3.3-10.3-7.2-13.4-11.8-3.1-4.6-4.6-10-4.6-16 0-10.6 4.4-19.4 13.2-26.3 8.8-6.9 20.3-10.3 34.5-10.3 15.3 0 27.6 3.5 36.9 10.4 9.3 6.9 13.9 16 13.9 27.3H997c0-9.3-4.9-13.9-14.7-13.9-3.8 0-7 1.1-9.5 3.2-2.6 2.1-3.9 4.7-3.9 7.9s1.6 5.8 4.7 7.8 8.2 3.6 15.1 4.9c6.9 1.3 13 2.8 18.2 4.6 17.4 6 26.2 16.8 26.2 32.3 0 10.6-4.7 19.2-14.1 25.8-9.4 6.6-21.6 10-36.5 10-9.9 0-18.8-1.8-26.6-5.4-7.8-3.6-13.9-8.4-18.2-14.6-4.4-6.1-6.5-12.6-6.5-19.4H965c.1 5.4 1.9 9.3 5.4 11.7 3.4 2.5 7.8 3.7 13.2 3.7 4.9 0 8.6-1 11.1-3 2.2-2 3.5-4.6 3.5-7.8zm74-2.5c5.7 0 10.5 1.7 14.3 5.1 3.8 3.4 5.7 7.7 5.7 13s-1.9 9.6-5.7 13c-3.8 3.4-8.5 5.1-14.3 5.1-5.8 0-10.6-1.7-14.3-5.1-3.8-3.4-5.6-7.8-5.6-13s1.9-9.5 5.6-13c3.8-3.4 8.5-5.1 14.3-5.1zm232.7-39.8c0 14.4-2.4 27-7.2 37.8-4.8 10.8-11.4 19.4-19.8 25.9l25.2 19.9-23.3 19.7-33.5-27c-3.1.4-6.3.6-9.4.6-13.3 0-25.1-3.1-35.4-9.2-10.3-6.1-18.3-14.9-24.1-26.4-5.8-11.4-8.7-24.6-8.9-39.4v-8.3c0-15.4 2.8-28.9 8.4-40.5 5.6-11.6 13.6-20.6 24-27 10.4-6.4 22.3-9.5 35.7-9.5 13.2 0 25 3.1 35.4 9.4 10.4 6.3 18.4 15.2 24.2 26.8 5.8 11.6 8.7 24.9 8.7 39.9v7.3zm-38.3-6.5c0-15.5-2.6-27.3-7.8-35.3-5.2-8-12.6-12.1-22.2-12.1-9.9 0-17.4 4-22.4 11.9s-7.5 19.5-7.6 34.8v7.2c0 15.4 2.5 27.1 7.6 35.3 5.1 8.2 12.6 12.3 22.6 12.3 9.6 0 16.9-4 22-12.1 5.1-8.1 7.7-19.7 7.8-34.8v-7.2zm97.9-63.5v28.8h19.1v25.1h-19.1v53.1c0 4.4.8 7.4 2.4 9.1 1.6 1.7 4.7 2.6 9.3 2.6 3.6 0 6.6-.2 9-.6v25.8c-6.5 2.1-13.3 3.1-20.4 3.1-12.4 0-21.6-2.9-27.5-8.8-5.9-5.9-8.9-14.8-8.9-26.7v-57.6h-14.8v-25.1h14.8v-28.8h36.1zm128.1 83.9h15.9v27.9h-15.9v33.1h-36.1v-33.1h-60.3l-2.1-22.1 62.5-100.5v-.3h36.1v95zm-64.2 0h28.1v-48l-2.3 3.6-25.8 44.4z" fill="#fff"/></svg>