<svg xmlns="http://www.w3.org/2000/svg" viewBox="0 0 1920 673" xml:space="preserve"><style>.st0{fill:#f89832}</style><path class="st0" d="M0 0h1920v673H0z"/><path d="M677.4 335.9v244.7c0 21.2 17.3 38.5 38.5 38.5H1204c21.2 0 38.5-17.3 38.5-38.5V335.9H677.4z" fill="#4f4f51"/><path d="M677.4 561.9v18.6c0 21.2 17.3 38.5 38.5 38.5H1204c21.2 0 38.5-17.3 38.5-38.5v-18.6H677.4z"/><path d="M1204 53.9H716c-21.2 0-38.5 17.3-38.5 38.5v243.4h565.1V92.5c0-21.2-17.4-38.6-38.6-38.6z" fill="#7d7d7f"/><path d="M1204 631.9H716c-28.3 0-51.4-23-51.4-51.4v-488c0-28.3 23-51.4 51.4-51.4h488c28.3 0 51.4 23 51.4 51.4v488.1c0 28.3-23 51.3-51.4 51.3zM716 66.8c-14.2 0-25.7 11.5-25.7 25.7v488.1c0 14.2 11.5 25.7 25.7 25.7h488c14.2 0 25.7-11.5 25.7-25.7V92.5c0-14.2-11.5-25.7-25.7-25.7H716z" fill="#e4e4e4"/><path class="st0" d="M1069.2 391.6c0 16.7-4.3 31.7-12.8 45-8.6 13.3-21.1 23.7-37.6 31.2s-36.1 11.3-58.7 11.3c-27.1 0-49.5-5.1-67.1-15.4-12.5-7.4-22.6-17.3-30.5-29.6-7.8-12.3-11.7-24.4-11.7-36 0-6.8 2.3-12.6 7-17.4 4.7-4.8 10.7-7.2 17.9-7.2 5.9 0 10.8 1.9 14.9 5.6 4.1 3.8 7.5 9.3 10.4 16.7 3.5 8.8 7.3 16.1 11.3 22 4.1 5.9 9.8 10.8 17.1 14.6 7.4 3.8 17.1 5.7 29.1 5.7 16.5 0 29.9-3.9 40.2-11.6 10.3-7.7 15.5-17.3 15.5-28.9 0-9.2-2.8-16.6-8.3-22.3-5.6-5.7-12.7-10.1-21.6-13.1-8.8-3-20.6-6.2-35.3-9.6-19.7-4.6-36.3-10.1-49.6-16.3s-23.9-14.7-31.7-25.4c-7.8-10.7-11.7-24-11.7-40 0-15.2 4.1-28.7 12.4-40.4 8.2-11.8 20.2-20.8 35.8-27.2 15.6-6.3 34-9.5 55.1-9.5 16.9 0 31.5 2.1 43.8 6.3 12.3 4.2 22.5 9.8 30.6 16.7 8.1 7 14.1 14.3 17.8 21.9 3.7 7.7 5.6 15.1 5.6 22.4 0 6.6-2.3 12.6-7 18-4.7 5.3-10.5 8-17.5 8-6.4 0-11.2-1.6-14.5-4.8-3.3-3.2-6.9-8.4-10.8-15.7-5-10.4-11-18.5-18-24.4-7-5.8-18.2-8.7-33.7-8.7-14.4 0-26 3.2-34.8 9.5-8.8 6.3-13.2 14-13.2 22.9 0 5.5 1.5 10.3 4.5 14.3s7.1 7.5 12.4 10.3c5.2 2.9 10.6 5.1 15.9 6.8 5.4 1.6 14.2 4 26.6 7.1 15.5 3.6 29.5 7.7 42.1 12 12.6 4.4 23.2 9.7 32 16 8.8 6.3 15.7 14.2 20.6 23.8 5 9.7 7.5 21.5 7.5 35.4z"/></svg>