<svg xmlns="http://www.w3.org/2000/svg" viewBox="0 0 1920 673" xml:space="preserve"><style>.st1{fill:#fff}.st2{fill:#221e1f}.st3{fill:#98cd70}</style><path fill="#4d6273" d="M0 0h1920v673H0z"/><ellipse transform="rotate(-53.843 1174.914 173.58)" class="st1" cx="1174.9" cy="173.6" rx="109.8" ry="77"/><path class="st2" d="M1145.6 277.4c-14.2 0-27.1-4-37.8-11.8-36.1-26.4-35.3-89.1 1.6-139.9 37.1-50.7 96.5-70.5 132.7-44.1 17.7 13 27.3 34.9 26.7 61.5-.4 26.2-10.6 53.9-28.3 78.4-17.7 24.3-41.3 42.5-66 50.8-10 3.3-19.7 5.1-28.9 5.1zm-29.5-146.9c-34.4 47.1-35.9 104.6-3.4 128.3 15.5 11.3 36.5 13.3 59.1 5.7 23.2-7.9 45.1-24.9 62-47.8 16.8-22.9 26.4-49.2 26.8-73.6.4-24-7.9-43.4-23.4-54.7-32.3-23.9-86.7-4.9-121.1 42.1z"/><path class="st3" d="M850.4 350.1s3.1 14.7 0 21.9c-3.1 7.2-24.6 27.1-24.6 27.1l45.1 6.1s5.7-15.3 7-25.2c1.3-10 0-21.8 0-21.8"/><path class="st2" d="m873.8 409.8-57.1-7.7 6.3-6c8-7.6 21.6-21.2 23.7-25.8 1.9-4.3.9-14.2-.3-19.4l8-1.6c.3 1.6 3.3 16.2-.3 24.3-2.4 5.4-12.4 15.8-19.4 22.6l33.5 4.6c1.6-4.9 4.8-14.5 5.8-21.3 1.3-9.2 0-20.6 0-20.7l8.2-.9c0 .4 1.5 12.4 0 22.8-1.5 10.3-7 25.5-7.3 26.1l-1.1 3z"/><path class="st3" d="M1055.3 199c-26.5-7.2-92.2-64.8-185.3-71.2S724.8 240.1 710.2 287.5s-21 85.8-14.6 147 42.9 123.7 64.4 146.6c21.5 22.9 49.8 51.5 90 51.5 53.9 0 73.2-39.8 77.6-58.8 6.1-32.8-25.2-95.8-67.6-98.2-42.5-2.2-54.8 24.6-54.8 42.9 0 18.3 21.5 38.3 37.8 39.3s34.3-10 32.5-25.6c-1.8-15.5-13.7-8.2-13.7-8.2s2.7 13.7-9.1 14.6c-11.8.9-22.8-9.1-21-20.1 1.8-11 13.7-21 33.8-18.3 20.1 2.7 42.9 43.8 39.3 63.9-3.7 20.1-11.9 51.1-55.7 42-56.6-11.9-126-115-123.2-190 2.7-74.9 58.4-115 58.4-115s45.6 63.9 134.2 60.2 150.6-23.7 150.6-23.7 22.8 9.4 56.6 6.4c49.3-10 95.2-48.4 95.2-48.4s-30.2-55.7-58.6-72.1-80.5-17.3-107-24.5z"/><path class="st2" d="M849.8 636.7c-43.2 0-73.2-31.9-93-52.9-22.6-24.1-59.1-88-65.4-149-6.6-62.9.4-102.1 14.7-148.7 5.4-17.4 55.6-170.1 164-162.7 66.9 4.6 119.3 35 154 55 13.9 8 24.9 14.3 32 16.2 8.8 2.4 21 4.2 33.8 6 25.6 3.7 54.7 7.9 73.9 19.1 28.9 16.8 58.8 71.4 60.2 73.7l1.6 3-2.5 2.1c-1.9 1.6-47.1 39.2-97 49.3h-.4c-29.9 2.7-51.5-4-57.1-6.1-9.8 3-69.4 20.1-150.3 23.5-77.8 3.3-123.8-45.1-135-58.6-11.5 9.7-51.4 47.5-53.6 109.4-2.7 71.5 63.6 173.9 119.9 185.8 14.2 3 25.3 1.6 33.4-3.7 11.2-7.4 15-21.9 17.4-35 1.8-10.1-4.5-28.3-14.6-42.5-7-9.7-14.7-15.8-21.2-16.7-17.1-2.4-27.7 5.7-29.2 14.9-.6 3.4.6 7 3.3 10 3.3 3.6 8.5 5.7 13.3 5.4 1.9-.1 3.4-.7 4.2-1.9 1.8-2.2 1.5-6.4 1.2-7.7l-.6-2.8 2.4-1.5c.7-.4 7-4 12.8-1.3 4 1.9 6.4 6.1 7.2 12.5.7 6.9-1.5 13.4-6.6 18.9-7 7.4-18.9 11.9-30.1 11.3-18.2-1-41.7-22.2-41.7-43.4 0-6.1 1.3-21.5 14-33.4 10.6-10 25.8-14.6 45-13.6 17 .9 34 11.2 47.7 28.8 17.6 22.3 27.6 53.6 23.7 74.3-6.4 28.9-31.8 62.3-81.4 62.3zm12.8-505.2c-97.3 0-143.5 140.8-148.5 157.2-14 45.6-20.9 83.9-14.5 145.4 6.1 59 41.4 120.8 63.3 144.2 18.8 20 47.2 50.4 87 50.4 58.8 0 72.3-50.1 73.6-55.7 3.4-18-6.1-47.2-22-67.5-12.4-15.6-27.1-24.7-41.7-25.6-17-.9-30.1 2.8-39 11.3-10.4 9.8-11.5 22.5-11.5 27.4 0 16.1 20 34.4 34 35.2 8.9.4 18.2-3 23.7-8.6 2.4-2.5 5.1-6.7 4.5-12.2-.4-3.3-1.3-5.5-2.5-6.1-.7-.3-1.8-.3-2.7 0 .1 3-.3 7.4-3 11-1.6 2.1-4.6 4.8-10.1 5.2-7.4.6-14.9-2.4-20-7.9-4.5-4.8-6.4-11-5.4-16.8 2.2-13.1 16.1-24.7 38.4-21.6 8.6 1.2 18.2 8.3 26.7 20 9.7 13.3 18.8 34.1 16.1 48.7-2.7 14.7-7.3 31.1-21 40.4-10 6.7-23.2 8.3-39.6 4.9-27.9-5.8-60.2-33.2-86.4-73.2-26.4-40.1-41.4-85.4-40.1-121 2.8-76 57.8-116.5 60.2-118.3l3.3-2.4 2.4 3.3c.4.6 45.4 62 130.7 58.6 86.9-3.6 149-23.4 149.6-23.5l1.5-.4 1.3.6c.1.1 22.3 8.9 54.4 6.1 41-8.5 80-37.2 90.4-45.3-6.7-11.6-32-54.1-55.4-67.5-17.9-10.4-46.2-14.5-71.1-18-13.1-1.9-25.5-3.7-34.9-6.3-8.2-2.2-19.7-8.8-34-17.1-34.1-19.7-85.7-49.5-150.6-53.9-2.4-.8-4.8-1-7.1-1z"/><ellipse transform="rotate(-9.119 1041.409 153.991)" class="st1" cx="1041.5" cy="154" rx="80.8" ry="114.3"/><path class="st2" d="M1050.4 271.6c-42.8 0-83.3-44.2-92.8-104.1-10.3-64.5 18.8-122.9 65.1-130.4 46.2-7.4 92.2 39 102.6 103.4 10.3 64.5-18.9 122.9-65.1 130.4-3.3.5-6.6.7-9.8.7zm-17.9-227.1c-2.8 0-5.7.3-8.6.7-41.7 6.7-67.9 60.9-58.3 121 9.7 60 51.4 103.2 93.1 96.5 41.7-6.7 67.9-60.9 58.3-121-8.8-55.8-45.8-97.2-84.5-97.2z"/><circle class="st2" cx="1018" cy="172.8" r="18.9"/><circle class="st2" cx="1220.6" cy="154" r="18.9"/><path d="M648.1 392.1h-54.8s-6.1 12.8-6.1 25.3 6.1 25.3 6.1 25.3h54.8v-50.6z" fill="#d07b84"/><path class="st2" d="M652.1 446.8h-61.4l-1.2-2.4c-.3-.6-6.6-13.9-6.6-27.1 0-13.4 6.3-26.5 6.6-27.1l1.2-2.4h61.5v59h-.1zm-56.1-8.2h48v-42.5h-48c-1.6 4-4.8 12.8-4.8 21.2 0 8.5 3.1 17.2 4.8 21.3z"/><path class="st1" d="M691.9 392.1h-54.8s-6.1 12.8-6.1 25.3 6.1 25.3 6.1 25.3h54.8v-50.6z"/><path class="st2" d="M695.9 446.8h-61.4l-1.2-2.4c-.3-.6-6.6-13.9-6.6-27.1 0-13.4 6.3-26.5 6.6-27.1l1.2-2.4H696v59h-.1zm-56.1-8.2h48v-42.5h-48c-1.6 4-4.8 12.8-4.8 21.2 0 8.5 3.1 17.2 4.8 21.3z"/><path class="st1" d="M711.1 392.1h-54.8s-6.1 12.8-6.1 25.3 6.1 25.3 6.1 25.3h54.8v-50.6z"/><path class="st2" d="M715.1 446.8h-61.5l-1.2-2.4c-.3-.6-6.6-13.9-6.6-27.1 0-13.4 6.3-26.5 6.6-27.1l1.2-2.4h61.5v59zm-56.1-8.2h48v-42.5h-48c-1.6 4-4.8 12.8-4.8 21.2 0 8.5 3.1 17.2 4.8 21.3z"/><path d="M1189.5 392.1h-514s-6.1 12.8-6.1 25.3 6.1 25.3 6.1 25.3h514l126.5-25.3-126.5-25.3z" fill="#dcc576"/><path class="st1" d="M1189.5 392.1s-7.6 8.9-7.6 25.3 7.6 25.3 7.6 25.3l126.5-25.3-126.5-25.3z"/><path class="st2" d="M1190 446.8H673l-1.2-2.4c-.3-.6-6.6-13.9-6.6-27.1 0-13.4 6.3-26.5 6.6-27.1l1.2-2.4 517.4.1 146.6 29.3-147 29.6zm-511.8-8.2h511l105.9-21.2-106.1-21.3H678c-1.6 4-4.8 12.8-4.8 21.2.2 8.5 3.4 17.2 5 21.3z"/><path class="st2" d="M1254.3 405.1s-3.1 5.7-3.1 12.4 3.1 12.4 3.1 12.4l61.7-12.4-61.7-12.4z"/><path fill="none" d="M1181.9 417.4H669.3"/><path class="st2" d="M669.3 413.2h512.5v8.2H669.3z"/><path class="st1" d="M1189.5 392.1s-7.6 8.9-7.6 25.3 7.6 25.3 7.6 25.3"/><path class="st2" d="M1186.4 445.4c-.3-.4-8.6-10.3-8.6-28s8.3-27.6 8.6-28l6.3 5.4-3.1-2.7 3.1 2.7c0 .1-6.7 8.2-6.7 22.6 0 14.6 6.6 22.6 6.7 22.6l-6.3 5.4z"/><path class="st3" d="M1069.4 442.7c0 3.7 16.5 28.5 46 25.5 30.4-3 46-25.5 46-25.5h-30.1s-8.5 4.8-19.8 4.8c-11.5 0-18-1.6-21.6-4.8-3.6-3.1-2.8-7-11.5-7-6.3-.1-9 3.3-9 7z"/><path class="st2" d="M1110.8 472.5c-16.8 0-28.8-8.3-34.6-13.6-5.4-4.8-10.9-12.1-10.9-16.2 0-5.5 4-11.2 13.3-11.2 7.7 0 10.3 2.8 12.7 6.1.6.7 1 1.5 1.6 2.1 2.8 2.5 8.9 3.7 18.8 3.7 10.3 0 17.7-4.2 17.9-4.2l.9-.6h39l-4.5 6.4c-.7 1-17.1 24.1-49 27.3-1.9.2-3.5.2-5.2.2zm-37.2-30.1c1.2 3.1 15.2 24.3 41.6 21.8 17.9-1.8 30.5-10.9 37.2-17.3h-20c-2.7 1.3-10.7 4.8-20.9 4.8-12.4 0-19.8-1.8-24.3-5.8-1.3-1.2-2.2-2.4-2.8-3.4-1.3-1.9-1.8-2.5-5.8-2.5-1.9-.2-4.9.1-5 2.4z"/><path class="st3" d="M788.7 297.3s-10.9 21.5-11.9 40.5c-1 19.2 7.9 45.9 7.9 45.9s-14.6 16.8-17 29.2c-1.2 6.1-.7 13 6.9 22.8 7.9 10.1 15.2 15.2 18.6 16.1 6.9 1.6 11.3-1.3 15.8-3.7s10.4-4.2 6.6-5.5c-11.6-1-25.3-23.7-21.9-29.2 3.4-5.5 13-21.5 13-21.5h22.9s-25.6-30.2-25.3-38.7c.3-8.5 17.9-40.7 17.9-40.7"/><path class="st2" d="M797.1 456.5c-1.5 0-3.1-.1-4.9-.6-5.5-1.3-13.7-8.2-20.9-17.4-9.1-11.6-8.8-20.1-7.6-26.1 2.1-10.9 12.5-24.4 16.4-29.3-2.1-6.9-8.3-28.5-7.4-45.1 1-19.8 11.9-41.3 12.4-42.3l7.3 3.7c-.1.1-10.6 20.9-11.5 38.9-1 18.2 7.6 44.1 7.6 44.4l.7 2.2-1.5 1.8c-3.9 4.5-14.3 18-16.1 27.3-.9 4.9-.9 10.6 6.1 19.5 7.3 9.4 14 14 16.4 14.6 4.6 1.2 7.7-.6 11.6-2.7l1.2-.7c.3-.1.4-.3.7-.4-6.6-3.9-12.4-11.3-15.8-18.2-2.2-4.5-4.3-10.7-1.8-14.7 3.4-5.4 12.8-21.2 12.8-21.3l1.2-2.1h16.5c-8.5-10.4-21-27.4-20.7-34.9.3-9.1 15.3-36.9 18.3-42.5l7.2 3.9c-6.6 12.1-17.1 33.2-17.3 38.9-.1 4.2 12.5 21.9 24.4 36.1l5.8 6.7h-29.5c-2.7 4.5-8.9 14.9-11.6 19.4-.1 1.3 1.2 6.4 5.5 12.5s9.5 10.1 13.1 10.6l1 .1c3.3 1.2 3.9 3.4 4 4.6.1 3.6-3 5.1-6.9 6.9-1 .4-2.2 1-3.3 1.5l-1.2.6c-3 2-6.8 4.1-12.2 4.1zm.1-41"/><path class="st3" d="M948 312.7s-10.3 21.9-6.9 39.8 27 39.8 27 39.8-2.1 17.9 0 28.3 8.3 33.5 24.6 37.2c16.1 3.6 29.1-14.9 29.1-14.9h-21.6s-11.2-14.6-9.5-25.3c1.6-10.7 21.9-25.3 21.9-25.3h19.4s-12.8-13.6-24.1-13.1c-11.5.3-23.2 10.4-23.2 10.4s-7.2-13.3-9.2-15.8c-2.1-2.5-10.4-27.6-8.3-36.8 2.1-9.2 13.3-24.1 13.3-24.1"/><path class="st2" d="M996.9 462.1c-1.6 0-3.4-.1-5.2-.6-18-4-25-27.1-27.7-40.4-1.8-8.9-.7-22.3-.3-27.6-5.4-5.4-23.5-24.1-26.7-40.5-3.6-18.9 6.7-41.3 7.2-42.3l7.4 3.4c-.1.1-9.7 21-6.6 37.2 3.1 16.2 25.5 37.2 25.8 37.5l1.5 1.3-.3 2.1c0 .1-1.9 17.3 0 27.1 1.8 9.2 7.4 30.8 21.5 34 7.4 1.6 14.3-2.7 18.9-6.7h-14.3l-1.2-1.6c-1.2-1.6-12.2-16.2-10.4-28.5 1.8-12.1 21.3-26.5 23.5-28l1-.7h9.5c-4-2.7-8.8-5.1-12.8-4.9-9.8.3-20.7 9.4-20.7 9.4l-3.9 3.3-2.4-4.5c-3-5.4-7.6-13.6-8.8-15-2.8-3.4-11.5-29.9-9.2-40.2 2.2-9.8 13.4-25 14-25.8l6.6 4.9c-3 4-11 15.9-12.5 22.6-1.6 7.3 5.7 30.4 7.6 33.4 1.5 1.8 4.9 7.7 7.3 12.1 4.8-3.3 13.3-8.2 21.9-8.3 12.8-.4 25.8 13 27.3 14.5l6.6 7h-27.6c-7.3 5.5-18.2 15.5-19.2 21.9-1 6.6 4.3 15.9 7.6 20.6h27.3l-4.5 6.4c-.7.7-12.1 16.9-28.2 16.9z"/><path class="st3" d="m1031.7 347.2 43.2 44.8s-1 2.5-5.1 11c-4 8.5-5.5 12.5-1.8 14.5 3.7 1.9 14.2-8.6 18.8-14.5 4.6-5.8 8.6-11 8.6-11h64.1s-22.3-14.9-38.1-15.8c-15.8-.7-31-1.6-31-1.6l-21.5-36.9"/><path class="st2" d="M1068.8 421.6c-.9 0-1.8-.1-2.7-.6-7.7-3.9-3.4-12.8 0-19.8 1.9-4 3.1-6.7 4-8.3l-41.3-42.9 6-5.7L1080 391l-1 2.5c0 .1-1.2 2.7-5.2 11.2-.7 1.6-2.8 6-3.4 8.2 3-1.6 8.9-7 13.4-12.5l10-12.5h50.7c-7.2-3.6-15.8-7.2-22.9-7.6l-33.2-1.6-22.6-38.9 7.2-4.2 20.4 35 28.8 1.5c16.7.9 39.2 15.8 40.2 16.4l11.3 7.6H1098l-7.4 9.4c-2.1 1.8-13.6 16.1-21.8 16.1z"/><path class="st2" d="m990.6 358.7-1.2-8.2c47.7-7 78.1-16.7 78.4-16.8l1.5-.4 1.3.6c.1 0 18 7.3 44.8 6.6l.1 8.2c-24.6.6-41.9-4.9-46.8-6.7-6.4 2.1-35.5 10.5-78.1 16.7z"/></svg>