<svg xmlns="http://www.w3.org/2000/svg" viewBox="0 0 1920 673" xml:space="preserve"><style>.st1{fill:#fff}.st2{fill:#221e1f}.st3{fill:#98cd70}</style><path fill="#d3312c" d="M0 0h1920v673H0z"/><ellipse transform="rotate(-53.843 1057.386 124.585)" class="st1" cx="1057.4" cy="124.6" rx="49.8" ry="34.9"/><path class="st2" d="M1044.1 171.6c-6.4 0-12.3-1.8-17.1-5.3-16.3-11.9-16-40.4.7-63.4 16.8-23 43.7-31.9 60.2-20 8 5.9 12.4 15.8 12.1 27.9-.2 11.9-4.8 24.4-12.8 35.5-8 11-18.7 19.2-29.9 23-4.6 1.5-9 2.3-13.2 2.3zm-13.4-66.5c-15.6 21.3-16.3 47.4-1.6 58.1 7 5.1 16.5 6 26.8 2.6 10.5-3.6 20.5-11.3 28.1-21.7 7.6-10.4 11.9-22.3 12.2-33.3.2-10.9-3.6-19.6-10.6-24.8-14.6-10.9-39.3-2.2-54.9 19.1z"/><path class="st3" d="M910.3 204.6s1.4 6.7 0 9.9-11.1 12.3-11.1 12.3l20.5 2.8s2.6-7 3.2-11.4c.6-4.5 0-9.9 0-9.9"/><path class="st2" d="m920.9 231.6-25.9-3.5 2.8-2.7c3.6-3.4 9.8-9.6 10.7-11.7.9-2 .4-6.4-.1-8.8l3.6-.7c.1.7 1.5 7.4-.1 11-1.1 2.4-5.6 7.2-8.8 10.3l15.2 2.1c.7-2.2 2.2-6.5 2.6-9.7.6-4.2 0-9.3 0-9.4l3.7-.4c0 .2.7 5.6 0 10.3-.7 4.7-3.2 11.5-3.3 11.8l-.4 1.4z"/><path class="st3" d="M1003.2 136.1c-12-3.2-41.8-29.4-84-32.3-42.2-2.9-65.8 50.9-72.4 72.4-6.6 21.5-9.5 38.9-6.6 66.6 2.9 27.7 19.4 56 29.2 66.4s22.5 23.4 40.8 23.4c24.4 0 33.1-18 35.2-26.7 2.8-14.9-11.4-43.4-30.6-44.5-19.2-1-24.8 11.1-24.8 19.4 0 8.3 9.7 17.3 17.1 17.8 7.4.5 15.5-4.5 14.7-11.6-.8-7-6.2-3.7-6.2-3.7s1.2 6.2-4.1 6.6c-5.3.4-10.3-4.1-9.5-9.1s6.2-9.5 15.3-8.3c9.1 1.2 19.4 19.8 17.8 29-1.7 9.1-5.4 23.2-25.2 19-25.7-5.4-57.1-52.1-55.8-86.1 1.2-34 26.5-52.1 26.5-52.1s20.7 29 60.8 27.3c40.2-1.7 68.3-10.7 68.3-10.7s10.3 4.3 25.7 2.9c22.3-4.5 43.1-21.9 43.1-21.9s-13.7-25.2-26.5-32.7-36.8-7.9-48.8-11.1z"/><path class="st2" d="M910.1 334.4c-19.6 0-33.1-14.4-42.1-24-10.3-10.9-26.8-39.9-29.6-67.5-3-28.5.2-46.2 6.7-67.4 2.4-7.9 25.2-77.1 74.3-73.7 30.3 2.1 54.1 15.9 69.8 24.9 6.3 3.6 11.3 6.5 14.5 7.4 4 1.1 9.5 1.9 15.3 2.7 11.6 1.7 24.8 3.6 33.5 8.6 13.1 7.6 26.7 32.3 27.3 33.4l.7 1.4-1.1.9c-.9.7-21.3 17.8-43.9 22.3h-.2c-13.6 1.2-23.4-1.8-25.9-2.8-4.5 1.4-31.5 9.1-68.1 10.7-35.2 1.5-56.1-20.5-61.2-26.5-5.2 4.4-23.3 21.5-24.3 49.6-1.2 32.4 28.8 78.8 54.3 84.2 6.4 1.4 11.5.7 15.1-1.7 5.1-3.4 6.8-9.9 7.9-15.9.8-4.6-2-12.8-6.6-19.2-3.2-4.4-6.7-7.2-9.6-7.6-7.8-1.1-12.6 2.6-13.2 6.8-.3 1.6.3 3.2 1.5 4.5 1.5 1.6 3.8 2.6 6 2.4.9-.1 1.6-.3 1.9-.9.8-1 .7-2.9.5-3.5l-.3-1.3 1.1-.7c.3-.2 3.2-1.8 5.8-.6 1.8.9 2.9 2.8 3.2 5.7.3 3.1-.7 6.1-3 8.6-3.2 3.4-8.6 5.4-13.6 5.1-8.2-.5-18.9-10.1-18.9-19.6 0-2.8.6-9.7 6.3-15.1 4.8-4.5 11.7-6.6 20.4-6.1 7.7.4 15.4 5.1 21.6 13 8 10.1 12.5 24.3 10.7 33.7-2.9 13.1-14.3 28.2-36.8 28.2zm5.8-228.9c-44.1 0-65 63.8-67.3 71.2-6.3 20.7-9.5 38-6.5 65.9 2.8 26.7 18.8 54.8 28.7 65.3 8.5 9 21.4 22.8 39.4 22.8 26.7 0 32.7-22.7 33.3-25.2 1.6-8.2-2.8-21.4-10-30.6-5.6-7.1-12.3-11.2-18.9-11.6-7.7-.4-13.6 1.3-17.7 5.1-4.7 4.5-5.2 10.2-5.2 12.4 0 7.3 9 15.6 15.4 15.9 4.1.2 8.2-1.4 10.7-3.9 1.1-1.1 2.3-3 2-5.5-.2-1.5-.6-2.5-1.1-2.8-.3-.1-.8-.1-1.2 0 .1 1.4-.1 3.4-1.4 5-.7.9-2.1 2.2-4.6 2.4-3.4.3-6.8-1.1-9-3.6-2-2.2-2.9-5-2.4-7.6 1-5.9 7.3-11.2 17.4-9.8 3.9.5 8.2 3.8 12.1 9 4.4 6 8.5 15.5 7.3 22.1-1.2 6.7-3.3 14.1-9.5 18.3-4.5 3-10.5 3.8-18 2.2-12.6-2.6-27.3-15.1-39.2-33.1-11.9-18.2-18.8-38.7-18.2-54.8 1.3-34.4 26.2-52.8 27.3-53.6l1.5-1.1 1.1 1.5c.2.3 20.6 28.1 59.2 26.5 39.4-1.6 67.5-10.6 67.8-10.7l.7-.2.6.3c.1.1 10.1 4.1 24.6 2.8 18.6-3.8 36.3-16.9 41-20.5-3-5.3-14.5-24.5-25.1-30.6-8.1-4.7-20.9-6.5-32.2-8.2-5.9-.9-11.5-1.7-15.8-2.8-3.7-1-8.9-4-15.4-7.8-15.5-8.9-38.8-22.4-68.3-24.4-1-.2-2.1-.3-3.1-.3z"/><ellipse transform="rotate(-9.119 996.868 115.705)" class="st1" cx="996.9" cy="115.7" rx="36.6" ry="51.8"/><path class="st2" d="M1000.9 169c-19.4 0-37.7-20.1-42.1-47.2-4.7-29.2 8.5-55.7 29.5-59.1 20.9-3.4 41.8 17.7 46.5 46.9 4.7 29.2-8.6 55.7-29.5 59.1-1.4.2-2.9.3-4.4.3zm-8.1-102.9c-1.3 0-2.6.1-3.9.3-18.9 3-30.8 27.6-26.4 54.8s23.3 46.8 42.2 43.7 30.8-27.6 26.4-54.8c-4-25.2-20.7-44-38.3-44z"/><circle class="st2" cx="986.3" cy="124.2" r="8.6"/><circle class="st2" cx="1078.1" cy="115.7" r="8.6"/><path d="M818.7 223.6h-24.8s-2.8 5.8-2.8 11.5 2.8 11.5 2.8 11.5h24.8v-23z" fill="#d07b84"/><path class="st2" d="M820.5 248.4h-27.8l-.5-1.1c-.1-.3-3-6.3-3-12.3 0-6.1 2.8-12 3-12.3l.5-1.1h27.9l-.1 26.8zm-25.5-3.7h21.7v-19.2H795c-.7 1.8-2.2 5.8-2.2 9.6.1 3.8 1.5 7.7 2.2 9.6z"/><path class="st1" d="M838.5 223.6h-24.8s-2.8 5.8-2.8 11.5 2.8 11.5 2.8 11.5h24.8v-23z"/><path class="st2" d="M840.3 248.4h-27.8l-.5-1.1c-.1-.3-3-6.3-3-12.3 0-6.1 2.8-12 3-12.3l.5-1.1h27.9l-.1 26.8zm-25.4-3.7h21.7v-19.2h-21.7c-.7 1.8-2.2 5.8-2.2 9.6s1.4 7.7 2.2 9.6z"/><path class="st1" d="M847.2 223.6h-24.8s-2.8 5.8-2.8 11.5 2.8 11.5 2.8 11.5h24.8v-23z"/><path class="st2" d="M849 248.4h-27.9l-.5-1.1c-.1-.3-3-6.3-3-12.3 0-6.1 2.8-12 3-12.3l.5-1.1H849v26.8zm-25.4-3.7h21.7v-19.2h-21.7c-.7 1.8-2.2 5.8-2.2 9.6s1.5 7.7 2.2 9.6z"/><path d="M1064 223.6H831.1s-2.8 5.8-2.8 11.5 2.8 11.5 2.8 11.5H1064l57.3-11.5-57.3-11.5z" fill="#dcc576"/><path class="st1" d="M1064 223.6s-3.4 4.1-3.4 11.5 3.4 11.5 3.4 11.5l57.3-11.5-57.3-11.5z"/><path class="st2" d="M1064.2 248.4H829.9l-.5-1.1c-.1-.3-3-6.3-3-12.3 0-6.1 2.8-12 3-12.3l.5-1.1 234.5.1 66.4 13.3-66.6 13.4zm-231.9-3.7h231.6l48-9.6-48.1-9.7H832.2c-.7 1.8-2.2 5.8-2.2 9.6.1 3.9 1.6 7.8 2.3 9.7z"/><path class="st2" d="M1093.4 229.5s-1.4 2.6-1.4 5.6c0 3 1.4 5.6 1.4 5.6l27.9-5.6-27.9-5.6z"/><path fill="none" d="M1060.6 235.1H828.3"/><path class="st2" d="M828.3 233.2h232.2v3.7H828.3z"/><path class="st1" d="M1064 223.6s-3.4 4.1-3.4 11.5 3.4 11.5 3.4 11.5"/><path class="st2" d="M1062.6 247.8c-.1-.2-3.9-4.7-3.9-12.7s3.8-12.5 3.9-12.7l2.8 2.4-1.4-1.2 1.4 1.2c0 .1-3 3.7-3 10.3 0 6.6 3 10.3 3 10.3l-2.8 2.4z"/><path class="st3" d="M1009.6 246.6c0 1.7 7.5 12.9 20.9 11.5 13.8-1.4 20.9-11.5 20.9-11.5h-13.6s-3.8 2.2-9 2.2-8.2-.7-9.8-2.2c-1.6-1.4-1.3-3.2-5.2-3.2-3-.1-4.2 1.5-4.2 3.2z"/><path class="st2" d="M1028.4 260.1c-7.6 0-13-3.8-15.7-6.1-2.4-2.2-4.9-5.5-4.9-7.4 0-2.5 1.8-5.1 6-5.1 3.5 0 4.7 1.3 5.7 2.8.3.3.5.7.7.9 1.3 1.1 4.1 1.7 8.5 1.7 4.7 0 8-1.9 8.1-1.9l.4-.3h17.7l-2 2.9c-.3.5-7.8 10.9-22.2 12.4-.9.1-1.6.1-2.3.1zm-16.9-13.7c.5 1.4 6.9 11 18.8 9.9 8.1-.8 13.8-4.9 16.9-7.8h-9c-1.2.6-4.9 2.2-9.5 2.2-5.6 0-9-.8-11-2.6-.6-.5-1-1.1-1.3-1.6-.6-.9-.8-1.1-2.6-1.1-.9-.2-2.3-.1-2.3 1z"/><path class="st3" d="M882.4 180.7s-4.9 9.7-5.4 18.4 3.6 20.8 3.6 20.8-6.6 7.6-7.7 13.2c-.5 2.8-.3 5.9 3.1 10.3 3.6 4.6 6.9 6.9 8.4 7.3 3.1.7 5.1-.6 7.2-1.7 2-1.1 4.7-1.9 3-2.5-5.3-.5-11.5-10.7-9.9-13.2 1.6-2.5 5.9-9.7 5.9-9.7H901s-11.6-13.7-11.5-17.6 8.1-18.4 8.1-18.4"/><path class="st2" d="M886.2 252.8c-.7 0-1.4-.1-2.2-.3-2.5-.6-6.2-3.7-9.5-7.9-4.1-5.3-4-9.1-3.4-11.8.9-4.9 5.7-11.1 7.4-13.3-.9-3.1-3.8-12.9-3.4-20.5.5-9 5.4-18.7 5.6-19.2l3.3 1.7c-.1.1-4.8 9.5-5.2 17.6-.5 8.2 3.4 20 3.4 20.1l.3 1-.7.8c-1.8 2-6.5 8.2-7.3 12.4-.4 2.2-.4 4.8 2.8 8.8 3.3 4.3 6.3 6.3 7.4 6.6 2.1.5 3.5-.3 5.3-1.2l.5-.3c.1-.1.2-.1.3-.2-3-1.8-5.6-5.1-7.2-8.2-1-2-2-4.9-.8-6.7 1.6-2.4 5.8-9.6 5.8-9.7l.5-.9h7.5c-3.8-4.7-9.5-12.4-9.4-15.8.1-4.1 7-16.7 8.3-19.2l3.2 1.8c-3 5.5-7.8 15.1-7.8 17.6-.1 1.9 5.7 9.9 11.1 16.3l2.6 3h-13.4c-1.2 2-4.1 6.8-5.3 8.8-.1.6.5 2.9 2.5 5.7 2 2.8 4.3 4.6 5.9 4.8l.5.1c1.5.5 1.8 1.6 1.8 2.1.1 1.6-1.4 2.3-3.1 3.1-.5.2-1 .5-1.5.7l-.5.3c-1.1.9-2.9 1.9-5.3 1.9zm0-18.6"/><path class="st3" d="M954.6 187.6s-4.7 9.9-3.1 18 12.2 18 12.2 18-.9 8.1 0 12.8c.9 4.7 3.8 15.2 11.1 16.9 7.3 1.6 13.2-6.8 13.2-6.8h-9.8s-5.1-6.6-4.3-11.5c.7-4.9 9.9-11.5 9.9-11.5h8.8s-5.8-6.1-10.9-5.9c-5.2.1-10.5 4.7-10.5 4.7s-3.2-6-4.2-7.2-4.7-12.5-3.8-16.7 6-10.9 6-10.9"/><path class="st2" d="M976.7 255.3c-.7 0-1.6-.1-2.4-.3-8.2-1.8-11.3-12.3-12.6-18.3-.8-4.1-.3-10.1-.1-12.5-2.4-2.4-10.7-10.9-12.1-18.4-1.6-8.6 3-18.7 3.2-19.2l3.4 1.6c-.1.1-4.4 9.5-3 16.9 1.4 7.4 11.5 16.9 11.7 17l.7.6-.1.9c0 .1-.9 7.8 0 12.3.8 4.2 3.4 14 9.7 15.4 3.4.7 6.5-1.2 8.6-3h-6.5l-.5-.7c-.5-.7-5.5-7.4-4.7-12.9.8-5.5 9.7-12 10.7-12.7l.5-.3h4.3c-1.8-1.2-4-2.3-5.8-2.2-4.5.1-9.4 4.3-9.4 4.3l-1.8 1.5-1.1-2c-1.4-2.4-3.4-6.1-4-6.8-1.3-1.6-5.2-13.6-4.2-18.2 1-4.5 6.1-11.3 6.3-11.7l3 2.2c-1.4 1.8-5 7.2-5.7 10.3-.7 3.3 2.6 13.8 3.4 15.1.7.8 2.2 3.5 3.3 5.5 2.2-1.5 6-3.7 9.9-3.8 5.8-.2 11.7 5.9 12.4 6.5l3 3.2h-12.5c-3.3 2.5-8.2 7-8.7 9.9-.5 3 2 7.2 3.4 9.3h12.4l-2 2.9c-.2.3-5.4 7.6-12.7 7.6z"/><path class="st3" d="m992.5 203.3 19.6 20.3s-.5 1.1-2.3 5c-1.8 3.8-2.5 5.7-.8 6.5 1.7.9 6.4-3.9 8.5-6.5 2.1-2.6 3.9-5 3.9-5h29s-10.1-6.8-17.3-7.2c-7.2-.3-14-.7-14-.7l-9.7-16.7"/><path class="st2" d="M1009.3 237c-.4 0-.8-.1-1.2-.3-3.5-1.8-1.6-5.8 0-9 .9-1.8 1.4-3 1.8-3.8l-18.7-19.4 2.7-2.6 20.5 21.2-.5 1.1c0 .1-.5 1.2-2.4 5.1-.3.7-1.3 2.7-1.6 3.7 1.4-.7 4.1-3.2 6.1-5.7l4.5-5.7h23c-3.2-1.6-7.2-3.2-10.4-3.4l-15.1-.7-10.3-17.6 3.2-1.9 9.2 15.9 13 .7c7.6.4 17.8 7.2 18.2 7.4l5.1 3.4h-34.3l-3.4 4.3c-.5.8-5.7 7.3-9.4 7.3z"/><path class="st2" d="m973.9 208.5-.5-3.7c21.6-3.2 35.4-7.6 35.5-7.6l.7-.2.6.3c.1 0 8.2 3.3 20.3 3l.1 3.7c-11.1.3-19-2.2-21.2-3-3.1.9-16.2 4.6-35.5 7.5z"/><path class="st1" d="M591.6 425.1h-65v176.2h-52.2V425.1h-63.8v-40.3h181v40.3zm156.2 84.3h-82.1v51.7h96.9v40.1h-149V384.8H763v40.3h-97.2v45.6h82.1v38.7zm116.9-52.6 35.4-72h59.6l-60.5 107.4 62.2 109.1h-60.2L864.7 528l-36.4 73.3h-60.1l62-109.1-60.4-107.4h59.5l35.4 72zm283.5-31.7h-65v176.2H1031V425.1h-63.8v-40.3h181v40.3zm158.4 90h-84.2v86.2h-52.2V384.8H1315v40.3h-92.6v49.8h84.2v40.2zm110.9-58.3 35.4-72h59.6L1452 492.2l62.2 109.1H1454l-36.4-73.3-36.4 73.3H1321l62-109.1-60.4-107.4h59.5l35.4 72z"/></svg>