<svg xmlns="http://www.w3.org/2000/svg" viewBox="0 0 1920 673" xml:space="preserve"><style>.st0{fill:#f0f0f0}.st1{fill:#ccc}.st2{fill:#b2b2b2}.st5{fill:#0074ae}.st6{fill:#ee3a24}.st7{fill:#ff8327}.st8{fill:#059dd2}.st9{fill:#2c9b47}</style><path class="st0" d="M0 0h1920v673H0z"/><path class="st1" d="M562.3 45.5c-5.9 0-10.5 4.8-10.5 10.5v468.9c0 5.9 4.8 10.5 10.5 10.5h795.4c5.9 0 10.5-4.8 10.5-10.5V56c0-5.9-4.8-10.5-10.5-10.5H562.3z"/><circle class="st2" cx="960" cy="61.2" r="10.5"/><path class="st1" d="M1377.6 537.7c-5.2-2.3-14.2-4.4-19.9-4.4H562.3c-5.9 0-14.7 1.9-19.9 4.4l-108.8 49.8c-5.2 2.5-9.4 9.2-9.4 14.9V617c0 5.9 4.8 10.5 10.5 10.5h1050.8c5.9 0 10.5-4.8 10.5-10.5v-14.7c0-5.9-4.2-12.3-9.4-14.9l-109-49.7z"/><path class="st2" d="M1303.5 559c-1.9-1.3-5.4-2.1-7.7-2.1H624.3c-2.3 0-5.9 1-7.7 2.1l-38.3 22.6c-1.9 1.3-1.7 2.1.6 2.1h762.5c2.3 0 2.5-1 .6-2.1l-38.5-22.6z"/><path d="M1332.6 487.2c0 5.9-4.8 10.5-10.5 10.5H597.9c-5.9 0-10.5-4.8-10.5-10.5V89.5c0-5.9 4.8-10.5 10.5-10.5h724.2c5.9 0 10.5 4.8 10.5 10.5v397.7z" fill="#fff"/><path d="m1199.7 79-507 418.6h279.9L1271.7 79h-72z" fill="#f4f4f4"/><path class="st0" d="M597.9 79c-5.7 0-10.5 4.6-10.5 10.5v397.7c0 5.7 4.6 10.5 10.5 10.5h94.8l507-418.6H597.9z"/><path class="st5" d="M864 163.4c0 2.8-2.3 5-5 5H709c-2.8 0-5-2.3-5-5v-6c0-2.8 2.3-5 5-5h150c2.8 0 5 2.3 5 5v6z"/><path class="st6" d="M752 195.4c0 2.8-2.3 5-5 5h-38c-2.8 0-5-2.3-5-5v-6c0-2.8 2.3-5 5-5h38c2.8 0 5 2.3 5 5v6z"/><path class="st7" d="M864 195.4c0 2.8-2.3 5-5 5h-86c-2.8 0-5-2.3-5-5v-6c0-2.8 2.3-5 5-5h86c2.8 0 5 2.3 5 5v6z"/><path class="st5" d="M928 163.4c0 2.8-2.3 5-5 5h-38c-2.8 0-5-2.3-5-5v-6c0-2.8 2.3-5 5-5h38c2.8 0 5 2.3 5 5v6zm0 32c0 2.8-2.3 5-5 5h-38c-2.8 0-5-2.3-5-5v-6c0-2.8 2.3-5 5-5h38c2.8 0 5 2.3 5 5v6zm128-32c0 2.8-2.3 5-5 5H949c-2.8 0-5-2.3-5-5v-6c0-2.8 2.3-5 5-5h102c2.8 0 5 2.3 5 5v6zm-96 32c0 2.8-2.3 5-5 5h-6c-2.8 0-5-2.3-5-5v-6c0-2.8 2.3-5 5-5h6c2.8 0 5 2.3 5 5v6z"/><path class="st8" d="M992 195.4c0 2.8-2.3 5-5 5h-6c-2.8 0-5-2.3-5-5v-6c0-2.8 2.3-5 5-5h6c2.8 0 5 2.3 5 5v6z"/><path class="st6" d="M1024 195.4c0 2.8-2.3 5-5 5h-6c-2.8 0-5-2.3-5-5v-6c0-2.8 2.3-5 5-5h6c2.8 0 5 2.3 5 5v6z"/><path class="st9" d="M1056 195.4c0 2.8-2.3 5-5 5h-6c-2.8 0-5-2.3-5-5v-6c0-2.8 2.3-5 5-5h6c2.8 0 5 2.3 5 5v6z"/><path class="st5" d="M1104 163.4c0 2.8-2.3 5-5 5h-22c-2.8 0-5-2.3-5-5v-6c0-2.8 2.3-5 5-5h22c2.8 0 5 2.3 5 5v6z"/><path class="st8" d="M1104 195.4c0 2.8-2.3 5-5 5h-22c-2.8 0-5-2.3-5-5v-6c0-2.8 2.3-5 5-5h22c2.8 0 5 2.3 5 5v6z"/><path class="st5" d="M1152 163.4c0 2.8-2.3 5-5 5h-22c-2.8 0-5-2.3-5-5v-6c0-2.8 2.3-5 5-5h22c2.8 0 5 2.3 5 5v6z"/><path class="st7" d="M1152 195.4c0 2.8-2.3 5-5 5h-22c-2.8 0-5-2.3-5-5v-6c0-2.8 2.3-5 5-5h22c2.8 0 5 2.3 5 5v6z"/><path class="st5" d="M1216 163.4c0 2.8-2.3 5-5 5h-38c-2.8 0-5-2.3-5-5v-6c0-2.8 2.3-5 5-5h38c2.8 0 5 2.3 5 5v6z"/><path class="st6" d="M1216 195.4c0 2.8-2.3 5-5 5h-38c-2.8 0-5-2.3-5-5v-6c0-2.8 2.3-5 5-5h38c2.8 0 5 2.3 5 5v6z"/><path class="st8" d="M832 227.4c0 2.8-2.3 5-5 5H709c-2.8 0-5-2.3-5-5v-6c0-2.8 2.3-5 5-5h118c2.8 0 5 2.3 5 5v6zm32 0c0 2.8-2.3 5-5 5h-6c-2.8 0-5-2.3-5-5v-6c0-2.8 2.3-5 5-5h6c2.8 0 5 2.3 5 5v6z"/><path class="st9" d="M928 227.4c0 2.8-2.3 5-5 5h-38c-2.8 0-5-2.3-5-5v-6c0-2.8 2.3-5 5-5h38c2.8 0 5 2.3 5 5v6z"/><path class="st6" d="M960 227.4c0 2.8-2.3 5-5 5h-6c-2.8 0-5-2.3-5-5v-6c0-2.8 2.3-5 5-5h6c2.8 0 5 2.3 5 5v6z"/><path class="st5" d="M992 227.4c0 2.8-2.3 5-5 5h-6c-2.8 0-5-2.3-5-5v-6c0-2.8 2.3-5 5-5h6c2.8 0 5 2.3 5 5v6zm32 0c0 2.8-2.3 5-5 5h-6c-2.8 0-5-2.3-5-5v-6c0-2.8 2.3-5 5-5h6c2.8 0 5 2.3 5 5v6z"/><path class="st6" d="M1056 227.4c0 2.8-2.3 5-5 5h-6c-2.8 0-5-2.3-5-5v-6c0-2.8 2.3-5 5-5h6c2.8 0 5 2.3 5 5v6z"/><path class="st5" d="M1104 227.4c0 2.8-2.3 5-5 5h-22c-2.8 0-5-2.3-5-5v-6c0-2.8 2.3-5 5-5h22c2.8 0 5 2.3 5 5v6z"/><path class="st8" d="M1152 227.4c0 2.8-2.3 5-5 5h-22c-2.8 0-5-2.3-5-5v-6c0-2.8 2.3-5 5-5h22c2.8 0 5 2.3 5 5v6z"/><path class="st9" d="M1216 227.4c0 2.8-2.3 5-5 5h-38c-2.8 0-5-2.3-5-5v-6c0-2.8 2.3-5 5-5h38c2.8 0 5 2.3 5 5v6z"/><path class="st6" d="M784 259.4c0 2.8-2.3 5-5 5h-70c-2.8 0-5-2.3-5-5v-6c0-2.8 2.3-5 5-5h70c2.8 0 5 2.3 5 5v6z"/><path class="st9" d="M864 259.4c0 2.8-2.3 5-5 5h-54c-2.8 0-5-2.3-5-5v-6c0-2.8 2.3-5 5-5h54c2.8 0 5 2.3 5 5v6z"/><path class="st5" d="M928 259.4c0 2.8-2.3 5-5 5h-38c-2.8 0-5-2.3-5-5v-6c0-2.8 2.3-5 5-5h38c2.8 0 5 2.3 5 5v6zm32 0c0 2.8-2.3 5-5 5h-6c-2.8 0-5-2.3-5-5v-6c0-2.8 2.3-5 5-5h6c2.8 0 5 2.3 5 5v6z"/><path class="st9" d="M992 259.4c0 2.8-2.3 5-5 5h-6c-2.8 0-5-2.3-5-5v-6c0-2.8 2.3-5 5-5h6c2.8 0 5 2.3 5 5v6z"/><path class="st5" d="M1024 259.4c0 2.8-2.3 5-5 5h-6c-2.8 0-5-2.3-5-5v-6c0-2.8 2.3-5 5-5h6c2.8 0 5 2.3 5 5v6z"/><path class="st9" d="M1056 259.4c0 2.8-2.3 5-5 5h-6c-2.8 0-5-2.3-5-5v-6c0-2.8 2.3-5 5-5h6c2.8 0 5 2.3 5 5v6zm48 0c0 2.8-2.3 5-5 5h-22c-2.8 0-5-2.3-5-5v-6c0-2.8 2.3-5 5-5h22c2.8 0 5 2.3 5 5v6zm48 0c0 2.8-2.3 5-5 5h-22c-2.8 0-5-2.3-5-5v-6c0-2.8 2.3-5 5-5h22c2.8 0 5 2.3 5 5v6z"/><path class="st5" d="M1216 259.4c0 2.8-2.3 5-5 5h-38c-2.8 0-5-2.3-5-5v-6c0-2.8 2.3-5 5-5h38c2.8 0 5 2.3 5 5v6z"/><path class="st7" d="M720 291.4c0 2.8-2.3 5-5 5h-6c-2.8 0-5-2.3-5-5v-6c0-2.8 2.3-5 5-5h6c2.8 0 5 2.3 5 5v6z"/><path class="st9" d="M864 291.4c0 2.8-2.3 5-5 5h-22c-2.8 0-5-2.3-5-5v-6c0-2.8 2.3-5 5-5h22c2.8 0 5 2.3 5 5v6zm64 0c0 2.8-2.3 5-5 5h-38c-2.8 0-5-2.3-5-5v-6c0-2.8 2.3-5 5-5h38c2.8 0 5 2.3 5 5v6z"/><path class="st7" d="M960 291.4c0 2.8-2.3 5-5 5h-6c-2.8 0-5-2.3-5-5v-6c0-2.8 2.3-5 5-5h6c2.8 0 5 2.3 5 5v6zm32 0c0 2.8-2.3 5-5 5h-6c-2.8 0-5-2.3-5-5v-6c0-2.8 2.3-5 5-5h6c2.8 0 5 2.3 5 5v6z"/><path class="st9" d="M1024 291.4c0 2.8-2.3 5-5 5h-6c-2.8 0-5-2.3-5-5v-6c0-2.8 2.3-5 5-5h6c2.8 0 5 2.3 5 5v6z"/><path class="st5" d="M1056 291.4c0 2.8-2.3 5-5 5h-6c-2.8 0-5-2.3-5-5v-6c0-2.8 2.3-5 5-5h6c2.8 0 5 2.3 5 5v6z"/><path class="st7" d="M1104 291.4c0 2.8-2.3 5-5 5h-22c-2.8 0-5-2.3-5-5v-6c0-2.8 2.3-5 5-5h22c2.8 0 5 2.3 5 5v6z"/><path class="st5" d="M1152 291.4c0 2.8-2.3 5-5 5h-22c-2.8 0-5-2.3-5-5v-6c0-2.8 2.3-5 5-5h22c2.8 0 5 2.3 5 5v6z"/><path class="st8" d="M1216 291.4c0 2.8-2.3 5-5 5h-38c-2.8 0-5-2.3-5-5v-6c0-2.8 2.3-5 5-5h38c2.8 0 5 2.3 5 5v6z"/><path class="st5" d="M736 323.4c0 2.8-2.3 5-5 5h-22c-2.8 0-5-2.3-5-5v-6c0-2.8 2.3-5 5-5h22c2.8 0 5 2.3 5 5v6z"/><path class="st6" d="M864 323.4c0 2.8-2.3 5-5 5H757c-2.8 0-5-2.3-5-5v-6c0-2.8 2.3-5 5-5h102c2.8 0 5 2.3 5 5v6z"/><path class="st5" d="M928 323.4c0 2.8-2.3 5-5 5h-38c-2.8 0-5-2.3-5-5v-6c0-2.8 2.3-5 5-5h38c2.8 0 5 2.3 5 5v6zm32 0c0 2.8-2.3 5-5 5h-6c-2.8 0-5-2.3-5-5v-6c0-2.8 2.3-5 5-5h6c2.8 0 5 2.3 5 5v6z"/><path class="st6" d="M992 323.4c0 2.8-2.3 5-5 5h-6c-2.8 0-5-2.3-5-5v-6c0-2.8 2.3-5 5-5h6c2.8 0 5 2.3 5 5v6z"/><path class="st7" d="M1024 323.4c0 2.8-2.3 5-5 5h-6c-2.8 0-5-2.3-5-5v-6c0-2.8 2.3-5 5-5h6c2.8 0 5 2.3 5 5v6z"/><path class="st5" d="M1056 323.4c0 2.8-2.3 5-5 5h-6c-2.8 0-5-2.3-5-5v-6c0-2.8 2.3-5 5-5h6c2.8 0 5 2.3 5 5v6zm48 0c0 2.8-2.3 5-5 5h-22c-2.8 0-5-2.3-5-5v-6c0-2.8 2.3-5 5-5h22c2.8 0 5 2.3 5 5v6zm48 0c0 2.8-2.3 5-5 5h-22c-2.8 0-5-2.3-5-5v-6c0-2.8 2.3-5 5-5h22c2.8 0 5 2.3 5 5v6zm64 0c0 2.8-2.3 5-5 5h-38c-2.8 0-5-2.3-5-5v-6c0-2.8 2.3-5 5-5h38c2.8 0 5 2.3 5 5v6z"/><path class="st9" d="M800 355.4c0 2.8-2.3 5-5 5h-86c-2.8 0-5-2.3-5-5v-6c0-2.8 2.3-5 5-5h86c2.8 0 5 2.3 5 5v6z"/><path class="st7" d="M864 355.4c0 2.8-2.3 5-5 5h-38c-2.8 0-5-2.3-5-5v-6c0-2.8 2.3-5 5-5h38c2.8 0 5 2.3 5 5v6z"/><path class="st9" d="M928 355.4c0 2.8-2.3 5-5 5h-38c-2.8 0-5-2.3-5-5v-6c0-2.8 2.3-5 5-5h38c2.8 0 5 2.3 5 5v6z"/><path class="st5" d="M960 355.4c0 2.8-2.3 5-5 5h-6c-2.8 0-5-2.3-5-5v-6c0-2.8 2.3-5 5-5h6c2.8 0 5 2.3 5 5v6zm32 0c0 2.8-2.3 5-5 5h-6c-2.8 0-5-2.3-5-5v-6c0-2.8 2.3-5 5-5h6c2.8 0 5 2.3 5 5v6zm32 0c0 2.8-2.3 5-5 5h-6c-2.8 0-5-2.3-5-5v-6c0-2.8 2.3-5 5-5h6c2.8 0 5 2.3 5 5v6z"/><path class="st6" d="M1056 355.4c0 2.8-2.3 5-5 5h-6c-2.8 0-5-2.3-5-5v-6c0-2.8 2.3-5 5-5h6c2.8 0 5 2.3 5 5v6z"/><path class="st8" d="M1104 355.4c0 2.8-2.3 5-5 5h-22c-2.8 0-5-2.3-5-5v-6c0-2.8 2.3-5 5-5h22c2.8 0 5 2.3 5 5v6z"/><path class="st9" d="M1152 355.4c0 2.8-2.3 5-5 5h-22c-2.8 0-5-2.3-5-5v-6c0-2.8 2.3-5 5-5h22c2.8 0 5 2.3 5 5v6z"/><path class="st8" d="M1216 355.4c0 2.8-2.3 5-5 5h-38c-2.8 0-5-2.3-5-5v-6c0-2.8 2.3-5 5-5h38c2.8 0 5 2.3 5 5v6z"/><path class="st7" d="M768 387.4c0 2.8-2.3 5-5 5h-54c-2.8 0-5-2.3-5-5v-6c0-2.8 2.3-5 5-5h54c2.8 0 5 2.3 5 5v6z"/><path class="st5" d="M864 387.4c0 2.8-2.3 5-5 5h-70c-2.8 0-5-2.3-5-5v-6c0-2.8 2.3-5 5-5h70c2.8 0 5 2.3 5 5v6zm64 0c0 2.8-2.3 5-5 5h-38c-2.8 0-5-2.3-5-5v-6c0-2.8 2.3-5 5-5h38c2.8 0 5 2.3 5 5v6zm32 0c0 2.8-2.3 5-5 5h-6c-2.8 0-5-2.3-5-5v-6c0-2.8 2.3-5 5-5h6c2.8 0 5 2.3 5 5v6zm32 0c0 2.8-2.3 5-5 5h-6c-2.8 0-5-2.3-5-5v-6c0-2.8 2.3-5 5-5h6c2.8 0 5 2.3 5 5v6z"/><path class="st8" d="M1024 387.4c0 2.8-2.3 5-5 5h-6c-2.8 0-5-2.3-5-5v-6c0-2.8 2.3-5 5-5h6c2.8 0 5 2.3 5 5v6z"/><path class="st5" d="M1056 387.4c0 2.8-2.3 5-5 5h-6c-2.8 0-5-2.3-5-5v-6c0-2.8 2.3-5 5-5h6c2.8 0 5 2.3 5 5v6z"/><path class="st8" d="M1104 387.4c0 2.8-2.3 5-5 5h-22c-2.8 0-5-2.3-5-5v-6c0-2.8 2.3-5 5-5h22c2.8 0 5 2.3 5 5v6z"/><path class="st7" d="M1152 387.4c0 2.8-2.3 5-5 5h-22c-2.8 0-5-2.3-5-5v-6c0-2.8 2.3-5 5-5h22c2.8 0 5 2.3 5 5v6z"/><path class="st9" d="M1216 387.4c0 2.8-2.3 5-5 5h-38c-2.8 0-5-2.3-5-5v-6c0-2.8 2.3-5 5-5h38c2.8 0 5 2.3 5 5v6z"/><path class="st5" d="M752 419.4c0 2.8-2.3 5-5 5h-38c-2.8 0-5-2.3-5-5v-6c0-2.8 2.3-5 5-5h38c2.8 0 5 2.3 5 5v6z"/><path class="st9" d="M864 419.4c0 2.8-2.3 5-5 5h-86c-2.8 0-5-2.3-5-5v-6c0-2.8 2.3-5 5-5h86c2.8 0 5 2.3 5 5v6zm64 0c0 2.8-2.3 5-5 5h-38c-2.8 0-5-2.3-5-5v-6c0-2.8 2.3-5 5-5h38c2.8 0 5 2.3 5 5v6z"/><path class="st5" d="M960 419.4c0 2.8-2.3 5-5 5h-6c-2.8 0-5-2.3-5-5v-6c0-2.8 2.3-5 5-5h6c2.8 0 5 2.3 5 5v6z"/><path class="st6" d="M992 419.4c0 2.8-2.3 5-5 5h-6c-2.8 0-5-2.3-5-5v-6c0-2.8 2.3-5 5-5h6c2.8 0 5 2.3 5 5v6z"/><path class="st5" d="M1024 419.4c0 2.8-2.3 5-5 5h-6c-2.8 0-5-2.3-5-5v-6c0-2.8 2.3-5 5-5h6c2.8 0 5 2.3 5 5v6z"/><path class="st7" d="M1056 419.4c0 2.8-2.3 5-5 5h-6c-2.8 0-5-2.3-5-5v-6c0-2.8 2.3-5 5-5h6c2.8 0 5 2.3 5 5v6z"/><path class="st5" d="M1104 419.4c0 2.8-2.3 5-5 5h-22c-2.8 0-5-2.3-5-5v-6c0-2.8 2.3-5 5-5h22c2.8 0 5 2.3 5 5v6z"/><path class="st6" d="M1152 419.4c0 2.8-2.3 5-5 5h-22c-2.8 0-5-2.3-5-5v-6c0-2.8 2.3-5 5-5h22c2.8 0 5 2.3 5 5v6z"/><path class="st8" d="M1216 419.4c0 2.8-2.3 5-5 5h-38c-2.8 0-5-2.3-5-5v-6c0-2.8 2.3-5 5-5h38c2.8 0 5 2.3 5 5v6z"/><path class="st5" d="M816 291.4c0 2.8-2.3 5-5 5h-70c-2.8 0-5-2.3-5-5v-6c0-2.8 2.3-5 5-5h70c2.8 0 5 2.3 5 5v6z"/></svg>