<svg xmlns="http://www.w3.org/2000/svg" viewBox="0 0 1920 673" xml:space="preserve"><style>.st1{fill:#fff}.st2{fill:#221e1f}.st3{fill:#98cd70}</style><path fill="#648d40" d="M0 0h1920v673H0z"/><ellipse transform="rotate(-53.843 1383.805 227.147)" class="st1" cx="1383.8" cy="227.1" rx="73.7" ry="51.7"/><path class="st2" d="M1364.1 296.8c-9.5 0-18.2-2.7-25.4-7.9-24.2-17.7-23.7-59.8 1.1-93.9 24.9-34 64.8-47.3 89.1-29.6 11.9 8.7 18.3 23.4 17.9 41.3-.3 17.6-7.1 36.2-19 52.6-11.9 16.3-27.7 28.5-44.3 34.1-6.7 2.2-13.2 3.4-19.4 3.4zm-19.8-98.6c-23.1 31.6-24.1 70.2-2.3 86.1 10.4 7.6 24.5 8.9 39.7 3.8 15.6-5.3 30.3-16.7 41.6-32.1s17.7-33 18-49.4c.3-16.1-5.3-29.1-15.7-36.7-21.7-16-58.2-3.2-81.3 28.3z"/><path class="st3" d="M1166 345.6s2.1 9.9 0 14.7c-2.1 4.8-16.5 18.2-16.5 18.2l30.3 4.1s3.8-10.3 4.7-16.9c.9-6.7 0-14.6 0-14.6"/><path class="st2" d="m1181.7 385.7-38.3-5.2 4.2-4c5.4-5.1 14.5-14.2 15.9-17.3 1.3-2.9.6-9.5-.2-13l5.4-1.1c.2 1.1 2.2 10.9-.2 16.3-1.6 3.6-8.3 10.6-13 15.2l22.5 3.1c1.1-3.3 3.2-9.7 3.9-14.3.9-6.2 0-13.8 0-13.9l5.5-.6c0 .3 1 8.3 0 15.3-1 6.9-4.7 17.1-4.9 17.5l-.8 2z"/><path class="st3" d="M1303.5 244.2c-17.8-4.8-61.9-43.5-124.4-47.8s-97.4 75.4-107.2 107.2c-9.8 31.8-14.1 57.6-9.8 98.7 4.3 41.1 28.8 83 43.2 98.4s33.4 34.6 60.4 34.6c36.2 0 49.1-26.7 52.1-39.5 4.1-22-16.9-64.3-45.4-65.9-28.5-1.5-36.8 16.5-36.8 28.8s14.4 25.7 25.4 26.4 23-6.7 21.8-17.2c-1.2-10.4-9.2-5.5-9.2-5.5s1.8 9.2-6.1 9.8c-7.9.6-15.3-6.1-14.1-13.5 1.2-7.4 9.2-14.1 22.7-12.3 13.5 1.8 28.8 29.4 26.4 42.9-2.5 13.5-8 34.3-37.4 28.2-38-8-84.6-77.2-82.7-127.5 1.8-50.3 39.2-77.2 39.2-77.2s30.6 42.9 90.1 40.4 101.1-15.9 101.1-15.9 15.3 6.3 38 4.3c33.1-6.7 63.9-32.5 63.9-32.5s-20.3-37.4-39.3-48.4c-19-11-54.1-11.7-71.9-16.5z"/><path class="st2" d="M1165.6 538c-29 0-49.1-21.4-62.4-35.5-15.2-16.2-39.7-59.1-43.9-100-4.4-42.2.3-68.5 9.9-99.8 3.6-11.7 37.3-114.2 110.1-109.2 44.9 3.1 80.1 23.5 103.4 36.9 9.3 5.4 16.7 9.6 21.5 10.9 5.9 1.6 14.1 2.8 22.7 4 17.2 2.5 36.7 5.3 49.6 12.8 19.4 11.3 39.5 47.9 40.4 49.5l1.1 2-1.7 1.4c-1.3 1.1-31.6 26.3-65.1 33.1h-.3c-20.1 1.8-34.6-2.7-38.3-4.1-6.6 2-46.6 13.5-100.9 15.8-52.2 2.2-83.1-30.3-90.6-39.3-7.7 6.5-34.5 31.9-36 73.4-1.8 48 42.7 116.7 80.5 124.7 9.5 2 17 1.1 22.4-2.5 7.5-5 10.1-14.7 11.7-23.5 1.2-6.8-3-19-9.8-28.5-4.7-6.5-9.9-10.6-14.2-11.2-11.5-1.6-18.6 3.8-19.6 10-.4 2.3.4 4.7 2.2 6.7 2.2 2.4 5.7 3.8 8.9 3.6 1.3-.1 2.3-.5 2.8-1.3 1.2-1.5 1-4.3.8-5.2l-.4-1.9 1.6-1c.5-.3 4.7-2.7 8.6-.9 2.7 1.3 4.3 4.1 4.8 8.4.5 4.6-1 9-4.4 12.7-4.7 5-12.7 8-20.2 7.6-12.2-.7-28-14.9-28-29.1 0-4.1.9-14.4 9.4-22.4 7.1-6.7 17.3-9.8 30.2-9.1 11.4.6 22.8 7.5 32 19.3 11.8 15 18.5 36 15.9 49.9-4.4 19.4-21.4 41.8-54.7 41.8zm8.6-339.1c-65.3 0-96.3 94.5-99.7 105.5-9.4 30.6-14 56.3-9.7 97.6 4.1 39.6 27.8 81.1 42.5 96.8 12.6 13.4 31.7 33.8 58.4 33.8 39.5 0 48.5-33.6 49.4-37.4 2.3-12.1-4.1-31.7-14.8-45.3-8.3-10.5-18.2-16.6-28-17.2-11.4-.6-20.2 1.9-26.2 7.6-7 6.6-7.7 15.1-7.7 18.4 0 10.8 13.4 23.1 22.8 23.6 6 .3 12.2-2 15.9-5.8 1.6-1.7 3.4-4.5 3-8.2-.3-2.2-.9-3.7-1.7-4.1-.5-.2-1.2-.2-1.8 0 .1 2-.2 5-2 7.4-1.1 1.4-3.1 3.2-6.8 3.5-5 .4-10-1.6-13.4-5.3-3-3.2-4.3-7.4-3.6-11.3 1.5-8.8 10.8-16.6 25.8-14.5 5.8.8 12.2 5.6 17.9 13.4 6.5 8.9 12.6 22.9 10.8 32.7-1.8 9.9-4.9 20.9-14.1 27.1-6.7 4.5-15.6 5.6-26.6 3.3-18.7-3.9-40.4-22.3-58-49.1-17.7-26.9-27.8-57.3-26.9-81.2 1.9-51 38.8-78.2 40.4-79.4l2.2-1.6 1.6 2.2c.3.4 30.5 41.6 87.7 39.3 58.3-2.4 100-15.7 100.4-15.8l1-.3.9.4c.1.1 15 6 36.5 4.1 27.5-5.7 53.7-25 60.7-30.4-4.5-7.8-21.5-36.3-37.2-45.3-12-7-31-9.7-47.7-12.1-8.8-1.3-17.1-2.5-23.4-4.2-5.5-1.5-13.2-5.9-22.8-11.5-22.9-13.2-57.5-33.2-101.1-36.2-1.6-.4-3.2-.5-4.7-.5z"/><ellipse transform="rotate(-9.119 1294.17 213.992)" class="st1" cx="1294.2" cy="214" rx="54.2" ry="76.7"/><path class="st2" d="M1300.2 292.9c-28.7 0-55.9-29.7-62.3-69.9-6.9-43.3 12.6-82.5 43.7-87.5 31-5 61.9 26.2 68.9 69.4 6.9 43.3-12.7 82.5-43.7 87.5-2.2.4-4.4.5-6.6.5zm-12-152.4c-1.9 0-3.8.2-5.8.5-28 4.5-45.6 40.9-39.1 81.2s34.5 69.3 62.5 64.8 45.6-40.9 39.1-81.2c-5.9-37.5-30.7-65.3-56.7-65.3z"/><circle class="st2" cx="1278.5" cy="226.6" r="12.7"/><circle class="st2" cx="1414.5" cy="214" r="12.7"/><path d="M1030.2 373.8h-36.8s-4.1 8.6-4.1 17 4.1 17 4.1 17h36.8v-34z" fill="#d07b84"/><path class="st2" d="M1032.9 410.5h-41.2l-.8-1.6c-.2-.4-4.4-9.3-4.4-18.2 0-9 4.2-17.8 4.4-18.2l.8-1.6h41.3l-.1 39.6zm-37.7-5.5h32.2v-28.5h-32.2c-1.1 2.7-3.2 8.6-3.2 14.2 0 5.7 2.1 11.6 3.2 14.3z"/><path class="st1" d="M1059.6 373.8h-36.8s-4.1 8.6-4.1 17 4.1 17 4.1 17h36.8v-34z"/><path class="st2" d="M1062.3 410.5h-41.2l-.8-1.6c-.2-.4-4.4-9.3-4.4-18.2 0-9 4.2-17.8 4.4-18.2l.8-1.6h41.3l-.1 39.6zm-37.7-5.5h32.2v-28.5h-32.2c-1.1 2.7-3.2 8.6-3.2 14.2 0 5.7 2.1 11.6 3.2 14.3z"/><path class="st1" d="M1072.5 373.8h-36.8s-4.1 8.6-4.1 17 4.1 17 4.1 17h36.8v-34z"/><path class="st2" d="M1075.2 410.5h-41.3l-.8-1.6c-.2-.4-4.4-9.3-4.4-18.2 0-9 4.2-17.8 4.4-18.2l.8-1.6h41.3v39.6zm-37.7-5.5h32.2v-28.5h-32.2c-1.1 2.7-3.2 8.6-3.2 14.2 0 5.7 2.1 11.6 3.2 14.3z"/><path d="M1393.6 373.8h-345s-4.1 8.6-4.1 17 4.1 17 4.1 17h345l84.9-17-84.9-17z" fill="#dcc576"/><path class="st1" d="M1393.6 373.8s-5.1 6-5.1 17 5.1 17 5.1 17l84.9-17-84.9-17z"/><path class="st2" d="M1393.9 410.5h-347l-.8-1.6c-.2-.4-4.4-9.3-4.4-18.2 0-9 4.2-17.8 4.4-18.2l.8-1.6 347.3.1 98.4 19.7-98.7 19.8zm-343.5-5.5h343l71.1-14.2-71.2-14.3h-343c-1.1 2.7-3.2 8.6-3.2 14.2.1 5.7 2.2 11.6 3.3 14.3z"/><path class="st2" d="M1437.1 382.5s-2.1 3.8-2.1 8.3 2.1 8.3 2.1 8.3l41.4-8.3-41.4-8.3z"/><path fill="none" d="M1388.5 390.8h-344.1"/><path class="st2" d="M1044.4 388h344v5.5h-344z"/><path class="st1" d="M1393.6 373.8s-5.1 6-5.1 17 5.1 17 5.1 17"/><path class="st2" d="M1391.5 409.6c-.2-.3-5.8-6.9-5.8-18.8s5.6-18.5 5.8-18.8l4.2 3.6-2.1-1.8 2.1 1.8c0 .1-4.5 5.5-4.5 15.2 0 9.8 4.4 15.2 4.5 15.2l-4.2 3.6z"/><path class="st3" d="M1313 407.8c0 2.5 11.1 19.1 30.9 17.1 20.4-2 30.9-17.1 30.9-17.1h-20.2s-5.7 3.2-13.3 3.2c-7.7 0-12.1-1.1-14.5-3.2s-1.9-4.7-7.7-4.7c-4.3-.1-6.1 2.2-6.1 4.7z"/><path class="st2" d="M1340.8 427.8c-11.3 0-19.3-5.6-23.2-9.1-3.6-3.2-7.3-8.1-7.3-10.9 0-3.7 2.7-7.5 8.9-7.5 5.2 0 6.9 1.9 8.5 4.1.4.5.7 1 1.1 1.4 1.9 1.7 6 2.5 12.6 2.5 6.9 0 11.9-2.8 12-2.8l.6-.4h26.2l-3 4.3c-.5.7-11.5 16.2-32.9 18.3-1.3.1-2.4.1-3.5.1zm-25-20.2c.8 2.1 10.2 16.3 27.9 14.6 12-1.2 20.5-7.3 25-11.6h-13.4c-1.8.9-7.2 3.2-14 3.2-8.3 0-13.3-1.2-16.3-3.9-.9-.8-1.5-1.6-1.9-2.3-.9-1.3-1.2-1.7-3.9-1.7-1.3-.1-3.3.1-3.4 1.7z"/><path class="st3" d="M1124.6 310.2s-7.3 14.4-8 27.2c-.7 12.9 5.3 30.8 5.3 30.8s-9.8 11.3-11.4 19.6c-.8 4.1-.5 8.7 4.6 15.3 5.3 6.8 10.2 10.2 12.5 10.8 4.6 1.1 7.6-.9 10.6-2.5s7-2.8 4.4-3.7c-7.8-.7-17-15.9-14.7-19.6 2.3-3.7 8.7-14.4 8.7-14.4h15.4s-17.2-20.3-17-26c.2-5.7 12-27.3 12-27.3"/><path class="st2" d="M1130.2 417c-1 0-2.1-.1-3.3-.4-3.7-.9-9.2-5.5-14-11.7-6.1-7.8-5.9-13.5-5.1-17.5 1.4-7.3 8.4-16.4 11-19.7-1.4-4.6-5.6-19.1-5-30.3.7-13.3 8-27.7 8.3-28.4l4.9 2.5c-.1.1-7.1 14-7.7 26.1-.7 12.2 5.1 29.6 5.1 29.8l.5 1.5-1 1.2c-2.6 3-9.6 12.1-10.8 18.3-.6 3.3-.6 7.1 4.1 13.1 4.9 6.3 9.4 9.4 11 9.8 3.1.8 5.2-.4 7.8-1.8l.8-.5c.2-.1.3-.2.5-.3-4.4-2.6-8.3-7.6-10.6-12.2-1.5-3-2.9-7.2-1.2-9.9 2.3-3.6 8.6-14.2 8.6-14.3l.8-1.4h11.1c-5.7-7-14.1-18.4-13.9-23.4.2-6.1 10.3-24.8 12.3-28.5l4.8 2.6c-4.4 8.1-11.5 22.3-11.6 26.1-.1 2.8 8.4 14.7 16.4 24.2l3.9 4.5h-19.8l-7.8 13c-.1.9.8 4.3 3.7 8.4 2.9 4.1 6.4 6.8 8.8 7.1l.7.1c2.2.8 2.6 2.3 2.7 3.1.1 2.4-2 3.4-4.6 4.6-.7.3-1.5.7-2.2 1l-.8.4c-2.2 1.5-4.8 2.9-8.4 2.9zm.1-27.5"/><path class="st3" d="M1231.5 320.5s-6.9 14.7-4.6 26.7c2.3 12 18.1 26.7 18.1 26.7s-1.4 12 0 19 5.6 22.5 16.5 25c10.8 2.4 19.5-10 19.5-10h-14.5s-7.5-9.8-6.4-17c1.1-7.2 14.7-17 14.7-17h13s-8.6-9.1-16.2-8.8c-7.7.2-15.6 7-15.6 7s-4.8-8.9-6.2-10.6-7-18.5-5.6-24.7c1.4-6.2 8.9-16.2 8.9-16.2"/><path class="st2" d="M1264.3 420.8c-1.1 0-2.3-.1-3.5-.4-12.1-2.7-16.8-18.2-18.6-27.1-1.2-6-.5-15-.2-18.5-3.6-3.6-15.8-16.2-17.9-27.2-2.4-12.7 4.5-27.7 4.8-28.4l5 2.3c-.1.1-6.5 14.1-4.4 25 2.1 10.9 17.1 25 17.3 25.2l1 .9-.2 1.4c0 .1-1.3 11.6 0 18.2 1.2 6.2 5 20.7 14.4 22.8 5 1.1 9.6-1.8 12.7-4.5h-9.6l-.8-1.1c-.8-1.1-8.2-10.9-7-19.1 1.2-8.1 14.3-17.8 15.8-18.8l.7-.5h6.4c-2.7-1.8-5.9-3.4-8.6-3.3-6.6.2-13.9 6.3-13.9 6.3l-2.6 2.2-1.6-3c-2-3.6-5.1-9.1-5.9-10.1-1.9-2.3-7.7-20.1-6.2-27 1.5-6.6 9-16.8 9.4-17.3l4.4 3.3c-2 2.7-7.4 10.7-8.4 15.2-1.1 4.9 3.8 20.4 5.1 22.4 1 1.2 3.3 5.2 4.9 8.1 3.2-2.2 8.9-5.5 14.7-5.6 8.6-.3 17.3 8.7 18.3 9.7l4.4 4.7h-18.5c-4.9 3.7-12.2 10.4-12.9 14.7-.7 4.4 2.9 10.7 5.1 13.8h18.3l-3 4.3c-.4.5-8.1 11.4-18.9 11.4z"/><path class="st3" d="m1287.7 343.7 29 30.1s-.7 1.7-3.4 7.4-3.7 8.4-1.2 9.7 9.5-5.8 12.6-9.7 5.8-7.4 5.8-7.4h43s-15-10-25.6-10.6c-10.6-.5-20.8-1.1-20.8-1.1l-14.4-24.8"/><path class="st2" d="M1312.6 393.6c-.6 0-1.2-.1-1.8-.4-5.2-2.6-2.3-8.6 0-13.3 1.3-2.7 2.1-4.5 2.7-5.6l-27.7-28.8 4-3.8 30.3 31.4-.7 1.7c0 .1-.8 1.8-3.5 7.5-.5 1.1-1.9 4-2.3 5.5 2-1.1 6-4.7 9-8.4l6.7-8.4h34c-4.8-2.4-10.6-4.8-15.4-5.1l-22.3-1.1-15.2-26.1 4.8-2.8 13.7 23.5 19.3 1c11.2.6 26.3 10.6 27 11l7.6 5.1H1332l-5 6.3c-1.2 1.2-8.9 10.8-14.4 10.8z"/><path class="st2" d="m1260.1 351.4-.8-5.5c32-4.7 52.4-11.2 52.6-11.3l1-.3.9.4c.1 0 12.1 4.9 30.1 4.4l.1 5.5c-16.5.4-28.1-3.3-31.4-4.5-4.4 1.5-23.9 7.1-52.5 11.3z"/><path d="M462.9 336v190.5c0 16.5 13.5 30 30 30h380c16.5 0 30-13.5 30-30V336h-440z" fill="#4f4f51"/><path d="M462.9 512v14.5c0 16.5 13.5 30 30 30h380c16.5 0 30-13.5 30-30V512h-440z"/><path d="M872.9 116.5h-380c-16.5 0-30 13.5-30 30V336h440V146.5c0-16.5-13.5-30-30-30z" fill="#7d7d7f"/><path d="M872.9 566.5h-380c-22.1 0-40-17.9-40-40v-380c0-22.1 17.9-40 40-40h380c22.1 0 40 17.9 40 40v380c0 22.1-17.9 40-40 40zm-380-440c-11 0-20 9-20 20v380c0 11 9 20 20 20h380c11 0 20-9 20-20v-380c0-11-9-20-20-20h-380z" fill="#e4e4e4"/><path d="M767.9 379.4c0 13-3.3 24.7-10 35s-16.4 18.5-29.3 24.3-28.1 8.8-45.7 8.8c-21.1 0-38.5-4-52.2-12-9.7-5.8-17.6-13.4-23.7-23.1-6.1-9.6-9.1-19-9.1-28 0-5.3 1.8-9.8 5.5-13.5 3.6-3.8 8.3-5.6 13.9-5.6 4.6 0 8.4 1.5 11.6 4.4 3.2 2.9 5.9 7.3 8.1 13 2.7 6.8 5.7 12.5 8.8 17.1 3.2 4.6 7.6 8.4 13.4 11.3 5.7 3 13.3 4.5 22.6 4.5 12.8 0 23.3-3 31.3-9s12-13.5 12-22.5c0-7.1-2.2-12.9-6.5-17.4-4.3-4.4-9.9-7.8-16.8-10.2-6.9-2.3-16-4.8-27.5-7.5-15.4-3.6-28.2-7.8-38.6-12.7-10.4-4.8-18.6-11.4-24.7-19.8-6.1-8.3-9.1-18.7-9.1-31.1 0-11.8 3.2-22.3 9.6-31.5 6.4-9.2 15.7-16.2 27.9-21.2 12.2-4.9 26.5-7.4 42.9-7.4 13.1 0 24.5 1.6 34.1 4.9 9.6 3.3 17.5 7.6 23.9 13 6.3 5.4 10.9 11.1 13.9 17.1 2.9 6 4.4 11.8 4.4 17.4 0 5.2-1.8 9.8-5.5 14-3.6 4.2-8.2 6.2-13.6 6.2-5 0-8.7-1.2-11.3-3.7-2.6-2.5-5.4-6.6-8.4-12.2-3.9-8.1-8.6-14.4-14-19-5.4-4.5-14.2-6.8-26.3-6.8-11.2 0-20.2 2.5-27.1 7.4-6.9 4.9-10.3 10.9-10.3 17.8 0 4.3 1.2 8 3.5 11.1 2.3 3.1 5.5 5.8 9.6 8.1 4.1 2.2 8.2 4 12.4 5.3 4.2 1.3 11.1 3.1 20.7 5.6 12.1 2.8 23 6 32.8 9.4 9.8 3.4 18.1 7.6 25 12.4 6.9 4.9 12.2 11.1 16.1 18.5 3.8 7.6 5.7 16.8 5.7 27.6z" fill="#f89832"/></svg>