<svg xmlns="http://www.w3.org/2000/svg" viewBox="0 0 1920 673" xml:space="preserve"><path d="M0 0h1920v673H0V0z" fill="#648d40"/><path d="M555.7 339.2h-82.9v85h-51.4V210.9H564v39.7h-91.3v49.1h82.9v39.5zm122.7 45.1H608l-12.3 39.8h-54.9L619 210.9h48.3l78.8 213.3h-55.2l-12.5-39.9zm-58.1-39.7h45.8l-23-74-22.8 74zm319.2-22.7c0 19.7-3.3 36.9-9.8 51.6-6.5 14.7-15.6 26.5-27.1 35.4l34.4 27.2-31.8 27-45.8-36.9c-4.3.6-8.6.9-12.9.9-18.2 0-34.3-4.2-48.3-12.6-14.1-8.4-25-20.4-32.9-36-7.9-15.6-11.9-33.6-12.2-53.9v-11.3c0-21 3.8-39.5 11.5-55.4 7.7-15.9 18.6-28.2 32.8-36.9 14.2-8.7 30.5-13 48.9-13 18.1 0 34.2 4.3 48.3 12.9 14.2 8.6 25.2 20.8 33 36.7 7.9 15.9 11.8 34.1 11.9 54.6v9.7zm-52.3-8.9c0-21.2-3.5-37.3-10.6-48.3s-17.2-16.5-30.4-16.5c-13.6 0-23.8 5.4-30.6 16.3-6.8 10.8-10.3 26.7-10.4 47.6v9.8c0 21 3.5 37.1 10.4 48.3 6.9 11.2 17.2 16.8 30.9 16.8 13.1 0 23.1-5.5 30.1-16.6 7-11 10.5-26.9 10.6-47.6V313z" fill="#fff"/><path d="M1017.5 336v190.5c0 16.5 13.5 30 30 30h380c16.5 0 30-13.5 30-30V336h-440z" fill="#4f4f51"/><path d="M1017.5 512v14.5c0 16.5 13.5 30 30 30h380c16.5 0 30-13.5 30-30V512h-440z"/><path d="M1427.5 116.5h-380c-16.5 0-30 13.5-30 30V336h440V146.5c0-16.5-13.5-30-30-30z" fill="#7d7d7f"/><path d="M1427.5 566.5h-380c-22.1 0-40-17.9-40-40v-380c0-22.1 17.9-40 40-40h380c22.1 0 40 17.9 40 40v380c0 22.1-17.9 40-40 40zm-380-440c-11 0-20 9-20 20v380c0 11 9 20 20 20h380c11 0 20-9 20-20v-380c0-11-9-20-20-20h-380z" fill="#e4e4e4"/><path d="M1322.5 379.4c0 13-3.3 24.7-10 35s-16.4 18.5-29.3 24.3-28.1 8.8-45.7 8.8c-21.1 0-38.5-4-52.2-12-9.7-5.8-17.6-13.4-23.7-23.1-6.1-9.6-9.1-19-9.1-28 0-5.3 1.8-9.8 5.5-13.5 3.6-3.8 8.3-5.6 13.9-5.6 4.6 0 8.4 1.5 11.6 4.4s5.9 7.3 8.1 13c2.7 6.8 5.7 12.5 8.8 17.1 3.2 4.6 7.6 8.4 13.4 11.3 5.7 3 13.3 4.5 22.6 4.5 12.8 0 23.3-3 31.3-9s12-13.5 12-22.5c0-7.1-2.2-12.9-6.5-17.4-4.3-4.4-9.9-7.8-16.8-10.2-6.9-2.3-16-4.8-27.5-7.5-15.4-3.6-28.2-7.8-38.6-12.7-10.4-4.8-18.6-11.4-24.7-19.8-6.1-8.3-9.1-18.7-9.1-31.1 0-11.8 3.2-22.3 9.6-31.5 6.4-9.2 15.7-16.2 27.9-21.2 12.2-4.9 26.5-7.4 42.9-7.4 13.1 0 24.5 1.6 34.1 4.9 9.6 3.3 17.5 7.6 23.9 13 6.3 5.4 10.9 11.1 13.9 17.1 2.9 6 4.4 11.8 4.4 17.4 0 5.2-1.8 9.8-5.5 14-3.6 4.2-8.2 6.2-13.6 6.2-5 0-8.7-1.2-11.3-3.7-2.6-2.5-5.4-6.6-8.4-12.2-3.9-8.1-8.6-14.4-14-19-5.4-4.5-14.2-6.8-26.3-6.8-11.2 0-20.2 2.5-27.1 7.4s-10.3 10.9-10.3 17.8c0 4.3 1.2 8 3.5 11.1s5.5 5.8 9.6 8.1c4.1 2.2 8.2 4 12.4 5.3 4.2 1.3 11.1 3.1 20.7 5.6 12.1 2.8 23 6 32.8 9.4s18.1 7.6 25 12.4c6.9 4.9 12.2 11.1 16.1 18.5 3.8 7.6 5.7 16.8 5.7 27.6z" fill="#f89832"/></svg>