<svg xmlns="http://www.w3.org/2000/svg" viewBox="0 0 1920 673" xml:space="preserve"><style>.st1{fill:#bbbdbf}.st2{fill:#2a374b}.st3{fill:#dbdddf}.st4{fill:#555f6f}.st6{fill:#e5b223}</style><path fill="#244d6a" d="M0 0h1920v673H0z"/><path class="st1" d="m1271.7 415.4-24.5 4.6-.2-1 24.5-4.6.2 1z"/><path class="st2" d="M1014.8 272.9c-11.8 15.4-17.6 30.7-13.1 34.2 0 0 22.3 9.9 39.9 15 17.6 5.1 29.9 6.2 29.9 6.2l11.5-15s-4.2-11.6-13.8-27.3c-9.6-15.6-24.9-34.6-24.9-34.6-4.4-3.5-17.7 6.1-29.5 21.5z"/><path class="st2" d="M1111.5 280.8c-.8.1-2.1-.3-2.9-.9l-2.3-1.7c-.8-.6-2.4-1-3.4-.9l-.4.1c-1 .1-2.3 1.1-2.8 2l-1.8 3.1c-.5.9-1.1 2.5-1.3 3.5l-.7 4.4c-.2 1-.8 2.6-1.4 3.4l-36.5 47.6c-.6.8-1.9 1.9-2.9 2.3l-4 1.9c-.9.4-2.4 1.4-3 2.2l-2.5 2.6c-.7.7-1.2 2.2-1.2 3.2l.1.4c.1 1 .8 2.4 1.7 3l2.2 1.7c.8.6 1.5 1.8 1.6 2.5s.8 1.9 1.6 2.5l3 2.3 62.9-82-3-2.3c-.9-.6-2.2-1-3-.9z"/><path class="st3" d="m1052.9 370.3 68.1-88.8 105.1 80.6-68.1 88.8-105.1-80.6z"/><ellipse transform="rotate(-52.517 1087.006 325.858)" class="st3" cx="1087" cy="325.8" rx="55.9" ry="12.6"/><path class="st2" d="M1182.3 399c-18.8 24.5-29.7 47.7-24.2 51.9l73.3 7.2 20.8-27.2-26-69c-5.5-4-25 12.5-43.9 37.1z"/><path class="st1" d="m1411.1 517.4-2.5 4.9-77.7-40.5 2.5-4.9 77.7 40.5z"/><path class="st3" d="m1318.8 582.5-37.9-9.9-3.7-7.4 43.6 2.2-2 15.1z"/><path class="st1" d="m1273.3 566.9 4.8-2.7 42.3 76.3-4.8 2.7-42.3-76.3z"/><path class="st1" d="m1320.8 632.9-15.6 20.4 2 1.5c.7.6 2.1.8 2.9.5l.8-.2c.9-.2 2.1-1.1 2.6-1.8l10.6-13.8c.6-.7 1-2.1 1-3v-.8c0-.9-.5-2.1-1.3-2.7l-2-1.5-1 1.4zm95.2-124.2-15.6 20.4 2 1.5c.7.6 2.1.8 2.9.5l.8-.2c.9-.2 2.1-1.1 2.6-1.8l10.6-13.8c.6-.7 1-2.1 1-3v-.8c0-.9-.5-2.1-1.3-2.7l-2-1.5-1 1.4zm-52.5 68.5-15.6 20.3 2 1.5c.7.6 2.1.8 2.9.5l.8-.2c.9-.2 2.1-1.1 2.6-1.8l10.6-13.8c.6-.7 1-2.1 1-3v-.8c0-.9-.5-2.1-1.3-2.7l-2-1.5-1 1.5zm103.9-135.5-15.6 20.4 2 1.5c.7.6 2.1.8 2.9.5l.8-.2c.9-.2 2.1-1.1 2.6-1.8l10.6-13.8c.6-.7 1-2.1 1-3v-.8c0-.9-.5-2.1-1.3-2.7l-2-1.5-1 1.4z"/><path class="st3" d="m1325.1 579-17.7 38.4-5.4-9.8 14.6-31.5 8.5 2.9zm51.2-140 22.7 43.7-19 4.5-11.8-48.5 8.1.3z"/><path class="st3" d="m1423.4 447.6-13.8 13.3-23.3 7.1 12.7 14.6 31.5-33.3-7.1-1.7z"/><path class="st1" d="m1461.3 450.2-1 5.8-92.8-16.2 1-5.8 92.8 16.2z"/><path class="st3" d="m1272.7 550.7 79.6-103.8 46.7 35.8-79.6 103.8-46.7-35.8z"/><path class="st1" d="m1293.2 521.1 4-3.7 62.7 68.4-4 3.7-62.7-68.4z"/><path class="st1" d="m1299.3 526.8.3-5.5 70.2 4.2-.3 5.5-70.2-4.2zm-12 1.7-14.6 22.2.8 16.2 5.2-1.5 5.3-6.1 4.7-25.5-1.4-5.3z"/><path class="st1" d="m1269.4 556.6 5.2-6.8-25-25.1-2.8 3.7 22.6 28.2z"/><path class="st1" d="m1295.7 427.3-15.1-11.6-9.5 5.2-6.6-4.4.8-4.1-1.6-2.5-6.1.2-1.2 6.2 3.2 3.6-5.6 10.2-1.8 1-21.9 28.5-11.3 1.6-1.3-5.2-5.9-3.3-4.1 10 1 1.9 6.7-.9 10.9 3.7-.3 5.7-10.1 14.8 3 5.3-2.8.8.4-2.1-5.9 1.4-.3 8.2 5.3-.8.3-3.4 5.3-.1.1.1 1.8 3.2 5.7 1.9 4.4-2.6 2.9-3.8.7.6-.1 4.8 4.9 6.1 1.2.9-7.3 4 .5 4-2.9 3.8 8.3 6.3 2.9-3.8 11.4-4.4 4 3.1 4.3 6.9 24.5 6.9 60.6-79-2.7-26.1-15.1-11.6-35.6 8.8z"/><path class="st1" d="m1357.4 454.3 7.6-8.4 5.8-11.5-4.1-1.6-10.6 7.5-10.3 8.8-1.6 8.4 13.2-3.2z"/><path class="st4" d="m1267.8 497.9 13.9-18.1 10.5 8.1-13.9 18.1-10.5-8.1z"/><circle transform="rotate(-52.517 1251.874 479.744)" class="st3" cx="1251.9" cy="479.7" r="4.8"/><circle class="st4" cx="1251.9" cy="479.7" r="2.8"/><circle class="st3" cx="1106.1" cy="411" r="4.8"/><path class="st1" d="m1320 422-4.5-3.5-5.1 6.7 9.8-1.9-.2-1.3z"/><path class="st1" d="m1308.1 418.9 6.4 2.5.6-.7-4.1-5.5-2.9 3.7z"/><path class="st2" d="m1119.8 409.6-4.8 4.7s.2 1.3 1 1.9c.8.6 2.1.4 2.1.4l3.3-5.9-1.6-1.1z"/><path class="st4" d="m1116.1 400.7-.6 5.5 10.2 7.8 5.1-2 2-5.6-11.7-9-5 3.3z"/><path class="st2" d="m1116.8 404.9-5.9-3.3s-.2-1.3.4-2.1c.6-.8 1.9-1 1.9-1l4.7 4.8-1.1 1.6zm9.8 7.5 4.7 4.8s1.3-.2 1.9-1c.6-.8.4-2.1.4-2.1l-5.9-3.3-1.1 1.6zm-7.5-8.2 7.6 5.8 5.9-3.8-11.3-8.6-2.2 6.6zm59.5-71.4 3.3-5.9s1.3-.2 2.1.4c.8.6 1 1.9 1 1.9l-4.8 4.7-1.6-1.1z"/><path class="st4" d="m1169.1 331.5 5.1-2 10.2 7.8-.6 5.5-4.9 3.4-11.7-9 1.9-5.7z"/><path class="st2" d="m1173.3 331.2-4.7-4.8s-1.3.2-1.9 1c-.6.8-.4 2.1-.4 2.1l5.9 3.3 1.1-1.6zm9.8 7.5 5.9 3.3s.2 1.3-.4 2.1c-.6.8-1.9 1-1.9 1l-4.7-4.8 1.1-1.6zm-9.8-5.3 7.6 5.8-2.2 6.7-11.3-8.6 5.9-3.9z"/><path class="st1" d="M1070.9 344.7c-9.6 16.1-13.5 29.1-9.2 32.4L1085 395c-4.3-3.3-.2-16.2 9.2-32.4l-23.3-17.9zm32.1-41.2 23.3 17.9c12.2-12.1 22.8-18.4 26.8-15.3l-23.3-17.9c-4.1-3.2-14.6 3.2-26.8 15.3zm50.9 104.8c-9.7 16-14.1 28.6-10.3 31.6l11.3 8.6c-3.8-3 .6-15.6 10.3-31.6l-11.3-8.6zm32.1-41.2 11.3 8.6c12-12.2 22.2-18.9 25.8-16.1l-11.3-8.6c-3.6-2.7-13.8 3.9-25.8 16.1z"/><ellipse transform="rotate(-52.517 1227.362 401.785)" class="st3" cx="1227.3" cy="401.8" rx="2.4" ry="3.3"/><path class="st3" d="M1281.7 481.2c.2-.3.4-.5.6-.7l-.1-.1a4.78 4.78 0 0 0-6.7.9l-8.1 10.5c-1.4 1.8-1.3 4.3.2 6l.2-.3c1.4-1.9 4.1-2.2 6-.8 1.9 1.4 2.2 4.1.8 6-.1.1-.2.2-.4.3l3.8 2.9c2.1 1.6 5.1 1.2 6.7-.9l8.1-10.6c1.6-2.1 1.2-5.1-.9-6.7l-.8-.6c-.1.3-.3.6-.5.8-1.9 2.5-5.5 2.9-8 1-2.3-1.6-2.7-5.2-.9-7.7z"/><path class="st1" d="m1227.5 516.1 6.5 2.3.5-.7-4.1-5.5-2.9 3.9zm18.9 14.4-4-5.7.5-.7 6.4 2.6-2.9 3.8z"/><path class="st2" d="m1368.9 521.8-19.6 25.6 13.6 18.2 27.1-35.4-21.1-8.4z"/><path class="st4" d="m1376.3 524.7-7.4-2.9-19.6 25.6 4.7 6.4 22.3-29.1z"/><path class="st1" d="m1232.7 524.9 2.9-3.8 3.8 2.9-2.9 3.8-3.8-2.9zm16.4.8 17.9 2.7m-18-2.2.2-1 17.9 2.8-.2 1-17.9-2.8zm62-102.7-13.1 21.1 21.7-4.9 8.1-20.3-16.7 4.1zm-28.6 16.4 2.3 1.7-.6 5.5 2.3 1.7h4.7l1.8-7-25.1-19.2-9.1 4.9 10.5 14.2 5.5.6 7.7-2.4zm68.6 63.2 11-14.3 9.8 7.5-11 14.3-9.8-7.5z"/><circle cx="682" cy="297.4" r="256" fill="#ffe082"/><path class="st6" d="m434 358.3 6.3 9.3c-.3 3.8 2.8 6.9 5.2 9.9 3.5 4.2 6.1 10 3.9 15 2.5-2.4 3.8-5.9 3.6-9.3 2.5 1.8 3.5 4.9 4.1 7.9.6 3 .9 6.1 2.6 8.6 2.4 3.7 10.4 1.5 9.6 4.3v.1l-.8 2.9c2.3.7 5.7-3.1 6.3-4.9s5 .3 6.2 1.5c1.2 1.1 4.9.1 5.9-.6.9-.7 1.7 2 1.7 2.8s.6 1.4.8 1.4c.2 0 .4-1 .4-2.3l-.2-1.1-.7-3.6c2.2-1.8 3.9-3.7 3.9-4.2 0-.6-.7-1.5-.9-1.1-.2.4-1-1-1.2-1.5-.2-.4-.6-.8-.7-.8-.1 0-.3 1.9-.4 2.6-.1.7-.6 1.3-.7 1.3-.2 0-1.2-3.2-1.6-4.4-.4-1.3 1.1-2.5 1.9-2.5.8-.1 1.5-5.3 1.5-7.1 0-2-1-4.3-1.4-6 3.5.7 4.9 3.8 5.9 7l2.7 8.7c.5 1.6 1 3.4.4 5-.7 1.6-3 2.4-4.1 1.1-1.7 1.1.1 3.8 2.1 4.2 2 .5 4.4.5 5.4 2.3 1.1 2.2-1.6 4.6-4.1 4.8-2.5.2-5.1-.7-7.5.1-2.3.8-3.9 2.9-4.8 5.1-1.4 3.3-1.9 7.1-1.3 10.7 1.9 10.8 12.4 17.8 17.5 27.5 1.1 2.1 2 4.4 4 5.6 2 1.3 5.3.5 5.6-1.8 7.2 4.2 13.9 9.1 20.2 14.5-1.9-1.7-1.5-8.9-.8-11 .7-2.5 5.1-5.9 5.1-7.9 0-.7-.4-1.4-.6-2.1-.5-1.5.1-3.4 1.3-4.4 2.2.5 2.4 4.7 4.5 4.2.6-.1 1-.7 1.6-.8 2.1-.6 4.2 3.4 5.6 1.8-2-3.8-4-7.5-6-11.3 1.9 1.1 4.4.6 6.3 1.7 2.3 1.2 3 4.2 3 6.7 0 1.4-.2 2.9-.5 4.2 2-.1 4.8.6 4.5 2.6-2.6-2.1-6.8-1.5-8.7 1.1-1.1 1.5-1.5 3.4-2.5 4.9-1 1.6-3.1 2.8-4.6 1.7.6 3.7 1.2 7.7 3.7 10.5 5.1 5.7 15 4.1 20.4 9.5-1.1-4.3-4.6-7.9-8.9-9.1 1.2-.2 2.4-.4 3.7-.6l-2.7-1.8c2.1-1.8 5.6-1.7 7.6.2-4.3 4.8 5.4 3.4 7.3 2.1 1.1-.7 1.6-4.5 2.8-5.2s-1.9-2.7-3.1-3.1c-1.2-.4-2.5.9-2.7 1.6-.2.7-1.5-.5-1.8-1-.3-.5-1.3-.3-1.4-.2-.2.1-2-.3-4-.9l-1.6-.5-1.8-.6c-1.9-.6-3.1-3.3-2.9-4.1.1-.7 1.2-1.1 1.7-.9.5.1 1-1.2 1-1.6s2.1.3 2.9.6c.8.4 2 .2 2.1.1.1-.1-.8-2.3-1.2-3.1-.4-.8 1.9-.4 2.8.2.9.6 4.4 2.5 5.5 2.9s2.2.5 2.3.4c.1-.1-1.1-1.3-1.6-1.8s1.1-6.9-.7-8.6c-1.8-1.6-5.9-8.1-7.9-8.8-2.1-.7-3.3-4.6-3.1-5.7s.7-2.2.9-2.3c.2-.1 4 6.4 5.7 8.7 1.7 2.3 3.6 5.6 4.1 6.1 5.1 5.1 10 10.6 15.8 14.8-1.1-3.1-2.3-6.2-3.4-9.2 1.6 1.5 2.6 3.5 4.1 5.1s3.9 2.7 5.8 1.7c1.3-.6 2-2 3.2-2.7.9-.6 2-.7 3.1-.9 5.2-.7 10.3-1.5 15.5-2.2 2.6-.4 6.3 0 6.6 2.6.9-2.5 3-5.6 5.5-4.6.6.2 1.1.7 1.7 1 1.7.7 3.6-.8 4.1-2.6 1-3.8-.2-10.9-.6-14.9-.1-.9-1-2-1.7-2.2s-1.5 2.3-1.5 3.2c0 .6-6.3-.7-5.6-4.8 1-6.2 2.4-12.3 4.2-18.4.9-3.2 2.1-6.6 4.9-8.5-3.6.6-7.4 1.2-10.6-.4-3.2-1.6-5.2-6.3-2.7-8.9 1.7-1.9 4.7-1.8 7.1-1.1 3.3 1 6.2 2.9 8.4 5.5 7.6-12-10.1-8.8-15.9-11.2 2.8-11.8-4.8-23.3-12-33.1-1.2-1.6-2.5-3.4-4.5-4s-4.6.4-4.7 2.5c-1.2-1.4-1.1-3.7.3-5-.9-1.3-2.5-2.1-4.1-1.9 1 3.3.4 7.1-1.7 10 2.7 1.6 4.8 4.3 5.6 7.4-1.7.9-3.4 1.8-5.2 2.6 3.6 5.1 7.4 10.4 8.2 16.6.8 6.2-2.3 13.4-8.3 15-.1-7-3.6-13.9-9.1-18.1-1.2-.9-2.6-1.8-3.2-3.2-.4-1-.4-2.2-.7-3.3-.6-1.9-2.3-3.2-3.7-4.5-4-3.8-6.4-9.3-6.6-14.8-4.3 1.3-7.1 6.1-6.3 10.5-3.3-6.2-2.8-14.2 1.3-19.9-.2 3.3 5 4.6 7.1 2.1 2.1-2.5 1.1-6.6-1.3-8.8 1.5.7 3.2 1 4.8.9-2.6-4.8-6-9.3-10-13-.9 3-1.7 5.9-2.6 8.9-1.5-3.4-6.6-4.5-9.4-2-1.9-3.9-2.6-8.4-2.1-12.7-2.2.3-4.2 2.2-4.4 4.5-4.4-4.8-2.4-11.7-5.7-15.9-.9-1.1-2.5-1.4-3.9-1.6-6.4-1.1-13.5-5.1-13.5-11.5l18.9-2.4c-3.6-4.8-9.9-7.5-15.8-6.9 3.9-1.1 7.8-2.2 11.7-3.2-5.1-1-9.4-5.3-10.4-10.4-1.1-5.1 1.2-10.7 5.5-13.7-3-2-5.1-5.2-6-8.7 6.3.1 12.5-2.3 17-6.7 1-1 2-2.1 3.4-2.6 6-2.3 9.5 8.5 15.8 9 2.2.1 4.2-1 6.3-1.6 3.8-1.2 8-.6 11.8-1.9 3.8-1.3 7.1-5.8 4.9-9.1 2.6 1.4 3.5 5.1 2 7.6l7.5-2.1c-.5 3.5 4.1 5.9 7.5 4.7 3.4-1.1 5.5-4.3 7.7-7.1s4.9-5.7 8.5-5.8c-2.9 2.2-3.7 8.1-.9 10.8 5.5 5.4 5.4-3.4 6.5-3.4 7.3-.3 11.4-3.3 16.1-7.9l.4-.4c1.2.4 3.3-2.9 3.7-4.2.4-1.3-.5-2.9-2-3.5l-.7-.7c-.2-.2.5-1.5.9-2.3l.4-.8c.5-.8 0-1.9-1.2-2.3l-1 .1-1.5.2c-1.6.5-6.3.3-7.6-.1-.5-.2-5.1-4.9-5.7-5.6-3.1-3.3-7.1-6.7-6.3-11.8.9-6 8-8.6 14-9.8-1.4-5.6 3.5-11.8 9.2-11.7 1.8 0 3.5.5 5.3.6 1.8 0 3.8-.6 4.6-2.2.8-1.6-.6-4-2.3-3.6-1.2 1-2.4 1.9-3.6 2.9.5-6 .9-12 1.4-18 .1-1.3.1-2.9-.8-3.8-.8-.8-2-.9-2.8-1.7-2.2-2-.1-6.8-2.9-7.9 3.8.8 7.8-1.2 10.5-4 2.5-2.6 4.1-6 5.6-9.3 0-.2.1-.5.3-.7-.1.2-.2.5-.3.7-.1 1.3 2.1 2.7 3.4 1.7 1.5-1.2 1.2-3.7.1-5.3-1.1-1.6-2.7-2.8-3.7-4.5-3.4-5.7-3.5-8.4-10.3-11.6-5.5-2.6-11.5-3.9-17.2-6-5.5-2.1-9.7-6.3-15.1-8.2-3.3-1.2-7.4-.7-9.6 2.1-.4.6-.8 1.3-1.5 1.5-.7.2-1.6-.5-1.3-1.1-1.4 2.5-10.6 5.6-13.3 7.7-3.5 2.7-6.6 7.3-10.1 9.1-.9-2.8-.7-5.8-1.4-8.7-.7-3.2-3.9-6.5-7-5.2-.4.2-.9.5-1.1.9-.7 1.2.1 2.8 1.3 3.4 1.2.6 2.7.6 4 .5-5.6 5.8-16.6 1.8-22.4 7.3-3.2 3-3.7 7.7-4.9 11.9-1.2 4.2-4.3 8.7-8.6 8.4-.1-6.9 1.3-13.7 4.2-20-1.8 1.6-4.9 1.4-6.4-.4-.3 2.3-1 4.5-2 6.6-.4.7-.8 1.5-1.6 1.8-1.4.5-2.6-.9-3.7-1.8-1.1-1-3.2-1.3-3.6.1-.6-1.8.1-3.9 1.7-5-1.4-1-2.9-2.2-3.4-3.9-.5-1.7.8-3.9 2.6-3.6l-1.8 2.1c6 .9 12.4-1.1 17-5.2 4.5-4.1 7.1-10.3 6.9-16.4 2-.2 3.6 1.8 3.7 3.7.2 2-.7 3.8-1.7 5.5 8.8-4.3 18.1-7.1 26.7-10.9 2-.9 3.8-2.7 3.9-4.9s-2.3-4.3-4.4-3.4c-.2-.7-.4-1.3-.6-2-3.9 0-7.7 0-11.5.5-3.2.4-6.1-.4-6.3-1.2-.2-.7-9.7 5-13.3 4.3-.6-.1-1.1-.2-1.7-.2C472.2 128.7 426 207.7 426 297.4c0 19.6 2.2 38.7 6.4 57.1.2.1.4.2.5.3 1.2.8 2.1 2.6 1.1 3.5zm109.1 40.3c.5.1 1 0 1.4-.3.9-.8.4-2.2 0-3.3-.4-1.1-.6-2.7.5-3.2.5-.2 1 0 1.5.1 2.4.5 12.2-5.1 11.9-.3 0 .6-.3 1.2-.4 1.8-.1.7.1 1.4.2 2.1.7 3.6.3 7.2-.1 10.9-.1.6-.2 1.3-.8 1.6-.4.2-.9 0-1.3.1-.9.1-1.4 1.1-2 1.7-.6.6-2 .7-2.1-.2-1.3.1-1.6 2-1.3 3.3.5 2.9 1.2 6 .1 8.6-1.1 2.7-5.2 4.3-7 2-1.3-1.6-.8-4-1.9-5.7-1-1.7-3.6-2.3-5.3-1.2.1 1.8.1 3.7 0 5.5 0 .8-.2 1.7-.8 2.2-1.2.8-2.6-.5-3.4-1.6.6 1.3.2 2.9-.9 3.8s-2.8.8-3.9-.1c-.4-2.4-1.5-4.6-3.1-6.4.5-.3 1.1-.3 1.6-.1-1-2.1-2-4.3-3-6.4 1.8.8 3.9.8 5.6-.1.6-.3 1.3-.8 2-.7 1.3.1 2 1.7 3.3 1.8.9 0 1.6-.8 1.8-1.6.2-.9-.1-1.8-.5-2.6 3-.2 6 .6 8.6 2-.3 1.2-.3 2.5 0 3.7 1.5-2 2.9-5 1.1-6.7-.5-.5-1.3-.8-1.8-1.4-.6-.8-.5-2-.4-3 .1-2.6-.5-5.2-1.7-7.5.5.4 1.3 1 2.1 1.2zM523 362.4c.2-1.6.7-3.1 1.5-4.5 1.2-2 3-3.9 2.8-6.2-.1-.6-.3-1.2-.3-1.9 0-.6.5-1.3 1.2-1.3-.1 1.8-.1 3.5-.2 5.3 0 .4 0 .8.2 1.1.3.3.8.4 1.2.4 1.2.2 2.4.8 3.1 1.8.7-1.9 1.4-3.8 2.9-5.1s4.1-1.6 5.4-.1c-1.2.2-2.1 1.4-2 2.6-.8.1-1.6.2-2.5.3-.6 1 1.2 1.7 1.6 2.7.1.4 0 .9-.1 1.4-.6 2.4-3.1 18.8-8.2 12.6-.9-1.1-1.4-2.6-2.3-3.8-1-1.1-2.9-1.6-3.8-.5-.5-1.4-.6-3.1-.5-4.8zm-38.1-77.2c.7-3.8 3.8-6.8 4.8-10.6.3-1.1.4-2.4.9-3.4 1.6-3.3 4.8-1.4 5 1.6 0 .8 1.8.7 2.5.3.7-.3.8 1.7.6 2.6 0 .2 6.3-1.4 4.9-5.3 1.8 4.8 3.7 9.7 3.4 14.8-.1 1-.2 2 .3 2.8.5.8 1.7 1.3 2.4.6.7 1.3.4 3-.6 4s-2.7 1.3-4 .7c-1.7 5.3-3.5 10.6-5.2 15.9-.4 1.2-.9 2.5-1.9 3.3s-2.8.6-3.3-.5c1.2-1.1 2.3-2.2 3.5-3.3-2.4-3.2-3.5-7.3-3-11.2-1.4.4-2.7-.8-3.7-1.8s-2.6-2-3.8-1.3c-1.4-2.5-2.9-5.1-2.8-8-.1-.5-.1-.8 0-1.2z"/><path class="st6" d="M656 133.4c.1-.2.2-.5.3-.7-.1.3-.2.5-.3.7zm135.3 93.7c-.1.2-.3.5-.4.7.2-.1.4-.3.4-.7zm6.7-64.8c-.2.2-.4.4-.7.6.3-.1.5-.3.7-.6zm-118.1 17.6c-.2 1.8.2 3.6.7 5.3 1-1.7.8-4-.7-5.3zm234.9 76.7c-.1-.1-.2-.2-.3-.2 0 .3 0 .6-.1 1 .1-.3.3-.5.4-.8zm-18.2 96.6c.1-.1.1-.2.2-.3-.2.1-.2.2-.2.3zm18.3-115.8c.1.2.1.4.2.6-.1-.2-.1-.4-.2-.6z"/><path class="st6" d="M928.2 260.8c1 2-1.2 5.4-2.5 3.6 1.3-1.6 1.7-3.8 1-5.7-4.7 0-9.4 2-12.6 5.4-2.2-2-3.2-5.2-2.8-8.1 1-.2 2.2 0 3.1.5.1-1.3.2-2.5.3-3.8-1.5 1.2-4.1-.5-3.7-2.3.2-3.8.5-7.5.7-11.3.7 1.4 3.2.4 3.2-1-.1-.2-.1-.4-.2-.6.1.2.2.4.2.6.7 2.7 1.5 5.4 2.2 8 2.3-7.6 1.6-16-2-23.1-.9-1.7-1.9-3.6-1.4-5.4.6-2.2 3.2-4.1 2.1-6.1.8 1.9 1.6 3.7 2.4 5.6.1-2.3.1-4.8-1.6-6.4-1.6-1.6-5.3-.5-4.8 1.7-.4-2-2.3-3.5-4.3-3.6 2.7-2.7 2.7-7.5 0-10.2.7 1.3-.8 3.1-2.2 2.7-.4-3.3-.4-6.7 0-10-1.4 1.1-2.9 2.2-4.3 3.3-1.1-1.7-2.2-3.4-3.2-5 .9 4.4.1 9.1-2.3 12.9-1.8-3.2-3.5-6.4-5.3-9.7 1 1.4 3.3.9 4.3-.6.9-1.4.9-3.2.7-4.9-3.2.2-6.4-.1-9.5-.9 1 1.3 1.9 2.6 2.9 4-2.4 1.9-6 2-8.6.4-1 2.9-1.2 6.1-.5 9.1-1.5-1.2-3.1-2.4-4.6-3.6 2.1 4.4-2.5 10.3-7.3 9.3-5.6 5.4-4.8 15.9 1.5 20.4-1.7.8-1.7 3.3-.7 5 1 1.6 2.6 2.8 3.5 4.5 1 2 .8 4.3.9 6.6.4 9.5 7.3 18.5 16.4 21.3 3 .9 6.9.8 8.3-2 .8 1.7.4 3.9-.8 5.3 3.3-2 5.9-5.1 7.4-8.7 3.5 4.5 3.9 11.2 1.2 16.2l4.5-.9c.6 1.7 1.1 3.4 1.7 5.1 1.6-2.8 2.2-6.2 1.8-9.4 2.4-.5 4.8-.9 7.2-1.4-5 3.1-6 10-5.5 16 .5 5.9 1.8 12.1-.4 17.6-2-2.9-2.5-6.7-1.4-10-6.1 2.6-12.6 4-19.2 4.2-13.1-8.6-25.2-18.6-36.1-29.9-2.1-2.2-5.8-4.6-7.9-2.3 1.1-1.8-.8-4.1-2.9-4.6-2.1-.5-4.2.1-6.3-.3-4.9-.9-7.1-6.4-8.6-11.1-1.8-5.8-2.9-13.5 2.3-16.5-5-1.7-9.9-3.4-14.9-5.1 1.6-3.1 2.4-8.3-1.1-9-2.4-.5-4.3 2.2-4.7 4.7s0 5.1-1.3 7.3l-4.5-2.4c-2.5 2.8-3 7.1-1.1 10.4-2.6 1.1-4.1 4.5-3 7.1-3-1.3-3.9-5.9-1.5-8.2-2.9.4-5.6 2.3-6.8 5-2.6-3.7-6.3-6.5-10.6-8.1 2.4-.6 4.5-2.1 5.9-4.1-.8.2-2.4-1.7-2.3-3.2.5-4.2.9-8.3 1.4-12.5-3.2 1.1-5.9-3.1-5.5-6.4.3-3.3 2.3-6.4 2.5-9.7.7-11.6-17.5-14.9-21.6-25.8 2.1-1.8 4.1-3.6 6.2-5.4-.8-1.6-1.6-3.1-2.4-4.7 1.7-2.8 5.1-4.5 8.3-4.1-.3 3.3 0 6.7.7 10 1.7-.8 3.5-1.6 5.2-2.4 1.6 2.4 3.3 4.9 4.9 7.3 3-2.7 6-5.4 9-8-1.1.3-2.8-1.1-2.4-2.5.5-1.7 2.5-2.5 4.3-3 2.1 2.2 5 3.8 8 4.3.7-1.3.7-3.1-.1-4.3-3.8.1-7.7-2.2-9.4-5.7-.9-1.9-1.3-4-2.1-5.9-2.9-6.8-12.3-9.7-18.5-5.7 2.3 1.1 3.3 4.4 2 6.6s-4.6 2.9-6.7 1.5c.4 2-.4 4.3-2 5.6-1.1-3.1-3.7-5.6-6.8-6.6 2.7-1.8 2.4-6.6-.5-8-2.1 1.8-4.6 3.1-7.3 3.9-1.5-4.4-4.7-8.3-8.7-10.6-1.6 1.5-3.5 2.7-5.6 3.3.4 1.4 1.6 2.5 3 2.9-1.6 1.4-3.3 2.9-4.9 4.3 2.7-.1 1.4 4.4 2 7 .6 2.5 3.4 3.5 5.7 4.5 2.3 1.1 4.7 3.5 3.6 5.7-5.2 5-14.9 3.9-18.9-2.1-5.3-3.3-11.4-5.5-17.6-5.1-6.2.4-12.4 3.7-15.3 9.2 2.5 8.5-6 15.8-13.5 20.6-1.6 1-3.1 2-4.7 3 .9 2.7 2.4 5.3 3.6 7.9 2.5 5.8 3.5 12.2 2.8 18.5-.7 1.4-2.3 2.2-3.8 2 1 .9 1.9 1.7 2.9 2.6-1.3-.7-3 .8-2.6 2.2-.8 5-1.5 10-2.3 15-1.9 1.2-12 5.8-6 8 1.9.7 4-.8 4.8-2.6 3.3 0 5.6 4.4 3.8 7.1-5.2 1.4-10.8 1.3-15.9-.2.1-2.9-1.3-5.9-3.7-7.6-2 1.2-.9 4.2.2 6.2s1.6 5.3-.7 5.9c-.4-.9-.7-1.8-1.1-2.7-8.1 1.4-13.3 11.6-9.7 18.9-2.7-3-5.6-6-9.3-7.5-3.7-1.5-8.6-1-10.9 2.3-4.9-8.2-16.7-11.4-25.1-6.8.9 2.6 1.7 5.1 2.6 7.7 3.4-1.7 8.1 1.1 8.2 4.9 0 1.4-.5 2.8-.9 4.1-.9 2.5-1.8 4.9-2.7 7.4-1.1 2.9-3.6 6.5-6.4 5.2 3.5 2 2.7 7.7-.5 10.2-3.2 2.4-7.5 2.5-11.6 2.5 1 1.5 2.1 2.9 3.1 4.4-4.7-1.6-9.4-3.5-13.9-5.6-2.4-.8-5.4.5-6.5 2.8-1.1 2.3-.2 5.4 2 6.8-1.8-.3-3.7-.6-5.5-.9-2.1 1-1.1 4.2.1 6.2 4.6 7.8 7.9 16.3 9.7 25.2 2.6-2 6.5-2.1 9.2-.3-1.6 1.4-2.2 3.9-1.3 5.9 2.5-5 10-6.5 14.2-2.8 1.4-3.4-1.7-7.9-5.4-7.7 1.7-.6 3.3-1.2 5-1.8 0 2.3 2.5 4.2 4.8 3.7s3.6-3.4 2.6-5.4c1.8-.1 3.6-.2 5.5-.3 2.5-3 5.1-6 7.6-9 .8 2.8 3.9 4.4 6.8 4.3 2.9-.1 5.5-1.5 8-3.1-.4-5.3-3.5-9.8-5.8-14.6-2.3-4.8-3.7-10.7-.8-15.1-1.4-.8-2.9-1.5-4.3-2.3 8.8-.9 15.4-9.4 24.2-10.5 8.4-1 15.9 5 22.2 10.7-1-1.9 2.3-2.8 4.3-2.4l20.1 4.5c.3-3 1.1-5.9 2.4-8.6 2.3 0 4.2.2 6-.8-.2-1.1-.7-1.9-1.4-2.8-.6-.9-.5-2.9-.2-3.6.3-.7 1.9-1.1 2.6-1.1.6.1 2.1-2.1 2.6-3.1.4-1 1.8 1.1 2.1 1.9.3.8 1.7-1 2.1-1.6.4-.7 2.5 1.7 3 2.6.6.9.2-3.3-2.1-4-2.2-.6-3.5-4.5-3.2-5.8.2-1.3 4-1.2 4.1-2.7 0-1.5.9-2.8 2-2.9l.9-.1.4-1.2c.4-1.4-1.4-7-2.3-8.7-.9-1.6-3.3-3.9-5.2-5.1l-2.2.9c-1.6.7-3.2 1.7-4.8 1.8-2.2.2-3.2 1.2-3.9 3.1v.1c-.4.1-1.4-.8-1.7-1.1s.7-1.3 2.1-2.1l1.2-.7 1.2-.6c1.4-.7 2.2-3.4 2-4.3-.1-.9.1-2 .3-2.1.1-.2 4.8 2.5 6.6 3.5 1.7 1 6.7 3.3 8.1 3.6 1.4.3 8.5.2 10.3 1.4s7.2 2.8 8.5 2.5 7.2-1.8 8.1-1.2c.9.6-.2 5.1-.8 6.5-.6 1.4-1.6 2.3-1.8 2.2-.2-.1.3-1 .6-1.4s-3.1-.9-4.3-1-2.2-.3-2.2-.4c0-.1 1.3-.4 1.9-.4.5-.1-2.6-2.9-3.6-1.9s-2 2.5-2 2.8c0 .2 2.3 1.1 3.2 1.4 4.9 1.3-3.1 4-5.1 3.8.9 3-1.5 6.6-4.6 7 1.9 8.2 3.9 16.4 5.8 24.6.5 2.2-.1 5.6-2.2 5.1 1.9.8 2.9 3.4 1.9 5.3 1.4.7 2.9 1.4 4.3 2.1-1.4 1.8-2.8 3.5-4.1 5.3.9 1.4 2 2.9 3.5 3.4 1.6.5 3.8-.6 3.5-2.3 5.7 2.7 4.5 13-1.7 14.4 10.6 2.2 21.1 4.4 31.7 6.6 0 3.2 1.1 6.4 3.2 8.8.3-1.5.6-3 .8-4.6 2.9 4 2.4 10-1.2 13.4-2.6.6-4.3 3.7-3.4 6.2 2.7.2 5.3-1.9 5.6-4.6 4 1.7 8-2.1 10.6-5.5 6.7-9 12.4-18.9 16.7-29.2.4-1.1 1-2.2 2-2.7 2.6-1.2 7.1 2 7.9-.8 2 .9 3.2 3.3 2.8 5.4 6.6 0 13.2.8 19.6 2.4 1.1-2.5 3.8-4.2 6.5-4.1-.5 5.3-2.2 10.4-4.9 14.9 5.1 3 8.7 8.5 9.3 14.4-1.5-2.1-4.6-2.8-6.8-1.6-2.3 1.2-3.4 4.1-2.6 6.5 3.7 0 6.6 4.4 5.1 7.8 6.4.2 12.6 3.5 16.3 8.7-3.5 2.9-8.9 3.4-12.9 1.1 2.7 3 5.5 6.1 8.2 9.1 1.1-4.2 7.2-4.2 11.1-2.2 3.9 1.9 8 5 12.1 3.6l-6 17.4c-1.7-.6-2.4-3.1-1.2-4.4-3.6 2.3-7.2 4.8-9.2 8.6-2.1 4.1-1.7 9.5 1.1 13.2 9.7.1 18.3-9.9 16.6-19.5 2.6.4 4.8 2.5 5.3 5.1 1.4.9 3.5-.2 4.2-1.8.7-1.6.5-3.4.6-5.1.1-5.4 2.6-10.5 5-15.4.4-.7.8-1.6 1.7-1.7.5-.1 1.1.4 1.1.9 3-6.8 1.7-15.3-3.3-20.8-.2-.3-.7-.4-1-.3-.1.1-.1.2-.2.3 0-.2 0-.2.2-.3 2.2-4.2 4.5-8.5 8.3-11.3 3.9-2.9 9.7-3.8 13.4-.8 1.4-2.7 2.8-5.5 4.2-8.2.4 1.4.8 2.7 1.2 4.1.1-2 2.2-3.6 4.1-3.2.3-5.4-1.2-10.8-4.2-15.3.3 3.1-2.2 6.2-5.3 6.5-.9-2.9-1.8-5.7-2.8-8.6.8 1.3 2.9.9 3.8-.2.9-1.2 1-2.8 1-4.3 1.8 1.5 3.5 3.1 5.3 4.6-.2-4.8.2-9.6 1-14.3 1.3 2.7 1.6 5.7 1 8.6 2.2.9 4.8.8 7-.1l.6-.3c-10.9-9.7-11.5-28.7-1.3-39.1 2.4 5.9 1.9 12.8-1.2 18.3-.5-2.4-.9-4.9-1.4-7.3-.3 3.9-.6 7.8-.8 11.8-.4-2.4-.8-4.7-1.3-7.1-.7 3.6-.7 7.3 0 10.9l2.4-3.3c2.2 5.1 4.1 10.4 5.5 15.8.1-2.6.2-5.2.3-7.9-.4-1.9-.8-3.7-1.3-5.6.5-.1 1-.3 1.4-.5 0-6.9-.4-13.8-.9-20.6-2.1-7.2-5.3-14.2-9.4-20.5-1.9.2-.4 3 .6 5zm-220.9-11.1c.7-.4 4.7 0 5.5 1.3s0 1.8-1.7 1.1l-1 .4c-1.2.5-2.2 2-2.8 3.3-.3.9 0 2.4.6 3.2l1.3 1.5c2 1.5.2 3.9-.7 4.1-.9.3-9.5-4.2-12.5-5.9-3-1.7-4.5-4.3-3.3-5.7 1.1-1.4 4.5-5 4.6-4.7l.5.3c1.1.8 2.2 1.6 3.4 2l1.2.4c1.7 0 4.2-.8 4.9-1.3z"/><path class="st6" d="m901 374.1-.3.6c.3-.1.4-.4.3-.6zM680.5 185.6c.1-.1.2-.1.3-.2 0-.1 0-.1-.1-.2-.1.1-.1.3-.2.4zm256.7 132.5c.1-1.9.3-3.7.4-5.6-1.8.4-3.7.8-5.5 1.2.5 2.4 2.7 4.1 5.1 4.4zm-214.1-61.2c0-.1 0-.1 0 0zM694.9 86.2c.1.4.3.9.4 1.4.5 1.2 1.5 2.2 2.1 3.3.1.2.2.4.1.5-.1.2-.2.3-.4.4-.6.4-1.2.8-1.7 1.2 1.7.5 3.3 1 5 1.5.6.2 1.1.4 1.5.8.4.4.5 1.2.1 1.6-.7.7-1.8-.3-2.8-.5-.9-.1-1.9.8-1.8 1.7.4 3.4 14-1.3 16.6-.9 2.3.4 4.6 1.6 6.7.8.6-.2 1.1-.6 1.8-.8 1.2-.3 2.4.2 3.6.6.2.1.5.1.7 0 .2-.2.2-.4.3-.7.2-.8 1-1.3 1.8-1.4 2.9-.5 3.3 2.8 1.2 2.9-1.4.1-2.8 1.6-3.2 3.4l2.4.6c.4.1.6 1.5.5 2.2l-.1 1.1c-.5 1.3 1 2.5 1.4 2.6.4.1 1.8-2.2 2.1-3 .3-.7.9-4.4 1-4.5.2-.1 5 3 6.7 4.1 1.7 1.2 3.3-.3 3.4-1.3.1-1 4.4-2.6 6.1-2.8 2.9-.5 7.3-3.1 3.6 1.9-.9 1.1-1.7 2.3-2.6 3.4-.2.3-.5.6-.6 1-.3 1.4 1.4 2.5 1.6 3.9.2.9-.4 1.9-.9 2.6-.2.2-.3.4-.6.5-.7.2-1.4-.9-2.1-.6-.5.2-.5 1-.2 1.4.4.4.9.5 1.5.6.9.2 1.9.3 2.8.5.8.1 1.6.3 2.2.7.9.5 1.4 1.5 1.4 2.5.9-.8 1.9-1.7 2.8-2.5.3-.2.5-.5.6-.8.2-.4.1-.8 0-1.2-.7-4.2 1.1-7.9 2.7-11.7l1.3-3.2c-1.7-.8-1-5.7-.2-7.3.8-1.6.8-4.1.6-4.7-.3-.5-1.8-1.4-3.4-2l-1.3-.7c-3.8-2.1-7.3-3.9-11.4-5.5-3.4-1.3-7.8-2.5-10.3.1-1.4-.4-1.8-2.7-3.2-2.7-.6 0-1.1.4-1.6.7-1.5.7-3.2-.2-4.7-.9s-3.4-1.2-4.6-.1c1.1.7 2.1 1.6 2.8 2.7-2.8 1.8-6.4-.8-9.7-1.1-2.2-.2-4.4.8-5.9 2.4-2.1 2.3-1.8 3-5.1 3.4l-1.5-.6c-1.2-.5-1.8-2.7-3-3.3l-3.2-1.5c-3.7-1.2-7-1.7-7.1-1.5-.4.7 2.2 4 2.6 4.6.6 1.3.8 2.7 1.2 4.2zm-32.2-2.3c1.4-2.6 1.7-6.1 1.1-9.1-.2-.9-.5-1.9-1.3-2.5-.6-.4-1.4-.5-2.1-.6-4.1-.5-8.5-1-12.2 1-1.8 1-4.1 2.4-5.6 1-.8-.8-1-2.2-2-2.5-.8-.2-1.7.3-2.4-.1-.5-.3-.6-1-.8-1.6-.6-1.8-2.7-2.6-4.6-2.5-1.9.1-3.5 1.2-5.1 2.1.8-1.5 1.5-3.1 2-4.7-.8-.4-1.9.1-2.5.8-.6.7-1 1.6-1.8 2.2-2.7 2.4-7.7-.6-10.5 1.7-.5.4-.9.9-1.4 1.2-.9.4-1.9-.1-2.9-.4-2.5-.8-5.4-.5-7.6.9-.9.6-1.8 1.3-2.9 1.3-1.2 0-2.1-1-3.3-1.2-2.2-.5-4.2 1.5-5.1 3.5-.9 2-1.4 4.4-3.1 5.9 1.1.1 1.4 1.7.8 2.7-.5 1-1.5 1.6-2.1 2.6-.4.6 1.3 6.1 2 6.4 1 .3 1 1 .7 1.3-.3.2 0 1.1.3 1.4.2.3 1-.8 1.2-1.2.2-.4 1.8-.7 2.2-.7.5 0 3.1-3.8 4.5-3.4 1.4.4 3.5-.5 3.7-.8.2-.3 4.6-1.7 6.1-2.1 1.6-.4 3-.1 3 .2.1.3-4.1 1.3-5.7 1.3-1.6 0-2.7 1.9-2.4 4.1l-2.5 1.1c-1.5.7-3.8 1.3-4 2.4-.6 2.4-3 3.4-5.3 3.9v2.5c4.5-.5 8.7-2.7 11.8-6 .6 1.4 1.9 2.4 3.4 2.6-.8-1.4-1.3-3-1.6-4.6-.1-.5-.1-1 .1-1.5.3-.5.8-.7 1.3-.9 3.6-1.2 7.6-.9 11.4-1.5 8.6-1.4 16.7-7.2 25.2-5.6 2.8.5 5.4 1.8 8.2 2.7 2.8.9 5.8 1.3 8.4 0 1.5-.7 2.6-1.9 3.4-3.3zM830.4 411c.3-4.7.4-9.4.1-14.2-.1-1.9-.7-4.2-2.6-4.5-2-.3-4 2.2-5.7 1.2-.9-.6-1.1-1.8-2-2.4-.6-.4-1.4-.3-2.2-.2.2-3.5 1.5-6.9 3.7-9.6.2 1.5.4 2.9.6 4.4.1.6.2 1.2.8 1.4.9.3 1.4-1.1 1.2-2-.3-2.2-.9-4.3-1.9-6.3-1-1.9-2.7-3.5-3-5.7 1.3.9 2.9 1.5 4.5 1.7-2.1-3.6-7.2-5-10.9-3-.9.5-1.9 1.2-2.9 1.1-.2 0-.4-.1-.7 0-.5.2-.5.9-.2 1.3s.8.7 1.1 1.1c1.2 1.2.6 3.3-.4 4.7-1 1.4-2.5 2.4-3.2 4-.9 1.9-.6 4.4-2.1 5.9-.3.3-.7.6-.8 1.1-.1.5.3 1 .6 1.3 1.5 1.6 3.1 3 4.9 4.2-1.5 1.5-3.1 2.9-4.6 4.4-.5.5-1 1-1.2 1.7-.2.9.5 1.9 1.3 2.3s1.8.5 2.8.6c-.3 1.3-1 2.5-1.8 3.4 2.2.2 4.5.4 6.3 1.6l1.8 1.2c1.8 1 4.2.8 5.9-.4.4-.3.7-.6 1.2-.7.7-.2 1.4.3 2 .6 2.2 1.2 4.9 1.6 7.3 1 .1-.5.1-.9.1-1.2z"/><path class="st6" d="M666.7 87c1.9-.1 4.5 3.8 4.2 4.9-.3 1.1-1.4 2-2.6 1.8l-.6.3-1 .5c-1 .9-1.2 2.6-.4 3.9l.9.3c1.6.5 4.5.9 5 .2l1.5-2.3c.7-3.1 1.4-6.6 1.7-7 .3-.4.9-.7 1-.7.2 0 1 2.3 1.2 3.2.3.9 2.1 1.6 2.5 1.5.4-.1-.1-2.4-.5-3.3-.3-.9-.2-1.9 0-2s2.3.7 3.1 1.1c.8.4 1.2-4 0-5.2-1.2-1.2-3.6 0-4.2 1-.6.9-3.4-.4-4.3-1.2-.9-.8-1.5-1.7-1.5-1.8 0-.1 1.6.2 2.1.3s1.7-1.7 2-2.4c.3-.6-5-2.9-7.3-3.6-2.2-.7-3.8 2.2-3.8 3.3.1 1.2-.9 2.1-1.4 2.1-.4 0-.7 0-.7-.1.2.1 1.2 5.4 3.1 5.2zm147.5 19.1c3.3 1.2 6.6 2.3 9.9 3.4l.6.2c.5.5 4.5 3.5 5.9 4.4 1.4 1 .7 2.5 0 1.9s-2.7-1.3-4.4-1.5l-1.2-.8-1.3-.9c-1.1-1.6-3.4-2.2-4-2-.6.3 1.2 3.4 2 4.5s1.8 1.4 1.9 1.1c.1-.2 1 0 1.9.5l.9.1 3.2.3c3.5.2 6.4.4 6.3.4l1.8-5.6c-3.8-2.5-8.1-5.3-9.6-6.2l-1.5-.5-1.3-.5c-1.7-.2-6.1-4.7-8.5-5.5-2.4-.7-4.4.5-4.3 2.7l.3 2c.1.8.7 1.8 1.4 2zm96.7 269.6c-.7.1.3-2.5.8-3.5s.5-2 .3-2.1-2.1 2.7-2.8 3.8c-.7 1.1-3.5-2.1-2.4-3.6.1-.1.1-.2.2-.3-1.1 1.4-2.9 3.7-2.9 5.6 0 2-1.7 4.9-2.3 5.4-.7.5-1.7-.7-1.9-1.2s-1.3.1-2.6 1.4c-1.3 1.3 1.3 5.5 1.2 5.9l-.1.4c-.7 2.1.3 3.5 2.1 3.9l1.2.2c1.5-.8 4.7-3.4 5.3-4.4s1.2-1.6 1.3-1.5c.1 0-.7 2.8-1 3.9-.3 1-1.5 1.8-2 1.7-.5-.1.8 1.5 1.3 1.9s2-2.3 2.4-3.4c.4-1.1.9-.4 1 0 .1.5 1.8.6 2.5.5.6-.1-1.5-3.9-1.1-5 .4-1.1.1-3-.6-4.2l-.1-.9c-.1-.8.2-1.8.7-2.4l.6-.7c1-.5 1.5-1.3 1.4-1.5-.2-.2-1.8 0-2.5.1zm-255.6-51.3c.2 0-.3-4.4-.6-6.2-.3-1.8-2-.3-2.3.3-.3.7-2.4.8-2.9.6-.5-.1-1.2-4.6-1.3-6.3-.1-1.8-.3-3.2-.6-3.3-.2 0-.8.6-.9 1.5l-.1.8-.2 1.6c-.3 1.7-1.6 5.3-2.9 7.8l-.7 2.4c-.3.9.6 2.3 1.2 3.3l.7 1c1 .9 1.6 1.9 1.5 2-.1.1-1.8-.6-2.4-.9s-.7 1.4-.4 1.9c.4.5 3.8.7 4.3 1.7s5.2-.2 6.7-.9c1.6-.7 3.3-4.7 2.1-5.6-1-.8-1.4-1.7-1.2-1.7zm.3-114 1.5 1.1.9.7c1.3.3 2.2-.4 2-1.5l-.4-.9c-.2-.5-1.3-.6-1.4-1l-.6-1.6c0-1.9 1.7-.4 2.3.8.6 1.1 1.8 1.7 2.5 1.2s2.4-.4 2.3 0c0 .3 6.5.8 7.3-1.3s.6-5.8.3-6.5c-.3-.6-2.6-.2-3.3-.5s-2-.9-2.9-1.3l-.8-.2-3-.7c-3.6-.8-5.6.1-5.1.8s-1.5 4.2-2.6 5.5c-1.1 1.2-.7 3.7 1 5.4zM523.2 475.1c-.2-.1-4.6.3-5.7-.8-1.1-1.1-2.3-2.1-2.5-2.3h-.2c-1.7.4-3.1.3-3.4-2l-.1-.9c-.7-.9-1.6-1.3-1.7-1.2-.1.1-.1 2.7 0 3.7 0 1 1.6 2.3 2.5 2.5.8.2-1 .4-1.8.4s-1 .4-.6.9 6.2 3 7.6 4.3 5.3 4.6 6.3 5.2 3.8.1 4.4-.2c.6-.3-3.1-4.1-3.5-6-.4-1.7-1.1-3.5-1.3-3.6zm360.5-313.4c-.7.1-1.3-.3-1.3-.9v-.8c0-.7.3-1.7 0-2.1l-1.4-1.6c-1.8-1.7-4.3-2.7-4.8-2.5-.5.2.8 1.9 1.5 2.5.7.6-3.2 1.6-2.9 2.8.3 1.2-.6 2.6-1 2.8-.4.2-.4 1.2.1 2.3s4.4 6.4 5.7 5.8 0-2-.8-2.3c-.9-.4-1.6-2.5-1.6-3.3s4.5.9 6.3 1.8 2.9-1.7 2.7-2.7c-.1-1.3-1.8-1.9-2.5-1.8zM636.5 97.4c-2.7-.1-5.6-.1-8 .9-1.3.6-2.5 3.4-2.3 5l.3 1.8c2.6.9 6.7 1 9.1.2l1.8-1.3c1.1-.8 1.9-2.6 1.8-3.9 0-1-1.6-2.7-2.7-2.7zm244.4 51c-.1 0-.1 0 0 0-.1 0-.1 0 0 0zM868 137.6c2.3 1 2.6 2.1 1.2 4 .5.1 1 .3 1.5.4l5.6 1.1c-.7 3.1-1.3 5.8-1.2 5.8s1.8-.1 3.9-.3l1.8-.2-2.1-1.6c.3-2.5-.5-6.1-1.8-8.1l-1.3-1.8s-5.3.1-6.4-1.6c-1.1-1.7-2-1.4-2-.8 0 .6-.5 1.1-.6 1.1-.2 0-.6-.8-.7-1l-.2-.6c-1.3 2.5 1 3 2.3 3.6zm56 240.8c-.1-.1.3-2.5.5-3.4s-.1-1.8-.2-1.8c-.2 0-2.1 4.8-2.7 6.7-.7 1.9-2.2 2.7-2.5 2.5-.4-.2-1.3.3-2.1 1.2v.7c.1 2.1.6 4.3 1.1 6.4l.1.3c.7 0 1.4.6 1.8 1.1 1.9-4.8 3.6-9.6 5.3-14.5-.6.6-1.2.9-1.3.8zm-76.7-259.2c.1-.2 1.2-.1 2.4.2l.6.7 2 2.2c1.8-1.3 3.6-2.4 3.9-2.4s.9.9 1.1 1.4.5.7.7.4c.2-.2-.3-2.2-.7-2.7s-5.6-.4-6.7-1.8c-1-1.5.6-3.7 1.3-4s-2.9-2.1-4.1-2.6c-1.3-.5-2.8 1.6-2.9 2.4-.1.8.6 4.1 1.2 5.1.5.8 1.1 1.2 1.2 1.1zm28.7 16c-.2 1-.4 1.7-.4 1.7s2.8 1.2 3.8 1.7c1.1.5 1.9.9 1.9.9l.7-.1c.4-.1.7-.3 1-.6-1.1-1.4-2.1-2.7-3.2-4-.5-.5-1-1.1-1.4-1.4-.9-.9-2.2.9-2.4 1.8zM610.2 456.5c-.2-.3-3.5-1.2-4.8-1.4-1.3-.2-1.1 1.4-.8 1.8s-2 1.5-2.7 1.7c-.7.2-.7 1.1.2 1.9s3.3 1.9 3.3 1.7c.1-.2 2.1 1 2.8 1.5.7.5 2.8-1.3 3.4-2.2.5-.9 1.6-1.3 1.8-1.2.2.1-1.3-.9-2-1.3s-1-2.2-1.2-2.5zM934 334.4c-.2-.5.8-7.4 0-9.5s-1.4-4.4-1.4-5.1v-1.6c-.1-.7-2.3-1-2.8-.9-.6.1-1.2-2-1.3-2.7s-.2 2.7.5 3.4c.7.7 1.9 2.6 2.7 4.4l.1 1.7.2 3.6c-.1 4 .1 7.3.2 7.3s.4-4.5.5-6.2c.1-1.7.5-3.1.6-3.1.1 0 .2 5.3.2 7.3 0 1.9 1.1 3.6 1.6 3.7.1-.9.3-1.9.4-2.8-.2.2-.4.5-.5.7-.3.3-.7.3-1-.2zm-208.3-74c.7.9 4.3.7 5.6.3 1.3-.4 1.1-3 .4-3.8-.8-.8-4.9-1-6.2-.7-1.3.3-2.4.6-2.4.6s2 2.7 2.6 3.6zm76.4-172.6c1.7 1 3.1-1.5 2.7-2.4-.4-1-2.9-6.2-4.6-5.4s-2.1 2.7-1.7 3.2c.4.5-.6.7-1 .6-.5-.1-.9 0-1 .1-.1.1 3.9 2.9 5.6 3.9zm37.5 29.5c-2.1.3-3.7.5-3.7.5s.6 1.4 1.3 3.2l1.4.8 1.4.8c1.8.4 3.1 1 3 1.3-.1.3.3.8.5.8.2.1.8-1.9.9-2.6.1-.7-.7-2.5-1.8-4l-1.4-.4-1.6-.4zm16.7 11.1 3.3 1.5 1.5.7c1.3 1.1.4 5.2-.2 6.2-.6 1 1.1 2.5 1.8 2.7.7.2-.2-4.2.9-4.7s2-.8 2-.8-.1 0-.2-.1v-.1c0-4.1-.3-4.4-3.7-4.7-.6-.1-1.4-.3-1.9-.7l-1.7-1.8c-1.6-1.8-2.4-1-1.8 1.8zm29.4 57.9c0 .1 0 .1 0 0 0 .1 0 .1 0 0 0 .1 0 .1 0 0zm.3-31.2c.2-.1-.3-2.7-.6-3.6-.3-.9-2-2.7-2.9-2.8-.9-.1-1.7-.2-1.7-.2s2.1 3.4 2.9 4.7c.8 1.2 2.1 2 2.3 1.9z"/><path class="st6" d="M871.5 147.8c-1.6-.9-.6-2.6-.2-2.7.4-.1-.7-2-1.2-2.6s-.9-1-.9-1-.9.3-1.1.3c-.2.1 1 6.5 2.7 8.2 1.6 1.8 2.3-1.2.7-2.2zm9.8-8.2s0-.1 0 0c0-.1 0 0 0 0zm-39.2-39.8c-2.3-2.2-4.5-4.4-6.7-6.5.1 4.7 3.7 7.8 6.7 6.5z"/><path d="M938 297.4c0-141.4-114.6-256-256-256-22.3 0-43.9 2.9-64.5 8.2C753.5 62.4 860 177 860 316.4c0 100.3-55.1 187.7-136.7 233.7C845 530.3 938 424.7 938 297.4z" opacity=".3" fill="#ceb41d"/></svg>