<svg version="1.1" xmlns="http://www.w3.org/2000/svg" x="0" y="0" viewBox="0 0 1920 673" xml:space="preserve"><style type="text/css">.st1{fill:#fff}</style><path fill="#e57b25" d="M0 0h1920v673H0z" id="background"/><g id="image"><path class="st1" d="M14.1 6.4h-.2c-.1.9-.2 2-1.8 2h-.7c-.4 0-.4-.1-.4-.4V3.3c0-.3 0-.4.9-.4h.3v-.3H9.3v.3h.2c.7 0 .7.1.7.4V8c0 .3 0 .4-.7.4h-.3v.3h4.7l.2-2.3z" transform="matrix(45 0 0 45 40 40)"/><path class="st1" d="M14 2.6c0-.1-.1-.1-.2-.1s-.1 0-.2.1l-1.5 3.7c-.1.2-.2.4-.7.4v.2h1.4v-.2c-.3 0-.5-.1-.5-.3v-.1l.3-.8h1.8l.4.9v.1c0 .2-.3.2-.5.2v.2h1.8v-.2H16c-.4 0-.5-.1-.5-.2L14 2.6zm-.4.6l.8 2h-1.6l.8-2z" transform="matrix(45 0 0 45 40 40)"/><path class="st1" d="M21.2 2.6h-5.5l-.2 2h.2c.1-1.5.3-1.8 1.6-1.8h.5c.2 0 .2.1.2.3V8c0 .3 0 .4-1 .4h-.4v.3H20v-.3h-.4c-1 0-1-.1-1-.4V3.3c0-.2 0-.3.2-.3h.5c1.4 0 1.5.3 1.6 1.8h.2l.1-2.2z" transform="matrix(45 0 0 45 40 40)"/><path class="st1" d="M26.1 8.4h-.2c-.2 1.4-.4 2-2 2h-1.2c-.4 0-.4-.1-.4-.4V7.7h.7c.9 0 1 .3 1 1.1h.2V6.4H24c0 .8-.1 1-1 1h-.8V5.3c0-.3 0-.4.4-.4h1.2c1.4 0 1.6.5 1.8 1.8h.2l-.3-2h-5.1V5h.2c.7 0 .7.1.7.4v4.7c0 .3 0 .4-.7.4h-.2v.3h5.2l.5-2.4z" transform="matrix(45 0 0 45 40 40)"/><path class="st1" d="M28.8 5.2L30 3.4c.2-.3.5-.6 1.3-.6v-.2h-2.2v.3c.4 0 .6.2.6.4 0 .1 0 .1-.1.2l-1 1.5-1.2-1.7-.1-.1c0-.1.2-.3.6-.3v-.3h-2.5v.3h.2c.5 0 .7.1.8.3l1.7 2.5-1.5 2.2c-.1.2-.4.6-1.3.6v.3h2.2v-.4c-.4 0-.5-.2-.5-.4 0-.1 0-.1.1-.2l1.3-1.9 1.4 2.2v.1c0 .1-.2.3-.6.3v.3h2.5v-.4h-.2c-.5 0-.7 0-.9-.3l-1.8-2.9z" transform="matrix(45 0 0 45 40 40)"/></g></svg>