<svg xmlns="http://www.w3.org/2000/svg" viewBox="0 0 1920 673" xml:space="preserve"><style>.st1{fill:#fff}</style><path fill="#e57b25" d="M0 0h1920v673H0z"/><path class="st1" d="M674.5 328h-9c-4.5 40.5-9 90-81 90H553c-18 0-18-4.5-18-18V188.5c0-13.5 0-18 40.5-18H589V157H458.5v13.5h9c31.5 0 31.5 4.5 31.5 18V400c0 13.5 0 18-31.5 18H454v13.5h211.5l9-103.5z"/><path class="st1" d="M670 157c0-4.5-4.5-4.5-9-4.5s-4.5 0-9 4.5l-67.5 166.5c-4.5 9-9 18-31.5 18v9h63v-9c-13.5 0-22.5-4.5-22.5-13.5v-4.5l13.5-36h81l18 40.5v4.5c0 9-13.5 9-22.5 9v9h81v-9H760c-18 0-22.5-4.5-22.5-9L670 157zm-18 27 36 90h-72l36-90z"/><path class="st1" d="M994 157H746.5l-9 90h9c4.5-67.5 13.5-81 72-81H841c9 0 9 4.5 9 13.5V400c0 13.5 0 18-45 18h-18v13.5h153V418h-18c-45 0-45-4.5-45-18V188.5c0-9 0-13.5 9-13.5h22.5c63 0 67.5 13.5 72 81h9l4.5-99z"/><path class="st1" d="M1214.5 418h-9c-9 63-18 90-90 90h-54c-18 0-18-4.5-18-18V386.5h31.5c40.5 0 45 13.5 45 49.5h9V328h-9c0 36-4.5 45-45 45h-36v-94.5c0-13.5 0-18 18-18h54c63 0 72 22.5 81 81h9l-13.5-90H958V265h9c31.5 0 31.5 4.5 31.5 18v211.5c0 13.5 0 18-31.5 18h-9V526h234l22.5-108z"/><path class="st1" d="m1336 274 54-81c9-13.5 22.5-27 58.5-27v-9h-99v13.5c18 0 27 9 27 18 0 4.5 0 4.5-4.5 9l-45 67.5-54-76.5-4.5-4.5c0-4.5 9-13.5 27-13.5V157H1183v13.5h9c22.5 0 31.5 4.5 36 13.5l76.5 112.5-67.5 99c-4.5 9-18 27-58.5 27V436h99v-18c-18 0-22.5-9-22.5-18 0-4.5 0-4.5 4.5-9l58.5-85.5 63 99v4.5c0 4.5-9 13.5-27 13.5V436h112.5v-18h-9c-22.5 0-31.5 0-40.5-13.5L1336 274z"/></svg>