<svg xmlns="http://www.w3.org/2000/svg" viewBox="0 0 1920 673" xml:space="preserve"><style>.st3{fill:#bfbebe}</style><path fill="#c5c5c5" d="M0 0h1920v673H0z"/><path d="M1309 179.9c0-17.9-14.7-32.6-32.6-32.6H0v92.8h28.8c4.6 0 8.1 3.6 8.1 8.1v55.3c0 4.6-3.9 8.1-8.1 8.1H0V328h41.8c4.6 0 8.1 3.6 8.1 8.1v55.3c0 4.6-3.9 8.1-8.1 8.1H0v18.9c1.5-1.6 3.6-2.6 6-2.6h55.3c4.6 0 8.1 3.6 8.1 8.1v55.3c0 4.6-3.9 8.1-8.1 8.1H6c-2.4 0-4.5-1-6-2.6v18.9h19c4.6 0 8.1 3.6 8.1 8.1V567c0 4.6-3.9 8.1-8.1 8.1H0V673h1307c1.3-3.5 2-7.3 2-11.3V179.9zm-505.6 6.5c0-4.6 3.6-8.1 8.1-8.1h51.8c4.6 0 8.1 3.6 8.1 8.1V219c0 4.6-3.9 8.1-8.1 8.1h-51.8c-4.6 0-8.1-3.6-8.1-8.1v-32.6zm-63.2 205.1v-55.3c0-4.6 3.6-8.1 8.1-8.1h55.3c4.6 0 8.1 3.6 8.1 8.1v55.3c0 4.6-3.9 8.1-8.1 8.1h-55.3c-4.5 0-8.1-3.6-8.1-8.1zm6.5 32.5v55.3c0 4.6-3.9 8.1-8.1 8.1h-55.3c-4.6 0-8.1-3.6-8.1-8.1V424c0-4.6 3.6-8.1 8.1-8.1h55.3c4.5 0 8.1 3.6 8.1 8.1zm52.1-175.8v55.3c0 4.6-3.9 8.1-8.1 8.1h-55.3c-4.6 0-8.1-3.6-8.1-8.1v-55.3c0-4.6 3.6-8.1 8.1-8.1h55.3c4.5 0 8.1 3.6 8.1 8.1zM723 186.4c0-4.6 3.6-8.1 8.1-8.1h51.8c4.6 0 8.1 3.6 8.1 8.1V219c0 4.6-3.6 8.1-8.1 8.1h-51.8c-4.6 0-8.1-3.6-8.1-8.1v-32.6zm4.2 149.7v55.3c0 4.6-3.9 8.1-8.1 8.1h-55.3c-4.6 0-8.1-3.6-8.1-8.1v-55.3c0-4.6 3.6-8.1 8.1-8.1H719c4.6 0 8.2 3.6 8.2 8.1zM662.1 424v55.3c0 4.6-3.9 8.1-8.1 8.1h-55.3c-4.6 0-8.1-3.6-8.1-8.1V424c0-4.6 3.6-8.1 8.1-8.1H654c4.5 0 8.1 3.6 8.1 8.1zm-16-237.6c0-4.6 3.6-8.1 8.1-8.1H706c4.6 0 8.1 3.6 8.1 8.1V219c0 4.6-3.9 8.1-8.1 8.1h-51.8c-4.6 0-8.1-3.6-8.1-8.1v-32.6zm-3.6 61.8c0-4.6 3.6-8.1 8.1-8.1H706c4.6 0 8.1 3.6 8.1 8.1v55.3c0 4.6-3.9 8.1-8.1 8.1h-55.3c-4.6 0-8.1-3.6-8.1-8.1v-55.3zm0 87.9v55.3c0 4.6-3.9 8.1-8.1 8.1H579c-4.6 0-8.1-3.6-8.1-8.1v-55.3c0-4.6 3.6-8.1 8.1-8.1h55.3c4.7 0 8.2 3.6 8.2 8.1zM577.4 424v55.3c0 4.6-3.9 8.1-8.1 8.1H514c-4.6 0-8.1-3.6-8.1-8.1V424c0-4.6 3.6-8.1 8.1-8.1h55.3c4.5 0 8.1 3.6 8.1 8.1zm-11.7-237.6c0-4.6 3.6-8.1 8.1-8.1h51.8c4.6 0 8.1 3.6 8.1 8.1V219c0 4.6-3.9 8.1-8.1 8.1h-51.8c-4.6 0-8.1-3.6-8.1-8.1v-32.6zm-7.8 61.8c0-4.6 3.6-8.1 8.1-8.1h55.3c4.6 0 8.1 3.6 8.1 8.1v55.3c0 4.6-3.9 8.1-8.1 8.1H566c-4.6 0-8.1-3.6-8.1-8.1v-55.3zm0 87.9v55.3c0 4.6-3.9 8.1-8.1 8.1h-55.3c-4.6 0-8.1-3.6-8.1-8.1v-55.3c0-4.6 3.6-8.1 8.1-8.1h55.3c4.5 0 8.1 3.6 8.1 8.1zM492.8 424v55.3c0 4.6-3.9 8.1-8.1 8.1h-55.3c-4.6 0-8.1-3.6-8.1-8.1V424c0-4.6 3.6-8.1 8.1-8.1h55.3c4.5 0 8.1 3.6 8.1 8.1zm-7.5-237.6c0-4.6 3.6-8.1 8.1-8.1h51.8c4.6 0 8.1 3.6 8.1 8.1V219c0 4.6-3.6 8.1-8.1 8.1h-51.8c-4.6 0-8.1-3.6-8.1-8.1v-32.6zm-12.1 61.8c0-4.6 3.6-8.1 8.1-8.1h55.3c4.6 0 8.1 3.6 8.1 8.1v55.3c0 4.6-3.9 8.1-8.1 8.1h-55.3c-4.6 0-8.1-3.6-8.1-8.1v-55.3zm0 143.3c0 4.6-3.9 8.1-8.1 8.1h-55.3c-4.6 0-8.1-3.6-8.1-8.1v-55.3c0-4.6 3.6-8.1 8.1-8.1h55.3c4.6 0 8.1 3.6 8.1 8.1v55.3zm-266.9-87.9c0 4.6-3.9 8.1-8.1 8.1h-55.3c-4.6 0-8.1-3.6-8.1-8.1v-55.3c0-4.6 3.6-8.1 8.1-8.1h55.3c4.6 0 8.1 3.6 8.1 8.1v55.3zm4.8 24.4c4.6 0 8.1 3.6 8.1 8.1v55.3c0 4.6-3.9 8.1-8.1 8.1h-55.3c-4.6 0-8.1-3.6-8.1-8.1v-55.3c0-4.6 3.6-8.1 8.1-8.1h55.3zM146 415.9c4.6 0 8.1 3.6 8.1 8.1v55.3c0 4.6-3.9 8.1-8.1 8.1H90.7c-4.6 0-8.1-3.6-8.1-8.1V424c0-4.6 3.6-8.1 8.1-8.1H146zm-21.1 96c0-4.6 3.6-8.1 8.1-8.1h55.3c4.6 0 8.1 3.6 8.1 8.1v55.3c0 4.6-3.9 8.1-8.1 8.1H133c-4.6 0-8.1-3.6-8.1-8.1v-55.3zm50.4-24.4c-4.6 0-8.1-3.6-8.1-8.1V424c0-4.6 3.6-8.1 8.1-8.1h55.3c4.6 0 8.1 3.6 8.1 8.1v55.3c0 4.6-3.9 8.1-8.1 8.1h-55.3zm115.6-183.9c0 4.6-3.9 8.1-8.1 8.1h-55.3c-4.6 0-8.1-3.6-8.1-8.1v-55.3c0-4.6 3.6-8.1 8.1-8.1h55.3c4.6 0 8.1 3.6 8.1 8.1v55.3zm4.9 24.4c4.6 0 8.1 3.6 8.1 8.1v55.3c0 4.6-3.9 8.1-8.1 8.1h-55.3c-4.6 0-8.1-3.6-8.1-8.1v-55.3c0-4.6 3.6-8.1 8.1-8.1h55.3zm-86.3 183.9c0-4.6 3.6-8.1 8.1-8.1H273c4.6 0 8.1 3.6 8.1 8.1v55.3c0 4.6-3.9 8.1-8.1 8.1h-55.3c-4.6 0-8.1-3.6-8.1-8.1v-55.3zm50.5-24.4c-4.6 0-8.1-3.6-8.1-8.1V424c0-4.6 3.6-8.1 8.1-8.1h55.3c4.6 0 8.1 3.6 8.1 8.1v55.3c0 4.6-3.9 8.1-8.1 8.1H260zm57-96v-55.3c0-4.6 3.6-8.1 8.1-8.1h55.3c4.6 0 8.1 3.6 8.1 8.1v55.3c0 4.6-3.9 8.1-8.1 8.1h-55.3c-4.6 0-8.1-3.6-8.1-8.1zm-22.8 120.4c0-4.6 3.6-8.1 8.1-8.1h55.3c4.6 0 8.1 3.6 8.1 8.1v55.3c0 4.6-3.9 8.1-8.1 8.1h-55.3c-4.6 0-8.1-3.6-8.1-8.1v-55.3zm50.4-24.4c-4.6 0-8.1-3.6-8.1-8.1V424c0-4.6 3.6-8.1 8.1-8.1H400c4.6 0 8.1 3.6 8.1 8.1v55.3c0 4.6-3.9 8.1-8.1 8.1h-55.4zm60.3-301.1c0-4.6 3.6-8.1 8.1-8.1h51.8c4.6 0 8.1 3.6 8.1 8.1V219c0 4.6-3.6 8.1-8.1 8.1H413c-4.6 0-8.1-3.6-8.1-8.1v-32.6zm47.2 53.7c4.6 0 8.1 3.6 8.1 8.1v55.3c0 4.6-3.9 8.1-8.1 8.1h-55.3c-4.6 0-8.1-3.6-8.1-8.1v-55.3c0-4.6 3.6-8.1 8.1-8.1h55.3zm-128.3-53.7c0-4.6 3.6-8.1 8.1-8.1h51.8c4.6 0 8.1 3.6 8.1 8.1V219c0 4.6-3.9 8.1-8.1 8.1h-51.8c-4.6 0-8.1-3.6-8.1-8.1v-32.6zm43.6 53.7c4.6 0 8.1 3.6 8.1 8.1v55.3c0 4.6-3.9 8.1-8.1 8.1h-55.3c-4.6 0-8.1-3.6-8.1-8.1v-55.3c0-4.6 3.6-8.1 8.1-8.1h55.3zm-124-53.7c0-4.6 3.6-8.1 8.1-8.1h51.8c4.6 0 8.1 3.6 8.1 8.1V219c0 4.6-3.9 8.1-8.1 8.1h-51.8c-4.6 0-8.1-3.6-8.1-8.1v-32.6zm-80.4 0c0-4.6 3.6-8.1 8.1-8.1h51.8c4.6 0 8.1 3.6 8.1 8.1V219c0 4.6-3.6 8.1-8.1 8.1h-51.8c-4.6 0-8.1-3.6-8.1-8.1v-32.6zm-80.5 0c0-4.6 3.6-8.1 8.1-8.1h51.8c4.6 0 8.1 3.6 8.1 8.1V219c0 4.6-3.6 8.1-8.1 8.1H90.7c-4.6 0-8.1-3.6-8.1-8.1v-32.6zM9.6 227.1c-4.6 0-8.1-3.6-8.1-8.1v-32.6c0-4.6 3.6-8.1 8.1-8.1h51.8c4.6 0 8.1 3.6 8.1 8.1V219c0 4.6-3.9 8.1-8.1 8.1H9.6zm48.5 84.6c-4.6 0-8.1-3.6-8.1-8.1v-55.3c0-4.6 3.6-8.1 8.1-8.1h55.3c4.6 0 8.1 3.6 8.1 8.1v55.3c0 4.6-3.9 8.1-8.1 8.1H58.1zm4.9 79.8v-55.3c0-4.6 3.6-8.1 8.1-8.1h55.3c4.6 0 8.1 3.6 8.1 8.1v55.3c0 4.6-3.9 8.1-8.1 8.1H71.1c-4.5 0-8.1-3.6-8.1-8.1zM40.2 511.9c0-4.6 3.6-8.1 8.1-8.1h55.3c4.6 0 8.1 3.6 8.1 8.1v55.3c0 4.6-3.9 8.1-8.1 8.1H48.3c-4.6 0-8.1-3.6-8.1-8.1v-55.3zm403.7 143.3c0 4.6-3.9 8.1-8.1 8.1H19c-4.6 0-8.1-3.6-8.1-8.1v-55.3c0-4.6 3.6-8.1 8.1-8.1h416.7c4.6 0 8.1 3.6 8.1 8.1v55.3zm6.5-87.9c0 4.6-3.9 8.1-8.1 8.1H387c-4.6 0-8.1-3.6-8.1-8.1V512c0-4.6 3.6-8.1 8.1-8.1h55.3c4.6 0 8.1 3.6 8.1 8.1v55.3zm78.2 87.9c0 4.6-3.9 8.1-8.1 8.1h-55.3c-4.6 0-8.1-3.6-8.1-8.1v-55.3c0-4.6 3.6-8.1 8.1-8.1h55.3c4.6 0 8.1 3.6 8.1 8.1v55.3zm6.5-87.9c0 4.6-3.9 8.1-8.1 8.1h-55.3c-4.6 0-8.1-3.6-8.1-8.1V512c0-4.6 3.6-8.1 8.1-8.1H527c4.6 0 8.1 3.6 8.1 8.1v55.3zm78.1 87.9c0 4.6-3.9 8.1-8.1 8.1h-55.3c-4.6 0-8.1-3.6-8.1-8.1v-55.3c0-4.6 3.6-8.1 8.1-8.1h55.3c4.6 0 8.1 3.6 8.1 8.1v55.3zm6.5-87.9c0 4.6-3.9 8.1-8.1 8.1h-55.3c-4.6 0-8.1-3.6-8.1-8.1V512c0-4.6 3.6-8.1 8.1-8.1h55.3c4.6 0 8.1 3.6 8.1 8.1v55.3zm78.2 87.9c0 4.6-3.9 8.1-8.1 8.1h-55.3c-4.6 0-8.1-3.6-8.1-8.1v-55.3c0-4.6 3.6-8.1 8.1-8.1h55.3c4.6 0 8.1 3.6 8.1 8.1v55.3zm6.5-87.9c0 4.6-3.9 8.1-8.1 8.1H641c-4.6 0-8.1-3.6-8.1-8.1V512c0-4.6 3.6-8.1 8.1-8.1h55.3c4.6 0 8.1 3.6 8.1 8.1v55.3zm78.1 87.9c0 4.6-3.9 8.1-8.1 8.1H719c-4.6 0-8.1-3.6-8.1-8.1v-55.3c0-4.6 3.6-8.1 8.1-8.1h55.3c4.6 0 8.1 3.6 8.1 8.1v55.3zm84.7 0c0 4.6-3.9 8.1-8.1 8.1h-55.3c-4.6 0-8.1-3.6-8.1-8.1v-55.3c0-4.6 3.6-8.1 8.1-8.1H859c4.6 0 8.1 3.6 8.1 8.1v55.3zm0-87.9c0 4.6-3.9 8.1-8.1 8.1H725.6c-4.6 0-8.1-3.6-8.1-8.1V512c0-4.6 3.6-8.1 8.1-8.1H859c4.6 0 8.1 3.6 8.1 8.1v55.3zm84.6 87.9c0 4.6-3.9 8.1-8.1 8.1h-55.3c-4.6 0-8.1-3.6-8.1-8.1v-55.3c0-4.6 3.6-8.1 8.1-8.1h55.3c4.6 0 8.1 3.6 8.1 8.1v55.3zm0-87.9c0 4.6-3.9 8.1-8.1 8.1h-55.3c-4.6 0-8.1-3.6-8.1-8.1V512c0-4.6 3.6-8.1 8.1-8.1h55.3c4.6 0 8.1 3.6 8.1 8.1v55.3zm0-87.9c0 4.6-3.9 8.1-8.1 8.1H767.9c-4.6 0-8.1-3.6-8.1-8.1V424c0-4.6 3.6-8.1 8.1-8.1h175.8c4.6 0 8.1 3.6 8.1 8.1v55.4zm0-87.9c0 4.6-3.9 8.1-8.1 8.1H833c-4.6 0-8.1-3.6-8.1-8.1v-55.3c0-4.6 3.6-8.1 8.1-8.1h110.7c4.6 0 8.1 3.6 8.1 8.1v55.3zm0-87.9c0 4.6-3.9 8.1-8.1 8.1H820c-4.6 0-8.1-3.6-8.1-8.1v-55.3c0-4.6 3.6-8.1 8.1-8.1h123.7c4.6 0 8.1 3.6 8.1 8.1v55.3zm0-84.7c0 4.6-3.9 8.1-8.1 8.1h-51.8c-4.6 0-8.1-3.6-8.1-8.1v-32.6c0-4.6 3.6-8.1 8.1-8.1h51.8c4.6 0 8.1 3.6 8.1 8.1v32.6zm84.7 436.3c0 4.6-3.9 8.1-8.1 8.1H973c-4.6 0-8.1-3.6-8.1-8.1v-55.3c0-4.6 3.6-8.1 8.1-8.1h55.3c4.6 0 8.1 3.6 8.1 8.1v55.3zm6.2-87.9c0 4.6-3.6 8.1-8.1 8.1h-51.8c-4.6 0-8.1-3.6-8.1-8.1V512c0-4.6 3.6-8.1 8.1-8.1h51.8c4.6 0 8.1 3.6 8.1 8.1v55.3zm0-87.9c0 4.6-3.6 8.1-8.1 8.1h-51.8c-4.6 0-8.1-3.6-8.1-8.1V424c0-4.6 3.6-8.1 8.1-8.1h51.8c4.6 0 8.1 3.6 8.1 8.1v55.4zm0-87.9c0 4.6-3.6 8.1-8.1 8.1h-51.8c-4.6 0-8.1-3.6-8.1-8.1v-55.3c0-4.6 3.6-8.1 8.1-8.1h51.8c4.6 0 8.1 3.6 8.1 8.1v55.3zm0-87.9c0 4.6-3.6 8.1-8.1 8.1h-51.8c-4.6 0-8.1-3.6-8.1-8.1v-55.3c0-4.6 3.6-8.1 8.1-8.1h51.8c4.6 0 8.1 3.6 8.1 8.1v55.3zm0-84.7c0 4.6-3.6 8.1-8.1 8.1h-51.8c-4.6 0-8.1-3.6-8.1-8.1v-32.6c0-4.6 3.6-8.1 8.1-8.1h51.8c4.6 0 8.1 3.6 8.1 8.1v32.6zm80.4 436.3c0 4.6-3.6 8.1-8.1 8.1h-51.8c-4.6 0-8.1-3.6-8.1-8.1v-55.3c0-4.6 3.6-8.1 8.1-8.1h51.8c4.6 0 8.1 3.6 8.1 8.1v55.3zm0-87.9c0 4.6-3.6 8.1-8.1 8.1h-51.8c-4.6 0-8.1-3.6-8.1-8.1V512c0-4.6 3.6-8.1 8.1-8.1h51.8c4.6 0 8.1 3.6 8.1 8.1v55.3zm0-87.9c0 4.6-3.6 8.1-8.1 8.1h-51.8c-4.6 0-8.1-3.6-8.1-8.1V424c0-4.6 3.6-8.1 8.1-8.1h51.8c4.6 0 8.1 3.6 8.1 8.1v55.4zm0-87.9c0 4.6-3.6 8.1-8.1 8.1h-51.8c-4.6 0-8.1-3.6-8.1-8.1v-55.3c0-4.6 3.6-8.1 8.1-8.1h51.8c4.6 0 8.1 3.6 8.1 8.1v55.3zm0-87.9c0 4.6-3.6 8.1-8.1 8.1h-51.8c-4.6 0-8.1-3.6-8.1-8.1v-55.3c0-4.6 3.6-8.1 8.1-8.1h51.8c4.6 0 8.1 3.6 8.1 8.1v55.3zm0-84.7c0 4.6-3.6 8.1-8.1 8.1h-51.8c-4.6 0-8.1-3.6-8.1-8.1v-32.6c0-4.6 3.6-8.1 8.1-8.1h51.8c4.6 0 8.1 3.6 8.1 8.1v32.6zm80.4 436.3c0 4.6-3.9 8.1-8.1 8.1h-51.8c-4.6 0-8.1-3.6-8.1-8.1v-55.3c0-4.6 3.6-8.1 8.1-8.1h51.8c4.6 0 8.1 3.6 8.1 8.1v55.3zm0-87.9c0 4.6-3.9 8.1-8.1 8.1h-51.8c-4.6 0-8.1-3.6-8.1-8.1V512c0-4.6 3.6-8.1 8.1-8.1h51.8c4.6 0 8.1 3.6 8.1 8.1v55.3zm0-87.9c0 4.6-3.9 8.1-8.1 8.1h-51.8c-4.6 0-8.1-3.6-8.1-8.1V424c0-4.6 3.6-8.1 8.1-8.1h51.8c4.6 0 8.1 3.6 8.1 8.1v55.4zm0-87.9c0 4.6-3.9 8.1-8.1 8.1h-51.8c-4.6 0-8.1-3.6-8.1-8.1v-55.3c0-4.6 3.6-8.1 8.1-8.1h51.8c4.6 0 8.1 3.6 8.1 8.1v55.3zm0-87.9c0 4.6-3.9 8.1-8.1 8.1h-51.8c-4.6 0-8.1-3.6-8.1-8.1v-55.3c0-4.6 3.6-8.1 8.1-8.1h51.8c4.6 0 8.1 3.6 8.1 8.1v55.3zm0-84.7c0 4.6-3.9 8.1-8.1 8.1h-51.8c-4.6 0-8.1-3.6-8.1-8.1v-32.6c0-4.6 3.6-8.1 8.1-8.1h51.8c4.6 0 8.1 3.6 8.1 8.1v32.6zm80.4 436.3c0 4.6-3.9 8.1-8.1 8.1H1224c-4.6 0-8.1-3.6-8.1-8.1V511.9c0-4.6 3.6-8.1 8.1-8.1h51.8c4.6 0 8.1 3.6 8.1 8.1v143.3zm0-175.8c0 4.6-3.9 8.1-8.1 8.1H1224c-4.6 0-8.1-3.6-8.1-8.1V336.1c0-4.6 3.6-8.1 8.1-8.1h51.8c4.6 0 8.1 3.6 8.1 8.1v143.3zm0-175.8c0 4.6-3.9 8.1-8.1 8.1H1224c-4.6 0-8.1-3.6-8.1-8.1v-55.3c0-4.6 3.6-8.1 8.1-8.1h51.8c4.6 0 8.1 3.6 8.1 8.1v55.3zm0-84.7c0 4.6-3.9 8.1-8.1 8.1H1224c-4.6 0-8.1-3.6-8.1-8.1v-32.6c0-4.6 3.6-8.1 8.1-8.1h51.8c4.6 0 8.1 3.6 8.1 8.1v32.6z" fill="#e2dfdf"/><path d="M1034.5 507.1h-51.8c-2.6 0-4.9 2.3-4.9 4.9v55.3c0 2.6 2.3 4.9 4.9 4.9h51.8c2.6 0 4.9-2.3 4.9-4.9V512c0-2.7-2.3-4.9-4.9-4.9zM481.4 308.5h55.3c2.6 0 4.9-2.3 4.9-4.9v-55.3c0-2.6-2.3-4.9-4.9-4.9h-55.3c-2.6 0-4.9 2.3-4.9 4.9v55.3c0 2.6 2.3 4.9 4.9 4.9zm11.7-84.7h51.8c2.6 0 4.9-2.3 4.9-4.9v-32.6c0-2.6-2.3-4.9-4.9-4.9h-51.8c-2.6 0-4.9 2.3-4.9 4.9v32.6c0 2.6 2.3 4.9 4.9 4.9zm541.4 195.4h-51.8c-2.6 0-4.9 2.3-4.9 4.9v55.3c0 2.6 2.3 4.9 4.9 4.9h51.8c2.6 0 4.9-2.3 4.9-4.9V424c0-2.6-2.3-4.8-4.9-4.8zM527 507.1h-55.3c-2.6 0-4.9 2.3-4.9 4.9v55.3c0 2.6 2.3 4.9 4.9 4.9H527c2.6 0 4.9-2.3 4.9-4.9V512c-.1-2.7-2.3-4.9-4.9-4.9zm-61.9-175.9h-55.3c-2.6 0-4.9 2.3-4.9 4.9v55.3c0 2.6 2.3 4.9 4.9 4.9h55.3c2.6 0 4.9-2.3 4.9-4.9v-55.3c0-2.6-2.3-4.9-4.9-4.9zm140 263.8h-55.3c-2.6 0-4.9 2.3-4.9 4.9v55.3c0 2.6 2.3 4.9 4.9 4.9h55.3c2.6 0 4.9-2.3 4.9-4.9v-55.3c0-2.7-2.3-4.9-4.9-4.9zM150.9 336.1v55.3c0 2.6 2.3 4.9 4.9 4.9h55.3c2.6 0 4.9-2.3 4.9-4.9v-55.3c0-2.6-2.3-4.9-4.9-4.9h-55.3c-2.6 0-4.9 2.3-4.9 4.9zm47.2-92.8h-55.3c-2.6 0-4.9 2.3-4.9 4.9v55.3c0 2.6 2.3 4.9 4.9 4.9h55.3c2.6 0 4.9-2.3 4.9-4.9v-55.3c0-2.6-2.3-4.9-4.9-4.9zm375.4-19.5h51.8c2.6 0 4.9-2.3 4.9-4.9v-32.6c0-2.6-2.3-4.9-4.9-4.9h-51.8c-2.6 0-4.9 2.3-4.9 4.9v32.6c0 2.6 2.3 4.9 4.9 4.9zM1028.3 595H973c-2.6 0-4.9 2.3-4.9 4.9v55.3c0 2.6 2.3 4.9 4.9 4.9h55.3c2.6 0 4.9-2.3 4.9-4.9v-55.3c0-2.7-2.2-4.9-4.9-4.9zm-84.9-413.5h-51.8c-2.6 0-4.9 2.3-4.9 4.9V219c0 2.6 2.3 4.9 4.9 4.9h51.8c2.6 0 4.9-2.3 4.9-4.9v-32.6c0-2.6-2.3-4.9-4.9-4.9zM520.4 595h-55.3c-2.6 0-4.9 2.3-4.9 4.9v55.3c0 2.6 2.3 4.9 4.9 4.9h55.3c2.6 0 4.9-2.3 4.9-4.9v-55.3c0-2.7-2.3-4.9-4.9-4.9zM566 308.5h55.3c2.6 0 4.9-2.3 4.9-4.9v-55.3c0-2.6-2.3-4.9-4.9-4.9H566c-2.6 0-4.9 2.3-4.9 4.9v55.3c0 2.6 2.3 4.9 4.9 4.9zM1114.6 595h-51.8c-2.6 0-4.9 2.3-4.9 4.9v55.3c0 2.6 2.3 4.9 4.9 4.9h51.8c2.6 0 4.9-2.3 4.9-4.9v-55.3c0-2.7-2.3-4.9-4.9-4.9zm-80.1-413.5h-51.8c-2.6 0-4.9 2.3-4.9 4.9V219c0 2.6 2.3 4.9 4.9 4.9h51.8c2.6 0 4.9-2.3 4.9-4.9v-32.6c0-2.6-2.3-4.9-4.9-4.9zm-722.4 127h55.3c2.6 0 4.9-2.3 4.9-4.9v-55.3c0-2.6-2.3-4.9-4.9-4.9h-55.3c-2.6 0-4.9 2.3-4.9 4.9v55.3c0 2.6 2.3 4.9 4.9 4.9zm722.4-65.2h-51.8c-2.6 0-4.9 2.3-4.9 4.9v55.3c0 2.6 2.3 4.9 4.9 4.9h51.8c2.6 0 4.9-2.3 4.9-4.9v-55.3c0-2.6-2.3-4.9-4.9-4.9zm-702.9-19.5h51.8c2.6 0 4.9-2.3 4.9-4.9v-32.6c0-2.6-2.3-4.9-4.9-4.9h-51.8c-2.6 0-4.9 2.3-4.9 4.9v32.6c0 2.6 2.3 4.9 4.9 4.9zm162.8 107.4c-2.6 0-4.9 2.3-4.9 4.9v55.3c0 2.6 2.3 4.9 4.9 4.9h55.3c2.6 0 4.9-2.3 4.9-4.9v-55.3c0-2.6-2.3-4.9-4.9-4.9h-55.3zm-65.1 88c-2.6 0-4.9 2.3-4.9 4.9v55.3c0 2.6 2.3 4.9 4.9 4.9h55.3c2.6 0 4.9-2.3 4.9-4.9V424c0-2.6-2.3-4.9-4.9-4.9h-55.3zm605.2-88h-51.8c-2.6 0-4.9 2.3-4.9 4.9v55.3c0 2.6 2.3 4.9 4.9 4.9h51.8c2.6 0 4.9-2.3 4.9-4.9v-55.3c0-2.6-2.3-4.9-4.9-4.9zm-637.8-22.7H452c2.6 0 4.9-2.3 4.9-4.9v-55.3c0-2.6-2.3-4.9-4.9-4.9h-55.3c-2.6 0-4.9 2.3-4.9 4.9v55.3c0 2.6 2.3 4.9 4.9 4.9zm547-65.2H820c-2.6 0-4.9 2.3-4.9 4.9v55.3c0 2.6 2.3 4.9 4.9 4.9h123.7c2.6 0 4.9-2.3 4.9-4.9v-55.3c0-2.6-2.3-4.9-4.9-4.9zm-726 328.9H273c2.6 0 4.9-2.3 4.9-4.9V512c0-2.6-2.3-4.9-4.9-4.9h-55.3c-2.6 0-4.9 2.3-4.9 4.9v55.3c0 2.6 2.2 4.9 4.9 4.9zm472 22.8h-55.3c-2.6 0-4.9 2.3-4.9 4.9v55.3c0 2.6 2.3 4.9 4.9 4.9h55.3c2.6 0 4.9-2.3 4.9-4.9v-55.3c0-2.7-2.3-4.9-4.9-4.9zm6.6-87.9H641c-2.6 0-4.9 2.3-4.9 4.9v55.3c0 2.6 2.3 4.9 4.9 4.9h55.3c2.6 0 4.9-2.3 4.9-4.9V512c-.1-2.7-2.3-4.9-4.9-4.9zM859 595h-55.3c-2.6 0-4.9 2.3-4.9 4.9v55.3c0 2.6 2.3 4.9 4.9 4.9H859c2.6 0 4.9-2.3 4.9-4.9v-55.3c0-2.7-2.2-4.9-4.9-4.9zm0-87.9H725.6c-2.6 0-4.9 2.3-4.9 4.9v55.3c0 2.6 2.3 4.9 4.9 4.9H859c2.6 0 4.9-2.3 4.9-4.9V512c0-2.7-2.2-4.9-4.9-4.9zm-538.8-27.7V424c0-2.6-2.3-4.9-4.9-4.9H260c-2.6 0-4.9 2.3-4.9 4.9v55.3c0 2.6 2.3 4.9 4.9 4.9h55.3c2.6.1 4.9-2.2 4.9-4.8zm60.2-83c2.6 0 4.9-2.3 4.9-4.9v-55.3c0-2.6-2.3-4.9-4.9-4.9h-55.3c-2.6 0-4.9 2.3-4.9 4.9v55.3c0 2.6 2.3 4.9 4.9 4.9h55.3zm394 198.6H719c-2.6 0-4.9 2.3-4.9 4.9v55.3c0 2.6 2.3 4.9 4.9 4.9h55.3c2.6 0 4.9-2.3 4.9-4.9v-55.3c.1-2.7-2.2-4.9-4.8-4.9zm-472.1-22.8h55.3c2.6 0 4.9-2.3 4.9-4.9V512c0-2.6-2.3-4.9-4.9-4.9h-55.3c-2.6 0-4.9 2.3-4.9 4.9v55.3c0 2.6 2.3 4.9 4.9 4.9zM943.7 595h-55.3c-2.6 0-4.9 2.3-4.9 4.9v55.3c0 2.6 2.3 4.9 4.9 4.9h55.3c2.6 0 4.9-2.3 4.9-4.9v-55.3c0-2.7-2.3-4.9-4.9-4.9zm-332.1-87.9h-55.3c-2.6 0-4.9 2.3-4.9 4.9v55.3c0 2.6 2.3 4.9 4.9 4.9h55.3c2.6 0 4.9-2.3 4.9-4.9V512c0-2.7-2.3-4.9-4.9-4.9zM133 572.2h55.3c2.6 0 4.9-2.3 4.9-4.9V512c0-2.6-2.3-4.9-4.9-4.9H133c-2.6 0-4.9 2.3-4.9 4.9v55.3c0 2.6 2.3 4.9 4.9 4.9zm810.7-241H833c-2.6 0-4.9 2.3-4.9 4.9v55.3c0 2.6 2.3 4.9 4.9 4.9h110.7c2.6 0 4.9-2.3 4.9-4.9v-55.3c0-2.6-2.3-4.9-4.9-4.9zM413 223.8h51.8c2.6 0 4.9-2.3 4.9-4.9v-32.6c0-2.6-2.3-4.9-4.9-4.9H413c-2.6 0-4.9 2.3-4.9 4.9v32.6c0 2.6 2.3 4.9 4.9 4.9zM85.8 424v55.3c0 2.6 2.3 4.9 4.9 4.9H146c2.6 0 4.9-2.3 4.9-4.9V424c0-2.6-2.3-4.9-4.9-4.9H90.7c-2.6.1-4.9 2.3-4.9 4.9zm319.1 55.4V424c0-2.6-2.3-4.9-4.9-4.9h-55.3c-2.6 0-4.9 2.3-4.9 4.9v55.3c0 2.6 2.3 4.9 4.9 4.9H400c2.6.1 4.9-2.2 4.9-4.8zM282.8 243.3h-55.3c-2.6 0-4.9 2.3-4.9 4.9v55.3c0 2.6 2.3 4.9 4.9 4.9h55.3c2.6 0 4.9-2.3 4.9-4.9v-55.3c0-2.6-2.3-4.9-4.9-4.9zm660.9 263.8h-55.3c-2.6 0-4.9 2.3-4.9 4.9v55.3c0 2.6 2.3 4.9 4.9 4.9h55.3c2.6 0 4.9-2.3 4.9-4.9V512c0-2.7-2.3-4.9-4.9-4.9zm-708.1-27.7V424c0-2.6-2.3-4.9-4.9-4.9h-55.3c-2.6 0-4.9 2.3-4.9 4.9v55.3c0 2.6 2.3 4.9 4.9 4.9h55.3c2.6.1 4.9-2.2 4.9-4.8zm708.1-60.2H767.9c-2.6 0-4.9 2.3-4.9 4.9v55.3c0 2.6 2.3 4.9 4.9 4.9h175.8c2.6 0 4.9-2.3 4.9-4.9V424c0-2.6-2.3-4.8-4.9-4.8zm-708.1-83.1v55.3c0 2.6 2.3 4.9 4.9 4.9h55.3c2.6 0 4.9-2.3 4.9-4.9v-55.3c0-2.6-2.3-4.9-4.9-4.9h-55.3c-2.7 0-4.9 2.3-4.9 4.9zm447.6 83.1c-2.6 0-4.9 2.3-4.9 4.9v55.3c0 2.6 2.3 4.9 4.9 4.9h55.3c2.6 0 4.9-2.3 4.9-4.9V424c0-2.6-2.3-4.9-4.9-4.9h-55.3zM90.7 223.8h51.8c2.6 0 4.9-2.3 4.9-4.9v-32.6c0-2.6-2.3-4.9-4.9-4.9H90.7c-2.6 0-4.9 2.3-4.9 4.9v32.6c0 2.6 2.3 4.9 4.9 4.9zm1023.9 283.3h-51.8c-2.6 0-4.9 2.3-4.9 4.9v55.3c0 2.6 2.3 4.9 4.9 4.9h51.8c2.6 0 4.9-2.3 4.9-4.9V512c0-2.7-2.3-4.9-4.9-4.9zM803.7 396.4c2.6 0 4.9-2.3 4.9-4.9v-55.3c0-2.6-2.3-4.9-4.9-4.9h-55.3c-2.6 0-4.9 2.3-4.9 4.9v55.3c0 2.6 2.3 4.9 4.9 4.9h55.3zM1195 181.5h-51.8c-2.6 0-4.9 2.3-4.9 4.9V219c0 2.6 2.3 4.9 4.9 4.9h51.8c2.6 0 4.9-2.3 4.9-4.9v-32.6c0-2.6-2.2-4.9-4.9-4.9zm-383.8 42.3H863c2.6 0 4.9-2.3 4.9-4.9v-32.6c0-2.6-2.3-4.9-4.9-4.9h-51.8c-2.6 0-4.9 2.3-4.9 4.9v32.6c0 2.6 2.3 4.9 4.9 4.9zm-75.9 19.5c-2.6 0-4.9 2.3-4.9 4.9v55.3c0 2.6 2.3 4.9 4.9 4.9h55.3c2.6 0 4.9-2.3 4.9-4.9v-55.3c0-2.6-2.3-4.9-4.9-4.9h-55.3zm-687 328.9h55.3c2.6 0 4.9-2.3 4.9-4.9V512c0-2.6-2.3-4.9-4.9-4.9H48.3c-2.6 0-4.9 2.3-4.9 4.9v55.3c.1 2.6 2.3 4.9 4.9 4.9zm1146.7-153h-51.8c-2.6 0-4.9 2.3-4.9 4.9v55.3c0 2.6 2.3 4.9 4.9 4.9h51.8c2.6 0 4.9-2.3 4.9-4.9V424c0-2.6-2.2-4.8-4.9-4.8zM730.8 223.8h51.8c2.6 0 4.9-2.3 4.9-4.9v-32.6c0-2.6-2.3-4.9-4.9-4.9h-51.8c-2.6 0-4.9 2.3-4.9 4.9v32.6c0 2.6 2.3 4.9 4.9 4.9zM1195 331.2h-51.8c-2.6 0-4.9 2.3-4.9 4.9v55.3c0 2.6 2.3 4.9 4.9 4.9h51.8c2.6 0 4.9-2.3 4.9-4.9v-55.3c0-2.6-2.2-4.9-4.9-4.9zM65.9 218.9v-32.6c0-2.6-2.3-4.9-4.9-4.9H9.3c-2.6 0-4.9 2.3-4.9 4.9v32.6c0 2.6 2.3 4.9 4.9 4.9H61c2.7 0 4.9-2.3 4.9-4.9zm1209.6 24.4h-51.8c-2.6 0-4.9 2.3-4.9 4.9v55.3c0 2.6 2.3 4.9 4.9 4.9h51.8c2.6 0 4.9-2.3 4.9-4.9v-55.3c-.1-2.6-2.3-4.9-4.9-4.9zm0 263.8h-51.8c-2.6 0-4.9 2.3-4.9 4.9v143.3c0 2.6 2.3 4.9 4.9 4.9h51.8c2.6 0 4.9-2.3 4.9-4.9V511.9c-.1-2.6-2.3-4.8-4.9-4.8zm0-325.6h-51.8c-2.6 0-4.9 2.3-4.9 4.9V219c0 2.6 2.3 4.9 4.9 4.9h51.8c2.6 0 4.9-2.3 4.9-4.9v-32.6c-.1-2.6-2.3-4.9-4.9-4.9zM33.7 303.6v-55.3c0-2.6-2.3-4.9-4.9-4.9H0v65.1h28.8c2.6 0 4.9-2.3 4.9-4.9zm13 87.9v-55.3c0-2.6-2.3-4.9-4.9-4.9H0v65.1h41.8c2.6 0 4.9-2.3 4.9-4.9zM23.9 567.3V512c0-2.6-2.3-4.9-4.9-4.9H0v65.1h19c2.7 0 4.9-2.3 4.9-4.9zM6 484.3h55.3c2.6 0 4.9-2.3 4.9-4.9V424c0-2.6-2.3-4.9-4.9-4.9H6c-2.6 0-4.9 2.3-4.9 4.9v55.3c0 2.7 2.3 5 4.9 5zm1269.5-153.1h-51.8c-2.6 0-4.9 2.3-4.9 4.9v143.3c0 2.6 2.3 4.9 4.9 4.9h51.8c2.6 0 4.9-2.3 4.9-4.9V336.1c-.1-2.6-2.3-4.9-4.9-4.9zm-1149 65.2c2.6 0 4.9-2.3 4.9-4.9v-55.3c0-2.6-2.3-4.9-4.9-4.9H71.1c-2.6 0-4.9 2.3-4.9 4.9v55.3c0 2.6 2.3 4.9 4.9 4.9h55.4zM1195 243.3h-51.8c-2.6 0-4.9 2.3-4.9 4.9v55.3c0 2.6 2.3 4.9 4.9 4.9h51.8c2.6 0 4.9-2.3 4.9-4.9v-55.3c0-2.6-2.2-4.9-4.9-4.9zm-80.4 175.9h-51.8c-2.6 0-4.9 2.3-4.9 4.9v55.3c0 2.6 2.3 4.9 4.9 4.9h51.8c2.6 0 4.9-2.3 4.9-4.9V424c0-2.6-2.3-4.8-4.9-4.8zM435.8 595H19c-2.6 0-4.9 2.3-4.9 4.9v55.3c0 2.6 2.3 4.9 4.9 4.9h416.7c2.6 0 4.9-2.3 4.9-4.9v-55.3c.1-2.7-2.2-4.9-4.8-4.9zm78.1-175.8c-2.6 0-4.9 2.3-4.9 4.9v55.3c0 2.6 2.3 4.9 4.9 4.9h55.3c2.6 0 4.9-2.3 4.9-4.9V424c0-2.6-2.3-4.9-4.9-4.9h-55.3zm600.7-237.7h-51.8c-2.6 0-4.9 2.3-4.9 4.9V219c0 2.6 2.3 4.9 4.9 4.9h51.8c2.6 0 4.9-2.3 4.9-4.9v-32.6c0-2.6-2.3-4.9-4.9-4.9zm-460.7 42.3h51.8c2.6 0 4.9-2.3 4.9-4.9v-32.6c0-2.6-2.3-4.9-4.9-4.9h-51.8c-2.6 0-4.9 2.3-4.9 4.9v32.6c0 2.6 2.3 4.9 4.9 4.9zm-402.7 0H303c2.6 0 4.9-2.3 4.9-4.9v-32.6c0-2.6-2.3-4.9-4.9-4.9h-51.8c-2.6 0-4.9 2.3-4.9 4.9v32.6c0 2.6 2.3 4.9 4.9 4.9zm191.1 283.3H387c-2.6 0-4.9 2.3-4.9 4.9v55.3c0 2.6 2.3 4.9 4.9 4.9h55.3c2.6 0 4.9-2.3 4.9-4.9V512c0-2.7-2.3-4.9-4.9-4.9zm208.4-198.6H706c2.6 0 4.9-2.3 4.9-4.9v-55.3c0-2.6-2.3-4.9-4.9-4.9h-55.3c-2.6 0-4.9 2.3-4.9 4.9v55.3c0 2.6 2.3 4.9 4.9 4.9zm463.9-65.2h-51.8c-2.6 0-4.9 2.3-4.9 4.9v55.3c0 2.6 2.3 4.9 4.9 4.9h51.8c2.6 0 4.9-2.3 4.9-4.9v-55.3c0-2.6-2.3-4.9-4.9-4.9zm-943.8-19.5h51.8c2.6 0 4.9-2.3 4.9-4.9v-32.6c0-2.6-2.3-4.9-4.9-4.9h-51.8c-2.6 0-4.9 2.3-4.9 4.9v32.6c0 2.6 2.3 4.9 4.9 4.9zm403.4 112.3v55.3c0 2.6 2.3 4.9 4.9 4.9h55.3c2.6 0 4.9-2.3 4.9-4.9v-55.3c0-2.6-2.3-4.9-4.9-4.9H579c-2.6 0-4.8 2.3-4.8 4.9zm24.4 83.1c-2.6 0-4.9 2.3-4.9 4.9v55.3c0 2.6 2.3 4.9 4.9 4.9h55.3c2.6 0 4.9-2.3 4.9-4.9V424c0-2.6-2.3-4.9-4.9-4.9h-55.3zm596.4 87.9h-51.8c-2.6 0-4.9 2.3-4.9 4.9v55.3c0 2.6 2.3 4.9 4.9 4.9h51.8c2.6 0 4.9-2.3 4.9-4.9V512c0-2.7-2.2-4.9-4.9-4.9zm-536.2-171v55.3c0 2.6 2.3 4.9 4.9 4.9H719c2.6 0 4.9-2.3 4.9-4.9v-55.3c0-2.6-2.3-4.9-4.9-4.9h-55.3c-2.6 0-4.9 2.3-4.9 4.9zm455.8-4.9h-51.8c-2.6 0-4.9 2.3-4.9 4.9v55.3c0 2.6 2.3 4.9 4.9 4.9h51.8c2.6 0 4.9-2.3 4.9-4.9v-55.3c0-2.6-2.3-4.9-4.9-4.9zm-996.3-27.6v-55.3c0-2.6-2.3-4.9-4.9-4.9H58.1c-2.6 0-4.9 2.3-4.9 4.9v55.3c0 2.6 2.3 4.9 4.9 4.9h55.3c2.7 0 4.9-2.3 4.9-4.9zM1195 595h-51.8c-2.6 0-4.9 2.3-4.9 4.9v55.3c0 2.6 2.3 4.9 4.9 4.9h51.8c2.6 0 4.9-2.3 4.9-4.9v-55.3c0-2.7-2.2-4.9-4.9-4.9z" fill="#f4efef"/><path class="st3" d="M302.3 575.4h55.3c4.2 0 8.1-3.6 8.1-8.1V512c0-4.6-3.6-8.1-8.1-8.1h-55.3c-4.6 0-8.1 3.6-8.1 8.1v55.3c0 4.6 3.5 8.1 8.1 8.1zm-6.5-63.5c0-3.6 2.9-6.5 6.5-6.5h55.3c3.6 0 6.5 2.9 6.5 6.5v55.3c0 3.6-2.9 6.5-6.5 6.5h-55.3c-3.6 0-6.5-2.9-6.5-6.5v-55.3zm8.1-263.7v55.3c0 4.6 3.6 8.1 8.1 8.1h55.3c4.2 0 8.1-3.6 8.1-8.1v-55.3c0-4.6-3.6-8.1-8.1-8.1H312c-4.5 0-8.1 3.6-8.1 8.1zm8.2-6.5h55.3c3.6 0 6.5 2.9 6.5 6.5v55.3c0 3.6-2.9 6.5-6.5 6.5h-55.3c-3.6 0-6.5-2.9-6.5-6.5v-55.3c0-3.6 2.9-6.5 6.5-6.5zM69.5 218.9v-32.6c0-4.6-3.6-8.1-8.1-8.1H9.6c-4.6 0-8.1 3.6-8.1 8.1v32.6c0 4.6 3.6 8.1 8.1 8.1h51.8c4.2.1 8.1-3.5 8.1-8.1zm-66.4 0v-32.6c0-3.6 2.9-6.5 6.5-6.5h51.8c3.6 0 6.5 2.9 6.5 6.5v32.6c0 3.6-2.9 6.5-6.5 6.5H9.6c-3.6 0-6.5-2.9-6.5-6.5zm385.5 29.3v55.3c0 4.6 3.6 8.1 8.1 8.1H452c4.2 0 8.1-3.6 8.1-8.1v-55.3c0-4.6-3.6-8.1-8.1-8.1h-55.3c-4.5 0-8.1 3.6-8.1 8.1zm8.1-6.5H452c3.6 0 6.5 2.9 6.5 6.5v55.3c0 3.6-2.9 6.5-6.5 6.5h-55.3c-3.6 0-6.5-2.9-6.5-6.5v-55.3c0-3.6 2.9-6.5 6.5-6.5zm-64.8-14.6h51.8c4.2 0 8.1-3.6 8.1-8.1v-32.6c0-4.6-3.6-8.1-8.1-8.1h-51.8c-4.6 0-8.1 3.6-8.1 8.1V219c0 4.5 3.6 8.1 8.1 8.1zm-6.5-40.7c0-3.6 2.9-6.5 6.5-6.5h51.8c3.6 0 6.5 2.9 6.5 6.5V219c0 3.6-2.9 6.5-6.5 6.5h-51.8c-3.6 0-6.5-2.9-6.5-6.5v-32.6zm82.7 293V424c0-4.6-3.6-8.1-8.1-8.1h-55.3c-4.6 0-8.1 3.6-8.1 8.1v55.3c0 4.6 3.6 8.1 8.1 8.1H400c4.2.1 8.1-3.5 8.1-8zm-70 0V424c0-3.6 2.9-6.5 6.5-6.5H400c3.6 0 6.5 2.9 6.5 6.5v55.3c0 3.6-2.9 6.5-6.5 6.5h-55.3c-3.7.1-6.6-2.8-6.6-6.4zm-167-252.3h51.8c4.6 0 8.1-3.6 8.1-8.1v-32.6c0-4.6-3.6-8.1-8.1-8.1h-51.8c-4.6 0-8.1 3.6-8.1 8.1V219c0 4.5 3.5 8.1 8.1 8.1zm-6.5-40.7c0-3.6 2.9-6.5 6.5-6.5h51.8c3.6 0 6.5 2.9 6.5 6.5V219c0 3.6-2.9 6.5-6.5 6.5h-51.8c-3.6 0-6.5-2.9-6.5-6.5v-32.6zM413 227.1h51.8c4.6 0 8.1-3.6 8.1-8.1v-32.6c0-4.6-3.6-8.1-8.1-8.1H413c-4.6 0-8.1 3.6-8.1 8.1V219c0 4.5 3.5 8.1 8.1 8.1zm-6.5-40.7c0-3.6 2.9-6.5 6.5-6.5h51.8c3.6 0 6.5 2.9 6.5 6.5V219c0 3.6-2.9 6.5-6.5 6.5H413c-3.6 0-6.5-2.9-6.5-6.5v-32.6zM90.7 227.1h51.8c4.6 0 8.1-3.6 8.1-8.1v-32.6c0-4.6-3.6-8.1-8.1-8.1H90.7c-4.6 0-8.1 3.6-8.1 8.1V219c-.1 4.5 3.5 8.1 8.1 8.1zm-6.5-40.7c0-3.6 2.9-6.5 6.5-6.5h51.8c3.6 0 6.5 2.9 6.5 6.5V219c0 3.6-2.9 6.5-6.5 6.5H90.7c-3.6 0-6.5-2.9-6.5-6.5v-32.6zm167.3 40.7h51.8c4.2 0 8.1-3.6 8.1-8.1v-32.6c0-4.6-3.6-8.1-8.1-8.1h-51.8c-4.6 0-8.1 3.6-8.1 8.1V219c0 4.5 3.6 8.1 8.1 8.1zm-6.5-40.7c0-3.6 2.9-6.5 6.5-6.5h51.8c3.6 0 6.5 2.9 6.5 6.5V219c0 3.6-2.9 6.5-6.5 6.5h-51.8c-3.6 0-6.5-2.9-6.5-6.5v-32.6zm410.6 149.7v55.3c0 4.6 3.6 8.1 8.1 8.1H719c4.2 0 8.1-3.6 8.1-8.1v-55.3c0-4.6-3.6-8.1-8.1-8.1h-55.3c-4.6 0-8.1 3.6-8.1 8.1zm70 0v55.3c0 3.6-2.9 6.5-6.5 6.5h-55.3c-3.6 0-6.5-2.9-6.5-6.5v-55.3c0-3.6 2.9-6.5 6.5-6.5H719c3.6 0 6.6 2.9 6.6 6.5zm-74.9-24.4H706c4.2 0 8.1-3.6 8.1-8.1v-55.3c0-4.6-3.6-8.1-8.1-8.1h-55.3c-4.6 0-8.1 3.6-8.1 8.1v55.3c-.1 4.5 3.5 8.1 8.1 8.1zm-6.5-63.5c0-3.6 2.9-6.5 6.5-6.5H706c3.6 0 6.5 2.9 6.5 6.5v55.3c0 3.6-2.9 6.5-6.5 6.5h-55.3c-3.6 0-6.5-2.9-6.5-6.5v-55.3zm10.1-21.1H706c4.2 0 8.1-3.6 8.1-8.1v-32.6c0-4.6-3.6-8.1-8.1-8.1h-51.8c-4.6 0-8.1 3.6-8.1 8.1V219c0 4.5 3.6 8.1 8.2 8.1zm-6.6-40.7c0-3.6 2.9-6.5 6.5-6.5H706c3.6 0 6.5 2.9 6.5 6.5V219c0 3.6-2.9 6.5-6.5 6.5h-51.8c-3.6 0-6.5-2.9-6.5-6.5v-32.6zm-49.1 229.5c-4.6 0-8.1 3.6-8.1 8.1v55.3c0 4.6 3.6 8.1 8.1 8.1h55.3c4.2 0 8.1-3.6 8.1-8.1V424c0-4.6-3.6-8.1-8.1-8.1h-55.3zm61.8 8.1v55.3c0 3.6-2.9 6.5-6.5 6.5h-55.3c-3.6 0-6.5-2.9-6.5-6.5V424c0-3.6 2.9-6.5 6.5-6.5h55.3c3.6 0 6.5 3 6.5 6.5zm-89.5-87.9v55.3c0 4.6 3.6 8.1 8.1 8.1h55.3c4.2 0 8.1-3.6 8.1-8.1v-55.3c0-4.6-3.6-8.1-8.1-8.1H579c-4.5 0-8.1 3.6-8.1 8.1zm70 0v55.3c0 3.6-2.9 6.5-6.5 6.5H579c-3.6 0-6.5-2.9-6.5-6.5v-55.3c0-3.6 2.9-6.5 6.5-6.5h55.3c3.7 0 6.6 2.9 6.6 6.5zm90.2-109h51.8c4.6 0 8.1-3.6 8.1-8.1v-32.6c0-4.6-3.6-8.1-8.1-8.1h-51.8c-4.6 0-8.1 3.6-8.1 8.1V219c0 4.5 3.5 8.1 8.1 8.1zm-6.5-40.7c0-3.6 2.9-6.5 6.5-6.5h51.8c3.6 0 6.5 2.9 6.5 6.5V219c0 3.6-2.9 6.5-6.5 6.5h-51.8c-3.6 0-6.5-2.9-6.5-6.5v-32.6zm-150.8 40.7h51.8c4.2 0 8.1-3.6 8.1-8.1v-32.6c0-4.6-3.6-8.1-8.1-8.1h-51.8c-4.6 0-8.1 3.6-8.1 8.1V219c0 4.5 3.6 8.1 8.1 8.1zm-6.5-40.7c0-3.6 2.9-6.5 6.5-6.5h51.8c3.6 0 6.5 2.9 6.5 6.5V219c0 3.6-2.9 6.5-6.5 6.5h-51.8c-3.6 0-6.5-2.9-6.5-6.5v-32.6zm-53.4 229.5c-4.6 0-8.1 3.6-8.1 8.1v55.3c0 4.6 3.6 8.1 8.1 8.1h55.3c4.2 0 8.1-3.6 8.1-8.1V424c0-4.6-3.6-8.1-8.1-8.1h-55.3zm61.9 8.1v55.3c0 3.6-2.9 6.5-6.5 6.5H514c-3.6 0-6.5-2.9-6.5-6.5V424c0-3.6 2.9-6.5 6.5-6.5h55.3c3.6 0 6.5 3 6.5 6.5zm235.7-196.9h51.8c4.2 0 8.1-3.6 8.1-8.1v-32.6c0-4.6-3.6-8.1-8.1-8.1h-51.8c-4.6 0-8.1 3.6-8.1 8.1V219c0 4.5 3.6 8.1 8.1 8.1zm-6.5-40.7c0-3.6 2.9-6.5 6.5-6.5h51.8c3.6 0 6.5 2.9 6.5 6.5V219c0 3.6-2.9 6.5-6.5 6.5h-51.8c-3.6 0-6.5-2.9-6.5-6.5v-32.6zM50 391.5v-55.3c0-4.6-3.6-8.1-8.1-8.1H0v1.6h41.8c3.6 0 6.5 2.9 6.5 6.5v55.3c0 3.6-2.9 6.5-6.5 6.5H0v1.6h41.8c4.3 0 8.2-3.6 8.2-8.1zm-13-87.9v-55.3c0-4.6-3.6-8.1-8.1-8.1H0v1.6h28.8c3.6 0 6.5 2.9 6.5 6.5v55.3c0 3.6-2.9 6.5-6.5 6.5H0v1.6h28.8c4.2 0 8.2-3.6 8.2-8.1zm698.3-63.5c-4.6 0-8.1 3.6-8.1 8.1v55.3c0 4.6 3.6 8.1 8.1 8.1h55.3c4.2 0 8.1-3.6 8.1-8.1v-55.3c0-4.6-3.6-8.1-8.1-8.1h-55.3zm61.9 8.1v55.3c0 3.6-2.9 6.5-6.5 6.5h-55.3c-3.6 0-6.5-2.9-6.5-6.5v-55.3c0-3.6 2.9-6.5 6.5-6.5h55.3c3.6 0 6.5 2.9 6.5 6.5zM6 487.5h55.3c4.2 0 8.1-3.6 8.1-8.1V424c0-4.6-3.6-8.1-8.1-8.1H6c-2.4 0-4.5 1-6 2.6v3c1-2.4 3.3-4.1 6-4.1h55.3c3.6 0 6.5 2.9 6.5 6.5v55.3c0 3.6-2.9 6.5-6.5 6.5H6c-2.7 0-5-1.7-6-4.1v3c1.5 1.9 3.6 2.9 6 2.9zm677.2-71.6c-4.6 0-8.1 3.6-8.1 8.1v55.3c0 4.6 3.6 8.1 8.1 8.1h55.3c4.2 0 8.1-3.6 8.1-8.1V424c0-4.6-3.6-8.1-8.1-8.1h-55.3zm61.9 8.1v55.3c0 3.6-2.9 6.5-6.5 6.5h-55.3c-3.6 0-6.5-2.9-6.5-6.5V424c0-3.6 2.9-6.5 6.5-6.5h55.3c3.6 0 6.5 3 6.5 6.5zm58.6-24.4c4.2 0 8.1-3.6 8.1-8.1v-55.3c0-4.6-3.6-8.1-8.1-8.1h-55.3c-4.6 0-8.1 3.6-8.1 8.1v55.3c0 4.6 3.6 8.1 8.1 8.1h55.3zm-61.9-8.1v-55.3c0-3.6 2.9-6.5 6.5-6.5h55.3c3.6 0 6.5 2.9 6.5 6.5v55.3c0 3.6-2.9 6.5-6.5 6.5h-55.3c-3.5 0-6.5-2.9-6.5-6.5zM566 311.7h55.3c4.2 0 8.1-3.6 8.1-8.1v-55.3c0-4.6-3.6-8.1-8.1-8.1H566c-4.6 0-8.1 3.6-8.1 8.1v55.3c0 4.5 3.6 8.1 8.1 8.1zm-6.5-63.5c0-3.6 2.9-6.5 6.5-6.5h55.3c3.6 0 6.5 2.9 6.5 6.5v55.3c0 3.6-2.9 6.5-6.5 6.5H566c-3.6 0-6.5-2.9-6.5-6.5v-55.3zM429.3 415.9c-4.6 0-8.1 3.6-8.1 8.1v55.3c0 4.6 3.6 8.1 8.1 8.1h55.3c4.2 0 8.1-3.6 8.1-8.1V424c0-4.6-3.6-8.1-8.1-8.1h-55.3zm61.8 8.1v55.3c0 3.6-2.9 6.5-6.5 6.5h-55.3c-3.6 0-6.5-2.9-6.5-6.5V424c0-3.6 2.9-6.5 6.5-6.5h55.3c3.6 0 6.5 3 6.5 6.5zm-252.3 55.4V424c0-4.6-3.6-8.1-8.1-8.1h-55.3c-4.6 0-8.1 3.6-8.1 8.1v55.3c0 4.6 3.6 8.1 8.1 8.1h55.3c4.2.1 8.1-3.5 8.1-8zm-70 0V424c0-3.6 2.9-6.5 6.5-6.5h55.3c3.6 0 6.5 2.9 6.5 6.5v55.3c0 3.6-2.9 6.5-6.5 6.5h-55.3c-3.6.1-6.5-2.8-6.5-6.4zm-35.8 96h55.3c4.2 0 8.1-3.6 8.1-8.1V512c0-4.6-3.6-8.1-8.1-8.1H133c-4.6 0-8.1 3.6-8.1 8.1v55.3c0 4.6 3.5 8.1 8.1 8.1zm-6.5-63.5c0-3.6 2.9-6.5 6.5-6.5h55.3c3.6 0 6.5 2.9 6.5 6.5v55.3c0 3.6-2.9 6.5-6.5 6.5H133c-3.6 0-6.5-2.9-6.5-6.5v-55.3zm156.3-271.8h-55.3c-4.6 0-8.1 3.6-8.1 8.1v55.3c0 4.6 3.6 8.1 8.1 8.1h55.3c4.2 0 8.1-3.6 8.1-8.1v-55.3c0-4.5-3.6-8.1-8.1-8.1zm6.5 63.5c0 3.6-2.9 6.5-6.5 6.5h-55.3c-3.6 0-6.5-2.9-6.5-6.5v-55.3c0-3.6 2.9-6.5 6.5-6.5h55.3c3.6 0 6.5 2.9 6.5 6.5v55.3zm-71.6 271.8H273c4.2 0 8.1-3.6 8.1-8.1V512c0-4.6-3.6-8.1-8.1-8.1h-55.3c-4.6 0-8.1 3.6-8.1 8.1v55.3c-.1 4.6 3.5 8.1 8.1 8.1zm-6.6-63.5c0-3.6 2.9-6.5 6.5-6.5H273c3.6 0 6.5 2.9 6.5 6.5v55.3c0 3.6-2.9 6.5-6.5 6.5h-55.3c-3.6 0-6.5-2.9-6.5-6.5v-55.3zm112.4-32.5V424c0-4.6-3.6-8.1-8.1-8.1H260c-4.6 0-8.1 3.6-8.1 8.1v55.3c0 4.6 3.6 8.1 8.1 8.1h55.3c4.3.1 8.2-3.5 8.2-8zm-70 0V424c0-3.6 2.9-6.5 6.5-6.5h55.3c3.6 0 6.5 2.9 6.5 6.5v55.3c0 3.6-2.9 6.5-6.5 6.5H260c-3.6.1-6.5-2.8-6.5-6.4zM82.5 424v55.3c0 4.6 3.6 8.1 8.1 8.1H146c4.2 0 8.1-3.6 8.1-8.1V424c0-4.6-3.6-8.1-8.1-8.1H90.7c-4.6 0-8.2 3.6-8.2 8.1zm70 0v55.3c0 3.6-2.9 6.5-6.5 6.5H90.7c-3.6 0-6.5-2.9-6.5-6.5V424c0-3.6 2.9-6.5 6.5-6.5H146c3.6 0 6.5 3 6.5 6.5zm79.8-87.9v55.3c0 4.6 3.6 8.1 8.1 8.1h55.3c4.2 0 8.1-3.6 8.1-8.1v-55.3c0-4.6-3.6-8.1-8.1-8.1h-55.3c-4.5 0-8.1 3.6-8.1 8.1zm70 0v55.3c0 3.6-2.9 6.5-6.5 6.5h-55.3c-3.6 0-6.5-2.9-6.5-6.5v-55.3c0-3.6 2.9-6.5 6.5-6.5h55.3c3.6 0 6.5 2.9 6.5 6.5zm179.1-24.4h55.3c4.2 0 8.1-3.6 8.1-8.1v-55.3c0-4.6-3.6-8.1-8.1-8.1h-55.3c-4.6 0-8.1 3.6-8.1 8.1v55.3c-.1 4.5 3.5 8.1 8.1 8.1zm-6.5-63.5c0-3.6 2.9-6.5 6.5-6.5h55.3c3.6 0 6.5 2.9 6.5 6.5v55.3c0 3.6-2.9 6.5-6.5 6.5h-55.3c-3.6 0-6.5-2.9-6.5-6.5v-55.3zm-327.2 87.9v55.3c0 4.6 3.6 8.1 8.1 8.1h55.3c4.2 0 8.1-3.6 8.1-8.1v-55.3c0-4.6-3.6-8.1-8.1-8.1h-55.3c-4.6 0-8.1 3.6-8.1 8.1zm70 0v55.3c0 3.6-2.9 6.5-6.5 6.5h-55.3c-3.6 0-6.5-2.9-6.5-6.5v-55.3c0-3.6 2.9-6.5 6.5-6.5h55.3c3.5 0 6.5 2.9 6.5 6.5zm162.7 63.5c4.2 0 8.1-3.6 8.1-8.1v-55.3c0-4.6-3.6-8.1-8.1-8.1h-55.3c-4.6 0-8.1 3.6-8.1 8.1v55.3c0 4.6 3.6 8.1 8.1 8.1h55.3zm-61.8-8.1v-55.3c0-3.6 2.9-6.5 6.5-6.5h55.3c3.6 0 6.5 2.9 6.5 6.5v55.3c0 3.6-2.9 6.5-6.5 6.5h-55.3c-3.6 0-6.5-2.9-6.5-6.5zM494.4 328c-4.6 0-8.1 3.6-8.1 8.1v55.3c0 4.6 3.6 8.1 8.1 8.1h55.3c4.2 0 8.1-3.6 8.1-8.1v-55.3c0-4.6-3.6-8.1-8.1-8.1h-55.3zm61.9 8.1v55.3c0 3.6-2.9 6.5-6.5 6.5h-55.3c-3.6 0-6.5-2.9-6.5-6.5v-55.3c0-3.6 2.9-6.5 6.5-6.5h55.3c3.5 0 6.5 2.9 6.5 6.5zm-62.9-109h51.8c4.6 0 8.1-3.6 8.1-8.1v-32.6c0-4.6-3.6-8.1-8.1-8.1h-51.8c-4.6 0-8.1 3.6-8.1 8.1V219c0 4.5 3.6 8.1 8.1 8.1zm-6.5-40.7c0-3.6 2.9-6.5 6.5-6.5h51.8c3.6 0 6.5 2.9 6.5 6.5V219c0 3.6-2.9 6.5-6.5 6.5h-51.8c-3.6 0-6.5-2.9-6.5-6.5v-32.6zm-288.8 53.7h-55.3c-4.6 0-8.1 3.6-8.1 8.1v55.3c0 4.6 3.6 8.1 8.1 8.1h55.3c4.2 0 8.1-3.6 8.1-8.1v-55.3c.1-4.5-3.5-8.1-8.1-8.1zm6.5 63.5c0 3.6-2.9 6.5-6.5 6.5h-55.3c-3.6 0-6.5-2.9-6.5-6.5v-55.3c0-3.6 2.9-6.5 6.5-6.5h55.3c3.6 0 6.5 2.9 6.5 6.5v55.3zM465.1 328h-55.3c-4.6 0-8.1 3.6-8.1 8.1v55.3c0 4.6 3.6 8.1 8.1 8.1h55.3c4.2 0 8.1-3.6 8.1-8.1v-55.3c0-4.5-3.5-8.1-8.1-8.1zm6.5 63.5c0 3.6-2.9 6.5-6.5 6.5h-55.3c-3.6 0-6.5-2.9-6.5-6.5v-55.3c0-3.6 2.9-6.5 6.5-6.5h55.3c3.6 0 6.5 2.9 6.5 6.5v55.3zM27.2 567.3V512c0-4.6-3.6-8.1-8.1-8.1H0v1.6h19c3.6 0 6.5 2.9 6.5 6.5v55.3c0 3.6-2.9 6.5-6.5 6.5H0v1.6h19c4.3 0 8.2-3.5 8.2-8.1zm1168.2-151.4h-51.8c-4.6 0-8.1 3.6-8.1 8.1v55.3c0 4.6 3.6 8.1 8.1 8.1h51.8c4.2 0 8.1-3.6 8.1-8.1V424c0-4.5-3.6-8.1-8.1-8.1zm6.5 63.5c0 3.6-2.9 6.5-6.5 6.5h-51.8c-3.6 0-6.5-2.9-6.5-6.5V424c0-3.6 2.9-6.5 6.5-6.5h51.8c3.6 0 6.5 2.9 6.5 6.5v55.4zm-86.9-63.5h-51.8c-4.6 0-8.1 3.6-8.1 8.1v55.3c0 4.6 3.6 8.1 8.1 8.1h51.8c4.6 0 8.1-3.6 8.1-8.1V424c0-4.5-3.6-8.1-8.1-8.1zm6.5 63.5c0 3.6-2.9 6.5-6.5 6.5h-51.8c-3.6 0-6.5-2.9-6.5-6.5V424c0-3.6 2.9-6.5 6.5-6.5h51.8c3.6 0 6.5 2.9 6.5 6.5v55.4zM943.7 178.2h-51.8c-4.6 0-8.1 3.6-8.1 8.1v32.6c0 4.6 3.6 8.1 8.1 8.1h51.8c4.2 0 8.1-3.6 8.1-8.1v-32.6c0-4.5-3.5-8.1-8.1-8.1zm6.5 40.7c0 3.6-2.9 6.5-6.5 6.5h-51.8c-3.6 0-6.5-2.9-6.5-6.5v-32.6c0-3.6 2.9-6.5 6.5-6.5h51.8c3.6 0 6.5 2.9 6.5 6.5v32.6zM774.4 591.7H719c-4.6 0-8.1 3.6-8.1 8.1v55.3c0 4.6 3.6 8.1 8.1 8.1h55.3c4.2 0 8.1-3.6 8.1-8.1v-55.3c.1-4.5-3.4-8.1-8-8.1zm6.5 63.5c0 3.6-2.9 6.5-6.5 6.5H719c-3.6 0-6.5-2.9-6.5-6.5v-55.3c0-3.6 2.9-6.5 6.5-6.5h55.3c3.6 0 6.5 2.9 6.5 6.5v55.3zm-84.6-151.4H641c-4.6 0-8.1 3.6-8.1 8.1v55.3c0 4.6 3.6 8.1 8.1 8.1h55.3c4.2 0 8.1-3.6 8.1-8.1v-55.3c0-4.5-3.6-8.1-8.1-8.1zm6.5 63.5c0 3.6-2.9 6.5-6.5 6.5H641c-3.6 0-6.5-2.9-6.5-6.5V512c0-3.6 2.9-6.5 6.5-6.5h55.3c3.6 0 6.5 2.9 6.5 6.5v55.3zm492.6-63.5h-51.8c-4.6 0-8.1 3.6-8.1 8.1v55.3c0 4.6 3.6 8.1 8.1 8.1h51.8c4.2 0 8.1-3.6 8.1-8.1v-55.3c0-4.5-3.6-8.1-8.1-8.1zm6.5 63.5c0 3.6-2.9 6.5-6.5 6.5h-51.8c-3.6 0-6.5-2.9-6.5-6.5V512c0-3.6 2.9-6.5 6.5-6.5h51.8c3.6 0 6.5 2.9 6.5 6.5v55.3zm-86.9-63.5h-51.8c-4.6 0-8.1 3.6-8.1 8.1v55.3c0 4.6 3.6 8.1 8.1 8.1h51.8c4.6 0 8.1-3.6 8.1-8.1v-55.3c0-4.5-3.6-8.1-8.1-8.1zm6.5 63.5c0 3.6-2.9 6.5-6.5 6.5h-51.8c-3.6 0-6.5-2.9-6.5-6.5V512c0-3.6 2.9-6.5 6.5-6.5h51.8c3.6 0 6.5 2.9 6.5 6.5v55.3zm-93.2 24.4H973c-4.6 0-8.1 3.6-8.1 8.1v55.3c0 4.6 3.6 8.1 8.1 8.1h55.3c4.2 0 8.1-3.6 8.1-8.1v-55.3c.1-4.5-3.5-8.1-8.1-8.1zm6.6 63.5c0 3.6-2.9 6.5-6.5 6.5H973c-3.6 0-6.5-2.9-6.5-6.5v-55.3c0-3.6 2.9-6.5 6.5-6.5h55.3c3.6 0 6.5 2.9 6.5 6.5v55.3zM611.6 503.8h-55.3c-4.6 0-8.1 3.6-8.1 8.1v55.3c0 4.6 3.6 8.1 8.1 8.1h55.3c4.2 0 8.1-3.6 8.1-8.1v-55.3c0-4.5-3.5-8.1-8.1-8.1zm6.5 63.5c0 3.6-2.9 6.5-6.5 6.5h-55.3c-3.6 0-6.5-2.9-6.5-6.5V512c0-3.6 2.9-6.5 6.5-6.5h55.3c3.6 0 6.5 2.9 6.5 6.5v55.3zm71.6 24.4h-55.3c-4.6 0-8.1 3.6-8.1 8.1v55.3c0 4.6 3.6 8.1 8.1 8.1h55.3c4.2 0 8.1-3.6 8.1-8.1v-55.3c.1-4.5-3.5-8.1-8.1-8.1zm6.6 63.5c0 3.6-2.9 6.5-6.5 6.5h-55.3c-3.6 0-6.5-2.9-6.5-6.5v-55.3c0-3.6 2.9-6.5 6.5-6.5h55.3c3.6 0 6.5 2.9 6.5 6.5v55.3zM1195.4 328h-51.8c-4.6 0-8.1 3.6-8.1 8.1v55.3c0 4.6 3.6 8.1 8.1 8.1h51.8c4.2 0 8.1-3.6 8.1-8.1v-55.3c0-4.5-3.6-8.1-8.1-8.1zm6.5 63.5c0 3.6-2.9 6.5-6.5 6.5h-51.8c-3.6 0-6.5-2.9-6.5-6.5v-55.3c0-3.6 2.9-6.5 6.5-6.5h51.8c3.6 0 6.5 2.9 6.5 6.5v55.3zM1115 328h-51.8c-4.6 0-8.1 3.6-8.1 8.1v55.3c0 4.6 3.6 8.1 8.1 8.1h51.8c4.6 0 8.1-3.6 8.1-8.1v-55.3c0-4.5-3.6-8.1-8.1-8.1zm6.5 63.5c0 3.6-2.9 6.5-6.5 6.5h-51.8c-3.6 0-6.5-2.9-6.5-6.5v-55.3c0-3.6 2.9-6.5 6.5-6.5h51.8c3.6 0 6.5 2.9 6.5 6.5v55.3zM943.7 328H833c-4.6 0-8.1 3.6-8.1 8.1v55.3c0 4.6 3.6 8.1 8.1 8.1h110.7c4.2 0 8.1-3.6 8.1-8.1v-55.3c0-4.5-3.5-8.1-8.1-8.1zm6.5 63.5c0 3.6-2.9 6.5-6.5 6.5H833c-3.6 0-6.5-2.9-6.5-6.5v-55.3c0-3.6 2.9-6.5 6.5-6.5h110.7c3.6 0 6.5 2.9 6.5 6.5v55.3zm-6.5 112.3h-55.3c-4.6 0-8.1 3.6-8.1 8.1v55.3c0 4.6 3.6 8.1 8.1 8.1h55.3c4.2 0 8.1-3.6 8.1-8.1v-55.3c0-4.5-3.5-8.1-8.1-8.1zm6.5 63.5c0 3.6-2.9 6.5-6.5 6.5h-55.3c-3.6 0-6.5-2.9-6.5-6.5V512c0-3.6 2.9-6.5 6.5-6.5h55.3c3.6 0 6.5 2.9 6.5 6.5v55.3zm-6.5-151.4H767.9c-4.6 0-8.1 3.6-8.1 8.1v55.3c0 4.6 3.6 8.1 8.1 8.1h175.8c4.2 0 8.1-3.6 8.1-8.1V424c0-4.5-3.5-8.1-8.1-8.1zm6.5 63.5c0 3.6-2.9 6.5-6.5 6.5H767.9c-3.6 0-6.5-2.9-6.5-6.5V424c0-3.6 2.9-6.5 6.5-6.5h175.8c3.6 0 6.5 2.9 6.5 6.5v55.4zM1115 178.2h-51.8c-4.6 0-8.1 3.6-8.1 8.1v32.6c0 4.6 3.6 8.1 8.1 8.1h51.8c4.6 0 8.1-3.6 8.1-8.1v-32.6c0-4.5-3.6-8.1-8.1-8.1zm6.5 40.7c0 3.6-2.9 6.5-6.5 6.5h-51.8c-3.6 0-6.5-2.9-6.5-6.5v-32.6c0-3.6 2.9-6.5 6.5-6.5h51.8c3.6 0 6.5 2.9 6.5 6.5v32.6zm-6.5 21.2h-51.8c-4.6 0-8.1 3.6-8.1 8.1v55.3c0 4.6 3.6 8.1 8.1 8.1h51.8c4.6 0 8.1-3.6 8.1-8.1v-55.3c0-4.5-3.6-8.1-8.1-8.1zm6.5 63.5c0 3.6-2.9 6.5-6.5 6.5h-51.8c-3.6 0-6.5-2.9-6.5-6.5v-55.3c0-3.6 2.9-6.5 6.5-6.5h51.8c3.6 0 6.5 2.9 6.5 6.5v55.3zM859 591.7h-55.3c-4.6 0-8.1 3.6-8.1 8.1v55.3c0 4.6 3.6 8.1 8.1 8.1H859c4.2 0 8.1-3.6 8.1-8.1v-55.3c.1-4.5-3.5-8.1-8.1-8.1zm6.6 63.5c0 3.6-2.9 6.5-6.5 6.5h-55.3c-3.6 0-6.5-2.9-6.5-6.5v-55.3c0-3.6 2.9-6.5 6.5-6.5H859c3.6 0 6.5 2.9 6.5 6.5v55.3zm329.8-63.5h-51.8c-4.6 0-8.1 3.6-8.1 8.1v55.3c0 4.6 3.6 8.1 8.1 8.1h51.8c4.2 0 8.1-3.6 8.1-8.1v-55.3c0-4.5-3.6-8.1-8.1-8.1zm6.5 63.5c0 3.6-2.9 6.5-6.5 6.5h-51.8c-3.6 0-6.5-2.9-6.5-6.5v-55.3c0-3.6 2.9-6.5 6.5-6.5h51.8c3.6 0 6.5 2.9 6.5 6.5v55.3zM859 503.8H725.6c-4.6 0-8.1 3.6-8.1 8.1v55.3c0 4.6 3.6 8.1 8.1 8.1H859c4.2 0 8.1-3.6 8.1-8.1v-55.3c.1-4.5-3.5-8.1-8.1-8.1zm6.6 63.5c0 3.6-2.9 6.5-6.5 6.5H725.6c-3.6 0-6.5-2.9-6.5-6.5V512c0-3.6 2.9-6.5 6.5-6.5H859c3.6 0 6.5 2.9 6.5 6.5v55.3zm329.8-327.2h-51.8c-4.6 0-8.1 3.6-8.1 8.1v55.3c0 4.6 3.6 8.1 8.1 8.1h51.8c4.2 0 8.1-3.6 8.1-8.1v-55.3c0-4.5-3.6-8.1-8.1-8.1zm6.5 63.5c0 3.6-2.9 6.5-6.5 6.5h-51.8c-3.6 0-6.5-2.9-6.5-6.5v-55.3c0-3.6 2.9-6.5 6.5-6.5h51.8c3.6 0 6.5 2.9 6.5 6.5v55.3zm-258.2-63.5H820c-4.6 0-8.1 3.6-8.1 8.1v55.3c0 4.6 3.6 8.1 8.1 8.1h123.7c4.2 0 8.1-3.6 8.1-8.1v-55.3c0-4.5-3.5-8.1-8.1-8.1zm6.5 63.5c0 3.6-2.9 6.5-6.5 6.5H820c-3.6 0-6.5-2.9-6.5-6.5v-55.3c0-3.6 2.9-6.5 6.5-6.5h123.7c3.6 0 6.5 2.9 6.5 6.5v55.3zm-6.5 288.1h-55.3c-4.6 0-8.1 3.6-8.1 8.1v55.3c0 4.6 3.6 8.1 8.1 8.1h55.3c4.2 0 8.1-3.6 8.1-8.1v-55.3c0-4.5-3.5-8.1-8.1-8.1zm6.5 63.5c0 3.6-2.9 6.5-6.5 6.5h-55.3c-3.6 0-6.5-2.9-6.5-6.5v-55.3c0-3.6 2.9-6.5 6.5-6.5h55.3c3.6 0 6.5 2.9 6.5 6.5v55.3zm325.6-415.1H1224c-4.6 0-8.1 3.6-8.1 8.1v55.3c0 4.6 3.6 8.1 8.1 8.1h51.8c4.2 0 8.1-3.6 8.1-8.1v-55.3c0-4.5-3.6-8.1-8.1-8.1zm6.5 63.5c0 3.6-2.9 6.5-6.5 6.5H1224c-3.6 0-6.5-2.9-6.5-6.5v-55.3c0-3.6 2.9-6.5 6.5-6.5h51.8c3.6 0 6.5 2.9 6.5 6.5v55.3zM605.1 591.7h-55.3c-4.6 0-8.1 3.6-8.1 8.1v55.3c0 4.6 3.6 8.1 8.1 8.1h55.3c4.2 0 8.1-3.6 8.1-8.1v-55.3c0-4.5-3.5-8.1-8.1-8.1zm6.5 63.5c0 3.6-2.9 6.5-6.5 6.5h-55.3c-3.6 0-6.5-2.9-6.5-6.5v-55.3c0-3.6 2.9-6.5 6.5-6.5h55.3c3.6 0 6.5 2.9 6.5 6.5v55.3zM1034.5 328h-51.8c-4.6 0-8.1 3.6-8.1 8.1v55.3c0 4.6 3.6 8.1 8.1 8.1h51.8c4.6 0 8.1-3.6 8.1-8.1v-55.3c.1-4.5-3.5-8.1-8.1-8.1zm6.5 63.5c0 3.6-2.9 6.5-6.5 6.5h-51.8c-3.6 0-6.5-2.9-6.5-6.5v-55.3c0-3.6 2.9-6.5 6.5-6.5h51.8c3.6 0 6.5 2.9 6.5 6.5v55.3zM48.3 575.4h55.3c4.2 0 8.1-3.6 8.1-8.1V512c0-4.6-3.6-8.1-8.1-8.1H48.3c-4.6 0-8.1 3.6-8.1 8.1v55.3c0 4.6 3.6 8.1 8.1 8.1zm-6.5-63.5c0-3.6 2.9-6.5 6.5-6.5h55.3c3.6 0 6.5 2.9 6.5 6.5v55.3c0 3.6-2.9 6.5-6.5 6.5H48.3c-3.6 0-6.5-2.9-6.5-6.5v-55.3zM1115 591.7h-51.8c-4.6 0-8.1 3.6-8.1 8.1v55.3c0 4.6 3.6 8.1 8.1 8.1h51.8c4.6 0 8.1-3.6 8.1-8.1v-55.3c0-4.5-3.6-8.1-8.1-8.1zm6.5 63.5c0 3.6-2.9 6.5-6.5 6.5h-51.8c-3.6 0-6.5-2.9-6.5-6.5v-55.3c0-3.6 2.9-6.5 6.5-6.5h51.8c3.6 0 6.5 2.9 6.5 6.5v55.3zm-685.7-63.5H19c-4.6 0-8.1 3.6-8.1 8.1v55.3c0 4.6 3.6 8.1 8.1 8.1h416.7c4.2 0 8.1-3.6 8.1-8.1v-55.3c.1-4.5-3.5-8.1-8-8.1zm6.5 63.5c0 3.6-2.9 6.5-6.5 6.5H19c-3.6 0-6.5-2.9-6.5-6.5v-55.3c0-3.6 2.9-6.5 6.5-6.5h416.7c3.6 0 6.5 2.9 6.5 6.5v55.3zM1275.8 328H1224c-4.6 0-8.1 3.6-8.1 8.1v143.3c0 4.6 3.6 8.1 8.1 8.1h51.8c4.2 0 8.1-3.6 8.1-8.1V336.1c0-4.5-3.6-8.1-8.1-8.1zm6.5 151.4c0 3.6-2.9 6.5-6.5 6.5H1224c-3.6 0-6.5-2.9-6.5-6.5V336.1c0-3.6 2.9-6.5 6.5-6.5h51.8c3.6 0 6.5 2.9 6.5 6.5v143.3zM126.5 399.6c4.2 0 8.1-3.6 8.1-8.1v-55.3c0-4.6-3.6-8.1-8.1-8.1H71.1c-4.6 0-8.1 3.6-8.1 8.1v55.3c0 4.6 3.6 8.1 8.1 8.1h55.4zm-61.9-8.1v-55.3c0-3.6 2.9-6.5 6.5-6.5h55.3c3.6 0 6.5 2.9 6.5 6.5v55.3c0 3.6-2.9 6.5-6.5 6.5H71.1c-3.5 0-6.5-2.9-6.5-6.5zm1211.2-213.3H1224c-4.6 0-8.1 3.6-8.1 8.1v32.6c0 4.6 3.6 8.1 8.1 8.1h51.8c4.2 0 8.1-3.6 8.1-8.1v-32.6c0-4.5-3.6-8.1-8.1-8.1zm6.5 40.7c0 3.6-2.9 6.5-6.5 6.5H1224c-3.6 0-6.5-2.9-6.5-6.5v-32.6c0-3.6 2.9-6.5 6.5-6.5h51.8c3.6 0 6.5 2.9 6.5 6.5v32.6zM121.6 303.6v-55.3c0-4.6-3.6-8.1-8.1-8.1H58.1c-4.6 0-8.1 3.6-8.1 8.1v55.3c0 4.6 3.6 8.1 8.1 8.1h55.3c4.3 0 8.2-3.6 8.2-8.1zm-70 0v-55.3c0-3.6 2.9-6.5 6.5-6.5h55.3c3.6 0 6.5 2.9 6.5 6.5v55.3c0 3.6-2.9 6.5-6.5 6.5H58.1c-3.6 0-6.5-2.9-6.5-6.5zm982.9-125.4h-51.8c-4.6 0-8.1 3.6-8.1 8.1v32.6c0 4.6 3.6 8.1 8.1 8.1h51.8c4.6 0 8.1-3.6 8.1-8.1v-32.6c.1-4.5-3.5-8.1-8.1-8.1zm6.5 40.7c0 3.6-2.9 6.5-6.5 6.5h-51.8c-3.6 0-6.5-2.9-6.5-6.5v-32.6c0-3.6 2.9-6.5 6.5-6.5h51.8c3.6 0 6.5 2.9 6.5 6.5v32.6zm-6.5 21.2h-51.8c-4.6 0-8.1 3.6-8.1 8.1v55.3c0 4.6 3.6 8.1 8.1 8.1h51.8c4.6 0 8.1-3.6 8.1-8.1v-55.3c.1-4.5-3.5-8.1-8.1-8.1zm6.5 63.5c0 3.6-2.9 6.5-6.5 6.5h-51.8c-3.6 0-6.5-2.9-6.5-6.5v-55.3c0-3.6 2.9-6.5 6.5-6.5h51.8c3.6 0 6.5 2.9 6.5 6.5v55.3zM442.3 503.8H387c-4.6 0-8.1 3.6-8.1 8.1v55.3c0 4.6 3.6 8.1 8.1 8.1h55.3c4.2 0 8.1-3.6 8.1-8.1v-55.3c0-4.5-3.5-8.1-8.1-8.1zm6.5 63.5c0 3.6-2.9 6.5-6.5 6.5H387c-3.6 0-6.5-2.9-6.5-6.5V512c0-3.6 2.9-6.5 6.5-6.5h55.3c3.6 0 6.5 2.9 6.5 6.5v55.3zm71.6 24.4h-55.3c-4.6 0-8.1 3.6-8.1 8.1v55.3c0 4.6 3.6 8.1 8.1 8.1h55.3c4.2 0 8.1-3.6 8.1-8.1v-55.3c.1-4.5-3.5-8.1-8.1-8.1zm6.6 63.5c0 3.6-2.9 6.5-6.5 6.5h-55.3c-3.6 0-6.5-2.9-6.5-6.5v-55.3c0-3.6 2.9-6.5 6.5-6.5h55.3c3.6 0 6.5 2.9 6.5 6.5v55.3zm0-151.4h-55.3c-4.6 0-8.1 3.6-8.1 8.1v55.3c0 4.6 3.6 8.1 8.1 8.1H527c4.2 0 8.1-3.6 8.1-8.1v-55.3c0-4.5-3.6-8.1-8.1-8.1zm6.5 63.5c0 3.6-2.9 6.5-6.5 6.5h-55.3c-3.6 0-6.5-2.9-6.5-6.5V512c0-3.6 2.9-6.5 6.5-6.5H527c3.6 0 6.5 2.9 6.5 6.5v55.3zm661.9-389.1h-51.8c-4.6 0-8.1 3.6-8.1 8.1v32.6c0 4.6 3.6 8.1 8.1 8.1h51.8c4.2 0 8.1-3.6 8.1-8.1v-32.6c0-4.5-3.6-8.1-8.1-8.1zm6.5 40.7c0 3.6-2.9 6.5-6.5 6.5h-51.8c-3.6 0-6.5-2.9-6.5-6.5v-32.6c0-3.6 2.9-6.5 6.5-6.5h51.8c3.6 0 6.5 2.9 6.5 6.5v32.6zm-167.4 284.9h-51.8c-4.6 0-8.1 3.6-8.1 8.1v55.3c0 4.6 3.6 8.1 8.1 8.1h51.8c4.6 0 8.1-3.6 8.1-8.1v-55.3c.1-4.5-3.5-8.1-8.1-8.1zm6.5 63.5c0 3.6-2.9 6.5-6.5 6.5h-51.8c-3.6 0-6.5-2.9-6.5-6.5V512c0-3.6 2.9-6.5 6.5-6.5h51.8c3.6 0 6.5 2.9 6.5 6.5v55.3zm-6.5-151.4h-51.8c-4.6 0-8.1 3.6-8.1 8.1v55.3c0 4.6 3.6 8.1 8.1 8.1h51.8c4.6 0 8.1-3.6 8.1-8.1V424c.1-4.5-3.5-8.1-8.1-8.1zm6.5 63.5c0 3.6-2.9 6.5-6.5 6.5h-51.8c-3.6 0-6.5-2.9-6.5-6.5V424c0-3.6 2.9-6.5 6.5-6.5h51.8c3.6 0 6.5 2.9 6.5 6.5v55.4zm234.8 24.4H1224c-4.6 0-8.1 3.6-8.1 8.1v143.3c0 4.6 3.6 8.1 8.1 8.1h51.8c4.2 0 8.1-3.6 8.1-8.1V511.9c0-4.5-3.6-8.1-8.1-8.1zm6.5 151.4c0 3.6-2.9 6.5-6.5 6.5H1224c-3.6 0-6.5-2.9-6.5-6.5V511.9c0-3.6 2.9-6.5 6.5-6.5h51.8c3.6 0 6.5 2.9 6.5 6.5v143.3z"/><path class="st3" d="M1115 241.7h-51.8c-3.6 0-6.5 2.9-6.5 6.5v55.3c0 3.6 2.9 6.5 6.5 6.5h51.8c3.6 0 6.5-2.9 6.5-6.5v-55.3c0-3.6-3-6.5-6.5-6.5zm4.5 61.9c0 2.6-2.3 4.9-4.9 4.9h-51.8c-2.6 0-4.9-2.3-4.9-4.9v-55.3c0-2.6 2.3-4.9 4.9-4.9h51.8c2.6 0 4.9 2.3 4.9 4.9v55.3zM513.9 417.5c-3.6 0-6.5 2.9-6.5 6.5v55.3c0 3.6 2.9 6.5 6.5 6.5h55.3c3.6 0 6.5-2.9 6.5-6.5V424c0-3.6-2.9-6.5-6.5-6.5h-55.3zm60.3 6.5v55.3c0 2.6-2.3 4.9-4.9 4.9H514c-2.6 0-4.9-2.3-4.9-4.9V424c0-2.6 2.3-4.9 4.9-4.9h55.3c2.6.1 4.9 2.3 4.9 4.9zm540.8-6.5h-51.8c-3.6 0-6.5 2.9-6.5 6.5v55.3c0 3.6 2.9 6.5 6.5 6.5h51.8c3.6 0 6.5-2.9 6.5-6.5V424c0-3.5-3-6.5-6.5-6.5zm4.5 61.9c0 2.6-2.3 4.9-4.9 4.9h-51.8c-2.6 0-4.9-2.3-4.9-4.9V424c0-2.6 2.3-4.9 4.9-4.9h51.8c2.6 0 4.9 2.3 4.9 4.9v55.4zm-4.5-149.8h-51.8c-3.6 0-6.5 2.9-6.5 6.5v55.3c0 3.6 2.9 6.5 6.5 6.5h51.8c3.6 0 6.5-2.9 6.5-6.5v-55.3c0-3.6-3-6.5-6.5-6.5zm4.5 61.9c0 2.6-2.3 4.9-4.9 4.9h-51.8c-2.6 0-4.9-2.3-4.9-4.9v-55.3c0-2.6 2.3-4.9 4.9-4.9h51.8c2.6 0 4.9 2.3 4.9 4.9v55.3zm-547-55.4v55.3c0 3.6 2.9 6.5 6.5 6.5h55.3c3.6 0 6.5-2.9 6.5-6.5v-55.3c0-3.6-2.9-6.5-6.5-6.5H579c-3.5 0-6.5 2.9-6.5 6.5zm66.8 0v55.3c0 2.6-2.3 4.9-4.9 4.9H579c-2.6 0-4.9-2.3-4.9-4.9v-55.3c0-2.6 2.3-4.9 4.9-4.9h55.3c2.7 0 5 2.3 5 4.9zm15-110.7H706c3.6 0 6.5-2.9 6.5-6.5v-32.6c0-3.6-2.9-6.5-6.5-6.5h-51.8c-3.6 0-6.5 2.9-6.5 6.5v32.6c0 3.6 3 6.5 6.6 6.5zm-5.3-39c0-2.6 2.3-4.9 4.9-4.9h51.8c2.6 0 4.9 2.3 4.9 4.9V219c0 2.6-2.3 4.9-4.9 4.9h-51.8c-2.6 0-4.9-2.3-4.9-4.9v-32.6zm-75.2 39h51.8c3.6 0 6.5-2.9 6.5-6.5v-32.6c0-3.6-2.9-6.5-6.5-6.5h-51.8c-3.6 0-6.5 2.9-6.5 6.5v32.6c0 3.6 3 6.5 6.5 6.5zm-5.2-39c0-2.6 2.3-4.9 4.9-4.9h51.8c2.6 0 4.9 2.3 4.9 4.9V219c0 2.6-2.3 4.9-4.9 4.9h-51.8c-2.6 0-4.9-2.3-4.9-4.9v-32.6zm82.1 123.7H706c3.6 0 6.5-2.9 6.5-6.5v-55.3c0-3.6-2.9-6.5-6.5-6.5h-55.3c-3.6 0-6.5 2.9-6.5 6.5v55.3c0 3.6 2.9 6.5 6.5 6.5zm-4.9-61.9c0-2.6 2.3-4.9 4.9-4.9H706c2.6 0 4.9 2.3 4.9 4.9v55.3c0 2.6-2.3 4.9-4.9 4.9h-55.3c-2.6 0-4.9-2.3-4.9-4.9v-55.3zM1115 593.3h-51.8c-3.6 0-6.5 2.9-6.5 6.5v55.3c0 3.6 2.9 6.5 6.5 6.5h51.8c3.6 0 6.5-2.9 6.5-6.5v-55.3c0-3.5-3-6.5-6.5-6.5zm4.5 61.9c0 2.6-2.3 4.9-4.9 4.9h-51.8c-2.6 0-4.9-2.3-4.9-4.9v-55.3c0-2.6 2.3-4.9 4.9-4.9h51.8c2.6 0 4.9 2.3 4.9 4.9v55.3zm-4.5-149.8h-51.8c-3.6 0-6.5 2.9-6.5 6.5v55.3c0 3.6 2.9 6.5 6.5 6.5h51.8c3.6 0 6.5-2.9 6.5-6.5v-55.3c0-3.5-3-6.5-6.5-6.5zm4.5 61.9c0 2.6-2.3 4.9-4.9 4.9h-51.8c-2.6 0-4.9-2.3-4.9-4.9V512c0-2.6 2.3-4.9 4.9-4.9h51.8c2.6 0 4.9 2.3 4.9 4.9v55.3zm-308-341.9h51.8c3.6 0 6.5-2.9 6.5-6.5v-32.6c0-3.6-2.9-6.5-6.5-6.5h-51.8c-3.6 0-6.5 2.9-6.5 6.5v32.6c0 3.6 2.9 6.5 6.5 6.5zm-5.2-39c0-2.6 2.3-4.9 4.9-4.9H863c2.6 0 4.9 2.3 4.9 4.9V219c0 2.6-2.3 4.9-4.9 4.9h-51.8c-2.6 0-4.9-2.3-4.9-4.9v-32.6zm469.5 143.2H1224c-3.6 0-6.5 2.9-6.5 6.5v143.3c0 3.6 2.9 6.5 6.5 6.5h51.8c3.6 0 6.5-2.9 6.5-6.5V336.1c0-3.6-2.9-6.5-6.5-6.5zm4.5 149.8c0 2.6-2.3 4.9-4.9 4.9h-51.8c-2.6 0-4.9-2.3-4.9-4.9V336.1c0-2.6 2.3-4.9 4.9-4.9h51.8c2.6 0 4.9 2.3 4.9 4.9v143.3zM803.7 398c3.6 0 6.5-2.9 6.5-6.5v-55.3c0-3.6-2.9-6.5-6.5-6.5h-55.3c-3.6 0-6.5 2.9-6.5 6.5v55.3c0 3.6 2.9 6.5 6.5 6.5h55.3zm-60.2-6.5v-55.3c0-2.6 2.3-4.9 4.9-4.9h55.3c2.6 0 4.9 2.3 4.9 4.9v55.3c0 2.6-2.3 4.9-4.9 4.9h-55.3c-2.7 0-4.9-2.3-4.9-4.9zM25.6 567.3V512c0-3.6-2.9-6.5-6.5-6.5H0v1.6h19c2.6 0 4.9 2.3 4.9 4.9v55.3c0 2.6-2.3 4.9-4.9 4.9H0v1.6h19c3.6 0 6.6-2.9 6.6-6.5zM566 310.1h55.3c3.6 0 6.5-2.9 6.5-6.5v-55.3c0-3.6-2.9-6.5-6.5-6.5H566c-3.6 0-6.5 2.9-6.5 6.5v55.3c0 3.6 2.9 6.5 6.5 6.5zm-4.9-61.9c0-2.6 2.3-4.9 4.9-4.9h55.3c2.6 0 4.9 2.3 4.9 4.9v55.3c0 2.6-2.3 4.9-4.9 4.9H566c-2.6 0-4.9-2.3-4.9-4.9v-55.3zM120 303.6v-55.3c0-3.6-2.9-6.5-6.5-6.5H58.1c-3.6 0-6.5 2.9-6.5 6.5v55.3c0 3.6 2.9 6.5 6.5 6.5h55.3c3.6 0 6.6-2.9 6.6-6.5zm-66.8 0v-55.3c0-2.6 2.3-4.9 4.9-4.9h55.3c2.6 0 4.9 2.3 4.9 4.9v55.3c0 2.6-2.3 4.9-4.9 4.9H58.1c-2.6 0-4.9-2.3-4.9-4.9zm1222.6 201.8H1224c-3.6 0-6.5 2.9-6.5 6.5v143.3c0 3.6 2.9 6.5 6.5 6.5h51.8c3.6 0 6.5-2.9 6.5-6.5V511.9c0-3.5-2.9-6.5-6.5-6.5zm4.5 149.8c0 2.6-2.3 4.9-4.9 4.9h-51.8c-2.6 0-4.9-2.3-4.9-4.9V511.9c0-2.6 2.3-4.9 4.9-4.9h51.8c2.6 0 4.9 2.3 4.9 4.9v143.3zM35.3 303.6v-55.3c0-3.6-2.9-6.5-6.5-6.5H0v1.6h28.8c2.6 0 4.9 2.3 4.9 4.9v55.3c0 2.6-2.3 4.9-4.9 4.9H0v1.6h28.8c3.6 0 6.5-2.9 6.5-6.5zm1240.5-123.7H1224c-3.6 0-6.5 2.9-6.5 6.5V219c0 3.6 2.9 6.5 6.5 6.5h51.8c3.6 0 6.5-2.9 6.5-6.5v-32.6c0-3.6-2.9-6.5-6.5-6.5zm4.5 39c0 2.6-2.3 4.9-4.9 4.9h-51.8c-2.6 0-4.9-2.3-4.9-4.9v-32.6c0-2.6 2.3-4.9 4.9-4.9h51.8c2.6 0 4.9 2.3 4.9 4.9v32.6zM48.3 391.5v-55.3c0-3.6-2.9-6.5-6.5-6.5H0v1.6h41.8c2.6 0 4.9 2.3 4.9 4.9v55.3c0 2.6-2.3 4.9-4.9 4.9H0v1.6h41.8c3.6 0 6.5-2.9 6.5-6.5zM6 485.9h55.3c3.6 0 6.5-2.9 6.5-6.5V424c0-3.6-2.9-6.5-6.5-6.5H6c-2.7 0-5 1.7-6 4.1v60.3c1 2.3 3.3 4 6 4zM1.1 424c0-2.6 2.3-4.9 4.9-4.9h55.3c2.6 0 4.9 2.3 4.9 4.9v55.3c0 2.6-2.3 4.9-4.9 4.9H6c-2.6 0-4.9-2.3-4.9-4.9V424zm1274.7-182.3H1224c-3.6 0-6.5 2.9-6.5 6.5v55.3c0 3.6 2.9 6.5 6.5 6.5h51.8c3.6 0 6.5-2.9 6.5-6.5v-55.3c0-3.6-2.9-6.5-6.5-6.5zm4.5 61.9c0 2.6-2.3 4.9-4.9 4.9h-51.8c-2.6 0-4.9-2.3-4.9-4.9v-55.3c0-2.6 2.3-4.9 4.9-4.9h51.8c2.6 0 4.9 2.3 4.9 4.9v55.3zm-545-61.9c-3.6 0-6.5 2.9-6.5 6.5v55.3c0 3.6 2.9 6.5 6.5 6.5h55.3c3.6 0 6.5-2.9 6.5-6.5v-55.3c0-3.6-2.9-6.5-6.5-6.5h-55.3zm60.3 6.5v55.3c0 2.6-2.3 4.9-4.9 4.9h-55.3c-2.6 0-4.9-2.3-4.9-4.9v-55.3c0-2.6 2.3-4.9 4.9-4.9h55.3c2.6 0 4.9 2.3 4.9 4.9zm-138.4 87.9v55.3c0 3.6 2.9 6.5 6.5 6.5H719c3.6 0 6.5-2.9 6.5-6.5v-55.3c0-3.6-2.9-6.5-6.5-6.5h-55.3c-3.6 0-6.5 2.9-6.5 6.5zm66.7 0v55.3c0 2.6-2.3 4.9-4.9 4.9h-55.3c-2.6 0-4.9-2.3-4.9-4.9v-55.3c0-2.6 2.3-4.9 4.9-4.9H719c2.7 0 4.9 2.3 4.9 4.9zm471.5 169.3h-51.8c-3.6 0-6.5 2.9-6.5 6.5v55.3c0 3.6 2.9 6.5 6.5 6.5h51.8c3.6 0 6.5-2.9 6.5-6.5v-55.3c0-3.5-2.9-6.5-6.5-6.5zm4.5 61.9c0 2.6-2.3 4.9-4.9 4.9h-51.8c-2.6 0-4.9-2.3-4.9-4.9V512c0-2.6 2.3-4.9 4.9-4.9h51.8c2.6 0 4.9 2.3 4.9 4.9v55.3zm-4.5-325.6h-51.8c-3.6 0-6.5 2.9-6.5 6.5v55.3c0 3.6 2.9 6.5 6.5 6.5h51.8c3.6 0 6.5-2.9 6.5-6.5v-55.3c0-3.6-2.9-6.5-6.5-6.5zm4.5 61.9c0 2.6-2.3 4.9-4.9 4.9h-51.8c-2.6 0-4.9-2.3-4.9-4.9v-55.3c0-2.6 2.3-4.9 4.9-4.9h51.8c2.6 0 4.9 2.3 4.9 4.9v55.3zM598.6 417.5c-3.6 0-6.5 2.9-6.5 6.5v55.3c0 3.6 2.9 6.5 6.5 6.5h55.3c3.6 0 6.5-2.9 6.5-6.5V424c0-3.6-2.9-6.5-6.5-6.5h-55.3zm60.2 6.5v55.3c0 2.6-2.3 4.9-4.9 4.9h-55.3c-2.6 0-4.9-2.3-4.9-4.9V424c0-2.6 2.3-4.9 4.9-4.9h55.3c2.6.1 4.9 2.3 4.9 4.9zm536.6 169.3h-51.8c-3.6 0-6.5 2.9-6.5 6.5v55.3c0 3.6 2.9 6.5 6.5 6.5h51.8c3.6 0 6.5-2.9 6.5-6.5v-55.3c0-3.5-2.9-6.5-6.5-6.5zm4.5 61.9c0 2.6-2.3 4.9-4.9 4.9h-51.8c-2.6 0-4.9-2.3-4.9-4.9v-55.3c0-2.6 2.3-4.9 4.9-4.9h51.8c2.6 0 4.9 2.3 4.9 4.9v55.3zM731.1 225.4h51.8c3.6 0 6.5-2.9 6.5-6.5v-32.6c0-3.6-2.9-6.5-6.5-6.5h-51.8c-3.6 0-6.5 2.9-6.5 6.5v32.6c0 3.6 2.9 6.5 6.5 6.5zm-5.2-39c0-2.6 2.3-4.9 4.9-4.9h51.8c2.6 0 4.9 2.3 4.9 4.9V219c0 2.6-2.3 4.9-4.9 4.9h-51.8c-2.6 0-4.9-2.3-4.9-4.9v-32.6zm-42.7 231.1c-3.6 0-6.5 2.9-6.5 6.5v55.3c0 3.6 2.9 6.5 6.5 6.5h55.3c3.6 0 6.5-2.9 6.5-6.5V424c0-3.6-2.9-6.5-6.5-6.5h-55.3zm60.3 6.5v55.3c0 2.6-2.3 4.9-4.9 4.9h-55.3c-2.6 0-4.9-2.3-4.9-4.9V424c0-2.6 2.3-4.9 4.9-4.9h55.3c2.6.1 4.9 2.3 4.9 4.9zm451.9-94.4h-51.8c-3.6 0-6.5 2.9-6.5 6.5v55.3c0 3.6 2.9 6.5 6.5 6.5h51.8c3.6 0 6.5-2.9 6.5-6.5v-55.3c0-3.6-2.9-6.5-6.5-6.5zm4.5 61.9c0 2.6-2.3 4.9-4.9 4.9h-51.8c-2.6 0-4.9-2.3-4.9-4.9v-55.3c0-2.6 2.3-4.9 4.9-4.9h51.8c2.6 0 4.9 2.3 4.9 4.9v55.3zm-4.5 26h-51.8c-3.6 0-6.5 2.9-6.5 6.5v55.3c0 3.6 2.9 6.5 6.5 6.5h51.8c3.6 0 6.5-2.9 6.5-6.5V424c0-3.5-2.9-6.5-6.5-6.5zm4.5 61.9c0 2.6-2.3 4.9-4.9 4.9h-51.8c-2.6 0-4.9-2.3-4.9-4.9V424c0-2.6 2.3-4.9 4.9-4.9h51.8c2.6 0 4.9 2.3 4.9 4.9v55.4zM1115 179.9h-51.8c-3.6 0-6.5 2.9-6.5 6.5V219c0 3.6 2.9 6.5 6.5 6.5h51.8c3.6 0 6.5-2.9 6.5-6.5v-32.6c0-3.6-3-6.5-6.5-6.5zm4.5 39c0 2.6-2.3 4.9-4.9 4.9h-51.8c-2.6 0-4.9-2.3-4.9-4.9v-32.6c0-2.6 2.3-4.9 4.9-4.9h51.8c2.6 0 4.9 2.3 4.9 4.9v32.6zm75.9-39h-51.8c-3.6 0-6.5 2.9-6.5 6.5V219c0 3.6 2.9 6.5 6.5 6.5h51.8c3.6 0 6.5-2.9 6.5-6.5v-32.6c0-3.6-2.9-6.5-6.5-6.5zm4.5 39c0 2.6-2.3 4.9-4.9 4.9h-51.8c-2.6 0-4.9-2.3-4.9-4.9v-32.6c0-2.6 2.3-4.9 4.9-4.9h51.8c2.6 0 4.9 2.3 4.9 4.9v32.6zM611.6 505.4h-55.3c-3.6 0-6.5 2.9-6.5 6.5v55.3c0 3.6 2.9 6.5 6.5 6.5h55.3c3.6 0 6.5-2.9 6.5-6.5v-55.3c0-3.5-2.9-6.5-6.5-6.5zm4.9 61.9c0 2.6-2.3 4.9-4.9 4.9h-55.3c-2.6 0-4.9-2.3-4.9-4.9V512c0-2.6 2.3-4.9 4.9-4.9h55.3c2.6 0 4.9 2.3 4.9 4.9v55.3zm-314.2 6.5h55.3c3.6 0 6.5-2.9 6.5-6.5V512c0-3.6-2.9-6.5-6.5-6.5h-55.3c-3.6 0-6.5 2.9-6.5 6.5v55.3c0 3.6 2.9 6.5 6.5 6.5zm-4.9-61.9c0-2.6 2.3-4.9 4.9-4.9h55.3c2.6 0 4.9 2.3 4.9 4.9v55.3c0 2.6-2.3 4.9-4.9 4.9h-55.3c-2.6 0-4.9-2.3-4.9-4.9v-55.3zm-79.7 61.9H273c3.6 0 6.5-2.9 6.5-6.5V512c0-3.6-2.9-6.5-6.5-6.5h-55.3c-3.6 0-6.5 2.9-6.5 6.5v55.3c-.1 3.6 2.9 6.5 6.5 6.5zm-4.9-61.9c0-2.6 2.3-4.9 4.9-4.9H273c2.6 0 4.9 2.3 4.9 4.9v55.3c0 2.6-2.3 4.9-4.9 4.9h-55.3c-2.6 0-4.9-2.3-4.9-4.9v-55.3zm193.7-32.5V424c0-3.6-2.9-6.5-6.5-6.5h-55.3c-3.6 0-6.5 2.9-6.5 6.5v55.3c0 3.6 2.9 6.5 6.5 6.5H400c3.6.1 6.5-2.8 6.5-6.4zm-66.8 0V424c0-2.6 2.3-4.9 4.9-4.9H400c2.6 0 4.9 2.3 4.9 4.9v55.3c0 2.6-2.3 4.9-4.9 4.9h-55.3c-2.7.1-5-2.2-5-4.8zm73.3-254h51.8c3.6 0 6.5-2.9 6.5-6.5v-32.6c0-3.6-2.9-6.5-6.5-6.5H413c-3.6 0-6.5 2.9-6.5 6.5v32.6c0 3.6 2.9 6.5 6.5 6.5zm-4.9-39c0-2.6 2.3-4.9 4.9-4.9h51.8c2.6 0 4.9 2.3 4.9 4.9V219c0 2.6-2.3 4.9-4.9 4.9H413c-2.6 0-4.9-2.3-4.9-4.9v-32.6zm197 406.9h-55.3c-3.6 0-6.5 2.9-6.5 6.5v55.3c0 3.6 2.9 6.5 6.5 6.5h55.3c3.6 0 6.5-2.9 6.5-6.5v-55.3c0-3.5-2.9-6.5-6.5-6.5zm4.9 61.9c0 2.6-2.3 4.9-4.9 4.9h-55.3c-2.6 0-4.9-2.3-4.9-4.9v-55.3c0-2.6 2.3-4.9 4.9-4.9h55.3c2.6 0 4.9 2.3 4.9 4.9v55.3zm249-61.9h-55.3c-3.6 0-6.5 2.9-6.5 6.5v55.3c0 3.6 2.9 6.5 6.5 6.5H859c3.6 0 6.5-2.9 6.5-6.5v-55.3c.1-3.5-2.9-6.5-6.5-6.5zm4.9 61.9c0 2.6-2.3 4.9-4.9 4.9h-55.3c-2.6 0-4.9-2.3-4.9-4.9v-55.3c0-2.6 2.3-4.9 4.9-4.9H859c2.6 0 4.9 2.3 4.9 4.9v55.3zM390.2 303.6c0 3.6 2.9 6.5 6.5 6.5H452c3.6 0 6.5-2.9 6.5-6.5v-55.3c0-3.6-2.9-6.5-6.5-6.5h-55.3c-3.6 0-6.5 2.9-6.5 6.5v55.3zm1.6-55.4c0-2.6 2.3-4.9 4.9-4.9H452c2.6 0 4.9 2.3 4.9 4.9v55.3c0 2.6-2.3 4.9-4.9 4.9h-55.3c-2.6 0-4.9-2.3-4.9-4.9v-55.3zm-70 231.2V424c0-3.6-2.9-6.5-6.5-6.5H260c-3.6 0-6.5 2.9-6.5 6.5v55.3c0 3.6 2.9 6.5 6.5 6.5h55.3c3.6.1 6.5-2.8 6.5-6.4zm-66.7 0V424c0-2.6 2.3-4.9 4.9-4.9h55.3c2.6 0 4.9 2.3 4.9 4.9v55.3c0 2.6-2.3 4.9-4.9 4.9H260c-2.6.1-4.9-2.2-4.9-4.8zm519.3 113.9H719c-3.6 0-6.5 2.9-6.5 6.5v55.3c0 3.6 2.9 6.5 6.5 6.5h55.3c3.6 0 6.5-2.9 6.5-6.5v-55.3c.1-3.5-2.8-6.5-6.4-6.5zm4.9 61.9c0 2.6-2.3 4.9-4.9 4.9H719c-2.6 0-4.9-2.3-4.9-4.9v-55.3c0-2.6 2.3-4.9 4.9-4.9h55.3c2.6 0 4.9 2.3 4.9 4.9v55.3zm-83-149.8H641c-3.6 0-6.5 2.9-6.5 6.5v55.3c0 3.6 2.9 6.5 6.5 6.5h55.3c3.6 0 6.5-2.9 6.5-6.5v-55.3c0-3.5-3-6.5-6.5-6.5zm4.8 61.9c0 2.6-2.3 4.9-4.9 4.9h-55.3c-2.6 0-4.9-2.3-4.9-4.9V512c0-2.6 2.3-4.9 4.9-4.9h55.3c2.6 0 4.9 2.3 4.9 4.9v55.3zM380.4 398c3.6 0 6.5-2.9 6.5-6.5v-55.3c0-3.6-2.9-6.5-6.5-6.5h-55.3c-3.6 0-6.5 2.9-6.5 6.5v55.3c0 3.6 2.9 6.5 6.5 6.5h55.3zm-60.2-6.5v-55.3c0-2.6 2.3-4.9 4.9-4.9h55.3c2.6 0 4.9 2.3 4.9 4.9v55.3c0 2.6-2.3 4.9-4.9 4.9h-55.3c-2.6 0-4.9-2.3-4.9-4.9zm714.3-211.6h-51.8c-3.6 0-6.5 2.9-6.5 6.5V219c0 3.6 2.9 6.5 6.5 6.5h51.8c3.6 0 6.5-2.9 6.5-6.5v-32.6c0-3.6-2.9-6.5-6.5-6.5zm4.9 39c0 2.6-2.3 4.9-4.9 4.9h-51.8c-2.6 0-4.9-2.3-4.9-4.9v-32.6c0-2.6 2.3-4.9 4.9-4.9h51.8c2.6 0 4.9 2.3 4.9 4.9v32.6zM48.3 573.8h55.3c3.6 0 6.5-2.9 6.5-6.5V512c0-3.6-2.9-6.5-6.5-6.5H48.3c-3.6 0-6.5 2.9-6.5 6.5v55.3c0 3.6 3 6.5 6.5 6.5zm-4.8-61.9c0-2.6 2.3-4.9 4.9-4.9h55.3c2.6 0 4.9 2.3 4.9 4.9v55.3c0 2.6-2.3 4.9-4.9 4.9H48.3c-2.6 0-4.9-2.3-4.9-4.9v-55.3zm47.2-286.5h51.8c3.6 0 6.5-2.9 6.5-6.5v-32.6c0-3.6-2.9-6.5-6.5-6.5H90.7c-3.6 0-6.5 2.9-6.5 6.5v32.6c0 3.6 2.9 6.5 6.5 6.5zm-4.9-39c0-2.6 2.3-4.9 4.9-4.9h51.8c2.6 0 4.9 2.3 4.9 4.9V219c0 2.6-2.3 4.9-4.9 4.9H90.7c-2.6 0-4.9-2.3-4.9-4.9v-32.6zm350 406.9H19c-3.6 0-6.5 2.9-6.5 6.5v55.3c0 3.6 2.9 6.5 6.5 6.5h416.7c3.6 0 6.5-2.9 6.5-6.5v-55.3c.1-3.5-2.8-6.5-6.4-6.5zm4.9 61.9c0 2.6-2.3 4.9-4.9 4.9H19c-2.6 0-4.9-2.3-4.9-4.9v-55.3c0-2.6 2.3-4.9 4.9-4.9h416.7c2.6 0 4.9 2.3 4.9 4.9v55.3zM171.1 225.4h51.8c3.6 0 6.5-2.9 6.5-6.5v-32.6c0-3.6-2.9-6.5-6.5-6.5h-51.8c-3.6 0-6.5 2.9-6.5 6.5v32.6c0 3.6 2.9 6.5 6.5 6.5zm-5.2-39c0-2.6 2.3-4.9 4.9-4.9h51.8c2.6 0 4.9 2.3 4.9 4.9V219c0 2.6-2.3 4.9-4.9 4.9h-51.8c-2.6 0-4.9-2.3-4.9-4.9v-32.6zm361.1 319h-55.3c-3.6 0-6.5 2.9-6.5 6.5v55.3c0 3.6 2.9 6.5 6.5 6.5H527c3.6 0 6.5-2.9 6.5-6.5v-55.3c0-3.5-3-6.5-6.5-6.5zm4.8 61.9c0 2.6-2.3 4.9-4.9 4.9h-55.3c-2.6 0-4.9-2.3-4.9-4.9V512c0-2.6 2.3-4.9 4.9-4.9H527c2.6 0 4.9 2.3 4.9 4.9v55.3zM126.5 398c3.6 0 6.5-2.9 6.5-6.5v-55.3c0-3.6-2.9-6.5-6.5-6.5H71.1c-3.6 0-6.5 2.9-6.5 6.5v55.3c0 3.6 2.9 6.5 6.5 6.5h55.4zm-60.2-6.5v-55.3c0-2.6 2.3-4.9 4.9-4.9h55.3c2.6 0 4.9 2.3 4.9 4.9v55.3c0 2.6-2.3 4.9-4.9 4.9H71.1c-2.6 0-4.8-2.3-4.8-4.9zm1.6-172.6v-32.6c0-3.6-2.9-6.5-6.5-6.5H9.6c-3.6 0-6.5 2.9-6.5 6.5v32.6c0 3.6 2.9 6.5 6.5 6.5h51.8c3.6 0 6.5-2.9 6.5-6.5zm-58.6 4.9c-2.6 0-4.9-2.3-4.9-4.9v-32.6c0-2.6 2.3-4.9 4.9-4.9H61c2.6 0 4.9 2.3 4.9 4.9v32.6c0 2.6-2.3 4.9-4.9 4.9H9.3zm322.6 1.6h51.8c3.6 0 6.5-2.9 6.5-6.5v-32.6c0-3.6-2.9-6.5-6.5-6.5h-51.8c-3.6 0-6.5 2.9-6.5 6.5v32.6c0 3.6 2.9 6.5 6.5 6.5zm-5.2-39c0-2.6 2.3-4.9 4.9-4.9h51.8c2.6 0 4.9 2.3 4.9 4.9V219c0 2.6-2.3 4.9-4.9 4.9h-51.8c-2.6 0-4.9-2.3-4.9-4.9v-32.6zm193.7 406.9h-55.3c-3.6 0-6.5 2.9-6.5 6.5v55.3c0 3.6 2.9 6.5 6.5 6.5h55.3c3.6 0 6.5-2.9 6.5-6.5v-55.3c.1-3.5-2.9-6.5-6.5-6.5zm4.9 61.9c0 2.6-2.3 4.9-4.9 4.9h-55.3c-2.6 0-4.9-2.3-4.9-4.9v-55.3c0-2.6 2.3-4.9 4.9-4.9h55.3c2.6 0 4.9 2.3 4.9 4.9v55.3zM251.5 225.4h51.8c3.6 0 6.5-2.9 6.5-6.5v-32.6c0-3.6-2.9-6.5-6.5-6.5h-51.8c-3.6 0-6.5 2.9-6.5 6.5v32.6c0 3.6 2.9 6.5 6.5 6.5zm-5.2-39c0-2.6 2.3-4.9 4.9-4.9H303c2.6 0 4.9 2.3 4.9 4.9V219c0 2.6-2.3 4.9-4.9 4.9h-51.8c-2.6 0-4.9-2.3-4.9-4.9v-32.6zm196 319H387c-3.6 0-6.5 2.9-6.5 6.5v55.3c0 3.6 2.9 6.5 6.5 6.5h55.3c3.6 0 6.5-2.9 6.5-6.5v-55.3c0-3.5-2.9-6.5-6.5-6.5zm4.9 61.9c0 2.6-2.3 4.9-4.9 4.9H387c-2.6 0-4.9-2.3-4.9-4.9V512c0-2.6 2.3-4.9 4.9-4.9h55.3c2.6 0 4.9 2.3 4.9 4.9v55.3zM305.6 303.6c0 3.6 2.9 6.5 6.5 6.5h55.3c3.6 0 6.5-2.9 6.5-6.5v-55.3c0-3.6-2.9-6.5-6.5-6.5h-55.3c-3.6 0-6.5 2.9-6.5 6.5v55.3zm1.6-55.4c0-2.6 2.3-4.9 4.9-4.9h55.3c2.6 0 4.9 2.3 4.9 4.9v55.3c0 2.6-2.3 4.9-4.9 4.9h-55.3c-2.6 0-4.9-2.3-4.9-4.9v-55.3zm382.5 345.1h-55.3c-3.6 0-6.5 2.9-6.5 6.5v55.3c0 3.6 2.9 6.5 6.5 6.5h55.3c3.6 0 6.5-2.9 6.5-6.5v-55.3c.1-3.5-2.9-6.5-6.5-6.5zm4.9 61.9c0 2.6-2.3 4.9-4.9 4.9h-55.3c-2.6 0-4.9-2.3-4.9-4.9v-55.3c0-2.6 2.3-4.9 4.9-4.9h55.3c2.6 0 4.9 2.3 4.9 4.9v55.3zM465.1 329.6h-55.3c-3.6 0-6.5 2.9-6.5 6.5v55.3c0 3.6 2.9 6.5 6.5 6.5h55.3c3.6 0 6.5-2.9 6.5-6.5v-55.3c0-3.6-2.9-6.5-6.5-6.5zm4.9 61.9c0 2.6-2.3 4.9-4.9 4.9h-55.3c-2.6 0-4.9-2.3-4.9-4.9v-55.3c0-2.6 2.3-4.9 4.9-4.9h55.3c2.6 0 4.9 2.3 4.9 4.9v55.3zm564.5 113.9h-51.8c-3.6 0-6.5 2.9-6.5 6.5v55.3c0 3.6 2.9 6.5 6.5 6.5h51.8c3.6 0 6.5-2.9 6.5-6.5v-55.3c0-3.5-2.9-6.5-6.5-6.5zm4.9 61.9c0 2.6-2.3 4.9-4.9 4.9h-51.8c-2.6 0-4.9-2.3-4.9-4.9V512c0-2.6 2.3-4.9 4.9-4.9h51.8c2.6 0 4.9 2.3 4.9 4.9v55.3zm-558-257.2h55.3c3.6 0 6.5-2.9 6.5-6.5v-55.3c0-3.6-2.9-6.5-6.5-6.5h-55.3c-3.6 0-6.5 2.9-6.5 6.5v55.3c0 3.6 2.9 6.5 6.5 6.5zm-4.9-61.9c0-2.6 2.3-4.9 4.9-4.9h55.3c2.6 0 4.9 2.3 4.9 4.9v55.3c0 2.6-2.3 4.9-4.9 4.9h-55.3c-2.6 0-4.9-2.3-4.9-4.9v-55.3zm558 169.3h-51.8c-3.6 0-6.5 2.9-6.5 6.5v55.3c0 3.6 2.9 6.5 6.5 6.5h51.8c3.6 0 6.5-2.9 6.5-6.5V424c0-3.5-2.9-6.5-6.5-6.5zm4.9 61.9c0 2.6-2.3 4.9-4.9 4.9h-51.8c-2.6 0-4.9-2.3-4.9-4.9V424c0-2.6 2.3-4.9 4.9-4.9h51.8c2.6 0 4.9 2.3 4.9 4.9v55.4zm-95.7-299.5h-51.8c-3.6 0-6.5 2.9-6.5 6.5V219c0 3.6 2.9 6.5 6.5 6.5h51.8c3.6 0 6.5-2.9 6.5-6.5v-32.6c0-3.6-2.9-6.5-6.5-6.5zm4.6 39c0 2.6-2.3 4.9-4.9 4.9h-51.8c-2.6 0-4.9-2.3-4.9-4.9v-32.6c0-2.6 2.3-4.9 4.9-4.9h51.8c2.6 0 4.9 2.3 4.9 4.9v32.6zm80 374.4H973c-3.6 0-6.5 2.9-6.5 6.5v55.3c0 3.6 2.9 6.5 6.5 6.5h55.3c3.6 0 6.5-2.9 6.5-6.5v-55.3c.1-3.5-2.9-6.5-6.5-6.5zm4.9 61.9c0 2.6-2.3 4.9-4.9 4.9H973c-2.6 0-4.9-2.3-4.9-4.9v-55.3c0-2.6 2.3-4.9 4.9-4.9h55.3c2.6 0 4.9 2.3 4.9 4.9v55.3zM198.1 241.7h-55.3c-3.6 0-6.5 2.9-6.5 6.5v55.3c0 3.6 2.9 6.5 6.5 6.5h55.3c3.6 0 6.5-2.9 6.5-6.5v-55.3c0-3.6-2.9-6.5-6.5-6.5zm4.9 61.9c0 2.6-2.3 4.9-4.9 4.9h-55.3c-2.6 0-4.9-2.3-4.9-4.9v-55.3c0-2.6 2.3-4.9 4.9-4.9h55.3c2.6 0 4.9 2.3 4.9 4.9v55.3zm290.4-78.2h51.8c3.6 0 6.5-2.9 6.5-6.5v-32.6c0-3.6-2.9-6.5-6.5-6.5h-51.8c-3.6 0-6.5 2.9-6.5 6.5v32.6c0 3.6 2.9 6.5 6.5 6.5zm-5.2-39c0-2.6 2.3-4.9 4.9-4.9h51.8c2.6 0 4.9 2.3 4.9 4.9V219c0 2.6-2.3 4.9-4.9 4.9h-51.8c-2.6 0-4.9-2.3-4.9-4.9v-32.6zm6.2 143.2c-3.6 0-6.5 2.9-6.5 6.5v55.3c0 3.6 2.9 6.5 6.5 6.5h55.3c3.6 0 6.5-2.9 6.5-6.5v-55.3c0-3.6-2.9-6.5-6.5-6.5h-55.3zm60.2 6.5v55.3c0 2.6-2.3 4.9-4.9 4.9h-55.3c-2.6 0-4.9-2.3-4.9-4.9v-55.3c0-2.6 2.3-4.9 4.9-4.9h55.3c2.6 0 4.9 2.3 4.9 4.9zm479.9-94.4h-51.8c-3.6 0-6.5 2.9-6.5 6.5v55.3c0 3.6 2.9 6.5 6.5 6.5h51.8c3.6 0 6.5-2.9 6.5-6.5v-55.3c0-3.6-2.9-6.5-6.5-6.5zm4.9 61.9c0 2.6-2.3 4.9-4.9 4.9h-51.8c-2.6 0-4.9-2.3-4.9-4.9v-55.3c0-2.6 2.3-4.9 4.9-4.9h51.8c2.6 0 4.9 2.3 4.9 4.9v55.3zm-4.9 26h-51.8c-3.6 0-6.5 2.9-6.5 6.5v55.3c0 3.6 2.9 6.5 6.5 6.5h51.8c3.6 0 6.5-2.9 6.5-6.5v-55.3c0-3.6-2.9-6.5-6.5-6.5zm4.9 61.9c0 2.6-2.3 4.9-4.9 4.9h-51.8c-2.6 0-4.9-2.3-4.9-4.9v-55.3c0-2.6 2.3-4.9 4.9-4.9h51.8c2.6 0 4.9 2.3 4.9 4.9v55.3zm-610.1 26c-3.6 0-6.5 2.9-6.5 6.5v55.3c0 3.6 2.9 6.5 6.5 6.5h55.3c3.6 0 6.5-2.9 6.5-6.5V424c0-3.6-2.9-6.5-6.5-6.5h-55.3zm60.2 6.5v55.3c0 2.6-2.3 4.9-4.9 4.9h-55.3c-2.6 0-4.9-2.3-4.9-4.9V424c0-2.6 2.3-4.9 4.9-4.9h55.3c2.6.1 4.9 2.3 4.9 4.9zM282.8 241.7h-55.3c-3.6 0-6.5 2.9-6.5 6.5v55.3c0 3.6 2.9 6.5 6.5 6.5h55.3c3.6 0 6.5-2.9 6.5-6.5v-55.3c0-3.6-3-6.5-6.5-6.5zm4.9 61.9c0 2.6-2.3 4.9-4.9 4.9h-55.3c-2.6 0-4.9-2.3-4.9-4.9v-55.3c0-2.6 2.3-4.9 4.9-4.9h55.3c2.6 0 4.9 2.3 4.9 4.9v55.3zM859 505.4H725.6c-3.6 0-6.5 2.9-6.5 6.5v55.3c0 3.6 2.9 6.5 6.5 6.5H859c3.6 0 6.5-2.9 6.5-6.5v-55.3c.1-3.5-2.9-6.5-6.5-6.5zm4.9 61.9c0 2.6-2.3 4.9-4.9 4.9H725.6c-2.6 0-4.9-2.3-4.9-4.9V512c0-2.6 2.3-4.9 4.9-4.9H859c2.6 0 4.9 2.3 4.9 4.9v55.3zm79.8-61.9h-55.3c-3.6 0-6.5 2.9-6.5 6.5v55.3c0 3.6 2.9 6.5 6.5 6.5h55.3c3.6 0 6.5-2.9 6.5-6.5v-55.3c0-3.5-2.9-6.5-6.5-6.5zm4.9 61.9c0 2.6-2.3 4.9-4.9 4.9h-55.3c-2.6 0-4.9-2.3-4.9-4.9V512c0-2.6 2.3-4.9 4.9-4.9h55.3c2.6 0 4.9 2.3 4.9 4.9v55.3zM233.9 336.1v55.3c0 3.6 2.9 6.5 6.5 6.5h55.3c3.6 0 6.5-2.9 6.5-6.5v-55.3c0-3.6-2.9-6.5-6.5-6.5h-55.3c-3.5 0-6.5 2.9-6.5 6.5zm66.8 0v55.3c0 2.6-2.3 4.9-4.9 4.9h-55.3c-2.6 0-4.9-2.3-4.9-4.9v-55.3c0-2.6 2.3-4.9 4.9-4.9h55.3c2.6 0 4.9 2.3 4.9 4.9zm-63.5 143.3V424c0-3.6-2.9-6.5-6.5-6.5h-55.3c-3.6 0-6.5 2.9-6.5 6.5v55.3c0 3.6 2.9 6.5 6.5 6.5h55.3c3.6.1 6.5-2.8 6.5-6.4zm-66.8 0V424c0-2.6 2.3-4.9 4.9-4.9h55.3c2.6 0 4.9 2.3 4.9 4.9v55.3c0 2.6-2.3 4.9-4.9 4.9h-55.3c-2.6.1-4.9-2.2-4.9-4.8zm773.3 113.9h-55.3c-3.6 0-6.5 2.9-6.5 6.5v55.3c0 3.6 2.9 6.5 6.5 6.5h55.3c3.6 0 6.5-2.9 6.5-6.5v-55.3c0-3.5-2.9-6.5-6.5-6.5zm4.9 61.9c0 2.6-2.3 4.9-4.9 4.9h-55.3c-2.6 0-4.9-2.3-4.9-4.9v-55.3c0-2.6 2.3-4.9 4.9-4.9h55.3c2.6 0 4.9 2.3 4.9 4.9v55.3zM84.2 424v55.3c0 3.6 2.9 6.5 6.5 6.5H146c3.6 0 6.5-2.9 6.5-6.5V424c0-3.6-2.9-6.5-6.5-6.5H90.7c-3.6 0-6.5 3-6.5 6.5zm66.7 0v55.3c0 2.6-2.3 4.9-4.9 4.9H90.7c-2.6 0-4.9-2.3-4.9-4.9V424c0-2.6 2.3-4.9 4.9-4.9H146c2.6.1 4.9 2.3 4.9 4.9zm-1.6-87.9v55.3c0 3.6 2.9 6.5 6.5 6.5h55.3c3.6 0 6.5-2.9 6.5-6.5v-55.3c0-3.6-2.9-6.5-6.5-6.5h-55.3c-3.6 0-6.5 2.9-6.5 6.5zm66.7 0v55.3c0 2.6-2.3 4.9-4.9 4.9h-55.3c-2.6 0-4.9-2.3-4.9-4.9v-55.3c0-2.6 2.3-4.9 4.9-4.9h55.3c2.6 0 4.9 2.3 4.9 4.9zm727.7-94.4H820c-3.6 0-6.5 2.9-6.5 6.5v55.3c0 3.6 2.9 6.5 6.5 6.5h123.7c3.6 0 6.5-2.9 6.5-6.5v-55.3c0-3.6-2.9-6.5-6.5-6.5zm4.9 61.9c0 2.6-2.3 4.9-4.9 4.9H820c-2.6 0-4.9-2.3-4.9-4.9v-55.3c0-2.6 2.3-4.9 4.9-4.9h123.7c2.6 0 4.9 2.3 4.9 4.9v55.3zm-4.9 113.9H767.9c-3.6 0-6.5 2.9-6.5 6.5v55.3c0 3.6 2.9 6.5 6.5 6.5h175.8c3.6 0 6.5-2.9 6.5-6.5V424c0-3.5-2.9-6.5-6.5-6.5zm4.9 61.9c0 2.6-2.3 4.9-4.9 4.9H767.9c-2.6 0-4.9-2.3-4.9-4.9V424c0-2.6 2.3-4.9 4.9-4.9h175.8c2.6 0 4.9 2.3 4.9 4.9v55.4zm-4.9-149.8H833c-3.6 0-6.5 2.9-6.5 6.5v55.3c0 3.6 2.9 6.5 6.5 6.5h110.7c3.6 0 6.5-2.9 6.5-6.5v-55.3c0-3.6-2.9-6.5-6.5-6.5zm4.9 61.9c0 2.6-2.3 4.9-4.9 4.9H833c-2.6 0-4.9-2.3-4.9-4.9v-55.3c0-2.6 2.3-4.9 4.9-4.9h110.7c2.6 0 4.9 2.3 4.9 4.9v55.3zM133 573.8h55.3c3.6 0 6.5-2.9 6.5-6.5V512c0-3.6-2.9-6.5-6.5-6.5H133c-3.6 0-6.5 2.9-6.5 6.5v55.3c0 3.6 2.9 6.5 6.5 6.5zm-4.9-61.9c0-2.6 2.3-4.9 4.9-4.9h55.3c2.6 0 4.9 2.3 4.9 4.9v55.3c0 2.6-2.3 4.9-4.9 4.9H133c-2.6 0-4.9-2.3-4.9-4.9v-55.3z"/></svg>