<svg version="1.1" xmlns="http://www.w3.org/2000/svg" x="0" y="0" viewBox="0 0 1920 673" xml:space="preserve"><style type="text/css">.st1{fill:#fff}.st2{fill:#607786}.st4{fill:#36434f}.st5{fill:#dfe4e7}.st6{fill:#d7d9dc}</style><path fill="#e57b25" d="M0 0h1920v673H0z" id="background"/><g id="image"><path class="st1" d="M1069.4 337.6l-11.4 12.3v30.5h-22V273.7h22V322l9.7-13.3 27.2-35.1h27L1084 321l39 59.3h-26.1l-27.5-42.7zm55.1 2.4c0-7.9 1.5-14.9 4.5-21s7.4-10.9 13.1-14.3c5.7-3.4 12.3-5.1 19.8-5.1 10.7 0 19.4 3.3 26.2 9.8 6.8 6.5 10.5 15.4 11.3 26.7l.1 5.4c0 12.2-3.4 21.9-10.2 29.3-6.8 7.3-15.9 11-27.3 11s-20.5-3.7-27.4-11c-6.8-7.3-10.2-17.3-10.2-29.9v-.9zm21.2 1.5c0 7.5 1.4 13.3 4.2 17.3 2.8 4 6.9 6 12.2 6 5.1 0 9.1-2 12-5.9 2.9-3.9 4.3-10.2 4.3-18.9 0-7.4-1.4-13.1-4.3-17.2s-6.9-6.1-12.2-6.1c-5.2 0-9.2 2-12 6.1-2.8 4-4.2 10.2-4.2 18.7zm95.7 7l-7.6 7.6v24.2h-21.2V267.8h21.2v62.3l4.1-5.3 20.3-23.8h25.4l-28.6 33 31.1 46.2h-24.3l-20.4-31.7zm86.4 33.3c-11.6 0-21.1-3.6-28.4-10.7-7.3-7.1-10.9-16.6-10.9-28.5v-2.1c0-8 1.5-15.1 4.6-21.4 3.1-6.3 7.4-11.1 13.1-14.5 5.6-3.4 12.1-5.1 19.3-5.1 10.8 0 19.4 3.4 25.6 10.3 6.2 6.8 9.3 16.5 9.3 29.1v8.6h-50.5c.7 5.2 2.7 9.3 6.2 12.5 3.4 3.1 7.8 4.7 13.1 4.7 8.2 0 14.5-3 19.1-8.9l10.4 11.6c-3.2 4.5-7.5 8-12.9 10.5-5.4 2.6-11.4 3.9-18 3.9zm-2.4-65.1c-4.2 0-7.6 1.4-10.2 4.3-2.6 2.8-4.3 6.9-5 12.2h29.4v-1.7c-.1-4.7-1.4-8.3-3.8-10.9-2.5-2.6-5.9-3.9-10.4-3.9zm66.5-15.6l.7 9.2c5.7-7.1 13.3-10.6 22.8-10.6 8.4 0 14.6 2.5 18.8 7.4 4.1 4.9 6.2 12.3 6.3 22.1v51.2h-21.2v-50.7c0-4.5-1-7.8-2.9-9.8-2-2-5.2-3-9.7-3-6 0-10.4 2.5-13.4 7.6v55.9H1372v-79.2h19.9z"/><path class="st2" d="M908.2 497.7c0 2.9-2.4 5.3-5.3 5.3H462.3c-2.9 0-5.3-2.4-5.3-5.3V175.3c0-2.9 2.4-5.3 5.3-5.3h440.6c2.9 0 5.3 2.4 5.3 5.3v322.4z"/><path class="st1" d="M880 469.6c0 2.9-2.4 5.3-5.3 5.3H490.5c-2.9 0-5.3-2.4-5.3-5.3V203.4c0-2.9 2.4-5.3 5.3-5.3h384.2c2.9 0 5.3 2.4 5.3 5.3v266.2z"/><path d="M851.8 441.4c0 2.9-2.4 5.3-5.3 5.3H518.7c-2.9 0-5.3-2.4-5.3-5.3V231.6c0-2.9 2.4-5.3 5.3-5.3h327.8c2.9 0 5.3 2.4 5.3 5.3v209.8z" fill="#4fc3f7"/><path class="st2" d="M846.1 446.6l-48-77.4h-20.7l-33.6-2.5-49.5 79.8 151.8.1z"/><path class="st4" d="M756.8 446.6h89.3l-48-77.4h-20.7l1.9 11.9 2.2 12.8c.4 1.9-.7 4-2.6 4.8l-22 10c-1.7.8-2.7 2.5-2.6 4.3l2.5 33.6z"/><path class="st5" d="M743.8 366.8l33.4 13.6c1.3.5 2.8.4 4.1-.4l16.9-10.7-24.2-38.9c-1.8-2.8-5.7-2.8-7.5 0l-22.7 36.4z"/><path class="st6" d="M770.8 328.4l8.4 52.3c.7-.1 1.4-.3 2-.7l16.9-10.7-24.1-39c-.8-1.1-1.9-1.7-3.2-1.9z"/><path class="st2" d="M712.8 446.6l-57.5-92.5h-28.8l-46.6-3.5-59.6 96h192.5z"/><path class="st4" d="M596.9 446.6h115.9l-57.5-92.5h-28.7l2.6 16.6 3.3 19c.4 1.9-.7 4-2.6 4.8l-33 14.9c-1.7.8-2.7 2.5-2.6 4.3l2.6 32.9z"/><path class="st5" d="M579.9 350.6l47.1 19.1c1.3.5 2.8.4 4.1-.4l24.2-15.2-35-56.4c-1.8-2.8-5.7-2.8-7.5 0l-32.9 52.9z"/><path class="st6" d="M617.2 295.7l11.9 74.4c.7-.1 1.4-.3 2-.7l24.2-15.2-35-56.4c-.8-1.3-1.9-1.9-3.1-2.1z"/><ellipse cx="566.4" cy="278.5" rx="28.7" ry="28.7" fill="#ffbe27"/><path class="st5" d="M720.5 324.9c6.9 0 12.4-5.6 12.4-12.4 0-5.4-3.5-10.2-8.5-11.8-1.9-3.6-5.6-5.9-9.7-5.9-1.1 0-2.2.2-3.3.4-3.3-3.8-8.2-6-13.3-6-4.1 0-8 1.4-11.2 4-2.8 2.3-4.8 5.4-5.9 8.8-6.3 0-11.5 5.2-11.5 11.5S674.6 325 681 325h39.5zm100.2-36.2c6.9 0 12.4-5.6 12.4-12.4 0-5.4-3.5-10.2-8.5-11.8-1.9-3.6-5.6-5.9-9.7-5.9-1.1 0-2.2.2-3.3.4-3.3-3.8-8.2-6-13.3-6-4.1 0-8 1.4-11.2 4-2.8 2.3-4.8 5.4-5.9 8.8-6.3 0-11.5 5.2-11.5 11.5s5.1 11.5 11.5 11.5h39.5v-.1z"/></g></svg>