<svg version="1.1" xmlns="http://www.w3.org/2000/svg" x="0" y="0" viewBox="0 0 1920 673" xml:space="preserve"><style type="text/css">.st1{fill:#fff}</style><path fill="#9ac33c" d="M0 0h1920v673H0z" id="background"/><g id="image"><path class="st1" d="M838.3 523.2h-82.9v85H704V394.9h142.7v39.7h-91.3v49.1h82.9v39.5zM961 568.3h-70.5l-12.3 39.8h-54.9l78.2-213.3h48.3l78.8 213.3h-55.2L961 568.3zm-58.1-39.7h45.8l-23-74-22.8 74zm319.2-22.7c0 19.7-3.3 36.9-9.8 51.6-6.5 14.7-15.6 26.5-27.1 35.4l34.4 27.2-31.8 27-45.8-36.9c-4.3.6-8.6.9-12.9.9-18.2 0-34.3-4.2-48.3-12.6-14.1-8.4-25-20.4-32.9-36-7.9-15.6-11.9-33.6-12.2-53.9v-11.3c0-21 3.8-39.5 11.5-55.4 7.7-15.9 18.6-28.2 32.8-36.9 14.2-8.7 30.5-13 48.9-13 18.1 0 34.2 4.3 48.3 12.9 14.2 8.6 25.2 20.8 33 36.7 7.9 15.9 11.8 34.1 11.9 54.6v9.7zm-52.3-8.9c0-21.2-3.5-37.3-10.6-48.3s-17.2-16.5-30.4-16.5c-13.6 0-23.8 5.4-30.6 16.3-6.8 10.8-10.3 26.7-10.4 47.6v9.8c0 21 3.5 37.1 10.4 48.3 6.9 11.2 17.2 16.8 30.9 16.8 13.1 0 23.1-5.5 30.1-16.6 7-11 10.5-26.9 10.6-47.6V497z"/><path class="st1" d="M15.7 3.6h-.2c-.1.7-.2 1.5-1.4 1.5h-.6c-.3 0-.3 0-.3-.3V1.2c0-.2 0-.3.6-.3h.2V.7h-2.1v.2h.2c.5 0 .5.1.5.3v3.6c0 .2 0 .3-.5.3H12v.2h3.5l.2-1.7z" transform="matrix(45 0 0 45 40 40)"/><path class="st1" d="M15.6.7c0-.1 0-.1-.1-.1s-.1 0-.1.1l-1.1 2.8c0 .1-.1.3-.6.3V4h1.1v-.2c-.2 0-.3-.1-.3-.2v-.1l.2-.6H16l.3.7v.1c0 .1-.3.1-.4.1V4h1.3v-.2h-.1c-.3 0-.4 0-.4-.2L15.6.7zm-.3.5l.6 1.5h-1.2l.6-1.5zM21 .7h-4.1l-.1 1.5h.2c.1-1.1.2-1.3 1.2-1.3h.4c.1 0 .1.1.1.3v3.6c0 .2 0 .3-.7.3h-.3v.2h2.6v-.2H20c-.7 0-.7-.1-.7-.3V1.2c0-.1 0-.2.1-.3h.4c1 0 1.1.2 1.2 1.3h.2L21 .7z" transform="matrix(45 0 0 45 40 40)"/><path class="st1" d="M24.7 5.1h-.2c-.2 1-.3 1.5-1.5 1.5h-.9c-.3 0-.3 0-.3-.3V4.5h.6c.7 0 .7.2.7.8h.2V3.5h-.2c0 .6-.1.8-.7.8h-.6V2.7c0-.2 0-.3.3-.3h.9c1 0 1.2.4 1.3 1.3h.2l-.2-1.5h-3.8v.2h.2c.5 0 .5.1.5.3v3.5c0 .2 0 .3-.5.3h-.2v.2h3.9l.3-1.6z" transform="matrix(45 0 0 45 40 40)"/><path class="st1" d="M26.7 2.7l.9-1.4c.1-.2.4-.4 1-.4V.7H27v.2c.3 0 .4.2.4.3 0 .1 0 .1-.1.2l-.8 1.1-.9-1.3v-.1c0-.1.1-.2.4-.2V.7h-1.9v.2h.1c.4 0 .5 0 .6.2L26.2 3l-1.1 1.6c-.1.1-.3.4-1 .4v.2h1.6v-.1c-.3 0-.4-.2-.4-.3 0-.1 0-.1.1-.2l1-1.4 1.1 1.6v.1c0 .1-.1.2-.4.2v.2H29v-.2h-.1c-.4 0-.5 0-.6-.2l-1.6-2.2z" transform="matrix(45 0 0 45 40 40)"/></g></svg>