<svg xmlns="http://www.w3.org/2000/svg" viewBox="0 0 1920 673" xml:space="preserve"><style>.st1{fill:#bcbabb}.st2{fill:#dddedd}.st3{fill:#48a0dc}.st4{fill:#36434f}.st5{fill:#fff}</style><path fill="#5d943e" d="M0 0h1920v673H0z"/><circle class="st1" cx="682.6" cy="336.5" r="256"/><circle class="st2" cx="682.6" cy="336.5" r="205.2"/><circle class="st3" cx="682.6" cy="336.5" r="140"/><circle class="st4" cx="682.6" cy="336.5" r="89.4"/><circle class="st5" cx="650.1" cy="308.1" r="28.4"/><path class="st1" d="M477.6 293.7h410c-20.9-94-104.7-164.3-205-164.3s-184.1 70.3-205 164.3z"/><circle class="st1" cx="1237.4" cy="336.5" r="256"/><circle class="st2" cx="1237.4" cy="336.5" r="205.2"/><circle class="st3" cx="1237.4" cy="336.5" r="140"/><circle class="st4" cx="1237.4" cy="336.5" r="89.4"/><circle class="st5" cx="1204.9" cy="308.1" r="28.4"/><path class="st1" d="M1056.3 204.1h362.1c-18.5-53.6-92.5-93.8-181-93.8s-162.6 40.2-181.1 93.8z"/></svg>