<svg xmlns="http://www.w3.org/2000/svg" viewBox="0 0 1920 673" xml:space="preserve"><style>.st1{fill:#fff}</style><path fill="#f9b517" d="M0 0h1920v673H0z"/><path class="st1" d="M609 108.5h598v118H609zM908 324h403v90.5H908zm0 150h403v90.5H908z"/><circle class="st1" cx="813.3" cy="369.3" r="24.3"/><circle class="st1" cx="813.3" cy="519.3" r="24.3"/><path d="m1114 252.7 12.6 4.6c-6.9-7.9-13.3-20.5-17.1-30.8-3.8 10.2-10.3 22.9-17.1 30.8l12.6-4.6v45.1l-12.6-4.6c6.9 7.9 13.3 20.5 17.1 30.8 3.8-10.2 10.3-22.9 17.1-30.8l-12.6 4.6v-45.1z" fill="#231f20"/></svg>