<svg xmlns="http://www.w3.org/2000/svg" viewBox="0 0 1920 673" xml:space="preserve"><path fill="#007ba5" d="M0 0h1920v673H0z"/><path d="M541.1 157.1c-6.2 0-11 5.1-11 11V662c0 6.2 5.1 11 11 11h837.7c6.2 0 11-5.1 11-11V168.2c0-6.2-5.1-11-11-11H541.1z" fill="#354c74"/><circle cx="960" cy="173.7" r="11" fill="#284166"/><path d="M1352.4 622.3c0 6.2-5.1 11-11 11H578.6c-6.2 0-11-5.1-11-11V203.4c0-6.2 5.1-11 11-11h762.6c6.2 0 11 5.1 11 11l.2 418.9z" fill="#8dc6ec"/><path d="M1212.2 192.4 678.5 633.3h294.7l315-440.9h-76z" fill="#77bbe0"/><path d="M578.6 192.4c-6 0-11 4.9-11 11v418.9c0 6 4.8 11 11 11h99.9l533.9-440.9H578.6z" fill="#63add6"/><path d="m906.5 359.4-61.8 20.9 20.9-61.8 11.7 11.7c46-46 119.5-46 165.5 0 22.6 22.6 34.3 52.6 34.3 82.7H1052c0-23.4-9.2-46.8-26.7-65.2-35.9-35.9-94.4-35.9-130.4 0-.1 0 11.6 11.7 11.6 11.7zM1025.2 478c-35.9 35.9-94.4 35.9-130.4 0-17.5-18.4-26.7-41.8-26.7-65.2H843c0 30.1 11.7 60.2 34.3 82.7 46 46 119.5 46 165.5 0l11.7 11.7 20.9-61.8-61.8 20.9 11.6 11.7z" fill="#475b6d"/></svg>