<svg xmlns="http://www.w3.org/2000/svg" viewBox="0 0 1920 673" xml:space="preserve"><style>.st1{fill:#fff}.st2{fill:#5aba53}</style><path fill="#4ca045" d="M0 0h1920v673H0z"/><path class="st1" d="M838.3 523.2h-82.9v85H704V394.9h142.7v39.7h-91.3v49.1h82.9v39.5zM961 568.3h-70.5l-12.3 39.8h-54.9l78.2-213.3h48.3l78.8 213.3h-55.2L961 568.3zm-58.1-39.7h45.8l-23-74-22.8 74zm319.2-22.7c0 19.7-3.3 36.9-9.8 51.6-6.5 14.7-15.6 26.5-27.1 35.4l34.4 27.2-31.8 27-45.8-36.9c-4.3.6-8.6.9-12.9.9-18.2 0-34.3-4.2-48.3-12.6-14.1-8.4-25-20.4-32.9-36-7.9-15.6-11.9-33.6-12.2-53.9v-11.3c0-21 3.8-39.5 11.5-55.4 7.7-15.9 18.6-28.2 32.8-36.9 14.2-8.7 30.5-13 48.9-13 18.1 0 34.2 4.3 48.3 12.9 14.2 8.6 25.2 20.8 33 36.7 7.9 15.9 11.8 34.1 11.9 54.6v9.7zm-52.3-8.9c0-21.2-3.5-37.3-10.6-48.3s-17.2-16.5-30.4-16.5c-13.6 0-23.8 5.4-30.6 16.3-6.8 10.8-10.3 26.7-10.4 47.6v9.8c0 21 3.5 37.1 10.4 48.3 6.9 11.2 17.2 16.8 30.9 16.8 13.1 0 23.1-5.5 30.1-16.6 7-11 10.5-26.9 10.6-47.6V497z"/><path class="st2" d="M913.9 126.4c-14.3 0-24.2 4.8-29.4 14.3-5.4 9.4-8.1 24.5-8.1 45.3 0 20.7 2.7 35.6 7.8 44.5 5.1 8.9 15.1 13.5 29.6 13.5 14.5 0 24.5-4.3 29.6-13.2 4.8-8.9 7.5-23.7 7.5-44.7 0-20.7-2.7-36.1-7.8-45.5-5.2-9.3-14.9-14.2-29.2-14.2z"/><path class="st2" d="M1105.5 57.7H829.6l-50.1 50.1v215.8h311l50.1-50.1V57.7h-35.1zM971.9 230.2c-3.8 11.3-10.2 19.9-19.1 25.9l18.9 30.7-23.4 11-20.2-33.4c-3 .8-7.5 1.3-14 1.3-23.7 0-40.4-6.5-49.6-19.1-9.4-12.9-14-33.1-14-60.6 0-27.7 4.8-48.2 14.3-61.7 9.4-13.5 26.1-20.2 49.6-20.2 23.4 0 39.9 6.7 49.3 19.9 9.4 13.2 14.3 33.9 14.3 61.7-.2 18.3-2.1 33.2-6.1 44.5zM1043 263c-12.9 0-21.8-3-26.7-8.9-4.8-5.9-7.3-17.2-7.3-33.7v-53.1h-17.5V146h17.5v-33h24.8v33.1h31.5v21.3h-31.5v50.4c0 9.2.8 15.4 2.2 18.6 1.3 3 4.8 4.6 10.5 4.6l18.9-.8 1.1 19.9c-10.6 1.9-18.1 2.9-23.5 2.9z"/><path class="st1" d="M1046.5 240.9c-5.7 0-9.2-1.6-10.5-4.6-1.3-3.2-2.2-9.4-2.2-18.6v-50.4h31.5V146h-31.5v-33H1009v33.1h-17.5v21.3h17.5v53.1c0 16.4 2.4 27.7 7.3 33.7 4.8 5.9 13.7 8.9 26.7 8.9 5.4 0 12.9-1.1 23.4-3l-1.1-19.9-18.8.7zM914.2 104.1c-23.4 0-40.1 6.7-49.6 20.2-9.4 13.5-14.3 33.9-14.3 61.7 0 27.5 4.6 47.7 14 60.6 9.2 12.7 25.9 19.1 49.6 19.1 6.5 0 11-.5 14-1.3l20.2 33.4 23.4-11-18.8-30.8c8.9-5.9 15.4-14.5 19.1-25.9 4-11.3 5.9-26.1 5.9-44.5 0-27.7-4.8-48.5-14.3-61.7-9.3-13.1-25.8-19.8-49.2-19.8zm29.4 126.6c-5.1 8.9-15.1 13.2-29.6 13.2-14.5 0-24.5-4.6-29.6-13.5-5.1-8.9-7.8-23.7-7.8-44.5 0-20.7 2.7-35.8 8.1-45.3 5.1-9.4 15.1-14.3 29.4-14.3 14.3 0 24 4.8 29.4 14 5.1 9.4 7.8 24.8 7.8 45.5-.2 21.2-2.9 36-7.7 44.9z"/></svg>