<svg xmlns="http://www.w3.org/2000/svg" viewBox="0 0 1920 673" xml:space="preserve"><style>.st1{opacity:.2;fill:#fff;enable-background:new}.st3{fill:#059dd2}.st4{opacity:.2}.st5{fill:#fff}.st7{fill:#ee3a24}.st8{fill:#0074ae}.st9{fill:#ff8327}</style><path fill="#c6c6c6" d="M0 0h1920v673H0z"/><path class="st1" d="M777.2 596.6h69.5v8.3h-69.5v-8.3z"/><circle class="st1" cx="734.8" cy="590.9" r="12.5"/><path d="M1160.2 126.6c0-7.6-6.3-13.9-13.9-13.9H841.9c-7.6 0-13.9 6.3-13.9 13.9v6.9c0 7.6 6.3 13.9 13.9 13.9h304.4c7.6 0 13.9-6.3 13.9-13.9v-6.9z" fill="#4a396d"/><path class="st3" d="M865.5 613.1c0 7.6-6.3 13.9-13.9 13.9h-79.2c-7.6 0-13.9-6.3-13.9-13.9v-360c0-7.6 6.3-13.9 13.9-13.9h79.2c7.6 0 13.9 6.3 13.9 13.9v360z"/><g class="st4"><path class="st5" d="M846.7 518.2c0 1.5-1.3 2.8-2.8 2.8H780c-1.5 0-2.8-1.3-2.8-2.8v-2.8c0-1.5 1.3-2.8 2.8-2.8h63.9c1.5 0 2.8 1.3 2.8 2.8v2.8z"/></g><g class="st4"><path class="st5" d="M825.9 572.9c0 1.5-1.3 2.8-2.8 2.8h-22.2c-1.5 0-2.8-1.3-2.8-2.8v-29.2c0-1.5 1.3-2.8 2.8-2.8h22.2c1.5 0 2.8 1.3 2.8 2.8v29.2z"/></g><g class="st4"><path class="st5" d="M816.3 286.6c-1.5 0-2.8 1.3-2.8 2.8v31.7c0 1.5-1.3 2.8-2.8 2.8h-24.5c-1.5 0-2.8 1.3-2.8 2.8V477c0 1.5 1.3 2.8 2.8 2.8h51.4c1.5 0 2.8-1.3 2.8-2.8V289.4c0-1.5-1.3-2.8-2.8-2.8h-21.3z"/></g><path d="M897.5 613.1c0 7.6-6.3 13.9-13.9 13.9h-4.2c-7.6 0-13.9-6.3-13.9-13.9V293.4c0-7.6 6.3-13.9 13.9-13.9h4.2c7.6 0 13.9 6.3 13.9 13.9v319.7z" fill="#aaa"/><path class="st1" d="M865.5 377.1h32v90.3h-32v-90.3z"/><path class="st7" d="M604.2 613.1c0 7.6 6.3 13.9 13.9 13.9h79.2c7.6 0 13.9-6.3 13.9-13.9V207.2c0-7.6-6.3-13.9-13.9-13.9h-79.2c-7.6 0-13.9 6.3-13.9 13.9v405.9z"/><g class="st4"><path class="st5" d="M690.3 573.2c0 1.5-1.3 2.8-2.8 2.8h-59.8c-1.5 0-2.8-1.3-2.8-2.8V398.1c0-1.5 1.3-2.8 2.8-2.8h59.8c1.5 0 2.8 1.3 2.8 2.8v175.1z"/></g><g class="st4"><path class="st5" d="M625 361.7c0-1.5 1.3-2.8 2.8-2.8h59.8c1.5 0 2.8 1.3 2.8 2.8v8.3c0 1.5-1.3 2.8-2.8 2.8h-59.8c-1.5 0-2.8-1.3-2.8-2.8v-8.3z"/></g><path class="st3" d="M1274.1 613.1c0 7.6-5.3 13.9-11.8 13.9-6.5 0-11.8-6.3-11.8-13.9V314.3c0-7.6 5.3-13.9 11.8-13.9 6.5 0 11.8 6.3 11.8 13.9v298.8z"/><path class="st1" d="M1250.5 394h23.6v152.9h-23.6V394z"/><path class="st8" d="M1176.8 98.8c0 7.6-6.3 13.9-13.9 13.9H832.1c-7.6 0-13.9-6.3-13.9-13.9V59.9c0-7.6 6.3-13.9 13.9-13.9h330.8c7.6 0 13.9 6.3 13.9 13.9v38.9z"/><g class="st4"><path class="st5" d="M917.1 89.1c0 1.5-1.3 2.8-2.8 2.8h-75.1c-1.5 0-2.8-1.3-2.8-2.8V69.6c0-1.5 1.3-2.8 2.8-2.8h75.1c1.5 0 2.8 1.3 2.8 2.8v19.5z"/></g><g class="st4"><path class="st5" d="M1123.9 89.1c0 1.5-1.3 2.8-2.8 2.8H948.7c-1.5 0-2.8-1.3-2.8-2.8V69.6c0-1.5 1.3-2.8 2.8-2.8h172.4c1.5 0 2.8 1.3 2.8 2.8v19.5z"/></g><g class="st4"><path class="st5" d="M1148.3 89.1c0 1.5 1.3 2.8 2.8 2.8h5.6c1.5 0 2.8-1.3 2.8-2.8V69.6c0-1.5-1.3-2.8-2.8-2.8h-5.6c-1.5 0-2.8 1.3-2.8 2.8v19.5z"/></g><path class="st9" d="M1139.3 613.1c0 7.6 6.3 13.9 13.9 13.9h23.6c7.6 0 13.9-6.3 13.9-13.9V286.5c0-7.6-6.3-13.9-13.9-13.9h-23.6c-7.6 0-13.9 6.3-13.9 13.9v326.6z"/><g class="st4"><path class="st5" d="M1178.9 414.3c0 1.5-1.3 2.8-2.8 2.8h-22.2c-1.5 0-2.8-1.3-2.8-2.8v-75.1c0-1.5 1.3-2.8 2.8-2.8h22.2c1.5 0 2.8 1.3 2.8 2.8v75.1z"/></g><g class="st4"><path class="st5" d="M1178.9 556.9c0 1.5-1.3 2.8-2.8 2.8h-22.2c-1.5 0-2.8-1.3-2.8-2.8v-91.7c0-1.5 1.3-2.8 2.8-2.8h22.2c1.5 0 2.8 1.3 2.8 2.8v91.7z"/></g><path d="M1190.7 613.1c0 7.6 6.3 13.9 13.9 13.9h32c7.6 0 13.9-6.3 13.9-13.9v-360c0-7.6-6.3-13.9-13.9-13.9h-32c-7.6 0-13.9 6.3-13.9 13.9v360z" fill="#914a21"/><path class="st1" d="M1190.7 557.2h59.8v25h-59.8v-25z"/><g class="st4"><path class="st5" d="M1238 527.1c0 1.5-1.3 2.8-2.8 2.8H1206c-1.5 0-2.8-1.3-2.8-2.8V282.4c0-1.5 1.3-2.8 2.8-2.8h29.2c1.5 0 2.8 1.3 2.8 2.8v244.7z"/></g><path class="st9" d="M1274.1 613.1c0 7.6 6.3 13.9 13.9 13.9h13.9c7.6 0 13.9-6.3 13.9-13.9V319.8c0-7.6-6.3-13.9-13.9-13.9H1288c-7.6 0-13.9 6.3-13.9 13.9v293.3z"/><g class="st4"><path class="st5" d="M1281.1 609.8c0 1.5 1.3 2.8 2.8 2.8h22.2c1.5 0 2.8-1.3 2.8-2.8V501.3c0-1.5-1.3-2.8-2.8-2.8h-22.2c-1.5 0-2.8 1.3-2.8 2.8v108.5z"/></g><g class="st4"><path class="st5" d="M1281.1 412.4c0 1.5 1.3 2.8 2.8 2.8h22.2c1.5 0 2.8-1.3 2.8-2.8v-86.2c0-1.5-1.3-2.8-2.8-2.8h-22.2c-1.5 0-2.8 1.3-2.8 2.8v86.2z"/></g><path d="M992 613.1c0 7.6-6.3 13.9-13.9 13.9h-66.7c-7.6 0-13.9-6.3-13.9-13.9v-335c0-7.6 6.3-13.9 13.9-13.9h66.7c7.6 0 13.9 6.3 13.9 13.9v335z" fill="#c64757"/><g class="st4"><path class="st5" d="M972.5 397.9c0 1.5-1.3 2.8-2.8 2.8h-50c-1.5 0-2.8-1.3-2.8-2.8V302c0-1.5 1.3-2.8 2.8-2.8h50c1.5 0 2.8 1.3 2.8 2.8v95.9z"/></g><g class="st4"><path class="st5" d="M916.9 553.3c0 1.5 1.3 2.8 2.8 2.8h50c1.5 0 2.8-1.3 2.8-2.8V433.8c0-1.5-1.3-2.8-2.8-2.8h-50c-1.5 0-2.8 1.3-2.8 2.8v119.5z"/></g><path d="M1051.7 613.1c0 7.6-6.3 13.9-13.9 13.9h-32c-7.6 0-13.9-6.3-13.9-13.9V297.6c0-7.6 6.3-13.9 13.9-13.9h32c7.6 0 13.9 6.3 13.9 13.9v315.5z" fill="#006278"/><g class="st4"><path class="st5" d="M1040.6 408.2c0 1.5-1.3 2.8-2.8 2.8h-32c-1.5 0-2.8-1.3-2.8-2.8v-94.5c0-1.5 1.3-2.8 2.8-2.8h32c1.5 0 2.8 1.3 2.8 2.8v94.5z"/></g><g class="st4"><path class="st5" d="M1003.1 478.8c0 1.5 1.3 2.8 2.8 2.8h32c1.5 0 2.8-1.3 2.8-2.8v-36.1c0-1.5-1.3-2.8-2.8-2.8h-32c-1.5 0-2.8 1.3-2.8 2.8v36.1z"/></g><g class="st4"><path class="st5" d="M1003.1 514.3c0-1.5 1.3-2.8 2.8-2.8h32c1.5 0 2.8 1.3 2.8 2.8v83.4c0 1.5-1.3 2.8-2.8 2.8h-32c-1.5 0-2.8-1.3-2.8-2.8v-83.4z"/></g><path class="st7" d="M1139.3 613.1c0 7.6-6.3 13.9-13.9 13.9h-59.8c-7.6 0-13.9-6.3-13.9-13.9V265.6c0-7.6 6.3-13.9 13.9-13.9h59.8c7.6 0 13.9 6.3 13.9 13.9v347.5z"/><g class="st4"><path class="st5" d="M1071.2 428.8c0 1.5 1.3 2.8 2.8 2.8h43.1c1.5 0 2.8-1.3 2.8-2.8V287c0-1.5-1.3-2.8-2.8-2.8H1074c-1.5 0-2.8 1.3-2.8 2.8v141.8z"/></g><g class="st4"><path class="st5" d="M1071.2 595.3c0 1.5 1.3 2.8 2.8 2.8h43.1c1.5 0 2.8-1.3 2.8-2.8V461.9c0-1.5-1.3-2.8-2.8-2.8H1074c-1.5 0-2.8 1.3-2.8 2.8v133.4z"/></g><path d="M758.5 613.1c0 7.6-6.3 13.9-13.9 13.9h-19.5c-7.6 0-13.9-6.3-13.9-13.9V293.4c0-7.6 6.3-13.9 13.9-13.9h19.5c7.6 0 13.9 6.3 13.9 13.9v319.7z" fill="#2c9b47"/><g class="st4"><path class="st5" d="M735.2 306.6c-1.5 0-2.8 1.3-2.8 2.8v117.9c0 1.5-1.3 2.8-2.8 2.8H724c-1.5 0-2.8 1.3-2.8 2.8v125c0 1.5 1.3 2.8 2.8 2.8h23.2c1.5 0 2.8-1.3 2.8-2.8V309.4c0-1.5-1.3-2.8-2.8-2.8h-12z"/></g><path class="st8" d="M814.3 190.6c0-7.6 6.3-13.9 13.9-13.9h375.3c7.6 0 13.9 6.3 13.9 13.9v34.7c0 7.6-6.3 13.9-13.9 13.9H828.2c-7.6 0-13.9-6.3-13.9-13.9v-34.7z"/><g class="st4"><path class="st5" d="M1025.6 224.6c0 1.5-1.3 2.8-2.8 2.8h-2.8c-1.5 0-2.8-1.3-2.8-2.8v-33.4c0-1.5 1.3-2.8 2.8-2.8h2.8c1.5 0 2.8 1.3 2.8 2.8v33.4z"/></g><g class="st4"><path class="st5" d="M995.3 217.7c0 1.5-1.3 2.8-2.8 2.8h-61.2c-1.5 0-2.8-1.3-2.8-2.8v-19.5c0-1.5 1.3-2.8 2.8-2.8h61.2c1.5 0 2.8 1.3 2.8 2.8v19.5z"/></g><g class="st4"><path class="st5" d="M1129 217.7c0 1.5-1.3 2.8-2.8 2.8h-69.5c-1.5 0-2.8-1.3-2.8-2.8v-19.5c0-1.5 1.3-2.8 2.8-2.8h69.5c1.5 0 2.8 1.3 2.8 2.8v19.5z"/></g><g class="st4"><path class="st5" d="M1158.1 224.6c0 1.5-1.3 2.8-2.8 2.8h-2.8c-1.5 0-2.8-1.3-2.8-2.8v-33.4c0-1.5 1.3-2.8 2.8-2.8h2.8c1.5 0 2.8 1.3 2.8 2.8v33.4z"/></g><circle class="st1" cx="867.2" cy="207.9" r="19.5"/><path class="st3" d="M1236.6 161.4c0-7.6-6.3-13.9-13.9-13.9H818.2c-7.6 0-13.9 6.3-13.9 13.9v1.4c0 7.6 6.3 13.9 13.9 13.9h404.5c7.6 0 13.9-6.3 13.9-13.9v-1.4z"/><g class="st4"><path class="st5" d="M1046.5 164.1c0 1.5-1.3 2.8-2.8 2.8H836.6c-1.5 0-2.8-1.3-2.8-2.8V160c0-1.5 1.3-2.8 2.8-2.8h207.1c1.5 0 2.8 1.3 2.8 2.8v4.1z"/></g><circle class="st1" cx="1078.8" cy="162.1" r="9.6"/></svg>