<svg xmlns="http://www.w3.org/2000/svg" viewBox="0 0 1920 673" xml:space="preserve"><style>.st1{fill:#cc4b42}.st2{fill:#4caf50}.st3{fill:#fff}.st4{fill:#338738}.st5{fill:#424242}.st6{fill:#81c156}.st7{opacity:.15;fill:#444;enable-background:new}</style><path fill="#468e47" d="M0 0h1920v673H0z"/><path class="st1" d="M1157.5 185c0-9.4-6.1-17.5-14.5-20.4 2.2-3.3 3.4-7.4 3.4-11.8 0-9.8-6.5-18.1-15.4-20.8 1.3-2.8 2.1-5.9 2.1-9.2 0-12-9.7-21.6-21.6-21.6-2.6 0-5.1.4-7.3 1.3-1.2-10.8-10.4-19.1-21.5-19.1-3.9 0-7.4 1-10.5 2.8-3.8-3.1-8.5-5-13.9-5-11.4 0-20.8 8.9-21.5 20.2-50.8 3.1-91.1 45.3-91.1 96.9 0 53.6 43.5 97.1 97.1 97.1 40.6 0 75.3-24.9 89.9-60.3 1.1.2 2.2.3 3.3.3 12 0 21.6-9.7 21.6-21.6 0-5.5-2.1-10.5-5.5-14.4 3.3-3.8 5.4-8.8 5.4-14.4z"/><path class="st2" d="M1084.8 544c0-55.1 28.5-99.9 63.8-99.9h1.1l9.1-16.5c8.1-14.8 16.1-40.4 17.6-57l5.8-58.5c1.8-11.3 2.7-22.9 2.7-34.7 0-15.1-1.6-29.8-4.3-44.2-75-2.4-135.2-64-135.2-139.7 0-8 .7-15.9 2-23.4-26.8-11.3-56.4-17.7-87.4-17.7-124.3 0-224.9 100.8-224.9 224.9 0 11.8.9 23.4 2.7 34.7l5.8 58.5c1.7 16.6 9.7 42.4 17.6 57l9.1 16.5h1.1c35.3 0 63.8 44.7 63.8 99.9 0 5.1-.2 10-.7 14.9 29 37.5 74.5 61.7 125.5 61.7s96.5-24.2 125.5-61.7c-.4-4.8-.7-9.7-.7-14.8z"/><path class="st3" d="M984.3 475.9c1.2 5.7 4.9 10.4 8 10.4h11.3c3.1 0 6.7-4.7 8-10.4l6.8-30.3c1.2-5.7-2.4-10.4-8.3-10.4h-24.2c-5.9 0-9.5 4.7-8.3 10.4l6.7 30.3z"/><path class="st4" d="M971 492.6c-6 .9-16 .9-22 0l-65-9.3c-6-.9-10.3-6.5-9.4-12.5.9-6 6.5-10.3 12.5-9.4l61.9 8.9c6 .9 16 .9 22 0l60.8-8.8c6-.9 11.7 3.3 12.5 9.4.9 6.1-3.3 11.7-9.4 12.5l-63.9 9.2z"/><circle class="st4" cx="859" cy="288.8" r="69.9"/><circle class="st3" cx="859" cy="288.8" r="56"/><path class="st4" d="M812.4 254.9h93.2C894.8 241 878 232 859 232s-35.8 9.1-46.6 22.9z"/><circle class="st5" cx="859" cy="288.8" r="24.4"/><circle class="st3" cx="850.1" cy="281" r="7.8"/><circle class="st4" cx="1054.3" cy="295.4" r="69.9"/><circle class="st3" cx="1054.3" cy="295.4" r="56"/><circle class="st5" cx="1054.3" cy="295.4" r="24.4"/><circle class="st3" cx="1045.4" cy="287.7" r="7.8"/><path class="st4" d="M998.3 283.8h112.2c-5.7-25.7-28.6-44.9-56-44.9s-50.6 19.1-56.2 44.9z"/><path class="st5" d="M975.4 402.4c-3.9-1.1-7-5.9-7-10.5s4.4-7.4 9.8-6.3c5.4 1.1 11.4 5 13.3 8.4s2.6 10.8 1.4 16.1c-1.1 5.4-4 6.3-6.3 2.1-2.3-4.2-7.3-8.7-11.2-9.8zm-30.8 0c3.9-1.1 7-5.9 7-10.5s-4.4-7.4-9.8-6.3c-5.4 1.1-11.4 5-13.3 8.4-1.9 3.4-2.6 10.8-1.4 16.1 1.1 5.4 4 6.3 6.3 2.1 2.3-4.2 7.3-8.7 11.2-9.8z"/><circle class="st6" cx="851.3" cy="135.7" r="16.6"/><circle class="st6" cx="814.6" cy="163.4" r="11.1"/><circle class="st6" cx="890.1" cy="545.1" r="16.6"/><circle class="st4" cx="920.6" cy="577.8" r="10.5"/><path class="st7" d="M735.1 277.4c0 11.8.9 23.4 2.7 34.7l5.8 58.5c1.7 16.6 9.7 42.4 17.6 57l9.1 16.5h1.1c35.3 0 63.8 44.7 63.8 99.9 0 5.1-.2 10-.7 14.9 29 37.5 74.5 61.7 125.5 61.7V52.4c-124.3 0-224.9 100.8-224.9 225z"/><path class="st1" d="M1494.4 233.3c0-6.4-4.2-11.9-9.9-13.9 1.5-2.3 2.3-5.1 2.3-8 0-6.7-4.5-12.3-10.5-14.1.9-1.9 1.4-4 1.4-6.3 0-8.2-6.6-14.7-14.7-14.7-1.7 0-3.5.3-5 .9-.8-7.3-7.1-13-14.7-13-2.6 0-5.1.7-7.2 1.9-2.6-2.1-5.8-3.4-9.5-3.4-7.8 0-14.1 6-14.7 13.8-34.6 2.1-62.1 30.8-62.1 66 0 36.5 29.6 66.2 66.2 66.2 27.7 0 51.3-16.9 61.2-41.1.8.2 1.5.2 2.3.2 8.2 0 14.7-6.6 14.7-14.7 0-3.8-1.4-7.2-3.8-9.8 2.6-2.8 4-6.2 4-10z"/><path class="st2" d="M1444.9 477.9c0-37.6 19.4-68 43.5-68h.8l6.2-11.3c5.5-10.1 11-27.5 12-38.9l3.9-39.8c1.2-7.7 1.8-15.6 1.8-23.7 0-10.3-1.1-20.3-2.9-30.1-51.1-1.7-92.1-43.6-92.1-95.2 0-5.4.5-10.8 1.4-16-18.3-7.7-38.5-12-59.6-12-84.7 0-153.3 68.7-153.3 153.3 0 8 .6 16 1.8 23.7l3.9 39.8c1.1 11.3 6.6 28.9 12 38.9l6.2 11.3h.8c24 0 43.5 30.5 43.5 68 0 3.5-.2 6.8-.5 10.1 19.7 25.6 50.7 42 85.5 42s65.8-16.5 85.5-42c-.2-3.3-.4-6.6-.4-10.1z"/><path class="st3" d="M1376.4 431.5c.8 3.9 3.3 7.1 5.4 7.1h7.7c2.1 0 4.5-3.2 5.4-7.1l4.6-20.6c.8-3.9-1.7-7.1-5.7-7.1h-16.5c-4 0-6.5 3.2-5.7 7.1l4.8 20.6z"/><path class="st4" d="M1367.3 442.9c-4.1.6-10.9.6-15 0l-44.3-6.4c-4.1-.6-7-4.5-6.4-8.5.6-4.1 4.5-7 8.5-6.4l42.2 6c4.1.6 10.9.6 15 0l41.4-6c4.1-.6 7.9 2.3 8.5 6.4s-2.3 7.9-6.4 8.5l-43.5 6.4z"/><circle class="st4" cx="1291.1" cy="304" r="47.6"/><circle class="st3" cx="1291.1" cy="304" r="38.2"/><path class="st4" d="M1259.3 280.9h63.5c-7.3-9.5-18.8-15.6-31.8-15.6-12.9.1-24.4 6.2-31.7 15.6z"/><circle class="st5" cx="1291.1" cy="304" r="16.6"/><circle class="st3" cx="1285" cy="298.7" r="5.3"/><circle class="st4" cx="1424.1" cy="308.5" r="47.6"/><circle class="st3" cx="1424.1" cy="308.5" r="38.2"/><circle class="st5" cx="1424.1" cy="308.5" r="16.6"/><circle class="st3" cx="1418.1" cy="303.2" r="5.3"/><path class="st4" d="M1385.9 300.6h76.4c-3.9-17.5-19.5-30.6-38.2-30.6s-34.3 13-38.2 30.6z"/><path class="st5" d="M1370.4 381.4c-2.6-.8-4.8-4-4.8-7.2s3-5.1 6.7-4.3c3.7.8 7.8 3.4 9.1 5.7 1.3 2.3 1.7 7.3 1 11-.8 3.7-2.7 4.3-4.3 1.4-1.7-2.8-5.1-5.8-7.7-6.6zm-21.1 0c2.6-.8 4.8-4 4.8-7.2s-3-5.1-6.7-4.3c-3.7.8-7.8 3.4-9.1 5.7-1.3 2.3-1.7 7.3-1 11 .8 3.7 2.7 4.3 4.3 1.4 1.7-2.8 5.1-5.8 7.7-6.6z"/><circle class="st6" cx="1285.8" cy="199.6" r="11.3"/><circle class="st6" cx="1260.8" cy="218.6" r="7.6"/><circle class="st6" cx="1312.2" cy="478.6" r="11.3"/><circle class="st4" cx="1333" cy="500.9" r="7.2"/><path class="st7" d="M1206.6 296.2c0 8 .6 16 1.8 23.7l3.9 39.8c1.1 11.3 6.6 28.9 12 38.9l6.2 11.3h.8c24 0 43.5 30.5 43.5 68 0 3.5-.2 6.8-.5 10.1 19.7 25.6 50.7 42 85.5 42V142.9c-84.6 0-153.2 68.7-153.2 153.3z"/><path class="st1" d="M694.7 233.3c0-6.4-4.2-11.9-9.9-13.9 1.5-2.3 2.3-5.1 2.3-8 0-6.7-4.5-12.3-10.5-14.1.9-1.9 1.4-4 1.4-6.3 0-8.2-6.6-14.7-14.7-14.7-1.7 0-3.5.3-5 .9-.8-7.3-7.1-13-14.7-13-2.6 0-5.1.7-7.2 1.9-2.6-2.1-5.8-3.4-9.5-3.4-7.8 0-14.1 6-14.7 13.8-34.6 2.1-62.1 30.8-62.1 66 0 36.5 29.6 66.2 66.2 66.2 27.7 0 51.3-16.9 61.2-41.1.8.2 1.5.2 2.3.2 8.2 0 14.7-6.6 14.7-14.7 0-3.8-1.4-7.2-3.8-9.8 2.6-2.8 4-6.2 4-10z"/><path class="st2" d="M645.2 477.9c0-37.6 19.4-68 43.5-68h.8l6.2-11.3c5.5-10.1 11-27.5 12-38.9l3.9-39.8c1.2-7.7 1.8-15.6 1.8-23.7 0-10.3-1.1-20.3-2.9-30.1-51.1-1.7-92.1-43.6-92.1-95.2 0-5.4.5-10.8 1.4-16-18.3-7.7-38.5-12-59.6-12-84.7 0-153.3 68.7-153.3 153.3 0 8 .6 16 1.8 23.7l3.9 39.8c1.1 11.3 6.6 28.9 12 38.9l6.2 11.3h.8c24 0 43.5 30.5 43.5 68 0 3.5-.2 6.8-.5 10.1 19.7 25.6 50.7 42 85.5 42s65.8-16.5 85.5-42c-.2-3.3-.4-6.6-.4-10.1z"/><path class="st3" d="M576.7 431.5c.8 3.9 3.3 7.1 5.4 7.1h7.7c2.1 0 4.5-3.2 5.4-7.1l4.6-20.6c.8-3.9-1.7-7.1-5.7-7.1h-16.5c-4 0-6.5 3.2-5.7 7.1l4.8 20.6z"/><path class="st4" d="M567.6 442.9c-4.1.6-10.9.6-15 0l-44.3-6.4c-4.1-.6-7-4.5-6.4-8.5.6-4.1 4.5-7 8.5-6.4l42.2 6c4.1.6 10.9.6 15 0l41.4-6c4.1-.6 7.9 2.3 8.5 6.4s-2.3 7.9-6.4 8.5l-43.5 6.4z"/><circle class="st4" cx="491.3" cy="304" r="47.6"/><circle class="st3" cx="491.3" cy="304" r="38.2"/><path class="st4" d="M459.6 280.9h63.5c-7.3-9.5-18.8-15.6-31.8-15.6-12.9.1-24.4 6.2-31.7 15.6z"/><circle class="st5" cx="491.3" cy="304" r="16.6"/><circle class="st3" cx="485.3" cy="298.7" r="5.3"/><circle class="st4" cx="624.4" cy="308.5" r="47.6"/><circle class="st3" cx="624.4" cy="308.5" r="38.2"/><circle class="st5" cx="624.4" cy="308.5" r="16.6"/><circle class="st3" cx="618.4" cy="303.2" r="5.3"/><path class="st4" d="M586.2 300.6h76.4c-3.9-17.5-19.5-30.6-38.2-30.6-18.6 0-34.3 13-38.2 30.6z"/><path class="st5" d="M570.7 381.4c-2.6-.8-4.8-4-4.8-7.2s3-5.1 6.7-4.3c3.7.8 7.8 3.4 9.1 5.7 1.3 2.3 1.7 7.3 1 11-.8 3.7-2.7 4.3-4.3 1.4-1.7-2.8-5.1-5.8-7.7-6.6zm-21.1 0c2.6-.8 4.8-4 4.8-7.2s-3-5.1-6.7-4.3c-3.7.8-7.8 3.4-9.1 5.7-1.3 2.3-1.7 7.3-1 11 .8 3.7 2.7 4.3 4.3 1.4 1.7-2.8 5.1-5.8 7.7-6.6z"/><circle class="st6" cx="486" cy="199.6" r="11.3"/><circle class="st6" cx="461.1" cy="218.6" r="7.6"/><circle class="st6" cx="512.5" cy="478.6" r="11.3"/><circle class="st4" cx="533.3" cy="500.9" r="7.2"/><path class="st7" d="M406.9 296.2c0 8 .6 16 1.8 23.7l3.9 39.8c1.1 11.3 6.6 28.9 12 38.9l6.2 11.3h.8c24 0 43.5 30.5 43.5 68 0 3.5-.2 6.8-.5 10.1 19.7 25.6 50.7 42 85.5 42V142.9c-84.6 0-153.2 68.7-153.2 153.3z"/></svg>