<svg xmlns="http://www.w3.org/2000/svg" viewBox="0 0 1920 673" xml:space="preserve"><style>.st1{fill:#fff}.st2{fill:#221e1f}.st3{fill:#98cd70}.st7{fill:#5aba53}</style><path fill="#57882a" d="M0 0h1920v673H0z"/><ellipse transform="rotate(-53.843 1413.101 265.512)" class="st1" cx="1413.1" cy="265.5" rx="56" ry="39.3"/><path class="st2" d="M1398.1 318.5c-7.2 0-13.8-2.1-19.3-6-18.4-13.5-18-45.5.8-71.4 18.9-25.9 49.3-36 67.7-22.5 9 6.6 13.9 17.8 13.6 31.4-.2 13.4-5.4 27.5-14.4 40-9 12.4-21.1 21.7-33.7 25.9-5 1.7-10 2.6-14.7 2.6zm-15-75c-17.6 24-18.3 53.4-1.7 65.5 7.9 5.8 18.6 6.8 30.2 2.9 11.9-4 23-12.7 31.6-24.4 8.6-11.7 13.5-25.1 13.7-37.6.2-12.2-4-22.1-11.9-27.9-16.6-12.2-44.4-2.4-61.9 21.5z"/><path class="st3" d="M1247.5 355.6s1.6 7.5 0 11.2c-1.6 3.6-12.5 13.8-12.5 13.8l23 3.1s2.9-7.8 3.6-12.8c.7-5.1 0-11.1 0-11.1"/><path class="st2" d="m1259.4 386.1-29.1-4 3.2-3c4.1-3.9 11-10.8 12.1-13.2 1-2.2.5-7.2-.2-9.9l4.1-.8c.2.8 1.7 8.3-.2 12.4-1.2 2.7-6.3 8.1-9.9 11.6l17.1 2.4c.8-2.5 2.4-7.4 3-10.9.7-4.7 0-10.5 0-10.6l4.2-.5c0 .2.8 6.3 0 11.6-.8 5.2-3.6 13-3.7 13.3l-.6 1.6z"/><path class="st3" d="M1352 278.5c-13.5-3.6-47.1-33.1-94.6-36.3-47.5-3.3-74.1 57.3-81.5 81.5s-10.7 43.8-7.5 75 21.9 63.1 32.8 74.8c10.9 11.7 25.4 26.3 45.9 26.3 27.5 0 37.3-20.3 39.6-30 3.1-16.7-12.8-48.9-34.5-50.1-21.7-1.1-28 12.5-28 21.9s10.9 19.5 19.3 20.1c8.4.5 17.5-5.1 16.6-13.1-.9-7.9-7-4.2-7-4.2s1.4 7-4.6 7.5-11.6-4.6-10.7-10.3c.9-5.6 7-10.7 17.3-9.4 10.3 1.4 21.9 22.4 20.1 32.6-1.9 10.3-6.1 26.1-28.4 21.4-28.9-6.1-64.3-58.7-62.9-96.9 1.4-38.2 29.8-58.7 29.8-58.7s23.3 32.6 68.5 30.7c45.2-1.9 76.9-12.1 76.9-12.1s11.6 4.8 28.9 3.3c25.2-5.1 48.6-24.7 48.6-24.7s-15.4-28.4-29.9-36.8c-14.4-8.3-41.1-8.9-54.7-12.5z"/><path class="st2" d="M1247.2 501.9c-22 0-37.3-16.3-47.4-27-11.6-12.3-30.2-44.9-33.4-76-3.3-32.1.2-52.1 7.5-75.9 2.7-8.9 28.4-86.8 83.7-83 34.1 2.4 60.9 17.9 78.6 28.1 7.1 4.1 12.7 7.3 16.3 8.3 4.5 1.2 10.7 2.1 17.3 3 13.1 1.9 27.9 4 37.7 9.7 14.8 8.6 30 36.4 30.7 37.6l.8 1.5-1.3 1.1c-1 .8-24 20-49.5 25.2h-.2c-15.3 1.4-26.3-2.1-29.1-3.1-5 1.5-35.4 10.3-76.7 12-39.7 1.7-63.2-23-68.9-29.9-5.9 4.9-26.2 24.3-27.4 55.8-1.4 36.5 32.5 88.7 61.2 94.8 7.2 1.5 12.9.8 17-1.9 5.7-3.8 7.7-11.2 8.9-17.9.9-5.2-2.3-14.4-7.5-21.7-3.6-4.9-7.5-8.1-10.8-8.5-8.7-1.2-14.1 2.9-14.9 7.6-.3 1.7.3 3.6 1.7 5.1 1.7 1.8 4.3 2.9 6.8 2.7 1-.1 1.7-.4 2.1-1 .9-1.1.8-3.3.6-4l-.3-1.4 1.2-.8c.4-.2 3.6-2.1 6.5-.7 2.1 1 3.3 3.1 3.6 6.4.4 3.5-.8 6.8-3.3 9.7-3.6 3.8-9.7 6.1-15.4 5.8-9.3-.5-21.3-11.3-21.3-22.1 0-3.1.7-10.9 7.1-17 5.4-5.1 13.2-7.5 23-6.9 8.7.5 17.3 5.7 24.3 14.7 9 11.4 14.1 27.4 12.1 37.9-3.1 14.7-16 31.8-41.3 31.8zm6.5-257.9c-49.6 0-73.2 71.9-75.8 80.2-7.1 23.3-10.6 42.8-7.4 74.2 3.1 30.1 21.1 61.7 32.3 73.6 9.6 10.2 24.1 25.7 44.4 25.7 30 0 36.9-25.5 37.6-28.4 1.7-9.2-3.1-24.1-11.3-34.4-6.3-8-13.8-12.6-21.3-13.1-8.7-.5-15.4 1.4-19.9 5.8-5.3 5-5.9 11.5-5.9 14 0 8.2 10.2 17.6 17.3 17.9 4.6.2 9.3-1.5 12.1-4.4 1.2-1.3 2.6-3.4 2.3-6.2-.2-1.7-.7-2.8-1.3-3.1-.4-.2-.9-.2-1.4 0 .1 1.5-.2 3.8-1.5 5.6-.8 1.1-2.4 2.4-5.2 2.7-3.8.3-7.6-1.2-10.2-4-2.3-2.4-3.3-5.6-2.7-8.6 1.1-6.7 8.2-12.6 19.6-11 4.4.6 9.3 4.3 13.6 10.2 4.9 6.8 9.6 17.4 8.2 24.9-1.4 7.5-3.7 15.9-10.7 20.6-5.1 3.4-11.9 4.3-20.2 2.5-14.2-3-30.7-17-44.1-37.3-13.5-20.5-21.1-43.6-20.5-61.7 1.4-38.8 29.5-59.5 30.7-60.4l1.7-1.2 1.2 1.7c.2.3 23.2 31.6 66.7 29.9 44.3-1.8 76-11.9 76.3-12l.8-.2.7.3c.1.1 11.4 4.6 27.8 3.1 20.9-4.3 40.8-19 46.2-23.1-3.4-5.9-16.3-27.6-28.3-34.4-9.1-5.3-23.6-7.4-36.3-9.2-6.7-1-13-1.9-17.8-3.2-4.2-1.1-10-4.5-17.3-8.7-17.4-10-43.7-25.2-76.9-27.5-1.1-.7-2.3-.8-3.5-.8z"/><ellipse transform="rotate(-9.119 1344.933 255.504)" class="st1" cx="1345" cy="255.5" rx="41.2" ry="58.3"/><path class="st2" d="M1349.5 315.5c-21.8 0-42.5-22.6-47.4-53.1-5.2-32.9 9.6-62.7 33.2-66.5 23.6-3.8 47.1 19.9 52.4 52.8 5.2 32.9-9.7 62.7-33.2 66.5-1.6.2-3.3.3-5 .3zm-9.1-115.9c-1.4 0-2.9.2-4.4.4-21.3 3.4-34.7 31.1-29.7 61.7 4.9 30.6 26.2 52.7 47.5 49.3 21.3-3.4 34.7-31.1 29.7-61.7-4.5-28.5-23.3-49.7-43.1-49.7z"/><circle class="st2" cx="1333" cy="265.1" r="9.7"/><circle class="st2" cx="1436.4" cy="255.5" r="9.7"/><path d="M1144.2 377h-28s-3.1 6.5-3.1 12.9 3.1 12.9 3.1 12.9h28V377z" fill="#d07b84"/><path class="st2" d="M1146.3 404.9H1115l-.6-1.2c-.2-.3-3.3-7.1-3.3-13.8 0-6.8 3.2-13.5 3.3-13.8l.6-1.2h31.4l-.1 30zm-28.7-4.2h24.5V379h-24.5c-.8 2.1-2.4 6.5-2.4 10.8 0 4.4 1.6 8.9 2.4 10.9z"/><path class="st1" d="M1166.6 377h-28s-3.1 6.5-3.1 12.9 3.1 12.9 3.1 12.9h28V377z"/><path class="st2" d="M1168.6 404.9h-31.3l-.6-1.2c-.2-.3-3.3-7.1-3.3-13.8 0-6.8 3.2-13.5 3.3-13.8l.6-1.2h31.4l-.1 30zm-28.6-4.2h24.5V379H1140c-.8 2.1-2.4 6.5-2.4 10.8 0 4.4 1.5 8.9 2.4 10.9z"/><path class="st1" d="M1176.4 377h-28s-3.1 6.5-3.1 12.9 3.1 12.9 3.1 12.9h28V377z"/><path class="st2" d="M1178.5 404.9h-31.4l-.6-1.2c-.2-.3-3.3-7.1-3.3-13.8 0-6.8 3.2-13.5 3.3-13.8l.6-1.2h31.4v30zm-28.7-4.2h24.5V379h-24.5c-.8 2.1-2.4 6.5-2.4 10.8 0 4.4 1.6 8.9 2.4 10.9z"/><path d="M1420.5 377h-262.3s-3.1 6.5-3.1 12.9 3.1 12.9 3.1 12.9h262.3l64.6-12.9-64.6-12.9z" fill="#dcc576"/><path class="st1" d="M1420.5 377s-3.9 4.6-3.9 12.9 3.9 12.9 3.9 12.9l64.6-12.9-64.6-12.9z"/><path class="st2" d="M1420.8 404.9H1157l-.6-1.2c-.2-.3-3.3-7.1-3.3-13.8 0-6.8 3.2-13.5 3.3-13.8l.6-1.2 264.1.1 74.8 15-75.1 14.9zm-261.2-4.2h260.8l54.1-10.8-54.1-10.9h-260.8c-.8 2.1-2.4 6.5-2.4 10.8 0 4.4 1.6 8.9 2.4 10.9z"/><path class="st2" d="M1453.6 383.6s-1.6 2.9-1.6 6.3 1.6 6.3 1.6 6.3l31.5-6.3-31.5-6.3z"/><path fill="none" d="M1416.7 390H1155"/><path class="st2" d="M1155 387.8h261.6v4.2H1155z"/><path class="st1" d="M1420.5 377s-3.9 4.6-3.9 12.9 3.9 12.9 3.9 12.9"/><path class="st2" d="M1419 404.2c-.2-.2-4.4-5.2-4.4-14.3 0-9 4.3-14.1 4.4-14.3l3.2 2.7-1.6-1.4 1.6 1.4c0 .1-3.4 4.2-3.4 11.6 0 7.5 3.3 11.6 3.4 11.6l-3.2 2.7z"/><path class="st3" d="M1359.3 402.9c0 1.9 8.4 14.5 23.5 13 15.5-1.5 23.5-13 23.5-13h-15.4s-4.3 2.4-10.1 2.4c-5.9 0-9.2-.8-11-2.4s-1.4-3.6-5.9-3.6c-3.3-.1-4.6 1.7-4.6 3.6z"/><path class="st2" d="M1380.4 418.1c-8.6 0-14.7-4.3-17.6-6.9-2.7-2.4-5.6-6.2-5.6-8.3 0-2.8 2.1-5.7 6.8-5.7 4 0 5.2 1.4 6.5 3.1.3.4.5.8.8 1.1 1.4 1.3 4.6 1.9 9.6 1.9 5.2 0 9-2.1 9.1-2.1l.5-.3h19.9l-2.3 3.3c-.4.5-8.7 12.3-25 13.9h-2.7zm-19-15.4c.6 1.6 7.8 12.4 21.2 11.1 9.1-.9 15.6-5.6 19-8.8h-10.2c-1.4.7-5.5 2.4-10.6 2.4-6.3 0-10.1-.9-12.4-3-.7-.6-1.1-1.2-1.4-1.7-.7-1-.9-1.3-3-1.3-1 0-2.5.1-2.6 1.3z"/><path class="st3" d="M1216 328.7s-5.6 10.9-6.1 20.7c-.5 9.8 4 23.4 4 23.4s-7.5 8.6-8.7 14.9c-.6 3.1-.4 6.6 3.5 11.6 4 5.2 7.8 7.8 9.5 8.2 3.5.8 5.8-.7 8.1-1.9s5.3-2.1 3.3-2.8c-5.9-.5-12.9-12.1-11.2-14.9 1.7-2.8 6.6-10.9 6.6-10.9h11.7s-13.1-15.4-12.9-19.8c.2-4.3 9.1-20.8 9.1-20.8"/><path class="st2" d="M1220.3 409.9c-.8 0-1.6-.1-2.5-.3-2.8-.7-7-4.2-10.6-8.9-4.6-5.9-4.5-10.3-3.9-13.3 1.1-5.6 6.4-12.5 8.4-15-1.1-3.5-4.3-14.5-3.8-23 .5-10.1 6.1-21.1 6.3-21.6l3.7 1.9c-.1.1-5.4 10.6-5.9 19.8-.5 9.3 3.9 22.5 3.9 22.7l.4 1.1-.8.9c-2 2.3-7.3 9.2-8.2 13.9-.5 2.5-.5 5.4 3.1 10 3.7 4.8 7.1 7.1 8.4 7.5 2.4.6 4-.3 5.9-1.4l.6-.4c.2-.1.2-.2.4-.2-3.3-2-6.3-5.8-8.1-9.3-1.1-2.3-2.2-5.5-.9-7.5 1.7-2.7 6.5-10.8 6.5-10.9l.6-1.1h8.4c-4.3-5.3-10.7-14-10.6-17.8.2-4.6 7.8-18.9 9.4-21.7l3.6 2c-3.3 6.2-8.7 17-8.8 19.8-.1 2.1 6.4 11.2 12.5 18.4l3 3.4h-15.1c-1.4 2.3-4.6 7.6-5.9 9.9-.1.7.6 3.3 2.8 6.4s4.9 5.2 6.7 5.4l.5.1c1.7.6 2 1.7 2.1 2.4.1 1.8-1.5 2.6-3.5 3.5-.5.2-1.1.5-1.7.8l-.6.3c-1.6 1.1-3.6 2.2-6.3 2.2zm.1-20.9"/><path class="st3" d="M1297.3 336.5s-5.2 11.2-3.5 20.3c1.7 9.1 13.8 20.3 13.8 20.3s-1.1 9.1 0 14.4c1.1 5.3 4.3 17.1 12.5 19 8.2 1.8 14.8-7.6 14.8-7.6h-11s-5.7-7.5-4.9-12.9c.8-5.5 11.2-12.9 11.2-12.9h9.9s-6.5-6.9-12.3-6.7c-5.9.2-11.9 5.3-11.9 5.3s-3.6-6.8-4.7-8.1c-1.1-1.3-5.3-14.1-4.3-18.8s6.8-12.3 6.8-12.3"/><path class="st2" d="M1322.2 412.8c-.8 0-1.7-.1-2.7-.3-9.2-2.1-12.8-13.8-14.1-20.6-.9-4.6-.4-11.4-.2-14.1-2.7-2.7-12-12.3-13.6-20.7-1.8-9.7 3.4-21.1 3.6-21.6l3.8 1.7c-.1.1-4.9 10.7-3.3 19s13 19 13.2 19.2l.8.7-.2 1.1c0 .1-1 8.8 0 13.8.9 4.7 3.8 15.7 10.9 17.3 3.8.8 7.3-1.4 9.7-3.4h-7.3l-.6-.8c-.6-.8-6.2-8.3-5.3-14.5.9-6.2 10.9-13.5 12-14.3l.5-.4h4.9c-2.1-1.4-4.5-2.6-6.5-2.5-5 .2-10.6 4.8-10.6 4.8l-2 1.7-1.2-2.3c-1.5-2.7-3.9-6.9-4.5-7.7-1.4-1.7-5.9-15.3-4.7-20.5 1.1-5 6.8-12.8 7.1-13.2l3.3 2.5c-1.5 2.1-5.6 8.1-6.4 11.6-.8 3.7 2.9 15.5 3.9 17 .8.9 2.5 4 3.7 6.2 2.4-1.7 6.8-4.2 11.2-4.3 6.5-.2 13.2 6.6 13.9 7.4l3.3 3.6h-14.1c-3.7 2.8-9.3 7.9-9.8 11.2-.5 3.3 2.2 8.1 3.9 10.5h13.9l-2.3 3.3c-.1.3-6 8.6-14.2 8.6z"/><path class="st3" d="m1340 354.1 22 22.9s-.5 1.3-2.6 5.6-2.8 6.4-.9 7.4 7.2-4.4 9.6-7.4 4.4-5.6 4.4-5.6h32.7s-11.4-7.6-19.5-8.1c-8.1-.4-15.8-.8-15.8-.8l-10.9-18.9"/><path class="st2" d="M1359 392.1c-.5 0-.9-.1-1.4-.3-4-2-1.7-6.5 0-10.1 1-2.1 1.6-3.4 2.1-4.3l-21.1-21.9 3-2.9 23 23.9-.5 1.3c0 .1-.6 1.4-2.7 5.7-.4.8-1.4 3-1.7 4.2 1.5-.8 4.6-3.6 6.8-6.4l5.1-6.4h25.9c-3.6-1.8-8.1-3.6-11.7-3.9l-17-.8-11.6-19.8 3.6-2.1 10.4 17.9 14.7.8c8.5.5 20 8.1 20.5 8.4l5.8 3.9h-38.6l-3.8 4.8c-.8.7-6.7 8-10.8 8z"/><path class="st2" d="m1319 360-.6-4.2c24.3-3.6 39.8-8.5 40-8.6l.8-.2.7.3c.1 0 9.2 3.7 22.9 3.3l.1 4.2c-12.5.3-21.4-2.5-23.9-3.4-3.4 1.1-18.2 5.4-40 8.6z"/><path class="st1" d="M770.7 407.6c7.3-20.4 10.7-47.1 10.7-80.1 0-50-8.7-87.4-25.7-111.1-17-23.8-46.6-35.9-88.8-35.9-42.2 0-72.3 12.1-89.3 36.4-17 24.3-25.7 61.1-25.7 111.1 0 49.5 8.3 85.9 25.2 109.2 16.5 22.8 46.6 34.5 89.3 34.5 11.6 0 19.9-1 25.2-2.4l36.4 60.2 42.2-19.9-34-55.3c16-10.8 27.7-26.3 34.5-46.7zm-51 1c-9.2 16-27.2 23.8-53.4 23.8s-44.2-8.3-53.4-24.3c-9.2-16-14.1-42.7-14.1-80.1s4.9-64.5 14.6-81.5c9.2-17 27.2-25.7 52.9-25.7s43.2 8.7 52.9 25.2c9.2 17 14.1 44.6 14.1 82 0 37.9-4.8 64.6-13.6 80.6zm118-212.1v59.7h-31.5v38.3h31.5v95.6c0 29.6 4.4 50 13.1 60.7s24.8 16 48 16c9.7 0 23.3-1.9 42.2-5.3l-1.9-35.9-34 1.5c-10.2 0-16.5-2.9-18.9-8.3-2.4-5.8-3.9-17-3.9-33.5v-90.8h56.8v-38.3h-56.8v-59.7h-44.6z"/><path class="st7" d="M666.3 220.8c-25.7 0-43.7 8.7-52.9 25.7-9.7 17-14.6 44.2-14.6 81.5s4.9 64.1 14.1 80.1 27.2 24.3 53.4 24.3 44.2-7.8 53.4-23.8c8.7-16 13.6-42.7 13.6-80.6 0-37.4-4.9-65-14.1-82-9.7-16.5-27.1-25.2-52.9-25.2z"/><path class="st7" d="M1011.4 97h-497l-90.3 90.3V576h560l90.3-90.3V97h-63zM770.2 509.5 728 529.4l-36.4-60.2c-5.3 1.5-13.6 2.4-25.2 2.4-42.7 0-72.8-11.6-89.3-34.5-17-23.3-25.2-59.7-25.2-109.2 0-50 8.7-86.9 25.7-111.1 17-24.3 47.1-36.4 89.3-36.4 42.2 0 71.8 12.1 88.8 35.9 17 23.8 25.7 61.1 25.7 111.1 0 33-3.4 59.7-10.7 80.1-6.8 20.4-18.4 35.9-34.5 46.6l34 55.4zm128.6-42.7c-23.3 0-39.3-5.3-48-16-8.7-10.7-13.1-31.1-13.1-60.7v-95.6h-31.5v-38.3h31.5v-59.7h44.6v59.7h56.8v38.3h-56.8v90.8c0 16.5 1.5 27.7 3.9 33.5 2.4 5.3 8.7 8.3 18.9 8.3l34-1.5 1.9 35.9c-18.9 3.4-32.5 5.3-42.2 5.3z"/></svg>