<svg version="1.1" xmlns="http://www.w3.org/2000/svg" x="0" y="0" viewBox="0 0 1920 673" xml:space="preserve"><style type="text/css">.st1{fill:#276c88}</style><path fill="#52c2ef" d="M0 0h1920v673H0z" id="background"/><g id="image"><path class="st1" d="M17.4 1.5h-7L10.2 4h.3c.2-1.8.3-2.2 2.1-2.2h.6c.2 0 .2.2.2.4v6c0 .4 0 .5-1.2.5h-.5v.4H16v-.3h-.5c-1.2 0-1.2-.2-1.2-.5v-6c0-.2 0-.4.2-.4h.7c1.7 0 1.9.4 2 2.2h.3l-.1-2.6z" transform="matrix(45 0 0 45 40 40)"/><path class="st1" d="M23.5 8.8h-.3c-.3 1.7-.5 2.6-2.5 2.6h-1.5c-.5 0-.6-.1-.6-.5v-3h1c1.1 0 1.2.4 1.2 1.3h.3v-3h-.3c0 1-.1 1.3-1.2 1.3h-1V4.8c0-.4 0-.5.6-.5h1.5c1.7 0 2 .6 2.2 2.2h.3L22.9 4h-6.4v.3h.3c.9 0 .9.1.9.5v6c0 .4 0 .5-.9.5h-.3v.4H23l.5-2.9z" transform="matrix(45 0 0 45 40 40)"/><path class="st1" d="M27 4.8l1.6-2.3c.2-.4.6-.7 1.6-.7v-.4h-2.7v.3c.5 0 .7.3.7.5 0 .1 0 .1-.1.3l-1.3 1.9-1.5-2.2s-.1-.1-.1-.2.3-.3.7-.3v-.3h-3.2v.3h.3c.6 0 .8.1 1.1.4l2.1 3.2-1.9 2.8c-.2.2-.5.8-1.6.8v.4h2.7v-.5c-.5 0-.7-.3-.7-.5 0-.1 0-.1.1-.3l1.6-2.4 1.8 2.7.1.1c0 .1-.3.3-.7.3v.4h3.2v-.3h-.2c-.6 0-.8-.1-1.1-.4L27 4.8z" transform="matrix(45 0 0 45 40 40)"/></g></svg>