<svg xmlns="http://www.w3.org/2000/svg" viewBox="0 0 1920 673" xml:space="preserve"><path fill="#34495e" d="M0 0h1920v673H0z"/><path d="M1322.8 144.5c-106 0-192 86-192 192s86 192 192 192 192-86 192-192-86-192-192-192zM1293.9 263h-28v147h28v22h-56V241h56v22zm113.7 0v169h-56v-22h28V263h-28v-22h56v22zm-953.9 26.9h-24.9l-4.3 14.1h-19.4l27.6-75.2h17.1l27.8 75.2h-19.5l-4.4-14.1zm-20.5-14h16.2l-8.1-26.1-8.1 26.1zm77.8 1.4h-9.8v26.6h-18.1v-75.2h29.6c8.9 0 15.9 2 20.9 5.9 5 4 7.5 9.5 7.5 16.8 0 5.2-1.1 9.6-3.2 13-2.1 3.4-5.4 6.2-9.9 8.4l15.7 30.4v.8h-19.4L511 277.3zm-9.8-13.9h11.5c3.4 0 6-.9 7.8-2.7 1.7-1.8 2.6-4.3 2.6-7.6 0-3.2-.9-5.8-2.6-7.6-1.8-1.8-4.3-2.8-7.8-2.8h-11.5v20.7zM613 278.5c-.2 5.2-1.7 9.9-4.2 13.9s-6.2 7.1-10.9 9.3c-4.7 2.2-10 3.3-16 3.3-9.9 0-17.7-3.2-23.4-9.7-5.7-6.4-8.5-15.5-8.5-27.3v-3.7c0-7.4 1.3-13.8 3.8-19.3 2.6-5.5 6.3-9.8 11.1-12.8s10.4-4.5 16.7-4.5c9.1 0 16.5 2.4 22 7.2 5.5 4.8 8.7 11.4 9.5 19.9H595c-.1-4.6-1.3-7.9-3.5-9.9s-5.5-3-9.9-3c-4.5 0-7.8 1.7-9.9 5.1-2.1 3.4-3.2 8.8-3.3 16.2v5.3c0 8 1 13.8 3 17.2 2 3.4 5.5 5.2 10.4 5.2 4.2 0 7.4-1 9.6-2.9 2.2-2 3.4-5.1 3.5-9.4H613zm72.2-10.6c0 7.3-1.4 13.8-4.1 19.5-2.7 5.6-6.6 10-11.6 13s-10.7 4.6-17.1 4.6-12.1-1.5-17.1-4.4c-5-2.9-8.8-7.2-11.6-12.6-2.8-5.5-4.2-11.8-4.4-18.9v-4.2c0-7.4 1.4-13.9 4.1-19.5 2.7-5.6 6.6-10 11.6-13 5-3.1 10.8-4.6 17.2-4.6 6.4 0 12.1 1.5 17.1 4.5 5 3 8.9 7.3 11.7 12.9 2.8 5.6 4.2 12 4.2 19.2v3.5zm-18.4-3.2c0-7.5-1.2-13.1-3.7-17-2.5-3.9-6.1-5.8-10.7-5.8-9.1 0-13.9 6.8-14.4 20.5l-.1 5.5c0 7.4 1.2 13 3.7 17 2.4 4 6.1 5.9 10.9 5.9 4.6 0 8.1-1.9 10.6-5.8s3.7-9.5 3.8-16.8v-3.5zm90.6 39.2h-18l-26.7-46.8v46.8h-18.1v-75.2h18.1l26.6 46.8v-46.8h18.1v75.2zm30.8 0h-18.1v-75.2h18.1v75.2zm41.5-50.2 12.3-25h20.7l-21 37.3 21.6 37.9h-20.9l-12.7-25.5-12.7 25.5h-20.9l21.5-37.9-21-37.3h20.7l12.4 25zM449.8 410.9c0-2.7-.9-4.7-2.8-6.2s-5.2-3-9.9-4.6c-4.7-1.6-8.6-3.1-11.6-4.6-9.7-4.8-14.6-11.4-14.6-19.7 0-4.2 1.2-7.8 3.6-11 2.4-3.2 5.9-5.7 10.3-7.4 4.4-1.8 9.4-2.7 15-2.7 5.4 0 10.3 1 14.5 2.9 4.3 1.9 7.6 4.7 10 8.2 2.4 3.6 3.6 7.6 3.6 12.2h-18.1c0-3.1-.9-5.4-2.8-7.1-1.9-1.7-4.4-2.5-7.6-2.5-3.2 0-5.8.7-7.7 2.1-1.9 1.4-2.8 3.2-2.8 5.5 0 1.9 1 3.7 3.1 5.2 2.1 1.6 5.7 3.2 10.9 4.9 5.2 1.7 9.5 3.5 12.8 5.4 8.1 4.7 12.2 11.1 12.2 19.4 0 6.6-2.5 11.7-7.4 15.5-5 3.8-11.8 5.6-20.4 5.6-6.1 0-11.6-1.1-16.6-3.3-4.9-2.2-8.7-5.2-11.2-9s-3.7-8.2-3.7-13.1h18.2c0 4 1 7 3.1 8.9 2.1 1.9 5.5 2.9 10.2 2.9 3 0 5.4-.6 7.1-1.9 1.7-1.4 2.6-3.2 2.6-5.6zm90.3 20h-18v-31.4h-26.7v31.4h-18.1v-75.2h18.1v29.9h26.7v-29.9h18v75.2zm75.2-36.1c0 7.3-1.4 13.8-4.1 19.5-2.7 5.7-6.6 10-11.6 13s-10.7 4.6-17.1 4.6-12.1-1.5-17.1-4.4c-5-2.9-8.8-7.2-11.6-12.6-2.8-5.5-4.2-11.8-4.4-18.9v-4.2c0-7.4 1.4-13.9 4.1-19.5 2.7-5.6 6.6-10 11.6-13 5-3.1 10.8-4.6 17.2-4.6 6.4 0 12.1 1.5 17.1 4.5 5 3 8.9 7.3 11.7 12.9 2.8 5.6 4.2 12 4.2 19.2v3.5zm-18.5-3.1c0-7.5-1.2-13.1-3.7-17-2.5-3.9-6.1-5.8-10.7-5.8-9.1 0-13.9 6.8-14.4 20.5l-.1 5.5c0 7.4 1.2 13 3.7 17 2.4 4 6.1 5.9 10.9 5.9 4.6 0 8.1-1.9 10.6-5.8s3.7-9.5 3.8-16.8v-3.5zm55.8 12.6h-9.8v26.6h-18.1v-75.2h29.6c8.9 0 15.9 2 20.9 5.9 5 4 7.5 9.5 7.5 16.8 0 5.2-1.1 9.6-3.2 13-2.1 3.4-5.4 6.2-9.9 8.4l15.7 30.4v.8h-19.4l-13.3-26.7zm-9.8-13.9h11.5c3.4 0 6-.9 7.8-2.7 1.7-1.8 2.6-4.3 2.6-7.6 0-3.2-.9-5.8-2.6-7.6-1.8-1.8-4.3-2.8-7.8-2.8h-11.5v20.7zm107.3-20.7h-22.6v61.2h-18.1v-61.2h-22.2v-14h62.9v14zm67.1 35.7c-.2 5.2-1.7 9.9-4.2 13.9-2.6 4-6.2 7.1-10.9 9.3-4.7 2.2-10 3.3-16 3.3-9.9 0-17.7-3.2-23.4-9.7-5.7-6.4-8.5-15.5-8.5-27.3v-3.7c0-7.4 1.3-13.8 3.8-19.3 2.6-5.5 6.3-9.8 11.1-12.8s10.4-4.5 16.7-4.5c9.1 0 16.5 2.4 22 7.2 5.5 4.8 8.7 11.4 9.5 19.9h-18.1c-.1-4.6-1.3-7.9-3.5-9.9s-5.5-3-9.9-3c-4.5 0-7.8 1.7-9.9 5.1-2.1 3.4-3.2 8.8-3.3 16.2v5.3c0 8 1 13.8 3 17.2 2 3.4 5.5 5.2 10.4 5.2 4.2 0 7.4-1 9.6-2.9 2.2-2 3.4-5.1 3.5-9.4h18.1zm72.3-10.6c0 7.3-1.4 13.8-4.1 19.5-2.7 5.7-6.6 10-11.6 13s-10.7 4.6-17.1 4.6-12.1-1.5-17.1-4.4c-5-2.9-8.8-7.2-11.6-12.6-2.8-5.5-4.2-11.8-4.4-18.9v-4.2c0-7.4 1.4-13.9 4.1-19.5 2.7-5.6 6.6-10 11.6-13 5-3.1 10.8-4.6 17.2-4.6 6.4 0 12.1 1.5 17.1 4.5 5 3 8.9 7.3 11.7 12.9 2.8 5.6 4.2 12 4.2 19.2v3.5zm-18.5-3.1c0-7.5-1.2-13.1-3.7-17-2.5-3.9-6.1-5.8-10.7-5.8-9.1 0-13.9 6.8-14.4 20.5l-.1 5.5c0 7.4 1.2 13 3.7 17 2.4 4 6.1 5.9 10.9 5.9 4.6 0 8.1-1.9 10.6-5.8s3.7-9.5 3.8-16.8v-3.5zm27.8 39.2v-75.2H923c6.6 0 12.6 1.5 17.9 4.5 5.3 3 9.4 7.3 12.4 12.8 3 5.5 4.5 11.7 4.5 18.5v3.5c0 6.9-1.5 13.1-4.4 18.5-2.9 5.5-7 9.7-12.3 12.8-5.3 3.1-11.2 4.6-17.7 4.7h-24.6zm18.2-61.2V417h6.3c5.2 0 9.2-1.9 12-5.6s4.2-9.2 4.2-16.5v-3.3c0-7.3-1.4-12.7-4.2-16.4s-6.9-5.5-12.2-5.5H917zm96.9 29.3h-28.5v18h33.7v14h-51.8v-75.2h51.9v14h-33.8v15.9h28.5V399zm51.3 11.9c0-2.7-.9-4.7-2.8-6.2s-5.2-3-9.9-4.6c-4.7-1.6-8.6-3.1-11.6-4.6-9.7-4.8-14.6-11.4-14.6-19.7 0-4.2 1.2-7.8 3.6-11 2.4-3.2 5.9-5.7 10.3-7.4 4.4-1.8 9.4-2.7 15-2.7 5.4 0 10.3 1 14.5 2.9 4.3 1.9 7.6 4.7 10 8.2 2.4 3.6 3.6 7.6 3.6 12.2h-18.1c0-3.1-.9-5.4-2.8-7.1-1.9-1.7-4.4-2.5-7.6-2.5-3.2 0-5.8.7-7.7 2.1-1.9 1.4-2.8 3.2-2.8 5.5 0 1.9 1 3.7 3.1 5.2 2.1 1.6 5.7 3.2 10.9 4.9 5.2 1.7 9.5 3.5 12.8 5.4 8.1 4.7 12.2 11.1 12.2 19.4 0 6.6-2.5 11.7-7.4 15.5-5 3.8-11.8 5.6-20.4 5.6-6.1 0-11.6-1.1-16.6-3.3-4.9-2.2-8.7-5.2-11.2-9s-3.7-8.2-3.7-13.1h18.2c0 4 1 7 3.1 8.9s5.5 2.9 10.2 2.9c3 0 5.4-.6 7.1-1.9 1.8-1.4 2.6-3.2 2.6-5.6z" fill="#fff"/></svg>