<svg xmlns="http://www.w3.org/2000/svg" viewBox="0 0 1920 673" xml:space="preserve"><path fill="#281301" d="M0 0h1920v673H0z"/><path d="M973.1 475.5H812.6l-30.5 91.6h-97.4l165.4-444.3H935l166.3 444.3h-97.4l-30.8-91.6zm-135.8-74.2h111.1L892.6 235l-55.3 166.3zm299.1-249.9c0-13.2 4.4-24.1 13.3-32.7 8.9-8.5 20.9-12.8 36.2-12.8 15.1 0 27.1 4.3 36 12.8 9 8.5 13.4 19.4 13.4 32.7 0 13.4-4.5 24.4-13.6 33-9.1 8.5-21 12.8-35.9 12.8-14.9 0-26.8-4.3-35.9-12.8-9-8.6-13.5-19.6-13.5-33zm93.7 415.7h-88.5V236.9h88.5v330.2z" fill="#ffb64f"/></svg>