<svg xmlns="http://www.w3.org/2000/svg" viewBox="0 0 1920 673" xml:space="preserve"><style>.st1{fill:#276c88}</style><path fill="#52c2ef" d="M0 0h1920v673H0z"/><path class="st1" d="M823 107.5H508L499 220h13.5c9-81 13.5-99 94.5-99h27c9 0 9 9 9 18v270c0 18 0 22.5-54 22.5h-22.5v18H760V436h-22.5c-54 0-54-9-54-22.5v-270c0-9 0-18 9-18H724c76.5 0 85.5 18 90 99h13.5l-4.5-117z"/><path class="st1" d="M1097.5 436H1084c-13.5 76.5-22.5 117-112.5 117H904c-22.5 0-27-4.5-27-22.5v-135h45c49.5 0 54 18 54 58.5h13.5V319H976c0 45-4.5 58.5-54 58.5h-45V256c0-18 0-22.5 27-22.5h67.5c76.5 0 90 27 99 99h13.5L1070.5 220h-288v13.5H796c40.5 0 40.5 4.5 40.5 22.5v270c0 18 0 22.5-40.5 22.5h-13.5v18H1075l22.5-130.5z"/><path class="st1" d="m1255 256 72-103.5c9-18 27-31.5 72-31.5v-18h-121.5v13.5c22.5 0 31.5 13.5 31.5 22.5 0 4.5 0 4.5-4.5 13.5L1246 238l-67.5-99s-4.5-4.5-4.5-9 13.5-13.5 31.5-13.5V103h-144v13.5h13.5c27 0 36 4.5 49.5 18l94.5 144-85.5 126c-9 9-22.5 36-72 36v18H1183V436c-22.5 0-31.5-13.5-31.5-22.5 0-4.5 0-4.5 4.5-13.5l72-108 81 121.5 4.5 4.5c0 4.5-13.5 13.5-31.5 13.5v18h144V436h-9c-27 0-36-4.5-49.5-18L1255 256z"/></svg>