<svg xmlns="http://www.w3.org/2000/svg" viewBox="0 0 1920 673" xml:space="preserve"><path fill="#009bc5" d="M0 0h1920v673H0z"/><path d="M857 341.6c0 24.3-4.5 45.7-13.5 64.4-9 18.7-21.8 33.1-38.4 43.2-16.6 10.1-35.5 15.1-56.7 15.1s-40-4.9-56.4-14.6-29.2-23.7-38.4-41.8c-9.2-18.1-14-38.9-14.4-62.4v-14c0-24.4 4.5-45.9 13.4-64.5s21.8-33 38.5-43.2c16.7-10.1 35.7-15.2 57-15.2 21.1 0 39.9 5 56.4 15s29.4 24.3 38.5 42.8c9.2 18.5 13.8 39.7 13.9 63.7v11.5zm-61-10.4c0-24.7-4.1-43.5-12.4-56.3-8.3-12.8-20.1-19.2-35.5-19.2-30.1 0-46 22.6-47.7 67.7l-.2 18.3c0 24.4 4 43.1 12.1 56.2 8.1 13.1 20.1 19.7 36.1 19.7 15.2 0 26.8-6.4 35-19.3s12.4-31.4 12.5-55.5v-11.6zm92 129.7V212.1h80.2c22 0 41.8 5 59.3 15s31.2 24 41.1 42.2c9.9 18.2 14.8 38.5 15 61.1v11.5c0 22.8-4.8 43.2-14.4 61.3-9.6 18.1-23.2 32.2-40.7 42.4-17.5 10.2-37 15.4-58.5 15.5h-82zm60-202.5v156.4h20.8c17.2 0 30.4-6.1 39.6-18.4 9.2-12.2 13.8-30.4 13.8-54.6V331c0-24-4.6-42.2-13.8-54.3-9.2-12.2-22.7-18.3-40.3-18.3H948zm322.9 103.4h-96.7v99.1h-60V212.1h166.5v46.3h-106.5v57.3h96.7v46.1z" fill="#fff"/></svg>