<svg xmlns="http://www.w3.org/2000/svg" viewBox="0 0 1920 673" xml:space="preserve"><style>.st2{fill:#f8f8f8}</style><path fill="#267786" d="M0 0h1920v673H0z"/><circle cx="960" cy="336.5" r="256" fill="#cc584c"/><path class="st2" d="M1043.4 490.6 805.9 253.1c-12.5-12.5-12.5-32.8 0-45.3l25.5-25.5c12.5-12.5 32.8-12.5 45.3 0l237.6 237.6c12.5 12.5 12.5 32.8 0 45.3l-25.5 25.5c-12.6 12.4-32.9 12.4-45.4-.1z"/><path class="st2" d="M1114.1 253.1 876.6 490.6c-12.5 12.5-32.8 12.5-45.3 0l-25.5-25.5c-12.5-12.5-12.5-32.8 0-45.3l237.6-237.6c12.5-12.5 32.8-12.5 45.3 0l25.5 25.5c12.4 12.6 12.4 32.9-.1 45.4z"/><path d="M704 336.5c0 141.4 114.6 256 256 256v-512c-141.4 0-256 114.6-256 256z" opacity=".15" fill="#444"/></svg>