<svg xmlns="http://www.w3.org/2000/svg" viewBox="0 0 1920 673" xml:space="preserve"><style>.st1{fill:#fff}.st2{fill:#221e1f}.st3{fill:#98cd70}</style><path fill="#6593c7" d="M0 0h1920v673H0z"/><ellipse transform="rotate(-53.843 1149.075 193.17)" class="st1" cx="1149.1" cy="193.2" rx="96.6" ry="67.8"/><path class="st2" d="M1123.2 284.5c-12.5 0-23.9-3.5-33.3-10.4-31.7-23.2-31.1-78.4 1.4-123.1 32.6-44.6 84.9-62 116.8-38.8 15.6 11.4 24 30.7 23.5 54.1-.4 23.1-9.3 47.4-24.9 68.9-15.6 21.4-36.3 37.4-58.1 44.7-8.7 3-17.2 4.6-25.4 4.6zm-25.9-129.3c-30.3 41.4-31.6 92-3 112.9 13.6 10 32.1 11.7 52 5 20.4-6.9 39.7-21.9 54.5-42.1s23.2-43.3 23.6-64.7c.4-21.1-6.9-38.1-20.6-48.1-28.4-21-76.2-4.2-106.5 37z"/><path class="st3" d="M863.6 348.4s2.8 13 0 19.3c-2.8 6.3-21.6 23.9-21.6 23.9l39.7 5.4s5-13.5 6.2-22.2c1.2-8.8 0-19.1 0-19.1"/><path class="st2" d="m884.2 401-50.2-6.8 5.5-5.2c7.1-6.7 19-18.6 20.8-22.7 1.7-3.8.8-12.5-.3-17l7.1-1.4c.3 1.4 2.9 14.3-.3 21.4-2.1 4.7-10.9 13.9-17 19.9l29.5 4.1c1.4-4.3 4.2-12.7 5.1-18.7 1.2-8.1 0-18.1 0-18.2l7.2-.8c0 .4 1.3 10.9 0 20.1-1.3 9-6.2 22.4-6.4 22.9l-1 2.4z"/><path class="st3" d="M1043.8 215.5c-23.3-6.3-81.1-57-163.1-62.7S753 251.6 740.2 293.3c-12.8 41.7-18.5 75.5-12.8 129.4 5.6 53.9 37.7 108.8 56.6 129s43.8 45.4 79.2 45.4c47.4 0 64.4-35 68.3-51.8 5.4-28.8-22.2-84.3-59.5-86.4-37.4-2-48.2 21.6-48.2 37.7s18.9 33.7 33.3 34.6 30.1-8.8 28.6-22.5c-1.6-13.6-12.1-7.2-12.1-7.2s2.4 12.1-8 12.8-20.1-8-18.5-17.7 12.1-18.5 29.8-16.1c17.7 2.4 37.7 38.5 34.6 56.2-3.3 17.7-10.5 45-49 37-49.9-10.4-111-101.1-108.5-167.1 2.4-65.9 51.4-101.2 51.4-101.2s40.1 56.2 118.1 53c78-3.3 132.5-20.8 132.5-20.8s20.1 8.3 49.8 5.6c43.4-8.8 83.8-42.6 83.8-42.6s-26.6-49-51.5-63.4c-24.9-14.5-71-15.4-94.3-21.7z"/><path class="st2" d="M863.1 600.6c-38 0-64.4-28-81.8-46.5-19.9-21.2-52-77.5-57.5-131.1-5.8-55.3.4-89.8 13-130.8 4.7-15.3 48.9-149.7 144.3-143.1 58.9 4.1 105 30.8 135.5 48.4 12.2 7.1 21.9 12.6 28.2 14.3 7.7 2.1 18.5 3.7 29.8 5.2 22.5 3.3 48.1 6.9 65 16.8 25.4 14.8 51.8 62.8 53 64.9l1.4 2.6-2.2 1.8c-1.7 1.4-41.4 34.5-85.3 43.4h-.4c-26.3 2.4-45.4-3.5-50.2-5.4-8.7 2.6-61.1 17.7-132.2 20.7-68.4 2.9-108.9-39.7-118.7-51.5-10.1 8.5-45.2 41.8-47.2 96.2-2.4 62.9 56 153 105.5 163.4 12.5 2.6 22.3 1.4 29.4-3.3 9.8-6.6 13.2-19.3 15.3-30.8 1.6-8.9-3.9-24.9-12.8-37.4-6.2-8.5-13-13.9-18.6-14.7-15.1-2.1-24.4 5-25.7 13.1-.5 3 .5 6.2 2.9 8.8 2.9 3.1 7.5 5 11.7 4.7 1.7-.1 3-.7 3.7-1.7 1.6-2 1.3-5.6 1-6.8l-.5-2.5 2.1-1.3c.7-.4 6.2-3.5 11.3-1.2 3.5 1.7 5.6 5.4 6.3 11 .7 6-1.3 11.8-5.8 16.6-6.2 6.6-16.6 10.5-26.5 10-16-.9-36.7-19.5-36.7-38.1 0-5.4 1.2-18.9 12.3-29.4 9.3-8.8 22.7-12.8 39.6-11.9 14.9.8 29.9 9.8 41.9 25.3 15.5 19.7 24.2 47.2 20.8 65.4-6 25.6-28.3 54.9-71.9 54.9zm11.2-444.4c-85.6 0-126.2 123.9-130.7 138.3-12.3 40.1-18.3 73.8-12.7 127.9 5.4 51.9 36.4 106.3 55.7 126.9 16.5 17.6 41.5 44.3 76.5 44.3 51.8 0 63.6-44 64.7-49 3-15.9-5.4-41.5-19.4-59.4-10.9-13.8-23.9-21.8-36.7-22.5-14.9-.8-26.5 2.5-34.3 10-9.2 8.7-10.1 19.8-10.1 24.1 0 14.2 17.6 30.3 29.9 30.9 7.9.4 16-2.6 20.8-7.6 2.1-2.2 4.5-5.9 3.9-10.7-.4-2.9-1.2-4.8-2.2-5.4-.7-.3-1.6-.3-2.4 0 .1 2.6-.3 6.6-2.6 9.7-1.4 1.8-4.1 4.2-8.9 4.6-6.6.5-13.1-2.1-17.6-6.9-3.9-4.2-5.6-9.7-4.7-14.8 2-11.5 14.2-21.8 33.8-19 7.6 1 16 7.3 23.5 17.6 8.5 11.7 16.5 30 14.2 42.9-2.4 13-6.4 27.4-18.5 35.5-8.8 5.9-20.4 7.3-34.9 4.3-24.5-5.1-53-29.2-76-64.4-23.2-35.3-36.4-75.1-35.3-106.4 2.5-66.8 50.9-102.5 53-104.1l2.9-2.1 2.1 2.9c.4.5 40 54.5 114.9 51.5 76.4-3.1 131.1-20.6 131.6-20.7l1.3-.4 1.2.5c.1.1 19.7 7.9 47.8 5.4 36-7.5 70.4-32.8 79.6-39.8-5.9-10.2-28.2-47.6-48.8-59.4-15.7-9.2-40.6-12.7-62.5-15.9-11.5-1.7-22.4-3.3-30.7-5.5-7.2-2-17.3-7.7-29.9-15.1-30-17.3-75.4-43.5-132.5-47.4-1.9-.7-4-.8-6-.8z"/><ellipse transform="rotate(-9.119 1031.617 175.933)" class="st1" cx="1031.7" cy="175.9" rx="71" ry="100.5"/><path class="st2" d="M1039.5 279.4c-37.6 0-73.3-38.9-81.7-91.6-9-56.8 16.5-108.1 57.3-114.7 40.6-6.6 81.1 34.3 90.3 91 9 56.8-16.6 108.1-57.3 114.7-2.8.4-5.7.6-8.6.6zm-15.7-199.8c-2.5 0-5 .3-7.6.7-36.7 5.9-59.8 53.6-51.2 106.4 8.5 52.8 45.2 90.8 81.9 84.9 36.7-5.9 59.8-53.6 51.2-106.4-7.8-49.1-40.3-85.6-74.3-85.6z"/><circle class="st2" cx="1011.1" cy="192.5" r="16.6"/><circle class="st2" cx="1189.3" cy="176" r="16.6"/><path d="M685.6 385.4h-48.2s-5.4 11.3-5.4 22.3 5.4 22.3 5.4 22.3h48.2v-44.6z" fill="#d07b84"/><path class="st2" d="M689.1 433.5h-54l-1-2.1c-.3-.5-5.8-12.2-5.8-23.9 0-11.8 5.5-23.3 5.8-23.9l1-2.1h54.1v51.9h-.1zm-49.4-7.2h42.2v-37.4h-42.2c-1.4 3.5-4.2 11.3-4.2 18.6 0 7.5 2.8 15.3 4.2 18.8z"/><path class="st1" d="M724.1 385.4h-48.2s-5.4 11.3-5.4 22.3 5.4 22.3 5.4 22.3h48.2v-44.6z"/><path class="st2" d="M727.7 433.5h-54l-1-2.1c-.3-.5-5.8-12.2-5.8-23.9 0-11.8 5.5-23.3 5.8-23.9l1-2.1h54.1v51.9h-.1zm-49.4-7.2h42.2v-37.4h-42.2c-1.4 3.5-4.2 11.3-4.2 18.6 0 7.5 2.7 15.3 4.2 18.8z"/><path class="st1" d="M741 385.4h-48.2s-5.4 11.3-5.4 22.3 5.4 22.3 5.4 22.3H741v-44.6z"/><path class="st2" d="M744.6 433.5h-54.1l-1-2.1c-.3-.5-5.8-12.2-5.8-23.9 0-11.8 5.5-23.3 5.8-23.9l1-2.1h54.1v52zm-49.4-7.2h42.2v-37.4h-42.2c-1.4 3.5-4.2 11.3-4.2 18.6 0 7.5 2.7 15.3 4.2 18.8z"/><path d="M1161.9 385.4H709.7s-5.4 11.3-5.4 22.3 5.4 22.3 5.4 22.3h452.2l111.3-22.3-111.3-22.3z" fill="#dcc576"/><path class="st1" d="M1161.9 385.4s-6.7 7.9-6.7 22.3 6.7 22.3 6.7 22.3l111.3-22.3-111.3-22.3z"/><path class="st2" d="M1162.3 433.5H707.5l-1-2.1c-.3-.5-5.8-12.2-5.8-23.9 0-11.8 5.5-23.3 5.8-23.9l1-2.1 455.2.1 129 25.8-129.4 26.1zm-450.2-7.2h449.6l93.2-18.6-93.3-18.7H711.9c-1.4 3.5-4.2 11.3-4.2 18.6.2 7.4 2.9 15.2 4.4 18.7z"/><path class="st2" d="M1218.9 396.8s-2.8 5-2.8 10.9 2.8 10.9 2.8 10.9l54.3-10.9-54.3-10.9z"/><path fill="none" d="M1155.2 407.7h-451"/><path class="st2" d="M704.2 404h450.9v7.2H704.2z"/><path class="st1" d="M1161.9 385.4s-6.7 7.9-6.7 22.3 6.7 22.3 6.7 22.3"/><path class="st2" d="M1159.2 432.3c-.3-.4-7.6-9-7.6-24.6 0-15.6 7.3-24.2 7.6-24.6l5.5 4.7-2.8-2.4 2.8 2.4c0 .1-5.9 7.2-5.9 19.9 0 12.8 5.8 19.9 5.9 19.9l-5.5 4.7z"/><path class="st3" d="M1056.3 430c0 3.3 14.5 25 40.5 22.4 26.7-2.6 40.5-22.4 40.5-22.4h-26.5s-7.5 4.2-17.4 4.2c-10.1 0-15.9-1.4-19-4.2-3.1-2.8-2.5-6.2-10.1-6.2-5.7-.1-8 2.9-8 6.2z"/><path class="st2" d="M1092.7 456.2c-14.8 0-25.3-7.3-30.4-11.9-4.7-4.2-9.6-10.6-9.6-14.3 0-4.8 3.5-9.8 11.7-9.8 6.8 0 9 2.5 11.1 5.4.5.7.9 1.3 1.4 1.8 2.5 2.2 7.9 3.3 16.5 3.3 9 0 15.6-3.7 15.7-3.7l.8-.5h34.3l-3.9 5.6c-.7.9-15.1 21.2-43.1 24-1.6.1-3 .1-4.5.1zm-32.8-26.5c1 2.8 13.4 21.4 36.6 19.1 15.7-1.6 26.9-9.6 32.8-15.2h-17.6c-2.4 1.2-9.4 4.2-18.3 4.2-10.9 0-17.4-1.6-21.4-5.1-1.2-1-2-2.1-2.5-3-1.2-1.7-1.6-2.2-5.1-2.2-1.7-.2-4.3.1-4.5 2.2z"/><path class="st3" d="M809.3 302s-9.6 18.9-10.5 35.7c-.9 16.9 6.9 40.4 6.9 40.4s-12.8 14.8-14.9 25.7c-1 5.4-.7 11.4 6 20.1 6.9 8.9 13.4 13.4 16.4 14.2 6 1.4 10-1.2 13.9-3.3 3.9-2.1 9.2-3.7 5.8-4.8-10.2-.9-22.3-20.8-19.3-25.7 3-4.8 11.4-18.9 11.4-18.9h20.2s-22.5-26.6-22.3-34.1c.3-7.5 15.7-35.8 15.7-35.8"/><path class="st2" d="M816.7 442c-1.3 0-2.8-.1-4.3-.5-4.8-1.2-12.1-7.2-18.3-15.3-8-10.2-7.7-17.7-6.7-22.9 1.8-9.6 11-21.5 14.4-25.8-1.8-6-7.3-25-6.6-39.7.9-17.4 10.5-36.3 10.9-37.2l6.4 3.3c-.1.1-9.3 18.3-10.1 34.2-.9 16 6.7 38.8 6.7 39.1l.7 2-1.3 1.6c-3.4 3.9-12.6 15.9-14.2 24-.8 4.3-.8 9.3 5.4 17.2 6.4 8.3 12.3 12.3 14.4 12.8 4.1 1 6.8-.5 10.2-2.4l1-.7c.3-.1.4-.3.7-.4-5.8-3.4-10.9-10-13.9-16-2-3.9-3.8-9.4-1.6-13 3-4.7 11.3-18.6 11.3-18.7l1-1.8h14.5c-7.5-9.2-18.5-24.1-18.2-30.7.3-8 13.5-32.5 16.1-37.4l6.3 3.4c-5.8 10.6-15.1 29.2-15.2 34.2-.1 3.7 11 19.3 21.5 31.7l5.1 5.9h-26c-2.4 3.9-7.9 13.1-10.2 17-.1 1.2 1 5.6 4.8 11s8.4 8.9 11.5 9.3l.9.1c2.9 1 3.4 3 3.5 4.1.1 3.1-2.6 4.5-6 6-.9.4-2 .9-2.9 1.3l-1 .5c-2.7 2-6.1 3.8-10.8 3.8zm.1-36"/><path class="st3" d="M949.4 315.5s-9 19.3-6 35 23.7 35 23.7 35-1.8 15.7 0 24.9 7.3 29.5 21.6 32.8c14.2 3.1 25.6-13.1 25.6-13.1h-19s-9.8-12.8-8.4-22.3 19.3-22.3 19.3-22.3h17s-11.3-11.9-21.2-11.5c-10.1.3-20.4 9.2-20.4 9.2s-6.3-11.7-8.1-13.9c-1.8-2.2-9.2-24.2-7.3-32.4 1.8-8.1 11.7-21.2 11.7-21.2"/><path class="st2" d="M992.4 447c-1.4 0-3-.1-4.6-.5-15.9-3.5-22-23.9-24.4-35.5-1.6-7.9-.7-19.7-.3-24.2-4.7-4.7-20.7-21.2-23.5-35.7-3.1-16.6 5.9-36.3 6.3-37.2l6.6 3c-.1.1-8.5 18.5-5.8 32.8 2.8 14.3 22.4 32.8 22.7 33l1.3 1.2-.3 1.8c0 .1-1.7 15.2 0 23.9 1.6 8.1 6.6 27.1 18.9 29.9 6.6 1.4 12.6-2.4 16.6-5.9h-12.6l-1-1.4c-1-1.4-10.7-14.3-9.2-25 1.6-10.6 18.7-23.3 20.7-24.6l.9-.7h8.4c-3.5-2.4-7.7-4.5-11.3-4.3-8.7.3-18.2 8.3-18.2 8.3l-3.4 2.9-2.1-3.9c-2.6-4.7-6.7-11.9-7.7-13.2-2.5-3-10.1-26.3-8.1-35.4 2-8.7 11.8-22 12.3-22.7l5.8 4.3c-2.6 3.5-9.7 14-11 19.9-1.4 6.4 5 26.7 6.7 29.4 1.3 1.6 4.3 6.8 6.4 10.6 4.2-2.9 11.7-7.2 19.3-7.3 11.3-.4 22.7 11.4 24 12.7l5.8 6.2h-24.2c-6.4 4.8-16 13.6-16.9 19.3-.9 5.8 3.8 14 6.7 18.1h24l-3.9 5.6c-.6.3-10.7 14.6-24.9 14.6z"/><path class="st3" d="m1023.1 346 38 39.5s-.9 2.2-4.5 9.7c-3.5 7.5-4.8 11-1.6 12.7 3.3 1.7 12.5-7.6 16.5-12.7 4.1-5.1 7.6-9.7 7.6-9.7h56.4s-19.7-13.1-33.6-13.9c-13.9-.7-27.3-1.4-27.3-1.4l-18.9-32.5"/><path class="st2" d="M1055.7 411.4c-.8 0-1.6-.1-2.4-.5-6.8-3.4-3-11.3 0-17.4 1.7-3.5 2.8-5.9 3.5-7.3l-36.3-37.7 5.2-5 39.7 41.2-.9 2.2c0 .1-1 2.4-4.6 9.8-.7 1.4-2.5 5.2-3 7.2 2.6-1.4 7.9-6.2 11.8-11l8.8-11h44.6c-6.3-3.1-13.9-6.3-20.2-6.7l-29.2-1.4-19.9-34.2 6.3-3.7 18 30.8 25.3 1.3c14.7.8 34.5 13.9 35.4 14.4l10 6.7h-66.6l-6.6 8.3c-1.6 1.4-11.6 14-18.9 14z"/><path class="st2" d="m986.9 356-1-7.2c41.9-6.2 68.7-14.7 68.9-14.8l1.3-.4 1.2.5c.1 0 15.9 6.4 39.5 5.8l.1 7.2c-21.6.5-36.8-4.3-41.2-5.9-5.7 2-31.3 9.3-68.8 14.8z"/></svg>