<svg xmlns="http://www.w3.org/2000/svg" viewBox="0 0 1920 673" xml:space="preserve"><path fill="#eb5f5a" d="M0 0h1920v673H0z"/><path d="M415 389.8V260.1h41.8c11.5 0 21.8 2.6 30.9 7.8 9.1 5.2 16.3 12.5 21.4 22 5.1 9.5 7.7 20.1 7.8 31.8v6c0 11.9-2.5 22.5-7.5 31.9-5 9.4-12.1 16.8-21.2 22.1-9.1 5.3-19.3 8-30.5 8.1H415zm31.3-105.5v81.5h10.9c9 0 15.9-3.2 20.7-9.6 4.8-6.4 7.2-15.9 7.2-28.5v-5.6c0-12.5-2.4-22-7.2-28.3-4.8-6.4-11.8-9.5-21-9.5h-10.6zm143.6 36.3-9.9-.7c-9.4 0-15.5 3-18.2 8.9v61h-30v-96.4h28.1l1 12.4c5-9.4 12.1-14.2 21.1-14.2 3.2 0 6 .4 8.4 1.1l-.5 27.9zm3.8 20.1c0-9.6 1.9-18.2 5.6-25.7 3.7-7.5 9.1-13.3 16.1-17.3 7-4 15.2-6.1 24.7-6.1 14.4 0 25.8 4.5 34.1 13.4s12.5 21.1 12.5 36.5v1.1c0 15-4.2 26.9-12.5 35.8-8.3 8.8-19.6 13.2-33.9 13.2-13.7 0-24.7-4.1-33-12.3-8.3-8.2-12.8-19.4-13.4-33.4l-.2-5.2zm30 1.9c0 8.9 1.4 15.4 4.2 19.6 2.8 4.2 6.9 6.2 12.4 6.2 10.7 0 16.1-8.2 16.4-24.7v-3c0-17.3-5.5-25.9-16.6-25.9-10 0-15.5 7.5-16.3 22.4l-.1 5.4zm126.6 20.1c0-2.6-1.3-4.6-4-6.1s-7.7-3.1-15.2-4.8c-7.5-1.7-13.7-3.8-18.5-6.5-4.9-2.7-8.6-6-11.1-9.8-2.6-3.9-3.8-8.3-3.8-13.3 0-8.8 3.7-16.1 11-21.9 7.3-5.7 16.9-8.6 28.7-8.6 12.7 0 22.9 2.9 30.6 8.6 7.7 5.8 11.6 13.3 11.6 22.7h-30.1c0-7.7-4.1-11.6-12.2-11.6-3.1 0-5.8.9-7.9 2.6-2.1 1.8-3.2 3.9-3.2 6.5 0 2.7 1.3 4.8 3.9 6.5 2.6 1.7 6.8 3 12.5 4.1 5.7 1.1 10.8 2.3 15.1 3.8 14.5 5 21.7 13.9 21.7 26.8 0 8.8-3.9 15.9-11.7 21.5-7.8 5.5-17.9 8.3-30.3 8.3-8.3 0-15.6-1.5-22.1-4.5-6.5-3-11.5-7-15.1-12.1-3.6-5.1-5.4-10.5-5.4-16.1h28.1c.1 4.5 1.6 7.7 4.5 9.8 2.8 2 6.5 3.1 11 3.1 4.1 0 7.2-.8 9.2-2.5 1.7-1.6 2.7-3.8 2.7-6.5zm77.9-93.2v24h15.9v20.8h-15.9v44.1c0 3.6.7 6.1 2 7.6 1.3 1.4 3.9 2.1 7.7 2.1 3 0 5.5-.2 7.5-.5V389c-5.4 1.7-11 2.6-16.9 2.6-10.3 0-18-2.4-22.9-7.3-4.9-4.9-7.4-12.3-7.4-22.2v-47.8h-12.3v-20.8h12.3v-24h30zm74.3 122.1c-14.8 0-26.7-4.4-35.9-13.2-9.1-8.8-13.7-20.3-13.7-34.4v-2.5c0-9.9 1.8-18.6 5.5-26.1s9-13.4 16-17.5 15.3-6.2 24.9-6.2c13.5 0 24.2 4.2 32.1 12.6 7.8 8.4 11.8 20.1 11.8 35.1v11.7h-59.7c1.1 5.4 3.4 9.6 7 12.7 3.6 3.1 8.3 4.6 14.1 4.6 9.5 0 16.9-3.3 22.3-10l13.7 16.2c-3.7 5.2-9 9.3-15.9 12.3-6.9 3.1-14.3 4.7-22.2 4.7zm-3.4-76.8c-8.8 0-14 5.8-15.7 17.5h30.3V330c.1-4.8-1.1-8.5-3.7-11.2-2.5-2.7-6.1-4-10.9-4zm114.7 30.6h-53.5v-23.2h53.5v23.2zm70 46.2c-14.8 0-26.7-4.4-35.9-13.2-9.1-8.8-13.7-20.3-13.7-34.4v-2.5c0-9.9 1.8-18.6 5.5-26.1s9-13.4 16-17.5 15.3-6.2 24.9-6.2c13.5 0 24.2 4.2 32.1 12.6 7.8 8.4 11.8 20.1 11.8 35.1v11.7h-59.7c1.1 5.4 3.4 9.6 7 12.7 3.6 3.1 8.3 4.6 14.1 4.6 9.5 0 16.9-3.3 22.3-10l13.7 16.2c-3.7 5.2-9 9.3-15.9 12.3-6.9 3.1-14.3 4.7-22.2 4.7zm-3.4-76.8c-8.8 0-14 5.8-15.7 17.5h30.3V330c.1-4.8-1.1-8.5-3.7-11.2-2.5-2.7-6.1-4-10.9-4zm62.7 75v-75.5h-14v-20.8h14v-7.7c0-11 3.2-19.5 9.7-25.6 6.5-6.1 15.6-9.1 27.3-9.1 4.3 0 9 .6 14.1 1.9l.1 22.1c-1.8-.5-4.3-.8-7.4-.8-9.1 0-13.6 3.9-13.6 11.8v7.4h18.8v20.8h-18.8v75.5h-30.2zm66.1 0v-75.5h-14v-20.8h14v-7.7c0-11 3.2-19.5 9.7-25.6 6.5-6.1 15.6-9.1 27.3-9.1 4.3 0 9 .6 14.1 1.9l.1 22.1c-1.8-.5-4.3-.8-7.4-.8-9.1 0-13.6 3.9-13.6 11.8v7.4h18.8v20.8h-18.8v75.5h-30.2zm103.9 1.8c-14.8 0-26.7-4.4-35.9-13.2-9.1-8.8-13.7-20.3-13.7-34.4v-2.5c0-9.9 1.8-18.6 5.5-26.1s9-13.4 16-17.5 15.3-6.2 24.9-6.2c13.5 0 24.2 4.2 32.1 12.6 7.8 8.4 11.8 20.1 11.8 35.1v11.7h-59.7c1.1 5.4 3.4 9.6 7 12.7 3.6 3.1 8.3 4.6 14.1 4.6 9.5 0 16.9-3.3 22.3-10l13.7 16.2c-3.7 5.2-9 9.3-15.9 12.3-6.9 3.1-14.3 4.7-22.2 4.7zm-3.3-76.8c-8.8 0-14 5.8-15.7 17.5h30.3V330c.1-4.8-1.1-8.5-3.7-11.2-2.5-2.7-6.2-4-10.9-4zm96.8 53.6c4.2 0 7.5-1.1 9.8-3.4 2.3-2.3 3.4-5.5 3.4-9.6h28.1c0 10.6-3.8 19.2-11.4 26-7.6 6.8-17.3 10.2-29.3 10.2-14 0-25.1-4.4-33.1-13.2-8.1-8.8-12.1-21-12.1-36.5v-1.2c0-9.7 1.8-18.3 5.4-25.8 3.6-7.4 8.8-13.2 15.5-17.2 6.8-4 14.8-6 24-6 12.5 0 22.5 3.5 29.8 10.4 7.4 6.9 11 16.4 11 28.2h-28.1c0-5-1.2-8.8-3.7-11.5-2.4-2.7-5.7-4-9.8-4-7.8 0-12.3 5-13.6 14.9-.4 3.1-.6 7.5-.6 13 0 9.7 1.2 16.4 3.5 20.1 2.4 3.8 6.1 5.6 11.2 5.6zm88.9-98.9v24h15.9v20.8h-15.9v44.1c0 3.6.7 6.1 2 7.6 1.3 1.4 3.9 2.1 7.7 2.1 3 0 5.5-.2 7.5-.5V389c-5.4 1.7-11 2.6-16.9 2.6-10.3 0-18-2.4-22.9-7.3-4.9-4.9-7.4-12.3-7.4-22.2v-47.8h-12.3v-20.8h12.3v-24h30z" fill="#fff"/></svg>