<svg xmlns="http://www.w3.org/2000/svg" viewBox="0 0 1920 673" xml:space="preserve"><path fill="#6e9e40" d="M0 0h1920v673H0z"/><path d="M1104 592.5H816c-17.7 0-32-14.3-32-32v-448c0-17.7 14.3-32 32-32h288c17.7 0 32 14.3 32 32v448c0 17.7-14.3 32-32 32z" fill="#e0ac7e"/><path d="M806.5 113.5h307v446h-307v-446z" fill="#f8f8f8"/><path d="M1049.5 168.5h-179c-7.7 0-14-6.3-14-14v-47c0-7.7 6.3-14 14-14h179c7.7 0 14 6.3 14 14v47c0 7.7-6.3 14-14 14zm-179-71c-5.5 0-10 4.5-10 10v47c0 5.5 4.5 10 10 10h179c5.5 0 10-4.5 10-10v-47c0-5.5-4.5-10-10-10h-179z" fill="#999"/><path d="M876 157.5h19c3.3 0 6 2.7 6 6v7c0 3.3-2.7 6-6 6h-38c-3.3 0-6-2.7-6-6v-38c0-3.3 2.7-6 6-6h7c3.3 0 6 2.7 6 6v19c0 3.3 2.7 6 6 6zm168 0h-19c-3.3 0-6 2.7-6 6v7c0 3.3 2.7 6 6 6h38c3.3 0 6-2.7 6-6v-38c0-3.3-2.7-6-6-6h-7c-3.3 0-6 2.7-6 6v19c0 3.3-2.7 6-6 6zm-62-71v2c0 1.7-1.3 3-3 3h-38c-1.7 0-3-1.3-3-3v-2c0-1.7-1.3-3-3-3h-63.5c-1.7 0-3 1.3-3 3v20c0 1.7 1.3 3 3 3h177c1.7 0 3-1.3 3-3v-20c0-1.7-1.3-3-3-3H985c-1.7 0-3 1.3-3 3z" fill="#36434f"/><path d="M851 239h218v8H851v-8zm0 50h218v8H851v-8zm0 50h218v8H851v-8zm0 50h218v8H851v-8zm0 50h218v8H851v-8zm0 50h218v8H851v-8z" fill="#bbb"/><path d="M816 80.5c-17.7 0-32 14.3-32 32v448c0 17.7 14.3 32 32 32h144v-512H816z" opacity=".15" fill="#444"/></svg>