<svg xmlns="http://www.w3.org/2000/svg" viewBox="0 0 1920 673" xml:space="preserve"><path fill="#ef524d" d="M0 0h1920v673H0z"/><path d="M600.1 322.1c0 19.5-3.2 36.5-9.7 51.1-6.5 14.5-15.4 26.2-26.8 35l34 26.9-31.4 26.7-45.3-36.5c-4.3.6-8.5.9-12.7.9-18 0-33.9-4.2-47.8-12.5-13.9-8.3-24.8-20.2-32.5-35.6-7.8-15.5-11.8-33.2-12.1-53.3v-11.2c0-20.8 3.8-39 11.4-54.8 7.6-15.7 18.4-27.9 32.5-36.5 14.1-8.6 30.2-12.9 48.3-12.9 17.9 0 33.8 4.3 47.8 12.7 14 8.5 24.9 20.6 32.7 36.3 7.8 15.7 11.7 33.7 11.8 54v9.7zm-51.7-8.9c0-21-3.5-36.9-10.5-47.7-7-10.9-17-16.3-30.1-16.3-13.4 0-23.5 5.4-30.3 16.1-6.8 10.7-10.2 26.4-10.3 47.1v9.7c0 20.8 3.4 36.7 10.3 47.7 6.9 11.1 17 16.6 30.6 16.6 12.9 0 22.9-5.5 29.8-16.4 6.9-10.9 10.4-26.6 10.5-47.1v-9.7zm132.3-85.7v39h25.8v33.9h-25.8v71.7c0 5.9 1.1 10 3.2 12.3 2.1 2.3 6.3 3.5 12.6 3.5 4.8 0 8.9-.3 12.2-.9v34.9c-8.8 2.8-18 4.2-27.5 4.2-16.8 0-29.2-4-37.2-11.9-8-7.9-12-19.9-12-36.1v-77.8h-20v-33.9h20v-39h48.7zm156 139.6c0-7.4-2.6-13.2-7.9-17.4-5.3-4.2-14.5-8.5-27.7-12.9s-24.1-8.7-32.5-12.9c-27.3-13.4-41-31.9-41-55.3 0-11.7 3.4-22 10.2-30.9 6.8-8.9 16.4-15.9 28.9-20.9 12.5-5 26.5-7.5 42-7.5 15.2 0 28.8 2.7 40.8 8.1 12 5.4 21.4 13.1 28 23.1 6.7 10 10 21.4 10 34.3h-50.7c0-8.6-2.6-15.3-7.9-20-5.3-4.7-12.4-7.1-21.4-7.1-9.1 0-16.3 2-21.5 6-5.3 4-7.9 9.1-7.9 15.3 0 5.4 2.9 10.3 8.7 14.7 5.8 4.4 16 8.9 30.6 13.6 14.6 4.7 26.6 9.7 35.9 15.1 22.8 13.1 34.2 31.2 34.2 54.3 0 18.4-7 32.9-20.9 43.5-13.9 10.5-33 15.8-57.2 15.8-17.1 0-32.6-3.1-46.4-9.2-13.9-6.1-24.3-14.5-31.3-25.2s-10.5-23-10.5-36.9h51c0 11.3 2.9 19.6 8.8 25 5.8 5.4 15.3 8 28.5 8 8.4 0 15-1.8 19.9-5.4 4.9-3.5 7.3-8.6 7.3-15.2zm141 21.3c6.9 0 12.2-1.9 15.9-5.6 3.8-3.7 5.6-8.9 5.5-15.6h45.8c0 17.2-6.2 31.3-18.5 42.3-12.3 11-28.2 16.5-47.6 16.5-22.8 0-40.8-7.1-53.9-21.4-13.1-14.3-19.7-34.1-19.7-59.4v-2c0-15.8 2.9-29.8 8.8-41.9 5.8-12.1 14.3-21.4 25.3-28 11-6.5 24-9.8 39.1-9.8 20.4 0 36.6 5.7 48.5 17 12 11.3 18 26.6 18 45.9h-45.8c0-8.1-2-14.3-5.9-18.7-4-4.3-9.3-6.5-15.9-6.5-12.7 0-20 8.1-22.2 24.2-.7 5.1-1 12.2-1 21.2 0 15.7 1.9 26.7 5.7 32.7 3.7 6.1 9.7 9.1 17.9 9.1zm182.7-77.8-16.1-1.2c-15.4 0-25.2 4.8-29.6 14.5v99.2h-48.8V266.4h45.8l1.6 20.1c8.2-15.4 19.7-23 34.3-23 5.2 0 9.8.6 13.6 1.7l-.8 45.4zm17.2-84.6c0-7 2.5-12.7 7.5-17.1 5-4.4 11.5-6.7 19.6-6.7 8 0 14.5 2.2 19.6 6.7 5 4.4 7.5 10.1 7.5 17.1s-2.5 12.7-7.5 17.1c-5 4.4-11.5 6.7-19.6 6.7-8 0-14.5-2.2-19.6-6.7-5-4.4-7.5-10.1-7.5-17.1zm51.9 197.2h-49V266.4h49v156.8zm175.6-77.2c0 24.3-5.5 43.8-16.4 58.3-11 14.5-25.8 21.8-44.4 21.8-14.4 0-26.2-5.3-35.5-15.8v73.2H1260v-217h45.6l1.4 14.5c9.4-11.6 21.7-17.4 36.9-17.4 19.3 0 34.3 7.1 45.1 21.4 10.7 14.2 16.1 33.8 16.1 58.7v2.3zm-48.8-3.1c0-27.8-8.1-41.7-24.3-41.7-11.6 0-19.3 4.2-23.2 12.5v61.7c4.2 8.7 12.1 13 23.5 13 15.5 0 23.6-13.4 24-40.3v-5.2zm127.2-115.4v39h25.8v33.9h-25.8v71.7c0 5.9 1.1 10 3.2 12.3s6.3 3.5 12.6 3.5c4.8 0 8.9-.3 12.2-.9v34.9c-8.8 2.8-18 4.2-27.5 4.2-16.8 0-29.2-4-37.2-11.9-8-7.9-12-19.9-12-36.1v-77.8h-20v-33.9h20v-39h48.7z" fill="#fff"/></svg>