<svg xmlns="http://www.w3.org/2000/svg" viewBox="0 0 1920 673" xml:space="preserve"><style>.st8{fill:#fff}</style><path fill="#9ac33c" d="M0 0h1920v673H0z"/><path d="M610.2 80.6c-5.2 0-9.2 4.2-9.2 9.2v412.4c0 5.2 4.2 9.2 9.2 9.2h699.6c5.2 0 9.2-4.2 9.2-9.2V89.8c0-5.2-4.2-9.2-9.2-9.2H610.2z" fill="#36434f"/><circle cx="960" cy="94.4" r="9.2" fill="#1c2933"/><path d="M1327.3 513.4c-4.6-2-12.5-3.9-17.5-3.9H610.2c-5.2 0-12.9 1.7-17.5 3.9L497 557.2c-4.6 2.2-8.3 8.1-8.3 13.1v12.9c0 5.2 4.2 9.2 9.2 9.2H1422c5.2 0 9.2-4.2 9.2-9.2v-12.9c0-5.2-3.7-10.9-8.3-13.1l-95.6-43.8z" fill="#f8f8f8"/><path d="M1262.1 532.2c-1.7-1.1-4.8-1.8-6.8-1.8H664.7c-2 0-5.2.9-6.8 1.8l-33.7 19.9c-1.7 1.1-1.5 1.8.6 1.8h670.6c2 0 2.2-.9.6-1.8l-33.9-19.9z" fill="#ddd"/><path d="M1287.7 469c0 5.2-4.2 9.2-9.2 9.2h-637c-5.2 0-9.2-4.2-9.2-9.2V119.3c0-5.2 4.2-9.2 9.2-9.2h637c5.2 0 9.2 4.2 9.2 9.2V469z" fill="#667e8e"/><path d="M1170.8 110.1 724.9 478.3H971l263.1-368.2h-63.3z" fill="#647b8b"/><path d="M641.5 110.1c-5 0-9.2 4.1-9.2 9.2V469c0 5 4.1 9.2 9.2 9.2h83.4L1170.8 110H641.5z" fill="#607786"/><path class="st8" d="M956 165.3h8c39 2.2 66.8 17 87.4 37.7s35.8 48.1 37.9 87.2v7.8c-2 39.8-17.5 66-37.9 87.4-21.4 20.3-47.7 35.6-87.5 37.6H956c-39-2.2-66.8-17-87.4-37.7-20.6-20.7-35.8-48.1-37.9-87.2v-7.8c.1 0 .2-.1.1-.3 1.9-39 17.3-66.6 37.7-87.1 20.7-20.5 48.8-35.4 87.5-37.6zm-25.3 18.5c-7.7 2.1-14.6 4.7-20.8 7.8-19 9.4-34.7 22.8-45.6 40.1-10.7 16.8-19.9 38.4-18.6 66.8.8 17.9 4.9 32.9 11.4 45.7 12.7 25.3 32.1 44 58.9 55.3 13.3 5.6 29.7 9.5 48.2 8.7 17.8-.8 33.1-4.8 45.9-11.2 25-12.6 44.7-31.9 55.6-58.7 5.5-13.5 9.7-29.1 8.8-48.1-1.7-35.9-16.3-60.2-35.5-78.7-9.5-9.2-21-17-34.5-22.6-13.1-5.5-30.2-9.5-48.5-8.7-9.1.4-17.6 1.5-25.3 3.6z"/><path class="st8" d="M948.1 260.7c4.1 2.7 8.3 5.3 12.1 8.3-8.7 5.5-17.3 11.1-26 16.7 1.3 1 2.8 1.8 4.1 2.8 8.8-5.5 17.5-11.1 26.2-16.7 3.9 2.4 7.8 4.9 11.4 7.6-8.7 5.5-17.2 11.3-25.8 16.9 1.3 1 2.9 1.8 4.3 2.7 9-5.5 17.7-11.2 26.5-16.8v-18.4h19.4v36.6c5.5.3 11.5 0 17.2.1v17.2h-36.6v-17.4c-10.7 6.5-21.8 13.9-32.6 20.8-11.3-7.3-22.1-15-33.3-22.4-3.3 10.3-11 18.1-23.8 19-8 .6-17-.4-26.2 0v-53.9c11.5.8 24.1-1.5 33.2 1.3 8.1 2.5 13.8 8.9 16.4 16.9 11.3-6.9 22.4-14.2 33.5-21.3zm-64.6 20.5v19.4c4.6 0 8.1.3 10.9-1.8 4.1-3.1 4.9-10.9 1.3-15-2.4-2.8-6.4-3.3-12-3-.2.1-.2.3-.2.4zm139-17.3h19.4v36.7h17.1v17.2h-36.6v-53.5c0-.2 0-.4.1-.4z"/></svg>