<svg xmlns="http://www.w3.org/2000/svg" viewBox="0 0 1920 673" xml:space="preserve"><path fill="#6E9E40" d="M0 0h1920v673H0z"/><path d="M799.4 295.8h-40V129.3h40v166.5zM880 129.3l37.2 115.9 37.1-115.9h52.8v166.5h-40.3v-38.9l3.9-79.6-40.3 118.5h-26.5l-40.4-118.6 3.9 79.7v38.9h-40.1V129.3H880zm249.2 135.4h-55l-9.6 31.1h-42.9l61.1-166.5h37.7l61.5 166.5h-43l-9.8-31.1zm-45.4-31h35.8l-18-57.8-17.8 57.8zm244.3 41.5c-6.2 6.9-15.2 12.4-27.1 16.6-11.9 4.2-24.9 6.3-39.1 6.3-21.8 0-39.2-6.7-52.3-20-13-13.3-20-31.9-20.9-55.7l-.1-14.4c0-16.4 2.9-30.7 8.7-42.9 5.8-12.2 14.1-21.7 24.9-28.3 10.8-6.6 23.3-9.9 37.5-9.9 20.7 0 36.8 4.7 48.3 14.2s18.2 23.7 20.1 42.5h-38.7c-1.4-9.3-4.3-15.9-8.9-19.9-4.6-4-11.1-5.9-19.4-5.9-10.1 0-17.8 4.3-23.3 12.8s-8.3 20.7-8.3 36.6v10.1c0 16.6 2.8 29.1 8.5 37.5 5.7 8.3 14.6 12.5 26.8 12.5 10.4 0 18.2-2.3 23.3-7v-25.8h-27.9v-27.6h68.1v68.3zm126.7-50.1h-63.1v39.8h74.6v30.9h-114.7V129.3h115v31h-74.8v35.1h63.1v29.7z" fill="#FFF"/><path fill="#FACA28" d="M508.5 356.2c0 49.8 14.3 95.2 37.7 129.2 4 5.8 19.6 33.4 36.8 33.4 17.1 0 34.3-26.2 50.7-26.2 16.5 0 16 23.1 27 35.8 11 12.7 25.4 15 25.4 15s25 5.9 44-6.7c47.4-31.1 64.9-105.3 64.9-180.5.1-105.4-64.1-191-143.2-191s-143.3 85.5-143.3 191zm91.3 40c12.9 2.3 19.9 23.4 15.8 47.2-4.2 23.8-18.1 41.1-30.9 38.8-12.9-2.3-19.9-23.4-15.8-47.2 4.2-23.6 18-41.1 30.9-38.8z"/><circle fill="#EE3A24" cx="698.1" cy="488.1" r="28.9"/><circle fill="#059DD2" cx="730.7" cy="416.3" r="28.9"/><circle fill="#2C9B47" cx="732.2" cy="340.7" r="28.9"/><circle fill="#F46414" cx="704.8" cy="267.4" r="28.9"/><circle fill="#7833DB" cx="643.3" cy="223.8" r="28.9"/><circle fill="#36434F" cx="581.9" cy="264.5" r="28.9"/></svg>