<svg xmlns="http://www.w3.org/2000/svg" viewBox="0 0 1920 673" xml:space="preserve"><path fill="#55a938" d="M0 0h1920v673H0z"/><path d="M854.9 184.1h19.7c15.6 0 23.5-7.7 23.5-23 0-6-1.9-10.8-5.6-14.6-3.7-3.8-9-5.7-15.8-5.7-5.5 0-10.4 1.6-14.5 4.8-4.1 3.2-6.1 7.2-6.1 12h-41.9c0-9.5 2.6-18 7.9-25.5 5.3-7.5 12.6-13.3 22-17.5 9.4-4.2 19.7-6.3 31-6.3 20.1 0 35.9 4.6 47.4 13.8 11.5 9.2 17.3 21.8 17.3 37.9 0 7.8-2.4 15.1-7.1 22-4.8 6.9-11.7 12.5-20.8 16.8 9.6 3.5 17.1 8.8 22.6 15.8 5.5 7.1 8.2 15.8 8.2 26.3 0 16.1-6.2 29.1-18.6 38.8-12.4 9.7-28.7 14.5-48.9 14.5-11.8 0-22.8-2.3-33-6.8-10.1-4.5-17.8-10.8-23-18.8-5.2-8-7.8-17.1-7.8-27.3h42.1c0 5.5 2.2 10.4 6.7 14.4 4.5 4.1 10 6.1 16.5 6.1 7.4 0 13.2-2 17.6-6.1 4.4-4.1 6.6-9.3 6.6-15.7 0-9.1-2.3-15.6-6.8-19.4-4.6-3.8-10.8-5.7-18.9-5.7h-20.4v-30.8zM966.5 292V111.2h58.3c16 0 30.3 3.6 43.1 10.9 12.8 7.2 22.7 17.5 29.9 30.7 7.2 13.2 10.8 28 10.9 44.4v8.3c0 16.6-3.5 31.4-10.5 44.5-7 13.1-16.9 23.4-29.6 30.8-12.7 7.4-26.9 11.2-42.5 11.2h-59.6zm43.6-147.1v113.6h15.2c12.5 0 22.1-4.5 28.8-13.4 6.7-8.9 10.1-22.1 10.1-39.7v-7.8c0-17.5-3.4-30.6-10.1-39.5-6.7-8.9-16.5-13.3-29.3-13.3h-14.7zM547.9 393.6l48.6 129.1L645 393.6h37.8v168.5h-29.2v-55.5l2.9-74.3-49.8 129.8h-20.9l-49.6-129.7 2.9 74.2v55.5H510V393.6h37.9zm241.6 168.5c-1.2-2.4-2.3-6.3-3.2-11.7-9 9.3-19.9 14-32.9 14-12.6 0-22.8-3.6-30.8-10.8-7.9-7.2-11.9-16-11.9-26.6 0-13.3 5-23.6 14.9-30.7 9.9-7.1 24.1-10.7 42.5-10.7h17.2v-8.2c0-6.5-1.8-11.7-5.4-15.6-3.6-3.9-9.1-5.8-16.5-5.8-6.4 0-11.6 1.6-15.7 4.8-4.1 3.2-6.1 7.3-6.1 12.2h-28.1c0-6.9 2.3-13.3 6.8-19.3 4.6-6 10.7-10.7 18.6-14.1 7.8-3.4 16.6-5.1 26.2-5.1 14.7 0 26.3 3.7 35.1 11.1 8.7 7.4 13.2 17.7 13.4 31.1v56.5c0 11.3 1.6 20.3 4.7 27v2h-28.8zm-30.9-20.3c5.6 0 10.8-1.3 15.7-4 4.9-2.7 8.6-6.3 11.1-10.9v-23.6h-15.2c-10.4 0-18.2 1.8-23.5 5.4-5.2 3.6-7.9 8.8-7.9 15.4 0 5.4 1.8 9.7 5.4 12.9 3.6 3.2 8.4 4.8 14.4 4.8zm119.6-135.3v30.4h22.1v20.8h-22.1v69.9c0 4.8.9 8.2 2.8 10.4 1.9 2.1 5.3 3.2 10.1 3.2 3.2 0 6.5-.4 9.8-1.2v21.8c-6.4 1.8-12.6 2.7-18.5 2.7-21.6 0-32.4-11.9-32.4-35.8v-70.9h-20.6V437H850v-30.4h28.2zm71.3 44c9.2-10.6 20.8-16 34.8-16 26.7 0 40.2 15.2 40.6 45.7V562h-28.1v-80.8c0-8.6-1.9-14.8-5.6-18.3-3.7-3.6-9.2-5.4-16.5-5.4-11.3 0-19.7 5-25.2 15V562h-28.1V384.3h28.1v66.2zm155.3 91.5c7 0 12.8-2 17.5-6.1 4.6-4.1 7.1-9.1 7.4-15.2h26.5c-.3 7.8-2.7 15.1-7.3 21.8-4.6 6.8-10.7 12.1-18.5 16-7.8 3.9-16.2 5.9-25.2 5.9-17.5 0-31.4-5.7-41.7-17-10.3-11.3-15.4-27-15.4-47v-2.9c0-19.1 5.1-34.3 15.3-45.8 10.2-11.5 24.1-17.2 41.7-17.2 14.9 0 27 4.3 36.4 13 9.4 8.7 14.3 20.1 14.8 34.2h-26.5c-.3-7.2-2.8-13.1-7.3-17.7-4.6-4.6-10.4-6.9-17.5-6.9-9.1 0-16.1 3.3-21.1 9.9-4.9 6.6-7.4 16.6-7.5 30v4.5c0 13.6 2.4 23.7 7.3 30.4 4.7 6.7 11.8 10.1 21.1 10.1zm147.4 20.1c-1.2-2.4-2.3-6.3-3.2-11.7-9 9.3-19.9 14-32.9 14-12.6 0-22.8-3.6-30.8-10.8-7.9-7.2-11.9-16-11.9-26.6 0-13.3 5-23.6 14.9-30.7 9.9-7.1 24.1-10.7 42.5-10.7h17.2v-8.2c0-6.5-1.8-11.7-5.4-15.6-3.6-3.9-9.1-5.8-16.5-5.8-6.4 0-11.6 1.6-15.7 4.8-4.1 3.2-6.1 7.3-6.1 12.2h-28.1c0-6.9 2.3-13.3 6.8-19.3 4.6-6 10.7-10.7 18.6-14.1 7.8-3.4 16.6-5.1 26.2-5.1 14.7 0 26.3 3.7 35.1 11.1 8.7 7.4 13.2 17.7 13.4 31.1v56.5c0 11.3 1.6 20.3 4.7 27v2h-28.8zm-30.9-20.3c5.6 0 10.8-1.3 15.7-4 4.9-2.7 8.6-6.3 11.1-10.9v-23.6h-15.2c-10.4 0-18.2 1.8-23.5 5.4-5.2 3.6-7.9 8.8-7.9 15.4 0 5.4 1.8 9.7 5.4 12.9 3.6 3.2 8.4 4.8 14.4 4.8zm79-43.2c0-19.3 4.5-34.8 13.4-46.5 8.9-11.7 20.9-17.5 36-17.5 13.3 0 24 4.6 32.2 13.9v-64.1h28.1v177.8h-25.5l-1.4-13c-8.4 10.2-19.6 15.3-33.7 15.3-14.7 0-26.5-5.9-35.6-17.7-8.9-11.9-13.5-27.9-13.5-48.2zm28.2 2.4c0 12.7 2.4 22.7 7.3 29.8 4.9 7.1 11.9 10.7 20.9 10.7 11.5 0 19.9-5.1 25.2-15.4v-53.5c-5.2-10-13.5-15-25-15-9.1 0-16.1 3.6-21.1 10.8-4.9 7.2-7.3 18.1-7.3 32.6z" fill="#fff"/></svg>