<svg xmlns="http://www.w3.org/2000/svg" viewBox="0 0 1920 673" xml:space="preserve"><path fill="#f39911" d="M0 0h1920v673H0z"/><path d="M801.3 657.5c-83.1 0-107.4-73.8-107.4-174.2 0-54.6 10.5-146.4 86-146.4 56.3 0 63.3 45.3 63.3 69.7h67.4c0-68.5-47-116.2-129-116.2-116.7 0-151.6 95.8-151.6 202.1 0 92.4 24.8 149.3 63.3 180.5h201.6v-46.9c-10.5 6.4-44.2 31.4-93.6 31.4m389.7-67.4c0-63.3-45.3-88.3-84.2-110.4l-39.5-23.2c-29.6-16.8-65.1-36-65.1-67.4 0-33.7 26.7-52.3 66.2-52.3 40.7 0 86.5 17.4 94.1 19.7V302c-13.4-3.5-52.9-11.6-91.2-11.6-74.9 0-133 31.9-133 103.4 0 61.6 50 84.2 87.1 105.7L1062 521c31.4 18.6 65.1 35.4 65.1 77.2 0 43.6-38.3 59.2-76.1 59.2-44.7 0-83-16.3-106.3-29.6V673h208.8c23.5-18.8 37.5-46.3 37.5-82.9m323.8-291.2-60.7-2.1-110.3 334.6h-1.2l-109.2-334.6h-61L1298.3 673h88.6l127.8-373.1v-1z" style="fill:#fff"/><path d="M1514.8 297.7 1386.9 673h127.8V297.7z" fill="#9c9d9f"/></svg>