<svg xmlns="http://www.w3.org/2000/svg" viewBox="0 0 1920 673" xml:space="preserve"><style>.st1{fill:#ccc}</style><path fill="#49a24f" d="M0 0h1920v673H0z"/><path class="st1" d="M934.1 472.7h51.8v81.2h-51.8v-81.2z"/><path class="st1" d="M1138.1 551.9c-.9-.9-2.7-1.6-4-1.6H785.9c-1.3 0-3.1.7-4 1.6l-21.4 21.4c-.9.9-.6 1.6.7 1.6h397.6c1.3 0 1.6-.7.7-1.6l-21.4-21.4z"/><path d="M927.1 461c0-1.3 1.1-2.4 2.4-2.4h61.2c1.3 0 2.4 1.1 2.4 2.4v10.6c0 1.3-1.1 2.4-2.4 2.4h-61.2c-1.3 0-2.4-1.1-2.4-2.4V461zm43.5 17.6c0 1.3-1.1 2.4-2.4 2.4h-16.5c-1.3 0-2.4-1.1-2.4-2.4v-1.2c0-1.3 1.1-2.4 2.4-2.4h16.5c1.3 0 2.4 1.1 2.4 2.4v1.2z" fill="#b2b2b2"/><path class="st1" d="M664.7 98.1c-3.3 0-5.9 2.7-5.9 5.9v349.6c0 3.3 2.7 5.9 5.9 5.9h590.5c3.3 0 5.9-2.7 5.9-5.9V103.9c0-3.3-2.7-5.9-5.9-5.9H664.7z"/><path d="M1234.9 425.8c0 3.3-2.7 5.9-5.9 5.9H691.1c-3.3 0-5.9-2.7-5.9-5.9V128.6c0-3.3 2.7-5.9 5.9-5.9H1229c3.3 0 5.9 2.7 5.9 5.9v297.2z" fill="#667e8e"/><path d="M1136.8 122.8 762.7 431.5h206.6L1190 122.8h-53.2z" fill="#647b8b"/><path d="M692.9 122.8c-4.1 0-7.8 3.4-7.8 7.8V424c0 4.1 3.4 7.8 7.8 7.8h69.9L1136.9 123c-.1-.1-444-.2-444-.2z" fill="#607786"/></svg>