<svg xmlns="http://www.w3.org/2000/svg" viewBox="0 0 1920 673" xml:space="preserve"><style>.st2{fill:#ddd}</style><path fill="#dd894b" d="M0 0h1920v673H0z"/><circle cx="956.6" cy="321.1" r="287.8" fill="#fff"/><path class="st2" d="M1091.6 345.5c-29.7 0-41.5-20.5-42-21.4l13.9-7.8c.3.4 8.1 13.2 28.1 13.2 22.3 0 54-17.4 65.5-43.2 6.2-13.8 6.8-27.1 1.9-36.3-4.1-7.5-11.6-12.1-22.4-13.8-24.4-3.8-36.8 32.8-36.9 33.2l-15.2-5c.7-2 16.8-49.9 54.5-44 19.9 3.1 29.5 13.6 34 21.9 7.5 13.6 6.9 32-1.3 50.5-14.5 32.5-52.9 52.7-80.1 52.7z"/><ellipse cx="956.6" cy="366.8" rx="227.3" ry="17.8" fill="#bbb"/><path class="st2" d="M827.9 312.6c23.1 46.2 58.6 63.9 66.6 84.3h124.3c8-20.4 43.5-38.2 66.6-84.3 15.4-30.9 24.1-67.7 28.2-88.8 1.7-8.8-5-16.9-13.9-16.9h-286c-9 0-15.6 8.2-13.9 16.9 3.9 21.1 12.6 58 28.1 88.8z"/><path d="M1183.9 366.8c0 9.8-101.7 17.8-227.3 17.8s-227.3-8-227.3-17.8c0 18.9 38.3 35.7 96.7 45.8l9 11.9c0 5.9 54.4 10.7 121.6 10.7s121.6-4.8 121.6-10.7l9-11.9c58.4-10.1 96.7-26.9 96.7-45.8z" fill="#999"/><path d="M907.4 266.8h10.3v34.5c0 3.2-.7 6-2.1 8.4s-3.4 4.3-5.9 5.6c-2.6 1.3-5.4 2-8.6 2-5.3 0-9.4-1.3-12.3-4-2.9-2.7-4.4-6.5-4.4-11.4h10.3c0 2.4.5 4.2 1.5 5.4s2.6 1.7 4.9 1.7c2 0 3.5-.7 4.7-2 1.2-1.3 1.7-3.3 1.7-5.7v-34.5zm39.8 49.7c-.5-.9-.8-2-1-3.3-2.4 2.7-5.5 4-9.3 4-3.6 0-6.6-1-9-3.1-2.4-2.1-3.6-4.7-3.6-7.9 0-3.9 1.5-6.9 4.4-9 2.9-2.1 7.1-3.2 12.6-3.2h4.5v-2.1c0-1.7-.4-3.1-1.3-4.1-.9-1-2.3-1.5-4.2-1.5-1.7 0-3 .4-3.9 1.2-.9.8-1.4 1.9-1.4 3.3h-9.9c0-2.1.7-4.1 2-5.9 1.3-1.8 3.2-3.3 5.6-4.3 2.4-1 5.1-1.6 8.1-1.6 4.6 0 8.2 1.1 10.9 3.4 2.7 2.3 4 5.5 4 9.7v16c0 3.5.5 6.2 1.5 8v.6h-10zm-8.2-6.8c1.5 0 2.8-.3 4-1s2.1-1.5 2.7-2.6v-6.4H942c-4.9 0-7.6 1.7-7.9 5.1v.6c0 1.2.4 2.2 1.3 3 .9.9 2.1 1.3 3.6 1.3zm37.6-5.2 6.9-24.9h10.3l-12.5 37h-9.4l-12.5-37h10.3l6.9 24.9zm42.5 12c-.5-.9-.8-2-1-3.3-2.4 2.7-5.5 4-9.3 4-3.6 0-6.6-1-9-3.1-2.4-2.1-3.6-4.7-3.6-7.9 0-3.9 1.5-6.9 4.4-9 2.9-2.1 7.1-3.2 12.6-3.2h4.5v-2.1c0-1.7-.4-3.1-1.3-4.1-.9-1-2.3-1.5-4.2-1.5-1.7 0-3 .4-3.9 1.2-.9.8-1.4 1.9-1.4 3.3H997c0-2.1.7-4.1 2-5.9 1.3-1.8 3.2-3.3 5.6-4.3 2.4-1 5.1-1.6 8.1-1.6 4.6 0 8.2 1.1 10.9 3.4 2.7 2.3 4 5.5 4 9.7v16c0 3.5.5 6.2 1.5 8v.6h-10zm-8.2-6.8c1.5 0 2.8-.3 4-1s2.1-1.5 2.7-2.6v-6.4h-3.7c-4.9 0-7.6 1.7-7.9 5.1v.6c0 1.2.4 2.2 1.3 3 .9.9 2.1 1.3 3.6 1.3z" fill="#767f99"/></svg>