<svg xmlns="http://www.w3.org/2000/svg" viewBox="0 0 1920 673" xml:space="preserve"><style>.st1{fill:#4292be}.st2{fill:#e2381b}</style><path fill="#dcecff" d="M0 0h1920v673H0z"/><path class="st1" d="M1110.6 112.9v22.7c50.9 0 98.6 19.8 134.7 55.7 36 36 55.7 83.8 55.7 134.7s-19.8 98.6-55.7 134.7c-36 36-83.8 55.7-134.7 55.7v22.7c117.7 0 213.1-95.5 213.1-213.1s-95.4-213.1-213.1-213.1z"/><path class="st2" d="M945.8 112.9h22.7v22.7h-22.7v-22.7zm0 403.5h22.7v22.7h-22.7v-22.7zm-79.6-201.8h113.7v22.7H866.2v-22.7zm136.4 0h22.7v22.7h-22.7v-22.7zm-164.8-99.4h113.7v22.7H837.8v-22.7zm136.4 0h22.7v22.7h-22.7v-22.7zM837.8 414.1h113.7v22.7H837.8v-22.7zm136.4 0h22.7v22.7h-22.7v-22.7z"/><path class="st2" d="M809.4 215.2v-79.6h113.7v-22.7H809.4c-117.7 0-213.1 95.5-213.1 213.1s95.5 213.1 213.1 213.1h113.7v-22.7H809.4v-79.6H717v-22.7h92.4v-76.7h-56.8v-22.7h56.8V238H717v-22.7h92.4z"/><path class="st1" d="M1065.2 516.4h22.7v22.7h-22.7v-22.7zm42.6-201.8h113.7v22.7h-113.7v-22.7zm136.4 0h22.7v22.7h-22.7v-22.7zm-164.8-99.4H1193v22.7h-113.7v-22.7zm136.4 0h22.7v22.7h-22.7v-22.7zm-136.4 198.9H1193v22.7h-113.7v-22.7zm136.4 0h22.7v22.7h-22.7v-22.7zm-150.6-301.2h22.7v22.7h-22.7v-22.7z"/></svg>