<svg xmlns="http://www.w3.org/2000/svg" viewBox="0 0 1920 673" xml:space="preserve"><style>.st2{fill:#ce9965}.st3{fill:#2d1d1a}.st4{fill:#94512f}.st5{fill:#3e2b29}.st6{fill:#33211f}</style><path fill="#e57b25" d="M0 0h1920v673H0z"/><path d="M842.5 251.5c0-5.9-2.1-10.4-6.2-13.7-4.2-3.3-11.5-6.7-21.9-10.2-10.4-3.5-19-6.9-25.6-10.2-21.6-10.6-32.4-25.2-32.4-43.7 0-9.2 2.7-17.4 8.1-24.4 5.4-7.1 13-12.5 22.8-16.5 9.8-3.9 20.9-5.9 33.2-5.9 12 0 22.7 2.1 32.2 6.4 9.5 4.3 16.9 10.4 22.1 18.2 5.3 7.9 7.9 16.9 7.9 27.1h-40c0-6.8-2.1-12-6.2-15.8-4.2-3.7-9.8-5.6-16.9-5.6-7.2 0-12.8 1.6-17 4.7-4.2 3.2-6.2 7.2-6.2 12.1 0 4.3 2.3 8.1 6.9 11.6 4.6 3.5 12.6 7.1 24.1 10.8 11.5 3.7 21 7.7 28.4 12 18 10.4 27 24.7 27 42.9 0 14.6-5.5 26-16.5 34.3-11 8.3-26 12.5-45.2 12.5-13.5 0-25.7-2.4-36.7-7.3-10.9-4.8-19.2-11.5-24.7-19.9-5.5-8.4-8.3-18.1-8.3-29.1h40.3c0 8.9 2.3 15.5 6.9 19.7 4.6 4.2 12.1 6.3 22.5 6.3 6.6 0 11.9-1.4 15.7-4.3 3.8-2.7 5.7-6.8 5.7-12zm201.8-35.5c0 16.2-3 30.6-9 43.1s-14.6 22.1-25.7 28.9-23.7 10.1-37.9 10.1-26.8-3.3-37.7-9.8-19.5-15.8-25.7-28c-6.1-12.1-9.4-26-9.7-41.7v-9.4c0-16.3 3-30.7 9-43.2 6-12.5 14.6-22.1 25.7-28.9 11.2-6.8 23.9-10.2 38.1-10.2 14.1 0 26.7 3.4 37.7 10.1 11.1 6.7 19.7 16.3 25.8 28.7 6.1 12.4 9.2 26.6 9.3 42.6v7.7zm-40.9-7c0-16.5-2.8-29.1-8.3-37.7-5.5-8.6-13.4-12.9-23.7-12.9-20.1 0-30.8 15.1-31.9 45.3l-.1 12.2c0 16.3 2.7 28.9 8.1 37.6 5.4 8.8 13.5 13.2 24.1 13.2 10.1 0 18-4.3 23.4-12.9 5.5-8.6 8.3-21 8.3-37.2V209zm192.2-79.7v109c0 12.4-2.6 23-7.9 32.1-5.3 9-12.8 15.9-22.6 20.6-9.8 4.7-21.5 7.1-34.9 7.1-20.3 0-36.3-5.3-47.9-15.8-11.7-10.5-17.6-24.9-17.8-43.2V129.3h40.4v110.6c.5 18.2 8.9 27.3 25.4 27.3 8.3 0 14.6-2.3 18.9-6.9 4.3-4.6 6.4-12 6.4-22.3V129.3h40zm164.1 166.5h-39.9l-59-103.6v103.6h-40.1V129.3h40.1l58.9 103.6V129.3h40v166.5zm25.4 0V129.3h53.6c14.7 0 27.9 3.3 39.7 10 11.7 6.7 20.9 16.1 27.5 28.3 6.6 12.2 9.9 25.8 10 40.9v7.7c0 15.3-3.2 28.9-9.7 41-6.4 12.1-15.5 21.5-27.2 28.4-11.7 6.8-24.8 10.3-39.2 10.4h-54.7zm40.2-135.5V265h14c11.5 0 20.4-4.1 26.5-12.3 6.2-8.2 9.3-20.4 9.3-36.5V209c0-16.1-3.1-28.2-9.3-36.4-6.2-8.2-15.2-12.2-27-12.2h-13.5z" fill="#fff"/><path class="st2" d="m792.2 315.2-13.5-1.9c-1.1 7.5-2.9 14.8-5.6 21.7l12.6 3.7c3-7.6 5.1-15.4 6.5-23.5z"/><ellipse transform="rotate(-66.909 760.517 420.55)" class="st3" cx="760.5" cy="420.6" rx="64.7" ry="10.7"/><path class="st3" d="m781.4 328.9-11.3 1.1-8.1 25c-1.9-.8-4.2.1-5 2l-44.1 103.6v3.9c0 3.5 2.4 6.6 5.8 7.5l6.2 1.5c.9.2 1.8.6 2.6 1.1l7.7 5.5 51-118.6s3-6.8 5.3-14.5 4.3-15.1 4.3-15.1l-14.4-3z"/><ellipse transform="rotate(-66.909 734.68 409.52)" class="st4" cx="734.7" cy="409.5" rx="57.8" ry="5.3"/><path class="st4" d="m716.8 402.8-8.4 19.6-18.4 43.4 22-3 13.7-32.2 9-21 22.7-53.2-13-18-27.6 64.4z"/><path class="st5" d="m743 333.7-12.8-1.2L676 459.8l9.7 8.3c7.8 3.3 26.9-24.1 42.7-61.2 15.8-37.2 22.3-69.9 14.6-73.2z"/><ellipse transform="rotate(-66.909 703.535 396.258)" class="st6" cx="703.5" cy="396.3" rx="69.3" ry="10.3"/><circle class="st2" cx="734.3" cy="453.4" r="2.2"/><circle class="st2" cx="728.4" cy="467.4" r="2.2"/><path class="st2" d="m443.8 315.2 13.5-1.9c1.1 7.5 2.9 14.8 5.6 21.7l-12.6 3.7c-3-7.6-5.1-15.4-6.5-23.5z"/><ellipse transform="rotate(-23.089 475.413 420.52)" class="st3" cx="475.4" cy="420.6" rx="10.7" ry="64.7"/><path class="st3" d="m454.6 328.9 11.3 1.1 8.1 25c1.9-.8 4.2.1 5 2l44.1 103.6v3.9c0 3.5-2.4 6.6-5.8 7.5l-6.2 1.5c-.9.2-1.8.6-2.6 1.1l-7.7 5.5-51-118.6s-3-6.8-5.3-14.5c-2.3-7.6-4.3-15.1-4.3-15.1l14.4-3z"/><ellipse transform="rotate(-23.089 501.284 409.484)" class="st4" cx="501.3" cy="409.5" rx="5.3" ry="57.8"/><path class="st4" d="m519.1 402.8 8.4 19.6 18.5 43.4-22-3-13.7-32.2-9-21-22.7-53.2 13-18 27.5 64.4z"/><path class="st5" d="m505.7 332.4-12.8 1.2c-7.7 3.3-1.1 36.1 14.7 73.2 15.8 37.1 34.9 64.5 42.7 61.2l9.7-8.3-54.3-127.3z"/><ellipse transform="rotate(-23.089 532.482 396.247)" class="st6" cx="532.5" cy="396.3" rx="10.3" ry="69.3"/><circle class="st2" cx="501.6" cy="453.4" r="2.2"/><circle class="st2" cx="507.6" cy="467.4" r="2.2"/><path class="st3" d="M618 90.6c-149.4 0-201.9 126.6-180.4 232.6l16.6-3.6 10.1 1c-17.4-89.9 28.2-196 153.7-196s171.1 106.2 153.8 196.1l10.1-1 16.6 3.6C819.9 217.2 767.4 90.6 618 90.6z"/></svg>