<svg xmlns="http://www.w3.org/2000/svg" viewBox="0 0 1920 673" xml:space="preserve"><style>.st2{fill:#fff}</style><path fill="#f3622b" d="M0 0h1920v673H0z"/><path d="M618.9 314.9h-93.2c-2.4 0-4.4 2-4.4 4.4v45.6c0 2.4 2 4.4 4.4 4.4h36.4v56.6s-8.2 2.8-30.7 2.8c-26.6 0-63.8-9.7-63.8-91.6 0-81.8 38.7-92.6 75.1-92.6 31.5 0 45.1 5.5 53.7 8.2 2.7.8 5.2-1.9 5.2-4.3l10.4-44c0-1.1-.4-2.5-1.7-3.4-3.5-2.5-24.9-14.5-78.9-14.5-62.2 0-126.1 26.5-126.1 153.8 0 127.3 73.1 146.3 134.7 146.3 51 0 81.9-21.8 81.9-21.8 1.3-.7 1.4-2.5 1.4-3.3V319.3c0-2.4-2-4.4-4.4-4.4zm480.5-113.2c0-2.4-1.9-4.4-4.3-4.4h-52.5c-2.4 0-4.3 2-4.3 4.4v101.5h-81.8V201.7c0-2.4-1.9-4.4-4.3-4.4h-52.5c-2.4 0-4.3 2-4.3 4.4v274.7c0 2.4 1.9 4.4 4.3 4.4h52.5c2.4 0 4.3-2 4.3-4.4V358.9h81.8l-.1 117.5c0 2.4 1.9 4.4 4.3 4.4h52.6c2.4 0 4.3-2 4.3-4.4V201.7zM718 237.8c0-18.9-15.2-34.2-33.9-34.2s-33.8 15.3-33.8 34.2c0 18.9 15.2 34.2 33.8 34.2 18.8 0 33.9-15.3 33.9-34.2zm-3.7 180.7V291.7c0-2.4-1.9-4.4-4.3-4.4h-52.3c-2.4 0-4.5 2.5-4.5 4.9v181.7c0 5.3 3.3 6.9 7.6 6.9h47.1c5.2 0 6.4-2.5 6.4-7v-55.3zm584.6-130.8h-52.1c-2.4 0-4.3 2-4.3 4.4v134.7s-13.2 9.7-32 9.7-23.8-8.5-23.8-26.9V292.1c0-2.4-1.9-4.4-4.3-4.4h-52.9c-2.4 0-4.3 2-4.3 4.4v126.4c0 54.6 30.4 68 72.3 68 34.4 0 62.1-19 62.1-19s1.3 10 1.9 11.2c.6 1.2 2.2 2.4 3.8 2.4l33.6-.1c2.4 0 4.3-2 4.3-4.4V292.2c.1-2.5-1.9-4.5-4.3-4.5zm142.4-6.2c-29.6 0-49.7 13.2-49.7 13.2v-93c0-2.4-1.9-4.4-4.3-4.4h-52.6c-2.4 0-4.3 2-4.3 4.4v274.7c0 2.4 1.9 4.4 4.3 4.4h36.5c1.6 0 2.9-.8 3.8-2.3.9-1.5 2.2-12.7 2.2-12.7s21.5 20.4 62.3 20.4c47.8 0 75.3-24.3 75.3-108.9 0-84.7-43.9-95.8-73.5-95.8zm-20.5 154.8c-18.1-.6-30.3-8.7-30.3-8.7v-87s12.1-7.4 26.9-8.7c18.8-1.7 36.8 4 36.8 48.7 0 47.2-8.1 56.5-33.4 55.7zm-555.7-149h-39.4l-.1-52c0-2-1-3-3.3-3h-53.7c-2.1 0-3.2.9-3.2 2.9V289s-26.9 6.5-28.7 7c-1.8.5-3.1 2.2-3.1 4.2V334c0 2.4 1.9 4.4 4.3 4.4h27.5v81.3c0 60.4 42.3 66.3 70.9 66.3 13.1 0 28.7-4.2 31.3-5.1 1.6-.6 2.5-2.2 2.5-3.9v-37.2c0-2.4-2-4.4-4.4-4.4-2.3 0-8.2.9-14.2.9-19.3 0-25.9-9-25.9-20.6v-77.2H865c2.4 0 4.3-2 4.3-4.4v-42.3c.2-2.6-1.8-4.5-4.2-4.5z" fill="#cb5327"/><path class="st2" d="M694.6 336.5c0 105 61 195.8 149.6 238.8L717.6 228.5c-14.7 33-23 69.5-23 108zm444.5-13.4c0-32.8-11.8-55.5-21.9-73.2-13.5-21.9-26.1-40.4-26.1-62.2 0-24.4 18.5-47.1 44.6-47.1 1.2 0 2.3.1 3.4.2-47.1-43.2-110-69.7-179.1-69.7-92.7 0-174.3 47.6-221.7 119.6 6.2.2 12.1.3 17.1.3 27.8 0 70.7-3.4 70.7-3.4 14.3-.8 16 20.2 1.7 21.9 0 0-14.4 1.7-30.4 2.5L894 499.5l58.1-174.2L910.8 212c-14.3-.8-27.8-2.5-27.8-2.5-14.3-.8-12.6-22.7 1.7-21.9 0 0 43.8 3.4 69.9 3.4 27.8 0 70.7-3.4 70.7-3.4 14.3-.8 16 20.2 1.7 21.9 0 0-14.4 1.7-30.4 2.5l95.9 285.3 26.5-88.4c11.4-36.7 20.1-63.1 20.1-85.8z"/><path class="st2" d="M964.6 359.7 885 591.1c23.8 7 48.9 10.8 75 10.8 30.9 0 60.5-5.3 88.1-15-.7-1.1-1.4-2.3-1.9-3.7l-81.6-223.5zm228.2-150.5c1.1 8.5 1.8 17.5 1.8 27.3 0 26.9-5 57.2-20.2 95l-81.1 234.4c78.9-46 132-131.5 132-229.4 0-46.1-11.7-89.5-32.5-127.3z"/><path class="st2" d="M960 27.2c-170.6 0-309.3 138.8-309.3 309.3 0 170.6 138.8 309.3 309.3 309.3 170.6 0 309.3-138.8 309.3-309.3 0-170.6-138.8-309.3-309.3-309.3zm0 604.4c-162.7 0-295.1-132.4-295.1-295.2 0-162.7 132.4-295.1 295.1-295.1 162.7 0 295.1 132.4 295.1 295.1 0 162.8-132.4 295.2-295.1 295.2z"/></svg>