<svg xmlns="http://www.w3.org/2000/svg" viewBox="0 0 1920 673" xml:space="preserve"><style>.st1{fill:#36434f}.st2{fill:#2e86b7}</style><path fill="#f4f4f4" d="M0 0h1920v673H0z"/><path class="st1" d="M784 148.5c0 6.6-5.4 12-12 12h-56c-6.6 0-12-5.4-12-12v-56c0-6.6 5.4-12 12-12h56c6.6 0 12 5.4 12 12v56zm108 0c0 6.6-5.4 12-12 12h-56c-6.6 0-12-5.4-12-12v-56c0-6.6 5.4-12 12-12h56c6.6 0 12 5.4 12 12v56zm108 0c0 6.6-5.4 12-12 12h-56c-6.6 0-12-5.4-12-12v-56c0-6.6 5.4-12 12-12h56c6.6 0 12 5.4 12 12v56zm108 0c0 6.6-5.4 12-12 12h-56c-6.6 0-12-5.4-12-12v-56c0-6.6 5.4-12 12-12h56c6.6 0 12 5.4 12 12v56zm108 0c0 6.6-5.4 12-12 12h-56c-6.6 0-12-5.4-12-12v-56c0-6.6 5.4-12 12-12h56c6.6 0 12 5.4 12 12v56zm-432 108c0 6.6-5.4 12-12 12h-56c-6.6 0-12-5.4-12-12v-56c0-6.6 5.4-12 12-12h56c6.6 0 12 5.4 12 12v56z"/><path class="st2" d="M892 256.5c0 6.6-5.4 12-12 12h-56c-6.6 0-12-5.4-12-12v-56c0-6.6 5.4-12 12-12h56c6.6 0 12 5.4 12 12v56zm108 0c0 6.6-5.4 12-12 12h-56c-6.6 0-12-5.4-12-12v-56c0-6.6 5.4-12 12-12h56c6.6 0 12 5.4 12 12v56zm108 0c0 6.6-5.4 12-12 12h-56c-6.6 0-12-5.4-12-12v-56c0-6.6 5.4-12 12-12h56c6.6 0 12 5.4 12 12v56zm108 0c0 6.6-5.4 12-12 12h-56c-6.6 0-12-5.4-12-12v-56c0-6.6 5.4-12 12-12h56c6.6 0 12 5.4 12 12v56z"/><path class="st1" d="M784 364.5c0 6.6-5.4 12-12 12h-56c-6.6 0-12-5.4-12-12v-56c0-6.6 5.4-12 12-12h56c6.6 0 12 5.4 12 12v56z"/><path class="st2" d="M892 364.5c0 6.6-5.4 12-12 12h-56c-6.6 0-12-5.4-12-12v-56c0-6.6 5.4-12 12-12h56c6.6 0 12 5.4 12 12v56zm108 0c0 6.6-5.4 12-12 12h-56c-6.6 0-12-5.4-12-12v-56c0-6.6 5.4-12 12-12h56c6.6 0 12 5.4 12 12v56zm108 0c0 6.6-5.4 12-12 12h-56c-6.6 0-12-5.4-12-12v-56c0-6.6 5.4-12 12-12h56c6.6 0 12 5.4 12 12v56zm108 0c0 6.6-5.4 12-12 12h-56c-6.6 0-12-5.4-12-12v-56c0-6.6 5.4-12 12-12h56c6.6 0 12 5.4 12 12v56z"/><path class="st1" d="M784 472.5c0 6.6-5.4 12-12 12h-56c-6.6 0-12-5.4-12-12v-56c0-6.6 5.4-12 12-12h56c6.6 0 12 5.4 12 12v56z"/><path class="st2" d="M892 472.5c0 6.6-5.4 12-12 12h-56c-6.6 0-12-5.4-12-12v-56c0-6.6 5.4-12 12-12h56c6.6 0 12 5.4 12 12v56zm108 0c0 6.6-5.4 12-12 12h-56c-6.6 0-12-5.4-12-12v-56c0-6.6 5.4-12 12-12h56c6.6 0 12 5.4 12 12v56zm108 0c0 6.6-5.4 12-12 12h-56c-6.6 0-12-5.4-12-12v-56c0-6.6 5.4-12 12-12h56c6.6 0 12 5.4 12 12v56zm108 0c0 6.6-5.4 12-12 12h-56c-6.6 0-12-5.4-12-12v-56c0-6.6 5.4-12 12-12h56c6.6 0 12 5.4 12 12v56z"/><path class="st1" d="M784 580.5c0 6.6-5.4 12-12 12h-56c-6.6 0-12-5.4-12-12v-56c0-6.6 5.4-12 12-12h56c6.6 0 12 5.4 12 12v56z"/><path class="st2" d="M892 580.5c0 6.6-5.4 12-12 12h-56c-6.6 0-12-5.4-12-12v-56c0-6.6 5.4-12 12-12h56c6.6 0 12 5.4 12 12v56zm108 0c0 6.6-5.4 12-12 12h-56c-6.6 0-12-5.4-12-12v-56c0-6.6 5.4-12 12-12h56c6.6 0 12 5.4 12 12v56zm108 0c0 6.6-5.4 12-12 12h-56c-6.6 0-12-5.4-12-12v-56c0-6.6 5.4-12 12-12h56c6.6 0 12 5.4 12 12v56zm108 0c0 6.6-5.4 12-12 12h-56c-6.6 0-12-5.4-12-12v-56c0-6.6 5.4-12 12-12h56c6.6 0 12 5.4 12 12v56z"/></svg>