<svg xmlns="http://www.w3.org/2000/svg" viewBox="0 0 1920 673" xml:space="preserve"><style>.st2{fill:#fff}.st5{fill:#221e1f}.st6{fill:#98cd70}</style><path fill="#4d6273" d="M0 0h1920v673H0z"/><path d="M1390.6 673V214.9c0-24.2-12.5-36.7-36.7-36.7H567.5c-24.2 0-36.7 12.5-36.7 36.7V673h859.8z" fill="#414141"/><path class="st2" d="M567.5 214.9h786.4V673H567.5z"/><path fill="#f5f5f6" d="M567.5 214.9h786.4v42.6H567.5z"/><path d="M619 328h341v25.5H619zm0 60h341v25.5H619zm0 60h341v25.5H619zm0 60h341v25.5H619zm0 60h341v25.5H619zm0 60h341v25.5H619z" fill="#c7c8ca"/><ellipse transform="rotate(-53.843 1219.657 399.84)" class="st2" cx="1219.7" cy="399.8" rx="37.1" ry="26"/><path class="st5" d="M1209.7 434.9c-4.8 0-9.2-1.4-12.8-4-12.2-8.9-11.9-30.1.6-47.3 12.5-17.1 32.6-23.8 44.9-14.9 6 4.4 9.2 11.8 9 20.8-.2 8.9-3.6 18.2-9.6 26.5-6 8.2-13.9 14.3-22.3 17.2-3.4 1.1-6.6 1.7-9.8 1.7zm-9.9-49.6c-11.6 15.9-12.1 35.3-1.2 43.3 5.2 3.8 12.3 4.5 20 1.9 7.9-2.7 15.3-8.4 20.9-16.2s8.9-16.6 9.1-24.9c.2-8.1-2.7-14.6-7.9-18.5-10.9-7.9-29.3-1.5-40.9 14.4z"/><path class="st6" d="M1110 459.5s1.1 5 0 7.4c-1.1 2.4-8.3 9.2-8.3 9.2l15.3 2.1s1.9-5.2 2.4-8.5c.5-3.4 0-7.4 0-7.4"/><path class="st5" d="m1117.9 479.7-19.3-2.6 2.1-2c2.7-2.6 7.3-7.1 8-8.7.7-1.5.3-4.8-.1-6.5l2.7-.6c.1.6 1.1 5.5-.1 8.2-.8 1.8-4.2 5.3-6.5 7.7l11.3 1.6c.6-1.7 1.6-4.9 2-7.2.5-3.1 0-6.9 0-7l2.8-.3c0 .2.5 4.2 0 7.7s-2.4 8.6-2.5 8.8l-.4.9z"/><path class="st6" d="M1179.2 408.4c-9-2.4-31.2-21.9-62.6-24.1s-49 38-54 54c-4.9 16-7.1 29-4.9 49.7 2.2 20.7 14.5 41.8 21.7 49.5 7.2 7.8 16.8 17.4 30.4 17.4 18.2 0 24.7-13.4 26.2-19.9 2.1-11.1-8.5-32.4-22.9-33.2-14.3-.8-18.5 8.3-18.5 14.5 0 6.2 7.2 12.9 12.8 13.3 5.5.4 11.6-3.4 11-8.7-.6-5.2-4.6-2.8-4.6-2.8s.9 4.6-3.1 4.9c-4 .3-7.7-3.1-7.1-6.8.6-3.7 4.6-7.1 11.4-6.2 6.8.9 14.5 14.8 13.3 21.6-1.3 6.8-4 17.3-18.8 14.2-19.1-4-42.6-38.9-41.6-64.2.9-25.3 19.7-38.9 19.7-38.9s15.4 21.6 45.4 20.3c30-1.3 50.9-8 50.9-8s7.7 3.2 19.1 2.2c16.7-3.4 32.2-16.4 32.2-16.4s-10.2-18.8-19.8-24.4c-9.5-5.2-27.2-5.6-36.2-8z"/><path class="st5" d="M1109.8 556.3c-14.6 0-24.7-10.8-31.4-17.9-7.7-8.2-20-29.8-22.1-50.3-2.2-21.2.2-34.5 5-50.2 1.8-5.9 18.8-57.5 55.4-55 22.6 1.6 40.3 11.8 52.1 18.6 4.7 2.7 8.4 4.8 10.8 5.5 3 .8 7.1 1.4 11.4 2 8.7 1.3 18.5 2.7 25 6.4 9.8 5.7 19.9 24.1 20.3 24.9l.6 1-.9.7c-.7.6-15.9 13.2-32.8 16.7h-.2c-10.1.9-17.4-1.4-19.3-2.1-3.3 1-23.5 6.8-50.8 8-26.3 1.1-41.8-15.3-45.6-19.8-3.9 3.3-17.4 16.1-18.1 37-.9 24.2 21.5 58.7 40.5 62.8 4.8 1 8.6.6 11.3-1.3 3.8-2.5 5.1-7.4 5.9-11.8.6-3.4-1.5-9.6-4.9-14.3-2.4-3.3-5-5.3-7.1-5.6-5.8-.8-9.4 1.9-9.9 5-.2 1.2.2 2.4 1.1 3.4 1.1 1.2 2.9 1.9 4.5 1.8.7-.1 1.2-.3 1.4-.7.6-.8.5-2.2.4-2.6l-.2-1 .8-.5c.3-.2 2.4-1.4 4.3-.5 1.4.7 2.2 2.1 2.4 4.2.3 2.3-.5 4.5-2.2 6.4-2.4 2.5-6.4 4-10.2 3.8-6.1-.4-14.1-7.5-14.1-14.6 0-2.1.5-7.2 4.7-11.3 3.6-3.4 8.7-4.9 15.2-4.6 5.7.3 11.5 3.8 16.1 9.7 5.9 7.6 9.3 18.1 8 25.1-2.1 9.9-10.6 21.1-27.4 21.1zm4.3-170.7c-32.9 0-48.5 47.6-50.2 53.1-4.7 15.4-7 28.3-4.9 49.1 2.1 19.9 14 40.8 21.4 48.7 6.3 6.7 16 17 29.4 17 19.9 0 24.4-16.9 24.9-18.8 1.2-6.1-2.1-16-7.5-22.8-4.2-5.3-9.2-8.4-14.1-8.7-5.7-.3-10.2 1-13.2 3.8-3.5 3.3-3.9 7.6-3.9 9.3 0 5.4 6.7 11.6 11.5 11.9 3 .2 6.1-1 8-2.9.8-.9 1.7-2.3 1.5-4.1-.2-1.1-.5-1.9-.9-2.1-.3-.1-.6-.1-.9 0 .1 1-.1 2.5-1 3.7-.6.7-1.6 1.6-3.4 1.8-2.5.2-5-.8-6.7-2.7-1.5-1.6-2.2-3.7-1.8-5.7.8-4.4 5.4-8.4 13-7.3 2.9.4 6.1 2.8 9 6.7 3.3 4.5 6.3 11.5 5.4 16.5-.9 5-2.5 10.5-7.1 13.6-3.4 2.3-7.9 2.8-13.4 1.7-9.4-2-20.3-11.2-29.2-24.7-8.9-13.5-14-28.8-13.5-40.9 1-25.7 19.5-39.4 20.3-40l1.1-.8.8 1.1c.2.2 15.4 20.9 44.2 19.8 29.3-1.2 50.3-7.9 50.5-8l.5-.2.5.2c.1.1 7.6 3 18.4 2.1 13.8-2.9 27-12.6 30.6-15.3-2.3-3.9-10.8-18.3-18.7-22.8-6-3.5-15.6-4.9-24-6.1-4.4-.7-8.6-1.3-11.8-2.1-2.8-.8-6.6-3-11.5-5.8-11.5-6.6-28.9-16.7-50.9-18.2-.8 0-1.6-.1-2.4-.1z"/><ellipse transform="rotate(-9.119 1174.511 393.205)" class="st2" cx="1174.6" cy="393.2" rx="27.3" ry="38.6"/><path class="st5" d="M1177.6 432.9c-14.4 0-28.1-15-31.4-35.2-3.5-21.8 6.3-41.5 22-44 15.6-2.5 31.2 13.2 34.7 34.9 3.5 21.8-6.4 41.5-22 44-1.1.3-2.2.3-3.3.3zm-6.1-76.7c-1 0-1.9.1-2.9.3-14.1 2.3-23 20.6-19.7 40.9 3.3 20.3 17.4 34.9 31.5 32.6 14.1-2.3 23-20.6 19.7-40.9-3-18.9-15.5-32.9-28.6-32.9z"/><circle class="st5" cx="1166.6" cy="399.6" r="6.4"/><circle class="st5" cx="1235.1" cy="393.2" r="6.4"/><path d="M1041.6 473.7h-18.5s-2.1 4.3-2.1 8.6 2.1 8.6 2.1 8.6h18.5v-17.2z" fill="#d07b84"/><path class="st5" d="M1043 492.2h-20.7l-.4-.8c-.1-.2-2.2-4.7-2.2-9.2 0-4.5 2.1-9 2.2-9.2l.4-.8h20.8l-.1 20zm-19-2.8h16.2V475H1024c-.6 1.4-1.6 4.3-1.6 7.1 0 3 1.1 5.9 1.6 7.3z"/><path class="st2" d="M1056.4 473.7h-18.5s-2.1 4.3-2.1 8.6 2.1 8.6 2.1 8.6h18.5v-17.2z"/><path class="st5" d="M1057.8 492.2h-20.7l-.4-.8c-.1-.2-2.2-4.7-2.2-9.2 0-4.5 2.1-9 2.2-9.2l.4-.8h20.8l-.1 20zm-19-2.8h16.2V475h-16.2c-.6 1.4-1.6 4.3-1.6 7.1 0 3 1.1 5.9 1.6 7.3z"/><path class="st2" d="M1062.9 473.7h-18.5s-2.1 4.3-2.1 8.6 2.1 8.6 2.1 8.6h18.5v-17.2z"/><path class="st5" d="M1064.3 492.2h-20.8l-.4-.8c-.1-.2-2.2-4.7-2.2-9.2 0-4.5 2.1-9 2.2-9.2l.4-.8h20.8v20zm-19-2.8h16.2V475h-16.2c-.6 1.4-1.6 4.3-1.6 7.1 0 3 1.1 5.9 1.6 7.3z"/><path d="M1224.6 473.7h-173.7s-2.1 4.3-2.1 8.6 2.1 8.6 2.1 8.6h173.7l42.7-8.6-42.7-8.6z" fill="#dcc576"/><path class="st2" d="M1224.6 473.7s-2.6 3-2.6 8.6c0 5.5 2.6 8.6 2.6 8.6l42.7-8.6-42.7-8.6z"/><path class="st5" d="M1224.7 492.2H1050l-.4-.8c-.1-.2-2.2-4.7-2.2-9.2 0-4.5 2.1-9 2.2-9.2l.4-.8 174.8.1 49.5 9.9-49.6 10zm-172.9-2.8h172.7l35.8-7.1-35.8-7.2h-172.7c-.6 1.4-1.6 4.3-1.6 7.1 0 2.9 1.1 5.8 1.6 7.2z"/><path class="st5" d="M1246.5 478.1s-1.1 1.9-1.1 4.2c0 2.3 1.1 4.2 1.1 4.2l20.8-4.2-20.8-4.2z"/><path fill="none" d="M1222 482.2h-173.2"/><path class="st5" d="M1048.8 480.8H1222v2.8h-173.2z"/><path class="st2" d="M1224.6 473.7s-2.6 3-2.6 8.6c0 5.5 2.6 8.6 2.6 8.6"/><path class="st5" d="M1223.5 491.7c-.1-.2-2.9-3.5-2.9-9.5s2.8-9.3 2.9-9.5l2.1 1.8-1.1-.9 1.1.9c0 .1-2.3 2.8-2.3 7.7s2.2 7.7 2.3 7.7l-2.1 1.8z"/><path class="st6" d="M1184 490.8c0 1.3 5.6 9.6 15.6 8.6 10.3-1 15.6-8.6 15.6-8.6H1205s-2.9 1.6-6.7 1.6c-3.9 0-6.1-.6-7.3-1.6-1.2-1.1-1-2.4-3.9-2.4-2.2 0-3.1 1.1-3.1 2.4z"/><path class="st5" d="M1198 500.9c-5.7 0-9.7-2.8-11.7-4.6-1.8-1.6-3.7-4.1-3.7-5.5 0-1.9 1.4-3.8 4.5-3.8 2.6 0 3.5 1 4.3 2.1.2.3.4.5.6.7 1 .9 3 1.3 6.3 1.3 3.5 0 6-1.4 6-1.4l.3-.2h13.2l-1.5 2.2c-.3.4-5.8 8.2-16.6 9.2h-1.7zm-12.6-10.2c.4 1.1 5.1 8.2 14 7.4 6-.6 10.3-3.7 12.6-5.8h-6.7c-.9.5-3.6 1.6-7 1.6-4.2 0-6.7-.6-8.2-2-.5-.4-.8-.8-1-1.2-.5-.7-.6-.9-2-.9-.6 0-1.6.1-1.7.9z"/><path class="st6" d="M1089.2 441.7s-3.7 7.2-4 13.7c-.4 6.5 2.7 15.5 2.7 15.5s-4.9 5.7-5.7 9.9c-.4 2.1-.3 4.4 2.3 7.7 2.7 3.4 5.1 5.1 6.3 5.4 2.3.6 3.8-.5 5.3-1.3s3.5-1.4 2.2-1.9c-3.9-.4-8.6-8-7.4-9.9 1.2-1.9 4.4-7.2 4.4-7.2h7.8s-8.7-10.2-8.6-13.1 6-13.7 6-13.7"/><path class="st5" d="M1092 495.4c-.5 0-1.1-.1-1.7-.2-1.9-.5-4.6-2.8-7-5.9-3.1-3.9-3-6.8-2.6-8.8.7-3.7 4.2-8.3 5.5-9.9-.7-2.3-2.8-9.6-2.5-15.3.4-6.7 4-13.9 4.2-14.3l2.5 1.3c-.1.1-3.6 7-3.9 13.1-.4 6.1 2.6 14.9 2.6 15l.3.8-.5.6c-1.3 1.5-4.8 6.1-5.4 9.2-.3 1.7-.3 3.6 2.1 6.6 2.5 3.2 4.7 4.7 5.5 4.9 1.6.4 2.6-.2 3.9-.9l.4-.3c.1-.1.2-.1.3-.2-2.2-1.3-4.2-3.8-5.3-6.1-.8-1.5-1.5-3.6-.6-5 1.2-1.8 4.3-7.1 4.3-7.2l.4-.7h5.6c-2.9-3.5-7.1-9.3-7-11.8.1-3.1 5.2-12.5 6.2-14.3l2.4 1.3c-2.2 4.1-5.8 11.2-5.8 13.1-.1 1.4 4.2 7.4 8.3 12.2l2 2.3h-10l-3.9 6.5c-.1.5.4 2.2 1.9 4.2s3.2 3.4 4.4 3.6l.4.1c1.1.4 1.3 1.2 1.4 1.6.1 1.2-1 1.7-2.3 2.3-.4.2-.8.4-1.1.5l-.4.2c-1.5.8-2.8 1.5-4.6 1.5zm0-13.8"/><path class="st6" d="M1143 446.8s-3.5 7.4-2.3 13.4c1.2 6 9.1 13.4 9.1 13.4s-.7 6 0 9.6c.7 3.5 2.8 11.3 8.3 12.6 5.4 1.2 9.8-5 9.8-5h-7.3s-3.8-4.9-3.2-8.6c.6-3.6 7.4-8.6 7.4-8.6h6.5s-4.3-4.6-8.2-4.4c-3.9.1-7.9 3.5-7.9 3.5s-2.4-4.5-3.1-5.3-3.5-9.3-2.8-12.4c.7-3.1 4.5-8.2 4.5-8.2"/><path class="st5" d="M1159.5 497.3c-.6 0-1.2-.1-1.8-.2-6.1-1.4-8.5-9.2-9.4-13.6-.6-3-.3-7.6-.1-9.3-1.8-1.8-8-8.2-9-13.7-1.2-6.4 2.3-13.9 2.4-14.3l2.5 1.2c-.1.1-3.3 7.1-2.2 12.6 1.1 5.5 8.6 12.6 8.7 12.7l.5.5-.1.7c0 .1-.7 5.8 0 9.2.6 3.1 2.5 10.4 7.2 11.5 2.5.6 4.8-.9 6.4-2.3h-4.8l-.4-.6c-.4-.6-4.1-5.5-3.5-9.6.6-4.1 7.2-9 8-9.5l.4-.3h3.2c-1.4-.9-3-1.7-4.3-1.7-3.3.1-7 3.2-7 3.2l-1.3 1.1-.8-1.5c-1-1.8-2.6-4.6-3-5.1-1-1.2-3.9-10.1-3.1-13.6.8-3.3 4.5-8.5 4.7-8.7l2.2 1.7c-1 1.4-3.7 5.4-4.2 7.7-.6 2.5 1.9 10.3 2.6 11.3.5.6 1.7 2.6 2.5 4.1 1.6-1.1 4.5-2.8 7.4-2.8 4.3-.2 8.7 4.4 9.2 4.9l2.2 2.4h-9.3c-2.5 1.9-6.1 5.2-6.5 7.4-.4 2.2 1.5 5.4 2.6 6.9h9.2l-1.5 2.2c-.3 0-4.2 5.5-9.6 5.5z"/><path class="st6" d="m1171.3 458.5 14.6 15.2s-.4.9-1.7 3.7c-1.4 2.9-1.9 4.2-.6 4.9 1.3.7 4.8-2.9 6.3-4.9 1.6-2 2.9-3.7 2.9-3.7h21.6s-7.6-5-12.9-5.3c-5.3-.3-10.5-.6-10.5-.6l-7.2-12.5"/><path class="st5" d="M1183.8 483.6c-.3 0-.6-.1-.9-.2-2.6-1.3-1.2-4.3 0-6.7.7-1.4 1.1-2.3 1.4-2.8l-13.9-14.5 2-1.9 15.3 15.8-.4.9c0 .1-.4.9-1.8 3.8-.3.6-1 2-1.2 2.8 1-.6 3-2.4 4.5-4.2l3.4-4.2h17.1c-2.4-1.2-5.3-2.4-7.8-2.6l-11.2-.6-7.7-13.1 2.4-1.4 6.9 11.8 9.7.5c5.6.3 13.2 5.3 13.6 5.5l3.8 2.6h-25.6l-2.5 3.2c-.4.5-4.3 5.3-7.1 5.3z"/><path class="st5" d="m1157.4 462.4-.4-2.8c16.1-2.4 26.4-5.6 26.5-5.7l.5-.2.5.2c.1 0 6.1 2.5 15.2 2.2l.1 2.8c-8.3.2-14.1-1.7-15.8-2.3-2.4.9-12.2 3.7-26.6 5.8z"/></svg>