<svg xmlns="http://www.w3.org/2000/svg" viewBox="0 0 1920 673" xml:space="preserve"><style>.st1{fill:#2c2255}</style><path fill="#ededed" d="M0 0h1920v673H0z"/><path class="st1" d="M491.7 368.7h-38.3c5.1 17.4 14.5 33 28.2 46.7 21.9 22 48.3 32.9 79.2 32.9 6.2 0 12.1-.5 18-1.3 23.2-3.5 43.6-14 61-31.6 13.9-13.8 23.3-29.3 28.4-46.7H491.7zm-21.1-51.9h-20c-.7 4.4-1.2 8.9-1.5 13.5h223.5c-.2-4.6-.7-9.1-1.5-13.5m-222 26c.2 4.6.7 9.1 1.5 13.5h220.5c.7-4.4 1.2-8.9 1.5-13.5m-4.3-38.6c-5.1-17.4-14.6-33.1-28.4-47-17.4-17.4-37.7-27.8-60.9-31.3-5.9-.9-11.9-1.4-18.1-1.4-30.9 0-57.3 10.9-79.2 32.7-13.8 13.9-23.2 29.5-28.2 47"/><path d="M442.5 336.5c0-59 44.3-108.1 102-116.7-1.4-.1-2.9-.1-4.3-.1-64.7 0-117.2 52.3-117.2 116.8s52.5 116.8 117.2 116.8c1.4 0 2.9-.1 4.3-.1-57.7-8.6-102-57.7-102-116.7zm619.6-126.1h23.3v29.5h-23.3z" fill="#f7941e"/><path class="st1" d="M867.5 331.9v11.4H760.3c1 16.1 5.8 28.3 14.5 36.7 8.7 8.4 20.7 12.6 36.2 12.6 9 0 17.6-1.1 26-3.3 8.4-2.2 16.7-5.5 25-9.9v22c-8.4 3.5-16.9 6.2-25.7 8.1-8.8 1.9-17.7 2.8-26.7 2.8-22.6 0-40.6-6.6-53.8-19.8-13.2-13.2-19.8-31-19.8-53.5 0-23.2 6.3-41.7 18.8-55.3 12.5-13.6 29.5-20.5 50.7-20.5 19.1 0 34.2 6.1 45.3 18.4 11.1 12.4 16.7 29.2 16.7 50.3m-23.3-6.9c-.2-12.8-3.7-22.9-10.7-30.5-7-7.6-16.2-11.4-27.7-11.4-13 0-23.4 3.7-31.2 11-7.8 7.3-12.3 17.7-13.5 31l83.1-.1zm144.2-52.8V294c-6.6-3.6-13.2-6.4-19.8-8.2-6.6-1.8-13.3-2.7-20.1-2.7-15.1 0-26.9 4.8-35.2 14.4-8.4 9.6-12.5 23-12.5 40.3 0 17.3 4.2 30.8 12.5 40.3 8.4 9.6 20.1 14.4 35.2 14.4 6.8 0 13.4-.9 20.1-2.7 6.6-1.8 13.2-4.5 19.8-8.2v21.5c-6.5 3-13.2 5.3-20.2 6.8s-14.4 2.3-22.2 2.3c-21.4 0-38.3-6.7-50.9-20.1-12.6-13.4-18.9-31.5-18.9-54.3 0-23.1 6.4-41.3 19.1-54.6 12.7-13.3 30.1-19.9 52.3-19.9 7.2 0 14.2.7 21 2.2 6.7 1.5 13.4 3.7 19.8 6.7m21.1-60.7h23.3v197.1h-23.3zm52.6 55.3h23.3v141.9h-23.3V266.8zm75.2 120.5v75.2h-23.4V266.8h23.4v21.5c4.9-8.4 11.1-14.7 18.6-18.8 7.5-4.1 16.4-6.1 26.8-6.1 17.2 0 31.2 6.8 42 20.5s16.1 31.7 16.1 54-5.4 40.3-16.1 54c-10.8 13.7-24.8 20.5-42 20.5-10.4 0-19.3-2-26.8-6.1-7.6-4.2-13.7-10.5-18.6-19m79.3-49.5c0-17.1-3.5-30.6-10.6-40.3s-16.7-14.6-29.1-14.6c-12.3 0-22 4.9-29.1 14.6-7.1 9.8-10.6 23.2-10.6 40.3 0 17.1 3.5 30.6 10.6 40.3 7 9.8 16.7 14.6 29.1 14.6 12.3 0 22-4.9 29.1-14.6 7-9.7 10.6-23.1 10.6-40.3m133.8-66.9v22c-6.6-3.4-13.4-5.9-20.5-7.6-7.1-1.7-14.4-2.5-22-2.5-11.6 0-20.2 1.8-26 5.3-5.8 3.5-8.7 8.9-8.7 16 0 5.4 2.1 9.6 6.2 12.7 4.1 3.1 12.5 6 25 8.8l8 1.8c16.6 3.5 28.3 8.5 35.3 15 7 6.5 10.5 15.5 10.5 27 0 13.2-5.2 23.6-15.7 31.3-10.4 7.7-24.8 11.5-43 11.5-7.6 0-15.5-.7-23.8-2.2-8.2-1.5-16.9-3.7-26-6.7v-24.1c8.6 4.5 17.1 7.8 25.5 10.1 8.4 2.2 16.6 3.4 24.8 3.4 11 0 19.4-1.9 25.3-5.6 5.9-3.8 8.9-9.1 8.9-15.9 0-6.3-2.1-11.2-6.4-14.6-4.3-3.4-13.6-6.6-28.1-9.8l-8.1-1.9c-14.4-3-24.9-7.7-31.3-14-6.4-6.3-9.6-14.9-9.6-25.9 0-13.3 4.7-23.6 14.2-30.9 9.5-7.3 22.9-10.9 40.3-10.9 8.6 0 16.7.6 24.3 1.9 7.5 1.4 14.5 3.3 20.9 5.8m146.6 61v11.4h-107.2c1 16.1 5.8 28.3 14.5 36.7 8.7 8.4 20.7 12.6 36.2 12.6 9 0 17.6-1.1 26-3.3 8.4-2.2 16.7-5.5 25-9.9v22c-8.4 3.5-16.9 6.2-25.7 8.1-8.8 1.9-17.7 2.8-26.7 2.8-22.6 0-40.6-6.6-53.8-19.8-13.2-13.2-19.8-31-19.8-53.5 0-23.2 6.3-41.7 18.8-55.3 12.5-13.6 29.5-20.5 50.7-20.5 19.1 0 34.2 6.1 45.3 18.4 11.1 12.4 16.7 29.2 16.7 50.3m-23.3-6.9c-.2-12.8-3.7-22.9-10.7-30.5-7-7.6-16.2-11.4-27.7-11.4-13 0-23.4 3.7-31.2 11-7.8 7.3-12.3 17.7-13.5 31l83.1-.1z"/><linearGradient id="a" gradientUnits="userSpaceOnUse" x1="560.868" y1="750.581" x2="560.868" y2="582.268" gradientTransform="translate(0 -287)"><stop offset=".303" stop-color="#473788"/><stop offset=".872" stop-color="#2c2255"/></linearGradient><path d="M636.9 330.2c-.4-4.6-1.2-9.1-2.3-13.5H487.1c-1.2 4.3-1.9 8.9-2.3 13.5h152.1z" fill="url(#a)"/><linearGradient id="b" gradientUnits="userSpaceOnUse" x1="560.87" y1="750.584" x2="560.87" y2="582.27" gradientTransform="translate(0 -287)"><stop offset=".303" stop-color="#473788"/><stop offset=".872" stop-color="#2c2255"/></linearGradient><path d="M636.9 342.8H484.8c.4 4.6 1.1 9.1 2.3 13.5h147.5c1.2-4.4 1.9-8.9 2.3-13.5z" fill="url(#b)"/><linearGradient id="c" gradientUnits="userSpaceOnUse" x1="560.87" y1="750.579" x2="560.87" y2="582.274" gradientTransform="translate(0 -287)"><stop offset=".303" stop-color="#473788"/><stop offset=".863" stop-color="#2c2255"/></linearGradient><path d="M560.9 412.8c30.6 0 57-18 69.2-44.1H491.7c12.2 26.1 38.5 44.1 69.2 44.1z" fill="url(#c)"/><path d="M473.6 342.8h198.9c.1-2 .2-4 .2-6 0-2.2-.1-4.3-.2-6.5H449.1c-.1 2.2-.2 4.3-.2 6.5 0 2 .1 4 .2 6h24.5zm17.6-38.6h-37.8c-1.2 4.1-2 8.3-2.8 12.5h219.8c-.8-4.3-1.8-8.4-3-12.5m-11.4 52H450.6c.7 4.3 1.6 8.4 2.8 12.5h214.7c1.2-4.1 2.2-8.3 3-12.5H656z" fill="#fff"/></svg>