<svg xmlns="http://www.w3.org/2000/svg" viewBox="0 0 1920 673" xml:space="preserve"><style>.st2{fill:#fff}.st3{fill:#5aba53}</style><path fill="#f4981e" d="M0 0h1920v673H0z"/><g opacity=".1"><path class="st2" d="M843.4 173.9c-36.1 0-61.4 12.3-74.3 36.1-13.6 23.9-20.5 62-20.5 114.6 0 52.5 6.8 90 19.8 112.5s38.2 34.1 75 34.1 62-10.9 75-33.4c12.3-22.5 19.1-60 19.1-113.2 0-52.5-6.8-91.4-19.8-115.2-13.6-23.2-38.2-35.5-74.3-35.5z"/><path class="st2" d="M1328.2 0H630L503.2 126.8V673H1290l126.8-126.8V0h-88.6zM990 436.4c-9.5 28.6-25.9 50.5-48.4 65.5l47.7 77.7-59.3 28-51.1-84.6c-7.5 2-19.1 3.4-35.5 3.4-60 0-102.3-16.4-125.5-48.4-23.9-32.7-35.5-83.9-35.5-153.4 0-70.2 12.3-122.1 36.1-156.1 23.9-34.1 66.1-51.1 125.5-51.1 59.3 0 100.9 17 124.8 50.5s36.1 85.9 36.1 156.1c.1 46.3-4.7 83.8-14.9 112.4zm180 83.2c-32.7 0-55.2-7.5-67.5-22.5-12.3-15-18.4-43.6-18.4-85.2V277.5h-44.3v-53.9h44.3v-83.9h62.7v83.9h79.8v53.9h-79.8V405c0 23.2 2 38.9 5.5 47 3.4 7.5 12.3 11.6 26.6 11.6l47.7-2 2.7 50.5c-26.6 4.8-45.7 7.5-59.3 7.5z"/></g><path class="st2" d="m610.2 350.4 15.3-80.9h23.4l-25.2 113.8H600l-18.5-76.1-18.5 76.1h-23.6l-25.2-113.8h23.4l15.4 80.8 18.8-80.8h19.8l18.6 80.9zm49.7-73.5c0-3.4 1.1-6.2 3.4-8.4s5.4-3.3 9.3-3.3c3.9 0 6.9 1.1 9.2 3.3 2.3 2.2 3.4 5 3.4 8.4 0 3.4-1.2 6.3-3.5 8.4-2.3 2.2-5.4 3.3-9.2 3.3-3.8 0-6.9-1.1-9.2-3.3-2.3-2.2-3.4-5-3.4-8.4zm24 106.4h-22.7v-84.5h22.7v84.5zm39.3-84.6.7 9.8c6-7.6 14.1-11.3 24.3-11.3 9 0 15.6 2.6 20 7.9 4.4 5.3 6.6 13.1 6.7 23.6v54.6h-22.6v-54.1c0-4.8-1-8.3-3.1-10.4-2.1-2.2-5.5-3.2-10.4-3.2-6.4 0-11.1 2.7-14.3 8.1v59.6H702v-84.5h21.2zm65.4 41.7c0-13.2 3-23.7 8.9-31.5 5.9-7.8 14-11.7 24.3-11.7 8.2 0 15 3.1 20.4 9.2v-43.1h22.7v120h-20.4l-1.1-9c-5.6 7-12.9 10.5-21.7 10.5-9.9 0-17.9-3.9-23.9-11.8-6.2-7.8-9.2-18.7-9.2-32.6zm22.5 1.6c0 7.9 1.4 14 4.1 18.2 2.8 4.2 6.8 6.3 12 6.3 7 0 11.9-2.9 14.8-8.8v-33.4c-2.8-5.9-7.7-8.8-14.6-8.8-10.8 0-16.3 8.9-16.3 26.5zm67.6-1.8c0-8.4 1.6-15.9 4.8-22.4 3.2-6.6 7.9-11.6 13.9-15.2 6.1-3.6 13.1-5.4 21.1-5.4 11.4 0 20.7 3.5 27.9 10.5 7.2 7 11.2 16.5 12.1 28.4l.2 5.8c0 13-3.6 23.4-10.9 31.2-7.2 7.8-17 11.8-29.1 11.8s-21.9-3.9-29.2-11.7-10.9-18.4-10.9-31.9v-1.1zm22.6 1.6c0 8 1.5 14.2 4.5 18.4 3 4.3 7.3 6.4 13 6.4 5.5 0 9.7-2.1 12.8-6.3 3.1-4.2 4.6-10.9 4.6-20.1 0-7.9-1.5-14-4.6-18.3-3.1-4.3-7.4-6.5-13-6.5-5.5 0-9.8 2.2-12.8 6.5-3 4.2-4.5 10.9-4.5 19.9zm144.9 10.8 11.1-53.8h21.8l-21.6 84.5h-18.9l-16-53.2-16 53.2h-18.8l-21.6-84.5H988l11 53.8 15.5-53.8h16.3l15.4 53.8zm89.9 7.3c0-2.8-1.4-4.9-4.1-6.5-2.7-1.6-7.1-3-13.2-4.3-20.1-4.2-30.2-12.8-30.2-25.6 0-7.5 3.1-13.8 9.3-18.8 6.2-5 14.4-7.5 24.4-7.5 10.7 0 19.3 2.5 25.7 7.6 6.4 5.1 9.6 11.6 9.6 19.7H1135c0-3.2-1-5.9-3.1-8-2.1-2.1-5.3-3.2-9.8-3.2-3.8 0-6.7.9-8.8 2.6-2.1 1.7-3.1 3.9-3.1 6.6 0 2.5 1.2 4.5 3.6 6.1 2.4 1.5 6.4 2.9 12 4s10.4 2.4 14.2 3.8c11.9 4.4 17.9 12 17.9 22.7 0 7.7-3.3 13.9-9.9 18.7-6.6 4.8-15.2 7.1-25.6 7.1-7.1 0-13.4-1.3-18.9-3.8-5.5-2.5-9.8-6-12.9-10.4-3.1-4.4-4.7-9.2-4.7-14.3h21.4c.2 4 1.7 7.1 4.5 9.2 2.8 2.1 6.5 3.2 11.1 3.2 4.3 0 7.6-.8 9.8-2.5 2.2-1.6 3.4-3.7 3.4-6.4zm118.5-51.2 21.3-39.2h27l-33.1 56.4 34 57.3h-27.3l-21.9-39.8-21.9 39.8h-27.3l34-57.3-33.1-56.4h27l21.3 39.2zm84.3 34.5v40.1h-23.4V269.5h44.4c8.5 0 16.1 1.6 22.5 4.7s11.5 7.6 15 13.3c3.5 5.8 5.2 12.3 5.2 19.6 0 11.1-3.8 19.9-11.4 26.4-7.6 6.4-18.2 9.6-31.7 9.6h-20.6zm0-19h20.9c6.2 0 10.9-1.5 14.2-4.4 3.3-2.9 4.9-7.1 4.9-12.5 0-5.6-1.6-10.1-4.9-13.5s-7.8-5.2-13.6-5.3h-21.5v35.7z"/><path class="st3" d="M938.3 487.5c-6.7 0-11.4 2.3-13.9 6.7s-3.8 11.6-3.8 21.4c0 9.8 1.3 16.8 3.7 21 2.4 4.2 7.1 6.4 14 6.4s11.6-2 14-6.2c2.3-4.2 3.6-11.2 3.6-21.1 0-9.8-1.3-17-3.7-21.5-2.6-4.4-7.2-6.7-13.9-6.7z"/><path class="st3" d="M1028.7 455.1H898.5l-23.6 23.6v101.9h146.7l23.6-23.6V455.1h-16.5zm-63.1 81.4c-1.8 5.3-4.8 9.4-9 12.2l8.9 14.5-11.1 5.2-9.5-15.8c-1.4.4-3.6.6-6.6.6-11.2 0-19.1-3.1-23.4-9-4.4-6.1-6.6-15.6-6.6-28.6 0-13.1 2.3-22.8 6.7-29.1 4.4-6.4 12.3-9.5 23.4-9.5s18.8 3.2 23.3 9.4 6.7 16 6.7 29.1c0 8.6-.9 15.6-2.8 21zm33.6 15.5c-6.1 0-10.3-1.4-12.6-4.2s-3.4-8.1-3.4-15.9v-25h-8.3v-10h8.3v-15.6h11.7v15.6h14.9v10h-14.9v23.8c0 4.3.4 7.2 1 8.8.6 1.4 2.3 2.2 5 2.2l8.9-.4.5 9.4c-5 .8-8.6 1.3-11.1 1.3z"/><path class="st2" d="M1000.8 541.5c-2.7 0-4.3-.8-5-2.2-.6-1.5-1-4.4-1-8.8v-23.8h14.9v-10h-14.9v-15.6h-11.7v15.6h-8.3v10h8.3v25c0 7.8 1.1 13.1 3.4 15.9s6.5 4.2 12.6 4.2c2.5 0 6.1-.5 11.1-1.4l-.5-9.4-8.9.5zM938.4 477c-11.1 0-18.9 3.2-23.4 9.5-4.4 6.4-6.7 16-6.7 29.1 0 13 2.2 22.5 6.6 28.6 4.3 6 12.2 9 23.4 9 3.1 0 5.2-.3 6.6-.6l9.5 15.8 11.1-5.2-8.9-14.5c4.2-2.8 7.2-6.9 9-12.2 1.9-5.3 2.8-12.3 2.8-21 0-13.1-2.3-22.9-6.7-29.1s-12.3-9.4-23.3-9.4zm13.8 59.7c-2.4 4.2-7.1 6.2-14 6.2s-11.6-2.2-14-6.4c-2.4-4.2-3.7-11.2-3.7-21s1.3-16.9 3.8-21.4c2.4-4.4 7.1-6.7 13.9-6.7 6.7 0 11.3 2.3 13.9 6.6 2.4 4.4 3.7 11.7 3.7 21.5 0 10-1.3 17-3.6 21.2z"/></svg>