<svg xmlns="http://www.w3.org/2000/svg" viewBox="0 0 1920 673" xml:space="preserve"><path fill="#eb5f5a" d="M0 0h1920v673H0z"/><path d="m487 204.5 17.4 43.5 17.4-43.5h9.1v53.3h-7V237l.7-22.4-17.5 43.2h-5.4l-17.5-43.1.7 22.3v20.8h-7v-53.3h9.1zm55.4 3.2c0-1.1.3-2 1-2.8.7-.8 1.7-1.1 3-1.1s2.3.4 3 1.1c.7.8 1 1.7 1 2.8s-.3 2-1 2.7c-.7.7-1.7 1.1-3 1.1s-2.3-.4-3-1.1c-.7-.7-1-1.6-1-2.7zm7.3 50.1h-6.8v-39.6h6.8v39.6zm26.7-4.8c2.4 0 4.5-.7 6.3-2.2 1.8-1.5 2.8-3.3 3-5.5h6.4c-.1 2.3-.9 4.4-2.3 6.5-1.4 2.1-3.4 3.7-5.8 4.9-2.4 1.2-5 1.8-7.6 1.8-5.4 0-9.7-1.8-12.9-5.4-3.2-3.6-4.8-8.5-4.8-14.8v-1.1c0-3.9.7-7.3 2.1-10.3 1.4-3 3.4-5.3 6.1-7 2.6-1.7 5.8-2.5 9.4-2.5 4.4 0 8.1 1.3 11.1 4 2.9 2.7 4.5 6.1 4.7 10.4h-6.4c-.2-2.6-1.2-4.7-2.9-6.3-1.7-1.6-3.9-2.5-6.5-2.5-3.4 0-6.1 1.2-8 3.7-1.9 2.5-2.8 6.1-2.8 10.7v1.3c0 4.6.9 8.1 2.8 10.5 1.9 2.6 4.6 3.8 8.1 3.8zm42.5-28.7c-1-.2-2.1-.3-3.3-.3-4.4 0-7.5 1.9-9 5.7v28.1h-6.8v-39.6h6.6l.1 4.6c2.2-3.5 5.4-5.3 9.4-5.3 1.3 0 2.3.2 3 .5v6.3zm3.7 13.3c0-3.9.8-7.4 2.3-10.5 1.5-3.1 3.6-5.5 6.4-7.2s5.8-2.5 9.3-2.5c5.4 0 9.8 1.9 13.1 5.6 3.3 3.7 5 8.7 5 14.9v.5c0 3.9-.7 7.3-2.2 10.4s-3.6 5.5-6.3 7.2c-2.7 1.7-5.9 2.6-9.5 2.6-5.4 0-9.7-1.9-13.1-5.6-3.3-3.7-5-8.7-5-14.8v-.6zm6.8.9c0 4.4 1 7.9 3.1 10.6 2 2.7 4.8 4 8.2 4 3.4 0 6.2-1.3 8.2-4 2-2.7 3-6.5 3-11.3 0-4.3-1-7.9-3.1-10.6-2.1-2.7-4.8-4-8.2-4-3.3 0-6 1.3-8.1 4-2 2.5-3.1 6.3-3.1 11.3zm60.9 8.8c0-1.8-.7-3.3-2.1-4.3s-3.8-1.9-7.2-2.6c-3.4-.7-6.2-1.6-8.2-2.6-2-1-3.5-2.2-4.5-3.7-1-1.4-1.4-3.1-1.4-5.1 0-3.2 1.4-6 4.1-8.2 2.7-2.2 6.3-3.4 10.5-3.4 4.5 0 8.1 1.2 10.9 3.5 2.8 2.3 4.2 5.3 4.2 8.9h-6.8c0-1.9-.8-3.5-2.4-4.8-1.6-1.3-3.6-2-6-2-2.5 0-4.4.5-5.8 1.6-1.4 1.1-2.1 2.5-2.1 4.2 0 1.6.6 2.9 1.9 3.7 1.3.8 3.6 1.6 7 2.4 3.4.8 6.1 1.7 8.2 2.7 2.1 1 3.7 2.3 4.7 3.8s1.5 3.3 1.5 5.4c0 3.5-1.4 6.4-4.2 8.5-2.8 2.1-6.5 3.2-11 3.2-3.2 0-6-.6-8.4-1.7-2.4-1.1-4.4-2.7-5.7-4.7-1.4-2-2.1-4.2-2.1-6.5h6.8c.1 2.3 1 4.1 2.7 5.4 1.7 1.3 3.9 2 6.7 2 2.6 0 4.6-.5 6.2-1.6 1.7-1 2.5-2.4 2.5-4.1zm13.8-9.7c0-3.9.8-7.4 2.3-10.5 1.5-3.1 3.6-5.5 6.4-7.2s5.8-2.5 9.3-2.5c5.4 0 9.8 1.9 13.1 5.6 3.3 3.7 5 8.7 5 14.9v.5c0 3.9-.7 7.3-2.2 10.4s-3.6 5.5-6.3 7.2c-2.7 1.7-5.9 2.6-9.5 2.6-5.4 0-9.7-1.9-13.1-5.6-3.3-3.7-5-8.7-5-14.8v-.6zm6.8.9c0 4.4 1 7.9 3.1 10.6 2 2.7 4.8 4 8.2 4 3.4 0 6.2-1.3 8.2-4 2-2.7 3-6.5 3-11.3 0-4.3-1-7.9-3.1-10.6-2.1-2.7-4.8-4-8.2-4-3.3 0-6 1.3-8.1 4-2.1 2.5-3.1 6.3-3.1 11.3zm41.1 19.3v-34.4h-6.3v-5.2h6.3v-4.1c0-4.2 1.1-7.5 3.4-9.9 2.3-2.3 5.5-3.5 9.6-3.5 1.6 0 3.1.2 4.7.6l-.4 5.5c-1.1-.2-2.4-.3-3.7-.3-2.2 0-3.9.6-5.1 1.9-1.2 1.3-1.8 3.1-1.8 5.5v4.2h8.5v5.2h-8.5v34.4H752zm31.9-49.2v9.6h7.4v5.2h-7.4V248c0 1.6.3 2.8 1 3.6.7.8 1.8 1.2 3.4 1.2.8 0 1.9-.1 3.2-.4v5.5c-1.8.5-3.5.7-5.2.7-3 0-5.3-.9-6.8-2.7s-2.3-4.4-2.3-7.8v-24.6H770v-5.2h7.2v-9.6h6.7zM530.1 361.8c-16.1-4.6-27.8-10.3-35.1-17s-11-15.1-11-25c0-11.2 4.5-20.5 13.4-27.8 9-7.3 20.6-11 34.9-11 9.8 0 18.5 1.9 26.1 5.7 7.6 3.8 13.6 9 17.8 15.6s6.3 13.9 6.3 21.8h-18.8c0-8.6-2.7-15.4-8.2-20.3-5.5-4.9-13.2-7.4-23.1-7.4-9.2 0-16.5 2-21.6 6.1s-7.8 9.7-7.8 17c0 5.8 2.5 10.7 7.4 14.7s13.3 7.7 25.1 11 21.1 7 27.7 11c6.7 4 11.6 8.7 14.8 14 3.2 5.3 4.8 11.6 4.8 18.8 0 11.5-4.5 20.8-13.5 27.7s-21 10.4-36 10.4c-9.8 0-18.9-1.9-27.3-5.6-8.5-3.7-15-8.9-19.6-15.4-4.6-6.5-6.9-13.9-6.9-22.2h18.8c0 8.6 3.2 15.4 9.5 20.4s14.8 7.5 25.4 7.5c9.9 0 17.5-2 22.8-6.1 5.3-4 7.9-9.5 7.9-16.5s-2.4-12.4-7.3-16.2-13.7-7.5-26.5-11.2zm185.4-3.2c0 13.7-2.2 25.6-6.5 35.5-4.4 9.9-10.5 17.7-18.4 23.3l25.4 19.9-12.8 11.8-30-23.8c-4.7 1.2-9.6 1.8-14.8 1.8-11.2 0-21.1-2.8-29.8-8.3-8.7-5.5-15.4-13.3-20.2-23.5-4.8-10.2-7.2-22-7.4-35.4v-10.3c0-13.7 2.4-25.7 7.1-36.2 4.8-10.5 11.5-18.5 20.2-24.1s18.6-8.3 29.8-8.3c11.5 0 21.5 2.8 30.2 8.3 8.7 5.5 15.4 13.5 20.1 23.9 4.7 10.4 7 22.5 7 36.4v9zm-18.8-9.1c0-16.7-3.3-29.6-10-38.7-6.7-9.1-16.2-13.6-28.6-13.6-11.8 0-21.1 4.5-27.9 13.5-6.8 9-10.3 21.5-10.5 37.5v10.4c0 16.3 3.4 29.1 10.2 38.5 6.8 9.4 16.3 14.1 28.4 14.1s21.5-4.4 28.1-13.2c6.6-8.8 10.1-21.5 10.3-37.9v-10.6zm66.5 60.3h67.4v15.3h-86.2V282.9h18.8v126.9zm180.2-48c-16.1-4.6-27.8-10.3-35.1-17s-11-15.1-11-25c0-11.2 4.5-20.5 13.4-27.8 9-7.3 20.6-11 34.9-11 9.8 0 18.5 1.9 26.1 5.7 7.6 3.8 13.6 9 17.8 15.6s6.3 13.9 6.3 21.8H977c0-8.6-2.7-15.4-8.2-20.3-5.5-4.9-13.2-7.4-23.1-7.4-9.2 0-16.5 2-21.6 6.1s-7.8 9.7-7.8 17c0 5.8 2.5 10.7 7.4 14.7s13.3 7.7 25.1 11 21.1 7 27.7 11c6.7 4 11.6 8.7 14.8 14 3.2 5.3 4.8 11.6 4.8 18.8 0 11.5-4.5 20.8-13.5 27.7s-21 10.4-36 10.4c-9.8 0-18.9-1.9-27.3-5.6-8.5-3.7-15-8.9-19.6-15.4-4.6-6.5-6.9-13.9-6.9-22.2h18.8c0 8.6 3.2 15.4 9.5 20.4s14.8 7.5 25.4 7.5c9.9 0 17.5-2 22.8-6.1 5.3-4 7.9-9.5 7.9-16.5s-2.4-12.4-7.3-16.2-13.7-7.5-26.5-11.2zm117.8 65.3c-14.3 0-26-4.7-35-14.1-9-9.4-13.5-22-13.5-37.7V372c0-10.5 2-19.8 6-28.1 4-8.2 9.6-14.7 16.8-19.3 7.2-4.7 15-7 23.4-7 13.7 0 24.4 4.5 32 13.6 7.6 9 11.4 22 11.4 38.9v7.5h-71.6c.3 10.4 3.3 18.8 9.1 25.2 5.8 6.4 13.2 9.6 22.2 9.6 6.4 0 11.8-1.3 16.2-3.9 4.4-2.6 8.3-6.1 11.6-10.4l11 8.6c-8.6 13.6-21.9 20.4-39.6 20.4zm-2.3-94.7c-7.3 0-13.4 2.7-18.4 8-4.9 5.3-8 12.7-9.2 22.3h52.9v-1.4c-.5-9.2-3-16.3-7.4-21.3-4.3-5.1-10.3-7.6-17.9-7.6zm115.5 3.3c-2.7-.5-5.7-.7-8.9-.7-11.8 0-19.9 5-24.1 15.1v75h-18.1V319.5h17.6l.3 12.2c5.9-9.4 14.3-14.2 25.2-14.2 3.5 0 6.2.5 8 1.4v16.8zm53.2 64.9 26.2-81.2h18.5l-37.9 105.7h-13.8l-38.3-105.7h18.5l26.8 81.2zm104.6 26.5c-14.3 0-26-4.7-35-14.1-9-9.4-13.5-22-13.5-37.7V372c0-10.5 2-19.8 6-28.1 4-8.2 9.6-14.7 16.8-19.3 7.2-4.7 15-7 23.4-7 13.7 0 24.4 4.5 32 13.6 7.6 9 11.4 22 11.4 38.9v7.5h-71.6c.3 10.4 3.3 18.8 9.1 25.2 5.8 6.4 13.2 9.6 22.2 9.6 6.4 0 11.8-1.3 16.2-3.9 4.4-2.6 8.3-6.1 11.6-10.4l11 8.6c-8.6 13.6-21.9 20.4-39.6 20.4zm-2.3-94.7c-7.3 0-13.4 2.7-18.4 8-4.9 5.3-8 12.7-9.2 22.3h52.9v-1.4c-.5-9.2-3-16.3-7.4-21.3-4.3-5.1-10.3-7.6-17.9-7.6zm115.5 3.3c-2.7-.5-5.7-.7-8.9-.7-11.8 0-19.9 5-24.1 15.1v75h-18.1V319.5h17.6l.3 12.2c5.9-9.4 14.3-14.2 25.2-14.2 3.5 0 6.2.5 8 1.4v16.8z" fill="#fff"/></svg>