<svg xmlns="http://www.w3.org/2000/svg" viewBox="0 0 1920 673" xml:space="preserve"><path fill="#94684E" d="M0 0h1920v673H0z"/><path d="M705.7 380.7h-169v173.2H431.8V119.1h290.9V200H536.6v100.1h169v80.6zm250.3 92H812.3l-25.1 81.2h-112L834.7 119h98.6L1094 553.9H981.4L956 472.7zm-118.6-80.9h93.5L884 240.9l-46.6 150.9zm650.8-46.3c0 40.2-6.7 75.3-20 105.3s-31.8 54-55.3 72.1l70.2 55.6-64.8 55-93.5-75.3c-8.8 1.2-17.5 1.8-26.3 1.8-37 0-69.9-8.6-98.6-25.7-28.7-17.1-51-41.6-67-73.5s-24.3-68.5-24.9-109.9v-23c0-42.8 7.8-80.4 23.4-112.9 15.6-32.5 37.9-57.5 66.9-75.3 29-17.7 62.2-26.6 99.6-26.6 36.8 0 69.7 8.8 98.6 26.3 28.9 17.5 51.3 42.5 67.3 74.8 16 32.4 24.1 69.4 24.3 111.3v20zm-106.6-18.3c0-43.2-7.2-76-21.7-98.4-14.4-22.4-35.1-33.6-62-33.6-27.7 0-48.5 11.1-62.4 33.2-13.9 22.1-21 54.5-21.2 97.1v20c0 42.8 7.1 75.6 21.2 98.4 14.1 22.8 35.1 34.2 63 34.2 26.7 0 47.1-11.2 61.4-33.7 14.2-22.5 21.5-54.9 21.7-97.1v-20.1z" fill="#FFF"/><path fill="#DF7148" d="m1018.1 401.6 149.3 6.6c1.8.1 3.3 1.6 3.3 3.4v55.5c0 1.8-1.3 3.2-3 3.4l-126.9 14.1-22.7-83z"/><path fill="#36434F" d="M1170.7 528.9h-150.3c-5.4 0-10.1-3.1-12.3-8-2.2-4.9-1.3-10.5 2.3-14.5l21.4-23.9c.8-.8 1-2 .7-3.1l-23.2-85.1h-11.7v-13.5h11.7c6.1 0 11.5 4.1 13.1 10l23.2 85.1c1.5 5.5.1 11.5-3.7 15.7l-21.4 23.9h150.3v13.4z"/><circle fill="#36434F" cx="1044.8" cy="541.4" r="12.5"/><circle fill="#36434F" cx="1146.3" cy="541.4" r="12.5"/></svg>