<svg xmlns="http://www.w3.org/2000/svg" viewBox="0 0 1920 673" xml:space="preserve"><style>.st0{fill:#2e86b7}</style><path class="st0" d="M0 0h1920v673H0z"/><path d="M466.8 34.7c-5.5 0-9.8 4.5-9.8 9.8v584c0 5.5 4.5 9.8 9.8 9.8h986.4c5.5 0 9.8-4.5 9.8-9.8v-584c0-5.5-4.5-9.8-9.8-9.8H466.8z" fill="#36434f"/><path d="M1419.2 582.1c0 5.5-4.5 9.8-9.8 9.8H510.8c-5.5 0-9.8-4.5-9.8-9.8V85.8c0-5.5 4.5-9.8 9.8-9.8h898.6c5.5 0 9.8 4.5 9.8 9.8v496.3z" fill="#579ec5"/><path d="M1255.3 75.9 630.5 591.7h345l368.6-515.8h-88.8z" fill="#4292be"/><path class="st0" d="M513.8 75.9c-6.9 0-13 5.7-13 13V579c0 6.9 5.7 13 13 13h116.7l624.8-515.8c0-.1-741.5-.3-741.5-.3z"/><circle cx="960" cy="336.5" r="144.1" fill="#ce5652"/><path d="M938.6 271.8c-5.2-4.1-9.5-2-9.5 4.6v120.1c0 6.6 4.3 8.7 9.5 4.6l73.7-57.3c5.2-4.1 5.2-10.7 0-14.7l-73.7-57.3z" fill="#fff"/></svg>