<svg xmlns="http://www.w3.org/2000/svg" viewBox="0 0 1920 673" xml:space="preserve"><path fill="#ed5e42" d="M0 0h1920v673H0z"/><path d="M552.6 325.7c0 14.7-2.4 27.5-7.3 38.4-4.9 10.9-11.6 19.7-20.2 26.3l25.6 20.3-23.6 20.1-34.1-27.6c-3.2.4-6.4.7-9.6.7-13.5 0-25.5-3.1-36-9.4-10.5-6.2-18.6-15.2-24.5-26.8-5.8-11.6-8.9-25-9.1-40.1v-8.4c0-15.6 2.9-29.4 8.6-41.2 5.7-11.8 13.8-21 24.4-27.5 10.6-6.5 22.7-9.7 36.3-9.7 13.4 0 25.4 3.2 36 9.6 10.5 6.4 18.7 15.5 24.6 27.3 5.8 11.8 8.8 25.3 8.9 40.6v7.4zm-38.9-6.7c0-15.8-2.6-27.7-7.9-35.9-5.3-8.2-12.8-12.3-22.6-12.3-10.1 0-17.7 4-22.8 12.1-5.1 8.1-7.7 19.9-7.7 35.4v7.3c0 15.6 2.6 27.6 7.7 35.9 5.2 8.3 12.8 12.5 23 12.5 9.7 0 17.2-4.1 22.4-12.3 5.2-8.2 7.8-20 7.9-35.4V319zm99.5-64.5v29.3h19.4v25.5h-19.4v53.9c0 4.4.8 7.5 2.4 9.3 1.6 1.7 4.8 2.6 9.5 2.6 3.6 0 6.7-.2 9.2-.7v26.3c-6.6 2.1-13.5 3.2-20.7 3.2-12.6 0-22-3-28-8.9-6-6-9-15-9-27.1v-58.5h-15v-25.5h15v-29.3h36.6zm214 88 18.2-99.5h37.9l-33.7 158.7H810l-21.3-90.5-20.8 90.5h-39.6L694.5 243h38l18.2 99.5 21.8-99.5H805l22.2 99.5zm69.1-89.1c0-5.2 1.9-9.5 5.7-12.9 3.8-3.3 8.7-5 14.7-5s10.9 1.7 14.7 5c3.8 3.3 5.7 7.6 5.7 12.9 0 5.2-1.9 9.5-5.7 12.9-3.8 3.3-8.7 5-14.7 5s-10.9-1.7-14.7-5c-3.8-3.4-5.7-7.7-5.7-12.9zm39 148.3h-36.8V283.8h36.8v117.9zm18-59.8c0-18.7 4-33.4 12.1-44.1 8.1-10.8 19.3-16.1 33.8-16.1 10.5 0 19.4 4.1 26.6 12.4v-59.7h36.8v167.4h-33l-1.9-12.6c-7.6 9.9-17.1 14.8-28.8 14.8-14 0-25.1-5.4-33.3-16.1-8.2-10.9-12.3-26.2-12.3-46zm36.7 2.3c0 20.9 6.1 31.4 18.3 31.4 8.1 0 13.9-3.4 17.4-10.2v-44.9c-3.3-7-9.1-10.5-17.2-10.5-11.3 0-17.5 9.2-18.4 27.5l-.1 6.7zm89.2-2.3c0-11.9 2-22.4 5.9-31.6 3.9-9.2 9.6-16.2 16.9-21.2 7.3-5 15.9-7.5 25.6-7.5 12.3 0 21.9 4.1 28.8 12.4l1.3-10.2h33.3v113.4c0 10.4-2.4 19.4-7.2 27.1-4.8 7.7-11.8 13.5-21 17.7-9.2 4.1-19.8 6.2-31.8 6.2-8.6 0-17-1.6-25.1-4.9-8.1-3.3-14.3-7.5-18.6-12.8l15.4-21.6c6.8 8.1 15.8 12.1 27 12.1 16.3 0 24.4-8.4 24.4-25.1v-3.7c-7 7.8-15.9 11.7-26.7 11.7-14.4 0-26-5.5-34.9-16.5-8.9-11-13.3-25.7-13.3-44.2v-1.3zm36.8 2.3c0 9.7 1.8 17.3 5.4 22.9 3.6 5.6 8.7 8.4 15.3 8.4 7.9 0 13.7-2.7 17.3-8V318c-3.6-5.4-9.3-8.1-17.1-8.1-6.5 0-11.7 2.9-15.4 8.8-3.6 5.9-5.5 14.4-5.5 25.5zm152.9 59.7c-18.1 0-32.7-5.4-43.9-16.2-11.2-10.8-16.8-24.8-16.8-42.1v-3.1c0-12.1 2.2-22.7 6.7-31.9s11-16.4 19.6-21.4c8.6-5 18.7-7.6 30.5-7.6 16.6 0 29.6 5.1 39.2 15.4 9.6 10.3 14.4 24.6 14.4 43v14.3h-73c1.3 6.6 4.2 11.8 8.6 15.6 4.4 3.8 10.2 5.7 17.2 5.7 11.6 0 20.7-4.1 27.2-12.2l16.8 19.8c-4.6 6.3-11.1 11.4-19.5 15.1-8.3 3.7-17.3 5.6-27 5.6zm-4.1-93.9c-10.8 0-17.1 7.1-19.2 21.4h37.1v-2.8c.1-5.9-1.3-10.4-4.5-13.7-3.2-3.3-7.6-4.9-13.4-4.9zm111.3-55.5v29.3h19.4v25.5h-19.4v53.9c0 4.4.8 7.5 2.4 9.3 1.6 1.7 4.8 2.6 9.5 2.6 3.6 0 6.7-.2 9.2-.7v26.3c-6.6 2.1-13.5 3.2-20.7 3.2-12.6 0-22-3-28-8.9-6-6-9-15-9-27.1v-58.5h-15v-25.5h15v-29.3h36.6zm95.6 114.1c0-3.1-1.6-5.6-4.9-7.5-3.3-1.9-9.5-3.8-18.6-5.9-9.2-2-16.7-4.7-22.7-8s-10.5-7.3-13.6-12c-3.1-4.7-4.7-10.1-4.7-16.2 0-10.8 4.5-19.7 13.4-26.8 8.9-7 20.6-10.5 35.1-10.5 15.5 0 28 3.5 37.5 10.6 9.4 7 14.2 16.3 14.2 27.8h-36.8c0-9.4-5-14.2-14.9-14.2-3.9 0-7.1 1.1-9.7 3.2-2.6 2.1-3.9 4.8-3.9 8 0 3.3 1.6 5.9 4.8 8 3.2 2 8.3 3.7 15.3 5 7 1.3 13.2 2.9 18.5 4.7 17.7 6.1 26.6 17 26.6 32.8 0 10.8-4.8 19.5-14.3 26.3-9.6 6.8-21.9 10.1-37.1 10.1-10.1 0-19.1-1.8-27-5.4-7.9-3.6-14.1-8.6-18.5-14.8-4.4-6.2-6.6-12.8-6.6-19.7h34.3c.1 5.4 2 9.4 5.4 11.9 3.5 2.5 8 3.8 13.4 3.8 5 0 8.8-1 11.3-3.1 2.2-2.2 3.5-4.8 3.5-8.1z" fill="#fff"/></svg>