<svg xmlns="http://www.w3.org/2000/svg" viewBox="0 0 1920 673" xml:space="preserve"><style>.st1{fill:#fff}</style><path fill="#97bb3d" d="M0 0h1920v673H0z"/><path class="st1" d="M477.2 213.1h-18.6V460h18.6v38.7h-72V174.3h72v38.8zm86.2 106.7 24.8-47h55.3l-45 83.2 47.2 87.6h-55.6l-26.8-50.5-26.4 50.5H481l47.4-87.6-44.8-83.2h55.9l23.9 47zm166.4 0 24.8-47h55.3l-45 83.2 47.2 87.6h-55.6l-26.8-50.5-26.4 50.5h-55.9l47.4-87.6-44.8-83.2h55.9l23.9 47zm84.5-145.5h72v324.4h-72V460h18.8V213.1h-18.8v-38.8zm177.9 38.8h-18.6V460h18.6v38.7h-72V174.3h72v38.8z"/><path class="st1" d="M1027.4 463.3h-37.7l78.5-249.6h37.9l-78.7 249.6zm164.5-143.5 24.8-47h55.3l-45 83.2 47.2 87.6h-55.6l-26.8-50.5-26.4 50.5h-55.9l47.4-87.6-44.8-83.2h55.9l23.9 47zm166.4 0 24.8-47h55.3l-45 83.2 47.2 87.6H1385l-26.8-50.5-26.4 50.5h-55.9l47.4-87.6-44.8-83.2h55.9l23.9 47zm84.5-145.5h72v324.4h-72V460h18.8V213.1h-18.8v-38.8z"/></svg>