<svg xmlns="http://www.w3.org/2000/svg" viewBox="0 0 1920 673" xml:space="preserve"><style>.st2{fill:#36434f}</style><path fill="#5aba53" d="M0 0h1920v673H0z"/><path d="M1430.1 411.1c-10.5 0-17.1-3-19.6-8.5-2.5-6-4-17.6-4-34.7V274h58.8v-39.7h-58.8v-61.8h-46.2v61.8h-32.6V274h32.6v98.9c0 30.6 4.5 51.7 13.6 62.8 9 11 25.6 16.6 49.7 16.6 10 0 24.1-2 43.7-5.5l-2-37.2-35.2 1.5zm-246.6-255.2c-43.7 0-74.8 12.6-92.4 37.7-17.6 25.1-26.6 63.3-26.6 115 0 51.2 8.5 88.9 26.1 113 17.1 23.6 48.2 35.7 92.4 35.7 12.1 0 20.6-1 26.1-2.5l37.7 62.3 43.7-20.6-35.2-57.3c16.6-11 28.6-27.1 35.7-48.2 7.5-21.1 11-48.7 11-82.9 0-51.7-9-90.4-26.6-115s-48.2-37.2-91.9-37.2zm54.8 236.1c-9.5 16.6-28.1 24.6-55.2 24.6s-45.7-8.5-55.2-25.1-14.6-44.2-14.6-82.9 5-66.8 15.1-84.4c9.5-17.6 28.1-26.6 54.7-26.6s44.7 9 54.7 26.1c9.5 17.6 14.6 46.2 14.6 84.9-.1 39.2-5.1 66.8-14.1 83.4z" fill="#fff"/><path class="st2" d="M684.8 596.3h52.6V673h-52.6z"/><path d="M721.9 602.3c0 1.3-1.1 2.4-2.4 2.4h-16.7c-1.3 0-2.4-1.1-2.4-2.4v-1.2c0-1.3 1.1-2.4 2.4-2.4h16.7c1.3 0 2.4 1.1 2.4 2.4v1.2z" fill="#b24b53"/><path d="M677.7 584.4c0-1.3 1.1-2.4 2.4-2.4h62.1c1.3 0 2.4 1.1 2.4 2.4v10.8c0 1.3-1.1 2.4-2.4 2.4h-62.1c-1.3 0-2.4-1.1-2.4-2.4v-10.8z" fill="#2b353f"/><path class="st2" d="M411.2 215.8c-3.3 0-6 2.7-6 6v355.1c0 3.3 2.7 6 6 6H1011c3.3 0 6-2.7 6-6V221.7c0-3.3-2.7-6-6-6H411.2z"/><path d="M990.3 548.6c0 3.3-2.7 6-6 6H437.9c-3.3 0-6-2.7-6-6V246.8c0-3.3 2.7-6 6-6h546.4c3.3 0 6 2.7 6 6v301.8z" fill="#667e8e"/><path fill="#647b8b" d="M890.7 240.9 510.8 554.6h209.8l224.1-313.7z"/><path d="M439.8 240.9c-4.2 0-7.9 3.5-7.9 7.8v298c0 4.2 3.5 7.8 7.9 7.8h71l379.9-313.6H439.8z" fill="#607786"/><path class="st2" d="M489.6 294.4h443.1v37.4H489.6zm0 84.6h443.1v37.4H489.6zm0 84.7h443.1v37.4H489.6z"/></svg>