<svg xmlns="http://www.w3.org/2000/svg" viewBox="0 0 1920 673" xml:space="preserve"><style>.st3{fill:#ff8327}.st4{fill:#f8f8f8}</style><path fill="#9ac33c" d="M0 0h1920v673H0z"/><path d="M383.1 634.1c4.9 13.5 11.3 26.6 19 38.9h561.6c7.7-12.3 14.1-25.3 19-38.9-43.3 19.3-92.1 19.3-135.4 0 16.8-8.6 32.7-20.6 46.5-36.1 16.1-17.9 28.1-38.3 36.3-60.3-38.1 17-80.7 17.5-119.3 1.6 15.9-7.9 30.8-19 44-33.6 14.5-16.1 25.4-34.5 32.7-54.2-32.9 14.7-69.6 15.6-103.2 3.2 15-7 29-17.2 41-30.6 12.9-14.3 22.5-30.6 29-48.3-29 12.9-61.5 13.8-90.9 2.9 12.7-6.1 24.7-15 34.9-26.3 11.3-12.5 19.7-26.8 25.4-42.2-25.2 11.1-53.1 12-78.7 2.9 10.7-5.2 20.4-12.7 29.3-22.2 9.8-10.7 16.8-22.9 21.5-36.1-21.1 9.3-44.2 10.4-65.8 2.9 8.6-4.3 16.6-10.4 23.6-18.1 7.9-8.8 14.1-19 17.9-29.9-16.8 7.5-35.4 8.6-52.8 3.2 6.6-3.4 12.7-8.2 17.9-14.1 6.3-7 11.1-15.2 14.3-23.8-12.5 5.7-26.3 6.6-39.2 3.2 4.5-2.5 8.8-5.9 12.7-10 4.8-5.2 8.4-11.3 10.7-17.9h-.2c-12.5 5.4-27.2 1.1-35.2-9.8-.9-1.4-2-2.7-2.9-4.3-9.3-14.3-13.8-34.9-13.8-34.9s-4.5 20.4-13.8 34.9c-.9 1.6-2 2.9-2.9 4.3-7.9 10.9-22.7 15.2-35.2 9.8h-.2c2.3 6.6 5.9 12.5 10.7 17.9 3.9 4.1 8.2 7.5 12.7 10-12.9 3.4-26.8 2.3-39.2-3.2 3.2 8.6 7.9 16.8 14.3 23.8 5.4 5.9 11.6 10.7 17.9 14.1-17.2 5.4-35.8 4.3-52.8-3.2 4.1 10.9 10 21.1 17.9 29.9 7 7.7 15 13.8 23.6 18.1-21.5 7.3-44.9 6.3-65.8-2.9 4.8 13.2 12 25.4 21.5 36.1 8.6 9.5 18.6 17 29.3 22.2-25.6 9.1-53.5 8.2-78.7-2.9 5.7 15.4 14.1 29.7 25.4 42.2 10.4 11.6 22.2 20.2 34.9 26.3-29.5 10.9-61.9 10-90.9-2.9 6.3 17.5 16.1 34 29 48.3 12.2 13.4 26.1 23.6 41 30.6-33.6 12.7-70.3 11.6-103.2-3.2 7.3 19.7 18.1 38.3 32.7 54.2 13.2 14.5 28.1 25.6 44 33.6-38.3 15.9-81.2 15.2-119.3-1.6 7.9 22 20.2 42.6 36.3 60.3 13.8 15.4 29.7 27.4 46.5 36.1-43.6 19.3-92.3 19.3-135.6 0z" fill="#278972"/><path d="M717.1 77.2h-24.3L683 52.9l-9.8 24.3h-24.3l19.5 19.5-9.8 24.3 24.3-14.5 24.3 14.5-9.8-24.3 19.7-19.5z" fill="#cc584c"/><circle class="st3" cx="630.9" cy="501.9" r="24.9"/><circle class="st3" cx="699" cy="261.5" r="18.1"/><circle class="st3" cx="755.6" cy="418" r="18.1"/><circle class="st4" cx="735.2" cy="352.2" r="15.9"/><circle class="st4" cx="707.6" cy="377.4" r="14.5"/><circle class="st4" cx="680.1" cy="397.8" r="13.2"/><circle class="st4" cx="650.6" cy="414.6" r="11.8"/><circle class="st4" cx="619.4" cy="421.9" r="10.4"/><circle class="st4" cx="590.1" cy="427.1" r="9.1"/><circle class="st4" cx="658.1" cy="567.7" r="15.9"/><circle class="st4" cx="685.8" cy="592.9" r="14.5"/><circle class="st4" cx="713.2" cy="613.3" r="13.2"/><circle class="st4" cx="742.7" cy="630" r="11.8"/><circle class="st4" cx="774" cy="637.3" r="10.4"/><circle class="st4" cx="803.3" cy="642.5" r="9.1"/><circle class="st3" cx="630.9" cy="345.4" r="18.1"/><path d="M383.3 634.4c4.9 13.5 11.2 26.4 18.9 38.6h280.7V52.9l-9.5 24.3h-24.3l19.5 19.5-9.8 24.3 22.9-13.8c-2 7-6.1 19.7-12.5 29.5-.9 1.6-2 2.9-2.9 4.3-7.9 10.9-22.7 15.2-35.2 9.8h-.2c2.3 6.6 5.9 12.5 10.7 17.9 3.9 4.1 8.2 7.5 12.7 10-12.9 3.4-26.8 2.3-39.2-3.2 3.2 8.6 7.9 16.8 14.3 23.8 5.4 5.9 11.6 10.7 17.9 14.1-17.2 5.4-35.8 4.3-52.8-3.2 4.1 10.9 10 21.1 17.9 29.9 7 7.7 15 13.8 23.6 18.1-21.5 7.3-44.9 6.3-65.8-2.9 4.8 13.2 12 25.4 21.5 36.1 8.6 9.5 18.6 17 29.3 22.2-25.6 9.1-53.5 8.2-78.7-2.9 5.7 15.4 14.1 29.7 25.4 42.2 10.4 11.6 22.2 20.2 34.9 26.3-29.5 10.9-61.9 10-90.9-2.9 6.3 17.5 16.1 34 29 48.3 12.2 13.4 26.1 23.6 41 30.6-33.6 12.7-70.3 11.6-103.2-3.2 7.3 19.7 18.1 38.3 32.7 54.2 13.2 14.5 28.1 25.6 44 33.6-38.3 15.9-81.2 15.2-119.3-1.6 7.9 22 20.2 42.6 36.3 60.3 13.8 15.4 29.7 27.4 46.5 36.1-43.4 19-92.1 19-135.4-.2z" opacity=".15" fill="#444"/><path d="M1460.4 673h-446c-8.2 0-14.9-6.7-14.9-14.9v-296h475.8v296c0 8.2-6.7 14.9-14.9 14.9z" fill="#445a76"/><path d="M1475.3 391.9H999.5v-31.6c0-8.2 6.7-14.9 14.9-14.9h446c8.2 0 14.9 6.7 14.9 14.9v31.6zm-446.1 30.2h89.2v16.7h-89.2v-16.7zm104.1 0h89.2v16.7h-89.2v-16.7zm-74.3 33.5h74.3v16.7H1059v-16.7zm89.2 0h193.3v16.7h-193.3v-16.7zm208.1 0h14.9v16.7h-14.9v-16.7zM1088.7 489h59.5v16.7h-59.5V489zm74.3 0h59.5v16.7H1163V489zm-74.3 33.5h118.9v16.7h-118.9v-16.7zm133.8 0h118.9v16.7h-118.9v-16.7zm-133.8 33.4h44.6v16.7h-44.6v-16.7zm59.5 0h297.4v16.7h-297.4v-16.7zm-29.8 33.5h74.3v16.7h-74.3v-16.7zm0 33.4h74.3v16.7h-74.3v-16.7zm89.2 0h14.9v16.7h-14.9v-16.7zm29.8 0h59.5v16.7h-59.5v-16.7zm-148.7 33.5h44.6V673h-44.6v-16.7z" fill="#909295"/></svg>