<svg xmlns="http://www.w3.org/2000/svg" viewBox="0 0 1920 673" xml:space="preserve"><style>.st1{fill:#2c2255}</style><path fill="#f5dc65" d="M0 0h1920v673H0z"/><path class="st1" d="M585.1 185.4h-30.6c4.1 13.9 11.6 26.4 22.6 37.4 17.6 17.6 38.7 26.3 63.4 26.3 4.9 0 9.7-.4 14.4-1.1 18.6-2.8 34.9-11.2 48.9-25.3 11.1-11 18.7-23.5 22.8-37.4H585.1zm-16.9-41.7h-16c-.6 3.5-1 7.1-1.2 10.8h178.8c-.2-3.7-.6-7.3-1.2-10.8M551 164.6c.2 3.7.6 7.3 1.2 10.8h176.5c.6-3.5 1-7.1 1.2-10.8m-3.4-30.9c-4.1-14-11.7-26.5-22.8-37.6C689.8 82.2 673.5 73.8 655 71c-4.7-.7-9.5-1.1-14.5-1.1-24.7 0-45.8 8.7-63.4 26.2-11 11.1-18.6 23.6-22.6 37.6"/><path d="M545.7 159.5c0-47.3 35.5-86.5 81.7-93.4-1.1 0-2.3-.1-3.5-.1-51.8 0-93.8 41.9-93.8 93.5s42 93.5 93.8 93.5c1.2 0 2.3 0 3.5-.1-46.2-6.8-81.7-46.1-81.7-93.4zm496-100.9h18.7v23.6h-18.7z" fill="#f7941e"/><path class="st1" d="M885.9 155.8v9.1h-85.8c.8 12.9 4.7 22.6 11.6 29.4 6.9 6.7 16.6 10.1 29 10.1 7.2 0 14.1-.9 20.8-2.6 6.7-1.8 13.4-4.4 20-7.9v17.6c-6.7 2.8-13.6 5-20.6 6.5-7 1.5-14.2 2.2-21.4 2.2-18.1 0-32.5-5.3-43-15.8-10.6-10.5-15.9-24.8-15.9-42.8 0-18.6 5-33.4 15.1-44.3s23.6-16.4 40.6-16.4c15.3 0 27.4 4.9 36.3 14.8 8.9 9.9 13.3 23.2 13.3 40.1m-18.6-5.4c-.1-10.2-3-18.4-8.6-24.4-5.6-6.1-13-9.1-22.2-9.1-10.4 0-18.7 2.9-25 8.8-6.3 5.9-9.9 14.2-10.8 24.8l66.6-.1zm115.4-42.3v17.4c-5.3-2.9-10.6-5.1-15.9-6.5-5.3-1.5-10.7-2.2-16.1-2.2-12.1 0-21.5 3.8-28.2 11.5-6.7 7.7-10 18.4-10 32.3 0 13.9 3.3 24.6 10 32.3 6.7 7.7 16.1 11.5 28.2 11.5 5.4 0 10.8-.7 16.1-2.2 5.3-1.5 10.6-3.6 15.9-6.5v17.2c-5.2 2.4-10.6 4.3-16.2 5.5-5.6 1.2-11.5 1.8-17.8 1.8-17.1 0-30.7-5.4-40.8-16.1-10.1-10.7-15.1-25.2-15.1-43.5 0-18.5 5.1-33.1 15.3-43.7 10.2-10.6 24.1-15.9 41.8-15.9 5.7 0 11.4.6 16.8 1.8 5.6 1.1 10.9 2.9 16 5.3m16.9-48.6h18.7v157.8h-18.7zm42.1 44.2h18.7v113.6h-18.7V103.7zm60.2 96.6v60.2h-18.8V103.7h18.8v17.2c3.9-6.8 8.9-11.8 14.9-15.1 6-3.3 13.1-4.9 21.4-4.9 13.8 0 25 5.5 33.6 16.4 8.6 11 12.9 25.4 12.9 43.2 0 17.9-4.3 32.3-12.9 43.2-8.6 11-19.8 16.4-33.6 16.4-8.3 0-15.5-1.6-21.4-4.9-6-3.2-11-8.2-14.9-14.9m63.5-39.7c0-13.7-2.8-24.5-8.5-32.3s-13.4-11.7-23.3-11.7-17.6 3.9-23.3 11.7c-5.6 7.8-8.5 18.6-8.5 32.3 0 13.7 2.8 24.5 8.5 32.3 5.6 7.8 13.4 11.7 23.3 11.7s17.6-3.9 23.3-11.7c5.7-7.8 8.5-18.6 8.5-32.3m107.1-53.5v17.6c-5.3-2.7-10.8-4.7-16.4-6.1-5.7-1.4-11.6-2-17.6-2-9.3 0-16.2 1.4-20.8 4.3-4.6 2.8-6.9 7.1-6.9 12.8 0 4.3 1.7 7.7 5 10.2 3.3 2.5 10 4.8 20 7l6.4 1.4c13.3 2.8 22.7 6.8 28.2 12 5.6 5.2 8.4 12.4 8.4 21.6 0 10.5-4.2 18.9-12.5 25.1-8.3 6.1-19.8 9.2-34.4 9.2-6.1 0-12.4-.6-19-1.8-6.6-1.2-13.5-3-20.8-5.3v-19.3c6.9 3.6 13.7 6.3 20.4 8.1 6.7 1.8 13.3 2.7 19.9 2.7 8.8 0 15.5-1.5 20.3-4.5 4.7-3 7.1-7.3 7.1-12.7 0-5.1-1.7-9-5.1-11.7-3.4-2.7-10.9-5.3-22.5-7.8l-6.5-1.5c-11.6-2.4-19.9-6.2-25-11.2-5.1-5-7.7-11.9-7.7-20.7 0-10.7 3.8-18.9 11.4-24.7 7.6-5.8 18.3-8.7 32.2-8.7 6.9 0 13.4.5 19.5 1.5 5.7.9 11.3 2.4 16.4 4.5m117.4 48.7v9.1h-85.8c.8 12.9 4.7 22.6 11.6 29.4 6.9 6.7 16.6 10.1 28.9 10.1 7.2 0 14.1-.9 20.8-2.6 6.7-1.8 13.4-4.4 20-7.9v17.6c-6.7 2.8-13.6 5-20.6 6.5-7 1.5-14.2 2.2-21.4 2.2-18.1 0-32.5-5.3-43-15.8-10.6-10.5-15.9-24.8-15.9-42.8 0-18.6 5-33.4 15.1-44.3 10-10.9 23.6-16.4 40.6-16.4 15.3 0 27.4 4.9 36.3 14.8 9 9.9 13.4 23.2 13.4 40.1m-18.6-5.4c-.1-10.2-3-18.4-8.6-24.4-5.6-6.1-13-9.1-22.2-9.1-10.4 0-18.7 2.9-25 8.8-6.3 5.9-9.9 14.2-10.8 24.8l66.6-.1z"/><linearGradient id="a" gradientUnits="userSpaceOnUse" x1="640.464" y1="548.285" x2="640.464" y2="413.537" gradientTransform="translate(0 -287)"><stop offset=".303" stop-color="#473788"/><stop offset=".872" stop-color="#2c2255"/></linearGradient><path d="M701.3 154.5c-.3-3.7-.9-7.3-1.9-10.8h-118c-.9 3.5-1.6 7.1-1.9 10.8h121.8z" fill="url(#a)"/><linearGradient id="b" gradientUnits="userSpaceOnUse" x1="640.465" y1="548.287" x2="640.465" y2="413.539" gradientTransform="translate(0 -287)"><stop offset=".303" stop-color="#473788"/><stop offset=".872" stop-color="#2c2255"/></linearGradient><path d="M701.3 164.6H579.6c.3 3.7.9 7.3 1.9 10.8h118.1c.8-3.5 1.4-7.1 1.7-10.8z" fill="url(#b)"/><linearGradient id="c" gradientUnits="userSpaceOnUse" x1="640.465" y1="548.284" x2="640.465" y2="413.542" gradientTransform="translate(0 -287)"><stop offset=".303" stop-color="#473788"/><stop offset=".863" stop-color="#2c2255"/></linearGradient><path d="M640.5 220.6c24.5 0 45.6-14.4 55.4-35.3H585.1c9.7 20.9 30.8 35.3 55.4 35.3z" fill="url(#c)"/><path d="M570.6 164.6h159.2c.1-1.6.1-3.2.1-4.8 0-1.7-.1-3.5-.2-5.2H551c-.1 1.7-.2 3.5-.2 5.2 0 1.6 0 3.2.1 4.8h19.7zm14.1-30.9h-30.3c-1 3.3-1.6 6.6-2.3 10h176.1c-.6-3.4-1.4-6.8-2.4-10m-9.1 41.6H552.2c.6 3.4 1.3 6.8 2.3 10h171.9c1-3.3 1.8-6.6 2.4-10h-12.1z" fill="#fff"/><path fill="#36434f" d="M682.3 360.5h555.3V673H682.3z"/><path d="M1237.7 360.5H682.3v-36.9c0-9.5 7.8-17.4 17.4-17.4h520.6c9.5 0 17.4 7.8 17.4 17.4v36.9zm-520.6 35.3h104.1v19.5H717.1v-19.5zm121.4 0h104.1v19.5H838.5v-19.5zm-86.7 39h86.8v19.5h-86.8v-19.5zm104.1 0h225.6v19.5H855.9v-19.5zm242.9 0h17.4v19.5h-17.4v-19.5zm-312.3 39.1h69.4v19.5h-69.4v-19.5zm86.7 0h69.4v19.5h-69.4v-19.5zm-86.7 39h138.8v19.5H786.5v-19.5zm156.1 0h138.8v19.5H942.6v-19.5zM786.5 552h52.1v19.5h-52.1V552zm69.4 0H1203v19.5H855.9V552zm-34.7 39H908v19.5h-86.8V591zm0 39.1H908v19.5h-86.8v-19.5zm104.1 0h17.4v19.5h-17.4v-19.5zm34.7 0h69.4v19.5H960v-19.5z" fill="#999"/></svg>