<svg xmlns="http://www.w3.org/2000/svg" viewBox="0 0 1920 673" xml:space="preserve"><style>.st2{fill:#36434f}</style><path fill="#6e9e40" d="M0 0h1920v673H0z"/><path d="M1428.1 411.1c-10.5 0-17.1-3-19.6-8.5-2.5-6-4-17.6-4-34.7V274h58.8v-39.7h-58.8v-61.8h-46.2v61.8h-32.6V274h32.6v98.9c0 30.6 4.5 51.7 13.6 62.8 9 11 25.6 16.6 49.7 16.6 10 0 24.1-2 43.7-5.5l-2-37.2-35.2 1.5zm-246.6-255.2c-43.7 0-74.8 12.6-92.4 37.7-17.6 25.1-26.6 63.3-26.6 115 0 51.2 8.5 88.9 26.1 113 17.1 23.6 48.2 35.7 92.4 35.7 12.1 0 20.6-1 26.1-2.5l37.7 62.3 43.7-20.6-35.2-57.3c16.6-11 28.6-27.1 35.7-48.2 7.5-21.1 11-48.7 11-82.9 0-51.7-9-90.4-26.6-115s-48.2-37.2-91.9-37.2zm54.7 236.1c-9.5 16.6-28.1 24.6-55.2 24.6s-45.7-8.5-55.2-25.1-14.6-44.2-14.6-82.9 5-66.8 15.1-84.4c9.5-17.6 28.1-26.6 54.7-26.6s44.7 9 54.7 26.1c9.5 17.6 14.6 46.2 14.6 84.9 0 39.2-5 66.8-14.1 83.4z" fill="#fff"/><path class="st2" d="M684.8 596.3h52.6V673h-52.6v-76.7z"/><path d="M722 602.3c0 1.3-1.1 2.4-2.4 2.4h-16.7c-1.3 0-2.4-1.1-2.4-2.4v-1.2c0-1.3 1.1-2.4 2.4-2.4h16.7c1.3 0 2.4 1.1 2.4 2.4v1.2z" fill="#b24b53"/><path d="M677.8 584.4c0-1.3 1.1-2.4 2.4-2.4h62.1c1.3 0 2.4 1.1 2.4 2.4v10.8c0 1.3-1.1 2.4-2.4 2.4h-62.1c-1.3 0-2.4-1.1-2.4-2.4v-10.8z" fill="#2b353f"/><path class="st2" d="M411.3 215.8c-3.3 0-6 2.7-6 6v355.1c0 3.3 2.7 6 6 6H1011c3.3 0 6-2.7 6-6V221.7c0-3.3-2.7-6-6-6H411.3v.1z"/><path d="M990.3 548.6c0 3.3-2.7 6-6 6H437.9c-3.3 0-6-2.7-6-6V246.8c0-3.3 2.7-6 6-6h546.4c3.3 0 6 2.7 6 6v301.8z" fill="#f8f8f8"/><path d="M646.6 438.4v22.8h129.2v-22.8H646.6zm0 52.1v22.8h129.2v-22.8H646.6zm-50.5-104.2H466.9v22.8h129.2v-22.8zm0 104.2H466.9v22.8h129.2v-22.8zm179.6-81.4v-22.8H646.6v22.8h129.1zm-179.6 29.3H466.9v22.8h129.2v-22.8zm230.1 22.8h129.2v-22.8H826.2v22.8zm0-74.9v22.8h129.2v-22.8H826.2zm0 127h129.2v-22.8H826.2v22.8z" fill="#ddd"/><path fill="#df7148" d="M466.9 282.1h219V357h-219z"/><path fill="#2e86b7" d="M736.4 282.1h219V357h-219z"/></svg>