<svg xmlns="http://www.w3.org/2000/svg" viewBox="0 0 1920 673" xml:space="preserve"><path fill="#6082bb" d="M0 0h1920v673H0z"/><path d="M834.2 341.3c-3.1 24.9-9.6 47-19.6 66.4-10 19.3-22.3 33.7-37.1 43.1-14.8 9.4-31.2 13.8-49.2 13.4-23-.6-41.2-9.2-54.5-25.7L652 551h-62l57-329.2 57.1-.2-4.2 24c17.1-19.3 37.4-28.7 60.6-28.1 23.3.6 41.4 9 54.3 25.4 12.9 16.3 19.8 38.5 20.7 66.5.3 8.9-.2 19.6-1.3 31.9zm-61.6-4.5 1.3-21.1c.3-14.2-2.3-25.5-7.8-33.9s-13.5-12.7-24.1-13c-18-.6-32.9 7-44.6 22.9l-17.8 98.1c5.4 14.8 17.1 22.5 34.9 23.1 14.9.4 27.4-5.4 37.4-17.4 10-12 16.9-31.5 20.7-58.7zm175.6-88.6c18.6-20.8 40.1-31.1 64.4-30.8 23.6.6 40.9 9 52 25.4 11.1 16.3 15.2 38.6 12.4 66.9l-25 149.9h-62l25.3-150.7c.7-5.7.9-11 .4-15.8-1.5-15.8-10.7-24-27.7-24.4-16.7-.6-31.3 6.6-43.9 21.6l-29.9 169.4h-62L910.6 122h62.2l-24.6 126.2zm380.3 93.1c-3.1 24.9-9.6 47-19.6 66.4-10 19.3-22.3 33.7-37.1 43.1-14.8 9.4-31.2 13.8-49.2 13.4-23-.6-41.2-9.2-54.5-25.7L1146.4 551h-62l56.9-329.2 57.1-.2-4.2 24c17.1-19.3 37.4-28.7 60.6-28.1 23.3.6 41.4 9 54.3 25.4 12.9 16.3 19.8 38.5 20.7 66.5.4 8.9-.1 19.6-1.3 31.9zm-61.5-4.5 1.3-21.1c.3-14.2-2.3-25.5-7.8-33.9-5.5-8.4-13.5-12.7-24.1-13-18-.6-32.9 7-44.6 22.9l-17.8 98.1c5.4 14.8 17.1 22.5 34.9 23.1 14.9.4 27.4-5.4 37.4-17.4 10-12 16.9-31.5 20.7-58.7z" fill="#fff"/></svg>