<svg xmlns="http://www.w3.org/2000/svg" viewBox="0 0 1920 673" xml:space="preserve"><style>.st1{fill:#444445}.st2{fill:#b0b4ba}.st3{fill:#7d8082}.st4{fill:#636464}</style><path fill="#ffe100" d="M0 0h1920v673H0z"/><path class="st1" d="M421.1 282.8c-2.9 8.8-6.9 38.2-6.9 71.9s3.1 167.3 3.4 169.1.5 5.2 3.4 8.1c2.9 2.9 11.7 4.6 18.9 5.2s451.7.5 464.2.5 26.6-5.5 34.2-12c7.6-6.5 12.6-18 12.6-24.6V299.5c0-10-20.1-39.6-34.8-52-14.9-12.3-41.3-17.2-55.4-32.5-14.1-15.5-31.1-67.1-44-73.1s-46.8-9.8-66.2-9.8-57.6 1.7-68 8.1-30.2 57.4-39.9 64.5c-9.8 7.2-90.1 18-116.5 22.9-26.5 4.9-55.1 8.1-68 12.6-12.9 4.6-15.5 10.6-21.8 16.6-5.9 5.8-12.3 17.1-15.2 26z"/><path d="m641.7 263.5-.3-.3c.1-.2 13.5-18.1 20.6-28.4 2.7-4 4.9-7.7 7-11.1 3.4-5.6 6.1-10.1 8.5-11.8 2.6-2 27.6-3.8 74.4-5.2 16.2-.5 64.5.1 67.6 4.1.8 1 1.6 1.9 2.6 3 2.8 3.2 6.3 7.2 9.4 13.6 4.3 8.5 17.1 32.8 17.2 33.1l-.4.2c-.1-.2-12.9-24.7-17.2-33.1-3.2-6.3-6.7-10.3-9.4-13.5-1-1.1-1.8-2.1-2.6-3.1-2.8-3.5-48.6-4.5-67.2-3.9-58.1 1.8-72.4 3.8-74.2 5.2-2.3 1.7-4.9 6.1-8.4 11.7-2 3.3-4.4 7.2-7 11.1-7 10.3-20.5 28.2-20.6 28.4z"/><circle class="st2" cx="748.9" cy="382.1" r="158.2"/><path class="st3" d="M748.9 540.9C661.4 540.9 590 469.6 590 382s71.3-158.9 158.9-158.9S907.7 294.4 907.7 382s-71.2 158.9-158.8 158.9zm0-316.5c-87 0-157.7 70.7-157.7 157.7s70.7 157.7 157.7 157.7 157.7-70.7 157.7-157.7-70.8-157.7-157.7-157.7z"/><circle class="st2" cx="748.9" cy="382.1" r="152"/><path class="st3" d="M748.9 534.8c-84.2 0-152.7-68.5-152.7-152.7s68.5-152.7 152.7-152.7 152.7 68.4 152.7 152.7S833 534.8 748.9 534.8zm0-304.3c-83.5 0-151.5 68-151.5 151.5s68 151.5 151.5 151.5 151.5-68 151.5-151.5-68-151.5-151.5-151.5z"/><circle class="st4" cx="748.9" cy="382.1" r="138.2"/><path class="st3" d="M748.9 520.8c-76.5 0-138.7-62.3-138.7-138.7s62.3-138.7 138.7-138.7 138.7 62.3 138.7 138.7-62.3 138.7-138.7 138.7zm0-276.4c-75.9 0-137.5 61.7-137.5 137.5S673 519.5 748.9 519.5 886.4 457.8 886.4 382c.1-75.8-61.6-137.6-137.5-137.6z"/><circle class="st4" cx="748.9" cy="382.1" r="129.7"/><path class="st3" d="M748.9 512.2c-71.8 0-130.2-58.4-130.2-130.2S677 251.8 748.9 251.8 879.1 310.2 879.1 382s-58.5 130.2-130.2 130.2zm0-259.2c-71.2 0-129.1 57.9-129.1 129.1s58 129 129.1 129S878 453.3 878 382s-58.1-129-129.1-129z"/><circle class="st1" cx="748.9" cy="382.1" r="115.4"/><path class="st3" d="M748.9 498c-64 0-115.9-52-115.9-115.9s52-115.9 115.9-115.9S864.8 318 864.8 382s-52 116-115.9 116zm0-230.6c-63.3 0-114.8 51.5-114.8 114.8S685.6 497 748.9 497s114.8-51.5 114.8-114.8c0-63.4-51.5-114.8-114.8-114.8z"/><circle cx="748.9" cy="382.1" r="87.9" fill="#597e5a"/><circle cx="748.9" cy="382.1" r="45.4" fill="#446b43"/><circle cx="748.9" cy="382.1" r="16.6" fill="#325432"/><path class="st1" d="M585.6 193.6c-23.5 0-46.3 6.3-46.3 6.3v28.9h97.6V200c.1 0-28-6.4-51.3-6.4z"/><ellipse transform="rotate(-6.927 513.136 245.377)" cx="513.1" cy="245.4" rx="40.1" ry="14.2" fill="#636565"/><path d="M514.7 278.5c-8.5 2.3-31 4-53.7 4.9 9.1 8.2 29.5 16.2 60.9 6.9 29.4-8.8 42.3-24.6 47.7-33.7-19 8.4-43.8 19.1-54.9 21.9z" fill="#cb444f"/><path d="M551.2 520.5H418.7v-.2c-.8-21-2.6-135.6-2.6-166.4 0-30.9 3.3-58.8 6.4-69.3v-.2h.2c29.1-.3 78.6-2.6 91.9-6.1 18.8-4.9 79-32.8 79.5-33.2l.1-.1.1.1 7.7 9.3-.1.1c-.2.3-23.7 29-28.4 39.5-5.2 11.2-11.5 50.2-12.2 76.1-.8 26.4 5.3 140.2 5.4 141.4v.1c-.1.2-2.4 4.8-6.5 6.8-4.2 2.1-8.9 2.1-9 2.1zm-132.1-.4h132.3s4.6 0 8.7-1.9c3.9-1.7 6.1-6 6.3-6.5-.2-3.2-6.1-115.3-5.4-141.4.8-25.9 7-65.1 12.2-76.3 4.7-10.2 26.7-37.3 28.4-39.5l-7.4-8.9c-3.4 1.6-61.1 28.3-79.4 33.1-13.3 3.4-62.7 5.8-91.8 6.1-3.1 10.6-6.4 38.3-6.4 69.1s1.7 144.6 2.5 166.2z"/><circle class="st2" cx="602" cy="252.4" r="17.4"/><path class="st1" d="M414.3 359.3v24.5c0 1.3 0 2.6.1 3.9v1.7c0 1.5 0 3.1.1 4.7v1.5c0 2 .1 4.1.1 6.1v.1c.1 4.4.1 8.8.2 13.4 0 1.1 0 2.1.1 3.3 0 1.3 0 2.5.1 3.8v2.7c0 1.4.1 2.7.1 4.1 0 1.1 0 2.1.1 3.2 0 1.2 0 2.4.1 3.5 0 1.3 0 2.6.1 3.9 0 1 0 1.9.1 3 0 1.2 0 2.4.1 3.5 0 1.3.1 2.6.1 3.9v2.5c0 1.6.1 3.1.1 4.6v2.3c0 1.4.1 2.9.1 4.3 0 .9 0 1.7.1 2.7 0 .9 0 1.8.1 2.7 0 1.3.1 2.7.1 4v1.3c.1 5.3.2 10.3.3 15v1.1c0 1.3.1 2.6.1 3.9v1.4c0 1.1 0 2.1.1 3.2v1.9c0 1.2.1 2.4.1 3.4v.6c0 1.3.1 2.5.1 3.6v.5c0 1.1.1 2 .1 3v.9c0 1 0 1.8.1 2.7v.4c0 .9 0 1.6.1 2.4v.5c0 .6 0 1.3.1 1.8l6.1 2.6 1.3-240.6-4.1 1.1s-.3 1.3-.5 2-.3 1.5-.5 2.5c-.2.9-.3 1.8-.5 2.8v.2c-.2 1-.3 1.9-.5 3 0 .1 0 .3-.1.4-.2 1-.3 2-.5 3.1 0 .2-.1.5-.1.8-.1 1-.3 2-.4 3.1 0 .3-.1.8-.1 1.1-.1 1-.2 2-.4 3.1.1.2 0 .8 0 1.2-.1 1-.2 1.9-.3 3-.1.6-.1 1.3-.2 1.9l-.3 2.9c-.1.8-.1 1.5-.2 2.3-.1 1-.2 1.9-.2 2.9-.1.9-.1 1.8-.2 2.7-.1.9-.1 1.7-.2 2.7-.1 1-.1 2-.2 3 0 .9-.1 1.7-.1 2.6-.1 1.1-.1 2.3-.2 3.3 0 .8-.1 1.6-.1 2.4 0 1.3-.1 2.5-.1 3.8 0 .8 0 1.4-.1 2.1 0 1.4-.1 2.8-.1 4.2v12.3h-.2z"/><circle transform="matrix(.03328 -.9994 .9994 .03328 98.482 839.44)" class="st1" cx="483.2" cy="368.8" r="11.5"/><path d="M483.2 380.4c-6.4 0-11.7-5.3-11.7-11.7 0-6.4 5.3-11.7 11.7-11.7s11.6 5.3 11.6 11.7c0 6.6-5.2 11.7-11.6 11.7zm0-22.9c-6.2 0-11.2 5-11.2 11.2 0 6.1 5 11.2 11.2 11.2s11.2-5 11.2-11.2c-.1-6.1-5-11.2-11.2-11.2z"/><path class="st1" d="m496 245.4.4-.1 2.5 14.8-.4.1-2.5-14.8zm31.9 11.7h-.4l.3-15.2h.5l-.4 15.2z"/><ellipse transform="rotate(-6.927 512.275 238.615)" class="st2" cx="512.3" cy="238.6" rx="22.2" ry="7.3"/><circle cx="887.4" cy="261" r="2.3"/><circle cx="898.9" cy="261" r="2.3"/><circle cx="898.9" cy="261" r="2.3"/><circle cx="893.4" cy="261" r="2.3"/><circle cx="893.4" cy="261" r="2.3"/><path d="M749.1 151.1h-.9c-28.2-.3-49.3-15-49.5-15.2l.2-.3c.2.1 21.1 14.8 49.3 15.1h.8c27.7 0 48.2-14.4 48.4-14.6l.2.3c0 .2-20.6 14.7-48.5 14.7zm336.3 256.4h-41.1l-26.1-92.9h-.7c-1.7 17.5-3.5 30.1-5.1 37.8l-11.7 55.1h-31.4l27.9-132.1h41.1l25.8 88.8h.8c1.7-14.2 3.5-25.4 5.1-33.5l11.8-55.3h31.4l-27.8 132.1zm64.1 0h-35l21.6-102.3h35.1l-21.7 102.3zm-9.1-124.9c0-6.2 1.8-10.9 5.4-14.1 3.6-3.2 8.6-4.8 15-4.8 5.5 0 9.7 1.1 12.7 3.3 3 2.2 4.5 5.3 4.5 9.4 0 6-1.7 10.7-5.2 14-3.5 3.3-8.5 4.9-15.1 4.9-11.6.1-17.3-4.2-17.3-12.7zm63.6-15.7h35l-12.6 59.9c-1 4.6-3.1 11.4-6.1 20.1h.8c5.1-7.6 9.7-13.7 13.8-18.1l21.9-23.8h39.9l-44.4 46.3 24.8 56.1h-39.6l-12.6-35.3-9.1 4.8-6.2 30.5h-35l29.4-140.5zm129.8 142.4c-12.6 0-22.3-3.4-29.1-10.2-6.8-6.8-10.3-16.5-10.3-29.2s2.4-24.1 7.2-34.3c4.8-10.2 11.5-18.1 20.2-23.8 8.7-5.7 18.8-8.5 30.4-8.5 12.6 0 22.3 3.4 29.1 10.2 6.8 6.8 10.3 16.5 10.3 29.2 0 12.6-2.4 24.1-7.2 34.3-4.8 10.2-11.5 18.1-20.2 23.8-8.8 5.6-18.9 8.5-30.4 8.5zm14.2-79.7c-4.9 0-9.2 4.2-12.7 12.6-3.5 8.4-5.3 18-5.3 28.9 0 8 2.5 12 7.6 12 4.9 0 9.1-4.2 12.7-12.6 3.6-8.4 5.4-18 5.4-28.9 0-4-.7-7-2.1-9-1.3-2-3.2-3-5.6-3zm122.1 9.2c0-2.6-.7-4.5-2-5.8-1.3-1.3-2.9-1.9-4.8-1.9-3.4 0-6.6 2.1-9.5 6.4-2.9 4.3-5.3 11-7.2 20.1l-10.5 50h-35l21.6-102.3h27.9l-1.1 14.3h.7c3.3-5.7 7.2-9.8 11.7-12.3 4.5-2.5 10-3.7 16.5-3.7 8.5 0 15.1 2.6 19.9 7.7 4.8 5.1 7.1 12.3 7.1 21.4 0 6.4-.8 13.3-2.3 20.7l-11.5 54.4h-35l11.7-55.8c1.2-5.1 1.8-9.3 1.8-13.2z"/></svg>