<svg xmlns="http://www.w3.org/2000/svg" viewBox="0 0 1920 673" xml:space="preserve"><path fill="#2e9fff" d="M0 0h1920v673H0z"/><path d="M581.3 259.5h-58.8V412h58c54.9 0 86.9-32.7 86.9-76.7v-.4c0-44-31.6-75.4-86.1-75.4zM624 336c0 24.6-16.8 38.6-42.1 38.6h-17.2V297h17.2c25.3 0 42.1 14.2 42.1 38.6v.4zm71.5 76H738V259.5h-42.5V412zM836 317c-21.1-4.8-26.4-7.8-26.4-14.8v-.4c0-5.4 5-9.8 15.3-9.8 13.5 0 28.8 5.2 42.7 15l21.1-29.9c-16.6-13.3-36.8-20.3-62.8-20.3-36.6 0-59.1 20.5-59.1 48.8v.4c0 31.4 25.1 40.5 57.5 47.9 20.7 4.8 25.7 8.3 25.7 14.6v.4c0 6.5-6.1 10.5-17.4 10.5-17.6 0-34.4-6.3-49.5-18.3l-23.5 28.1c18.7 16.8 44.5 25.3 71.5 25.3 37 0 61.7-18.5 61.7-49.7v-.4c.1-28.4-21.7-39.8-56.8-47.4zm241.9 18.7v-.4c0-43.8-34.9-78.9-81.9-78.9-47.1 0-82.4 35.5-82.4 79.3v.4c0 43.8 34.9 78.9 81.9 78.9 17.4 0 33.3-5 46.4-13.5l16.8 15 21.4-23.8-15.7-13.3c8.7-12.3 13.5-27.5 13.5-43.7zm-42.9.9c0 5.2-.9 10.2-2.6 14.8l-20.7-18.7-21.4 24 21.1 18.1c-4.6 1.7-9.8 2.8-15.5 2.8-23.3 0-39-19.4-39-41.4v-.4c0-22 15.5-41.2 38.6-41.2 23.5 0 39.4 19.4 39.4 41.6l.1.4zm167.5 8.7c0 21.4-11.1 31.4-28.1 31.4s-28.1-10.5-28.1-32.5v-84.8h-42.9V345c0 47.7 27.2 69.7 70.6 69.7 43.4 0 71.5-21.6 71.5-70.8v-84.6h-42.9l-.1 86zm138.2-28.3c-21.1-4.8-26.4-7.8-26.4-14.8v-.4c0-5.4 5-9.8 15.3-9.8 13.5 0 28.8 5.2 42.7 15l21.1-29.9c-16.6-13.3-36.8-20.3-62.8-20.3-36.6 0-59.1 20.5-59.1 48.8v.4c0 31.4 25.1 40.5 57.5 47.9 20.7 4.8 25.7 8.3 25.7 14.6v.4c0 6.5-6.1 10.5-17.4 10.5-17.7 0-34.4-6.3-49.5-18.3l-23.5 28.1c18.7 16.8 44.5 25.3 71.5 25.3 37 0 61.7-18.5 61.7-49.7v-.4c.1-28.4-21.7-39.8-56.8-47.4z" fill="#fff"/></svg>