<svg xmlns="http://www.w3.org/2000/svg" viewBox="0 0 1920 673" xml:space="preserve"><path fill="#d3312c" d="M0 0h1920v673H0z"/><path d="M613.3 399.3h-60.7L542 433.6h-47.3l67.4-183.7h41.6l67.9 183.7H624l-10.7-34.3zm-50.1-34.2h39.5l-19.8-63.7-19.7 63.7zM760 433.6c-1.5-2.8-2.9-6.9-4-12.2-7.8 9.8-18.8 14.8-32.8 14.8-12.9 0-23.8-3.9-32.8-11.7-9-7.8-13.5-17.6-13.5-29.3 0-14.8 5.5-26 16.4-33.6 10.9-7.6 26.8-11.4 47.7-11.4h13.1V343c0-12.6-5.4-18.9-16.3-18.9-10.1 0-15.1 5-15.1 15h-42.5c0-13.2 5.6-23.9 16.8-32.1 11.2-8.2 25.6-12.4 43-12.4s31.2 4.2 41.3 12.7c10.1 8.5 15.3 20.1 15.5 35v60.4c.2 12.5 2.1 22.1 5.8 28.8v2.1H760zm-26.6-27.8c5.3 0 9.7-1.1 13.2-3.4s6-4.8 7.5-7.7v-21.8h-12.4c-14.8 0-22.2 6.6-22.2 19.9 0 3.9 1.3 7 3.9 9.4 2.6 2.4 5.9 3.6 10 3.6zm213-121.9h-79.6v29.2h22.8c14.6 0 27.4 2.5 38.6 7.4 11.2 5 19.8 12 25.8 21s9 19.4 9 31.1c0 18.1-6.7 32.8-20.1 44-13.4 11.3-31.4 16.9-54.1 16.9h-66.6V249.9h124.2v34zm-79.7 63.3v52.4h22.7c9 0 16.1-2.5 21.4-7.6 5.3-5 7.9-11.6 7.9-19.6 0-7.6-2.6-13.7-7.8-18.3-5.2-4.6-12.5-6.9-21.7-6.9h-22.5zm186.7-42.6c17.8 0 32 5.8 42.5 17.5s15.7 27.6 15.7 47.8v1.8c0 12.8-2.7 24.1-8 33.9-5.3 9.8-12.9 17.4-22.9 22.7-10 5.3-21.6 8-35 8-20.2 0-36.3-6.5-48.3-19.4-12-13-18-30.8-18-53.5v-4c.2-31.1 5.3-55.6 15.4-73.4 10.1-17.8 25.5-29.1 46.3-33.7 9.3-2.1 15.5-4.1 18.4-6.1 2.9-2 4.4-5.1 4.4-9.3h34.2c0 10.5-1.6 18.5-4.9 24-3.2 5.5-8.4 10-15.4 13.6-7 3.6-16.9 6.5-29.6 8.9-10 1.9-17.7 5.8-23.2 11.8-5.4 6-9.1 14.4-11 25.2 11.4-10.6 24.5-15.8 39.4-15.8zm-8 32.8c-15.6 0-23.3 10.8-23.3 32.3v2c0 21.1 7.9 31.7 23.6 31.7 15.2 0 23-10.1 23.3-30.3v-4c0-21.1-7.8-31.7-23.6-31.7zm87.5 96.2V249.9h66c23.6 0 41.6 4.3 53.9 13 12.3 8.7 18.5 21.2 18.5 37.7 0 9.5-2.2 17.6-6.6 24.4-4.4 6.7-10.8 11.7-19.3 14.9 9.6 2.5 17 7.2 22.1 14.1 5.1 6.9 7.7 15.3 7.7 25.2 0 18-5.7 31.5-17.1 40.6-11.4 9-28.3 13.7-50.7 13.8h-74.5zm44.3-107.1h23.1c9.7-.1 16.6-1.9 20.7-5.3 4.1-3.5 6.2-8.6 6.2-15.3 0-7.8-2.2-13.4-6.7-16.8-4.5-3.4-11.7-5.1-21.6-5.1h-21.7v42.5zm0 29v44h29c8 0 14.1-1.8 18.4-5.5 4.3-3.7 6.4-8.8 6.4-15.5 0-15.3-7.6-23-22.8-23.1h-31zm123.3 78.1V297.1h58.6c18.8 0 33.1 3.3 43.1 9.8 10 6.6 15 16 15 28.4 0 6.3-2.2 12-6.6 17-4.4 5-10.8 8.9-19.2 11.5 10.9 1.9 19.2 5.4 25.1 10.8 5.9 5.3 8.8 12 8.8 20 0 12.9-4.9 22.6-14.6 29.1s-23.7 9.8-42 9.9h-68.2zm42.6-81.9h17.5c5.1 0 8.7-.9 10.8-2.6 2.1-1.7 3.1-4.3 3.1-7.6 0-4.4-1.3-7.4-3.8-9.2-2.5-1.8-6.4-2.6-11.7-2.6h-15.9v22zm0 26.3v23h24.9c5.3 0 9.1-.9 11.4-2.8 2.3-1.8 3.4-4.7 3.4-8.5 0-7.6-4.4-11.5-13.1-11.9h-26.6z" fill="#fff"/></svg>