<svg xmlns="http://www.w3.org/2000/svg" viewBox="0 0 1920 673" xml:space="preserve"><style>.st2{fill:#fff}</style><path fill="#55acee" d="M0 0h1920v673H0z"/><path d="M1390.6 673V214.9c0-24.2-12.5-36.7-36.7-36.7H567.5c-24.2 0-36.7 12.5-36.7 36.7V673h859.8z" fill="#182f2e"/><path class="st2" d="M567.5 214.9h786.4V673H567.5z"/><path d="M638.3 466.7h643.5v18.8H638.3zm0 40h643.5v18.8H638.3zm0 40h643.5v18.8H638.3zm0 40h643.5v18.8H638.3zm183.7-280h459.7v18.8H822zm0 40h459.7v18.8H822zm0 40h459.7v18.8H822zm0 40h459.7v18.8H822zm-183.7 200h643.5v18.8H638.3z" fill="#d3d5d9"/><path fill="#f48156" d="M619.5 277H788v168.5H619.5z"/><path class="st2" d="M720.3 392.9h-33.4l-5.8 18.9h-26l37-101H715l37.3 101h-26.2l-5.8-18.9zM692.7 374h21.7l-10.9-35-10.8 35z"/><path d="M1390.6 673V186.6c0-4.7-3.9-8.4-8.4-8.4h-843c-4.7 0-8.4 3.9-8.4 8.4V673h859.8z" fill="#36434f"/><path d="M1353.2 673V221.8c0-4.5-3.7-8.4-8.4-8.4h-768c-4.5 0-8.4 3.7-8.4 8.4V673h784.8z" fill="#f8f8f8"/><path d="M845.7 265.7h434.6v29.8H845.7v-29.8zm0 68.2h434.6v29.8H845.7v-29.8zm0 68.2h434.6v29.8H845.7v-29.8zm-204.5 68.1h639.2V500H641.2v-29.8zm0 68.2h639.2v29.8H641.2v-29.8zm0 68.2h639.2v29.8H641.2v-29.8z" fill="#ddd"/><path d="M641.2 265.7h166.2v166.2H641.2V265.7z" fill="#df7148"/><path class="st2" d="M762.2 394.2h-21.7v-37.9h-32.2v37.9h-21.9v-90.8h21.9v36h32.2v-36h21.7v90.8z"/></svg>