<svg xmlns="http://www.w3.org/2000/svg" viewBox="0 0 1920 673" xml:space="preserve"><path fill="#e7c363" d="M0 0h1920v673H0z"/><path d="M633.6 259.8v181.1c0 18.9-5 33.7-15.1 44.2S594 500.9 575 500.9c-7.9 0-15.5-.9-22.7-2.7v-36.3c5.5 1 10.3 1.4 14.4 1.4 13.9 0 20.8-7.4 20.8-22.1V259.8h46.1zm-49.7-44.5c0-6.9 2.3-12.5 6.9-17 4.6-4.4 10.9-6.7 18.8-6.7s14.2 2.2 18.8 6.7c4.6 4.4 6.9 10.1 6.9 17 0 7-2.4 12.7-7.1 17.1-4.7 4.4-10.9 6.7-18.7 6.7-7.7 0-13.9-2.2-18.7-6.7-4.6-4.4-6.9-10.1-6.9-17.1zM762.5 384c0-5.6-2.8-10-8.3-13.3-5.6-3.2-14.5-6.1-26.7-8.7-40.8-8.6-61.3-25.9-61.3-52.1 0-15.2 6.3-28 19-38.2 12.6-10.2 29.2-15.3 49.6-15.3 21.8 0 39.2 5.1 52.3 15.4 13.1 10.3 19.6 23.6 19.6 40h-45.9c0-6.6-2.1-12-6.3-16.3-4.2-4.3-10.8-6.4-19.8-6.4-7.7 0-13.7 1.7-17.9 5.2-4.2 3.5-6.3 7.9-6.3 13.3 0 5.1 2.4 9.2 7.2 12.3 4.8 3.1 12.9 5.8 24.4 8.1 11.4 2.3 21.1 4.8 28.9 7.7 24.2 8.9 36.3 24.3 36.3 46.2 0 15.7-6.7 28.3-20.2 38-13.4 9.7-30.8 14.5-52.1 14.5-14.4 0-27.2-2.6-38.3-7.7-11.2-5.1-19.9-12.2-26.3-21.1-6.3-8.9-9.5-18.6-9.5-29h43.5c.4 8.2 3.4 14.4 9 18.7 5.6 4.3 13.1 6.5 22.5 6.5 8.8 0 15.4-1.7 19.9-5 4.4-3 6.7-7.4 6.7-12.8zm66.9-40c0-17 3.3-32.2 9.8-45.6 6.6-13.3 16-23.6 28.3-31 12.3-7.3 26.6-11 42.9-11 23.2 0 42.1 7.1 56.7 21.3 14.7 14.2 22.8 33.4 24.5 57.8l.3 11.7c0 26.3-7.4 47.5-22.1 63.4-14.7 15.9-34.4 23.9-59.2 23.9-24.8 0-44.5-7.9-59.3-23.8-14.8-15.9-22.1-37.5-22.1-64.8V344zm45.9 3.3c0 16.3 3.1 28.8 9.2 37.4 6.1 8.6 14.9 13 26.3 13 11.1 0 19.8-4.3 26-12.8 6.2-8.5 9.4-22.2 9.4-40.9 0-16-3.1-28.4-9.4-37.2-6.2-8.8-15-13.2-26.3-13.2-11.2 0-19.9 4.4-26 13.1-6.1 8.7-9.2 22.3-9.2 40.6zm247.9 66.7c-11.3 13.8-27 20.6-47 20.6-18.4 0-32.5-5.3-42.1-15.9-9.7-10.6-14.6-26.1-14.8-46.5V259.8h45.9v111.1c0 17.9 8.1 26.9 24.4 26.9 15.6 0 26.2-5.4 32.1-16.2V259.8h46v171.7h-43.2l-1.3-17.5zm233.7-66.8c0 26.5-6 47.6-18 63.6-12 15.9-28.2 23.9-48.6 23.9-17.4 0-31.4-6-42.1-18.1v80.9h-45.9V259.8h42.5l1.6 16.8c11.1-13.3 25.6-20 43.5-20 21.2 0 37.6 7.8 49.4 23.5 11.7 15.7 17.6 37.2 17.6 64.8v2.3zm-45.9-3.3c0-16-2.8-28.3-8.5-37s-13.9-13-24.7-13c-14.4 0-24.3 5.5-29.7 16.5v70.3c5.6 11.3 15.6 17 30 17 22 0 32.9-17.9 32.9-53.8z" fill="#fff"/></svg>