<svg xmlns="http://www.w3.org/2000/svg" viewBox="0 0 1920 673" xml:space="preserve"><style>.st3{fill:#4caf50}.st4{fill:#f8f8f8}.st5{fill:#424242}.st6{fill:#338738}</style><path d="M0 0h1920v673H0V0z" fill="#23965c"/><path d="M1033.4 331.1c0 7.4-1.2 13.8-3.7 19.2-2.4 5.5-5.8 9.9-10.1 13.2l12.8 10.2-11.8 10-17.1-13.8c-1.6.2-3.2.3-4.8.3-6.8 0-12.8-1.6-18-4.7-5.2-3.1-9.3-7.6-12.3-13.4-2.9-5.8-4.5-12.5-4.6-20.1v-4.2c0-7.8 1.4-14.7 4.3-20.6 2.9-5.9 6.9-10.5 12.2-13.8 5.3-3.2 11.4-4.9 18.2-4.9 6.7 0 12.7 1.6 18 4.8 5.3 3.2 9.4 7.8 12.3 13.7 2.9 5.9 4.4 12.7 4.5 20.3v3.8zm-19.4-3.4c0-7.9-1.3-13.9-4-18s-6.4-6.1-11.3-6.1c-5.1 0-8.9 2-11.4 6.1-2.5 4-3.8 10-3.9 17.7v3.7c0 7.8 1.3 13.8 3.9 18 2.6 4.2 6.4 6.3 11.5 6.3 4.9 0 8.6-2.1 11.2-6.2 2.6-4.1 3.9-10 4-17.7v-3.8zm60.9-38h19.1v54.6c0 5.1-1.2 9.6-3.5 13.5-2.3 4-5.6 7-9.8 9.2-4.2 2.2-8.9 3.3-14.1 3.3-8.7 0-15.4-2.2-20.2-6.6-4.8-4.4-7.2-10.6-7.2-18.6h19.2c0 3.6.6 6.3 1.9 7.9 1.3 1.6 3.4 2.5 6.3 2.5 2.7 0 4.7-1 6.1-3 1.4-2 2.2-4.8 2.2-8.3v-54.5zm72.2 58.3c0-2.8-1-5-3-6.6s-5.5-3.2-10.5-4.9c-5-1.7-9.1-3.3-12.2-4.9-10.3-5.1-15.5-12-15.5-20.9 0-4.4 1.3-8.3 3.8-11.7s6.2-6 10.9-7.9c4.7-1.9 10-2.8 15.8-2.8 5.7 0 10.8 1 15.4 3.1 4.5 2 8.1 4.9 10.6 8.7s3.8 8.1 3.8 12.9h-19.1c0-3.2-1-5.8-3-7.5-2-1.8-4.7-2.7-8.1-2.7-3.4 0-6.1.8-8.1 2.3-2 1.5-3 3.4-3 5.8 0 2 1.1 3.9 3.3 5.5 2.2 1.7 6 3.4 11.5 5.1s10 3.7 13.5 5.7c8.6 5 12.9 11.8 12.9 20.5 0 7-2.6 12.4-7.9 16.4-5.2 4-12.4 6-21.6 6-6.4 0-12.3-1.2-17.5-3.5-5.2-2.3-9.2-5.5-11.8-9.5s-4-8.7-4-13.9h19.2c0 4.3 1.1 7.4 3.3 9.4s5.8 3 10.7 3c3.2 0 5.7-.7 7.5-2 2.2-1.2 3.1-3.1 3.1-5.6zm78.3-12.6h-30.1v19h35.6v14.7h-54.8v-79.5h54.9v14.8h-35.7v16.8h30.1v14.2zm29.3-25.3.6 6.9c4.1-5.4 9.7-8 16.9-8 6.2 0 10.7 1.8 13.8 5.5s4.6 9.2 4.7 16.6v38.1h-18.5v-37.3c0-3-.6-5.2-1.8-6.6-1.2-1.4-3.4-2.1-6.6-2.1-3.6 0-6.3 1.4-8 4.3v41.7h-18.4v-59.1h17.3zm44 29.1c0-6 1-11.2 2.9-15.8s4.8-8.1 8.5-10.6 8-3.7 12.8-3.7c6.2 0 11 2.1 14.4 6.2l.7-5.1h16.7V367c0 5.2-1.2 9.7-3.6 13.6-2.4 3.8-5.9 6.8-10.5 8.8-4.6 2.1-9.9 3.1-15.9 3.1-4.3 0-8.5-.8-12.6-2.5-4.1-1.6-7.2-3.8-9.3-6.4l7.7-10.8c3.4 4 7.9 6.1 13.5 6.1 8.2 0 12.2-4.2 12.2-12.6v-1.9c-3.5 3.9-8 5.8-13.4 5.8-7.2 0-13-2.8-17.5-8.3s-6.7-12.9-6.7-22.1v-.6zm18.5 1.1c0 4.8.9 8.7 2.7 11.5 1.8 2.8 4.4 4.2 7.6 4.2 4 0 6.9-1.3 8.7-4v-24.8c-1.8-2.7-4.6-4-8.6-4-3.3 0-5.8 1.5-7.7 4.4-1.8 2.9-2.7 7.2-2.7 12.7zm47.9-45.4c0-2.6.9-4.8 2.8-6.4 1.9-1.7 4.3-2.5 7.4-2.5 3 0 5.5.8 7.4 2.5 1.9 1.7 2.8 3.8 2.8 6.4s-.9 4.8-2.8 6.4c-1.9 1.7-4.4 2.5-7.4 2.5s-5.5-.8-7.4-2.5c-1.9-1.7-2.8-3.8-2.8-6.4zm19.5 74.3h-18.5v-59.1h18.5v59.1zm28.3-59.1.6 6.9c4.1-5.4 9.7-8 16.9-8 6.2 0 10.7 1.8 13.8 5.5s4.6 9.2 4.7 16.6v38.1h-18.5v-37.3c0-3-.6-5.2-1.8-6.6-1.2-1.4-3.4-2.1-6.6-2.1-3.6 0-6.3 1.4-8 4.3v41.7h-18.4v-59.1h17.3zm74.7 60.2c-9.1 0-16.4-2.7-22-8.1-5.6-5.4-8.4-12.4-8.4-21.1v-1.5c0-6 1.1-11.4 3.4-16 2.2-4.6 5.5-8.2 9.8-10.7 4.3-2.5 9.4-3.8 15.3-3.8 8.3 0 14.9 2.6 19.7 7.7 4.8 5.2 7.2 12.3 7.2 21.5v7.2H1476c.7 3.3 2.1 5.9 4.3 7.8 2.2 1.9 5.1 2.8 8.6 2.8 5.8 0 10.4-2 13.7-6.1l8.4 9.9c-2.3 3.2-5.5 5.7-9.7 7.6-4.3 1.8-8.8 2.8-13.7 2.8zm-2.1-47.1c-5.4 0-8.6 3.6-9.6 10.7h18.6v-1.4c.1-2.9-.7-5.2-2.2-6.9-1.6-1.6-3.9-2.4-6.8-2.4z" fill="#fff"/><path class="st3" d="M765.7 221.2c85.8 106.9 91.2 362.7-151.4 353.4-230.3-9-220.3-251.7-139.1-353.4 38.2-48 95.7-71.8 143.7-72.2 48.6-.4 107.5 23.1 146.8 72.2z"/><circle class="st4" cx="538.5" cy="324.9" r="66.5"/><path class="st3" d="M483.2 284.8h110.5c-12.9-16.8-32.8-27.6-55.2-27.6s-42.5 10.9-55.3 27.6z"/><circle transform="rotate(-80.781 538.506 324.891)" class="st5" cx="538.5" cy="324.9" r="28.9"/><circle class="st4" cx="528" cy="315.7" r="9.2"/><circle class="st4" cx="703.7" cy="324.9" r="66.5"/><path class="st3" d="M648.4 284.8h110.5c-12.9-16.8-32.8-27.6-55.2-27.6s-42.4 10.9-55.3 27.6z"/><circle class="st5" cx="703.7" cy="324.9" r="28.9"/><circle class="st4" cx="693.2" cy="315.7" r="9.2"/><path class="st6" d="M621.1 495.3c-24.8 0-48.6-10.6-65.2-28.8l18.4-16.7c11.9 13.2 29.1 20.8 46.9 20.8 17.8 0 34.9-7.6 46.9-20.8l18.4 16.7c-16.8 18.4-40.6 28.8-65.4 28.8z"/><path class="st3" d="m529.2 643 39.9-96.4 25.5 10.5-39.9 96.4-25.5-10.5z"/><circle class="st6" cx="542.7" cy="647.5" r="25.5"/><path class="st3" d="m647.7 557.1 25.5-10.5 39.9 96.4-25.5 10.5-39.9-96.4z"/><circle class="st6" cx="699.5" cy="647.5" r="25.5"/><path class="st3" d="m702.6 522.6 24.1-13.3 73 132.2-24.1 13.3-73-132.2z"/><circle class="st6" cx="787" cy="647.5" r="25.5"/><path class="st3" d="m442.5 641.6 73-132.2 24.1 13.3-73 132.2-24.1-13.3z"/><circle class="st6" cx="455.2" cy="647.5" r="25.5"/><path class="st3" d="m569.5 96.8 10.2-4.1 29.6 73-10.2 4.1-29.6-73z"/><circle class="st6" cx="575.3" cy="95.4" r="10.3"/><path class="st3" d="m632.9 165.4 29.6-73 10.2 4.1-29.6 73-10.2-4.1z"/><circle class="st6" cx="666.9" cy="95.4" r="10.3"/><path class="st3" d="M887.5 478.8c-2.9 0-5.6-.9-8.2-2.6l-92.2-67.5c-6.1-4.5-7.5-13.1-3-19.3 4.5-6.1 13.1-7.5 19.3-3l92.2 67.5c6.1 4.5 7.5 13.1 3 19.3-2.7 3.7-6.8 5.6-11.1 5.6zm-532.8 0c-4.2 0-8.4-2-11.1-5.6-4.5-6.1-3.1-14.7 3-19.3l92.2-67.5c6.1-4.5 14.7-3.1 19.3 3 4.5 6.1 3.1 14.7-3 19.3l-92.2 67.5c-2.6 1.8-5.5 2.6-8.2 2.6z"/><path class="st5" d="M624 149.1v57.4h-5.7V149h.8c1.5 0 3.2 0 4.9.1zm-18.5.6-26.2 55.6 5.2 2.4 27.6-58.5c-2.2.1-4.4.4-6.6.5zm52.2 58.1 5.2-2.4-26.1-55.4c-2.2-.2-4.4-.5-6.5-.6l27.4 58.4z"/><circle class="st6" cx="779.8" cy="454.7" r="9.8"/><circle class="st6" cx="757" cy="479.8" r="12.1"/></svg>