<svg xmlns="http://www.w3.org/2000/svg" viewBox="0 0 1920 673" xml:space="preserve"><style>.st1{fill:#40a8a5}</style><path fill="#399" d="M0 0h1920v673H0z"/><path class="st1" d="M694.6 336.5c0 105 61 195.8 149.6 238.8L717.6 228.5c-14.7 33-23 69.5-23 108zm444.5-13.4c0-32.8-11.8-55.5-21.9-73.2-13.5-21.9-26.1-40.4-26.1-62.2 0-24.4 18.5-47.1 44.6-47.1 1.2 0 2.3.1 3.4.2-47.1-43.2-110-69.7-179.1-69.7-92.7 0-174.3 47.6-221.7 119.6 6.2.2 12.1.3 17.1.3 27.8 0 70.7-3.4 70.7-3.4 14.3-.8 16 20.2 1.7 21.9 0 0-14.4 1.7-30.4 2.5L894 499.5l58.1-174.2L910.8 212c-14.3-.8-27.8-2.5-27.8-2.5-14.3-.8-12.6-22.7 1.7-21.9 0 0 43.8 3.4 69.9 3.4 27.8 0 70.7-3.4 70.7-3.4 14.3-.8 16 20.2 1.7 21.9 0 0-14.4 1.7-30.4 2.5l95.9 285.3 26.5-88.4c11.4-36.7 20.1-63.1 20.1-85.8z"/><path class="st1" d="M964.6 359.7 885 591.1c23.8 7 48.9 10.8 75 10.8 30.9 0 60.5-5.3 88.1-15-.7-1.1-1.4-2.3-1.9-3.7l-81.6-223.5zm228.2-150.5c1.1 8.5 1.8 17.5 1.8 27.3 0 26.9-5 57.2-20.2 95l-81.1 234.4c78.9-46 132-131.5 132-229.4 0-46.1-11.7-89.5-32.5-127.3z"/><path class="st1" d="M960 27.2c-170.6 0-309.3 138.8-309.3 309.3 0 170.6 138.8 309.3 309.3 309.3 170.6 0 309.3-138.8 309.3-309.3 0-170.6-138.8-309.3-309.3-309.3zm0 604.4c-162.7 0-295.1-132.4-295.1-295.2 0-162.7 132.4-295.1 295.1-295.1 162.7 0 295.1 132.4 295.1 295.1 0 162.8-132.4 295.2-295.1 295.2z"/><path d="m695 276-21.2 125.3c-1.8 14.4-7.3 25.7-16.4 33.7-9.1 8-20.7 12-34.8 11.8-5.6-.2-11.8-.9-18.5-2.1l3-28.8c4.1.9 7.5 1.3 10.2 1.3 10.9.1 17.3-5.6 19.3-17.3L657.9 276H695zm-34.3-30.7c-.2-5.6 1.8-10.1 5.8-13.7s8.9-5.4 14.5-5.4c5.7-.1 10.5 1.4 14.4 4.8 3.9 3.3 5.9 7.7 6.1 13 .1 5.3-1.7 9.8-5.6 13.5-3.9 3.7-8.8 5.6-14.8 5.7-5.7 0-10.5-1.7-14.4-5-3.8-3.4-5.8-7.7-6-12.9zM845.9 319c-2.2 15.6-6.6 29-13.4 40.3-6.8 11.3-15.4 20.3-25.9 27.1l21.9 21.7-25.5 19.3-29-28.2c-4.2.4-7.3.5-9.4.4-11-.1-20.8-2.6-29.3-7.5s-15.2-12.1-20.2-21.3c-4.9-9.3-7.8-19.9-8.6-31.9-.6-8.8 0-18.7 1.9-29.9s5.2-21.7 10-31.4c7.2-14.6 16.9-26 29.2-34.1 12.3-8.1 26.1-12 41.4-11.7 11.1.2 20.8 2.8 29.2 7.7 8.4 4.9 15.1 12.1 20.2 21.5s8 20 8.8 31.7c.4 6.5.3 13.1-.6 19.9l-.7 6.4zm-37.2-27.3c-.6-9.8-2.7-17-6.3-21.7-3.6-4.6-8.8-7.1-15.6-7.5-10.9-.4-19.7 3.9-26.5 12.8-6.8 8.9-11.4 22.1-13.7 39.6-1.4 10.5-1.9 18.8-1.6 24.9.7 18.9 8.1 28.7 22 29.2 10.1.5 18.6-3.4 25.4-11.8 6.8-8.4 11.5-20.9 14.1-37.5 1.8-11.5 2.5-20.9 2.2-28zm117.2 92.5c-9.1 10.7-20 15.9-32.8 15.6-11.9-.2-20.9-4.3-26.9-12.5s-8.4-19.1-7-32.8l13.1-78.6h36.9l-13.4 79.2c-.2 2.2-.2 4.2 0 6 .5 6.1 4.2 9.3 10.9 9.6 7.8.3 14.4-2.8 19.9-9.2l15-85.5h37.2l-21.1 121.5h-34.4l2.6-13.3zm112.2 15.5c-10.9-.1-20.5-2.6-29-7.7s-14.9-12.1-19.3-21.1c-4.3-9-6.1-19-5.2-29.8l.3-3.1c2-20 9-35.8 20.8-47.4 11.9-11.6 26.4-17.2 43.6-16.8 10.4.2 19.3 2.8 26.7 7.9s12.8 12.2 16.3 21.3c3.4 9 4.6 19.2 3.4 30.4l-2.1 15.4h-72.3c.1 6.4 1.9 11.5 5.4 15.5 3.4 4 8.5 6.1 15 6.3 10.7.3 20.3-3.8 28.9-12.4l15.5 20.5c-4.6 6.5-11 11.6-19.1 15.3-8.2 3.7-17.2 5.6-26.9 5.8h-2zm8.9-96.8c-5.2-.1-9.8 1.5-13.6 4.9-3.9 3.4-7.2 9.2-10.1 17.2h36.9l.7-3.2c.4-2.6.5-5.1.2-7.4-1.2-7.4-5.9-11.3-14.1-11.5zm141 7.3c-4-.6-7.8-1-11.5-1.1-11.1-.3-19.5 3.5-25.4 11.5l-13.7 76.9h-36.9l21.1-121.5 34.5-.1-2.8 15.9c7.9-12.3 17.3-18.4 28.1-18.4 3.1 0 6.9.5 11.5 1.6l-4.9 35.2zm55.8 33.8 31.4-68.1h40.8l-71.2 139.7c-5.3 11-11.4 19-18.4 23.9-6.9 4.9-15.2 7.4-24.8 7.4-4.3 0-9.7-.8-16.3-2.5l2.8-27.1h4.3c4.6 0 8.6-.7 12-2.2 3.4-1.5 6.3-4.3 8.6-8.5l5.3-10.1L1199 276h38.2l6.6 68z" fill="#fff"/></svg>