<svg xmlns="http://www.w3.org/2000/svg" viewBox="0 0 1920 673" xml:space="preserve"><path fill="#607d8b" d="M0 0h1920v673H0z"/><path d="M1106.5 481.5h100v70h-100zm0-120h100v70h-100zm-250 120h180v70h-180zm0-120h180v70h-180zm250-240h100v70h-100zm-250 120h180v70h-180zm0-120h180v70h-180zm250 120h100v70h-100zm170 240H1380v70h-103.5zm0-240H1380v70h-103.5zm0 120H1380v70h-103.5zm0-240H1380v70h-103.5zM540 241.5h246.5v70H540zm0 240h246.5v70H540zm0-360h246.5v70H540zm0 240h246.5v70H540z" fill="#b0bec5"/></svg>