<svg xmlns="http://www.w3.org/2000/svg" viewBox="0 0 1920 673" xml:space="preserve"><style>.st1{fill:#dedcd9}.st7{fill:#fff}</style><path fill="#68217a" d="M0 0h1920v673H0z"/><path class="st1" d="M938 452.3h44v69h-44v-69z"/><path class="st1" d="M1111.4 519.6c-.8-.8-2.3-1.4-3.4-1.4H812c-1.1 0-2.6.6-3.4 1.4l-18.2 18.2c-.8.8-.5 1.4.6 1.4h338c1.1 0 1.4-.6.6-1.4l-18.2-18.2z"/><path d="M969 457.3c0 1.1-.9 2-2 2h-14c-1.1 0-2-.9-2-2v-1c0-1.1.9-2 2-2h14c1.1 0 2 .9 2 2v1z" fill="#b24b53"/><path d="M932 442.3c0-1.1.9-2 2-2h52c1.1 0 2 .9 2 2v9c0 1.1-.9 2-2 2h-52c-1.1 0-2-.9-2-2v-9z" fill="#a6a3a1"/><path class="st1" d="M709 133.8c-2.8 0-5 2.3-5 5V436c0 2.8 2.3 5 5 5h502c2.8 0 5-2.3 5-5V138.8c0-2.8-2.3-5-5-5H709z"/><path d="M1193.7 412.4c0 2.8-2.3 5-5 5H731.4c-2.8 0-5-2.3-5-5V159.8c0-2.8 2.3-5 5-5h457.3c2.8 0 5 2.3 5 5v252.6z" fill="#47475e"/><path d="m1110.3 154.8-318 262.5h175.6l187.6-262.5h-45.2z" fill="#3c3b4b"/><path d="M732.9 154.8c-3.5 0-6.6 2.9-6.6 6.6v249.4c0 3.5 2.9 6.6 6.6 6.6h59.4l318-262.5-377.4-.1z" fill="#626276"/><path class="st7" d="M1127 229.3v97.6l-85.2-12.7 85.2 28.7 28.4-11.8v-90z"/><path class="st7" d="m1071.1 284 26.1 25.8 15.6-6.6v-50.6l-15.6-6.6-26.1 25.8-15.7-11.9-6.5 2.2v31.6l6.5 2.2 15.7-11.9zm26.1-19.7v27.1l-18-13.5 18-13.6zm-41.9 4.1 9.5 9.4-9.5 9.4v-18.8z"/></svg>