<svg xmlns="http://www.w3.org/2000/svg" viewBox="0 0 1920 673" xml:space="preserve"><style>.st1{fill:#36434f}</style><path fill="#371b57" d="M0 0h1920v673H0z"/><path class="st1" d="M928.5 581h63.1v92h-63.1v-92z"/><path d="M973 588.2c0 1.6-1.3 2.9-2.9 2.9h-20c-1.6 0-2.9-1.3-2.9-2.9v-1.4c0-1.6 1.3-2.9 2.9-2.9h20c1.6 0 2.9 1.3 2.9 2.9v1.4z" fill="#b24b53"/><path d="M919.9 566.7c0-1.6 1.3-2.9 2.9-2.9h74.5c1.6 0 2.9 1.3 2.9 2.9v13c0 1.6-1.3 2.9-2.9 2.9h-74.5c-1.6 0-2.9-1.3-2.9-2.9v-13z" fill="#2b353f"/><path class="st1" d="M600.3 124.7c-4 0-7.2 3.2-7.2 7.2v425.9c0 4 3.2 7.2 7.2 7.2h719.3c4 0 7.2-3.2 7.2-7.2v-426c0-4-3.2-7.2-7.2-7.2H600.3v.1z"/><path d="M1294.8 523.8c0 4-3.2 7.2-7.2 7.2H632.4c-4 0-7.2-3.2-7.2-7.2V161.9c0-4 3.2-7.2 7.2-7.2h655.3c4 0 7.2 3.2 7.2 7.2l-.1 361.9z" fill="#5c2d91"/><path d="m859 414-25.5-8.5V280.2l25.5-8.5 62.2 46.9 103.3-102.2 61.9 26.3V443l-61.9 26.3-103.3-102.2L859 414zm94.3-71.3 71 53.7V289.3l-71 53.4zM859 380l37.5-37.3-37.5-37V380z" fill="#fff"/></svg>