<svg xmlns="http://www.w3.org/2000/svg" viewBox="0 0 1920 673" xml:space="preserve"><style>.st5{fill:#999}</style><path fill="#394145" d="M0 0h1920v673H0z"/><path d="m1356.1 568.9-15.9-5.3v-78.3l15.9-5.3 38.9 29.3 64.6-63.9 38.7 16.4V587l-38.7 16.4-64.6-63.9-38.9 29.4zm58.9-44.5 44.4 33.6v-67l-44.4 33.4zm-58.9 23.3 23.5-23.3-23.5-23.1v46.4z" fill="#fff"/><path d="M786 45.3h381v582.4H786V45.3z" fill="#ddd"/><path d="M753 45.3h33v582.4h-33V45.3z" fill="#122a3a"/><path d="M887.2 321.7h178.6v5.7H887.2v-5.7zm0-19.3h178.6v5.7H887.2v-5.7zm0-19.4h178.6v5.7H887.2V283zm0-19.3h178.6v5.7H887.2v-5.7z" opacity=".7" fill="#999"/><path class="st5" d="M903.1 231.8h146.7v17.1H903.1v-17.1z"/><path class="st5" d="M1103.3 364.4H849.7V196h253.7v168.4zm-248-5.7h242.3v-157H855.3v157z"/></svg>