<svg xmlns="http://www.w3.org/2000/svg" viewBox="0 0 1920 673" xml:space="preserve"><path fill="#19a5a5" d="M0 0h1920v673H0z"/><path d="M741.8 626.5 625.2 424.7 843.4 46.5 960 248.3 741.8 626.5z" fill="#0da960"/><radialGradient id="a" cx="598.974" cy="-93.113" r="399.73" gradientTransform="scale(3.2644 -3.2644) rotate(-30 470.713 39.05)" gradientUnits="userSpaceOnUse"><stop offset="0" stop-color="#4387fd"/><stop offset=".65" stop-color="#3078f0"/><stop offset=".91" stop-color="#2b72ea"/><stop offset="1" stop-color="#286ee6"/></radialGradient><path d="m741.8 626.5 116.6-201.8h436.4l-116.6 201.8H741.8z" fill="url(#a)"/><radialGradient id="b" cx="598.986" cy="-93.118" r="399.704" gradientTransform="scale(3.2644 -3.2644) rotate(-30 470.713 39.05)" gradientUnits="userSpaceOnUse"><stop offset="0" stop-color="#ffd24d"/><stop offset="1" stop-color="#f6c338"/></radialGradient><path d="M1294.8 424.7h-233.2L843.4 46.5h233.2l218.2 378.2z" fill="url(#b)"/><path d="M960 424.7H858.4l50.6-88.2-167.2 290L960 424.7z" fill="#2d6fdd"/><path d="M1061.6 424.7h233.2l-283.7-88.2 50.5 88.2z" fill="#e5b93c"/><path d="m908.9 336.5 51.1-88.2L843.4 46.5l65.5 290z" fill="#0c9b57"/></svg>