<svg xmlns="http://www.w3.org/2000/svg" viewBox="0 0 1920 673" xml:space="preserve"><style>.st1{fill:#fff}</style><path fill="#3d971e" d="M0 0h1920v673H0z"/><path class="st1" d="M694.6 336.5c0 105 61 195.8 149.6 238.8L717.6 228.5c-14.7 33-23 69.5-23 108zm444.5-13.4c0-32.8-11.8-55.5-21.9-73.2-13.5-21.9-26.1-40.4-26.1-62.2 0-24.4 18.5-47.1 44.6-47.1 1.2 0 2.3.1 3.4.2-47.1-43.2-110-69.7-179.1-69.7-92.7 0-174.3 47.6-221.7 119.6 6.2.2 12.1.3 17.1.3 27.8 0 70.7-3.4 70.7-3.4 14.3-.8 16 20.2 1.7 21.9 0 0-14.4 1.7-30.4 2.5L894 499.5l58.1-174.2L910.8 212c-14.3-.8-27.8-2.5-27.8-2.5-14.3-.8-12.6-22.7 1.7-21.9 0 0 43.8 3.4 69.9 3.4 27.8 0 70.7-3.4 70.7-3.4 14.3-.8 16 20.2 1.7 21.9 0 0-14.4 1.7-30.4 2.5l95.9 285.3 26.5-88.4c11.4-36.7 20.1-63.1 20.1-85.8z"/><path class="st1" d="M964.6 359.7 885 591.1c23.8 7 48.9 10.8 75 10.8 30.9 0 60.5-5.3 88.1-15-.7-1.1-1.4-2.3-1.9-3.7l-81.6-223.5zm228.2-150.5c1.1 8.5 1.8 17.5 1.8 27.3 0 26.9-5 57.2-20.2 95l-81.1 234.4c78.9-46 132-131.5 132-229.4 0-46.1-11.7-89.5-32.5-127.3z"/><path class="st1" d="M960 27.2c-170.6 0-309.3 138.8-309.3 309.3 0 170.6 138.8 309.3 309.3 309.3 170.6 0 309.3-138.8 309.3-309.3 0-170.6-138.8-309.3-309.3-309.3zm0 604.4c-162.7 0-295.1-132.4-295.1-295.2 0-162.7 132.4-295.1 295.1-295.1 162.7 0 295.1 132.4 295.1 295.1 0 162.8-132.4 295.2-295.1 295.2z"/></svg>