<svg xmlns="http://www.w3.org/2000/svg" viewBox="0 0 1920 673" xml:space="preserve"><style>.st2{fill:#fff}.st3{fill:#826049}.st4{fill:#338738}.st5{opacity:.15;fill:#444;enable-background:new}</style><path fill="#0099bc" d="M0 0h1920v673H0z"/><path class="st2" d="M402.6 423.4c-15.8 17.6-39 31.7-69.4 42.5S269.3 482 233 482c-55.9 0-100.5-17.1-133.9-51.3-33.4-34.1-51.3-81.7-53.6-142.6l-.3-36.9c0-42 7.4-78.7 22.3-110 14.8-31.3 36.1-55.5 63.7-72.4 27.6-16.9 59.6-25.3 95.9-25.3 53.1 0 94.4 12.2 123.8 36.5 29.4 24.3 46.5 60.6 51.4 108.8h-99c-3.5-23.8-11.1-40.8-22.9-51-11.7-10.2-28.3-15.2-49.8-15.2-25.8 0-45.7 10.9-59.8 32.8-14.1 21.9-21.2 53.1-21.4 93.8V275c0 42.6 7.3 74.6 21.8 95.9 14.5 21.4 37.4 32.1 68.7 32.1 26.8 0 46.7-6 59.8-17.9v-66.2h-71.5v-70.6h174.3v175.1zm54.5-346c0-14.1 5.1-25.6 15.2-34.6 10.2-9 23.3-13.5 39.6-13.5 16.2 0 29.4 4.5 39.6 13.5 10.2 9 15.2 20.5 15.2 34.6s-5.1 25.6-15.2 34.6c-10.2 9-23.3 13.5-39.6 13.5-16.2 0-29.4-4.5-39.6-13.5-10.1-9-15.2-20.5-15.2-34.6zM562 476.2h-99v-317h99v317zM737.8 80.4v78.8h52.1v68.6h-52.1v145c0 11.9 2.1 20.2 6.4 24.9 4.3 4.7 12.8 7 25.5 7 9.8 0 18-.6 24.6-1.8v70.6c-17.8 5.7-36.3 8.5-55.7 8.5-34 0-59.1-8-75.3-24-16.2-16-24.3-40.3-24.3-72.9V227.7h-40.4v-68.6H639V80.4h98.8zm452 395.8h-102.2V298H936.1v178.1H833.3V49.6h102.8v169.3h151.5V49.6h102.2v426.6zm249.4-34.3c-20.9 26.8-49.1 40.1-84.7 40.1-34.8 0-61.1-10.1-79-30.3s-26.8-49.3-26.8-87.2V159.2h98.7v206c0 27.2 13.2 40.7 39.6 40.7 22.7 0 38.8-8.1 48.3-24.3V159.2h99.3v317H1442l-2.8-34.3zM1883 320.3c0 52-10.7 91.9-32.2 119.8C1829.3 468 1799 482 1760 482c-32.2 0-58.2-12.8-77.9-38.4l-4.1 32.5h-88.5v-450h98.7v158.5c18.4-20.9 42.1-31.3 71.2-31.3 39.5 0 69.9 14.2 91.4 42.5S1883 264 1883 315.3v5zm-99-6.3c0-30.4-4.1-52.1-12.2-65.1-8.1-13-20.6-19.5-37.4-19.5-22.3 0-37.7 8.5-46.3 25.4v125.8c8.4 16.8 24 25.2 46.9 25.2 23.2 0 38-11.3 44.2-33.9 3.2-11.1 4.8-30.4 4.8-57.9z" opacity=".1"/><path class="st3" d="M708 673h-15.1c-3.6 0-6.6-3-6.6-6.6v-39.9h28.4v39.9c-.1 3.6-3.1 6.6-6.7 6.6z"/><path class="st4" d="M828.7 557.6c17.8-5.3 34.5-15.6 48.4-31.1 10.7-11.8 18.7-25.4 24-40-22.7 10.1-47.8 11.4-71.1 4 9.7-5.3 18.9-12.4 27.1-21.3 9.8-10.8 17.2-23.4 22.1-36.9-23.8 10.6-50.4 10.7-74.3.4 9.9-4.9 19.3-11.8 27.5-20.9 9.1-9.9 15.8-21.6 20.3-33.8-22 9.8-46.9 9.8-68.9 0 8.6-4.4 16.6-10.5 23.7-18.4 8.2-9.1 14.4-19.6 18.5-30.7-19.3 8.6-41.1 8.8-60.7.9 8.1-4 15.7-9.7 22.4-17 7.4-8.2 12.9-17.6 16.6-27.6-16.8 7.4-35.5 8-52.5 1.5 7.6-3.5 14.7-8.7 20.9-15.6 6.5-7.2 11.5-15.6 14.7-24.5-14.8 6.5-31.3 7.1-46.3 1.5 6.4-3.1 12.5-7.6 17.8-13.5 5.7-6.3 10.1-13.6 12.8-21.4-12.7 5.6-27 6.2-40 1.5 5.4-2.7 10.4-6.4 14.8-11.3 4.9-5.4 8.6-11.7 11.1-18.4-10.7 4.8-22.6 5.3-33.5 1.5 4.3-2.2 8.4-5.3 11.9-9.2 4.1-4.5 7.2-9.7 9.2-15.3-8.5 3.8-18 4.3-26.9 1.5 3.3-1.8 6.4-4.1 9.2-7.2 3.2-3.5 5.6-7.7 7.3-12.2-6.4 2.9-13.4 3.3-20 1.7 2.3-1.3 4.5-3 6.4-5.1 2.4-2.7 4.2-5.7 5.4-9.1h-.1c-6.3 2.8-13.8.6-17.9-5-.6-.7-1-1.4-1.5-2.2-4.5-7.3-6.7-17.7-6.7-17.7s-2.2 10.4-7 17.8c-.6.8-1 1.5-1.5 2.2-4.1 5.5-11.5 7.7-17.9 5h-.1c1.2 3.3 3 6.4 5.4 9.1 1.9 2.1 4.1 3.8 6.4 5.1-6.6 1.7-13.6 1.1-20-1.7 1.7 4.4 4.1 8.6 7.3 12.2 2.8 3 5.9 5.4 9.2 7.2-8.8 2.8-18.2 2.2-26.9-1.5 2 5.5 5.1 10.7 9.2 15.3 3.5 4 7.6 7 11.9 9.2-10.9 3.8-22.8 3.2-33.5-1.5 2.4 6.6 6.1 12.9 11.1 18.4 4.4 4.9 9.5 8.6 14.8 11.3-13 4.6-27.2 4.2-40-1.5 2.9 7.8 7.2 15.1 12.8 21.4 5.3 5.9 11.4 10.3 17.8 13.5-15 5.5-31.5 5.1-46.3-1.5 3.3 9 8.2 17.2 14.7 24.5 6.2 6.9 13.4 12 20.9 15.6-17 6.4-35.7 5.9-52.5-1.5 3.6 10.1 9.2 19.5 16.6 27.6 6.6 7.3 14.3 13 22.4 17-19.6 8.1-41.2 7.7-60.7-.9 4.1 11.2 10.3 21.7 18.5 30.7 7.1 7.8 15.1 13.9 23.7 18.4-22 9.7-46.9 9.7-68.9 0 4.5 12.3 11.3 23.9 20.3 33.8 8.2 9.1 17.5 15.9 27.5 20.9-23.9 10.3-50.5 10.2-74.3-.4 4.9 13.4 12.3 26 22.1 36.9 8.1 9 17.2 16 27.1 21.3-23.3 7.4-48.4 6.1-71.1-4 5.3 14.6 13.4 28.2 24 40 13.9 15.4 30.7 25.8 48.4 31.1-27.5 11.4-58 11.1-85.3-1.1 5.7 15.7 14.4 30.4 25.9 43.1 23.1 25.5 53.5 38.1 83.8 37.9H804c30.3.2 60.7-12.4 83.8-37.9 11.5-12.7 20.1-27.4 25.9-43.1-27 12-57.5 12.4-85 1z"/><path class="st5" d="M693.4 124.8c-.6.8-1 1.5-1.5 2.2-4.1 5.5-11.5 7.7-17.9 5h-.1c1.2 3.3 3 6.4 5.4 9.1 1.9 2.1 4.1 3.8 6.4 5.1-6.6 1.7-13.6 1.1-20-1.7 1.7 4.4 4.1 8.6 7.3 12.2 2.8 3 5.9 5.4 9.2 7.2-8.8 2.8-18.2 2.2-26.9-1.5 2 5.5 5.1 10.7 9.2 15.3 3.5 4 7.6 7 11.9 9.2-10.9 3.8-22.8 3.2-33.5-1.5 2.4 6.6 6.1 12.9 11.1 18.4 4.4 4.9 9.5 8.6 14.8 11.3-13 4.6-27.2 4.2-40-1.5 2.9 7.8 7.2 15.1 12.8 21.4 5.3 5.9 11.4 10.3 17.8 13.5-15 5.5-31.5 5.1-46.3-1.5 3.3 9 8.2 17.2 14.7 24.5 6.2 6.9 13.4 12 20.9 15.6-17 6.4-35.7 5.9-52.5-1.5 3.6 10.1 9.2 19.5 16.6 27.6 6.6 7.3 14.3 13 22.4 17-19.6 8.1-41.2 7.7-60.7-.9 4.1 11.2 10.3 21.7 18.5 30.7 7.1 7.8 15.1 13.9 23.7 18.4-22 9.7-46.9 9.7-68.9 0 4.5 12.3 11.3 23.9 20.3 33.8 8.2 9.1 17.5 15.9 27.5 20.9-23.9 10.3-50.5 10.2-74.3-.4 4.9 13.4 12.3 26 22.1 36.9 8.1 9 17.2 16 27.1 21.3-23.3 7.4-48.4 6.1-71.1-4 5.3 14.6 13.4 28.2 24 40 13.9 15.4 30.7 25.8 48.4 31.1-27.5 11.4-58 11.1-85.3-1.1 5.7 15.7 14.4 30.4 25.9 43.1 23.1 25.5 53.5 38.1 83.8 37.9H686v28.7c0 3.6 3 6.6 6.6 6.6h7.6V107c.1 0-2.1 10.4-6.8 17.8z"/><path class="st3" d="M968 673h-15.1c-3.6 0-6.6-3-6.6-6.6v-39.9h28.4v39.9c-.1 3.6-3.1 6.6-6.7 6.6z"/><path class="st4" d="M1088.7 557.6c17.8-5.3 34.5-15.6 48.4-31.1 10.7-11.8 18.7-25.4 24-40-22.7 10.1-47.8 11.4-71.1 4 9.7-5.3 18.9-12.4 27.1-21.3 9.8-10.8 17.2-23.4 22.1-36.9-23.8 10.6-50.4 10.7-74.3.4 9.9-4.9 19.3-11.8 27.5-20.9 9.1-9.9 15.8-21.6 20.3-33.8-22 9.8-46.9 9.8-68.9 0 8.6-4.4 16.6-10.5 23.7-18.4 8.2-9.1 14.4-19.6 18.5-30.7-19.3 8.6-41.1 8.8-60.7.9 8.1-4 15.7-9.7 22.4-17 7.4-8.2 12.9-17.6 16.6-27.6-16.8 7.4-35.5 8-52.5 1.5 7.6-3.5 14.7-8.7 20.9-15.6 6.5-7.2 11.5-15.6 14.7-24.5-14.8 6.5-31.3 7.1-46.3 1.5 6.4-3.1 12.5-7.6 17.8-13.5 5.7-6.3 10.1-13.6 12.8-21.4-12.7 5.6-27 6.2-40 1.5 5.4-2.7 10.4-6.4 14.8-11.3 4.9-5.4 8.6-11.7 11.1-18.4-10.7 4.8-22.6 5.3-33.5 1.5 4.3-2.2 8.4-5.3 11.9-9.2 4.1-4.5 7.2-9.7 9.2-15.3-8.5 3.8-18 4.3-26.9 1.5 3.3-1.8 6.4-4.1 9.2-7.2 3.2-3.5 5.6-7.7 7.3-12.2-6.4 2.9-13.4 3.3-20 1.7 2.3-1.3 4.5-3 6.4-5.1 2.4-2.7 4.2-5.7 5.4-9.1h-.1c-6.3 2.8-13.8.6-17.9-5-.6-.7-1-1.4-1.5-2.2-4.5-7.3-6.7-17.7-6.7-17.7s-2.2 10.4-7 17.8c-.6.8-1 1.5-1.5 2.2-4.1 5.5-11.5 7.7-17.9 5h-.1c1.2 3.3 3 6.4 5.4 9.1 1.9 2.1 4.1 3.8 6.4 5.1-6.6 1.7-13.6 1.1-20-1.7 1.7 4.4 4.1 8.6 7.3 12.2 2.8 3 5.9 5.4 9.2 7.2-8.8 2.8-18.2 2.2-26.9-1.5 2 5.5 5.1 10.7 9.2 15.3 3.5 4 7.6 7 11.9 9.2-10.9 3.8-22.8 3.2-33.5-1.5 2.4 6.6 6.1 12.9 11.1 18.4 4.4 4.9 9.5 8.6 14.8 11.3-13 4.6-27.2 4.2-40-1.5 2.9 7.8 7.2 15.1 12.8 21.4 5.3 5.9 11.4 10.3 17.8 13.5-15 5.5-31.5 5.1-46.3-1.5 3.3 9 8.2 17.2 14.7 24.5 6.2 6.9 13.4 12 20.9 15.6-17 6.4-35.7 5.9-52.5-1.5 3.6 10.1 9.2 19.5 16.6 27.6 6.6 7.3 14.3 13 22.4 17-19.6 8.1-41.2 7.7-60.7-.9 4.1 11.2 10.3 21.7 18.5 30.7 7.1 7.8 15.1 13.9 23.7 18.4-22 9.7-46.9 9.7-68.9 0 4.5 12.3 11.3 23.9 20.3 33.8 8.2 9.1 17.5 15.9 27.5 20.9-23.9 10.3-50.5 10.2-74.3-.4 4.9 13.4 12.3 26 22.1 36.9 8.1 9 17.2 16 27.1 21.3-23.3 7.4-48.4 6.1-71.1-4 5.3 14.6 13.4 28.2 24 40 13.9 15.4 30.7 25.8 48.4 31.1-27.5 11.4-58 11.1-85.3-1.1 5.7 15.7 14.4 30.4 25.9 43.1 23.1 25.5 53.5 38.1 83.8 37.9H1064c30.3.2 60.7-12.4 83.8-37.9 11.5-12.7 20.1-27.4 25.9-43.1-27 12-57.5 12.4-85 1z"/><path class="st5" d="M953.4 124.8c-.6.8-1 1.5-1.5 2.2-4.1 5.5-11.5 7.7-17.9 5h-.1c1.2 3.3 3 6.4 5.4 9.1 1.9 2.1 4.1 3.8 6.4 5.1-6.6 1.7-13.6 1.1-20-1.7 1.7 4.4 4.1 8.6 7.3 12.2 2.8 3 5.9 5.4 9.2 7.2-8.8 2.8-18.2 2.2-26.9-1.5 2 5.5 5.1 10.7 9.2 15.3 3.5 4 7.6 7 11.9 9.2-10.9 3.8-22.8 3.2-33.5-1.5 2.4 6.6 6.1 12.9 11.1 18.4 4.4 4.9 9.5 8.6 14.8 11.3-13 4.6-27.2 4.2-40-1.5 2.9 7.8 7.2 15.1 12.8 21.4 5.3 5.9 11.4 10.3 17.8 13.5-15 5.5-31.5 5.1-46.3-1.5 3.3 9 8.2 17.2 14.7 24.5 6.2 6.9 13.4 12 20.9 15.6-17 6.4-35.7 5.9-52.5-1.5 3.6 10.1 9.2 19.5 16.6 27.6 6.6 7.3 14.3 13 22.4 17-19.6 8.1-41.2 7.7-60.7-.9 4.1 11.2 10.3 21.7 18.5 30.7 7.1 7.8 15.1 13.9 23.7 18.4-22 9.7-46.9 9.7-68.9 0 4.5 12.3 11.3 23.9 20.3 33.8 8.2 9.1 17.5 15.9 27.5 20.9-23.9 10.3-50.5 10.2-74.3-.4 4.9 13.4 12.3 26 22.1 36.9 8.1 9 17.2 16 27.1 21.3-23.3 7.4-48.4 6.1-71.1-4 5.3 14.6 13.4 28.2 24 40 13.9 15.4 30.7 25.8 48.4 31.1-27.5 11.4-58 11.1-85.3-1.1 5.7 15.7 14.4 30.4 25.9 43.1 23.1 25.5 53.5 38.1 83.8 37.9H946v28.7c0 3.6 3 6.6 6.6 6.6h7.6V107c.1 0-2.1 10.4-6.8 17.8z"/><path class="st2" d="M412.5 371.9c0-10.4 1.7-19.6 5.1-27.6s8.3-14.2 14.8-18.5c6.4-4.3 13.9-6.5 22.4-6.5 10.7 0 19.1 3.6 25.1 10.9l1.1-9h29.1v99.1c0 9.1-2.1 17-6.3 23.7-4.2 6.7-10.3 11.8-18.3 15.4-8 3.6-17.3 5.4-27.8 5.4-7.6 0-14.9-1.4-21.9-4.3-7.1-2.9-12.5-6.6-16.2-11.1l13.4-18.9c6 7 13.8 10.6 23.6 10.6 14.2 0 21.3-7.3 21.3-21.9V416c-6.2 6.8-13.9 10.2-23.3 10.2-12.6 0-22.7-4.8-30.5-14.4-7.7-9.6-11.6-22.5-11.6-38.6v-1.3zm32.2 2c0 8.4 1.6 15.1 4.8 20 3.2 4.9 7.6 7.4 13.3 7.4 6.9 0 12-2.3 15.1-7V351c-3.1-4.7-8.1-7-14.9-7-5.7 0-10.2 2.6-13.4 7.7-3.3 5.1-4.9 12.5-4.9 22.2zm83.5-79.3c0-4.6 1.6-8.3 5-11.2 3.3-2.9 7.6-4.4 12.9-4.4 5.3 0 9.6 1.5 12.9 4.4 3.3 2.9 5 6.7 5 11.2s-1.7 8.3-5 11.2c-3.3 2.9-7.6 4.4-12.9 4.4-5.3 0-9.6-1.5-12.9-4.4-3.4-2.9-5-6.6-5-11.2zm34.1 129.6h-32.2v-103h32.2v103zm57.1-128.7v25.6h16.9v22.3h-16.9v47.1c0 3.9.7 6.6 2.1 8.1 1.4 1.5 4.2 2.3 8.3 2.3 3.2 0 5.8-.2 8-.6v22.9C632 425 626 426 619.7 426c-11 0-19.2-2.6-24.5-7.8-5.3-5.2-7.9-13.1-7.9-23.7v-51.1h-13.1v-22.3h13.1v-25.6h32.1zm92.3 81.3h-57.2V352h57.2v24.8zm113.9 5.1 10.4-60.7h30.8l-24.3 103h-27.1l-17-61.1-17.1 61.1H754l-24.3-103h30.8l10.2 62.2 16.4-62.2h22.4l16.1 60.7zm48.6-10.2c0-10.3 2-19.4 6-27.5 4-8 9.7-14.2 17.2-18.5 7.5-4.3 16.3-6.5 26.4-6.5 15.4 0 27.6 4.8 36.5 14.3 8.9 9.6 13.3 22.6 13.3 39v1.1c0 16.1-4.5 28.8-13.4 38.2-8.9 9.4-21 14.1-36.2 14.1-14.7 0-26.4-4.4-35.3-13.2-8.9-8.8-13.7-20.7-14.4-35.8l-.1-5.2zm32.1 2c0 9.5 1.5 16.5 4.5 20.9 3 4.4 7.4 6.7 13.2 6.7 11.4 0 17.3-8.8 17.5-26.4v-3.2c0-18.5-5.9-27.7-17.7-27.7-10.7 0-16.5 8-17.4 23.9l-.1 5.8zm143.7-23.5-10.6-.8c-10.1 0-16.6 3.2-19.4 9.5v65.2h-32v-103h30.1l1 13.2c5.4-10.1 12.9-15.1 22.6-15.1 3.4 0 6.4.4 8.9 1.1l-.6 29.9zm53 35.6-9 9v29.3h-32.1V277.8h32.1v77.7l3.2-4.3 24.2-30.1h38.5l-36.1 42.4 38.5 60.7h-36.8l-22.5-38.4z"/><path class="st2" d="M1205.6 295.5v25.6h16.9v22.3h-16.9v47.1c0 3.9.7 6.6 2.1 8.1 1.4 1.5 4.2 2.3 8.3 2.3 3.2 0 5.8-.2 8-.6v22.9c-5.8 1.8-11.8 2.8-18.1 2.8-11 0-19.2-2.6-24.5-7.8-5.3-5.2-7.9-13.1-7.9-23.7v-51.1h-13.1v-22.3h13.1v-25.6h32.1zm91.9 54.7-10.6-.8c-10.1 0-16.6 3.2-19.4 9.5v65.2h-32.1v-103h30.1l1 13.2c5.4-10.1 12.9-15.1 22.6-15.1 3.4 0 6.4.4 8.9 1.1l-.5 29.9zm59.6 75.9c-15.8 0-28.6-4.7-38.4-14.1-9.8-9.4-14.7-21.7-14.7-36.8v-2.7c0-10.5 2-19.8 5.9-27.9 3.9-8.1 9.6-14.3 17.1-18.7 7.5-4.4 16.4-6.6 26.7-6.6 14.5 0 25.9 4.5 34.3 13.5 8.4 9 12.6 21.5 12.6 37.6v12.5h-63.8c1.1 5.8 3.6 10.3 7.5 13.6 3.9 3.3 8.9 5 15 5 10.2 0 18.1-3.6 23.8-10.7l14.7 17.3c-4 5.5-9.7 9.9-17 13.2-7.4 3.1-15.2 4.8-23.7 4.8zm-3.6-82.1c-9.4 0-15 6.2-16.8 18.7h32.4v-2.5c.1-5.1-1.2-9.1-3.9-11.9-2.7-2.9-6.6-4.3-11.7-4.3zm109.8 82.1c-15.8 0-28.6-4.7-38.4-14.1-9.8-9.4-14.7-21.7-14.7-36.8v-2.7c0-10.5 2-19.8 5.9-27.9 3.9-8.1 9.6-14.3 17.1-18.7 7.5-4.4 16.4-6.6 26.7-6.6 14.5 0 25.9 4.5 34.3 13.5 8.4 9 12.6 21.5 12.6 37.6v12.5H1443c1.1 5.8 3.6 10.3 7.5 13.6 3.9 3.3 8.9 5 15 5 10.2 0 18.1-3.6 23.8-10.7l14.7 17.3c-4 5.5-9.7 9.9-17 13.2-7.4 3.1-15.3 4.8-23.7 4.8zm-3.6-82.1c-9.4 0-15 6.2-16.8 18.7h32.4v-2.5c.1-5.1-1.2-9.1-3.9-11.9-2.8-2.9-6.7-4.3-11.7-4.3z"/><path class="st3" d="M1228 673h-15.1c-3.6 0-6.6-3-6.6-6.6v-39.9h28.4v39.9c-.1 3.6-3.1 6.6-6.7 6.6z"/><path class="st4" d="M1348.7 557.6c17.8-5.3 34.5-15.6 48.4-31.1 10.7-11.8 18.7-25.4 24-40-22.7 10.1-47.8 11.4-71.1 4 9.7-5.3 18.9-12.4 27.1-21.3 9.8-10.8 17.2-23.4 22.1-36.9-23.8 10.6-50.4 10.7-74.3.4 9.9-4.9 19.3-11.8 27.5-20.9 9.1-9.9 15.8-21.6 20.3-33.8-22 9.8-46.9 9.8-68.9 0 8.6-4.4 16.6-10.5 23.7-18.4 8.2-9.1 14.4-19.6 18.5-30.7-19.3 8.6-41.1 8.8-60.7.9 8.1-4 15.7-9.7 22.4-17 7.4-8.2 12.9-17.6 16.6-27.6-16.8 7.4-35.5 8-52.5 1.5 7.6-3.5 14.7-8.7 20.9-15.6 6.5-7.2 11.5-15.6 14.7-24.5-14.8 6.5-31.3 7.1-46.3 1.5 6.4-3.1 12.5-7.6 17.8-13.5 5.7-6.3 10.1-13.6 12.8-21.4-12.7 5.6-27 6.2-40 1.5 5.4-2.7 10.4-6.4 14.8-11.3 4.9-5.4 8.6-11.7 11.1-18.4-10.7 4.8-22.6 5.3-33.5 1.5 4.3-2.2 8.4-5.3 11.9-9.2 4.1-4.5 7.2-9.7 9.2-15.3-8.5 3.8-18 4.3-26.9 1.5 3.3-1.8 6.4-4.1 9.2-7.2 3.2-3.5 5.6-7.7 7.3-12.2-6.4 2.9-13.4 3.3-20 1.7 2.3-1.3 4.5-3 6.4-5.1 2.4-2.7 4.2-5.7 5.4-9.1h-.1c-6.3 2.8-13.8.6-17.9-5-.6-.7-1-1.4-1.5-2.2-4.5-7.3-6.7-17.7-6.7-17.7s-2.2 10.4-7 17.8c-.6.8-1 1.5-1.5 2.2-4.1 5.5-11.5 7.7-17.9 5h-.1c1.2 3.3 3 6.4 5.4 9.1 1.9 2.1 4.1 3.8 6.4 5.1-6.6 1.7-13.6 1.1-20-1.7 1.7 4.4 4.1 8.6 7.3 12.2 2.8 3 5.9 5.4 9.2 7.2-8.8 2.8-18.2 2.2-26.9-1.5 2 5.5 5.1 10.7 9.2 15.3 3.5 4 7.6 7 11.9 9.2-10.9 3.8-22.8 3.2-33.5-1.5 2.4 6.6 6.1 12.9 11.1 18.4 4.4 4.9 9.5 8.6 14.8 11.3-13 4.6-27.2 4.2-40-1.5 2.9 7.8 7.2 15.1 12.8 21.4 5.3 5.9 11.4 10.3 17.8 13.5-15 5.5-31.5 5.1-46.3-1.5 3.3 9 8.2 17.2 14.7 24.5 6.2 6.9 13.4 12 20.9 15.6-17 6.4-35.7 5.9-52.5-1.5 3.6 10.1 9.2 19.5 16.6 27.6 6.6 7.3 14.3 13 22.4 17-19.6 8.1-41.2 7.7-60.7-.9 4.1 11.2 10.3 21.7 18.5 30.7 7.1 7.8 15.1 13.9 23.7 18.4-22 9.7-46.9 9.7-68.9 0 4.5 12.3 11.3 23.9 20.3 33.8 8.2 9.1 17.5 15.9 27.5 20.9-23.9 10.3-50.5 10.2-74.3-.4 4.9 13.4 12.3 26 22.1 36.9 8.1 9 17.2 16 27.1 21.3-23.3 7.4-48.4 6.1-71.1-4 5.3 14.6 13.4 28.2 24 40 13.9 15.4 30.7 25.8 48.4 31.1-27.5 11.4-58 11.1-85.3-1.1 5.7 15.7 14.4 30.4 25.9 43.1 23.1 25.5 53.5 38.1 83.8 37.9H1324c30.3.2 60.7-12.4 83.8-37.9 11.5-12.7 20.1-27.4 25.9-43.1-27 12-57.5 12.4-85 1z"/><path class="st5" d="M1213.4 124.8c-.6.8-1 1.5-1.5 2.2-4.1 5.5-11.5 7.7-17.9 5h-.1c1.2 3.3 3 6.4 5.4 9.1 1.9 2.1 4.1 3.8 6.4 5.1-6.6 1.7-13.6 1.1-20-1.7 1.7 4.4 4.1 8.6 7.3 12.2 2.8 3 5.9 5.4 9.2 7.2-8.8 2.8-18.2 2.2-26.9-1.5 2 5.5 5.1 10.7 9.2 15.3 3.5 4 7.6 7 11.9 9.2-10.9 3.8-22.8 3.2-33.5-1.5 2.4 6.6 6.1 12.9 11.1 18.4 4.4 4.9 9.5 8.6 14.8 11.3-13 4.6-27.2 4.2-40-1.5 2.9 7.8 7.2 15.1 12.8 21.4 5.3 5.9 11.4 10.3 17.8 13.5-15 5.5-31.5 5.1-46.3-1.5 3.3 9 8.2 17.2 14.7 24.5 6.2 6.9 13.4 12 20.9 15.6-17 6.4-35.7 5.9-52.5-1.5 3.6 10.1 9.2 19.5 16.6 27.6 6.6 7.3 14.3 13 22.4 17-19.6 8.1-41.2 7.7-60.7-.9 4.1 11.2 10.3 21.7 18.5 30.7 7.1 7.8 15.1 13.9 23.7 18.4-22 9.7-46.9 9.7-68.9 0 4.5 12.3 11.3 23.9 20.3 33.8 8.2 9.1 17.5 15.9 27.5 20.9-23.9 10.3-50.5 10.2-74.3-.4 4.9 13.4 12.3 26 22.1 36.9 8.1 9 17.2 16 27.1 21.3-23.3 7.4-48.4 6.1-71.1-4 5.3 14.6 13.4 28.2 24 40 13.9 15.4 30.7 25.8 48.4 31.1-27.5 11.4-58 11.1-85.3-1.1 5.7 15.7 14.4 30.4 25.9 43.1 23.1 25.5 53.5 38.1 83.8 37.9h89.8v28.7c0 3.6 3 6.6 6.6 6.6h7.6V107c.1 0-2.1 10.4-6.8 17.8z"/></svg>