<svg xmlns="http://www.w3.org/2000/svg" viewBox="0 0 1920 673" xml:space="preserve"><style>.st4{fill:#fff}</style><path fill="#eb2d2e" d="M0 0h1920v673H0z"/><path class="st4" d="M949.8 367.3c-1.4 19.9-8.8 35.5-22 47-13.2 11.4-30.7 17.1-52.4 17.1-23.7 0-42.3-8-55.9-23.9-13.6-16-20.4-37.9-20.4-65.7v-11.3c0-17.8 3.1-33.4 9.4-47 6.3-13.5 15.2-23.9 26.9-31.2 11.6-7.2 25.2-10.9 40.6-10.9 21.3 0 38.5 5.7 51.5 17.1 13 11.4 20.6 27.5 22.6 48.1H912c-.9-11.9-4.3-20.6-10-26-5.7-5.4-14.4-8.1-26.1-8.1-12.7 0-22.2 4.6-28.5 13.6-6.3 9.1-9.5 23.2-9.7 42.3v14c0 20 3 34.6 9.1 43.8 6.1 9.2 15.6 13.8 28.6 13.8 11.8 0 20.5-2.7 26.3-8.1 5.8-5.4 9.1-13.7 10-24.9h38.1zm91.2-59.5 34.7-63.7h43.8l-53.8 91.7 55.2 93.2h-44.3l-35.5-64.7-35.5 64.7h-44.3l55.2-93.2-53.8-91.7h43.8l34.5 63.7z"/><path class="st4" d="M960 591.6c-68.2 0-132.2-26.5-180.4-74.7-48.2-48.2-74.7-112.3-74.7-180.4 0-68.2 26.5-132.2 74.7-180.4 48.2-48.2 112.3-74.7 180.4-74.7 68.2 0 132.2 26.5 180.4 74.7 48.2 48.2 74.7 112.3 74.7 180.4 0 68.2-26.5 132.2-74.7 180.4s-112.2 74.7-180.4 74.7zm0-494.2c-131.9 0-239.1 107.3-239.1 239.1 0 131.9 107.3 239.1 239.1 239.1 131.9 0 239.1-107.3 239.1-239.1 0-131.9-107.2-239.1-239.1-239.1z"/></svg>