<svg xmlns="http://www.w3.org/2000/svg" viewBox="0 0 1920 673" xml:space="preserve"><path fill="#2c5871" d="M0 0h1920v673H0z"/><path d="m484.5 343.5 7.5-29.9h15.6l-15.5 47.5H477l-15.5-47.5h15.6l7.4 29.9zm50 18.5c-7.3 0-13.2-2.2-17.7-6.5-4.5-4.4-6.8-10-6.8-17v-1.2c0-4.9.9-9.2 2.7-12.9 1.8-3.7 4.4-6.6 7.9-8.6s7.6-3.1 12.3-3.1c6.7 0 12 2.1 15.8 6.2 3.9 4.1 5.8 9.9 5.8 17.3v5.8h-29.4c.5 2.7 1.7 4.8 3.5 6.3s4.1 2.3 6.9 2.3c4.7 0 8.3-1.6 11-4.9l6.8 8c-1.8 2.5-4.5 4.6-7.8 6.1-3.5 1.4-7.1 2.2-11 2.2zm-1.7-37.9c-4.3 0-6.9 2.9-7.7 8.6H540v-1.1c.1-2.4-.5-4.2-1.8-5.5-1.3-1.3-3.1-2-5.4-2zm47.8 26.5c2.1 0 3.7-.6 4.8-1.7s1.7-2.7 1.7-4.7H601c0 5.2-1.9 9.5-5.6 12.8s-8.5 5-14.4 5c-6.9 0-12.4-2.2-16.3-6.5-4-4.3-6-10.3-6-18v-.6c0-4.8.9-9 2.7-12.7 1.8-3.7 4.3-6.5 7.7-8.5s7.3-3 11.9-3c6.2 0 11.1 1.7 14.7 5.1 3.6 3.4 5.4 8.1 5.4 13.9h-13.9c0-2.5-.6-4.4-1.8-5.7-1.2-1.3-2.8-2-4.8-2-3.8 0-6.1 2.4-6.7 7.3-.2 1.6-.3 3.7-.3 6.4 0 4.8.6 8.1 1.7 9.9s2.8 3 5.3 3zm43.9-48.9v11.8h7.8v10.3h-7.8v21.8c0 1.8.3 3 1 3.7.6.7 1.9 1.1 3.8 1.1 1.5 0 2.7-.1 3.7-.3v10.6c-2.7.8-5.4 1.3-8.3 1.3-5.1 0-8.9-1.2-11.3-3.6-2.4-2.4-3.6-6-3.6-10.9v-23.6h-6.1v-10.3h6.1v-11.8h14.7zm10.4 35.2c0-4.7.9-9 2.8-12.7 1.8-3.7 4.5-6.6 8-8.5 3.5-2 7.5-3 12.2-3 7.1 0 12.7 2.2 16.8 6.6 4.1 4.4 6.2 10.4 6.2 18v.5c0 7.4-2.1 13.3-6.2 17.6-4.1 4.3-9.7 6.5-16.7 6.5-6.8 0-12.2-2-16.3-6.1-4.1-4.1-6.3-9.6-6.6-16.5l-.2-2.4zm14.8.9c0 4.4.7 7.6 2.1 9.7 1.4 2.1 3.4 3.1 6.1 3.1 5.3 0 8-4.1 8.1-12.2v-1.5c0-8.5-2.7-12.8-8.2-12.8-5 0-7.6 3.7-8 11l-.1 2.7zm66.4-10.8-4.9-.4c-4.7 0-7.6 1.5-9 4.4v30.1h-14.8v-47.5h13.9l.5 6.1c2.5-4.7 6-7 10.4-7 1.6 0 3 .2 4.1.5l-.2 13.8zm18 7.3 24 8.1v13.5l-38.8-15.8v-11.7l38.8-15.8V326l-24 8.3zm73.6-.3h-24.3v15.3h28.7v11.9H768v-64h44.2V309h-28.7v13.5h24.3V334zm29.2-7.3 6.9-13.1h15.4l-12.5 23.2 13.1 24.4h-15.5l-7.5-14.1-7.3 14.1H814l13.2-24.4-12.5-23.2h15.6l6.6 13.1zm53.9 34.4c-.5-1-1-2.4-1.4-4.3-2.7 3.4-6.5 5.1-11.4 5.1-4.5 0-8.3-1.4-11.4-4.1s-4.7-6.1-4.7-10.2c0-5.2 1.9-9.1 5.7-11.7 3.8-2.6 9.3-4 16.6-4h4.6v-2.5c0-4.4-1.9-6.6-5.7-6.6-3.5 0-5.3 1.7-5.3 5.2H863c0-4.6 2-8.3 5.9-11.2 3.9-2.9 8.9-4.3 15-4.3s10.9 1.5 14.4 4.4c3.5 3 5.3 7 5.4 12.2v21c.1 4.4.7 7.7 2 10v.7h-14.9zm-9.3-9.7c1.8 0 3.4-.4 4.6-1.2 1.2-.8 2.1-1.7 2.6-2.7V340h-4.3c-5.2 0-7.7 2.3-7.7 6.9 0 1.3.5 2.4 1.4 3.3s2 1.2 3.4 1.2zm44.2-37.8.5 5.6c3.4-4.3 7.9-6.5 13.6-6.5 6 0 10.1 2.4 12.2 7.2 3.2-4.8 7.9-7.2 14-7.2 9.6 0 14.6 5.8 14.9 17.5v30.9H966v-30c0-2.4-.4-4.2-1.2-5.3-.8-1.1-2.3-1.7-4.5-1.7-2.9 0-5.1 1.3-6.5 3.9v33.1h-14.9v-29.9c0-2.5-.4-4.3-1.2-5.4-.8-1.1-2.3-1.7-4.5-1.7-2.8 0-5 1.3-6.5 3.9v33.1h-14.8v-47.5h13.8zm107.7 24.1c0 7.4-1.7 13.3-5 17.7-3.3 4.4-7.8 6.6-13.5 6.6-4.4 0-8-1.6-10.8-4.8v22.2h-14.8v-65.8h13.8l.4 4.4c2.8-3.5 6.6-5.3 11.2-5.3 5.9 0 10.4 2.2 13.7 6.5 3.3 4.3 4.9 10.3 4.9 17.8v.7zm-14.8-.9c0-8.4-2.5-12.7-7.4-12.7-3.5 0-5.9 1.3-7 3.8v18.7c1.3 2.6 3.7 4 7.1 4 4.7 0 7.1-4.1 7.3-12.2v-1.6zm37 24.3h-14.9v-67.5h14.9v67.5zm32.1.9c-7.3 0-13.2-2.2-17.7-6.5-4.5-4.4-6.8-10-6.8-17v-1.2c0-4.9.9-9.2 2.7-12.9 1.8-3.7 4.4-6.6 7.9-8.6s7.6-3.1 12.3-3.1c6.7 0 12 2.1 15.8 6.2 3.9 4.1 5.8 9.9 5.8 17.3v5.8h-29.4c.5 2.7 1.7 4.8 3.5 6.3s4.1 2.3 6.9 2.3c4.7 0 8.3-1.6 11-4.9l6.8 8c-1.8 2.5-4.5 4.6-7.8 6.1-3.5 1.4-7.1 2.2-11 2.2zm-1.7-37.9c-4.3 0-6.9 2.9-7.7 8.6h14.9v-1.1c.1-2.4-.5-4.2-1.8-5.5-1.2-1.3-3-2-5.4-2zm80.1 15.3c-.2 4.5-1.4 8.4-3.6 11.8s-5.3 6.1-9.3 7.9c-4 1.9-8.5 2.8-13.6 2.8-8.4 0-15-2.7-19.9-8.2-4.8-5.5-7.3-13.2-7.3-23.2v-3.2c0-6.3 1.1-11.8 3.3-16.5 2.2-4.7 5.3-8.3 9.4-10.9 4.1-2.6 8.8-3.8 14.2-3.8 7.8 0 14 2 18.7 6.1s7.4 9.7 8 16.9h-15.4c-.1-3.9-1.1-6.7-2.9-8.4-1.8-1.7-4.7-2.5-8.4-2.5-3.8 0-6.7 1.4-8.4 4.3-1.8 2.9-2.7 7.5-2.8 13.8v4.5c0 6.8.9 11.7 2.6 14.6 1.7 2.9 4.7 4.4 8.9 4.4 3.5 0 6.3-.8 8.1-2.5s2.9-4.3 3-8h15.4zm22.3 21.7h-14.9v-67.5h14.9v67.5zm35.9 0c-.5-1-1-2.4-1.4-4.3-2.7 3.4-6.5 5.1-11.4 5.1-4.5 0-8.3-1.4-11.4-4.1s-4.7-6.1-4.7-10.2c0-5.2 1.9-9.1 5.7-11.7 3.8-2.6 9.3-4 16.6-4h4.6v-2.5c0-4.4-1.9-6.6-5.7-6.6-3.5 0-5.3 1.7-5.3 5.2h-14.8c0-4.6 2-8.3 5.9-11.2 3.9-2.9 8.9-4.3 15-4.3s10.9 1.5 14.4 4.4c3.5 3 5.3 7 5.4 12.2v21c.1 4.4.7 7.7 2 10v.7h-14.9zm-9.3-9.7c1.8 0 3.4-.4 4.6-1.2 1.2-.8 2.1-1.7 2.6-2.7V340h-4.3c-5.2 0-7.7 2.3-7.7 6.9 0 1.3.5 2.4 1.4 3.3s2 1.2 3.4 1.2zm55.1-3.7c0-1.3-.7-2.3-2-3-1.3-.8-3.8-1.6-7.5-2.4-3.7-.8-6.7-1.9-9.1-3.2s-4.2-3-5.5-4.9c-1.3-1.9-1.9-4.1-1.9-6.5 0-4.4 1.8-8 5.4-10.8 3.6-2.8 8.3-4.2 14.2-4.2 6.3 0 11.3 1.4 15.1 4.3 3.8 2.8 5.7 6.6 5.7 11.2h-14.9c0-3.8-2-5.7-6-5.7-1.6 0-2.9.4-3.9 1.3-1.1.9-1.6 1.9-1.6 3.2 0 1.3.6 2.4 1.9 3.2 1.3.8 3.3 1.5 6.2 2s5.3 1.2 7.4 1.9c7.1 2.5 10.7 6.9 10.7 13.2 0 4.3-1.9 7.9-5.8 10.6s-8.8 4.1-15 4.1c-4.1 0-7.7-.7-10.9-2.2s-5.7-3.5-7.5-6-2.7-5.2-2.7-8h13.8c.1 2.2.8 3.8 2.2 4.8s3.2 1.5 5.4 1.5c2 0 3.5-.4 4.5-1.2 1.3-.8 1.8-1.8 1.8-3.2zm46.1 0c0-1.3-.7-2.3-2-3-1.3-.8-3.8-1.6-7.5-2.4-3.7-.8-6.7-1.9-9.1-3.2s-4.2-3-5.5-4.9c-1.3-1.9-1.9-4.1-1.9-6.5 0-4.4 1.8-8 5.4-10.8 3.6-2.8 8.3-4.2 14.2-4.2 6.3 0 11.3 1.4 15.1 4.3 3.8 2.8 5.7 6.6 5.7 11.2h-14.9c0-3.8-2-5.7-6-5.7-1.6 0-2.9.4-3.9 1.3-1.1.9-1.6 1.9-1.6 3.2 0 1.3.6 2.4 1.9 3.2 1.3.8 3.3 1.5 6.2 2s5.3 1.2 7.4 1.9c7.1 2.5 10.7 6.9 10.7 13.2 0 4.3-1.9 7.9-5.8 10.6s-8.8 4.1-15 4.1c-4.1 0-7.7-.7-10.9-2.2s-5.7-3.5-7.5-6-2.7-5.2-2.7-8h13.8c.1 2.2.8 3.8 2.2 4.8s3.2 1.5 5.4 1.5c2 0 3.5-.4 4.5-1.2 1.3-.8 1.8-1.8 1.8-3.2zm37.3-38.5-7.5 19.9h-11.1l13.1-31.9h10.9l13.2 31.9H1361l-7.5-19.9zm48.8 25-23.9-8.1v-13.4l38.6 15.8v11.7l-38.6 15.8v-13.4l23.9-8.4zm37.6-25-7.5 19.9h-11.1l13.1-31.9h10.9l13.2 31.9h-11.2l-7.4-19.9z" fill="#fff"/></svg>