<svg xmlns="http://www.w3.org/2000/svg" viewBox="0 0 1920 673" xml:space="preserve"><style>.st2{fill:#5aba53}</style><path fill="#819c2a" d="M0 0h1920v673H0z"/><path d="M693.3 372.1c3.6-10.2 5.3-23.5 5.3-40 0-25-4.4-43.7-12.9-55.6-8.5-11.9-23.3-18-44.4-18s-36.2 6.1-44.7 18.2-12.9 30.6-12.9 55.6c0 24.8 4.1 43 12.6 54.6 8.3 11.4 23.3 17.2 44.7 17.2 5.8 0 10-.5 12.6-1.2l18.2 30.1 21.1-10-17-27.7c8.2-5.3 14-13 17.4-23.2zm-25.5.4c-4.6 8-13.6 11.9-26.7 11.9s-22.1-4.1-26.7-12.1c-4.6-8-7-21.4-7-40s2.4-32.3 7.3-40.8c4.6-8.5 13.6-12.9 26.5-12.9s21.6 4.4 26.5 12.6c4.6 8.5 7 22.3 7 41-.1 19-2.5 32.3-6.9 40.3zm59-106v29.9H711v19.2h15.8v47.8c0 14.8 2.2 25 6.6 30.3 4.4 5.3 12.4 8 24 8 4.9 0 11.7-1 21.1-2.7l-1-18-17 .7c-5.1 0-8.3-1.5-9.5-4.1-1.2-2.9-1.9-8.5-1.9-16.7v-45.4h28.4v-19.2h-28.4v-29.9h-22.3z" fill="#fff"/><path class="st2" d="M641.1 278.6c-12.9 0-21.8 4.4-26.5 12.9-4.9 8.5-7.3 22.1-7.3 40.8s2.4 32 7 40 13.6 12.1 26.7 12.1 22.1-3.9 26.7-11.9c4.4-8 6.8-21.4 6.8-40.3 0-18.7-2.4-32.5-7-41-4.8-8.2-13.5-12.6-26.4-12.6z"/><path class="st2" d="M813.7 216.7H565.1L520 261.9v194.4h280.1l45.1-45.1V216.7h-31.5zM693.1 423 672 433l-18.2-30.1c-2.7.7-6.8 1.2-12.6 1.2-21.4 0-36.4-5.8-44.7-17.2-8.5-11.7-12.6-29.9-12.6-54.6 0-25 4.4-43.4 12.9-55.6 8.5-12.1 23.5-18.2 44.7-18.2s35.9 6.1 44.4 18 12.9 30.6 12.9 55.6c0 16.5-1.7 29.9-5.3 40-3.4 10.2-9.2 18-17.2 23.3l16.8 27.6zm64.3-21.3c-11.7 0-19.7-2.7-24-8s-6.6-15.5-6.6-30.3v-47.8H711v-19.2h15.8v-29.9h22.3v29.9h28.4v19.2h-28.4V361c0 8.3.7 13.8 1.9 16.7 1.2 2.7 4.4 4.1 9.5 4.1l17-.7 1 18c-9.5 1.6-16.3 2.6-21.1 2.6z"/><path d="M1414.4 673V541.2c0-20.1 16.5-36.6 36.6-36.6s36.6 16.5 36.6 36.6V673h-73.2zm-14-175.1H1074c0-54.2 31.1-101.6 77.6-128.2l-25.9-46.5c-3.1-5.6-1.1-12.7 4.5-15.8 5.6-3.1 12.7-1.1 15.8 4.5l26.7 47.8c19.9-7.9 41.6-12.4 64.6-12.4s44.9 4.3 64.6 12.4l26.4-47.8c3.1-5.6 10.2-7.7 15.8-4.5 5.6 3.1 7.7 10.2 4.5 15.8l-25.9 46.5c46.6 26.6 77.7 74 77.7 128.2zm-224.8-73.4c0-7.5-6.1-13.6-13.6-13.6s-13.6 6.1-13.6 13.6 6.1 13.6 13.6 13.6 13.6-6 13.6-13.6zm150.8 0c0-7.5-6.1-13.6-13.6-13.6s-13.6 6.1-13.6 13.6 6.1 13.6 13.6 13.6 13.6-6 13.6-13.6zm74.3 248.5V510.9H1074V673h326.7zm-340.3 0V541.2c0-20.1-16.5-36.6-36.6-36.6s-36.6 16.5-36.6 36.6V673h73.2z" fill="#a4c639"/></svg>