<svg xmlns="http://www.w3.org/2000/svg" viewBox="0 0 1920 673" xml:space="preserve"><style>.st3{fill:#f4f4f4}.st4{fill:#3aaf9d}.st6{fill:#ddd}</style><path fill="#2e86b7" d="M0 0h1920v673H0z"/><path d="M602.3 321.9c0 19.7-3.3 36.9-9.8 51.6-6.5 14.7-15.6 26.5-27.1 35.4l34.4 27.2-31.8 27-45.8-36.9c-4.3.6-8.6.9-12.9.9-18.2 0-34.3-4.2-48.3-12.6-14.1-8.4-25-20.4-32.9-36-7.9-15.6-11.9-33.6-12.2-53.9v-11.3c0-21 3.8-39.5 11.5-55.4 7.7-15.9 18.6-28.2 32.8-36.9 14.2-8.7 30.5-13 48.9-13 18.1 0 34.2 4.3 48.3 12.9 14.2 8.6 25.2 20.8 33 36.7 7.9 15.9 11.8 34.1 11.9 54.6v9.7zM550 313c0-21.2-3.5-37.3-10.6-48.3s-17.2-16.5-30.4-16.5c-13.6 0-23.8 5.4-30.6 16.3-6.8 10.8-10.3 26.7-10.4 47.6v9.8c0 21 3.5 37.1 10.4 48.3 6.9 11.2 17.2 16.8 30.9 16.8 13.1 0 23.1-5.5 30.1-16.6 7-11 10.5-26.9 10.6-47.6V313zm133.7-86.7v39.4h26.1V300h-26.1v72.5c0 6 1.1 10.1 3.2 12.5 2.1 2.3 6.4 3.5 12.7 3.5 4.9 0 9-.3 12.3-.9v35.3c-8.9 2.8-18.2 4.2-27.8 4.2-17 0-29.5-4-37.6-12-8.1-8-12.2-20.2-12.2-36.5V300h-20.2v-34.3h20.2v-39.4h49.4z" fill="#fff"/><path class="st3" d="M960 141.5h554.8v390.1H960V141.5z"/><circle transform="rotate(-67.5 1001.18 182.593)" class="st4" cx="1001.2" cy="182.6" r="27.1"/><path d="M1500.7 364.7c0 4.8-3.9 8.7-8.7 8.7H982.8c-4.8 0-8.7-3.9-8.7-8.7V230.3c0-4.8 3.9-8.7 8.7-8.7H1492c4.8 0 8.7 3.9 8.7 8.7v134.4z" fill="#79b1d1"/><path class="st3" d="M984.4 297.5 1006 311l-5-13.5 5-13.5-21.6 13.5zm506 0-21.7 13.5 5-13.5-5-13.5 21.7 13.5z"/><circle class="st3" cx="1215.7" cy="356.5" r="5.4"/><circle class="st3" cx="1237.4" cy="356.5" r="5.4"/><circle class="st3" cx="1259" cy="356.5" r="5.4"/><path class="st6" d="M974.1 396.1h236.2v13H974.1v-13zm0 27.1h236.2v13H974.1v-13zm0 27.1h236.2v13H974.1v-13zm0 27.1h236.2v13H974.1v-13zm0 27h236.2v13H974.1v-13zm290.4-108.3h118.1v13h-118.1v-13zm0 27.1h118.1v13h-118.1v-13zm0 27.1h118.1v13h-118.1v-13zm0 27.1h236.2v13h-236.2v-13zm0 27h236.2v13h-236.2v-13z"/><path class="st4" d="M1396.6 454.6c0 4.8 3.9 8.7 8.7 8.7h86.7c4.8 0 8.7-3.9 8.7-8.7v-49.8c0-4.8-3.9-8.7-8.7-8.7h-86.7c-4.8 0-8.7 3.9-8.7 8.7v49.8z"/><path class="st6" d="M1414 176.1h86.7v13H1414v-13zm-100.8 0h86.7v13h-86.7v-13zm-100.7 0h86.7v13h-86.7v-13z"/><path d="M960 141.5h277.4v390.1H960V141.5z" opacity=".15" fill="#444"/></svg>