<svg xmlns="http://www.w3.org/2000/svg" viewBox="0 0 1920 673" xml:space="preserve"><style>.st1{fill:#36434f}</style><path fill="#47a547" d="M0 0h1920v673H0z"/><path class="st1" d="M684.8 596.3h52.6V673h-52.6z"/><path d="M721.9 602.3c0 1.3-1.1 2.4-2.4 2.4h-16.7c-1.3 0-2.4-1.1-2.4-2.4v-1.2c0-1.3 1.1-2.4 2.4-2.4h16.7c1.3 0 2.4 1.1 2.4 2.4v1.2z" fill="#b24b53"/><path d="M677.7 584.4c0-1.3 1.1-2.4 2.4-2.4h62.1c1.3 0 2.4 1.1 2.4 2.4v10.8c0 1.3-1.1 2.4-2.4 2.4h-62.1c-1.3 0-2.4-1.1-2.4-2.4v-10.8z" fill="#2b353f"/><path class="st1" d="M411.2 215.8c-3.3 0-6 2.7-6 6v355.1c0 3.3 2.7 6 6 6H1011c3.3 0 6-2.7 6-6V221.7c0-3.3-2.7-6-6-6H411.2z"/><path d="M990.3 548.6c0 3.3-2.7 6-6 6H438c-3.3 0-6-2.7-6-6V246.8c0-3.3 2.7-6 6-6h546.3c3.3 0 6 2.7 6 6v301.8z" fill="#f8f8f8"/><path fill="#cc584c" d="M479.4 272.4h205.8v68.3H479.4z"/><path fill="#5dc0c1" d="M729.4 272.4H943v68.3H729.4z"/><path d="M567 472.7h-50.7v-10.1l23.9-25.5c3.3-3.6 5.7-6.7 7.3-9.4 1.6-2.7 2.4-5.2 2.4-7.6 0-3.3-.8-5.9-2.5-7.7-1.7-1.9-4-2.8-7.1-2.8-3.3 0-5.9 1.1-7.8 3.4-1.9 2.3-2.9 5.3-2.9 9h-14.7c0-4.5 1.1-8.6 3.2-12.3 2.2-3.7 5.2-6.6 9.1-8.8 3.9-2.1 8.4-3.2 13.4-3.2 7.6 0 13.5 1.8 17.8 5.5 4.2 3.7 6.3 8.8 6.3 15.5 0 3.7-.9 7.4-2.8 11.2-1.9 3.8-5.1 8.2-9.8 13.3l-16.8 17.7H567v11.8zm65.1-41.4h18.3v13.3h-18.3v20.7h-14v-20.7h-18.4v-13.3h18.4v-19.9h14v19.9zm103.2 41.4h-50.7v-10.1l23.9-25.5c3.3-3.6 5.7-6.7 7.3-9.4 1.6-2.7 2.4-5.2 2.4-7.6 0-3.3-.8-5.9-2.5-7.7-1.7-1.9-4-2.8-7.1-2.8-3.3 0-5.9 1.1-7.8 3.4-1.9 2.3-2.9 5.3-2.9 9h-14.7c0-4.5 1.1-8.6 3.2-12.3 2.2-3.7 5.2-6.6 9.1-8.8 3.9-2.1 8.4-3.2 13.4-3.2 7.6 0 13.5 1.8 17.8 5.5 4.2 3.7 6.3 8.8 6.3 15.5 0 3.7-.9 7.4-2.8 11.2-1.9 3.8-5.1 8.2-9.8 13.3l-16.8 17.7h31.8v11.8zm82.2-37.9h-45.4v-12h45.4v12zm0 22h-45.4v-12h45.4v12zm81.6-11.9h8.4v11.8h-8.4v16h-14.7v-16h-30.3l-.7-9.2 30.8-48.7H899v46.1zm-31.1 0h16.4v-26.1l-1 1.7-15.4 24.4z" fill="#61c5b8"/><path d="m1126.6 434.6-35.2-11.7V250.1l35.2-11.7 85.8 64.6 142.5-141 85.4 36.3v276.3l-85.4 36.3-142.5-141-85.8 64.7zm130-98.3 97.9 74.1V262.6l-97.9 73.7zm-130 51.4 51.8-51.4-51.8-51v102.4z" fill="#fff"/></svg>