<svg xmlns="http://www.w3.org/2000/svg" viewBox="0 0 1920 673" xml:space="preserve"><path fill="#256e96" d="M0 0h1920v673H0z"/><path d="m1003.9 332.9-5 1.8 5 1.8 40.1 13.4v19.8l-64.8-26.9v-16.5l64.8-26.9v19.8l-40.1 13.7zm100.5-7.1 17.4-24.8h21.9l-26.6 38.9 27.5 40.4h-22l-18.2-25.9-18.1 25.9h-22l27.5-40.4-26.5-38.9h21.9l17.2 24.8zm66.4-24.7.6 9.6c1.5-3.4 3.6-6.1 6.3-8.1 2.7-2 5.9-3 9.7-3 6.4 0 10.6 2.8 12.5 8.4 1.6-2.6 3.6-4.7 6-6.2s5.3-2.2 8.8-2.2c2.4 0 4.6.4 6.7 1.3 2.1.9 3.9 2.3 5.4 4.2 1.5 1.9 2.7 4.4 3.6 7.5.9 3.1 1.3 6.8 1.3 11.2v56.5h-18.5v-56.6c0-1.5-.2-2.8-.5-3.7-.3-1-.7-1.7-1.3-2.3-.5-.6-1.2-1-1.9-1.2-.7-.2-1.4-.3-2.2-.3-1.4 0-2.6.3-3.6 1s-1.7 1.6-2.3 2.7v60.5h-17.9v-56.7c0-1.5-.1-2.8-.4-3.7-.3-1-.7-1.7-1.2-2.3-.5-.5-1.1-.9-1.8-1.1s-1.4-.3-2.2-.3c-1.6 0-2.8.4-3.8 1.3s-1.7 2.1-2.2 3.5v59.3h-18.5v-79.2h17.4zm81.6-33.3h44.3v95.9h22.7v16.6h-67v-16.6h23.7v-79.3h-23.7v-16.6zm110.5 121.7h-19l39.9-115.8h19l-39.9 115.8zm66.7-70.2v-19.7l65.9 26.8V343l-65.9 26.9v-19.8l42-14.1 4.5-1.5-4.4-1.5-42.1-13.7zm-747-185.7c29.4 0 57.6 8.3 79.5 23.3 20.9 14.4 34.7 33.9 38.8 54.9l1.9 9.8 9.8 1.8c29.3 5.4 57.8 12.7 84.9 21.5 5.3 1.7 5.9 6.3 5.9 8.2s-.6 6.4-5.9 8.2c-67.5 22.1-139.9 33.2-214.9 33.2s-147.4-11.1-215-33.2c-5.3-1.7-5.9-6.3-5.9-8.2s.6-6.4 6-8.2c27.1-8.9 55.6-16.1 84.8-21.5l9.8-1.8 1.9-9.8c4.1-21.1 17.9-40.6 38.8-54.9 22.1-15 50.3-23.3 79.6-23.3m27.2 204.7L750 533.2c-22 4.2-44.6 6.4-67.4 6.4s-45.4-2.1-67.4-6.4l40.2-194.8c9.3.4 18.4.5 27.1.5s18-.3 27.3-.6m-27.2-219.4c-67.2 0-122.8 39.1-132.8 90.2-30 5.5-59 12.9-86.7 22-21.4 7-21.4 37.4 0 44.4 66.8 21.8 141.2 34 219.5 34s152.7-12.1 219.5-34c21.4-7 21.4-37.4 0-44.4-27.7-9-56.7-16.4-86.7-22-10-51.2-65.6-90.2-132.8-90.2zm39 204.2c-12.9.6-26 1-39 1s-26.1-.4-39-1l-45.7 221.4c27.2 6.3 55.6 9.7 84.8 9.7s57.5-3.3 84.8-9.7l-45.9-221.4zm-39-83.7c7.6 0 13.8 6.2 13.8 13.8 0 7.6-6.2 13.8-13.8 13.8s-13.8-6.2-13.8-13.8c0-7.6 6.2-13.8 13.8-13.8m92.1 2.9c6.1 0 11 4.9 11 11s-4.9 11-11 11-11-4.9-11-11 4.9-11 11-11m-184.1 0c6.1 0 11 4.9 11 11s-4.9 11-11 11-11-4.9-11-11 4.9-11 11-11m92-17.6c-15.7 0-28.5 12.8-28.5 28.5s12.8 28.5 28.5 28.5 28.5-12.8 28.5-28.5-12.7-28.5-28.5-28.5zm92.1 2.8c-14.2 0-25.7 11.5-25.7 25.7s11.5 25.7 25.7 25.7 25.7-11.5 25.7-25.7c-.1-14.2-11.6-25.7-25.7-25.7zm-184.1 0c-14.2 0-25.7 11.5-25.7 25.7s11.5 25.7 25.7 25.7 25.7-11.5 25.7-25.7-11.5-25.7-25.7-25.7z" fill="#fff"/></svg>