<svg xmlns="http://www.w3.org/2000/svg" viewBox="0 0 1920 673" xml:space="preserve"><path fill="#ff6034" d="M0 0h1920v673H0z"/><path d="M1103.8 509.2c-9.2 0-14.9-2.6-17.1-7.5-2.2-5.3-3.5-15.4-3.5-30.3v-82.2h51.4v-34.7h-51.5v-54.1h-40.4v54.1h-28.6v34.7h28.6v86.6c0 26.8 4 45.3 11.9 55s22.4 14.5 43.5 14.5c8.8 0 21.1-1.8 38.2-4.8l-1.8-32.5-30.7 1.2zM887.9 285.9c-38.2 0-65.5 11-80.9 33s-23.3 55.4-23.3 100.7c0 44.8 7.5 77.8 22.9 98.9 14.9 20.7 42.2 31.2 80.9 31.2 10.6 0 18-.9 22.9-2.2l33 54.5 38.2-18-30.8-50.1c14.5-9.7 25.1-23.7 31.2-42.2 6.6-18.5 9.7-42.6 9.7-72.5 0-45.3-7.9-79.1-23.3-100.7-15.4-21.6-42.2-32.6-80.5-32.6zm47.9 206.6c-8.4 14.5-24.6 21.5-48.4 21.5-23.7 0-40-7.5-48.4-22-8.4-14.5-12.7-38.7-12.7-72.5 0-33.9 4.4-58.5 13.2-73.9 8.4-15.4 24.6-23.3 47.9-23.3s39.1 7.9 47.9 22.9c8.4 15.4 12.7 40.4 12.7 74.3.1 34.3-4.3 58.5-12.2 73zM414.5 123.6l4.7 2.6c-1.7 3.1-2.6 6.1-2.7 8.8v5.6h-7.8v-5.3c0-1.9.6-4 1.7-6.2s2.5-4 4.1-5.5zm39.4 30.5h-17.6v11.1h20.8v8.6h-32v-46.4h32.1v8.6h-20.9v9.8h17.6v8.3zm-25-33.7c0-1.2.5-2.2 1.4-3 .9-.8 2.1-1.2 3.4-1.2 1.4 0 2.5.4 3.4 1.2.9.8 1.4 1.8 1.4 3s-.5 2.2-1.4 3c-.9.8-2.1 1.2-3.4 1.2-1.4 0-2.5-.4-3.4-1.2-.9-.8-1.4-1.8-1.4-3zm16.6 0c0-1.2.5-2.2 1.4-3 .9-.8 2.1-1.2 3.4-1.2 1.4 0 2.5.4 3.4 1.2.9.8 1.4 1.8 1.4 3s-.5 2.2-1.4 3c-.9.8-2.1 1.2-3.4 1.2-1.4 0-2.5-.4-3.4-1.2-1-.8-1.4-1.8-1.4-3zm33.8 20.9c4.5 0 8.1 1.5 10.7 4.4 2.6 3 4 7 4 12.1v.4c0 3.2-.7 6.1-2 8.6s-3.3 4.4-5.8 5.7c-2.5 1.3-5.5 2-8.9 2-5.1 0-9.2-1.6-12.2-4.9-3-3.3-4.5-7.8-4.5-13.5v-1c0-7.9 1.3-14.1 3.9-18.6 2.6-4.5 6.5-7.3 11.7-8.5 2.4-.5 3.9-1 4.6-1.5.7-.5 1.1-1.3 1.1-2.3h8.6c0 2.7-.4 4.7-1.2 6.1s-2.1 2.5-3.9 3.4-4.3 1.7-7.5 2.2c-2.5.5-4.5 1.5-5.9 3-1.4 1.5-2.3 3.6-2.8 6.4 3-2.7 6.3-4 10.1-4zm-2.1 8.3c-3.9 0-5.9 2.7-5.9 8.2v.5c0 5.3 2 8 6 8 3.8 0 5.8-2.6 5.9-7.7v-1c0-5.4-2-8-6-8zm22.4 24.3v-34.5h14.8c4.7 0 8.4.8 10.9 2.5s3.8 4.1 3.8 7.2c0 1.6-.6 3-1.7 4.3s-2.7 2.2-4.8 2.9c2.7.5 4.9 1.4 6.3 2.7 1.5 1.4 2.2 3 2.2 5.1 0 3.3-1.2 5.7-3.7 7.4s-6 2.5-10.6 2.5h-17.2zm10.8-20.7h4.4c1.3 0 2.2-.2 2.7-.7.5-.4.8-1.1.8-1.9 0-1.1-.3-1.9-1-2.3-.6-.4-1.6-.7-3-.7h-4v5.6zm0 6.6v5.8h6.3c1.3 0 2.3-.2 2.9-.7.6-.5.9-1.2.9-2.1 0-1.9-1.1-2.9-3.3-3h-6.8zm57.6-24.1h-.5v.4h-20.2v37.8H536v-46.4h21.2V115H568v20.7zm31.6 26.2h-6.4v-8.3H573v-5.5h26.6v13.8zm40.7-26.2h-.5v.4h-20.2v37.8h-11.2v-46.4h21.2V115h10.8v20.7zm52.8 0h-.5v.4h-20.2v37.8h-11.2v-46.4h21.2V115h10.8v20.7zm44.5 11.9H724v26.2h-10.8v-34.5h24.4v8.3zm34 22.8c-3.4 2.7-7.2 4.1-11.5 4.1s-8.2-1.3-11.5-4l-4.1 4.2-4.5-4.6 4.3-4.4c-2.1-3.3-3.2-7.1-3.2-11.3 0-4.3 1.2-8.2 3.5-11.6l-4.6-4.7 4.5-4.6 4.5 4.6c3.3-2.4 7-3.7 11.1-3.7s7.8 1.2 11.1 3.7l4.6-4.7 4.5 4.6-4.7 4.8c2.3 3.4 3.4 7.2 3.4 11.5 0 4.1-1 7.8-3.1 11.1l4.4 4.5-4.5 4.6-4.2-4.1zM747 154.5c0 2.5.6 4.8 1.7 7 1.1 2.1 2.7 3.8 4.8 5.1 2 1.2 4.2 1.8 6.6 1.8 2.4 0 4.6-.6 6.6-1.8 2-1.2 3.6-2.9 4.8-5.1 1.1-2.1 1.7-4.5 1.7-7s-.6-4.9-1.7-7-2.7-3.8-4.8-5-4.2-1.8-6.6-1.8c-2.4 0-4.6.6-6.6 1.8-2 1.2-3.6 2.9-4.8 5-1.1 2.1-1.7 4.5-1.7 7zm87-18.8h-.5v.4h-20.2v37.8h-11.2v-46.4h21.2V115H834v20.7zm-1.1 38.2v-34.5h14.8c4.7 0 8.4.8 10.9 2.5s3.8 4.1 3.8 7.2c0 1.6-.6 3-1.7 4.3-1.1 1.3-2.7 2.2-4.8 2.9 2.7.5 4.9 1.4 6.3 2.7 1.5 1.4 2.2 3 2.2 5.1 0 3.3-1.2 5.7-3.7 7.4s-6 2.5-10.6 2.5h-17.2zm10.8-20.7h4.4c1.3 0 2.2-.2 2.7-.7.5-.4.8-1.1.8-1.9 0-1.1-.3-1.9-1-2.3-.6-.4-1.6-.7-3-.7h-4v5.6zm0 6.6v5.8h6.3c1.3 0 2.3-.2 2.9-.7.6-.5.9-1.2.9-2.1 0-1.9-1.1-2.9-3.3-3h-6.8zm43.3-18.5c4.5 0 8.1 1.5 10.7 4.4 2.6 3 4 7 4 12.1v.4c0 3.2-.7 6.1-2 8.6s-3.3 4.4-5.8 5.7-5.5 2-8.9 2c-5.1 0-9.2-1.6-12.2-4.9-3-3.3-4.5-7.8-4.5-13.5v-1c0-7.9 1.3-14.1 3.9-18.6 2.6-4.5 6.5-7.3 11.7-8.5 2.4-.5 3.9-1 4.6-1.5.7-.5 1.1-1.3 1.1-2.3h8.6c0 2.7-.4 4.7-1.2 6.1-.8 1.4-2.1 2.5-3.9 3.4-1.8.9-4.3 1.7-7.5 2.2-2.5.5-4.5 1.5-5.9 3s-2.3 3.6-2.8 6.4c3.1-2.7 6.4-4 10.1-4zm-2 8.3c-3.9 0-5.9 2.7-5.9 8.2v.5c0 5.3 2 8 6 8 3.8 0 5.8-2.6 5.9-7.7v-1c0-5.4-2-8-6-8zm52 24.3h-10.8v-26.2h-9.5v26.2h-10.8v-34.5H937v34.5zm38-23.3c0-4.3 1-8.3 3-12 2-3.7 4.7-6.6 8.3-8.7 3.5-2.1 7.3-3.2 11.4-3.2s7.9 1.1 11.4 3.2 6.3 5 8.3 8.7c2 3.7 3 7.7 3 12s-1 8.4-3 12c-2 3.7-4.8 6.6-8.3 8.7s-7.3 3.2-11.3 3.2c-4.1 0-7.9-1.1-11.4-3.2s-6.2-5-8.2-8.7c-2.2-3.7-3.2-7.7-3.2-12zm3.9 0c0 3.5.8 6.8 2.4 9.8 1.6 3 3.8 5.5 6.7 7.3 2.9 1.8 6.1 2.8 9.6 2.8s6.7-.9 9.6-2.7c2.9-1.8 5.2-4.3 6.7-7.3 1.6-3 2.4-6.3 2.4-9.9 0-3.5-.8-6.8-2.4-9.8-1.6-3-3.8-5.5-6.8-7.3-2.9-1.8-6.1-2.7-9.6-2.7-3.4 0-6.5.9-9.4 2.6-2.9 1.7-5.2 4.1-6.8 7.2-1.6 3-2.4 6.4-2.4 10zm28.9 4.2c0 3.2-.9 5.7-2.8 7.4-1.9 1.7-4.5 2.6-7.9 2.6-3.4 0-6.1-1.1-8.1-3.4s-3-5.3-3-9.1v-3.6c0-3.7 1-6.7 3-8.9 2-2.3 4.7-3.4 8.1-3.4 3.5 0 6.1.9 8 2.6 1.8 1.8 2.8 4.2 2.8 7.4h-5c0-2-.5-3.5-1.5-4.4-1-.9-2.4-1.3-4.3-1.3-2 0-3.5.7-4.5 2.2s-1.6 3.4-1.6 5.8v3.9c0 2.5.5 4.5 1.6 5.9 1.1 1.4 2.6 2.2 4.6 2.2 1.9 0 3.3-.4 4.3-1.3s1.4-2.3 1.4-4.4h4.9zm19.5 19.1v-34.5h14.8c4.7 0 8.4.8 10.9 2.5s3.8 4.1 3.8 7.2c0 1.6-.6 3-1.7 4.3-1.1 1.3-2.7 2.2-4.8 2.9 2.7.5 4.9 1.4 6.3 2.7 1.5 1.4 2.2 3 2.2 5.1 0 3.3-1.2 5.7-3.7 7.4s-6 2.5-10.6 2.5h-17.2zm10.8-20.7h4.4c1.3 0 2.2-.2 2.7-.7.5-.4.8-1.1.8-1.9 0-1.1-.3-1.9-1-2.3-.6-.4-1.6-.7-3-.7h-4v5.6zm0 6.6v5.8h6.3c1.3 0 2.3-.2 2.9-.7.6-.5.9-1.2.9-2.1 0-1.9-1.1-2.9-3.3-3h-6.8zm54.4-5.7h-17.6v11.1h20.8v8.6h-32v-46.4h32.1v8.6h-20.9v9.8h17.6v8.3zm-24.9-33.7c0-1.2.5-2.2 1.4-3 .9-.8 2.1-1.2 3.4-1.2 1.4 0 2.5.4 3.4 1.2.9.8 1.4 1.8 1.4 3s-.5 2.2-1.4 3c-.9.8-2.1 1.2-3.4 1.2-1.4 0-2.5-.4-3.4-1.2-.9-.8-1.4-1.8-1.4-3zm16.5 0c0-1.2.5-2.2 1.4-3 .9-.8 2.1-1.2 3.4-1.2 1.4 0 2.5.4 3.4 1.2.9.8 1.4 1.8 1.4 3s-.5 2.2-1.4 3c-.9.8-2.1 1.2-3.4 1.2-1.4 0-2.5-.4-3.4-1.2-.9-.8-1.4-1.8-1.4-3zm56.1 27.2h-13.6v26.2h-10.8v-34.5h24.4v8.3zm41.3 10.5c-.2 3.2-1.1 6.1-2.7 8.6s-3.9 4.4-6.7 5.8-6.1 2-9.8 2c-6.1 0-10.9-2-14.4-6s-5.3-9.6-5.3-16.8v-2.3c0-4.6.8-8.6 2.4-12 1.6-3.4 3.9-6.1 6.8-7.9 3-1.8 6.4-2.8 10.3-2.8 5.6 0 10.2 1.5 13.6 4.4 3.4 2.9 5.4 7 5.9 12.3h-11.2c-.1-2.8-.8-4.9-2.1-6.2-1.3-1.3-3.4-1.9-6.1-1.9-2.6 0-4.6.9-5.9 2.8-1.4 1.8-2.1 4.6-2.4 8.2h12.3v8.6h-12.3c.3 3.9 1 6.7 2.4 8.4 1.3 1.7 3.4 2.6 6.1 2.6 5.2 0 7.9-2.6 8-7.8h11.1zm55.8-.2c0 3.8-1.6 6.6-4.9 8.5 2.9 2.2 4.4 5.3 4.4 9.3 0 3.8-1.5 6.7-4.5 8.8s-7.2 3.2-12.4 3.2c-5.7 0-10.1-1.1-13.1-3.4s-4.6-5.5-4.6-9.7h10.8c0 1.6.5 2.8 1.6 3.6 1.1.8 2.8 1.2 5.3 1.2 4.1 0 6.2-1.2 6.2-3.7 0-1.2-.6-2.2-1.8-3s-3.7-1.7-7.5-2.7c-3.8-1.1-6.7-2.2-8.6-3.3-1.9-1.2-3.4-2.5-4.4-4.1-1-1.6-1.5-3.5-1.5-5.6 0-3.7 1.7-6.6 5-8.6-3-2.3-4.5-5.4-4.5-9.3 0-3.7 1.5-6.7 4.6-8.9 3.1-2.3 7.2-3.4 12.4-3.4 5.3 0 9.5 1.2 12.5 3.6 3 2.4 4.5 5.7 4.5 10H1226c0-1.6-.5-2.9-1.6-3.8-1.1-1-2.6-1.4-4.6-1.4-2 0-3.6.4-4.6 1.1-1.1.7-1.6 1.7-1.6 2.9 0 1.4.6 2.5 1.8 3.2 1.2.7 3.3 1.5 6.4 2.3 3.1.8 5.6 1.6 7.4 2.4 1.8.8 3.3 1.7 4.5 2.7 1.2 1 2.1 2.2 2.7 3.6.6 1.2.9 2.7.9 4.5zm-19.1-4.8c-1.3-.3-2.6-.7-3.7-1.1-1 .9-1.6 2.1-1.6 3.8 0 1.4.5 2.5 1.4 3.3s3.2 1.7 6.8 2.8l3.8 1.1c1.2-.9 1.8-2.2 1.8-3.8 0-1.3-.6-2.4-1.8-3.2-1.2-1-3.4-1.9-6.7-2.9zm72.5-13.8v34.5H1280v-26.2h-6.4l-.6 10.6c-.4 5.2-1.6 9.1-3.5 11.7-2 2.6-4.9 3.9-8.7 3.9h-3.4l-.1-8.2 1.1-.1c1.4-.2 2.5-1.1 3.2-2.9.7-1.7 1.1-4.4 1.3-7.9l.7-15.4h27.1zm5.6 11.3c0-4.3 1-8.3 3-12 2-3.7 4.7-6.6 8.3-8.7 3.5-2.1 7.3-3.2 11.4-3.2s7.9 1.1 11.4 3.2 6.3 5 8.3 8.7c2 3.7 3 7.7 3 12s-1 8.4-3 12c-2 3.7-4.8 6.6-8.3 8.7s-7.3 3.2-11.3 3.2c-4.1 0-7.9-1.1-11.4-3.2s-6.2-5-8.2-8.7c-2.2-3.7-3.2-7.7-3.2-12zm3.9 0c0 3.5.8 6.8 2.4 9.8 1.6 3 3.8 5.5 6.7 7.3 2.9 1.8 6.1 2.8 9.6 2.8s6.7-.9 9.6-2.7c2.9-1.8 5.2-4.3 6.7-7.3 1.6-3 2.4-6.3 2.4-9.9 0-3.5-.8-6.8-2.4-9.8-1.6-3-3.8-5.5-6.8-7.3-2.9-1.8-6.1-2.7-9.6-2.7-3.4 0-6.5.9-9.4 2.6-2.9 1.7-5.2 4.1-6.8 7.2-1.6 3-2.4 6.4-2.4 10zm29 4.2c0 3.2-.9 5.7-2.8 7.4-1.9 1.7-4.5 2.6-7.9 2.6-3.4 0-6.1-1.1-8.1-3.4s-3-5.3-3-9.1v-3.6c0-3.7 1-6.7 3-8.9 2-2.3 4.7-3.4 8.1-3.4 3.5 0 6.1.9 8 2.6 1.8 1.8 2.8 4.2 2.8 7.4h-5c0-2-.5-3.5-1.5-4.4-1-.9-2.4-1.3-4.3-1.3-2 0-3.5.7-4.5 2.2s-1.6 3.4-1.6 5.8v3.9c0 2.5.5 4.5 1.6 5.9 1.1 1.4 2.6 2.2 4.6 2.2 1.9 0 3.3-.4 4.3-1.3s1.4-2.3 1.4-4.4h4.9zm28.6-34.4c0-1.2.5-2.2 1.4-3 .9-.8 2.1-1.2 3.4-1.2 1.4 0 2.5.4 3.4 1.2.9.8 1.4 1.8 1.4 3s-.5 2.2-1.4 3c-.9.8-2.1 1.2-3.4 1.2-1.4 0-2.5-.4-3.4-1.2-.9-.8-1.4-1.8-1.4-3zm18.8 53.5h-11.2v-46.4h11.2v46.4zm-2.2-53.5c0-1.2.5-2.2 1.4-3 .9-.8 2.1-1.2 3.4-1.2 1.4 0 2.5.4 3.4 1.2.9.8 1.4 1.8 1.4 3s-.5 2.2-1.4 3c-.9.8-2.1 1.2-3.4 1.2-1.4 0-2.5-.4-3.4-1.2-.9-.8-1.4-1.8-1.4-3zm33.6 27.2h-13.6v26.2h-10.8v-34.5h24.4v8.3zm3.9 26.3v-34.5h14.8c4.7 0 8.4.8 10.9 2.5s3.8 4.1 3.8 7.2c0 1.6-.6 3-1.7 4.3-1.1 1.3-2.7 2.2-4.8 2.9 2.7.5 4.9 1.4 6.3 2.7 1.5 1.4 2.2 3 2.2 5.1 0 3.3-1.2 5.7-3.7 7.4s-6 2.5-10.6 2.5h-17.2zm10.8-20.7h4.4c1.3 0 2.2-.2 2.7-.7.5-.4.8-1.1.8-1.9 0-1.1-.3-1.9-1-2.3-.6-.4-1.6-.7-3-.7h-4v5.6zm0 6.6v5.8h6.3c1.3 0 2.3-.2 2.9-.7.6-.5.9-1.2.9-2.1 0-1.9-1.1-2.9-3.3-3h-6.8zm46.8 2.2 7.8-22.6h13.5v34.5H1480v-19.1l-7 19.1h-7.1l-6.6-18.1v18.1h-10.8v-34.5h13.2l7.8 22.6zm35.2 1.4c1.7 0 3.1.5 4.2 1.5s1.7 2.3 1.7 3.9-.6 2.9-1.7 3.9-2.5 1.5-4.2 1.5c-1.7 0-3.1-.5-4.3-1.5-1.1-1-1.7-2.3-1.7-3.9s.6-2.8 1.7-3.9c1.1-1 2.5-1.5 4.3-1.5z" fill="#fff"/></svg>