<svg xmlns="http://www.w3.org/2000/svg" viewBox="0 0 1920 673" xml:space="preserve"><style>.st1{fill:#fff}</style><path fill="#429ac3" d="M0 0h1920v673H0z"/><path class="st1" d="m905.3 460.8 49.3 1.8 4.1-111.8c2-3 4.4-5.4 7.3-7.1l-56.6 6.6-4.1 110.5zm-78.9-3 49.5 1.9 3.9-106-49.8 5.8zm171.7-111.4c3.1 3.9 4.5 9.8 4.2 17.8l-3.7 100 49.5 1.8 3.8-102c.3-11.7-.9-21.7-3.5-30l-60.1 7c4.4 1 7.7 2.8 9.8 5.4zm149.5-4.1-23.3-.9-1.4 36.7 24 .9c9.5.4 16.8 2.9 22 7.6 5.2 4.7 7.6 12.4 7.2 23.1-.3 7.5-3.1 13.6-8.4 18.2-5.4 4.6-12.4 6.8-21.1 6.5-7.7-.3-14.1-2.9-19.2-7.9s-7.5-10.7-7.3-17.3l-49.6-1.8c-.4 12 2.2 22.8 8 32.5 5.8 9.6 14.6 17.3 26.3 23.1 11.8 5.8 24.6 8.9 38.6 9.4 23.8.9 43.2-4.1 58.3-15s22.9-25.8 23.6-44.9c.5-12.3-2.4-22.7-8.5-31.3-6.1-8.6-14.8-15.1-26-19.6 10.9-4.7 19.3-11 25.3-18.9 5.9-7.9 9-16.5 9.4-25.7 0-1.3.1-2.6 0-3.9L1176 319c-1.5 16.2-10.9 24-28.4 23.3zM597.9 449.4l53.1 2 19.7-73.2-83.5 9.8zm745.2-42.4c15.2-14.1 26.2-25.4 33.1-33.9 6.9-8.5 12.1-16.7 15.5-24.5 3.4-7.8 5.3-16 5.6-24.3.4-11.7-1.4-21.9-5.4-30.6l-56.3 6.6c2.6 1.3 4.9 3.1 6.7 5.4 3.8 4.9 5.6 12 5.2 21.2-.4 11.3-9.4 26.3-27 44.9l-71.2 69.5-1.2 32.2 148.7 5.5 1.4-38.1-83.9-3.1 28.8-30.8zm-609.5-32.2-.7-3.9-40.6 4.8 15.2 77.7 53.3 2 22.7-90.4-49 5.7z"/><path d="m1274.2 239.5 25.4-5.7c-3.1-1.1-6.7-1.6-10.7-1.3-5.9.4-10.8 2.7-14.7 7zM709 366l-1.6.4 1.1 3.8zm-62.6 14 21.1-4.7-13.4-43.6zm290.1-64.9 21.8-4.9c-2.2-.3-4.7-.3-7.5-.1-5.8.4-10.5 2.1-14.3 5z" fill="none"/><path class="st1" d="M802 261.2c5.4 4.1 12.1 5.9 20.2 5.4s14.5-3.2 19.3-8c4.8-4.8 6.9-10.7 6.4-17.8-.5-7-3.4-12.6-8.8-16.7s-12.1-5.9-20.2-5.4-14.5 3.2-19.3 8c-4.8 4.8-6.9 10.7-6.4 17.8.5 7 3.4 12.5 8.8 16.7zm414.5 9.7 49.4-3.3c-.6-9.5 1.2-17.7 5.4-24.4.9-1.4 1.8-2.6 2.9-3.8l-56.5 12.7c-1.3 6.1-1.7 12.4-1.2 18.8zm-47.9-52.3c-14.3-9.9-33.2-14.1-56.9-12.5-13.3.9-25.2 4.2-36 9.8-10.7 5.7-18.9 13.1-24.6 22.3-5.7 9.2-8.1 19.4-7.4 30.6l49.3-3.3c-.4-5.6 1.7-10.5 6.3-14.7 4.6-4.1 10.1-6.4 16.6-6.8 8-.5 14.3 1.3 19 5.4 4.7 4.1 7.3 9.7 7.7 16.7.1.9.1 1.8.1 2.7l48.7-10.9c-1.8-16.9-9.5-30.1-22.8-39.3z"/><path class="st1" d="M1341.8 206.8c-13.1-9.8-31.2-13.9-54.2-12.4-14.3 1-27.1 4.9-38.3 12-11.2 7-19.7 16.3-25.5 27.8-2.9 5.8-5 11.8-6.2 18l56.5-12.7c3.9-4.3 8.8-6.6 14.8-7 4-.3 7.6.2 10.7 1.3l55.3-12.4c-3.4-5.7-7.8-10.6-13.1-14.6zM670 238.7l-43.6 2.9L606.1 377l-33.3-131.8-51.1 3.4 42.6 149.8 82.1-18.4 7.7-48.3 13.4 43.6 39.9-8.9zm300.4 31.9c-19.2 1.3-33.8 9.5-43.7 24.5l-2.8-18.5-46.2 3.1 3.2 47.8 55.6-12.5c3.8-2.9 8.5-4.6 14.2-5 2.8-.2 5.3-.1 7.5.1l59.1-13.2c-2.4-5.6-5.4-10.3-9-14.1-8.8-9.2-21.4-13.3-37.9-12.2zM798.9 285l4 60 48.9-10.9-3.5-52.4zM724 235.1 709 366l48.2-10.8 17.7-123.5z"/></svg>