<svg xmlns="http://www.w3.org/2000/svg" viewBox="0 0 1920 673" xml:space="preserve"><style>.st1{fill:#fff}</style><path fill="#ef8821" d="M0 0h1920v673H0z"/><path class="st1" d="M1060.9 332.3c0 9-1.5 16.9-4.5 23.6-3 6.7-7.1 12.1-12.4 16.2l15.8 12.5-14.6 12.3-21-16.9c-2 .3-3.9.4-5.9.4-8.3 0-15.7-1.9-22.1-5.8-6.4-3.8-11.5-9.3-15.1-16.5-3.6-7.2-5.5-15.4-5.6-24.7v-5.2c0-9.6 1.8-18.1 5.3-25.4 3.5-7.3 8.5-12.9 15-16.9 6.5-4 14-6 22.4-6 8.3 0 15.6 2 22.1 5.9 6.5 3.9 11.5 9.5 15.1 16.8 3.6 7.3 5.4 15.6 5.5 25v4.7zm-24-4.1c0-9.7-1.6-17.1-4.9-22.1-3.2-5-7.9-7.5-13.9-7.5-6.2 0-10.9 2.5-14 7.4-3.1 5-4.7 12.2-4.8 21.8v4.5c0 9.6 1.6 17 4.8 22.1 3.2 5.1 7.9 7.7 14.2 7.7 6 0 10.6-2.5 13.8-7.6 3.2-5.1 4.8-12.3 4.9-21.8v-4.5zm110.4-28.6H1118v79.5h-23.5v-79.5h-28.8v-18.2h81.6v18.2zm31 14.7c4.8-6.1 11-9.1 18.5-9.1 8 0 14 2.4 18.1 7.1 4.1 4.7 6.1 11.7 6.2 21v45.8h-22.7v-45.3c0-3.8-.8-6.7-2.3-8.5-1.6-1.8-4.2-2.7-8-2.7-4.7 0-7.9 1.5-9.9 4.4v52h-22.6V276h22.6v38.3zm99.3 12.7-7.4-.5c-7.1 0-11.7 2.2-13.7 6.7v45.9h-22.6v-72.6h21.2l.7 9.3c3.8-7.1 9.1-10.7 15.9-10.7 2.4 0 4.5.3 6.3.8l-.4 21.1zm42 53.4c-11.1 0-20.1-3.3-27-10-6.9-6.6-10.3-15.3-10.3-25.9v-1.9c0-7.4 1.4-14 4.1-19.6 2.7-5.7 6.8-10.1 12-13.2 5.3-3.1 11.5-4.7 18.8-4.7 10.2 0 18.2 3.2 24.1 9.5 5.9 6.3 8.9 15.1 8.9 26.5v8.8h-44.9c.8 4.1 2.6 7.3 5.3 9.6 2.7 2.3 6.3 3.5 10.6 3.5 7.2 0 12.7-2.5 16.8-7.5l10.3 12.2c-2.8 3.9-6.8 7-12 9.3s-10.8 3.4-16.7 3.4zm-2.6-57.8c-6.6 0-10.6 4.4-11.8 13.1h22.8V334c.1-3.6-.8-6.4-2.8-8.4-1.8-2-4.6-3-8.2-3zm83.1 56.5c-.8-1.5-1.5-3.6-2.1-6.5-4.2 5.2-10 7.8-17.4 7.8-6.8 0-12.7-2.1-17.4-6.2-4.8-4.1-7.2-9.3-7.2-15.6 0-7.9 2.9-13.8 8.7-17.8 5.8-4 14.3-6 25.3-6h7V331c0-6.7-2.9-10-8.7-10-5.4 0-8 2.7-8 8h-22.6c0-7 3-12.7 9-17.1 6-4.4 13.6-6.6 22.8-6.6 9.3 0 16.6 2.3 21.9 6.8 5.4 4.5 8.1 10.7 8.2 18.6v32.1c.1 6.7 1.1 11.8 3.1 15.3v1.1h-22.6zm-14.1-14.8c2.8 0 5.2-.6 7-1.8 1.9-1.2 3.2-2.6 4-4.1v-11.6h-6.6c-7.9 0-11.8 3.5-11.8 10.6 0 2.1.7 3.7 2.1 5 1.4 1.3 3.1 1.9 5.3 1.9zm43.3-22c0-11.5 2.5-20.5 7.4-27.2 5-6.6 11.9-9.9 20.8-9.9 6.5 0 11.9 2.5 16.4 7.6V276h22.7v103h-20.3l-1.1-7.8c-4.7 6.1-10.6 9.1-17.7 9.1-8.6 0-15.5-3.3-20.5-9.9-5.2-6.5-7.7-15.9-7.7-28.1zm22.6 1.4c0 12.9 3.8 19.3 11.3 19.3 5 0 8.6-2.1 10.7-6.3v-27.6c-2.1-4.3-5.6-6.4-10.6-6.4-7 0-10.8 5.6-11.3 16.9l-.1 4.1z"/><path d="M855.9 320.5H738.8c-7.8-56.4-56.4-100-114.9-100h-116v32h116c46.3 0 84 37.7 84 84s-37.7 84-84 84h-116v32h116c58.5 0 107.1-43.6 114.9-100h117.1v-32z" fill="#36434f"/><path class="st1" d="M887.9 318.5c9.9 0 18 8.1 18 18s-8.1 18-18 18-18-8.1-18-18 8.1-18 18-18m0-32c-27.6 0-50 22.4-50 50s22.4 50 50 50 50-22.4 50-50-22.4-50-50-50zm-412 132c9.9 0 18 8.1 18 18s-8.1 18-18 18-18-8.1-18-18 8.1-18 18-18m0-32c-27.6 0-50 22.4-50 50s22.4 50 50 50 50-22.4 50-50-22.4-50-50-50zm0-168c9.9 0 18 8.1 18 18s-8.1 18-18 18-18-8.1-18-18 8.1-18 18-18m0-32c-27.6 0-50 22.4-50 50s22.4 50 50 50 50-22.4 50-50-22.4-50-50-50z"/></svg>