<svg xmlns="http://www.w3.org/2000/svg" viewBox="0 0 1920 673" xml:space="preserve"><style>.st2{fill:#36434f}</style><path fill="#672179" d="M0 0h1920v673H0z"/><path d="m1100.2 451.8-41.3-13.8V235l41.3-13.8 100.8 76 167.5-165.7 100.4 42.6v324.7l-100.4 42.6L1201 375.8l-100.8 76zM1253 336.3l115.1 87.1V249.6L1253 336.3zm-152.8 60.4 60.9-60.4-60.9-60v120.4z" fill="#fff"/><path class="st2" d="M684.8 596.3h52.6V673h-52.6v-76.7z"/><path d="M722 602.3c0 1.3-1.1 2.4-2.4 2.4h-16.7c-1.3 0-2.4-1.1-2.4-2.4v-1.2c0-1.3 1.1-2.4 2.4-2.4h16.7c1.3 0 2.4 1.1 2.4 2.4v1.2z" fill="#b24b53"/><path d="M677.8 584.4c0-1.3 1.1-2.4 2.4-2.4h62.1c1.3 0 2.4 1.1 2.4 2.4v10.8c0 1.3-1.1 2.4-2.4 2.4h-62.1c-1.3 0-2.4-1.1-2.4-2.4v-10.8z" fill="#2b353f"/><path class="st2" d="M411.3 215.8c-3.3 0-6 2.7-6 6v355.1c0 3.3 2.7 6 6 6H1011c3.3 0 6-2.7 6-6V221.7c0-3.3-2.7-6-6-6H411.3v.1z"/><path d="M990.3 548.6c0 3.3-2.7 6-6 6H437.9c-3.3 0-6-2.7-6-6V246.8c0-3.3 2.7-6 6-6h546.4c3.3 0 6 2.7 6 6v301.8z" fill="#f8f8f8"/><path d="M646.6 438.4v22.8h129.2v-22.8H646.6zm0 52.1v22.8h129.2v-22.8H646.6zm-50.5-104.2H466.9v22.8h129.2v-22.8zm0 104.2H466.9v22.8h129.2v-22.8zm179.6-81.4v-22.8H646.6v22.8h129.1zm-179.6 29.3H466.9v22.8h129.2v-22.8zm230.1 22.8h129.2v-22.8H826.2v22.8zm0-74.9v22.8h129.2v-22.8H826.2zm0 127h129.2v-22.8H826.2v22.8z" fill="#ddd"/><path fill="#df7148" d="M466.9 282.1h219V357h-219z"/><path fill="#2e86b7" d="M736.4 282.1h219V357h-219z"/></svg>