<svg xmlns="http://www.w3.org/2000/svg" viewBox="0 0 1920 673" xml:space="preserve"><style>.st1{fill:#fff}</style><path fill="#eb2d2e" d="M0 0h1920v673H0z"/><path class="st1" d="M803.9 428.9V244.1h56.9c16.3 0 30.8 3.7 43.6 11s22.8 17.7 30 31.2c7.2 13.5 10.8 28.8 10.8 46v8.5c0 17.2-3.5 32.5-10.6 45.8-7.1 13.4-17 23.7-29.9 31.1-12.9 7.4-27.4 11.1-43.5 11.2h-57.3zm38.1-154v123.4h18.4c14.9 0 26.3-4.9 34.2-14.6 7.9-9.7 11.9-23.7 12.1-41.8v-9.8c0-18.8-3.9-33-11.7-42.7-7.8-9.7-19.2-14.5-34.2-14.5H842zm194.2 32.9 34.7-63.7h43.8l-53.8 91.7 55.2 93.2h-44.3l-35.5-64.7-35.5 64.7h-44.3l55.2-93.2-53.8-91.7h43.8l34.5 63.7z"/><path class="st1" d="M960 591.6c-68.2 0-132.2-26.5-180.4-74.7-48.2-48.2-74.7-112.3-74.7-180.4 0-68.2 26.5-132.2 74.7-180.4 48.2-48.2 112.3-74.7 180.4-74.7 68.2 0 132.2 26.5 180.4 74.7 48.2 48.2 74.7 112.3 74.7 180.4 0 68.2-26.5 132.2-74.7 180.4s-112.2 74.7-180.4 74.7zm0-494.2c-131.9 0-239.1 107.3-239.1 239.1 0 131.9 107.3 239.1 239.1 239.1 131.9 0 239.1-107.3 239.1-239.1 0-131.9-107.2-239.1-239.1-239.1z"/></svg>