<svg xmlns="http://www.w3.org/2000/svg" viewBox="0 0 1920 673" xml:space="preserve"><style>.st1{fill:#fff}</style><path fill="#d3312c" d="M0 0h1920v673H0z"/><path class="st1" d="M1286 571H634c-30.3 0-55-24.6-55-55V157c0-30.3 24.7-55 55-55h652c30.3 0 55 24.7 55 55v359c0 30.3-24.6 55-55 55zM634 138.7c-10.1 0-18.3 8.2-18.3 18.3v359c0 10.1 8.2 18.3 18.3 18.3h652c10.1 0 18.3-8.2 18.3-18.3V157c0-10.1-8.2-18.3-18.3-18.3H634z"/><path class="st1" d="M688.9 461.1V211.9h73.3l73.3 91.6 73.3-91.6H982V461h-73.3V318.2l-73.3 91.6-73.3-91.6v142.9h-73.2zm457.9 0-109.9-120.9h73.3V211.9h73.3v128.2h73.3l-110 121z"/></svg>