<svg xmlns="http://www.w3.org/2000/svg" viewBox="0 0 1920 673" xml:space="preserve"><style>.st1{fill:#fff}</style><path fill="#61b100" d="M0 0h1920v673H0z"/><path class="st1" d="M566.6 274.4c-13.8 0-23.5 4.7-28.4 13.8-5.2 9.1-7.8 23.7-7.8 43.8 0 20.1 2.6 34.4 7.6 43 5 8.6 14.6 13 28.7 13s23.7-4.2 28.7-12.8c4.7-8.6 7.3-22.9 7.3-43.3 0-20.1-2.6-34.9-7.6-44-5.3-8.9-14.7-13.5-28.5-13.5z"/><path class="st1" d="M751.8 207.9H485l-48.5 48.5v208.7h300.6l48.5-48.5V207.8h-33.8zM622.6 374.7c-3.6 10.9-9.9 19.3-18.5 25l18.2 29.7-22.7 10.7-19.5-32.3c-2.9.8-7.3 1.3-13.6 1.3-22.9 0-39.1-6.3-47.9-18.5-9.1-12.5-13.6-32.1-13.6-58.6 0-26.8 4.7-46.6 13.8-59.7 9.1-13 25.3-19.5 47.9-19.5s38.6 6.5 47.7 19.3 13.8 32.8 13.8 59.7c.1 17.6-1.7 31.9-5.6 42.9zm68.8 31.8c-12.5 0-21.1-2.9-25.8-8.6-4.7-5.7-7-16.7-7-32.6V314h-16.9v-20.6h16.9v-32.1h24v32.1H713V314h-30.5v48.7c0 8.9.8 14.9 2.1 18 1.3 2.9 4.7 4.4 10.2 4.4l18.2-.8 1 19.3c-10.1 1.8-17.4 2.9-22.6 2.9zm162.4-148.2c1.2 0 2.2-.4 3-1.1s1.3-1.6 1.4-2.6h3.1c-.1 1.1-.4 2.1-1.1 3.1s-1.6 1.8-2.8 2.4-2.4.9-3.7.9c-2.6 0-4.6-.9-6.2-2.6s-2.3-4.1-2.3-7.1v-.5c0-1.9.3-3.5 1-4.9s1.7-2.6 2.9-3.4 2.8-1.2 4.5-1.2c2.1 0 3.9.6 5.3 1.9s2.2 2.9 2.3 5h-3.1c-.1-1.2-.6-2.2-1.4-3s-1.9-1.2-3.1-1.2c-1.7 0-2.9.6-3.8 1.8s-1.4 2.9-1.4 5.2v.6c0 2.2.5 3.9 1.4 5.1s2.3 1.6 4 1.6zm10.3-7.4c0-1.9.4-3.5 1.1-5s1.8-2.6 3.1-3.4 2.8-1.2 4.5-1.2c2.6 0 4.7.9 6.3 2.7s2.4 4.2 2.4 7.2v.2c0 1.9-.4 3.5-1.1 5s-1.7 2.6-3 3.4-2.8 1.2-4.5 1.2c-2.6 0-4.7-.9-6.3-2.7s-2.4-4.2-2.4-7.1v-.3zm3.3.4c0 2.1.5 3.8 1.5 5.1s2.3 1.9 3.9 1.9c1.7 0 3-.6 3.9-1.9s1.5-3.1 1.5-5.4c0-2.1-.5-3.8-1.5-5.1s-2.3-1.9-3.9-1.9-2.9.6-3.9 1.9-1.5 3-1.5 5.4zm34.2 0c0 2.9-.7 5.2-2 7s-3.1 2.7-5.4 2.7c-2.3 0-4.1-.7-5.4-2.2v9.2h-3.3v-26.3h3l.2 2.1c1.3-1.6 3.2-2.5 5.5-2.5s4.1.9 5.4 2.6 2 4.1 2 7.2v.2zm-3.3-.3c0-2.1-.5-3.8-1.4-5.1s-2.2-1.9-3.8-1.9c-2 0-3.4.9-4.4 2.6v9.1c1 1.7 2.5 2.6 4.5 2.6 1.6 0 2.8-.6 3.7-1.9s1.4-3 1.4-5.4zm13.5 4.9 4.4-14.3h3.5l-7.6 22c-1.2 3.2-3.1 4.7-5.6 4.7l-.6-.1-1.2-.2v-2.6l.9.1c1.1 0 2-.2 2.6-.7s1.1-1.3 1.5-2.4l.7-1.9-6.8-18.8h3.6l4.6 14.2zm24.5 7.4h-16.1v-2.7h16.1v2.7zm6.9-26.3v4.6h3.6v2.5h-3.6v11.8c0 .8.2 1.3.5 1.7s.9.6 1.6.6c.4 0 .9-.1 1.5-.2v2.6c-.9.2-1.7.3-2.5.3-1.5 0-2.5-.4-3.3-1.3s-1.1-2.1-1.1-3.7v-11.8h-3.5v-2.5h3.5V237h3.3zm6.2 13.9c0-1.9.4-3.5 1.1-5s1.8-2.6 3.1-3.4 2.8-1.2 4.5-1.2c2.6 0 4.7.9 6.3 2.7s2.4 4.2 2.4 7.2v.2c0 1.9-.4 3.5-1.1 5s-1.7 2.6-3 3.4-2.8 1.2-4.5 1.2c-2.6 0-4.7-.9-6.3-2.7s-2.4-4.2-2.4-7.1v-.3zm3.2.4c0 2.1.5 3.8 1.5 5.1s2.3 1.9 3.9 1.9c1.7 0 3-.6 3.9-1.9 1-1.3 1.5-3.1 1.5-5.4 0-2.1-.5-3.8-1.5-5.1-1-1.3-2.3-1.9-3.9-1.9s-2.9.6-3.9 1.9-1.5 3-1.5 5.4zm31.9 12h-16.1v-2.7h16.1v2.7zm18.6-12c0 2.9-.7 5.2-2 7s-3.1 2.6-5.4 2.6c-2.4 0-4.3-.8-5.6-2.5l-.2 2.2h-3v-27h3.3v10.1c1.3-1.6 3.1-2.4 5.4-2.4s4.1.9 5.4 2.6 2 4.1 2 7.2v.2zm-3.3-.3c0-2.2-.4-3.9-1.3-5.1s-2.1-1.8-3.7-1.8c-2.1 0-3.7 1-4.6 3v8.2c1 2 2.5 3 4.7 3 1.6 0 2.8-.6 3.6-1.8s1.3-3.1 1.3-5.5zm19.1 7.7c-1.3 1.5-3.1 2.2-5.6 2.2-2 0-3.6-.6-4.6-1.8s-1.6-2.9-1.6-5.2v-12.4h3.3v12.3c0 2.9 1.2 4.3 3.5 4.3 2.5 0 4.1-.9 5-2.8v-13.8h3.3v19h-3.1l-.2-1.8zm8.2-22.1c0-.5.2-1 .5-1.3s.8-.5 1.4-.5 1.1.2 1.4.5.5.8.5 1.3-.2 1-.5 1.3-.8.5-1.4.5-1.1-.2-1.4-.5-.5-.8-.5-1.3zm3.5 24h-3.3v-19h3.3v19zm8.7 0h-3.3v-27h3.3v27zm4.4-9.6c0-2.9.7-5.3 2.1-7s3.2-2.7 5.4-2.7 4 .8 5.3 2.3v-9.9h3.3v27h-3l-.2-2c-1.3 1.6-3.1 2.4-5.4 2.4-2.2 0-4-.9-5.4-2.7s-2.1-4.2-2.1-7.1v-.3zm3.3.3c0 2.2.4 3.8 1.3 5.1s2.1 1.8 3.7 1.8c2.1 0 3.6-.9 4.5-2.8v-8.7c-1-1.8-2.5-2.7-4.5-2.7-1.6 0-2.8.6-3.7 1.8s-1.3 3.1-1.3 5.5zm17.9 7.6c0-.6.2-1 .5-1.4s.8-.6 1.5-.6 1.2.2 1.5.6.5.8.5 1.4c0 .5-.2 1-.5 1.4s-.9.5-1.5.5-1.2-.2-1.5-.5-.5-.8-.5-1.4zm25.5-7.6c0 2.9-.7 5.2-2 7s-3.1 2.7-5.4 2.7c-2.3 0-4.1-.7-5.4-2.2v9.2h-3.3v-26.3h3l.2 2.1c1.3-1.6 3.2-2.5 5.5-2.5s4.1.9 5.4 2.6 2 4.1 2 7.2v.2zm-3.3-.3c0-2.1-.5-3.8-1.4-5.1s-2.2-1.9-3.8-1.9c-2 0-3.4.9-4.4 2.6v9.1c1 1.7 2.5 2.6 4.5 2.6 1.6 0 2.8-.6 3.7-1.9s1.4-3 1.4-5.4zm19.1 9.6c-.2-.4-.3-1-.5-2-1.5 1.6-3.3 2.4-5.4 2.4-1.9 0-3.4-.5-4.6-1.6s-1.8-2.4-1.8-4c0-2 .8-3.5 2.3-4.6s3.6-1.6 6.4-1.6h3.2v-1.5c0-1.1-.3-2-1-2.7s-1.7-1-3-1c-1.2 0-2.1.3-2.9.9s-1.2 1.3-1.2 2.1h-3.3c0-.9.3-1.9 1-2.8s1.6-1.6 2.7-2.1 2.4-.8 3.8-.8c2.2 0 3.9.5 5.2 1.6s1.9 2.6 1.9 4.5v8.8c0 1.7.2 3.1.7 4.2v.3h-3.5zm-5.4-2.5c1 0 2-.3 2.9-.8s1.6-1.2 2-2.1v-3.9h-2.5c-4 0-6 1.2-6 3.5 0 1 .3 1.8 1 2.4s1.6.9 2.6.9zm17.7-21.1v4.6h3.6v2.5h-3.6v11.8c0 .8.2 1.3.5 1.7s.9.6 1.6.6c.4 0 .9-.1 1.5-.2v2.6c-.9.2-1.7.3-2.5.3-1.5 0-2.5-.4-3.3-1.3s-1.1-2.1-1.1-3.7v-11.8h-3.5v-2.5h3.5V237h3.3zm10.6 6.9c1.4-1.8 3.3-2.7 5.6-2.7 4 0 6 2.3 6.1 6.8v12.6h-3.3V248c0-1.4-.3-2.4-.9-3s-1.6-1-2.9-1c-1.1 0-2 .3-2.8.8s-1.4 1.3-1.9 2.2v13.6h-3.3v-27h3.3v10.3zm40.3 2.4h-14.7v-2.8h14.7v2.8zm0 7.3h-14.7v-2.8h14.7v2.8zm26.4.4c0-1.1-.4-2-1.1-2.7s-2-1.4-3.8-2c-2.5-.8-4.3-1.8-5.5-3s-1.7-2.8-1.7-4.7c0-1.9.6-3.5 1.7-4.7s2.7-2 4.6-2.2v-3.8h2.6v3.9c2 .3 3.5 1.1 4.6 2.5s1.6 3.3 1.6 5.7h-3.2c0-1.7-.4-3-1.2-4-.8-1-1.8-1.5-3.2-1.5-1.4 0-2.5.4-3.2 1.1-.7.7-1.1 1.7-1.1 3 0 1.2.4 2.2 1.2 2.9.8.7 2.1 1.4 3.8 1.9s3.2 1.2 4.2 1.9 1.7 1.5 2.2 2.4.7 2 .7 3.3c0 2-.6 3.6-1.8 4.8s-2.9 1.9-5 2.1v3.4h-2.6v-3.4c-2.2-.2-3.9-1-5.1-2.3s-1.9-3.2-1.9-5.5h3.3c0 1.6.4 2.9 1.3 3.8s2.1 1.3 3.6 1.3 2.7-.4 3.6-1.1 1.4-1.8 1.4-3.1zm20.2 0c0-1.1-.4-2-1.1-2.7s-2-1.4-3.8-2c-2.5-.8-4.3-1.8-5.5-3s-1.7-2.8-1.7-4.7c0-1.9.6-3.5 1.7-4.7s2.7-2 4.6-2.2v-3.8h2.6v3.9c2 .3 3.5 1.1 4.6 2.5s1.6 3.3 1.6 5.7h-3.2c0-1.7-.4-3-1.2-4-.8-1-1.8-1.5-3.2-1.5-1.4 0-2.5.4-3.2 1.1-.7.7-1.1 1.7-1.1 3 0 1.2.4 2.2 1.2 2.9.8.7 2.1 1.4 3.8 1.9s3.2 1.2 4.2 1.9 1.7 1.5 2.2 2.4.7 2 .7 3.3c0 2-.6 3.6-1.8 4.8s-2.9 1.9-5 2.1v3.4h-2.6v-3.4c-2.2-.2-3.9-1-5.1-2.3s-1.9-3.2-1.9-5.5h3.3c0 1.6.4 2.9 1.3 3.8s2.1 1.3 3.6 1.3 2.7-.4 3.6-1.1 1.4-1.8 1.4-3.1zm8.2 6.6V235h7.2c2.2 0 4.2.5 5.9 1.5s3 2.4 4 4.2 1.4 3.9 1.4 6.3v1.6c0 2.4-.5 4.5-1.4 6.3s-2.3 3.2-4 4.2-3.7 1.5-6 1.5h-7.1zm3.3-22.8v20.1h3.6c2.6 0 4.6-.8 6.1-2.4s2.2-3.9 2.2-6.9V247c0-2.9-.7-5.2-2-6.8-1.4-1.6-3.3-2.4-5.8-2.5h-4.1zm34.7 11h-11.1v9.1h12.9v2.8h-16.3V235h16.1v2.8h-12.7v8.2h11.1v2.8zm13.6.4c-2.9-.8-5-1.9-6.3-3.1s-2-2.7-2-4.5c0-2 .8-3.7 2.4-5s3.7-2 6.3-2c1.8 0 3.3.3 4.7 1s2.4 1.6 3.2 2.8 1.1 2.5 1.1 3.9h-3.4c0-1.6-.5-2.8-1.5-3.7s-2.4-1.3-4.2-1.3c-1.7 0-3 .4-3.9 1.1-.9.7-1.4 1.8-1.4 3.1 0 1 .4 1.9 1.3 2.7.9.7 2.4 1.4 4.5 2 2.1.6 3.8 1.3 5 2s2.1 1.6 2.7 2.5.9 2.1.9 3.4c0 2.1-.8 3.7-2.4 5s-3.8 1.9-6.5 1.9c-1.8 0-3.4-.3-4.9-1s-2.7-1.6-3.5-2.8-1.2-2.5-1.2-4h3.4c0 1.5.6 2.8 1.7 3.7s2.7 1.3 4.6 1.3c1.8 0 3.1-.4 4.1-1.1s1.4-1.7 1.4-3-.4-2.2-1.3-2.9-2.5-1.3-4.8-2zm31.5-11.4h-8.2v22.8h-3.4v-22.8h-8.2V235h19.8v2.8zm3.8 22.8V235h7.2c2.2 0 4.2.5 5.9 1.5s3 2.4 4 4.2 1.4 3.9 1.4 6.3v1.6c0 2.4-.5 4.5-1.4 6.3s-2.3 3.2-4 4.2-3.7 1.5-6 1.5h-7.1zm3.4-22.8v20.1h3.6c2.6 0 4.6-.8 6.1-2.4s2.2-3.9 2.2-6.9V247c0-2.9-.7-5.2-2-6.8-1.4-1.6-3.3-2.4-5.8-2.5h-4.1zm23.8 22.8h-3.4V235h3.4v25.6zm15.6-10.3h-6v10.4h-3.4V235h8.5c2.9 0 5.1.7 6.7 2s2.3 3.2 2.3 5.7c0 1.6-.4 3-1.3 4.2s-2.1 2.1-3.6 2.7l6 10.9v.2h-3.6l-5.6-10.4zm-6-2.8h5.2c1.7 0 3-.4 4-1.3s1.5-2 1.5-3.5c0-1.6-.5-2.8-1.4-3.6s-2.3-1.3-4.1-1.3h-5.2v9.7zm-494.1 54c1.2 0 2.2-.4 3-1.1s1.3-1.6 1.4-2.6h3.1c-.1 1.1-.4 2.1-1.1 3.1s-1.6 1.8-2.8 2.4-2.4.9-3.7.9c-2.6 0-4.6-.9-6.2-2.6s-2.3-4.1-2.3-7.1v-.5c0-1.9.3-3.5 1-4.9s1.7-2.6 2.9-3.4 2.8-1.2 4.5-1.2c2.1 0 3.9.6 5.3 1.9s2.2 2.9 2.3 5h-3.1c-.1-1.2-.6-2.2-1.4-3s-1.9-1.2-3.1-1.2c-1.7 0-2.9.6-3.8 1.8s-1.4 2.9-1.4 5.2v.6c0 2.2.5 3.9 1.4 5.1s2.3 1.6 4 1.6zm10.3-7.4c0-1.9.4-3.5 1.1-5s1.8-2.6 3.1-3.4 2.8-1.2 4.5-1.2c2.6 0 4.7.9 6.3 2.7s2.4 4.2 2.4 7.2v.2c0 1.9-.4 3.5-1.1 5s-1.7 2.6-3 3.4-2.8 1.2-4.5 1.2c-2.6 0-4.7-.9-6.3-2.7s-2.4-4.2-2.4-7.1v-.3zm3.3.4c0 2.1.5 3.8 1.5 5.1s2.3 1.9 3.9 1.9c1.7 0 3-.6 3.9-1.9s1.5-3.1 1.5-5.4c0-2.1-.5-3.8-1.5-5.1s-2.3-1.9-3.9-1.9-2.9.6-3.9 1.9-1.5 3-1.5 5.4zm34.2 0c0 2.9-.7 5.2-2 7s-3.1 2.7-5.4 2.7c-2.3 0-4.1-.7-5.4-2.2v9.2h-3.3v-26.3h3l.2 2.1c1.3-1.6 3.2-2.5 5.5-2.5s4.1.9 5.4 2.6 2 4.1 2 7.2v.2zm-3.3-.3c0-2.1-.5-3.8-1.4-5.1s-2.2-1.9-3.8-1.9c-2 0-3.4.9-4.4 2.6v9.1c1 1.7 2.5 2.6 4.5 2.6 1.6 0 2.8-.6 3.7-1.9s1.4-3 1.4-5.4zm13.5 4.9 4.4-14.3h3.5l-7.6 22c-1.2 3.2-3.1 4.7-5.6 4.7l-.6-.1-1.2-.2v-2.6l.9.1c1.1 0 2-.2 2.6-.7s1.1-1.3 1.5-2.4l.7-1.9-6.8-18.8h3.6l4.6 14.2zm24.5 7.4h-16.1v-2.7h16.1v2.7zm6.9-26.3v4.6h3.6v2.5h-3.6v11.8c0 .8.2 1.3.5 1.7s.9.6 1.6.6c.4 0 .9-.1 1.5-.2v2.6c-.9.2-1.7.3-2.5.3-1.5 0-2.5-.4-3.3-1.3s-1.1-2.1-1.1-3.7v-11.8h-3.5v-2.5h3.5v-4.6h3.3zm6.2 13.9c0-1.9.4-3.5 1.1-5s1.8-2.6 3.1-3.4 2.8-1.2 4.5-1.2c2.6 0 4.7.9 6.3 2.7s2.4 4.2 2.4 7.2v.2c0 1.9-.4 3.5-1.1 5s-1.7 2.6-3 3.4-2.8 1.2-4.5 1.2c-2.6 0-4.7-.9-6.3-2.7s-2.4-4.2-2.4-7.1v-.3zm3.2.4c0 2.1.5 3.8 1.5 5.1s2.3 1.9 3.9 1.9c1.7 0 3-.6 3.9-1.9 1-1.3 1.5-3.1 1.5-5.4 0-2.1-.5-3.8-1.5-5.1-1-1.3-2.3-1.9-3.9-1.9s-2.9.6-3.9 1.9-1.5 3-1.5 5.4zm31.9 12h-16.1v-2.7h16.1v2.7zm18.6-12c0 2.9-.7 5.2-2 7s-3.1 2.6-5.4 2.6c-2.4 0-4.3-.8-5.6-2.5l-.2 2.2h-3v-27h3.3v10.1c1.3-1.6 3.1-2.4 5.4-2.4s4.1.9 5.4 2.6 2 4.1 2 7.2v.2zm-3.3-.3c0-2.2-.4-3.9-1.3-5.1s-2.1-1.8-3.7-1.8c-2.1 0-3.7 1-4.6 3v8.2c1 2 2.5 3 4.7 3 1.6 0 2.8-.6 3.6-1.8s1.3-3.1 1.3-5.5zm19.1 7.7c-1.3 1.5-3.1 2.2-5.6 2.2-2 0-3.6-.6-4.6-1.8s-1.6-2.9-1.6-5.2v-12.4h3.3V297c0 2.9 1.2 4.3 3.5 4.3 2.5 0 4.1-.9 5-2.8v-13.8h3.3v19h-3.1l-.2-1.8zm8.2-22.1c0-.5.2-1 .5-1.3s.8-.5 1.4-.5 1.1.2 1.4.5.5.8.5 1.3-.2 1-.5 1.3-.8.5-1.4.5-1.1-.2-1.4-.5-.5-.8-.5-1.3zm3.5 24h-3.3v-19h3.3v19zm8.7 0h-3.3v-27h3.3v27zm4.4-9.6c0-2.9.7-5.3 2.1-7s3.2-2.7 5.4-2.7 4 .8 5.3 2.3v-9.9h3.3v27h-3l-.2-2c-1.3 1.6-3.1 2.4-5.4 2.4-2.2 0-4-.9-5.4-2.7s-2.1-4.2-2.1-7.1v-.3zm3.3.3c0 2.2.4 3.8 1.3 5.1s2.1 1.8 3.7 1.8c2.1 0 3.6-.9 4.5-2.8v-8.7c-1-1.8-2.5-2.7-4.5-2.7-1.6 0-2.8.6-3.7 1.8s-1.3 3.1-1.3 5.5zm17.9 7.6c0-.6.2-1 .5-1.4s.8-.6 1.5-.6 1.2.2 1.5.6.5.8.5 1.4c0 .5-.2 1-.5 1.4s-.9.5-1.5.5-1.2-.2-1.5-.5-.5-.8-.5-1.4zm11 1.7v-16.5h-3v-2.5h3v-2c0-2 .5-3.6 1.6-4.7s2.6-1.7 4.6-1.7c.8 0 1.5.1 2.2.3l-.2 2.6c-.6-.1-1.1-.2-1.8-.2-1.1 0-1.9.3-2.4.9s-.9 1.5-.9 2.7v2h4.1v2.5h-4.1v16.5h-3.1zm10.9-24c0-.5.2-1 .5-1.3s.8-.5 1.4-.5 1.1.2 1.4.5.5.8.5 1.3-.2 1-.5 1.3-.8.5-1.4.5-1.1-.2-1.4-.5-.5-.8-.5-1.3zm3.5 24h-3.3v-19h3.3v19zm8.8 0h-3.3v-27h3.3v27zm13 .4c-2.6 0-4.7-.8-6.3-2.5s-2.4-4-2.4-6.8v-.6c0-1.9.4-3.6 1.1-5.1s1.7-2.6 3-3.5 2.7-1.3 4.2-1.3c2.5 0 4.4.8 5.8 2.4s2.1 4 2.1 7v1.4h-12.9c0 1.9.6 3.4 1.6 4.5s2.4 1.7 4 1.7c1.1 0 2.1-.2 2.9-.7s1.5-1.1 2.1-1.9l2 1.5c-1.6 2.6-4 3.9-7.2 3.9zm-.4-17.1c-1.3 0-2.4.5-3.3 1.4s-1.4 2.3-1.7 4h9.5v-.2c-.1-1.7-.5-2.9-1.3-3.8s-1.8-1.4-3.2-1.4zm22.7 11.7c0-.9-.3-1.6-1-2s-1.8-.9-3.5-1.3-3-.8-3.9-1.3-1.7-1.1-2.1-1.8-.7-1.5-.7-2.4c0-1.6.7-2.9 2-4s3-1.6 5.1-1.6c2.2 0 3.9.6 5.2 1.7s2 2.5 2 4.3h-3.3c0-.9-.4-1.7-1.1-2.3s-1.7-1-2.9-1-2.1.3-2.8.8-1 1.2-1 2 .3 1.4.9 1.8 1.7.8 3.4 1.1 2.9.8 3.9 1.3 1.8 1.1 2.2 1.8.7 1.6.7 2.6c0 1.7-.7 3.1-2 4.1s-3.1 1.5-5.3 1.5c-1.5 0-2.9-.3-4-.8s-2.1-1.3-2.8-2.3-1-2-1-3.1h3.3c.1 1.1.5 2 1.3 2.6s1.9 1 3.2 1c1.2 0 2.2-.2 3-.7s1.2-1.2 1.2-2zm31.3-9.3H1151v-2.8h14.7v2.8zm0 7.3H1151V294h14.7v2.8zm21.4 4.7c1.2 0 2.2-.4 3-1.1s1.3-1.6 1.4-2.6h3.1c-.1 1.1-.4 2.1-1.1 3.1s-1.6 1.8-2.8 2.4-2.4.9-3.7.9c-2.6 0-4.6-.9-6.2-2.6s-2.3-4.1-2.3-7.1v-.5c0-1.9.3-3.5 1-4.9s1.7-2.6 2.9-3.4 2.8-1.2 4.5-1.2c2.1 0 3.9.6 5.3 1.9s2.2 2.9 2.3 5h-3.1c-.1-1.2-.6-2.2-1.4-3s-1.9-1.2-3.1-1.2c-1.7 0-2.9.6-3.8 1.8s-1.4 2.9-1.4 5.2v.6c0 2.2.5 3.9 1.4 5.1s2.3 1.6 4 1.6zm10.4-7.4c0-1.9.4-3.5 1.1-5s1.8-2.6 3.1-3.4 2.8-1.2 4.5-1.2c2.6 0 4.7.9 6.3 2.7s2.4 4.2 2.4 7.2v.2c0 1.9-.4 3.5-1.1 5s-1.7 2.6-3 3.4-2.8 1.2-4.5 1.2c-2.6 0-4.7-.9-6.3-2.7s-2.4-4.2-2.4-7.1v-.3zm3.2.4c0 2.1.5 3.8 1.5 5.1s2.3 1.9 3.9 1.9c1.7 0 3-.6 3.9-1.9s1.5-3.1 1.5-5.4c0-2.1-.5-3.8-1.5-5.1s-2.3-1.9-3.9-1.9-2.9.6-3.9 1.9-1.5 3-1.5 5.4zm34.2 0c0 2.9-.7 5.2-2 7s-3.1 2.7-5.4 2.7c-2.3 0-4.1-.7-5.4-2.2v9.2h-3.3v-26.3h3l.2 2.1c1.3-1.6 3.2-2.5 5.5-2.5s4.1.9 5.4 2.6 2 4.1 2 7.2v.2zm-3.2-.3c0-2.1-.5-3.8-1.4-5.1s-2.2-1.9-3.8-1.9c-2 0-3.4.9-4.4 2.6v9.1c1 1.7 2.5 2.6 4.5 2.6 1.6 0 2.8-.6 3.7-1.9s1.4-3 1.4-5.4zm13.4 4.9 4.4-14.3h3.5l-7.6 22c-1.2 3.2-3.1 4.7-5.6 4.7l-.6-.1-1.2-.2v-2.6l.9.1c1.1 0 2-.2 2.6-.7s1.1-1.3 1.5-2.4l.7-1.9-6.8-18.8h3.6l4.6 14.2zm24.5 7.4h-16.1v-2.7h16.1v2.7zm6.9-26.3v4.6h3.6v2.5h-3.6v11.8c0 .8.2 1.3.5 1.7s.9.6 1.6.6c.4 0 .9-.1 1.5-.2v2.6c-.9.2-1.7.3-2.5.3-1.5 0-2.5-.4-3.3-1.3s-1.1-2.1-1.1-3.7v-11.8h-3.5v-2.5h3.5v-4.6h3.3zm6.2 13.9c0-1.9.4-3.5 1.1-5s1.8-2.6 3.1-3.4 2.8-1.2 4.5-1.2c2.6 0 4.7.9 6.3 2.7s2.4 4.2 2.4 7.2v.2c0 1.9-.4 3.5-1.1 5s-1.7 2.6-3 3.4-2.8 1.2-4.5 1.2c-2.6 0-4.7-.9-6.3-2.7s-2.4-4.2-2.4-7.1v-.3zm3.2.4c0 2.1.5 3.8 1.5 5.1s2.3 1.9 3.9 1.9c1.7 0 3-.6 3.9-1.9s1.5-3.1 1.5-5.4c0-2.1-.5-3.8-1.5-5.1s-2.3-1.9-3.9-1.9-2.9.6-3.9 1.9-1.5 3-1.5 5.4zm31.9 12h-16.1v-2.7h16.1v2.7zm18.6-12c0 2.9-.7 5.2-2 7s-3.1 2.6-5.4 2.6c-2.4 0-4.3-.8-5.6-2.5l-.2 2.2h-3v-27h3.3v10.1c1.3-1.6 3.1-2.4 5.4-2.4s4.1.9 5.4 2.6 2 4.1 2 7.2v.2zm-3.2-.3c0-2.2-.4-3.9-1.3-5.1s-2.1-1.8-3.7-1.8c-2.1 0-3.7 1-4.6 3v8.2c1 2 2.5 3 4.7 3 1.6 0 2.8-.6 3.6-1.8s1.3-3.1 1.3-5.5zm19 7.7c-1.3 1.5-3.1 2.2-5.6 2.2-2 0-3.6-.6-4.6-1.8s-1.6-2.9-1.6-5.2v-12.4h3.3V297c0 2.9 1.2 4.3 3.5 4.3 2.5 0 4.1-.9 5-2.8v-13.8h3.3v19h-3.1l-.2-1.8zm8.2-22.1c0-.5.2-1 .5-1.3s.8-.5 1.4-.5 1.1.2 1.4.5.5.8.5 1.3-.2 1-.5 1.3-.8.5-1.4.5-1.1-.2-1.4-.5-.5-.8-.5-1.3zm3.5 24h-3.3v-19h3.3v19zm8.7 0h-3.3v-27h3.3v27zm4.4-9.6c0-2.9.7-5.3 2.1-7s3.2-2.7 5.4-2.7 4 .8 5.3 2.3v-9.9h3.3v27h-3l-.2-2c-1.3 1.6-3.1 2.4-5.4 2.4-2.2 0-4-.9-5.4-2.7s-2.1-4.2-2.1-7.1v-.3zm3.3.3c0 2.2.4 3.8 1.3 5.1s2.1 1.8 3.7 1.8c2.1 0 3.6-.9 4.5-2.8v-8.7c-1-1.8-2.5-2.7-4.5-2.7-1.6 0-2.8.6-3.7 1.8s-1.3 3.1-1.3 5.5zm31.5 12h-16.1v-2.7h16.1v2.7zm1.8-12.3c0-2.9.7-5.3 2.1-7s3.2-2.7 5.4-2.7 4 .8 5.3 2.3v-9.9h3.3v27h-3l-.2-2c-1.3 1.6-3.1 2.4-5.4 2.4-2.2 0-4-.9-5.4-2.7s-2.1-4.2-2.1-7.1v-.3zm3.2.3c0 2.2.4 3.8 1.3 5.1s2.1 1.8 3.7 1.8c2.1 0 3.6-.9 4.5-2.8v-8.7c-1-1.8-2.5-2.7-4.5-2.7-1.6 0-2.8.6-3.7 1.8s-1.3 3.1-1.3 5.5zm17.9-14.7c0-.5.2-1 .5-1.3s.8-.5 1.4-.5 1.1.2 1.4.5.5.8.5 1.3-.2 1-.5 1.3-.8.5-1.4.5-1.1-.2-1.4-.5-.5-.8-.5-1.3zm3.5 24h-3.3v-19h3.3v19zm14.4-16.1c-.5-.1-1-.1-1.6-.1-2.1 0-3.6.9-4.3 2.7v13.5h-3.3v-19h3.2l.1 2.2c1.1-1.7 2.6-2.5 4.5-2.5.6 0 1.1.1 1.4.2v3zm3.6 18.3h-2.8l10.7-27.8h2.8l-10.7 27.8zm17.6-19.5-5.3-1.6.8-2.7 5.3 2-.2-6h2.7l-.2 6.1 5.2-1.9.8 2.7-5.4 1.6 3.5 4.8-2.2 1.7-3.3-5.1-3.2 4.9-2.2-1.6 3.7-4.9zM850.3 390.2h-3.4v-25.6h3.4v25.6zm25.8 0h-3.4l-12.9-19.7v19.7h-3.4v-25.6h3.4l12.9 19.8v-19.8h3.4v25.6zm13.6-11.4c-2.9-.8-5-1.9-6.3-3.1s-2-2.7-2-4.5c0-2 .8-3.7 2.4-5s3.7-2 6.3-2c1.8 0 3.3.3 4.7 1s2.4 1.6 3.2 2.8 1.1 2.5 1.1 3.9h-3.4c0-1.6-.5-2.8-1.5-3.7s-2.4-1.3-4.2-1.3c-1.7 0-3 .4-3.9 1.1-.9.7-1.4 1.8-1.4 3.1 0 1 .4 1.9 1.3 2.7.9.7 2.4 1.4 4.5 2s3.8 1.3 5 2 2.1 1.6 2.7 2.5.9 2.1.9 3.4c0 2.1-.8 3.7-2.4 5s-3.8 1.9-6.5 1.9c-1.8 0-3.4-.3-4.9-1s-2.7-1.6-3.5-2.8-1.2-2.5-1.2-4h3.4c0 1.5.6 2.8 1.7 3.7s2.7 1.3 4.6 1.3c1.8 0 3.1-.4 4.1-1.1s1.4-1.7 1.4-3-.4-2.2-1.3-2.9-2.5-1.3-4.8-2zm31.5-11.4H913v22.8h-3.4v-22.8h-8.2v-2.8h19.8v2.8zm16.5 16.1H927l-2.4 6.7h-3.5l9.8-25.6h3l9.8 25.6h-3.5l-2.5-6.7zm-9.7-2.7h8.7l-4.4-12-4.3 12zm22.4 6.7h12.1v2.8H947v-25.6h3.4v22.8zm19.4 0h12.1v2.8h-15.5v-25.6h3.4v22.8zm23.5-8.7c-2.9-.8-5-1.9-6.3-3.1s-2-2.7-2-4.5c0-2 .8-3.7 2.4-5s3.7-2 6.3-2c1.8 0 3.3.3 4.7 1s2.4 1.6 3.2 2.8 1.1 2.5 1.1 3.9h-3.4c0-1.6-.5-2.8-1.5-3.7s-2.4-1.3-4.2-1.3c-1.7 0-3 .4-3.9 1.1-.9.7-1.4 1.8-1.4 3.1 0 1 .4 1.9 1.3 2.7.9.7 2.4 1.4 4.5 2s3.8 1.3 5 2 2.1 1.6 2.7 2.5.9 2.1.9 3.4c0 2.1-.8 3.7-2.4 5s-3.8 1.9-6.5 1.9c-1.8 0-3.4-.3-4.9-1s-2.7-1.6-3.5-2.8-1.2-2.5-1.2-4h3.4c0 1.5.6 2.8 1.7 3.7s2.7 1.3 4.6 1.3c1.8 0 3.1-.4 4.1-1.1s1.4-1.7 1.4-3-.4-2.2-1.3-2.9-2.5-1.3-4.8-2zm31.6-2.3h7.1v3.1h-7.1v8.1h-3.3v-8.1h-7.1v-3.1h7.1V369h3.3v7.5zm25.9-.6h-14.7v-2.8h14.7v2.8zm0 7.3h-14.7v-2.8h14.7v2.8zm12.1-18.6h3.1l10.7 27.8h-3.1l-10.7-27.8zm-173.5 66.5c1.2 0 2.2-.4 3-1.1s1.3-1.6 1.4-2.6h3.1c-.1 1.1-.4 2.1-1.1 3.1s-1.6 1.8-2.8 2.4-2.4.9-3.7.9c-2.6 0-4.6-.9-6.2-2.6s-2.3-4.1-2.3-7.1v-.5c0-1.9.3-3.5 1-4.9s1.7-2.6 2.9-3.4 2.8-1.2 4.5-1.2c2.1 0 3.9.6 5.3 1.9s2.2 2.9 2.3 5h-3.1c-.1-1.2-.6-2.2-1.4-3s-1.9-1.2-3.1-1.2c-1.7 0-2.9.6-3.8 1.8s-1.4 2.9-1.4 5.2v.6c0 2.2.5 3.9 1.4 5.1s2.4 1.6 4 1.6zm10.4-7.4c0-1.9.4-3.5 1.1-5s1.8-2.6 3.1-3.4 2.8-1.2 4.5-1.2c2.6 0 4.7.9 6.3 2.7s2.4 4.2 2.4 7.2v.2c0 1.9-.4 3.5-1.1 5s-1.7 2.6-3 3.4-2.8 1.2-4.5 1.2c-2.6 0-4.7-.9-6.3-2.7s-2.4-4.2-2.4-7.1v-.3zm3.3.4c0 2.1.5 3.8 1.5 5.1s2.3 1.9 3.9 1.9c1.7 0 3-.6 3.9-1.9s1.5-3.1 1.5-5.4c0-2.1-.5-3.8-1.5-5.1s-2.3-1.9-3.9-1.9-2.9.6-3.9 1.9-1.5 3-1.5 5.4zm34.1 0c0 2.9-.7 5.2-2 7s-3.1 2.7-5.4 2.7c-2.3 0-4.1-.7-5.4-2.2v9.2h-3.3v-26.3h3l.2 2.1c1.3-1.6 3.2-2.5 5.5-2.5s4.1.9 5.4 2.6 2 4.1 2 7.2v.2zm-3.2-.3c0-2.1-.5-3.8-1.4-5.1s-2.2-1.9-3.8-1.9c-2 0-3.4.9-4.4 2.6v9.1c1 1.7 2.5 2.6 4.5 2.6 1.6 0 2.8-.6 3.7-1.9s1.4-3 1.4-5.4zm13.4 4.9 4.4-14.3h3.5l-7.6 22c-1.2 3.2-3.1 4.7-5.6 4.7l-.6-.1-1.2-.2v-2.6l.9.1c1.1 0 2-.2 2.6-.7s1.1-1.3 1.5-2.4l.7-1.9-6.8-18.8h3.6l4.6 14.2zm24.5 7.4h-16.1v-2.7h16.1v2.7zm7-26.3v4.6h3.6v2.5h-3.6v11.8c0 .8.2 1.3.5 1.7.3.4.9.6 1.6.6.4 0 .9-.1 1.5-.2v2.6c-.9.2-1.7.3-2.5.3-1.5 0-2.5-.4-3.3-1.3s-1.1-2.1-1.1-3.7v-11.8h-3.5v-2.5h3.5v-4.6h3.3zm6.1 13.9c0-1.9.4-3.5 1.1-5s1.8-2.6 3.1-3.4 2.8-1.2 4.5-1.2c2.6 0 4.7.9 6.3 2.7s2.4 4.2 2.4 7.2v.2c0 1.9-.4 3.5-1.1 5s-1.7 2.6-3 3.4-2.8 1.2-4.5 1.2c-2.6 0-4.7-.9-6.3-2.7s-2.4-4.2-2.4-7.1v-.3zm3.3.4c0 2.1.5 3.8 1.5 5.1s2.3 1.9 3.9 1.9c1.7 0 3-.6 3.9-1.9s1.5-3.1 1.5-5.4c0-2.1-.5-3.8-1.5-5.1s-2.3-1.9-3.9-1.9-2.9.6-3.9 1.9-1.5 3-1.5 5.4zm31.8 12H1004v-2.7h16.1v2.7zm18.6-12c0 2.9-.7 5.2-2 7s-3.1 2.6-5.4 2.6c-2.4 0-4.3-.8-5.6-2.5l-.2 2.2h-3v-27h3.3v10.1c1.3-1.6 3.1-2.4 5.4-2.4s4.1.9 5.4 2.6 2 4.1 2 7.2v.2zm-3.2-.3c0-2.2-.4-3.9-1.3-5.1s-2.1-1.8-3.7-1.8c-2.1 0-3.7 1-4.6 3v8.2c1 2 2.5 3 4.7 3 1.6 0 2.8-.6 3.6-1.8s1.3-3.1 1.3-5.5zm19.1 7.7c-1.3 1.5-3.1 2.2-5.6 2.2-2 0-3.6-.6-4.6-1.8s-1.6-2.9-1.6-5.2v-12.4h3.3v12.3c0 2.9 1.2 4.3 3.5 4.3 2.5 0 4.1-.9 5-2.8v-13.8h3.3v19h-3.1l-.2-1.8zm8.1-22.1c0-.5.2-1 .5-1.3s.8-.5 1.4-.5 1.1.2 1.4.5.5.8.5 1.3-.2 1-.5 1.3-.8.5-1.4.5-1.1-.2-1.4-.5-.5-.8-.5-1.3zm3.5 24h-3.3v-19h3.3v19zm8.8 0h-3.3v-27h3.3v27zm4.4-9.6c0-2.9.7-5.3 2.1-7s3.2-2.7 5.4-2.7 4 .8 5.3 2.3v-9.9h3.3v27h-3l-.2-2c-1.3 1.6-3.1 2.4-5.4 2.4-2.2 0-4-.9-5.4-2.7s-2.1-4.2-2.1-7.1v-.3zm3.2.3c0 2.2.4 3.8 1.3 5.1s2.1 1.8 3.7 1.8c2.1 0 3.6-.9 4.5-2.8v-8.7c-1-1.8-2.5-2.7-4.5-2.7-1.6 0-2.8.6-3.7 1.8s-1.3 3.1-1.3 5.5z"/></svg>