<svg xmlns="http://www.w3.org/2000/svg" viewBox="0 0 1920 673" style="enable-background:new 0 0 1920 673" xml:space="preserve"><path style="fill:#d93834" d="M0 0h1920v673H0z"/><path d="M758.6 167.9h53.7c12.1 0 21.3.9 27.7 2.8 8.5 2.5 15.8 7 21.9 13.4 6.1 6.4 10.7 14.3 13.9 23.6 3.2 9.3 4.8 20.7 4.8 34.4 0 12-1.5 22.3-4.5 30.9-3.6 10.6-8.8 19.1-15.6 25.7-5.1 5-12 8.8-20.6 11.6-6.5 2.1-15.1 3.1-26 3.1h-55.3V167.9zm29.3 24.6v96.3h21.9c8.2 0 14.1-.5 17.8-1.4 4.8-1.2 8.7-3.2 11.9-6.1 3.1-2.8 5.7-7.5 7.7-14s3-15.4 3-26.6c0-11.2-1-19.9-3-25.9s-4.8-10.7-8.3-14.1c-3.6-3.4-8.1-5.7-13.6-6.8-4.1-.9-12.1-1.4-24.1-1.4h-13.3zm117.5 120.9V167.9h107.8v24.6h-78.5v32.2h73v24.5h-73v39.6h81.2v24.5H905.4zm172.6 0L1026 168h31.8l36.8 107.6 35.6-107.6h31.1l-52.1 145.4H1078zM854 468.6l35.6 11.3c-5.5 19.9-14.5 34.6-27.2 44.2-12.7 9.6-28.8 14.5-48.3 14.5-24.2 0-44-8.3-59.6-24.8-15.6-16.5-23.3-39.1-23.3-67.7 0-30.3 7.8-53.8 23.5-70.6 15.6-16.8 36.2-25.1 61.7-25.1 22.3 0 40.3 6.6 54.2 19.7 8.3 7.8 14.5 18.9 18.6 33.5l-36.4 8.7c-2.2-9.4-6.6-16.9-13.5-22.3s-15.1-8.2-24.9-8.2c-13.5 0-24.4 4.8-32.8 14.5-8.4 9.7-12.6 25.4-12.6 47 0 23 4.1 39.4 12.4 49.1 8.3 9.8 19 14.6 32.3 14.6 9.8 0 18.2-3.1 25.2-9.3 7-6 12-15.7 15.1-29.1zm106.9 40.8v-47.3h-47.7v-32.6h47.7v-47.3h31.8v47.3h47.8v32.6h-47.8v47.3h-31.8zm148.4 0v-47.3h-47.7v-32.6h47.7v-47.3h31.8v47.3h47.8v32.6h-47.8v47.3h-31.8z" style="fill:#fff"/></svg>