<svg xmlns="http://www.w3.org/2000/svg" viewBox="0 0 1920 673" xml:space="preserve"><path fill="#4bbd97" d="M0 0h1920v673H0z"/><path d="M516.3 372.6c0-.3 0-.5-.1-.7.1-.4.1-1 .1-1.8v-67.2c0-.8 0-1.4-.1-1.8 0-.2.1-.4.1-.7.2-83.3 9.9-152.4 51.4-210.5.8-1.1.8-1.3.8-1.5 0-1.2-.8-1.2-2.7-1.2-1.9 0-2.1 0-2.4.2-.5.4-15.6 17.7-27.6 41.6-15.7 31.4-25.5 67.4-29.9 110.6-.4 3.7-2.9 28.4-2.9 56.6v4.6c0 .1 0 .3.1.4-.1.4-.1 1-.1 1.8v67.2c0 .7 0 1.3.1 1.8 0 .1-.1.2-.1.4v4.6c0 72.6 12.9 115.1 16.6 127.1 8.1 26.4 21.3 54.2 41.1 78.6 1.8 2.1 2.3 2.7 2.7 3 .2.1.4.2 2.3.2s2.7 0 2.7-1.2c0-.2 0-.5-.7-1.5-39.4-55-51.3-121-51.4-210.6zm191.5-184.9c0 5.1.4 6.8 13 6.8h4.4v4.1c-3.8-.3-17.5-.3-22.2-.3-4.7 0-18.5 0-22.4.3v-4.1h4.4c12.5 0 13-1.7 13-6.8v-74.3c-7.8 3.7-15 3.7-18.2 3.7V113c14.7 0 21.8-5.3 25.2-9.1 2.9 0 2.9.1 2.9 3.4v80.4zm241.4 11h-52v-3.4L926 163c8.1-9.1 15.1-19.7 15.1-31.8 0-13.1-7.4-23.2-19.5-23.2-9.3 0-17 6.6-19.7 16.3.4-.1.7-.1 2-.1 4 0 6.7 2.7 6.7 6.7 0 4.6-3.7 6.7-6.7 6.7-.4 0-6.7 0-6.7-7.3 0-12.3 9.7-26.4 26.2-26.4s29.5 11 29.5 27.4c0 14.1-8 21.5-29.7 41.5-3.7 3.4-12.4 12.5-16.3 15.8h26.4c4.3 0 12.4 0 13.4-1.3 1.4-2.3 2.6-10.1 3-12.5h3.1l-3.6 23.9zm41.2-51.6c3.8-.1 8.7-.6 13-6.8 4.1-6.1 4.6-14.1 4.6-16.8 0-14-9.3-16.1-14-16.1-.7 0-14.1 0-19.5 9.7.4-.1.7-.1 1.6-.1 3.1 0 6.6 2 6.6 6.6 0 4.3-3.4 6.4-6.4 6.4-2.1 0-6.6-1.1-6.6-6.8 0-10.4 10.5-19.1 24.8-19.1 13.8 0 25.5 8.3 25.5 19.5 0 11.1-8 21.5-20.4 25.1 13.7 2.4 24.2 12.7 24.2 25.8 0 14.4-12.5 27.4-29.5 27.4-15.8 0-28.5-10.4-28.5-23.1 0-5.4 3.7-7.4 7.1-7.4 4 0 7 2.9 7 7 0 5.1-4.1 7.7-8.7 7 4.1 9.4 15.8 12.7 22.7 12.7 7 0 16.7-5 16.7-23.7 0-13.7-5.4-23.7-17.5-23.7h-6.6c-2.6 0-3.3 0-3.3-1.4 0-1.3.6-1.4 3-1.6l4.2-.6zm209.4 23.6h14.4v4.1h-14.4v13c0 5.3.4 6.7 10.7 6.7h2.9v4.1c-3.3-.3-14.7-.3-18.7-.3s-15.3 0-18.5.3v-4.1h2.9c10.4 0 10.7-1.4 10.7-6.7v-13h-37.5v-4.1l42.9-66.6c1.1-1.7 1.6-1.7 2.7-1.7 2 0 2 .7 2 3.4v64.9zm-44 0h34.6V117l-34.6 53.7zm80.5-24.2c3.7-4 10-7.6 18.1-7.6 15 0 26.4 14.1 26.4 31.1 0 18.1-14.1 31.6-30.2 31.6-15.8 0-25.5-13.8-25.5-25.9 0-5.6 3.7-6.8 6.3-6.8 3.6 0 6.3 2.3 6.3 6.3 0 4.8-3.8 6.3-6.3 6.3-.7 0-1.6-.1-2.3-.4 2.6 10.4 11.8 16.8 21.2 16.8 6.3 0 11.8-3.6 15-8.7 4-6.4 4-14.5 4-20s-.1-12.4-2.6-18c-1.1-2.4-4.8-9.4-12.4-9.4-7.1 0-13.8 3.4-17.8 9.3-1.4 1.7-1.6 1.9-2.3 1.9-1.7 0-1.7-.9-1.7-3.4v-42.3c0-2.3 0-3.1 1.1-3.1.1 0 .4 0 1.4.4 2.7 1.1 9.4 4 18.8 4 3.7 0 10.6-.4 18.5-3.8 1.3-.6 1.6-.6 1.9-.6.9 0 1.1.7 1.1 1.3 0 2-10.3 13.8-26.4 13.8-1.6 0-6.6-.1-12.7-2.1v29.3zM678.9 312.1c-6.7 9.6-10.1 26.1-10.1 47.3v7.1c0 1.9 0 7.4-6 7.4-5.8 0-5.8-5.7-5.8-7.3 0-26.8 14.4-50.2 18.2-55.7l15.1-21.7h-30.2c-2 0-12.7 0-13.8.9-1.9 1.6-3.1 10.4-3.6 13h-3.1l4.4-28.5h3.1c.6 2.7.9 4.6 18.1 4.6h34.4v3.3l-20.7 29.6zm81.7 58.8h-52v-3.4l28.8-32.2c8.1-9.1 15.1-19.7 15.1-31.8 0-13.1-7.4-23.2-19.5-23.2-9.3 0-17 6.6-19.7 16.3.4-.1.7-.1 2-.1 4 0 6.7 2.7 6.7 6.7 0 4.6-3.7 6.7-6.7 6.7-.4 0-6.7 0-6.7-7.3 0-12.3 9.7-26.4 26.2-26.4s29.5 11 29.5 27.4c0 14.1-8 21.5-29.7 41.5-3.7 3.4-12.4 12.5-16.3 15.8h26.4c4.3 0 12.4 0 13.4-1.3 1.4-2.3 2.6-10.1 3-12.5h3.1l-3.6 23.8zm223.4 0h-52v-3.4l28.8-32.2c8.1-9.1 15.1-19.7 15.1-31.8 0-13.1-7.4-23.2-19.5-23.2-9.3 0-17 6.6-19.7 16.3.4-.1.7-.1 2-.1 4 0 6.7 2.7 6.7 6.7 0 4.6-3.7 6.7-6.7 6.7-.4 0-6.7 0-6.7-7.3 0-12.3 9.7-26.4 26.2-26.4s29.5 11 29.5 27.4c0 14.1-8 21.5-29.7 41.5-3.7 3.4-12.4 12.5-16.3 15.8h26.4c4.3 0 12.4 0 13.4-1.3 1.4-2.3 2.6-10.1 3-12.5h3.1l-3.6 23.8zm263.2-23.6c0 15-13.3 26.7-29.1 26.7-14.5 0-28.9-9.4-28.9-24.5 0-10.4 7.1-20 21-26.4-10-7-10.1-7.1-11.7-9-4-4.8-5.4-9.7-5.4-14.5 0-13 11.1-23.4 25.2-23.4 13.1 0 25.1 8.6 25.1 21 0 12-10.4 18.5-17.5 22.4 11 6.7 21.3 13.1 21.3 27.7zm-51.5 2.1c0 11.8 10.4 20.7 22.5 20.7 11.4 0 22.4-7.4 22.4-18.2 0-8.7-6.6-13.1-10.3-15.5l-17.3-11.3c-9.2 4.2-17.3 13.2-17.3 24.3zm27.2-31.9c8.3-4.6 14.5-11.5 14.5-20.2 0-10.3-9.1-17.7-19.4-17.7-9.6 0-19.2 5.8-19.2 15.1 0 7 5.7 10.7 7.6 12l16.5 10.8zM683.3 515.3h14.4v4.1h-14.4v13c0 5.3.4 6.7 10.7 6.7h2.9v4.1c-3.3-.3-14.7-.3-18.7-.3s-15.3 0-18.5.3v-4.1h2.9c10.4 0 10.7-1.4 10.7-6.7v-13h-37.5v-4.1l42.9-66.6c1.1-1.7 1.6-1.7 2.7-1.7 2 0 2 .7 2 3.4v64.9zm-44 0h34.6v-53.7l-34.6 53.7zm103.3 16.9c0 5.1.4 6.8 13 6.8h4.4v4.1c-3.8-.3-17.5-.3-22.2-.3-4.7 0-18.5 0-22.4.3V539h4.4c12.5 0 13-1.7 13-6.8V458c-7.8 3.7-15 3.7-18.2 3.7v-4.1c14.7 0 21.8-5.3 25.2-9.1 2.9 0 2.9.1 2.9 3.4v80.3zm240.8-1.7c-4.1 8.3-11.3 15.7-23.7 15.7-7.4 0-17.2-3.4-22.8-14.3-5.1-10.1-6.1-20.5-6.1-34.4 0-15.4 1.4-24.2 5.4-33.2 5.3-11.8 15.4-16 23.7-16 7 0 17.2 3.1 23.1 15 5.1 10.8 5.8 22.4 5.8 34.2 0 8.4-.2 22.3-5.4 33zm-7-5.5c1.6-8.7 1.6-19.5 1.6-29.1 0-9.7 0-21-1.9-29.1-2.7-12.3-11-15.5-16.4-15.5-6.1 0-13.4 4.4-15.8 14-2.3 8.4-2.3 19-2.3 30.7 0 10 0 20.8 1.6 29.4 2.7 15.5 12 18.1 16.5 18.1 5.1-.1 14-2.9 16.7-18.5zm237.4-33.4c3.8-.1 8.7-.6 13-6.8 4.1-6.1 4.6-14.1 4.6-16.8 0-14-9.3-16.1-14-16.1-.7 0-14.1 0-19.5 9.7.4-.1.7-.1 1.6-.1 3.1 0 6.6 2 6.6 6.6 0 4.3-3.4 6.4-6.4 6.4-2.1 0-6.6-1.1-6.6-6.8 0-10.4 10.5-19.1 24.8-19.1 13.8 0 25.5 8.3 25.5 19.5 0 11.1-8 21.5-20.4 25.1 13.7 2.4 24.2 12.7 24.2 25.8 0 14.4-12.5 27.4-29.5 27.4-15.8 0-28.5-10.4-28.5-23.1 0-5.4 3.7-7.4 7.1-7.4 4 0 7 2.9 7 7 0 5.1-4.1 7.7-8.7 7 4.1 9.4 15.8 12.7 22.7 12.7 7 0 16.7-5 16.7-23.7 0-13.7-5.4-23.7-17.5-23.7h-6.6c-2.6 0-3.3 0-3.3-1.4 0-1.3.6-1.4 3-1.6l4.2-.6zm203.1-195.5c0-72.6-12.9-115.1-16.6-127.1-8.1-26.4-21.3-54.2-41.1-78.6-1.8-2.1-2.3-2.7-2.7-3-.2-.1-.4-.2-2.3-.2-1.8 0-2.7 0-2.7 1.2 0 .2 0 .5 1.5 2.6 41.3 57.7 50.6 129 50.7 209.5 0 .3 0 .5.1.7-.1.4-.1 1-.1 1.8v67.2c0 .8 0 1.4.1 1.8 0 .2-.1.4-.1.7 0 12.2-.1 40.5-3.2 70.1-6.4 61.4-22.2 104-48.2 140.4-.8 1.1-.8 1.3-.8 1.5 0 1.2 1 1.2 2.7 1.2 1.9 0 2.1 0 2.4-.2.5-.4 15.6-17.7 27.6-41.6 15.7-31.4 25.5-67.4 29.9-110.6.4-3.7 2.9-28.4 2.9-56.6v-4.6c0-.1 0-.3-.1-.4.1-.4.1-1 .1-1.8v-67.2c0-.7 0-1.3-.1-1.8 0-.1.1-.2.1-.4v-4.6z" fill="#fff"/></svg>