<svg xmlns="http://www.w3.org/2000/svg" viewBox="0 0 1920 673" xml:space="preserve"><style>.st1{fill:#fff}</style><path fill="#347cce" d="M0 0h1920v673H0z"/><path class="st1" d="M476.7 511.8c0-4.3-1.5-7.6-4.5-10-3-2.4-8.3-4.8-15.9-7.4-7.6-2.5-13.8-5-18.6-7.4-15.7-7.7-23.5-18.3-23.5-31.7 0-6.7 2-12.6 5.9-17.7 3.9-5.1 9.4-9.1 16.6-12 7.1-2.8 15.2-4.3 24.1-4.3 8.7 0 16.5 1.5 23.4 4.6 6.9 3.1 12.2 7.5 16.1 13.2 3.8 5.7 5.7 12.3 5.7 19.6h-29.1c0-4.9-1.5-8.7-4.5-11.5-3-2.7-7.1-4.1-12.2-4.1-5.2 0-9.3 1.1-12.3 3.4s-4.5 5.2-4.5 8.8c0 3.1 1.7 5.9 5 8.4s9.2 5.1 17.5 7.8c8.4 2.7 15.2 5.6 20.6 8.7 13.1 7.5 19.6 17.9 19.6 31.1 0 10.6-4 18.9-12 24.9s-18.9 9-32.8 9c-9.8 0-18.7-1.8-26.6-5.3-7.9-3.5-13.9-8.3-17.9-14.4-4-6.1-6-13.2-6-21.1H440c0 6.5 1.7 11.2 5 14.3 3.3 3.1 8.8 4.6 16.3 4.6 4.8 0 8.6-1 11.4-3.1 2.6-1.7 4-4.6 4-8.4zM623.3 486c0 11.2-1.9 20.9-5.6 29.3-3.7 8.3-8.8 15-15.4 20l19.5 15.4-18 15.3-26-20.9c-2.4.3-4.9.5-7.3.5-10.3 0-19.4-2.4-27.4-7.1-8-4.8-14.2-11.6-18.6-20.4-4.5-8.9-6.8-19-6.9-30.5v-6.4c0-11.9 2.2-22.4 6.5-31.4s10.5-16 18.6-20.9c8.1-4.9 17.3-7.4 27.7-7.4 10.2 0 19.4 2.4 27.4 7.3s14.3 11.8 18.7 20.8c4.5 9 6.7 19.3 6.8 30.9v5.5zm-29.6-5c0-12-2-21.1-6-27.4-4-6.2-9.8-9.3-17.2-9.3-7.7 0-13.5 3.1-17.3 9.2-3.9 6.1-5.8 15.1-5.9 27v5.6c0 11.9 2 21 5.9 27.4 3.9 6.3 9.8 9.5 17.5 9.5 7.4 0 13.1-3.1 17.1-9.4 4-6.3 6-15.2 6-27V481zm73.6 40.6H718V544h-79.9V423.1h29.1v98.5zm61.5-90.6c0-4 1.4-7.2 4.3-9.8 2.9-2.5 6.6-3.8 11.2-3.8s8.3 1.3 11.2 3.8c2.9 2.5 4.3 5.8 4.3 9.8s-1.4 7.3-4.3 9.8c-2.9 2.5-6.6 3.8-11.2 3.8s-8.3-1.3-11.2-3.8c-2.8-2.6-4.3-5.8-4.3-9.8zm29.7 113h-28.1v-89.8h28.1V544zm49.8-112.2v22.3h14.8v19.4h-14.8v41.1c0 3.4.6 5.7 1.8 7.1 1.2 1.3 3.6 2 7.2 2 2.8 0 5.1-.2 7-.5v20c-5 1.6-10.3 2.4-15.8 2.4-9.6 0-16.7-2.3-21.3-6.8-4.6-4.5-6.9-11.4-6.9-20.7v-44.6h-11.5v-19.4h11.5v-22.3h28zm69.3 113.8c-13.8 0-24.9-4.1-33.5-12.3-8.5-8.2-12.8-18.9-12.8-32.1v-2.3c0-9.2 1.7-17.3 5.1-24.3 3.4-7 8.4-12.5 14.9-16.3 6.5-3.8 14.3-5.8 23.2-5.8 12.6 0 22.6 3.9 29.9 11.7 7.3 7.8 11 18.7 11 32.7v10.9h-55.6c1 5 3.2 9 6.6 11.9 3.4 2.9 7.7 4.3 13.1 4.3 8.9 0 15.8-3.1 20.8-9.3l12.8 15.1c-3.5 4.8-8.4 8.6-14.8 11.5-6.5 2.9-13.4 4.3-20.7 4.3zm-3.2-71.5c-8.2 0-13.1 5.4-14.6 16.3H888v-2.2c.1-4.5-1-8-3.4-10.4-2.4-2.5-5.8-3.7-10.2-3.7z"/><ellipse class="st1" cx="1464.5" cy="293.2" rx="233.1" ry="87.4"/><path class="st1" d="M1642.5 669.7c-3 1.1-6.1 2.2-9.3 3.3h64.4v-32.8c-14.5 11.2-33 21.1-55.1 29.5zm-178-9.3c128.8 0 233.1-39.2 233.1-87.4v-72.6c-14.5 11.2-33 21.1-55.1 29.5-48.1 18.1-111.3 28-178 28s-129.9-9.9-178-28c-22.3-8.4-40.8-18.3-55.1-29.5V573c-.1 48.2 104.3 87.4 233.1 87.4zm166.7-102.6c0-5.1 4.2-9.3 9.3-9.3s9.3 4.2 9.3 9.3v46.6c0 5.1-4.2 9.3-9.3 9.3s-9.3-4.2-9.3-9.3v-46.6z"/><path class="st1" d="M1464.5 520.5c128.8 0 233.1-39.2 233.1-87.4v-72.6c-14.5 11.2-33 21.1-55.1 29.5-48.1 18.1-111.3 28-178 28s-129.9-9.9-178-28c-22.3-8.4-40.8-18.3-55.1-29.5V433c-.1 48.3 104.3 87.5 233.1 87.5zm166.7-102.6c0-5.1 4.2-9.3 9.3-9.3s9.3 4.2 9.3 9.3v46.6c0 5.1-4.2 9.3-9.3 9.3s-9.3-4.2-9.3-9.3v-46.6zM1295.8 673c-3.2-1.1-6.3-2.2-9.3-3.3-22.3-8.4-40.8-18.3-55.1-29.5V673h64.4z"/></svg>