<svg xmlns="http://www.w3.org/2000/svg" viewBox="0 0 1920 673" xml:space="preserve"><path fill="#59c7d2" d="M0 0h1920v673H0z"/><path d="M470.4 362.3v48.2h-34.3V268.3h56.7c10.9 0 20.5 2 28.9 6 8.4 4 14.8 9.7 19.4 17.1 4.6 7.4 6.9 15.8 6.9 25.1 0 13.9-5 25-14.9 33.3-9.9 8.3-23.6 12.5-40.9 12.5h-21.8zm0-26.5h22.5c6.6 0 11.7-1.7 15.2-5s5.2-8 5.2-14.1c0-6.6-1.8-11.9-5.4-15.9-3.6-4-8.5-6-14.6-6.1h-22.9v41.1zm151 36.1 28.3-103.5H688l-47.9 142.2h-37.5l-47.5-142.2h38l28.3 103.5zm150.3.8c0-5-1.8-8.9-5.3-11.7-3.5-2.8-9.8-5.7-18.7-8.7-8.9-3-16.2-5.9-21.9-8.7-18.4-9-27.6-21.5-27.6-37.3 0-7.9 2.3-14.8 6.9-20.8 4.6-6 11.1-10.7 19.5-14.1 8.4-3.4 17.8-5 28.3-5 10.2 0 19.4 1.8 27.5 5.5 8.1 3.6 14.4 8.8 18.9 15.6s6.7 14.4 6.7 23.1h-34.2c0-5.8-1.8-10.3-5.3-13.5-3.5-3.2-8.3-4.8-14.4-4.8s-11 1.4-14.5 4.1c-3.5 2.7-5.3 6.1-5.3 10.3 0 3.6 2 7 5.9 9.9 3.9 3 10.8 6 20.6 9.2 9.8 3.2 17.9 6.6 24.2 10.2 15.4 8.9 23 21.1 23 36.6 0 12.4-4.7 22.2-14.1 29.3-9.4 7.1-22.2 10.6-38.6 10.6-11.5 0-22-2.1-31.3-6.2s-16.4-9.8-21.1-17c-4.7-7.2-7.1-15.5-7.1-24.9h34.4c0 7.6 2 13.2 5.9 16.8 3.9 3.6 10.3 5.4 19.2 5.4 5.7 0 10.1-1.2 13.4-3.7 3.4-2.3 5-5.7 5-10.2zm114.7-10.8h-58.7v-25.4h58.7v25.4zm100.5 10.8c0-5-1.8-8.9-5.3-11.7-3.5-2.8-9.8-5.7-18.7-8.7-8.9-3-16.2-5.9-21.9-8.7-18.4-9-27.6-21.5-27.6-37.3 0-7.9 2.3-14.8 6.9-20.8 4.6-6 11.1-10.7 19.5-14.1 8.4-3.4 17.8-5 28.3-5 10.2 0 19.4 1.8 27.5 5.5 8.1 3.6 14.4 8.8 18.9 15.6s6.7 14.4 6.7 23.1H987c0-5.8-1.8-10.3-5.3-13.5-3.5-3.2-8.3-4.8-14.4-4.8s-11 1.4-14.5 4.1c-3.5 2.7-5.3 6.1-5.3 10.3 0 3.6 2 7 5.9 9.9 3.9 3 10.8 6 20.6 9.2 9.8 3.2 17.9 6.6 24.2 10.2 15.4 8.9 23 21.1 23 36.6 0 12.4-4.7 22.2-14.1 29.3-9.4 7.1-22.2 10.6-38.6 10.6-11.5 0-22-2.1-31.3-6.2s-16.4-9.8-21.1-17c-4.7-7.2-7.1-15.5-7.1-24.9h34.4c0 7.6 2 13.2 5.9 16.8 3.9 3.6 10.3 5.4 19.2 5.4 5.7 0 10.1-1.2 13.4-3.7 3.3-2.3 5-5.7 5-10.2zm88.6-94.1v26.3h17.4v22.9h-17.4v48.3c0 4 .7 6.7 2.1 8.3 1.4 1.6 4.3 2.3 8.5 2.3 3.3 0 6-.2 8.2-.6v23.5c-5.9 1.9-12.1 2.8-18.6 2.8-11.3 0-19.7-2.7-25.1-8-5.4-5.3-8.1-13.4-8.1-24.3v-52.4H1029v-22.9h13.5v-26.3h33zm93.3 120.5c-7 8.9-16.4 13.4-28.2 13.4-11.6 0-20.4-3.4-26.3-10.1s-8.9-16.4-8.9-29.1v-68.5h32.9v68.7c0 9 4.4 13.6 13.2 13.6 7.6 0 12.9-2.7 16.1-8.1v-74.1h33.1v105.7h-30.9l-1-11.5zm45.7-42.2c0-16.7 3.6-29.9 10.8-39.6 7.2-9.6 17.3-14.5 30.3-14.5 9.4 0 17.4 3.7 23.8 11.1v-53.5h33v150h-29.6l-1.7-11.3c-6.8 8.9-15.4 13.3-25.8 13.3-12.6 0-22.5-4.8-29.9-14.5-7.2-9.5-10.9-23.2-10.9-41zm32.9 2.1c0 18.8 5.5 28.1 16.4 28.1 7.3 0 12.5-3.1 15.6-9.2v-40.2c-3-6.3-8.1-9.4-15.4-9.4-10.2 0-15.7 8.2-16.5 24.6l-.1 6.1zm83.5-81.4c0-4.7 1.7-8.5 5.1-11.5 3.4-3 7.8-4.5 13.2-4.5 5.4 0 9.8 1.5 13.2 4.5 3.4 3 5.1 6.8 5.1 11.5s-1.7 8.5-5.1 11.5c-3.4 3-7.8 4.5-13.2 4.5-5.4 0-9.8-1.5-13.2-4.5-3.4-3-5.1-6.8-5.1-11.5zm35 132.9h-33V304.9h33v105.6zm16.1-53.8c0-10.5 2.1-19.9 6.2-28.2 4.1-8.2 10-14.6 17.7-19 7.7-4.4 16.7-6.6 27.1-6.6 15.8 0 28.3 4.9 37.4 14.7 9.1 9.8 13.7 23.1 13.7 40v1.2c0 16.5-4.6 29.5-13.7 39.2-9.1 9.7-21.5 14.5-37.2 14.5-15 0-27.1-4.5-36.2-13.5-9.1-9-14-21.2-14.7-36.7l-.3-5.6zm32.9 2.1c0 9.8 1.5 16.9 4.6 21.5 3.1 4.6 7.6 6.8 13.6 6.8 11.7 0 17.7-9 18-27.1v-3.3c0-18.9-6.1-28.4-18.2-28.4-11 0-17 8.2-17.9 24.5l-.1 6z" fill="#212a2c"/></svg>