<svg xmlns="http://www.w3.org/2000/svg" viewBox="0 0 1920 673" xml:space="preserve"><style>.st1{fill:#fff}</style><path fill="#5ac046" d="M0 0h1920v673H0z"/><path class="st1" d="M732.9 388c0-1 .2-2.1.8-3.4l45.8-100.3c1.6-3.6 4-5.7 8.1-5.7h.6c3.9 0 6.5 2.1 7.9 5.7L842 384.5c.5 1.1.8 2.3.8 3.2 0 3.4-2.7 6.1-6.1 6.1-3.1 0-5.2-2.1-6.3-4.7l-11.8-26h-62l-11.8 26.3c-1.1 2.7-3.2 4.4-6.1 4.4-3.2 0-5.8-2.5-5.8-5.8 0 .1 0 0 0 0zm28.7-36.5h52l-26-57.8-26 57.8zm210.7 35.9c0 3.6 2.9 6.5 6.5 6.5s6.5-2.9 6.5-6.5v-95.6h32.8c3.2 0 6-2.6 6-5.8-.1-3.3-2.7-5.9-6-6h-78.5c-3.3.1-5.9 2.7-6 6 0 3.2 2.7 5.8 6 5.8h32.8c-.1 0-.1 95.6-.1 95.6zm208.6 7.6c-34.4 0-57.5-27-57.5-58.1v-.3c0-31.2 23.4-58.5 57.8-58.5s57.5 27 57.5 58.1v.3c0 31.2-23.4 58.5-57.8 58.5zm.4-11.8c25.8 0 44.2-20.7 44.2-46.3v-.3c0-25.7-18.7-46.7-44.6-46.7-25.8 0-44.2 20.7-44.2 46.3v.3c0 25.7 18.7 46.7 44.6 46.7zm173.5 4.3c0 3.6 2.7 6.3 6.1 6.3 3.4.1 6.2-2.7 6.3-6.1v-84.5l36 53c1.5 2.1 3.2 3.2 5.5 3.2s3.9-1.1 5.3-3.2l36.2-53.1v84.3c0 3.4 2.9 6.5 6.5 6.5 3.4 0 6.3-2.9 6.3-6.5V285.8c-.1-3.5-2.8-6.2-6.3-6.3h-1.5c-2.6 0-4.7 1.3-6 3.4l-40.4 60.7-40.4-60.7c-1.3-1.9-3.2-3.4-6-3.4h-1.5c-3.5.1-6.2 2.8-6.3 6.3.2 0 .2 101.7.2 101.7zM626.3 312c-18-7.7-42.2-12.7-68.1-14-4.2-.2-8.2-.3-12-.4 19.1-23.3 39.7-39 53.1-39.5 2.7-.1 4.9.4 6.7 1.6 5.8 3.8 7.5 14.6 4.5 29.7-.4 2.1.9 4 3 4.4 2 .4 4-.9 4.4-3 3.7-18.8 1-31.8-7.8-37.5-3.1-2-6.9-3-11.2-2.8-16.9.6-40.8 19-62.7 47.2-9.6.3-18.5 1.1-26.8 2.4-1-4.5-1.8-8.8-2.3-13-2.1-17.1.6-28.9 7.2-32.3 1.1-.6 2.4-.9 3.8-1 5.8-.4 13.7 3.3 22.4 10.5 1.6 1.3 4 1.1 5.3-.5 1.3-1.6 1.1-4-.5-5.3-10.3-8.6-19.9-12.8-27.8-12.2-2.4.2-4.6.8-6.6 1.8-9.8 5-13.8 19.2-11.3 39.9.5 4.3 1.3 8.8 2.3 13.4-27.1 5.4-44.4 16.3-45.1 29.9-.5 9.7 7.1 18.9 22.1 26.6 1.9 1 4.1.2 5.1-1.6 1-1.9.2-4.1-1.6-5.1-12-6.2-18.4-13.1-18-19.4.5-8.9 14.7-18.1 39.3-23 2.2 8.2 5.2 16.8 8.7 25.6-19.3 36.2-27.8 74.2-10.6 85.4 3 1.9 6.4 2.9 10.3 2.9 7.7 0 17-3.8 27.6-11.4 1.7-1.2 2.1-3.6.9-5.3-1.2-1.7-3.6-2.1-5.3-.9-12.8 9.1-23.5 12.1-29.4 8.3-10.1-6.6-7.3-35 10.3-70.1 1.6 3.6 3.4 7.2 5.2 10.8 11.8 23.1 26.2 43.2 40.5 56.5 11.5 10.7 22.1 16.2 30.8 16.2 2.9 0 5.6-.6 8.1-1.9 9.4-4.8 13.5-18.2 11.5-37.8-1.9-18.2-8.8-40.5-19.5-62.7-.9-1.9-3.2-2.7-5.1-1.8-1.9.9-2.7 3.2-1.8 5.1 22.2 46.2 23.8 84.1 11.3 90.5-13.1 6.7-44.8-19.4-69.3-67.5-2.7-5.3-5.2-10.6-7.4-15.9 2.7-4.9 5.8-10 9.1-15.1 3.3-5 6.6-9.8 10.1-14.4h3.2c4.5 0 9.3.1 14.3.4 25 1.3 48.3 6.1 65.6 13.4 15.8 6.7 24.7 14.9 24.3 22.4-.3 6.3-7.6 12.7-20 17.5-1.9.8-2.9 3-2.2 4.9.6 1.5 2 2.4 3.5 2.4.5 0 .9-.1 1.4-.3 15.7-6.1 24.3-14.5 24.8-24.2 1.1-11.1-9.1-21.7-28.3-29.8zm-102.6 3.5c-2.2 3.4-4.3 6.8-6.3 10.3-2.4-6.3-4.4-12.4-6-18.3 5.9-.9 12.3-1.6 19.1-1.9-2.3 3.1-4.6 6.5-6.8 9.9z"/><circle class="st1" cx="556.7" cy="337.8" r="11.4"/></svg>