<svg xmlns="http://www.w3.org/2000/svg" viewBox="0 0 1920 673" xml:space="preserve"><style>.st1{enable-background:new}.st2{fill:#fff}.st4{fill:#70706f}.st5{fill:#ea8231}.st6{fill:#36434f}.st7{fill:#f4f4f4}</style><path fill="#26a666" d="M0 0h1920v673H0z"/><g class="st1"><path class="st2" d="M470.9 509.9c0 6.6-1.1 12.3-3.3 17.2-2.2 4.9-5.2 8.8-9 11.8l11.5 9.1-10.6 9-15.3-12.3c-1.4.2-2.9.3-4.3.3-6.1 0-11.4-1.4-16.1-4.2-4.7-2.8-8.3-6.8-11-12-2.6-5.2-4-11.2-4.1-18V507c0-7 1.3-13.2 3.8-18.5 2.6-5.3 6.2-9.4 10.9-12.3 4.7-2.9 10.2-4.3 16.3-4.3 6 0 11.4 1.4 16.1 4.3 4.7 2.9 8.4 6.9 11 12.2 2.6 5.3 3.9 11.4 4 18.2v3.3zm-17.4-3c0-7.1-1.2-12.4-3.5-16.1-2.4-3.7-5.7-5.5-10.1-5.5-4.5 0-7.9 1.8-10.2 5.4-2.3 3.6-3.4 8.9-3.5 15.9v3.3c0 7 1.2 12.4 3.5 16.1 2.3 3.7 5.7 5.6 10.3 5.6 4.4 0 7.7-1.8 10-5.5s3.5-9 3.5-15.9v-3.3zm44.6-28.9v13.1h8.7v11.4h-8.7v24.2c0 2 .4 3.4 1.1 4.2.7.8 2.1 1.2 4.2 1.2 1.6 0 3-.1 4.1-.3v11.8c-3 .9-6.1 1.4-9.3 1.4-5.7 0-9.8-1.3-12.5-4-2.7-2.7-4.1-6.7-4.1-12.2v-26.2h-6.7v-11.4h6.7V478h16.5z"/></g><g class="st1"><path class="st2" d="M1254.7 525.1c0-2.5-.9-4.5-2.7-5.9-1.8-1.4-4.9-2.8-9.4-4.3s-8.1-2.9-10.9-4.3c-9.2-4.5-13.8-10.7-13.8-18.7 0-3.9 1.1-7.4 3.4-10.4s5.5-5.4 9.7-7c4.2-1.7 8.9-2.5 14.2-2.5 5.1 0 9.7.9 13.7 2.7 4.1 1.8 7.2 4.4 9.4 7.8s3.4 7.2 3.4 11.5h-17.1c0-2.9-.9-5.1-2.7-6.7-1.8-1.6-4.2-2.4-7.2-2.4-3.1 0-5.5.7-7.3 2-1.8 1.4-2.7 3.1-2.7 5.2 0 1.8 1 3.5 2.9 5 2 1.5 5.4 3 10.3 4.6 4.9 1.6 9 3.3 12.1 5.1 7.7 4.4 11.5 10.5 11.5 18.3 0 6.2-2.3 11.1-7 14.6s-11.1 5.3-19.3 5.3c-5.8 0-11-1-15.6-3.1-4.7-2.1-8.2-4.9-10.5-8.5-2.4-3.6-3.5-7.7-3.5-12.4h17.2c0 3.8 1 6.6 3 8.4s5.2 2.7 9.6 2.7c2.8 0 5.1-.6 6.7-1.8s2.6-3 2.6-5.2zm86.2-15.2c0 6.6-1.1 12.3-3.3 17.2-2.2 4.9-5.2 8.8-9 11.8l11.5 9.1-10.6 9-15.3-12.3c-1.4.2-2.9.3-4.3.3-6.1 0-11.4-1.4-16.1-4.2-4.7-2.8-8.3-6.8-11-12-2.6-5.2-4-11.2-4.1-18V507c0-7 1.3-13.2 3.8-18.5 2.6-5.3 6.2-9.4 10.9-12.3 4.7-2.9 10.2-4.3 16.3-4.3 6 0 11.4 1.4 16.1 4.3 4.7 2.9 8.4 6.9 11 12.2 2.6 5.3 3.9 11.4 4 18.2v3.3zm-17.4-3c0-7.1-1.2-12.4-3.5-16.1s-5.7-5.5-10.1-5.5c-4.5 0-7.9 1.8-10.2 5.4-2.3 3.6-3.4 8.9-3.5 15.9v3.3c0 7 1.2 12.4 3.5 16.1 2.3 3.7 5.7 5.6 10.3 5.6 4.4 0 7.7-1.8 10-5.5s3.5-9 3.5-15.9v-3.3zm43.3 23.9h29.8V544h-47v-71.1h17.1v57.9zm36.2-53.3c0-2.3.8-4.3 2.5-5.8s3.9-2.2 6.6-2.2c2.7 0 4.9.7 6.6 2.2 1.7 1.5 2.5 3.4 2.5 5.8s-.8 4.3-2.5 5.8-3.9 2.2-6.6 2.2c-2.7 0-4.9-.7-6.6-2.2-1.7-1.5-2.5-3.4-2.5-5.8zm17.5 66.5H1404v-52.8h16.5V544zm29.3-66v13.1h8.7v11.4h-8.7v24.2c0 2 .4 3.4 1.1 4.2.7.8 2.1 1.2 4.2 1.2 1.6 0 3-.1 4.1-.3v11.8c-3 .9-6.1 1.4-9.3 1.4-5.7 0-9.8-1.3-12.5-4-2.7-2.7-4.1-6.7-4.1-12.2v-26.2h-6.7v-11.4h6.7V478h16.5zm40.7 66.9c-8.1 0-14.7-2.4-19.7-7.3-5-4.8-7.5-11.1-7.5-18.9v-1.4c0-5.4 1-10.2 3-14.3 2-4.1 4.9-7.3 8.8-9.6 3.8-2.3 8.4-3.4 13.7-3.4 7.4 0 13.3 2.3 17.6 6.9 4.3 4.6 6.4 11 6.4 19.3v6.4H1480c.6 3 1.9 5.3 3.9 7 2 1.7 4.6 2.5 7.7 2.5 5.2 0 9.3-1.8 12.2-5.5l7.5 8.9c-2.1 2.8-5 5.1-8.7 6.8s-7.8 2.6-12.1 2.6zm-1.9-42c-4.8 0-7.7 3.2-8.6 9.6h16.6v-1.3c.1-2.6-.6-4.7-2-6.1-1.4-1.5-3.4-2.2-6-2.2z"/></g><path d="m602 576.3 347.5-.3c90.9 0 164.5-73.6 164.5-164.5 0-48.4-20.9-91.9-54.2-122.1 13.4-19.4 21.2-43 21.2-68.4 0-39.1-18.6-73.9-47.4-96h43.2c-6.5-16.4-22.6-28-41.3-28-11.6 0-22.2 4.5-30.1 11.9-13.7-5.6-28.7-8.7-44.3-8.8-16.4-.2-32.1 3-46.4 8.8-7.9-7.4-18.5-11.9-30.2-11.9-18.7 0-34.7 11.6-41.3 28h43.4c-28.7 22-47.4 56.6-47.6 95.4-.1 12.9 1.9 25.2 5.5 36.8-30.8 11.4-57.2 31.7-76.2 57.8-6.2 8.5-10.9 18-14.4 28-31.2 89.7-84.3 169.5-151.9 233.3z" fill="#d3c5c1"/><path class="st4" d="M753.9 342.8c-31.2 89.6-84.1 169.3-151.6 233h62.8c2.7.1 5.4.1 8.2.2h10.9c91.7-1.7 173.5-43.8 228.4-109.3 45.4-54.2 39-135.3-15.5-180.3-15.5-12.8-33.4-22.8-53-29.3-30.7 11.4-57 31.7-75.9 57.7-6.1 8.7-10.8 18.2-14.3 28zm279.5-245.7c.7-.1 1.4-.1 2.1-.1h1.5c.5 0 1 .1 1.5.1 17.5 1.2 32.1 12.4 38.3 27.9h-43.4c14.7 11.3 26.7 25.8 35 42.5 2.3 5.9 3.6 12.3 3.6 19 0 29-23.8 52.3-52.8 52.3-29 0-52.5-23.5-52.5-52.5 0-33.3 15.3-62.4 38-77.8.1 0 .2.1.3.1.5-.4.9-.8 1.4-1.2.3-.3.7-.5 1-.8.1-.1.3-.3.5-.4.3-.2.7-.5 1-.7.2-.2.4-.4.6-.5.4-.3.7-.5 1-.7.2-.2.5-.4.7-.5.4-.2.7-.4 1-.6.2-.1.5-.3.7-.4.4-.1.7-.3 1-.5.3-.1.5-.3.8-.4.4-.2.7-.3 1-.5.2-.1.5-.3.8-.4.4-.1.7-.3 1-.4.3-.2.6-.3.9-.4.4-.1.7-.3 1-.4l.9-.3c.4-.1.7-.2 1-.3.4-.1.7-.2 1-.3.4-.1.7-.2 1-.3s.7-.2 1-.3c.4 0 .7-.1 1-.2.4-.1.7-.1 1.1-.2.3-.1.6-.1.9-.2s.7-.1 1.1-.2c.3 0 .6-.1.9-.1.4 0 .8-.1 1.2-.1.2 0 .5-.1.8-.1.5 0 .9-.1 1.4-.1h.7zm-146.5-.2c-.7-.1-1.4-.1-2.1-.1h-1.5c-.5 0-1 .1-1.5.1-17.4 1.2-32.1 12.4-38.3 27.9h43.4c-14.7 11.3-26.7 25.8-35 42.5-2.3 5.9-3.6 12.3-3.6 19 0 29 23.5 52.5 52.5 52.5s52.5-23.5 52.5-52.5c0-33.3-15.3-62.4-38-77.8-.1 0-.2.1-.3.1-.5-.4-.9-.8-1.4-1.2-.3-.3-.7-.5-1-.8-.1-.1-.3-.3-.5-.4-.3-.2-.7-.5-1-.7-.2-.2-.4-.4-.6-.5-.4-.3-.7-.5-1-.7-.2-.2-.5-.4-.7-.5-.4-.2-.7-.4-1-.6-.2-.1-.5-.3-.7-.4-.4-.1-.7-.3-1-.5-.3-.1-.5-.3-.8-.4-.4-.2-.7-.3-1-.5-.2-.1-.5-.3-.8-.4-.4-.1-.7-.3-1-.4-.3-.2-.6-.3-.9-.4-.4-.1-.7-.3-1-.4l-.9-.3c-.4-.1-.7-.2-1-.3-.4-.1-.7-.2-1-.3-.4-.1-.7-.2-1-.3s-.7-.2-1-.3c-.4 0-.7-.1-1-.2-.4-.1-.7-.1-1.1-.2-.3-.1-.6-.1-.9-.2s-.7-.1-1.1-.2c-.3 0-.6-.1-.9-.1-.4 0-.8-.1-1.2-.1-.2 0-.5-.1-.8-.1-.5 0-.9-.1-1.4-.1-.2 0-.4 0-.4-.2z"/><path class="st5" d="M896.2 176.8c.8-4.5 20-13.3 28.9-11.6 9 1.6 15 10.1 13.4 19.1s-10.1 15-19.1 13.4c-8.9-1.6-24-16.5-23.2-20.9z"/><path class="st6" d="M922.8 164.9c.9 0 1.7.1 2.3.3 9 1.6 15 10.1 13.4 19.1-1.4 8-8.3 13.6-16.2 13.6-1 0-1.9-.1-2.9-.3-8.9-1.6-24-16.5-23.2-20.9.7-4 17-11.8 26.6-11.8m-17.5 2.5c-3.9 1.8-10.5 5.3-11.1 8.9-.7 4.1 5.8 10.7 8.6 13.3 2.2 2.1 9.8 8.7 16.3 9.9 1 .2 2.1.3 3.2.3 9 0 16.6-6.4 18.2-15.3 1.8-10-5-19.6-15-21.4-.8-.1-1.7-.2-2.7-.2v2-2c-4.7 0-11.2 1.7-17.5 4.5z"/><circle class="st6" cx="917.4" cy="180.5" r="10.5"/><circle class="st7" cx="912.4" cy="180.5" r="3.5"/><path class="st5" d="M994.9 165.2c-9 1.6-15 10.1-13.4 19.1s10.2 15 19.1 13.4c8.9-1.6 24-16.5 23.2-20.9-.8-4.5-19.9-13.2-28.9-11.6z"/><path class="st6" d="M997.2 164.9c9.6 0 25.9 7.8 26.5 11.7.8 4.5-14.2 19.3-23.2 20.9-1 .2-1.9.3-2.9.3-7.8 0-14.8-5.6-16.2-13.6-1.6-9 4.4-17.5 13.4-19.1.8-.1 1.6-.2 2.4-.2m-2.7-1.7c-10 1.7-16.8 11.4-15 21.4 1.6 8.9 9.2 15.3 18.2 15.3 1 0 2.1-.1 3.2-.3 6.5-1.2 14.1-7.9 16.3-9.9 2.9-2.6 9.3-9.2 8.6-13.3-.6-3.6-7.2-7.1-11.1-8.9-6.3-2.9-12.8-4.6-17.5-4.6-1 0-1.9.1-2.7.3z"/><circle class="st6" cx="997.6" cy="180.5" r="10.5"/><circle class="st7" cx="992.6" cy="180.5" r="3.5"/><path class="st6" d="m958.2 202.3-5.5 10.4c-.5.9-.6 1.9-.4 2.8l6.7 30.2c.3 1 1.8 1 2 0l6.7-30.2c.2-1 0-2-.4-2.8l-5.5-10.4c-.8-1.4-2.8-1.4-3.6 0z"/><path class="st4" d="M960 292c6.1 0 11.1 5 11.1 11.1S960 322.2 960 322.2s-11.1-13-11.1-19.1 5-11.1 11.1-11.1zm30 0c6.1 0 11.1 5 11.1 11.1S990 322.2 990 322.2s-11.1-13-11.1-19.1 5-11.1 11.1-11.1zm30 0c6.1 0 11.1 5 11.1 11.1s-11.1 19.1-11.1 19.1-11.1-13-11.1-19.1 5-11.1 11.1-11.1zm30 0c6.1 0 11.1 5 11.1 11.1s-11.1 19.1-11.1 19.1-11.1-13-11.1-19.1 5-11.1 11.1-11.1zm-120 0c6.1 0 11.1 5 11.1 11.1S930 322.2 930 322.2s-11.1-13-11.1-19.1 5-11.1 11.1-11.1zm50 40c6.1 0 11.1 5 11.1 11.1S980 362.2 980 362.2s-11.1-13-11.1-19.1 5-11.1 11.1-11.1zm30 0c6.1 0 11.1 5 11.1 11.1s-11.1 19.1-11.1 19.1-11.1-13-11.1-19.1 5-11.1 11.1-11.1zm30 0c6.1 0 11.1 5 11.1 11.1s-11.1 19.1-11.1 19.1-11.1-13-11.1-19.1 5-11.1 11.1-11.1zm30 0c6.1 0 11.1 5 11.1 11.1s-11.1 19.1-11.1 19.1-11.1-13-11.1-19.1 5-11.1 11.1-11.1zm-120 0c6.1 0 11.1 5 11.1 11.1S950 362.2 950 362.2s-11.1-13-11.1-19.1 5-11.1 11.1-11.1zm10 40c6.1 0 11.1 5 11.1 11.1S960 402.2 960 402.2s-11.1-13-11.1-19.1 5-11.1 11.1-11.1zm30 0c6.1 0 11.1 5 11.1 11.1S990 402.2 990 402.2s-11.1-13-11.1-19.1 5-11.1 11.1-11.1zm30 0c6.1 0 11.1 5 11.1 11.1s-11.1 19.1-11.1 19.1-11.1-13-11.1-19.1 5-11.1 11.1-11.1zm30 0c6.1 0 11.1 5 11.1 11.1s-11.1 19.1-11.1 19.1-11.1-13-11.1-19.1 5-11.1 11.1-11.1zm-70 40c6.1 0 11.1 5 11.1 11.1S980 442.2 980 442.2s-11.1-13-11.1-19.1 5-11.1 11.1-11.1zm30 0c6.1 0 11.1 5 11.1 11.1s-11.1 19.1-11.1 19.1-11.1-13-11.1-19.1 5-11.1 11.1-11.1zm30 0c6.1 0 11.1 5 11.1 11.1s-11.1 19.1-11.1 19.1-11.1-13-11.1-19.1 5-11.1 11.1-11.1zm30 0c6.1 0 11.1 5 11.1 11.1s-11.1 19.1-11.1 19.1-11.1-13-11.1-19.1 5-11.1 11.1-11.1zm-120 0c6.1 0 11.1 5 11.1 11.1S950 442.2 950 442.2s-11.1-13-11.1-19.1 5-11.1 11.1-11.1zm130-40c6.1 0 11.1 5 11.1 11.1s-11.1 19.1-11.1 19.1-11.1-13-11.1-19.1 5-11.1 11.1-11.1z"/><path d="M1114 411.5c0-48.4-20.9-91.9-54.2-122.1 13.4-19.4 21.2-43 21.2-68.4 0-39.1-18.6-73.9-47.4-96h43.2c-6.5-16.4-22.6-28-41.3-28-11.6 0-22.2 4.5-30.1 11.8-13.7-5.6-28.7-8.7-44.3-8.8H960v475.7c86-5.5 154-76.9 154-164.2z" opacity=".15" fill="#444"/></svg>