<svg xmlns="http://www.w3.org/2000/svg" viewBox="0 0 1920 673" xml:space="preserve"><path fill="navy" d="M0 0h1920v673H0z"/><path d="M486.6 378.3c14.2 0 22.6 1.2 30.4 5.6 11 6.2 18.8 19 18.8 32.2 0 11.8-6.6 24.4-15.8 29.6-10.8 6.2-18 6.6-41.4 6.6h-7v26.2H500v16.4h-61.2v-16.4h15.4v-83.8h-15.4v-16.4h47.8zm-15 16.4v41.2h7.2c21.2 0 25.8-1.6 30.6-4.2 3-1.6 8-7.6 8-16.2 0-8.2-4.6-14.8-9.4-17.4-4-2.2-8-3.4-21.2-3.4h-15.2zm166 83.8h17.2v16.4h-34.6v-9.6c-6.6 4.8-17 12.4-33 12.4-21.2 0-35-15.6-35-31.2 0-12.2 10-33 45.2-33 9 0 15.6.8 22.8 1.6 0-7 .2-17.8-19.6-17.8-14 0-27.6 6-35 9.2l-6.8-16c12.2-5 25.8-10.4 42-10.4 25.6 0 36.8 12.8 36.8 33.4v45zm-17.4-26.4c-7-1-13-2.2-20.8-2.2-28.2 0-29.2 14.4-29.2 16.8 0 7.4 8.2 13.8 16.8 13.8 4 0 17.8-.8 33.2-18v-10.4zm141.2-49.8c-1 5-2 11.2-2 17.4 0 6.4 1 10.4 2 14.4l-15.6 2.2c-.2-.4-.8-1.8-1-2.6l-1.6-4.6c-3.6-10.4-21-10.4-24.4-10.4-7.8 0-21 1.6-21 11.2 0 10.2 13.8 10.8 24.8 11.6 17.6 1.2 26.8 1.6 34 7 7 5.2 9.6 13.4 9.6 19.2 0 16.8-16.4 30-39.8 30-15.8 0-22.6-5.8-28-10.2l-2.4 10.4-15.6-1c.8-4.8 2-10.6 2-19 0-7.8-1-11.4-2-15.6l15.6-1.8c2.2 10.8 8 20 27.2 20 14.6 0 25-4.8 25-13.2 0-8-8.6-8.4-24.2-9.4-17.8-1.2-24.4-2.8-31-6.6-7.6-4.4-13.2-12.8-13.2-22 0-19.6 21.8-27.8 36.8-27.8 14 0 22.4 6.2 26.6 9.4l2.6-11.2 15.6 2.6zm127.6.8c-.6 5.4-1.2 12.8-1.2 20 0 7.8.6 13 1.2 17.6l-16.8 2.2c-1.8-12.4-3.4-24.2-26.2-24.2-28.4 0-33.2 22.2-33.2 30.8 0 13.6 8.6 31 31.8 31 15.4 0 30.2-10 41.8-18.2l9.6 13.6c-9.4 7.2-28.6 21.8-52.2 21.8-29 0-49.4-21-49.4-48 0-23.4 17.2-48.2 48.8-48.2 10 0 18.2 2.4 28.4 11l1.8-11 15.6 1.6zm108.6 75.4h17.2v16.4h-34.6v-9.6c-6.6 4.8-17 12.4-33 12.4-21.2 0-35-15.6-35-31.2 0-12.2 10-33 45.2-33 9 0 15.6.8 22.8 1.6 0-7 .2-17.8-19.6-17.8-14 0-27.6 6-35 9.2l-6.8-16c12.2-5 25.8-10.4 42-10.4 25.6 0 36.8 12.8 36.8 33.4v45zm-17.4-26.4c-7-1-13-2.2-20.8-2.2-28.2 0-29.2 14.4-29.2 16.8 0 7.4 8.2 13.8 16.8 13.8 4 0 17.8-.8 33.2-18v-10.4zm111-86.8v113.2h33.6v16.4h-84.6v-16.4h33.6v-95.2l-31.2 2-1.6-16.6 50.2-3.4z" fill="silver"/></svg>