<svg xmlns="http://www.w3.org/2000/svg" viewBox="0 0 1920 673" xml:space="preserve"><path fill="#f3cb14" d="M0 0h1920v673H0z"/><path d="m561.6 273 21.2-77.6h28.7L575.7 302h-28.1L512 195.4h28.5l21.1 77.6zm56.4-70.7c0-3.5 1.3-6.4 3.8-8.6 2.5-2.2 5.8-3.4 9.9-3.4 4.1 0 7.3 1.1 9.9 3.4 2.5 2.2 3.8 5.1 3.8 8.6s-1.3 6.4-3.8 8.6c-2.5 2.2-5.8 3.4-9.9 3.4-4.1 0-7.3-1.1-9.9-3.4-2.5-2.2-3.8-5-3.8-8.6zm26.3 99.7h-24.8v-79.2h24.8V302zm56.6-22.2c0-2.1-1.1-3.8-3.3-5.1-2.2-1.3-6.4-2.6-12.5-4-6.2-1.4-11.2-3.2-15.2-5.4s-7.1-4.9-9.2-8.1c-2.1-3.2-3.1-6.8-3.1-10.9 0-7.3 3-13.3 9-18s13.9-7.1 23.6-7.1c10.4 0 18.8 2.4 25.2 7.1 6.3 4.7 9.5 11 9.5 18.7h-24.8c0-6.3-3.3-9.5-10-9.5-2.6 0-4.8.7-6.5 2.2-1.8 1.4-2.6 3.2-2.6 5.4s1.1 4 3.2 5.3c2.1 1.4 5.6 2.5 10.3 3.4s8.8 1.9 12.4 3.1c11.9 4.1 17.9 11.5 17.9 22 0 7.2-3.2 13.1-9.6 17.7-6.4 4.5-14.7 6.8-24.9 6.8-6.8 0-12.8-1.2-18.2-3.7-5.3-2.4-9.5-5.8-12.5-10s-4.5-8.6-4.5-13.3h23.1c.1 3.7 1.3 6.3 3.7 8 2.3 1.7 5.3 2.5 9 2.5 3.4 0 5.9-.7 7.6-2.1 1.6-1.1 2.4-2.9 2.4-5zm82.6 13.6c-5.2 6.7-12.3 10-21.2 10-8.7 0-15.3-2.5-19.7-7.6-4.5-5.1-6.7-12.3-6.7-21.8v-51.3h24.7v51.5c0 6.8 3.3 10.2 9.9 10.2 5.7 0 9.7-2 12.1-6.1v-55.6h24.8V302h-23.1l-.8-8.6zm82 8.6c-.9-1.6-1.7-4-2.3-7.1-4.5 5.7-10.9 8.6-19 8.6-7.5 0-13.8-2.3-19-6.8s-7.8-10.2-7.8-17c0-8.6 3.2-15.1 9.5-19.5s15.6-6.6 27.7-6.6h7.6v-4.2c0-7.3-3.1-11-9.4-11-5.9 0-8.8 2.9-8.8 8.7h-24.7c0-7.7 3.3-13.9 9.8-18.7s14.8-7.2 24.9-7.2 18.1 2.5 24 7.4 8.9 11.7 9 20.3V284c.1 7.3 1.2 12.8 3.4 16.7v1.2l-24.9.1zm-15.4-16.1c3.1 0 5.6-.7 7.7-2 2-1.3 3.5-2.8 4.4-4.5v-12.7H855c-8.6 0-12.9 3.9-12.9 11.6 0 2.2.8 4.1 2.3 5.5 1.4 1.4 3.3 2.1 5.7 2.1zm76.4 16.1h-24.8V189.5h24.8V302zm108.7-28.3c0-3.8-1.3-6.7-4-8.8-2.7-2.1-7.3-4.3-14-6.5s-12.2-4.4-16.4-6.5c-13.8-6.8-20.7-16.1-20.7-28 0-5.9 1.7-11.1 5.2-15.6 3.4-4.5 8.3-8 14.6-10.5s13.4-3.8 21.2-3.8c7.7 0 14.5 1.4 20.6 4.1 6.1 2.7 10.8 6.6 14.2 11.7s5.1 10.8 5.1 17.3h-25.6c0-4.3-1.3-7.7-4-10.1-2.7-2.4-6.3-3.6-10.8-3.6-4.6 0-8.2 1-10.9 3s-4 4.6-4 7.7c0 2.7 1.5 5.2 4.4 7.4s8.1 4.5 15.5 6.9c7.4 2.4 13.4 4.9 18.2 7.7 11.5 6.6 17.3 15.8 17.3 27.5 0 9.3-3.5 16.7-10.5 22s-16.7 8-28.9 8c-8.6 0-16.5-1.5-23.5-4.7-7-3.1-12.3-7.3-15.8-12.7-3.5-5.4-5.3-11.6-5.3-18.6h25.8c0 5.7 1.5 9.9 4.4 12.6 3 2.7 7.8 4.1 14.4 4.1 4.2 0 7.6-.9 10.1-2.7 2.2-2 3.4-4.6 3.4-7.9zm66.5-70.6v19.7h13v17.1h-13v36.3c0 3 .5 5.1 1.6 6.2 1.1 1.2 3.2 1.8 6.4 1.8 2.4 0 4.5-.1 6.2-.4v17.7c-4.4 1.4-9.1 2.1-13.9 2.1-8.5 0-14.8-2-18.8-6-4.1-4-6.1-10.1-6.1-18.2v-39.3H1067V223h10.1v-19.7h24.6v-.2zm70 90.3c-5.2 6.7-12.3 10-21.2 10-8.7 0-15.3-2.5-19.7-7.6-4.5-5.1-6.7-12.3-6.7-21.8v-51.3h24.7v51.5c0 6.8 3.3 10.2 9.9 10.2 5.7 0 9.7-2 12.1-6.1v-55.6h24.8V302h-23.1l-.8-8.6zm34.2-31.6c0-12.5 2.7-22.4 8.1-29.7 5.4-7.2 13-10.8 22.7-10.8 7.1 0 13 2.8 17.9 8.3v-40.1h24.8V302h-22.2l-1.2-8.5c-5.1 6.6-11.5 10-19.3 10-9.4 0-16.9-3.6-22.4-10.8-5.6-7.3-8.4-17.6-8.4-30.9zm24.7 1.5c0 14.1 4.1 21.1 12.3 21.1 5.5 0 9.4-2.3 11.7-6.9v-30.2c-2.2-4.7-6.1-7-11.6-7-7.6 0-11.7 6.2-12.4 18.5v4.5zm62.7-61c0-3.5 1.3-6.4 3.8-8.6 2.5-2.2 5.8-3.4 9.9-3.4s7.3 1.1 9.9 3.4c2.5 2.2 3.8 5.1 3.8 8.6s-1.3 6.4-3.8 8.6c-2.5 2.2-5.8 3.4-9.9 3.4s-7.3-1.1-9.9-3.4c-2.6-2.2-3.8-5-3.8-8.6zm26.2 99.7h-24.8v-79.2h24.8V302zm12.1-40.3c0-7.9 1.5-15 4.6-21.1s7.5-10.9 13.3-14.2 12.5-5 20.3-5c11.9 0 21.2 3.7 28.1 11 6.8 7.3 10.3 17.3 10.3 30v.9c0 12.4-3.4 22.2-10.3 29.4-6.9 7.3-16.1 10.9-27.9 10.9-11.3 0-20.3-3.4-27.2-10.1-6.8-6.8-10.5-15.9-11.1-27.5l-.1-4.3zm24.6 1.5c0 7.3 1.1 12.7 3.4 16.1s5.7 5.1 10.2 5.1c8.8 0 13.3-6.8 13.5-20.3v-2.5c0-14.2-4.5-21.3-13.6-21.3-8.3 0-12.7 6.1-13.4 18.4l-.1 4.5zm-559 158.3h25v21.2h-25v28.6h-23.1v-28.6h-25v-21.2h25v-27.8h23.1v27.8zm69.2 42.9c3.5 0 6.2-.9 8.1-2.8 1.9-1.9 2.8-4.5 2.8-7.9h23.1c0 8.7-3.1 15.8-9.3 21.4s-14.2 8.3-24.1 8.3c-11.5 0-20.6-3.6-27.2-10.8-6.6-7.2-10-17.2-10-30v-1c0-8 1.5-15.1 4.4-21.2 3-6.1 7.2-10.8 12.8-14.1 5.6-3.3 12.2-4.9 19.8-4.9 10.3 0 18.5 2.9 24.5 8.6 6.1 5.7 9.1 13.5 9.1 23.2h-23.1c0-4.1-1-7.3-3-9.4-2-2.2-4.7-3.3-8.1-3.3-6.4 0-10.1 4.1-11.2 12.2-.3 2.6-.5 6.2-.5 10.7 0 8 1 13.5 2.9 16.6s4.8 4.4 9 4.4zm70.4 17.6H912V369.5h24.8V482zm59.9 0c-.9-1.6-1.7-4-2.3-7.1-4.5 5.7-10.9 8.6-19 8.6-7.5 0-13.8-2.3-19-6.8s-7.8-10.2-7.8-17c0-8.6 3.2-15.1 9.5-19.5s15.6-6.6 27.7-6.6h7.6v-4.2c0-7.3-3.1-11-9.4-11-5.9 0-8.8 2.9-8.8 8.7h-24.7c0-7.7 3.3-13.9 9.8-18.7s14.8-7.2 24.9-7.2 18.1 2.5 24 7.4 8.9 11.7 9 20.3V464c.1 7.3 1.2 12.8 3.4 16.7v1.2h-24.9v.1zm-15.5-16.1c3.1 0 5.6-.7 7.7-2 2-1.3 3.5-2.8 4.4-4.5v-12.7H986c-8.6 0-12.9 3.9-12.9 11.6 0 2.2.8 4.1 2.3 5.5 1.5 1.4 3.5 2.1 5.8 2.1zm91.9-6.1c0-2.1-1.1-3.8-3.3-5.1-2.2-1.3-6.4-2.6-12.5-4-6.2-1.4-11.2-3.2-15.2-5.4s-7.1-4.9-9.2-8.1-3.1-6.8-3.1-10.9c0-7.3 3-13.3 9-18s13.9-7.1 23.6-7.1c10.4 0 18.8 2.4 25.2 7.1 6.3 4.7 9.5 11 9.5 18.7h-24.8c0-6.3-3.3-9.5-10-9.5-2.6 0-4.8.7-6.5 2.2-1.8 1.4-2.6 3.2-2.6 5.4s1.1 4 3.2 5.3c2.1 1.4 5.6 2.5 10.3 3.4 4.7.9 8.8 1.9 12.4 3.1 11.9 4.1 17.9 11.5 17.9 22 0 7.2-3.2 13.1-9.6 17.7-6.4 4.5-14.7 6.8-24.9 6.8-6.8 0-12.8-1.2-18.2-3.7-5.3-2.4-9.5-5.8-12.5-10s-4.5-8.6-4.5-13.3h23.1c.1 3.7 1.3 6.3 3.7 8 2.3 1.7 5.3 2.5 9 2.5 3.4 0 5.9-.7 7.6-2.1 1.6-1.1 2.4-2.9 2.4-5zm76.9 0c0-2.1-1.1-3.8-3.3-5.1-2.2-1.3-6.4-2.6-12.5-4-6.2-1.4-11.2-3.2-15.2-5.4s-7.1-4.9-9.2-8.1-3.1-6.8-3.1-10.9c0-7.3 3-13.3 9-18s13.9-7.1 23.6-7.1c10.4 0 18.8 2.4 25.2 7.1 6.3 4.7 9.5 11 9.5 18.7h-24.8c0-6.3-3.3-9.5-10-9.5-2.6 0-4.8.7-6.5 2.2-1.8 1.4-2.6 3.2-2.6 5.4s1.1 4 3.2 5.3c2.1 1.4 5.6 2.5 10.3 3.4 4.7.9 8.8 1.9 12.4 3.1 11.9 4.1 17.9 11.5 17.9 22 0 7.2-3.2 13.1-9.6 17.7-6.4 4.5-14.7 6.8-24.9 6.8-6.8 0-12.8-1.2-18.2-3.7-5.3-2.4-9.5-5.8-12.5-10s-4.5-8.6-4.5-13.3h23.1c.1 3.7 1.3 6.3 3.7 8 2.3 1.7 5.3 2.5 9 2.5 3.4 0 5.9-.7 7.6-2.1 1.5-1.1 2.4-2.9 2.4-5z"/></svg>