<svg xmlns="http://www.w3.org/2000/svg" viewBox="0 0 1920 673" xml:space="preserve"><style>.st2{fill:#fff}</style><path fill="#9238d1" d="M0 0h1920v673H0z"/><path class="st2" d="M1443.9 340.9c0 51.8-10.8 98.4-32.2 139.9s-51.9 73.5-91.3 96-84.3 33.7-134.8 33.7c-46.9 0-89.7-12.5-128.4-37.6-38.8-25.1-71.3-60.9-97.7-107.5-28 47.9-61 84-99.1 108.4s-80.2 36.6-126.5 36.6c-77.5 0-139.8-25.1-187-75.2-47.2-50.1-70.8-117.7-70.8-202.7 0-51.8 10.7-98.4 32.2-139.9S560 119 598.9 96.4c38.9-22.6 83.6-34 134-34 94.4 0 169.9 46.2 226.6 138.7 27-45.3 59.9-79.7 98.6-103.3 38.7-23.6 81.5-35.4 128.4-35.4 77.5 0 139.7 25.2 186.8 75.7s70.6 118.1 70.6 202.8zm-808.6 0c0 42 9.9 75.4 29.8 100.3 19.9 24.9 46.4 37.3 79.6 37.3 44.9 0 82.8-28.8 113.8-86.4 12-22.8 18.7-41 20-54.7v-11.2c-1.6-14.6-9.1-33.3-22.5-56.1-30-50.4-67.4-75.6-112.3-75.6-32.6 0-58.8 12.6-78.6 37.8s-29.8 61.4-29.8 108.6zm648.9-8.3c0-40.7-9.8-73.8-29.3-99.5-19.5-25.7-45.9-38.5-79.1-38.5-44.9 0-82.4 25.2-112.3 75.6-13.3 22.8-20.8 41.5-22.5 56.1v11.2c1.6 16.6 9.9 37.8 24.9 63.7 15 25.9 31.7 45.2 50.3 58.1s38.1 19.3 58.6 19.3c33.2 0 59.7-12.5 79.6-37.6 19.9-25.1 29.8-61.2 29.8-108.4z" opacity=".1"/><path class="st2" d="m489.6 278.4 19.3-64.2h19.6l-29.7 85.3h-18.3l-29.6-85.3h19.5l19.2 64.2zm45.7-58.6c0-2.5.8-4.6 2.5-6.3s4-2.5 6.9-2.5c2.9 0 5.2.8 6.9 2.5 1.7 1.6 2.6 3.7 2.6 6.3 0 2.6-.9 4.7-2.6 6.3-1.7 1.6-4 2.5-6.9 2.5-2.9 0-5.1-.8-6.9-2.5-1.7-1.6-2.5-3.8-2.5-6.3zm17.9 79.8h-17v-63.4h17v63.4zm48.3-17.6c0-2.1-1-3.7-3.1-4.9-2.1-1.2-5.3-2.3-9.9-3.2-15.1-3.2-22.6-9.6-22.6-19.2 0-5.6 2.3-10.3 7-14.1 4.7-3.8 10.8-5.7 18.3-5.7 8 0 14.5 1.9 19.3 5.7 4.8 3.8 7.2 8.7 7.2 14.8h-16.9c0-2.4-.8-4.4-2.3-6-1.6-1.6-4-2.4-7.3-2.4-2.9 0-5.1.6-6.6 1.9-1.6 1.3-2.3 2.9-2.3 4.9 0 1.9.9 3.4 2.7 4.5 1.8 1.2 4.8 2.1 9 3 4.2.8 7.8 1.8 10.7 2.8 8.9 3.3 13.4 9 13.4 17.1 0 5.8-2.5 10.5-7.4 14-5 3.6-11.4 5.4-19.2 5.4-5.3 0-10-.9-14.2-2.8-4.1-1.9-7.4-4.5-9.7-7.8-2.3-3.3-3.5-6.9-3.5-10.7H580c.2 3 1.3 5.3 3.3 6.9 2.1 1.6 4.8 2.4 8.3 2.4 3.2 0 5.7-.6 7.4-1.8 1.7-1.1 2.5-2.8 2.5-4.8zm65.4 11.1c-4.2 5.1-10 7.6-17.3 7.6-6.8 0-12-2-15.6-5.9-3.6-3.9-5.4-9.6-5.5-17.2v-41.5h16.9v41c0 6.6 3 9.9 9 9.9 5.7 0 9.7-2 11.8-6v-44.9h17v63.4h-15.9l-.4-6.4zm65.9 6.5c-.8-1.5-1.3-3.4-1.7-5.7-4.1 4.6-9.4 6.9-16 6.9-6.2 0-11.4-1.8-15.4-5.4-4.1-3.6-6.1-8.1-6.1-13.6 0-6.7 2.5-11.9 7.5-15.5 5-3.6 12.2-5.4 21.6-5.4h7.8v-3.6c0-2.9-.8-5.3-2.3-7-1.5-1.8-3.9-2.6-7.1-2.6-2.9 0-5.1.7-6.7 2.1-1.6 1.4-2.4 3.2-2.4 5.6h-16.9c0-3.7 1.1-7.1 3.4-10.2 2.3-3.1 5.5-5.6 9.6-7.4 4.1-1.8 8.8-2.7 13.9-2.7 7.8 0 14 2 18.6 5.9 4.6 3.9 6.9 9.4 6.9 16.6v27.5c0 6 .9 10.6 2.5 13.7v1h-17.2zm-14-11.8c2.5 0 4.8-.6 6.9-1.7s3.7-2.6 4.7-4.5v-10.9H724c-8.5 0-13 2.9-13.5 8.8l-.1 1c0 2.1.7 3.8 2.2 5.2 1.6 1.4 3.6 2.1 6.2 2.1zm59.4 11.8h-17v-90h17v90zm89.2-22.4c0-3.3-1.2-5.9-3.5-7.6-2.3-1.8-6.6-3.7-12.7-5.6-6.1-2-10.9-3.9-14.5-5.8-9.7-5.2-14.5-12.3-14.5-21.2 0-4.6 1.3-8.7 3.9-12.3 2.6-3.6 6.3-6.4 11.2-8.5 4.9-2 10.3-3 16.4-3 6.1 0 11.5 1.1 16.3 3.3 4.8 2.2 8.5 5.3 11.1 9.3 2.6 4 4 8.6 4 13.7h-17.6c0-3.9-1.2-6.9-3.7-9.1s-5.9-3.3-10.4-3.3c-4.3 0-7.6.9-10 2.7-2.4 1.8-3.6 4.2-3.6 7.2 0 2.8 1.4 5.1 4.2 7 2.8 1.9 6.9 3.6 12.3 5.3 10 3 17.3 6.7 21.9 11.2s6.9 10 6.9 16.6c0 7.4-2.8 13.2-8.4 17.4-5.6 4.2-13.1 6.3-22.6 6.3-6.6 0-12.5-1.2-17.9-3.6s-9.5-5.7-12.3-9.9c-2.8-4.2-4.2-9-4.2-14.5h17.6c0 9.4 5.6 14.1 16.9 14.1 4.2 0 7.4-.8 9.8-2.5s3.4-4.2 3.4-7.2zm48.7-56.6v15.6H927v12.4h-10.8v31.6c0 2.3.4 4 1.3 5s2.6 1.5 5.2 1.5c1.9 0 3.5-.1 5-.4v12.8c-3.3 1-6.7 1.5-10.3 1.5-11.9 0-17.9-6-18.2-18v-34.2h-9.3V236h9.3v-15.6h16.9zm58.3 72.5c-4.2 5.1-10 7.6-17.3 7.6-6.8 0-12-2-15.6-5.9-3.6-3.9-5.4-9.6-5.5-17.2v-41.5h16.9v41c0 6.6 3 9.9 9 9.9 5.7 0 9.7-2 11.8-6v-44.9h17v63.4h-15.9l-.4-6.4zm26.5-25.7c0-9.9 2.2-17.8 6.7-23.6 4.4-5.9 10.5-8.8 18.2-8.8 6.2 0 11.3 2.3 15.3 6.9v-32.3h17v90h-15.3l-.8-6.7c-4.2 5.3-9.6 7.9-16.3 7.9-7.5 0-13.4-2.9-18-8.8-4.5-6-6.8-14.1-6.8-24.6zm16.9 1.3c0 5.9 1 10.5 3.1 13.7 2.1 3.2 5.1 4.8 9 4.8 5.2 0 8.9-2.2 11.1-6.6v-25.1c-2.1-4.4-5.8-6.6-11-6.6-8.1-.1-12.2 6.5-12.2 19.8zm53.2-48.9c0-2.5.8-4.6 2.5-6.3s4-2.5 6.9-2.5c2.9 0 5.2.8 6.9 2.5 1.7 1.6 2.6 3.7 2.6 6.3 0 2.6-.9 4.7-2.6 6.3-1.7 1.6-4 2.5-6.9 2.5-2.9 0-5.1-.8-6.9-2.5-1.6-1.6-2.5-3.8-2.5-6.3zm18 79.8h-17v-63.4h17v63.4zm11.3-32.3c0-6.3 1.2-11.9 3.6-16.8 2.4-4.9 5.9-8.7 10.5-11.4 4.5-2.7 9.8-4 15.8-4 8.6 0 15.5 2.6 20.9 7.9 5.4 5.2 8.4 12.3 9.1 21.3l.1 4.3c0 9.7-2.7 17.5-8.1 23.4-5.4 5.9-12.7 8.8-21.9 8.8s-16.4-2.9-21.9-8.8-8.2-13.8-8.2-23.9v-.8zm17 1.2c0 6 1.1 10.6 3.4 13.8 2.3 3.2 5.5 4.8 9.7 4.8 4.1 0 7.3-1.6 9.6-4.7s3.5-8.2 3.5-15.1c0-5.9-1.2-10.5-3.5-13.7-2.3-3.2-5.5-4.9-9.7-4.9-4.1 0-7.3 1.6-9.6 4.8-2.3 3.2-3.4 8.2-3.4 15zm141.2 31.1H1200V288l27.6-29.4c3.8-4.1 6.6-7.8 8.4-10.8 1.8-3.1 2.7-6 2.7-8.8 0-3.8-1-6.8-2.9-8.9-1.9-2.2-4.6-3.3-8.2-3.3-3.8 0-6.8 1.3-9.1 4-2.2 2.6-3.3 6.1-3.3 10.4h-17c0-5.2 1.2-9.9 3.7-14.2 2.5-4.3 6-7.7 10.5-10.1 4.5-2.4 9.7-3.7 15.4-3.7 8.8 0 15.6 2.1 20.5 6.3s7.3 10.2 7.3 17.9c0 4.2-1.1 8.5-3.3 12.9-2.2 4.4-5.9 9.5-11.3 15.3l-19.4 20.4h36.7v13.6zm67.8-35.3c0 11.8-2.4 20.8-7.3 27.1-4.9 6.3-12 9.4-21.4 9.4-9.3 0-16.4-3.1-21.3-9.2-4.9-6.1-7.4-14.9-7.6-26.4v-15.7c0-11.9 2.5-21 7.4-27.1 4.9-6.2 12.1-9.3 21.4-9.3 9.3 0 16.4 3.1 21.3 9.2 4.9 6.1 7.4 14.9 7.6 26.3v15.7zm-17-17.3c0-7.1-1-12.2-2.9-15.5s-5-4.8-9.1-4.8c-4 0-6.9 1.5-8.8 4.6-1.9 3.1-2.9 7.9-3 14.4v20.8c0 7 .9 12.1 2.8 15.5 1.9 3.4 4.9 5.1 9.1 5.1 4.1 0 7.1-1.6 9-4.9 1.8-3.2 2.8-8.2 2.9-14.9V247zm69.5 52.6h-16.9v-65.3l-20.2 6.3v-13.8l35.3-12.7h1.8v85.5zm85.2-35.3c0 11.8-2.4 20.8-7.3 27.1-4.9 6.3-12 9.4-21.4 9.4-9.3 0-16.4-3.1-21.3-9.2-4.9-6.1-7.4-14.9-7.6-26.4v-15.7c0-11.9 2.5-21 7.4-27.1 4.9-6.2 12.1-9.3 21.4-9.3 9.3 0 16.4 3.1 21.3 9.2 4.9 6.1 7.4 14.9 7.6 26.3v15.7zm-17-17.3c0-7.1-1-12.2-2.9-15.5s-5-4.8-9.1-4.8c-4 0-6.9 1.5-8.8 4.6-1.9 3.1-2.9 7.9-3 14.4v20.8c0 7 .9 12.1 2.8 15.5 1.9 3.4 4.9 5.1 9.1 5.1 4.1 0 7.1-1.6 9-4.9 1.8-3.2 2.8-8.2 2.9-14.9V247zM924.6 415.2c-.7 9.2-4.1 16.4-10.2 21.7-6.1 5.3-14.2 7.9-24.2 7.9-10.9 0-19.5-3.7-25.8-11-6.3-7.4-9.4-17.5-9.4-30.3v-5.2c0-8.2 1.4-15.4 4.3-21.7 2.9-6.2 7-11 12.4-14.4 5.4-3.3 11.6-5 18.7-5 9.8 0 17.8 2.6 23.8 7.9 6 5.3 9.5 12.7 10.4 22.2H907c-.4-5.5-2-9.5-4.6-12-2.6-2.5-6.7-3.7-12-3.7-5.9 0-10.2 2.1-13.2 6.3-2.9 4.2-4.4 10.7-4.5 19.5v6.4c0 9.2 1.4 16 4.2 20.2 2.8 4.3 7.2 6.4 13.2 6.4 5.4 0 9.5-1.2 12.2-3.7 2.7-2.5 4.2-6.3 4.6-11.5h17.7zm29.1 14.2H991v14.1h-54.9v-85.3h17.6v71.2zm79-17.1h-14v31.2h-17.6v-85.3h31.7c10.1 0 17.9 2.2 23.3 6.7 5.5 4.5 8.2 10.8 8.2 19 0 5.8-1.3 10.7-3.8 14.6-2.5 3.9-6.3 7-11.5 9.3l18.5 34.9v.8h-18.9l-15.9-31.2zm-14-14.2h14.2c4.4 0 7.8-1.1 10.3-3.4 2.4-2.2 3.6-5.3 3.6-9.3 0-4-1.1-7.2-3.4-9.5s-5.8-3.5-10.5-3.5h-14.1v25.7z"/></svg>