<svg xmlns="http://www.w3.org/2000/svg" viewBox="0 0 1920 673" xml:space="preserve"><path fill="#007da9" d="M0 0h1920v673H0z"/><path fill="#f4f4f4" d="M0 0h1920v336H0z"/><path d="M930 307.6c-.7 9.2-4.1 16.4-10.2 21.7-6.1 5.3-14.2 7.9-24.2 7.9-10.9 0-19.5-3.7-25.8-11-6.3-7.4-9.4-17.5-9.4-30.3v-5.2c0-8.2 1.4-15.4 4.3-21.7 2.9-6.2 7-11 12.4-14.4 5.4-3.3 11.6-5 18.7-5 9.8 0 17.8 2.6 23.8 7.9 6 5.3 9.5 12.7 10.4 22.2h-17.6c-.4-5.5-2-9.5-4.6-12-2.6-2.5-6.7-3.7-12-3.7-5.9 0-10.2 2.1-13.2 6.3-2.9 4.2-4.4 10.7-4.5 19.5v6.4c0 9.2 1.4 16 4.2 20.2 2.8 4.3 7.2 6.4 13.2 6.4 5.4 0 9.5-1.2 12.2-3.7 2.7-2.5 4.2-6.3 4.6-11.5H930zm44.6-19.4h21.2v15.3h-21.2v23.9h-16.1v-23.9h-21.2v-15.3h21.2v-22.9h16.1v22.9zm65.5 0h21.2v15.3h-21.2v23.9H1024v-23.9h-21.2v-15.3h21.2v-22.9h16.1v22.9zm62.4 47.8v-85.3h29.9c10.4 0 18.2 2 23.6 5.9 5.4 4 8 9.8 8 17.4 0 4.2-1.1 7.9-3.2 11-2.1 3.2-5.1 5.5-9 7 4.4 1.1 7.8 3.3 10.3 6.6 2.5 3.3 3.8 7.4 3.8 12.2 0 8.2-2.6 14.4-7.9 18.6-5.2 4.2-12.7 6.4-22.4 6.4h-33.1zm17.5-49.6h13c8.9-.2 13.3-3.7 13.3-10.6 0-3.9-1.1-6.7-3.4-8.3-2.2-1.7-5.8-2.5-10.6-2.5H1120v21.4zm0 12.5v23h15.1c4.1 0 7.4-1 9.7-3 2.3-2 3.5-4.7 3.5-8.2 0-7.8-4-11.8-12.1-11.9H1120zm95.9 30.7c-4.2 5.1-10 7.6-17.3 7.6-6.8 0-12-2-15.6-5.9-3.6-3.9-5.4-9.6-5.5-17.2v-41.5h16.9v41c0 6.6 3 9.9 9 9.9 5.7 0 9.7-2 11.8-6v-44.9h17V336h-15.9l-.4-6.4zm29.1-73.4c0-2.5.8-4.6 2.5-6.3s4-2.5 6.9-2.5c2.9 0 5.2.8 6.9 2.5 1.7 1.6 2.6 3.7 2.6 6.3 0 2.6-.9 4.7-2.6 6.3-1.7 1.6-4 2.5-6.9 2.5-2.9 0-5.1-.8-6.9-2.5-1.7-1.6-2.5-3.7-2.5-6.3zm17.9 79.8h-17v-63.4h17V336zm31.9 0h-17v-90h17v90zm11.3-32.2c0-9.9 2.2-17.8 6.7-23.6 4.4-5.9 10.5-8.8 18.2-8.8 6.2 0 11.3 2.3 15.3 6.9V246h17v90H1348l-.8-6.7c-4.2 5.3-9.6 7.9-16.3 7.9-7.5 0-13.4-2.9-18-8.8s-6.8-14.1-6.8-24.6zm16.9 1.3c0 5.9 1 10.5 3.1 13.7 2.1 3.2 5.1 4.8 9 4.8 5.2 0 8.9-2.2 11.1-6.6v-25.1c-2.1-4.4-5.8-6.6-11-6.6-8.1-.1-12.2 6.5-12.2 19.8zm82.5 32.1c-9.3 0-16.9-2.9-22.7-8.6-5.8-5.7-8.8-13.3-8.8-22.8v-1.6c0-6.4 1.2-12.1 3.7-17.1 2.5-5 5.9-8.9 10.5-11.6 4.5-2.7 9.7-4.1 15.4-4.1 8.7 0 15.5 2.7 20.5 8.2 5 5.5 7.5 13.2 7.5 23.3v6.9h-40.4c.5 4.1 2.2 7.5 5 10s6.2 3.8 10.5 3.8c6.5 0 11.6-2.4 15.3-7.1l8.3 9.3c-2.5 3.6-6 6.4-10.3 8.4s-9.2 3-14.5 3zm-1.9-52.1c-3.4 0-6.1 1.1-8.2 3.4-2.1 2.3-3.4 5.5-4 9.8h23.6v-1.4c-.1-3.8-1.1-6.7-3-8.7-2.1-2.1-4.8-3.1-8.4-3.1zm73.2 3.4c-2.3-.3-4.3-.5-6.1-.5-6.4 0-10.6 2.2-12.6 6.5V336h-16.9v-63.4h16l.5 7.6c3.4-5.8 8.1-8.7 14.1-8.7 1.9 0 3.6.3 5.3.8l-.3 16.2z"/><path d="M606.2 405.1V440h-4.1c-19.1.3-34.5 5.3-46.2 14.9-11.7 9.7-18.7 23.1-21 40.3 11.3-11.5 25.6-17.3 42.9-17.3 18.6 0 33.3 6.6 44.2 19.9s16.4 30.8 16.4 52.4c0 13.9-3 26.4-9 37.6-6 11.2-14.5 20-25.5 26.2-11 6.3-23.4 9.4-37.3 9.4-22.5 0-40.6-7.8-54.4-23.4-13.8-15.6-20.7-36.5-20.7-62.5v-15.2c0-23.1 4.4-43.6 13.1-61.3 8.7-17.7 21.3-31.4 37.6-41.2 16.4-9.7 35.3-14.6 56.9-14.7h7.1zM564.9 512c-6.8 0-13 1.8-18.6 5.3-5.6 3.6-9.7 8.3-12.3 14.1v12.9c0 14.1 2.8 25.2 8.3 33.1 5.6 7.9 13.4 11.9 23.4 11.9 9.1 0 16.4-3.6 22-10.7 5.6-7.2 8.4-16.4 8.4-27.9 0-11.6-2.8-21-8.5-28.1-5.5-7-13.1-10.6-22.7-10.6z" fill="#005282"/><path d="M1470 623.5h-253c-4.6 0-8.4-3.8-8.4-8.4V447.2h269.9v167.9c0 4.6-3.8 8.4-8.5 8.4z" fill="#36434f"/><path d="M1478.5 447.2h-269.9v-17.9c0-4.6 3.8-8.4 8.4-8.4h253c4.6 0 8.4 3.8 8.4 8.4l.1 17.9zM1338.3 525l-67.5 32.5v-12.7l54.4-25v-.3l-54.4-25v-12.7l67.5 32.5V525zm0 24.8h77.8v39.1h-77.8v-39.1z" fill="#667e8e"/></svg>