<svg xmlns="http://www.w3.org/2000/svg" viewBox="0 0 1920 673" xml:space="preserve"><style>.st6{opacity:.15;fill:#444;enable-background:new}.st8{fill:#cc584c}.st11{fill:#f4f4f4}</style><path fill="#a5b948" d="M0 0h1920v673H0z"/><path d="M706.5 466.7c-12.8 14.2-31.6 25.7-56.2 34.4-24.7 8.7-51.7 13.1-81.2 13.1-45.3 0-81.4-13.8-108.5-41.5-27.1-27.7-41.5-66.2-43.4-115.6l-.2-29.9c0-34 6-63.7 18-89.1 12-25.4 29.2-44.9 51.6-58.6 22.4-13.7 48.3-20.5 77.7-20.5 43 0 76.5 9.8 100.3 29.5 23.8 19.7 37.7 49.1 41.7 88.2h-80.2c-2.8-19.3-9-33.1-18.5-41.3-9.5-8.2-22.9-12.3-40.3-12.3-20.9 0-37 8.9-48.4 26.6-11.4 17.7-17.2 43-17.3 75.9v20.9c0 34.5 5.9 60.4 17.7 77.7 11.8 17.3 30.3 26 55.7 26 21.7 0 37.8-4.8 48.4-14.5v-53.6h-57.9v-57.2h141.2v141.8zm179.2-29.5c0-6.8-3.6-12.3-10.7-16.4-7.1-4.1-20.6-8.4-40.6-12.8-19.9-4.4-36.4-10.2-49.4-17.4-13-7.2-22.9-15.9-29.7-26.2-6.8-10.3-10.2-22.1-10.2-35.4 0-23.6 9.7-43 29.2-58.3 19.5-15.3 44.9-22.9 76.4-22.9 33.9 0 61.1 7.7 81.6 23 20.6 15.3 30.9 35.5 30.9 60.5H883c0-20.6-10.8-30.9-32.5-30.9-8.4 0-15.4 2.3-21.1 7-5.7 4.7-8.5 10.5-8.5 17.4 0 7.1 3.5 12.9 10.4 17.3 7 4.4 18.1 8.1 33.3 10.9 15.3 2.8 28.7 6.3 40.2 10.2 38.6 13.3 57.9 37.1 57.9 71.4 0 23.4-10.4 42.5-31.2 57.2-20.8 14.7-47.7 22.1-80.8 22.1-22 0-41.6-4-58.9-11.9-17.2-7.9-30.7-18.7-40.3-32.3-9.7-13.6-14.5-27.9-14.5-43h74.8c.3 11.9 4.3 20.5 11.9 26 7.6 5.5 17.3 8.2 29.2 8.2 10.9 0 19.1-2.2 24.6-6.6 5.5-4.2 8.2-9.9 8.2-17.1zm104.4-58.6c0-25.6 5-48.5 15-68.5s24.3-35.4 43-46.2c18.7-10.8 40.6-16.1 65.7-16.1 38.4 0 68.7 11.9 90.9 35.7 22.1 23.8 33.2 56.2 33.2 97.2v2.8c0 40-11.1 71.8-33.3 95.3-22.2 23.5-52.3 35.2-90.3 35.2-36.5 0-65.9-11-88-32.9-22.2-21.9-34.1-51.6-35.8-89.1l-.4-13.4zm80 5c0 23.7 3.7 41.1 11.2 52.2 7.4 11.1 18.4 16.6 33 16.6 28.5 0 43-21.9 43.7-65.7v-8.1c0-46-14.7-69.1-44.1-69.1-26.7 0-41.2 19.9-43.4 59.6l-.4 14.5zm276.5-131 2.6 30.1c17.7-23.3 42.2-34.9 73.3-34.9 26.7 0 46.7 8 59.9 24 13.2 16 20.1 40 20.5 72.1v165.4h-80.2v-162c0-13-2.6-22.5-7.8-28.6-5.2-6.1-14.7-9.1-28.5-9.1-15.7 0-27.3 6.2-34.9 18.5v181.3h-80V252.6h75.1z" fill="#9db043"/><path d="M126.1 457.8c-30.4-8.5-45.6-28.1-45.6-58.9v-25.1c0-17-6.8-25.6-20.5-25.6v-28.7c13.7 0 20.5-8.6 20.5-25.7v-26.6c.3-15.2 4.2-27.5 11.8-36.8 7.6-9.4 18.9-16.2 33.7-20.4l8 22.3c-10.6 4.1-16.2 15.4-16.6 34.1v27.5c0 18.9-7.8 32.2-23.4 40 15.6 7.8 23.4 21.1 23.4 40.1v27.3c.4 18.6 5.9 30 16.6 34.1l-7.9 22.4zm45.4-222.5-5.4 54.3h-23.7v-71.9h29.1v17.6zm44.4 0-5.4 54.3H187v-71.9h28.9v17.6zm88.2 177c-1.5-2.8-2.9-6.9-4.1-12.3-7.8 9.9-18.8 14.8-32.9 14.8-12.9 0-23.9-3.9-32.9-11.7-9-7.8-13.5-17.6-13.5-29.4 0-14.9 5.5-26.1 16.5-33.7 11-7.6 26.9-11.4 47.8-11.4h13.2v-7.3c0-12.6-5.4-19-16.3-19-10.1 0-15.2 5-15.2 15H224c0-13.2 5.6-24 16.9-32.2 11.3-8.3 25.6-12.4 43.1-12.4s31.3 4.3 41.4 12.8c10.1 8.5 15.3 20.2 15.6 35.1v60.6c.2 12.6 2.1 22.2 5.8 28.9v2.2h-42.7zm-26.7-27.9c5.3 0 9.7-1.1 13.2-3.4s6-4.9 7.5-7.7v-21.9h-12.4c-14.9 0-22.3 6.7-22.3 20 0 3.9 1.3 7 3.9 9.4 2.7 2.4 6.1 3.6 10.1 3.6zm105.3-149.1-5.4 54.3h-23.7v-71.9h29.1v17.6zm44.5 0-5.4 54.3h-23.4v-71.9h28.9v17.6zm43.9 34.6c6.8 0 12.4 2 16.8 6 4.5 4 6.7 9.1 6.7 15.4 0 6.2-2.2 11.4-6.7 15.4s-10.1 6-16.8 6c-6.8 0-12.5-2-16.9-6.1-4.4-4.1-6.6-9.2-6.6-15.3 0-6.2 2.2-11.3 6.6-15.3 4.4-4.1 10-6.1 16.9-6.1zm0 101c6.8 0 12.4 2 16.8 6 4.5 4 6.7 9.1 6.7 15.4 0 6.2-2.2 11.4-6.7 15.4s-10.1 6-16.8 6c-6.8 0-12.5-2-16.9-6.1-4.4-4.1-6.6-9.2-6.6-15.3 0-6.2 2.2-11.3 6.6-15.3 4.4-4.1 10-6.1 16.9-6.1zm179.2 41.4H521.7v-27.8l59.2-62.3c14.6-16.6 21.9-29.8 21.9-39.6 0-7.9-1.7-14-5.2-18.1-3.5-4.1-8.5-6.2-15.1-6.2-6.5 0-11.8 2.8-15.8 8.3-4.1 5.5-6.1 12.4-6.1 20.7h-42.8c0-11.3 2.8-21.8 8.5-31.3 5.7-9.6 13.5-17.1 23.5-22.5 10-5.4 21.3-8.1 33.7-8.1 19.9 0 35.3 4.6 46 13.8 10.8 9.2 16.1 22.4 16.1 39.6 0 7.3-1.4 14.3-4.1 21.2-2.7 6.9-6.9 14.1-12.6 21.6-5.7 7.6-14.9 17.7-27.5 30.3l-23.8 27.5h72.5v32.9zm37.2 49.6L666 451.8l4.3-8.6c5.9-11 9-21.4 9.2-31.4v-31.6h34.2l-.1 27.5c-.1 9.7-2.6 19.6-7.5 29.6-4.9 9.9-11.1 18.2-18.6 24.6zm39.1-226.6-5.4 54.3h-23.7v-71.9h29.1v17.6zm44.5 0-5.4 54.3h-23.4v-71.9h28.9v17.6zm144.5 109.6c0 22.4-4.6 39.7-13.9 51.8-9.3 12.1-22.4 18.1-39.2 18.1-13.9 0-25.1-5.5-33.7-16.6l-1.8 14.1h-38.2V217.8h42.7v68.5c7.9-9 18.2-13.5 30.8-13.5 17 0 30.2 6.1 39.5 18.4 9.3 12.2 13.9 29.5 13.9 51.6v2.1zm-42.8-2.7c0-13.1-1.8-22.5-5.3-28.1-3.5-5.6-8.9-8.4-16.1-8.4-9.6 0-16.3 3.7-20 11V371c3.6 7.2 10.4 10.9 20.3 10.9 10 0 16.4-4.9 19.1-14.7 1.4-4.8 2-13.1 2-25zm78.3-106.9-5.4 54.3H922v-71.9h29.1v17.6zm44.4 0-5.4 54.3h-23.4v-71.9h28.9v17.6zm43.9 34.6c6.8 0 12.4 2 16.8 6 4.5 4 6.7 9.1 6.7 15.4 0 6.2-2.2 11.4-6.7 15.4s-10.1 6-16.8 6c-6.8 0-12.5-2-16.9-6.1-4.4-4.1-6.6-9.2-6.6-15.3 0-6.2 2.2-11.3 6.6-15.3 4.5-4.1 10.1-6.1 16.9-6.1zm0 101c6.8 0 12.4 2 16.8 6 4.5 4 6.7 9.1 6.7 15.4 0 6.2-2.2 11.4-6.7 15.4s-10.1 6-16.8 6c-6.8 0-12.5-2-16.9-6.1-4.4-4.1-6.6-9.2-6.6-15.3 0-6.2 2.2-11.3 6.6-15.3 4.5-4.1 10.1-6.1 16.9-6.1zm89.7-68.6h20.1c15.9 0 23.9-7.8 23.9-23.4 0-6.1-1.9-11-5.7-14.9-3.8-3.8-9.2-5.8-16.1-5.8-5.7 0-10.6 1.6-14.7 4.9-4.2 3.3-6.3 7.4-6.3 12.3h-42.7c0-9.7 2.7-18.4 8.1-25.9 5.4-7.6 12.9-13.5 22.5-17.8 9.6-4.3 20.1-6.4 31.6-6.4 20.5 0 36.6 4.7 48.4 14.1 11.7 9.4 17.6 22.2 17.6 38.6 0 7.9-2.4 15.4-7.3 22.5-4.9 7-11.9 12.8-21.2 17.2 9.8 3.5 17.5 8.9 23 16.1 5.6 7.2 8.4 16.1 8.4 26.8 0 16.5-6.3 29.6-19 39.5-12.7 9.9-29.3 14.8-49.9 14.8-12.1 0-23.3-2.3-33.6-6.9-10.3-4.6-18.2-11-23.5-19.1-5.3-8.1-8-17.4-8-27.8h42.9c0 5.7 2.3 10.5 6.8 14.7 4.6 4.1 10.2 6.2 16.8 6.2 7.5 0 13.5-2.1 18-6.3 4.5-4.2 6.7-9.5 6.7-16 0-9.3-2.3-15.9-7-19.7-4.6-3.9-11.1-5.8-19.2-5.8h-20.8v-31.9zm126.8 159.6-21.5-10.1 4.3-8.6c5.9-11 9-21.4 9.2-31.4v-31.6h34.2l-.1 27.5c-.1 9.7-2.6 19.6-7.5 29.6-4.9 9.9-11.1 18.2-18.6 24.6zm39.1-226.6-5.4 54.3h-23.7v-71.9h29.1v17.6zm44.4 0-5.4 54.3h-23.4v-71.9h28.9v17.6zm67.9 146.6c6 0 10.6-1.6 13.9-4.9 3.3-3.2 4.9-7.8 4.8-13.6h40c0 15-5.4 27.3-16.1 37-10.8 9.6-24.6 14.4-41.6 14.4-19.9 0-35.6-6.2-47.1-18.7s-17.2-29.8-17.2-51.9v-1.8c0-13.8 2.6-26.1 7.7-36.6 5.1-10.6 12.5-18.7 22.1-24.4s21-8.5 34.2-8.5c17.8 0 31.9 4.9 42.4 14.8s15.7 23.2 15.7 40.1h-40c0-7.1-1.7-12.5-5.2-16.3-3.5-3.8-8.1-5.7-13.9-5.7-11.1 0-17.5 7-19.4 21.1-.6 4.5-.9 10.6-.9 18.5 0 13.8 1.6 23.3 4.9 28.6 3.3 5.2 8.5 7.9 15.7 7.9zm95.7-146.6-5.4 54.3h-23.7v-71.9h29.1v17.6zm44.4 0-5.4 54.3h-23.4v-71.9h28.9v17.6zm43.9 34.6c6.8 0 12.4 2 16.8 6 4.5 4 6.7 9.1 6.7 15.4 0 6.2-2.2 11.4-6.7 15.4s-10.1 6-16.8 6c-6.8 0-12.5-2-16.9-6.1-4.4-4.1-6.6-9.2-6.6-15.3 0-6.2 2.2-11.3 6.6-15.3 4.5-4.1 10.1-6.1 16.9-6.1zm0 101c6.8 0 12.4 2 16.8 6 4.5 4 6.7 9.1 6.7 15.4 0 6.2-2.2 11.4-6.7 15.4s-10.1 6-16.8 6c-6.8 0-12.5-2-16.9-6.1-4.4-4.1-6.6-9.2-6.6-15.3 0-6.2 2.2-11.3 6.6-15.3 4.5-4.1 10.1-6.1 16.9-6.1zm53.2-48.7 11.3-94.3h107.7v33.2h-73l-4.2 36.6c3-1.8 7-3.3 12-4.7 4.9-1.4 9.8-2 14.5-2 18.3 0 32.4 5.4 42.2 16.3 9.8 10.8 14.7 26.1 14.7 45.6 0 11.8-2.6 22.5-7.9 32.1-5.3 9.6-12.7 16.9-22.2 22.1-9.5 5.1-20.8 7.7-33.8 7.7-11.6 0-22.4-2.4-32.5-7.1-10.1-4.8-18.1-11.3-23.8-19.6-5.7-8.3-8.6-17.7-8.5-28.1h42.8c.4 6.7 2.6 12.1 6.5 16 3.9 4 9 5.9 15.3 5.9 14.3 0 21.5-10.6 21.5-31.8 0-19.6-8.8-29.4-26.3-29.4-10 0-17.4 3.2-22.3 9.6l-34-8.1zM1786 435.4c10.6-4.1 16.2-15.4 16.6-34.1v-27.5c0-19 7.8-32.3 23.5-40-15.7-7.7-23.5-21-23.5-40v-27.5c-.4-18.6-5.9-30-16.6-34.1l8-22.3c15.1 4.2 26.5 11.1 34 20.7 7.6 9.6 11.4 22.1 11.5 37.7v25.4c0 17.1 6.8 25.7 20.5 25.7v28.7c-13.7 0-20.5 8.5-20.5 25.4v27c-.6 29.7-15.8 48.7-45.6 57.1l-7.9-22.2z" fill="#fff" opacity=".5"/><path d="M992.1 519.8 973.7 548h-13.2v-28.5h-1V548h-13.2l-18.4-28.2-.9.6 18.5 28.2v15.9h1V549h27v15.5h1v-15.9l18.5-28.2-.9-.6z" fill="#999"/><path d="M976 592.5h-32c-2.2 0-4-1.8-4-4v-21c0-2.2 1.8-4 4-4h32c2.2 0 4 1.8 4 4v21c0 2.2-1.8 4-4 4z" fill="#ffa000"/><path class="st6" d="M976 563.5h-32c-2.2 0-4 1.8-4 4v1h40v-1c0-2.2-1.8-4-4-4zm0 29h-32c-2.2 0-4-1.8-4-4v-1h40v1c0 2.2-1.8 4-4 4z"/><path d="M963.5 545c.1-.8.2-1.6.2-2.5 0-4.1-3.7-7.4-3.7-7.4s-3.7 3.3-3.7 7.4c0 .9.1 1.7.2 2.5h7z" fill="#eec646"/><path class="st8" d="M961.9 540.6c0 2-.8 3.7-1.9 3.7-1 0-1.9-1.7-1.9-3.7s1.9-3.7 1.9-3.7 1.9 1.7 1.9 3.7z"/><path d="M964.5 548.5h-9c-1.1 0-2-.9-2-2v-3c0-1.1.9-2 2-2h9c1.1 0 2 .9 2 2v3c0 1.1-.9 2-2 2z" fill="#36434f"/><path class="st8" d="M960 80.5c-145.9 0-193 79-192.5 144.5.6 83.1 27.5 133.5 147.5 262.5l12 32.9h66l12-32.9c120-129 146.9-179.4 147.5-262.5.5-65.5-46.6-144.5-192.5-144.5z"/><path d="M960 487.5h-45l12 32.9h66l12-32.9h-45z" fill="#ad403b"/><path class="st11" d="M787.5 225c.6 83.1 24.6 133.5 132.2 262.5h5.8c-91.9-129-112.5-179.4-113-262.5-.4-65.5 35.7-144.5 147.5-144.5-130.7 0-172.9 79-172.5 144.5zM960 80.5c111.8 0 147.9 79 147.5 144.5-.5 83.1-21.1 133.5-113 262.5h5.8c107.5-129 131.6-179.4 132.2-262.5.4-65.5-41.8-144.5-172.5-144.5z"/><path class="st11" d="M960 80.5c54.9 0 72.7 79 72.5 144.5-.2 83.1-10.4 133.5-55.6 262.5h10.5c73.2-129 89.6-179.4 90-262.5.4-65.5-28.3-144.5-117.4-144.5zM842.5 225c.4 83.1 16.8 133.5 90 262.5H943c-45.2-129-55.3-179.4-55.6-262.5-.1-65.5 17.7-144.5 72.6-144.5-89.1 0-117.8 79-117.5 144.5z"/><path class="st11" d="M960 80.5c-20.8 0-27.6 79-27.5 144.5.1 83.1 3.9 133.5 21.1 262.5h12.8c17.1-129 21-179.4 21.1-262.5.1-65.5-6.7-144.5-27.5-144.5z"/><path class="st6" d="M783.7 301.2c-.6 2.5-1.2 5-1.6 7.5-1.3-3.4-2.5-6.8-3.6-10.1-1.1-3.4-2.1-6.7-3-10.1v-.1c-.9-3.3-1.7-6.7-2.5-10v-.1c-.7-3.3-1.4-6.7-1.9-10.1v-.2c-.3-1.6-.5-3.2-.7-4.8 0-.1 0-.2-.1-.4-.2-1.7-.5-3.3-.7-5v-.3c-.2-1.5-.3-3-.5-4.6 0-.2 0-.5-.1-.7-.2-1.6-.3-3.3-.4-4.9v-.4l-.3-4.5c0-.3 0-.7-.1-1-.1-1.6-.2-3.3-.2-4.9v-.4c-.1-1.5-.1-3.1-.1-4.6v-1.3c0-1.7-.1-3.3-.1-5C767 159.5 814.1 80.5 960 80.5c2.4 0 4.7 0 7 .1h.9c2 0 4.1.1 6.1.2h.3c4.5.2 8.8.4 13.1.7C886.7 124 792.9 264.8 783.7 301.2zM1040 449.1c-3.8 4.3-7.7 8.6-11.7 13-.3.3-.6.7-.9 1-1 1.1-2 2.2-3.1 3.4-.6.7-1.2 1.3-1.8 2l-2.7 3c-.8.9-1.6 1.7-2.4 2.6s-1.6 1.7-2.4 2.6l-3 3.3c-.6.7-1.3 1.4-1.9 2.1-1.7 1.8-3.4 3.7-5.1 5.5l-12 32.9-18.5 28.3v14.7h1.5c2.2 0 4 1.8 4 4v21c0 .3 0 .5-.1.8-.1.5-.3 1-.6 1.4-.1.2-.3.4-.5.6-.4.4-.8.7-1.3.9-.5.2-1 .3-1.6.3h-32c-.6 0-1.1-.1-1.6-.3-.5-.2-.9-.5-1.3-.9-.2-.2-.3-.4-.5-.6-.3-.4-.5-.9-.6-1.4-.1-.3-.1-.5-.1-.8v-21c0-2.2 1.8-4 4-4h1.5v-14.9L927 520.4l-12-32.9c-1.8-1.9-3.5-3.8-5.2-5.6-.6-.6-1.2-1.2-1.7-1.9-1.1-1.2-2.3-2.4-3.4-3.6-.7-.7-1.3-1.5-2-2.2-1-1.1-2-2.2-3-3.2-.7-.8-1.4-1.5-2.1-2.3-.9-1-1.9-2-2.8-3.1-.7-.8-1.4-1.6-2.1-2.3l-2.7-3c-.7-.8-1.4-1.5-2.1-2.3l-2.7-3c-.6-.7-1.3-1.4-1.9-2.1-1.3-1.5-2.6-2.9-3.9-4.4l-2.4-2.7c-.8-.9-1.6-1.8-2.3-2.6-.7-.8-1.5-1.7-2.2-2.5-.7-.8-1.3-1.5-2-2.3-.8-.9-1.5-1.7-2.2-2.6-.6-.7-1.2-1.4-1.9-2.1-.8-.9-1.5-1.7-2.2-2.6-.6-.7-1.2-1.4-1.8-2-.7-.9-1.5-1.7-2.2-2.6-.6-.6-1.1-1.3-1.6-1.9-.7-.9-1.5-1.8-2.2-2.6-.5-.6-.9-1.1-1.4-1.7-1.9-2.3-3.8-4.5-5.6-6.8v-.1c43.4 16.9 119.7 36.1 190.6 35.7zM946.3 548h7.9c-.4-.4-.7-.9-.7-1.5v-3c0-1.1.9-2 2-2h.9c.4-2.7 2.2-5 3.1-5.9v-15.2h-31.3l18.1 27.6zm27.2 1h-27v14.5h27V549zm18.3-28.6h-31.3v15.2c.9 1 2.7 3.2 3.1 5.9h.9c1.1 0 2 .9 2 2v3c0 .6-.3 1.1-.7 1.5h7.9l18.1-27.6z"/><path class="st6" d="M946.5 563.5V549H960V80.5c-145.9 0-193 79-192.5 144.5.6 83.1 27.5 133.5 147.5 262.5l12 32.9 18.5 28.3v14.8H944c-2.2 0-4 1.8-4 4v21c0 .3 0 .5.1.8.1.5.3 1 .6 1.4.1.2.3.4.5.6.4.4.8.7 1.3.9.5.2 1 .3 1.6.3h16v-29h-13.6zm-18.3-43.1h31.3v15.2c-.9 1-2.7 3.2-3.1 5.9h-.9c-1.1 0-2 .9-2 2v3c0 .6.3 1.1.7 1.5h-7.9l-18.1-27.6z"/></svg>