<svg xmlns="http://www.w3.org/2000/svg" viewBox="0 0 1920 673" xml:space="preserve"><style>.st1{fill:#81ade5}.st2{fill:#fff}</style><path fill="#e6e6e6" d="M0 0h1920v673H0z"/><path class="st1" d="M517 337.6h-63.9l-32 55.3 32 55.3H517l31.8-55.3-31.8-55.3z"/><path class="st2" d="m517 337.6 32 55.3-32 55.3h-63.9l-32-55.3 32-55.3H517m3.8-6.9h-71.6l-1.9 3.4-32 55.3-2.1 3.4 1.9 3.4 32 55.3 1.9 3.4h71.6l1.9-3.4 32-55.3 1.9-3.4-1.9-3.4-32-55.3c0 .1-1.7-3.4-1.7-3.4z"/><path class="st1" d="M634.2 275.2h-63.9l-31.8 55.5 31.8 55.3h63.9l32-55.3c.1 0-32-55.5-32-55.5z"/><path class="st2" d="m634.2 275.2 32 55.3-32 55.3h-63.9l-32-55.3 32-55.3h63.9m4.1-6.8h-71.6l-1.9 3.4-32 55.3-2.1 3.6 1.9 3.4 32 55.3 1.9 3.4h71.6l1.9-3.4 32-55.3 1.9-3.4-1.9-3.4-32-55.3-1.7-3.6z"/><path class="st1" d="m568 253.8-17.5-29.9h-63.9l-32 55.1 21.1 36.3h45.9l35.7-61.5H568z"/><path class="st2" d="m550.5 223.9 17.3 30.1h-10.7l-35.5 61.3h-46.1L454.6 279l31.8-55.3 64.1.2m4.1-6.8h-71.8l-1.9 3.4-32 55.1-1.9 3.4 1.9 3.4 20.9 36.3 1.9 3.4h53.8l1.9-3.4 33.5-58.1h18.6l-6-10.3-17.3-30.1c.1.1-1.6-3.1-1.6-3.1z"/><path d="m777.8 197.6-7.5 56.4h33.8c15 0 26.7 1.9 35 5.6 8.5 3.6 15.4 9.8 20.7 18.4 4.5 7 7.5 15 9 23.5s1.5 18.2.2 28.4c-3.4 25-12.4 44.6-27.1 58.7s-33.3 21.1-56.2 21.1h-75.8l28.6-212.1h39.3zm11.9 90h-24.1l-12 88.7h27.1c15 0 26.1-3.2 32.9-9.8 7-6.6 11.5-17.7 13.7-33.5 2.1-16.2.4-27.8-5.3-34.8-5.8-7-16.4-10.6-32.3-10.6zm257.2 44.4c-3.2 24.4-13 44-29.3 58.5-16.2 14.5-36.3 21.8-60.5 21.8-24.1 0-42.3-7.3-54.7-22-12.4-14.5-16.9-34.2-13.7-58.3 3.2-24.4 13-44 29.5-58.7 16.2-14.7 36.5-22 60.7-22 23.9 0 42.1 7.3 54.5 22 12.3 14.7 17 34.1 13.5 58.7zm-116.6 0c-1.9 14.7-.2 26.3 5.3 34.6 5.6 8.3 14.1 12.4 26.1 12.4 11.7 0 21.6-4.1 29.5-12.4 7.9-8.3 12.8-19.9 14.7-34.6 1.9-14.7.2-26.3-5.3-34.6-5.6-8.1-14.3-12.4-26.1-12.4s-21.6 4.1-29.3 12.4c-8.1 8.3-13 19.9-14.9 34.6zm299.1 0c-3.2 24.4-13 44-29.3 58.5-16.2 14.5-36.3 21.8-60.5 21.8s-42.3-7.3-54.7-22c-12.4-14.5-16.9-34.2-13.7-58.3 3.2-24.4 13-44 29.5-58.7 16.2-14.7 36.5-22 60.7-22 23.9 0 42.1 7.3 54.5 22 12.2 14.7 16.9 34.1 13.5 58.7zm-116.7 0c-1.9 14.7-.2 26.3 5.3 34.6 5.6 8.3 14.1 12.4 26.1 12.4 11.7 0 21.6-4.1 29.5-12.4 7.9-8.3 12.8-19.9 14.7-34.6 1.9-14.7.2-26.3-5.3-34.6-5.6-8.1-14.3-12.4-26.1-12.4s-21.6 4.1-29.3 12.4c-8 8.3-12.9 19.9-14.9 34.6zm128.2 45.3h82.9c7.3 0 12.8-1.3 16.7-3.6 3.6-2.3 6-6.2 6.6-11.5.6-5.3-.4-9.2-3.6-11.5-3-2.3-8.3-3.6-15.6-3.6h-34c-20.1 0-33.3-3.2-39.5-9.6s-8.1-17.9-6-34.4c2.3-16.7 8.1-29.1 17.7-37 9.6-7.9 23.3-11.7 41.2-11.7h84.4l-4.3 32.5H1318c-11.3 0-18.8 1.1-22.4 3.2s-6 5.8-6.6 11.1c-.6 4.9.4 8.3 3 10.7 2.8 2.3 7.3 3.4 13.7 3.4h35.7c16.2 0 28.2 4.1 35.7 12s10.3 19.4 8.1 34.4c-1.9 14.5-7.3 26.1-16 35.2-8.8 9-19.2 13.5-31.2 13.5h-101.5l4.4-33.1zM1408.8 254h23.5l7.5-56.4h39.3l-7.5 56.4h35.2l-4.3 31h-35.2l-8.5 62.8c-1.5 11.5-.6 19.7 2.3 23.9 3.2 4.5 9.4 6.6 18.8 6.6h9.8l-4.3 31h-29.7c-14.5 0-25-4.3-31.6-12.6-6.6-8.3-8.8-20.5-6.8-36.1l10.3-75.8h-23.5l4.7-30.8zM719.9 449.5c-2.8 0-4.7.9-6.2 2.6s-2.3 4.5-3 8.5c-.4 3.4-.2 5.8.6 7.3.9 1.5 2.8 2.1 5.6 2.1h10.7l-.9 5.3h-11.1c-2.3 0-4.3-.2-5.8-.6-1.3-.4-2.6-1.1-3.6-2.1-1.5-1.3-2.3-3-3-4.9-.4-2.1-.6-4.7-.2-7.5.9-5.6 2.6-9.6 5.3-12.2 2.8-2.6 6.6-3.8 11.5-3.8h10.9l-.6 5.3h-10.2zm58.7 0h4.3l-1.5 10.7h10.5l-.6 4.3h-10.5l-1.5 10.9H775l1.5-10.9H766l.6-4.3h10.5l1.5-10.7zm62.4 0h4.3l-1.5 10.7h10.5l-.6 4.3h-10.5l-1.5 10.9h-4.3l1.5-10.9h-10.5l.6-4.3h10.5l1.5-10.7zm116 25.9c-3 0-5.1-.2-6.4-.6-1.3-.4-2.6-1.3-3.4-2.6-.9-1.1-1.5-2.3-1.7-3.6-.2-1.3-.2-3.2.2-5.8l2.6-18.6h6.6l-2.6 18.4c-.2 1.9-.4 3-.2 3.8 0 .6.2 1.3.6 1.7.4.6 1.3 1.3 2.1 1.5.9.2 2.1.4 3.6.4h7.7l-.6 5.3H957zm59.6 0h-6.8l4.3-31.2h6.8l-4.3 31.2zm58.1 0h-17.1l4.3-31.2h16c1.9 0 3.6.2 4.9.4 1.3.2 2.1.6 3 1.1 1.1.6 1.7 1.7 2.1 2.8s.6 2.3.4 3.8c-.2 1.7-.9 3.2-1.7 4.5-.9 1.3-2.1 2.1-3.8 3 1.5.6 2.6 1.5 3.2 2.8.6 1.1.9 2.6.6 4.3-.4 3-1.5 5.1-3.4 6.4-2.1 1.4-4.9 2.1-8.5 2.1zm-.2-5.6c1.5 0 2.6-.2 3.4-.9.9-.6 1.3-1.5 1.5-2.8.2-1.3 0-2.1-.6-2.8-.6-.6-1.7-.9-3.2-.9h-9.6l-1.1 7.3h9.6v.1zm-6.8-19.9-1.1 7.3h9.6c1.5 0 2.6-.2 3.4-.9.9-.6 1.3-1.5 1.5-2.8.2-1.3 0-2.1-.6-2.8-.6-.6-1.7-.9-3.2-.9l-9.6.1zm61.7-5.7h16c3.8 0 6.4.9 7.9 2.3s2.1 3.8 1.7 7c-.4 2.3-1.1 4.3-2.3 5.8-1.3 1.5-3 2.6-5.1 3l6 13h-7.3l-5.1-12.2h-7.7l-1.7 12.2h-6.6l4.2-31.1zm13.7 5.5h-7.9l-1.1 7.9h8.1c2.1 0 3.6-.2 4.7-.9.9-.6 1.5-1.7 1.7-3 .2-1.5 0-2.3-.9-3-1-.6-2.5-1-4.6-1zm64.3-5.5h6.8l9 31.2h-7.3l-1.7-7.5h-13.5l-3.8 7.5h-6.8l17.3-31.2zm2.3 6.2-6.2 12h9.2l-3-12zm54.7-6.2h16c3.8 0 6.4.9 7.9 2.3 1.5 1.5 2.1 3.8 1.7 7-.4 2.3-1.1 4.3-2.3 5.8-1.3 1.5-3 2.6-5.1 3l6 13h-7.3l-5.1-12.2h-7.7l-1.7 12.2h-6.6l4.2-31.1zm13.9 5.5h-8.1l-1.1 7.9h8.1c2.1 0 3.6-.2 4.7-.9.9-.6 1.5-1.7 1.7-3 .2-1.5 0-2.3-.9-3-.8-.6-2.3-1-4.4-1zm57.9 25.7h-6.8l4.3-31.2h6.8l-4.3 31.2zm57.4-25.5c-2.3 0-4.3.6-5.6 1.7-1.3 1.3-2.3 3-2.8 5.3h18.2l-.9 5.3h-18.2c-.4 2.8 0 4.7.9 5.8 1.1 1.3 2.8 1.7 5.3 1.7h10.7l-.9 5.6h-11.1c-2.3 0-4.3-.2-5.6-.6-1.3-.4-2.6-1.1-3.6-2.1-1.5-1.3-2.3-3-3-4.9-.4-2.1-.6-4.5-.2-7.3.9-5.6 2.6-9.8 5.3-12.4s6.6-3.8 11.5-3.8h10.9l-.4 5.8-10.5-.1zm81.6-.2H1459c-1.7 0-3 .4-4.1 1.1-.9.6-1.5 1.7-1.7 3-.2 1.1 0 1.9.6 2.6s1.5.9 3 .9h8.5c3.6 0 6 .6 7.3 2.1 1.3 1.3 1.7 3.4 1.3 6.6-.4 3.2-1.7 5.6-3.6 7-1.9 1.5-4.9 2.3-8.5 2.3h-16.9l.9-5.3h16.4c1.9 0 3.2-.2 4.1-.9.9-.6 1.3-1.5 1.5-2.8s0-2.1-.6-2.8c-.6-.6-1.7-.9-3.4-.9h-7.7c-3.6 0-6.2-.6-7.5-2.1-1.5-1.5-1.9-3.6-1.5-6.8.4-3.2 1.7-5.8 3.6-7.3 1.9-1.5 4.9-2.3 8.5-2.3h17.1c0 .1-1.1 5.6-1.1 5.6z" fill="#4a6484"/></svg>