<svg xmlns="http://www.w3.org/2000/svg" viewBox="0 0 1920 673" xml:space="preserve"><path fill="#78909c" d="M0 0h1920v673H0z"/><path d="M1259.2 117.5c-108.2 0-196.1 87.9-196.1 196.1h392.2c.1-108.4-87.8-196.1-196.1-196.1z" fill="#7cb342"/><path d="M1259.2 313.5h-196.1c0 108.2 87.9 196.1 196.1 196.1 108.2 0 196.1-87.9 196.1-196.1h-196.1z" fill="#8bc34a"/><path d="M1416.4 518.9c-.2-1.8-.7-3.4-1.6-5l-57-98.9-18.9-33-35.3-61-26.9 26.9 33.2 57.6 18.2 31.6 55.1 95.2c.9 1.6 2.1 2.9 3.6 3.7l27.5 18.7c1.1.7 2.3.7 3.4.2 1.1-.7 1.6-1.8 1.6-3l-2.9-33z" fill="#e1e1e1"/><path d="M1364.2 313.5c0 26-9.6 49.9-25.5 68.5-8.2 9.4-17.8 17.5-28.9 23.5-15 8.4-32.3 13-50.6 13-18.4 0-35.7-4.8-50.4-13l33.2-57.6-26.9-26.9-111.4 192.9c-.9 1.6-1.4 3.2-1.6 5l-2.5 33.2c-.2 1.2.5 2.3 1.6 3 1.1.7 2.3.5 3.4-.2l27.5-18.5c1.4-1.1 2.7-2.3 3.6-3.7l55.1-95.4c20.3 11.4 43.9 18 68.8 18 25 0 48.5-6.6 68.8-18 10.9-6.1 20.9-13.5 29.6-22.1 26.4-25.7 43-61.7 43-101.4l-36.8-.3z" fill="#f1f1f1"/><path d="M1293.4 240.6H1282v-36.7h-45.4v36.7H1225c-11.2 0-20.5 9.3-20.5 20.5v46.5h.2c-.2 1.8.9 3.7 3.2 6.1l41.2 41.2c2.9 2.9 6.6 4.3 10.2 4.3v-.2l.2.2c3.7 0 7.5-1.4 10.2-4.3l41.2-41.2c2.3-2.3 3.2-4.5 3.2-6.1h.2v-46.3c-.4-11.4-9.5-20.7-20.9-20.7zm-34.1 72.9h-.2c-15 0-27.3-12.3-27.3-27.5s12.3-27.5 27.3-27.5v-.4l.2.4c15 .2 27.3 12.3 27.3 27.5s-12.3 27.4-27.3 27.5z" fill="#646464"/><path d="M782.1 131H499.2c-18.9 0-34.4 15.5-34.4 34.4v311.9c0 18.9 15.5 34.4 34.4 34.4h186.3c-2.2-92.5 29.5-272.5 96.6-380.7z" fill="#0f80cc"/><path d="M848 120.8c-19.4-17.3-42.8-10.3-66 10.2-3.4 3-6.9 6.5-10.3 10-39.6 42-76.4 119.8-87.7 179.3 4.4 9.1 7.9 20.5 10.2 29.3.6 2.2 1.1 4.3 1.5 6.3 1 4.2 1.5 7 1.5 7s-.4-1.3-1.8-5.6c-.3-.8-.6-1.7-1-2.7-.2-.4-.4-1-.6-1.5-2.6-6.1-9.8-18.7-12.9-24.1-2.6 7.9-5 15.3-7 22.1 9.1 16.6 14.6 45.1 14.6 45.1s-.4-1.8-2.7-8.3c-2-5.7-12.1-23.3-14.4-27.6-4.1 15.1-5.7 25.3-4.2 27.8 2.8 4.8 5.6 13.1 7.9 22.3 5.5 20.7 9.2 45.8 9.2 45.8s.1 1.7.4 4.2c-.7 17.3-.3 35.3 1.1 51.6 1.8 21.5 5.1 40.1 9.4 49.9l2.9-1.6c-6.3-19.6-8.8-45-7.8-74.5 1.7-45 12.1-99.3 31.2-156 32.2-85.7 77.1-154.2 118.2-187-37.4 33.8-88.1 143.3-103.3 183.8-17 45.4-29.1 88-36.3 128.8 12.5-38.3 53-54.7 53-54.7s19.9-24.5 43.1-59.5c-13.8 3.2-36.6 8.6-44.4 11.8-11.3 4.7-14.3 6.3-14.3 6.3s36.5-22.2 67.8-32.3c43.1-67.6 89.9-164 42.7-206.2" fill="#f4f4f4"/><path fill="#fff" d="M1010 318.5h-32v-32h-36v32h-32v36h32v32h36v-32h32z"/></svg>