<svg xmlns="http://www.w3.org/2000/svg" viewBox="0 0 1920 673" xml:space="preserve"><path fill="#0df" d="M0 0h1920v673H0z"/><path fill="#09c" d="M803.5 120h313v313h-313z"/><path d="m442.1 580.7-2.8.9 2.8 1 32.9 12.7v10.5l-45.5-20.4v-7.8l45.5-20.3v10.5l-32.9 12.9zm79.5 3.7H506v31.9h-9.9v-78.2H519c3.7.1 7.1.6 10.3 1.6s6 2.4 8.5 4.4 4.3 4.4 5.7 7.3c1.4 2.9 2.1 6.3 2.1 10.3 0 2.5-.4 4.9-1.1 7-.7 2.1-1.7 4-3 5.7s-2.8 3.2-4.6 4.6c-1.8 1.3-3.8 2.5-5.9 3.4l16.6 33.4-.1.6H537l-15.4-32zm-15.7-8.2h13.3c2.2 0 4.3-.4 6.3-1 2-.7 3.7-1.6 5.2-2.9 1.5-1.3 2.7-2.8 3.5-4.6.9-1.8 1.3-3.9 1.3-6.3 0-2.5-.4-4.7-1.2-6.6-.8-1.9-2-3.5-3.4-4.7-1.5-1.3-3.2-2.2-5.2-2.9-2-.6-4.2-1-6.6-1H506v30zm81.5 41.2c-4.1 0-7.8-.7-11.3-2.1-3.4-1.4-6.3-3.3-8.8-5.9-2.4-2.5-4.3-5.5-5.7-8.9-1.4-3.4-2-7.2-2-11.2V587c0-4.7.8-8.9 2.3-12.6 1.5-3.7 3.5-6.8 6-9.4 2.5-2.6 5.3-4.5 8.5-5.9 3.2-1.4 6.4-2 9.7-2 4.2 0 7.8.7 11 2.2 3.1 1.4 5.7 3.5 7.8 6 2.1 2.6 3.6 5.6 4.6 9 1 3.5 1.5 7.2 1.5 11.3v4.5h-41.5c.1 2.7.6 5.1 1.5 7.5.9 2.3 2.2 4.4 3.8 6.1 1.6 1.7 3.5 3.1 5.7 4.1 2.2 1 4.7 1.5 7.4 1.5 3.5 0 6.7-.7 9.5-2.1 2.8-1.4 5-3.3 6.9-5.7l6.1 4.7c-1 1.5-2.2 2.9-3.6 4.2-1.5 1.3-3.1 2.5-5 3.6-1.9 1-4 1.9-6.4 2.5-2.6.5-5.2.9-8 .9zm-1.3-52.1c-2 0-3.9.4-5.7 1.1-1.8.7-3.4 1.8-4.8 3.2-1.4 1.4-2.6 3.2-3.6 5.2-1 2.1-1.7 4.4-2.1 7.1h31.3v-.8c-.1-1.9-.5-3.8-1.1-5.7-.6-1.9-1.5-3.6-2.8-5.1-1.2-1.5-2.7-2.7-4.6-3.7-1.9-.9-4.1-1.3-6.6-1.3zm43.2-31.5H659v73.9h19v8.6h-48.7v-8.6H649v-65.3h-19.8v-8.6zm102.6 82.5c-.4-.8-.7-1.7-.9-2.8-.2-1.1-.4-2.3-.5-3.5-1 1-2.1 2-3.4 2.8-1.2.9-2.6 1.7-4.1 2.4-1.5.7-3.1 1.2-4.8 1.6-1.7.4-3.5.6-5.4.6-3.1 0-5.9-.4-8.4-1.3s-4.6-2.1-6.3-3.6c-1.7-1.5-3.1-3.3-4-5.4-.9-2.1-1.4-4.4-1.4-6.8 0-3.2.6-6 1.9-8.4 1.3-2.4 3.1-4.4 5.4-6 2.3-1.6 5.1-2.8 8.4-3.6 3.3-.8 6.9-1.2 11-1.2h10.8v-4.6c0-1.8-.3-3.3-1-4.7s-1.6-2.6-2.7-3.6c-1.2-1-2.6-1.7-4.3-2.3-1.7-.5-3.6-.8-5.7-.8-2 0-3.7.3-5.3.8-1.6.5-2.9 1.2-3.9 2-1.1.8-1.9 1.8-2.5 2.9-.6 1.1-.9 2.3-.9 3.5h-10c0-2.1.6-4.2 1.6-6.2 1.1-2 2.6-3.9 4.6-5.5 2-1.6 4.4-2.9 7.3-3.9 2.8-1 6.1-1.5 9.7-1.5 3.3 0 6.4.4 9.2 1.2 2.8.8 5.3 2 7.3 3.7 2.1 1.6 3.7 3.7 4.9 6.1 1.2 2.4 1.8 5.3 1.8 8.5v27c0 1.9.2 4 .5 6.2.4 2.2.9 4.1 1.5 5.7v.9h-10.4zm-17.6-7.6c1.9 0 3.7-.3 5.4-.8 1.7-.5 3.2-1.2 4.6-2 1.4-.8 2.6-1.8 3.6-2.8 1-1.1 1.8-2.2 2.4-3.3V588h-9.2c-5.8 0-10.3.9-13.5 2.6s-4.8 4.4-4.8 8.1c0 1.4.2 2.8.7 4 .5 1.2 1.2 2.3 2.2 3.1 1 .9 2.2 1.6 3.7 2.1 1.3.6 3 .8 4.9.8zm69-64.6v14.1h22.1v7.7h-22.1v31.6c0 2.3.3 4.1.9 5.6.6 1.5 1.4 2.6 2.4 3.5 1 .9 2.2 1.5 3.5 1.9 1.3.4 2.7.5 4.2.5 1.1 0 2.2-.1 3.3-.2 1.1-.1 2.3-.3 3.4-.5s2.1-.4 3.1-.6c.9-.2 1.7-.4 2.3-.5l1.4 7c-.8.5-1.8.9-3 1.3s-2.5.7-3.9 1c-1.4.3-2.9.5-4.4.6-1.6.1-3.1.2-4.6.2-2.6 0-5-.4-7.2-1.1-2.2-.7-4.2-1.9-5.8-3.5-1.6-1.6-2.9-3.7-3.9-6.2-.9-2.5-1.4-5.6-1.4-9.2v-31.6H758V558h15.3v-14.1h10zm44 14.1H857v49.5h19v8.6h-48.7v-8.6h19.8v-40.9h-19.8v-8.6zm18.5-15.3c0-1.6.5-3 1.5-4.2 1-1.1 2.5-1.7 4.5-1.7s3.5.6 4.5 1.7 1.5 2.5 1.5 4.2c0 1.6-.5 3-1.5 4-1 1.1-2.5 1.6-4.5 1.6s-3.5-.5-4.5-1.6c-1-1-1.5-2.4-1.5-4zm68.7 59.1.9 3.6 1-3.6 16.3-43.8h10.2l-23.7 58.1h-7.6l-23.9-58.1h10.2l16.6 43.8zm68.9 15.4c-4.1 0-7.8-.7-11.3-2.1-3.4-1.4-6.3-3.3-8.8-5.9-2.4-2.5-4.3-5.5-5.7-8.9-1.4-3.4-2-7.2-2-11.2V587c0-4.7.8-8.9 2.3-12.6 1.5-3.7 3.5-6.8 6-9.4 2.5-2.6 5.3-4.5 8.5-5.9 3.2-1.4 6.4-2 9.7-2 4.2 0 7.9.7 11 2.2 3.1 1.4 5.7 3.5 7.8 6 2.1 2.6 3.6 5.6 4.6 9 1 3.5 1.5 7.2 1.5 11.3v4.5h-41.5c.1 2.7.6 5.1 1.5 7.5.9 2.3 2.2 4.4 3.8 6.1 1.6 1.7 3.5 3.1 5.7 4.1 2.2 1 4.7 1.5 7.4 1.5 3.5 0 6.7-.7 9.5-2.1 2.8-1.4 5-3.3 6.9-5.7l6.1 4.7c-1 1.5-2.2 2.9-3.6 4.2-1.4 1.3-3.1 2.5-5 3.6-1.9 1-4 1.9-6.4 2.5-2.5.5-5.1.9-8 .9zm-1.3-52.1c-2 0-3.9.4-5.7 1.1-1.8.7-3.4 1.8-4.8 3.2-1.4 1.4-2.6 3.2-3.6 5.2-1 2.1-1.7 4.4-2.1 7.1h31.3v-.8c-.1-1.9-.5-3.8-1.1-5.7-.6-1.9-1.5-3.6-2.8-5.1-1.2-1.5-2.7-2.7-4.6-3.7-1.8-.9-4-1.3-6.6-1.3zm52.9 42.6h38.2v8.4H1025v-78.2h9.9v69.8zm93 8.4c-.4-.8-.7-1.7-.9-2.8-.2-1.1-.4-2.3-.5-3.5-1 1-2.1 2-3.4 2.8-1.2.9-2.6 1.7-4.1 2.4-1.5.7-3.1 1.2-4.8 1.6-1.7.4-3.5.6-5.4.6-3.1 0-5.9-.4-8.4-1.3s-4.6-2.1-6.3-3.6c-1.7-1.5-3.1-3.3-4-5.4-.9-2.1-1.4-4.4-1.4-6.8 0-3.2.6-6 1.9-8.4 1.3-2.4 3.1-4.4 5.4-6 2.3-1.6 5.1-2.8 8.4-3.6 3.3-.8 6.9-1.2 11-1.2h10.8v-4.6c0-1.8-.3-3.3-1-4.7s-1.6-2.6-2.7-3.6c-1.2-1-2.6-1.7-4.3-2.3-1.7-.5-3.6-.8-5.7-.8-2 0-3.7.3-5.3.8-1.6.5-2.9 1.2-3.9 2-1.1.8-1.9 1.8-2.5 2.9-.6 1.1-.9 2.3-.9 3.5h-10c0-2.1.6-4.2 1.6-6.2 1.1-2 2.6-3.9 4.6-5.5 2-1.6 4.4-2.9 7.3-3.9 2.8-1 6.1-1.5 9.7-1.5 3.3 0 6.4.4 9.2 1.2 2.8.8 5.3 2 7.3 3.7 2.1 1.6 3.7 3.7 4.9 6.1 1.2 2.4 1.8 5.3 1.8 8.5v27c0 1.9.2 4 .5 6.2.4 2.2.9 4.1 1.5 5.7v.9H1128zm-17.6-7.6c1.9 0 3.7-.3 5.4-.8 1.7-.5 3.2-1.2 4.6-2 1.4-.8 2.6-1.8 3.6-2.8 1-1.1 1.8-2.2 2.4-3.3V588h-9.2c-5.8 0-10.3.9-13.5 2.6s-4.8 4.4-4.8 8.1c0 1.4.2 2.8.7 4 .5 1.2 1.2 2.3 2.2 3.1 1 .9 2.2 1.6 3.7 2.1 1.3.6 3 .8 4.9.8zm66.8-13 2.6 7 17.7-44.5h11.1l-29.5 67.1c-.7 1.5-1.5 3.1-2.6 4.8-1.1 1.7-2.3 3.2-3.8 4.7-1.5 1.4-3.3 2.6-5.3 3.6s-4.3 1.5-6.9 1.5c-.5 0-1 0-1.6-.1-.6-.1-1.1-.1-1.7-.2-.6-.1-1.1-.2-1.6-.3-.5-.1-.9-.2-1.2-.3l1.6-8.1c.3 0 .6 0 1 .1.4 0 .9.1 1.3.1.5 0 .9.1 1.3.1h1c1.4 0 2.6-.4 3.7-1.1 1.1-.8 2.1-1.6 3-2.7.9-1 1.6-2.1 2.3-3.2.6-1.1 1.1-2 1.5-2.7l4-7.7-25-55.4h11.1l16 37.3zm41.8-9c0-4.2.6-8.1 1.8-11.7 1.2-3.6 3-6.7 5.2-9.4 2.3-2.6 5-4.7 8.3-6.3 3.3-1.5 6.9-2.3 11-2.3s7.8.8 11.1 2.3c3.3 1.5 6.1 3.6 8.3 6.3 2.3 2.7 4 5.8 5.2 9.4 1.2 3.6 1.8 7.5 1.8 11.7v1.2c0 4.2-.6 8.1-1.8 11.7-1.2 3.6-3 6.7-5.2 9.3-2.3 2.7-5 4.7-8.3 6.2-3.3 1.5-6.9 2.3-11 2.3s-7.8-.8-11.1-2.3c-3.3-1.5-6.1-3.6-8.3-6.2-2.3-2.6-4-5.8-5.2-9.3-1.2-3.6-1.8-7.5-1.8-11.7v-1.2zm10 1.2c0 2.9.3 5.6 1 8.2.7 2.6 1.7 4.9 3.1 6.8 1.4 2 3.1 3.5 5.2 4.7 2.1 1.1 4.5 1.7 7.3 1.7 2.7 0 5.1-.6 7.2-1.7 2.1-1.1 3.8-2.7 5.2-4.7 1.4-2 2.4-4.3 3.1-6.8.7-2.6 1-5.3 1-8.2v-1.2c0-2.8-.3-5.5-1-8.1-.7-2.6-1.7-4.9-3.1-6.8-1.4-2-3.1-3.5-5.2-4.7-2.1-1.2-4.5-1.7-7.2-1.7-2.8 0-5.2.6-7.2 1.7-2 1.2-3.8 2.7-5.1 4.7-1.4 2-2.4 4.3-3.1 6.8-.7 2.6-1 5.3-1 8.1v1.2zm96.5 20.4c-1.9 2.9-4.4 5.1-7.3 6.7-2.9 1.6-6.2 2.4-10 2.4-3 0-5.8-.5-8.3-1.4-2.5-.9-4.6-2.4-6.3-4.4-1.8-2-3.1-4.6-4.1-7.7-.9-3.1-1.4-6.8-1.4-11.1v-34.5h9.9v34.6c0 3.2.3 5.8.8 7.8.5 2.1 1.3 3.7 2.3 5 1 1.2 2.2 2.1 3.7 2.6s3.1.8 5 .8c4 0 7.3-.8 9.8-2.5 2.5-1.6 4.3-3.9 5.6-6.7v-41.7h10v58.1h-9l-.7-8zm51.9-64.2v14.1h22.1v7.7h-22.1v31.6c0 2.3.3 4.1.9 5.6.6 1.5 1.4 2.6 2.4 3.5 1 .9 2.2 1.5 3.5 1.9 1.3.4 2.7.5 4.2.5 1.1 0 2.2-.1 3.3-.2 1.1-.1 2.3-.3 3.4-.5s2.1-.4 3.1-.6c.9-.2 1.7-.4 2.3-.5l1.4 7c-.8.5-1.8.9-3 1.3s-2.5.7-3.9 1c-1.4.3-2.9.5-4.4.6-1.6.1-3.1.2-4.6.2-2.6 0-5-.4-7.2-1.1-2.2-.7-4.2-1.9-5.8-3.5-1.6-1.6-2.9-3.7-3.9-6.2-.9-2.5-1.4-5.6-1.4-9.2v-31.6h-15.3V558h15.3v-14.1h9.7zm42.7 23.4v-10.3l47.4 20.3v7.8l-47.4 20.4v-10.3l34.8-13.1 3.2-.9-3.2-1-34.8-12.9z" fill="#fff"/></svg>