<svg xmlns="http://www.w3.org/2000/svg" viewBox="0 0 1920 673" xml:space="preserve"><style>.st2{fill:#fcfcfc}</style><path fill="#b9484d" d="M0 0h1920v673H0z"/><g opacity=".15"><path class="st2" d="M1186.6 66c46.4 55.2 67.1 134.2 62.1 237-1.8 51.3-11.8 92.7-30 124.4-18.3 31.7-40.9 47.5-68 47.5-17.7 0-30.6-6.2-38.7-18.6-8.1-12.4-10.7-30.2-7.7-53.5l22.5-255.4-27.8-19c-29.8-19.4-65.7-29.2-107.8-29.2-34.2 0-66 10.2-95.4 30.5-29.5 20.3-53.8 49.4-73.1 87.3-19.3 37.9-31.6 81.1-36.9 129.7-5.9 59.5 2.9 107.4 26.5 143.6 23.6 36.2 56.8 54.3 99.8 54.3 47.4 0 85.9-20.6 115.3-61.9 9.4 20.3 23.3 35.9 41.8 46.8 18.4 10.9 40.3 16.3 65.6 16.3 57.4 0 103.2-22.2 137.2-66.5 34-44.3 52.6-104.2 55.9-179.6 3.2-78-8.4-146.5-34.9-205.4-16.6-36.8-38.4-68.4-65.5-94.5h-137.6c39 13.9 71.2 35.9 96.7 66.2zm-170.7 325.9c-8.5 23.9-19.3 42.1-32.3 54.8-13 12.7-26.7 19-41.1 19-22.4 0-38.6-10.1-48.6-30.3-10-20.2-13.4-49.7-10.2-88.6 5.6-55.4 17.7-97.5 36.5-126.4 18.7-28.9 45-43.3 78.9-43.3 12.1 0 23.9 1.9 35.3 5.7l-18.5 209.1z"/><path class="st2" d="M1098.1 629.6c-19.4 9.1-42.6 16.4-69.4 21.9-26.8 5.4-52.4 8.2-76.9 8.2-92.8 0-162.4-28.5-209-85.5-46.5-57-67.5-137.6-62.7-241.9 3.2-68.6 17.7-129.5 43.3-182.7 25.6-53.2 60.7-94.2 105.2-123C845.3 15.6 863 6.8 881.5 0H737.1c-35.2 30.7-64.5 68.6-88 113.5-33.6 64.5-52.1 137.4-55.7 218.7-3.5 84.8 8.2 157.8 35.1 218.9 22.5 51 54.6 91.6 96.4 121.8h383.7l-10.5-43.3z"/></g><text transform="translate(1095.206 429.748)" font-size="319.085" font-family="Roboto-Bold" fill="#fff">@</text><path d="M827 592.5H539c-17.7 0-32-14.3-32-32v-448c0-17.7 14.3-32 32-32h288c17.7 0 32 14.3 32 32v448c0 17.7-14.3 32-32 32z" fill="#e0ac7e"/><path d="M529.5 113.5h307v446h-307v-446z" fill="#f4f4f4"/><path d="M772.5 168.5h-179c-7.7 0-14-6.3-14-14v-47c0-7.7 6.3-14 14-14h179c7.7 0 14 6.3 14 14v47c0 7.7-6.3 14-14 14zm-179-71c-5.5 0-10 4.5-10 10v47c0 5.5 4.5 10 10 10h179c5.5 0 10-4.5 10-10v-47c0-5.5-4.5-10-10-10h-179z" fill="#999"/><path d="M599 157.5h19c3.3 0 6 2.7 6 6v7c0 3.3-2.7 6-6 6h-38c-3.3 0-6-2.7-6-6v-38c0-3.3 2.7-6 6-6h7c3.3 0 6 2.7 6 6v19c0 3.3 2.7 6 6 6zm168 0h-19c-3.3 0-6 2.7-6 6v7c0 3.3 2.7 6 6 6h38c3.3 0 6-2.7 6-6v-38c0-3.3-2.7-6-6-6h-7c-3.3 0-6 2.7-6 6v19c0 3.3-2.7 6-6 6zm-62-71v2c0 1.7-1.3 3-3 3h-38c-1.7 0-3-1.3-3-3v-2c0-1.7-1.3-3-3-3h-63.5c-1.7 0-3 1.3-3 3v20c0 1.7 1.3 3 3 3h177c1.7 0 3-1.3 3-3v-20c0-1.7-1.3-3-3-3H708c-1.7 0-3 1.3-3 3z" fill="#36434f"/><path d="M574 239h218v8H574v-8zm0 50h218v8H574v-8zm0 50h218v8H574v-8zm0 50h218v8H574v-8zm0 50h218v8H574v-8zm0 50h218v8H574v-8z" fill="#bbb"/><path d="M539 80.5c-17.7 0-32 14.3-32 32v448c0 17.7 14.3 32 32 32h144v-512H539z" opacity=".15" fill="#444"/></svg>