<svg xmlns="http://www.w3.org/2000/svg" viewBox="0 0 1920 673" xml:space="preserve"><path fill="#217fbc" d="M0 0h1920v673H0z"/><path d="M1260 486.5H660c-82.8 0-150-67.2-150-150s67.2-150 150-150h600c82.8 0 150 67.2 150 150s-67.2 150-150 150z" fill="#78909c"/><path d="M685.2 389.8V283.2h31.5c11.4 0 20.1 2.4 26 7.1 5.9 4.7 8.9 11.7 8.9 20.9 0 5.5-1.5 10.3-4.5 14.4s-7.1 7-12.3 8.8c6.2 1.4 11.2 4.4 15 9.2 3.8 4.7 5.7 10.2 5.7 16.4 0 9.4-3 16.8-9.1 22.1-6.1 5.3-14.5 7.9-25.4 7.9h-35.8zm9-58.8h24.6c7.5-.1 13.3-1.9 17.5-5.3 4.1-3.4 6.2-8.4 6.2-14.9 0-6.8-2.1-11.9-6.4-15.2-4.3-3.3-10.7-4.9-19.4-4.9h-22.5V331zm0 7.6v43.6h27c7.7 0 13.8-2 18.3-5.9 4.5-3.9 6.8-9.4 6.8-16.3 0-6.6-2.2-11.8-6.5-15.6-4.3-3.8-10.3-5.7-17.9-5.7h-27.7zm156.3-55.4V356c0 7.2-1.6 13.4-4.8 18.8-3.1 5.3-7.5 9.4-13.2 12.3-5.7 2.9-12.2 4.3-19.6 4.3-11.2 0-20.2-3.1-27-9.2-6.8-6.1-10.3-14.6-10.5-25.5v-73.5h8.9v72.1c0 9 2.6 16 7.7 20.9 5.1 5 12.1 7.4 20.9 7.4s15.7-2.5 20.8-7.5c5.1-5 7.7-11.9 7.7-20.8v-72.2h9.1zm97.5 7.6h-36.5v99h-9v-99H866v-7.6h82v7.6zm90.8 0h-36.5v99h-9v-99h-36.5v-7.6h82v7.6zm93.9 51.5c0 9.8-1.7 18.4-5.1 25.9-3.4 7.4-8.2 13.1-14.5 17.1s-13.6 6-21.8 6c-12.5 0-22.5-4.5-30.2-13.4-7.7-8.9-11.5-20.9-11.5-36.1v-11c0-9.7 1.7-18.3 5.2-25.8 3.4-7.5 8.3-13.3 14.6-17.3 6.3-4 13.5-6 21.8-6s15.4 2 21.7 5.9c6.3 4 11.1 9.5 14.5 16.8 3.4 7.2 5.2 15.6 5.3 25.1v12.8zm-9-11.6c0-12.8-2.9-22.9-8.7-30.2-5.8-7.3-13.8-10.9-23.9-10.9-9.9 0-17.8 3.7-23.7 10.9-5.9 7.3-8.8 17.5-8.8 30.6v11.1c0 12.6 2.9 22.7 8.8 30.1 5.9 7.4 13.8 11.1 23.9 11.1 10.2 0 18.2-3.6 23.9-10.9 5.7-7.3 8.6-17.5 8.6-30.5v-11.3zm111.1 59.1h-9l-61.3-91.3v91.3h-9.1V283.2h9.1l61.4 91.3v-91.3h8.9v106.6z" fill="#fff"/></svg>