<svg xmlns="http://www.w3.org/2000/svg" viewBox="0 0 1920 673" xml:space="preserve"><style>.st0{fill:#2aa0db}.st1{fill:#dedcd9}</style><path class="st0" d="M0 0h1920v673H0z"/><path class="st1" d="M927 441.3h44v69h-44v-69z"/><path class="st1" d="M1100.4 508.6c-.8-.8-2.3-1.4-3.4-1.4H801c-1.1 0-2.6.6-3.4 1.4l-18.2 18.2c-.8.8-.5 1.4.6 1.4h338c1.1 0 1.4-.6.6-1.4l-18.2-18.2z"/><path d="M958 446.3c0 1.1-.9 2-2 2h-14c-1.1 0-2-.9-2-2v-1c0-1.1.9-2 2-2h14c1.1 0 2 .9 2 2v1z" fill="#b24b53"/><path d="M921 431.3c0-1.1.9-2 2-2h52c1.1 0 2 .9 2 2v9c0 1.1-.9 2-2 2h-52c-1.1 0-2-.9-2-2v-9z" fill="#a6a3a1"/><path class="st1" d="M698 122.8c-2.8 0-5 2.3-5 5V425c0 2.8 2.3 5 5 5h502c2.8 0 5-2.3 5-5V127.8c0-2.8-2.3-5-5-5H698z"/><path class="st0" d="M1182.7 401.4c0 2.8-2.3 5-5 5H720.4c-2.8 0-5-2.3-5-5V148.8c0-2.8 2.3-5 5-5h457.3c2.8 0 5 2.3 5 5v252.6z"/><path d="m1399.1 588.7 59 58.3 35.3-15V517.6l-35.3-15-59 58.3-35.5-26.8-14.6 4.9v71.5l14.6 4.9 35.5-26.7zm58.9-44.5v61.2l-40.6-30.6 40.6-30.6zm-94.4 9.3 21.5 21.3-21.5 21.3v-42.6zm-535.2-247H786v-8.4l20-21.3c2.7-3 4.8-5.6 6.1-7.9 1.3-2.2 2-4.4 2-6.4 0-2.7-.7-4.9-2.1-6.5-1.4-1.6-3.4-2.4-6-2.4-2.8 0-5 1-6.6 2.9-1.6 1.9-2.4 4.4-2.4 7.5h-12.3c0-3.8.9-7.2 2.7-10.3 1.8-3.1 4.3-5.6 7.6-7.3 3.3-1.8 7-2.7 11.2-2.7 6.4 0 11.3 1.5 14.9 4.6s5.3 7.4 5.3 13c0 3.1-.8 6.2-2.4 9.4-1.6 3.2-4.3 6.9-8.2 11.1l-14.1 14.8h26.6v9.9zm54.5-34.7h15.4v11.1h-15.4v17.3h-11.7v-17.3h-15.4v-11.1h15.4v-16.6h11.7v16.6zm86.4 34.7h-42.4v-8.4l20-21.3c2.7-3 4.8-5.6 6.1-7.9 1.3-2.2 2-4.4 2-6.4 0-2.7-.7-4.9-2.1-6.5-1.4-1.6-3.4-2.4-6-2.4-2.8 0-5 1-6.6 2.9-1.6 1.9-2.4 4.4-2.4 7.5h-12.3c0-3.8.9-7.2 2.7-10.3 1.8-3.1 4.3-5.6 7.6-7.3 3.3-1.8 7-2.7 11.2-2.7 6.4 0 11.3 1.5 14.9 4.6s5.3 7.4 5.3 13c0 3.1-.8 6.2-2.4 9.4-1.6 3.2-4.3 6.9-8.2 11.1l-14.1 14.8h26.6v9.9zm68.8-31.7h-38v-10h38v10zm0 18.4h-38v-10h38v10zm68.3-10h7v9.9h-7v13.4h-12.3v-13.4h-25.4l-.6-7.7 25.8-40.8h12.4v38.6zm-26 0h13.7v-21.9l-.8 1.4-12.9 20.5z" fill="#fff"/></svg>