<svg xmlns="http://www.w3.org/2000/svg" viewBox="0 0 1920 673" xml:space="preserve"><path fill="#1269a4" d="M0 0h1920v673H0z"/><path fill="#125684" d="M1230 0h690v673h-690z"/><path d="M798.3 131H515.4c-18.9 0-34.4 15.5-34.4 34.4v311.9c0 18.9 15.5 34.4 34.4 34.4h186.3c-2.1-92.5 29.5-272.5 96.6-380.7z" fill="#0f80cc"/><path d="M864.3 120.8c-19.4-17.3-42.8-10.3-66 10.2-3.4 3-6.9 6.5-10.3 10-39.6 42-76.4 119.8-87.7 179.3 4.4 9.1 7.9 20.5 10.2 29.3.6 2.2 1.1 4.3 1.5 6.3 1 4.2 1.5 7 1.5 7s-.4-1.3-1.8-5.6c-.3-.8-.6-1.7-1-2.7-.2-.4-.4-1-.6-1.5-2.6-6.1-9.8-18.7-12.9-24.1-2.6 7.9-5 15.3-7 22.1 9.1 16.6 14.6 45.1 14.6 45.1s-.4-1.8-2.7-8.3c-2-5.7-12.1-23.3-14.4-27.6-4.1 15.1-5.7 25.3-4.2 27.8 2.8 4.8 5.6 13.1 7.9 22.3 5.5 20.7 9.2 45.8 9.2 45.8s.1 1.7.4 4.2c-.7 17.3-.3 35.3 1.1 51.6 1.8 21.5 5.1 40.1 9.4 49.9l2.9-1.6c-6.3-19.6-8.8-45-7.8-74.5 1.7-45 12.1-99.3 31.2-156 32.2-85.7 77.1-154.2 118.2-187-37.4 33.8-88.1 143.3-103.3 183.8-17 45.4-29.1 88-36.3 128.8 12.5-38.3 53-54.7 53-54.7s19.9-24.5 43.1-59.5c-13.8 3.2-36.6 8.6-44.4 11.8-11.3 4.7-14.3 6.3-14.3 6.3s36.5-22.2 67.8-32.3c43-67.6 89.9-164 42.7-206.2" fill="#f4f4f4"/><path d="M988.7 541.6h-22.5v23.2h-11.7V508h37v9.5h-25.3v14.7h22.5v9.4zm6.3 1.7c0-4.2.8-7.9 2.4-11.2 1.6-3.3 3.9-5.8 7-7.6 3-1.8 6.6-2.7 10.6-2.7 5.7 0 10.4 1.7 14 5.2 3.6 3.5 5.6 8.2 6 14.2l.1 2.9c0 6.5-1.8 11.7-5.4 15.6-3.6 3.9-8.5 5.9-14.6 5.9s-11-2-14.6-5.9-5.4-9.2-5.4-15.9v-.5zm11.3.8c0 4 .8 7.1 2.3 9.2 1.5 2.1 3.7 3.2 6.5 3.2 2.7 0 4.9-1 6.4-3.1s2.3-5.5 2.3-10.1c0-3.9-.8-7-2.3-9.2-1.5-2.2-3.7-3.2-6.5-3.2s-4.9 1.1-6.4 3.2c-1.5 2.2-2.3 5.5-2.3 10zm59.5-10.9c-1.5-.2-2.9-.3-4.1-.3-4.3 0-7.1 1.4-8.4 4.3v27.7H1042v-42.3h10.7l.3 5c2.3-3.9 5.4-5.8 9.4-5.8 1.3 0 2.4.2 3.5.5l-.1 10.9zm24.1 32.4c-6.2 0-11.2-1.9-15.1-5.7-3.9-3.8-5.8-8.9-5.8-15.2v-1.1c0-4.2.8-8 2.5-11.4 1.6-3.3 4-5.9 7-7.7 3-1.8 6.4-2.7 10.3-2.7 5.8 0 10.3 1.8 13.7 5.5 3.3 3.6 5 8.8 5 15.5v4.6h-26.9c.4 2.8 1.5 5 3.3 6.6 1.8 1.7 4.2 2.5 7 2.5 4.3 0 7.7-1.6 10.2-4.7l5.5 6.2c-1.7 2.4-4 4.3-6.9 5.6s-6.3 2-9.8 2zm-1.3-34.7c-2.2 0-4.1.8-5.4 2.3-1.4 1.5-2.3 3.7-2.7 6.5h15.7v-.9c-.1-2.5-.7-4.5-2-5.8-1.3-1.4-3.2-2.1-5.6-2.1zm25-19.2c0-1.7.6-3.1 1.7-4.2s2.7-1.6 4.6-1.6c1.9 0 3.5.5 4.6 1.6 1.1 1.1 1.7 2.5 1.7 4.2 0 1.7-.6 3.1-1.7 4.2-1.2 1.1-2.7 1.6-4.6 1.6-1.9 0-3.4-.5-4.6-1.6-1.1-1.1-1.7-2.5-1.7-4.2zm12 53.2h-11.3v-42.3h11.3v42.3zm7.7-21.5c0-6.5 1.5-11.7 4.6-15.7 3.1-4 7.2-5.9 12.5-5.9 4.6 0 8.2 1.6 10.8 4.8l.5-4h10.2v40.9c0 3.7-.8 6.9-2.5 9.6s-4 4.8-7.1 6.3c-3 1.4-6.6 2.1-10.7 2.1-3.1 0-6.1-.6-9.1-1.9-2.9-1.2-5.2-2.8-6.7-4.8l5-6.9c2.8 3.2 6.2 4.7 10.2 4.7 3 0 5.3-.8 7-2.4 1.7-1.6 2.5-3.9 2.5-6.8v-2.3c-2.6 2.9-6 4.4-10.3 4.4-5.1 0-9.2-2-12.3-6-3.1-4-4.7-9.2-4.7-15.8v-.3zm11.2.9c0 3.8.8 6.8 2.3 9 1.5 2.2 3.6 3.3 6.3 3.3 3.4 0 5.9-1.3 7.4-3.9v-17.8c-1.5-2.6-3.9-3.9-7.3-3.9-2.7 0-4.8 1.1-6.4 3.3-1.5 2.2-2.3 5.5-2.3 10zm46.5-21.7.4 4.9c3-3.8 7.1-5.7 12.1-5.7 4.5 0 7.8 1.3 10 3.9 2.2 2.6 3.3 6.6 3.4 11.8v27.3h-11.3v-27c0-2.4-.5-4.1-1.6-5.2-1-1.1-2.8-1.6-5.2-1.6-3.2 0-5.6 1.4-7.1 4.1v29.8h-11.3v-42.3h10.6zm69.6 25.3-4.1 4.1v12.9h-11.3v-60h11.3v33.2l2.2-2.8 10.8-12.7h13.6l-15.3 17.6 16.6 24.6h-13l-10.8-16.9zm46.1 17.7c-6.2 0-11.2-1.9-15.1-5.7-3.9-3.8-5.8-8.9-5.8-15.2v-1.1c0-4.2.8-8 2.5-11.4 1.6-3.3 4-5.9 7-7.7 3-1.8 6.4-2.7 10.3-2.7 5.8 0 10.3 1.8 13.7 5.5 3.3 3.6 5 8.8 5 15.5v4.6h-26.9c.4 2.8 1.5 5 3.3 6.6 1.8 1.7 4.2 2.5 7 2.5 4.3 0 7.7-1.6 10.2-4.7l5.5 6.2c-1.7 2.4-4 4.3-6.9 5.6s-6.3 2-9.8 2zm-1.3-34.7c-2.2 0-4.1.8-5.4 2.3-1.4 1.5-2.3 3.7-2.7 6.5h15.7v-.9c-.1-2.5-.7-4.5-2-5.8-1.4-1.4-3.2-2.1-5.6-2.1zm40.4 18 7.8-26.3h12.1l-17 48.8-.9 2.2c-2.5 5.5-6.7 8.3-12.5 8.3-1.6 0-3.3-.2-5-.7v-8.6h1.7c2.1 0 3.7-.3 4.8-1 1.1-.7 1.9-1.7 2.5-3.2l1.3-3.5-14.8-42.4h12.1l7.9 26.4z" fill="#fff"/></svg>