<svg xmlns="http://www.w3.org/2000/svg" viewBox="0 0 1920 673" xml:space="preserve"><style>.st1{fill:#36434f}.st2{fill:#999}.st3{fill:#122a3a}.st4{fill:#cc584c}.st5{fill:#4caf50}.st6{fill:#eec646}</style><path fill="#48b983" d="M0 0h1920v673H0z"/><path class="st1" d="M810.3 673H461.2c-5.1 0-9.2-4.1-9.2-9.2V94.2c0-5.1 4.1-9.2 9.2-9.2h349.1c5.1 0 9.2 4.1 9.2 9.2v569.6c0 5.1-4.1 9.2-9.2 9.2z"/><path class="st2" d="M503.7 218.2h264.1v27.6H503.7v-27.6z"/><path class="st1" d="M541 227.4h1.1v3.4h-5.7v-3.4h1.1l1.1-2.3h1.1l1.3 2.3zm6.9-2.3h-1.1l-1.1 2.3h-1.1v3.4h5.7v-3.4H549l-1.1-2.3zm8 0h-1.1l-1.1 2.3h-1.1v3.4h5.7v-3.4h-1.1l-1.3-2.3zm8.1 0h-1.1l-1.1 2.3h-1.1v3.4h5.7v-3.4h-1.1l-1.3-2.3zm8 0h-1.1l-1.1 2.3h-1.1v3.4h5.7v-3.4h-1.1l-1.3-2.3zm8.1 0H579l-1.1 2.3h-1.1v3.4h5.7v-3.4h-1.1l-1.3-2.3zm8 0H587l-1.1 2.3h-1.1v3.4h5.7v-3.4h-1.1l-1.3-2.3zm8 0H595l-1.1 2.3h-1.1v3.4h5.7v-3.4h-1.1l-1.3-2.3zm8.1 0H603l-1.1 2.3h-1.1v3.4h5.7v-3.4h-1.1l-1.2-2.3zm8 0h-1.1l-1.1 2.3h-1.1v3.4h5.7v-3.4h-1.1l-1.3-2.3zm8 0h-1.1l-1.1 2.3h-1.1v3.4h5.7v-3.4h-1.1l-1.3-2.3zm8.1 0h-1.1l-1.1 2.3H625v3.4h5.7v-3.4h-1.1l-1.3-2.3zm8 0h-1.1l-1.1 2.3H633v3.4h5.7v-3.4h-1.1l-1.3-2.3zm8.1 0h-1.1l-1.1 2.3h-1.1v3.4h5.7v-3.4h-1.1l-1.3-2.3zm8 0h-1.1l-1.1 2.3H649v3.4h5.7v-3.4h-1.1l-1.2-2.3zm8 0h-1.1l-1.1 2.3H657v3.4h5.7v-3.4h-1.1l-1.2-2.3zm8.1 0h-1.1l-1.1 2.3H665v3.4h5.7v-3.4h-1.1l-1.1-2.3zm8 0h-1.1l-1.1 2.3h-1.1v3.4h5.7v-3.4h-1.1l-1.3-2.3zm8.1 0h-1.1l-1.1 2.3h-1.1v3.4h5.7v-3.4h-1.1l-1.3-2.3zm8 0h-1.1l-1.1 2.3h-1.1v3.4h5.7v-3.4h-1.1l-1.3-2.3zm8 0h-1.1l-1.1 2.3h-1.1v3.4h5.7v-3.4h-1.1l-1.3-2.3zm8.1 0h-1.1l-1.1 2.3h-1.1v3.4h5.7v-3.4H710l-1.3-2.3zm8 0h-1.1l-1.1 2.3h-1.1v3.4h5.7v-3.4H718l-1.3-2.3zm8.1 0h-1.1l-1.1 2.3h-1.1v3.4h5.7v-3.4h-1.1l-1.3-2.3zm9.1 2.3-1.1-2.3h-1.1l-1.1 2.3h-1.1v3.4h5.7v-3.4h-1.3zm-194 12.6h-1.1l-1.1-2.3h-1.1v-3.4h5.7v3.4H541l-1.1 2.3zm9.1-2.3h1.1v-3.4h-5.7v3.4h1.1l1.1 2.3h1.1l1.3-2.3zm8.1 0h1.1v-3.4h-5.7v3.4h1.1l1.1 2.3h1.1l1.3-2.3zm8 0h1.1v-3.4h-5.7v3.4h1.1l1.1 2.3h1.1l1.3-2.3zm8.1 0h1.1v-3.4h-5.7v3.4h1.1l1.1 2.3h1.1l1.3-2.3zm8 0h1.1v-3.4h-5.7v3.4h1.1l1.1 2.3h1.1l1.3-2.3zm8 0h1.1v-3.4h-5.7v3.4h1.1l1.1 2.3h1.1l1.3-2.3zm8.1 0h1.1v-3.4h-5.7v3.4h1.1l1.1 2.3h1.1l1.3-2.3zm8 0h1.1v-3.4h-5.7v3.4h1.1l1.1 2.3h1.1l1.3-2.3zm8.1 0h1.1v-3.4h-5.7v3.4h1.1l1.1 2.3h1.1l1.3-2.3zm8 0h1.1v-3.4h-5.7v3.4h1.1l1.1 2.3h1.1l1.3-2.3zm8 0h1.1v-3.4h-5.7v3.4h1.1l1.1 2.3h1.1l1.3-2.3zm8.1 0h1.1v-3.4h-5.7v3.4h1.1l1.1 2.3h1.1l1.3-2.3zm8 0h1.1v-3.4h-5.7v3.4h1.1l1.1 2.3h1.1l1.3-2.3zm8.1 0h1.1v-3.4H649v3.4h1.1l1.1 2.3h1.1l1.3-2.3zm8 0h1.1v-3.4H657v3.4h1.1l1.1 2.3h1.1l1.3-2.3zm8 0h1.1v-3.4H665v3.4h1.1l1.1 2.3h1.1l1.3-2.3zm8.1 0h1.1v-3.4h-5.7v3.4h1.1l1.1 2.3h1.1l1.3-2.3zm8 0h1.1v-3.4h-5.7v3.4h1.1l1.1 2.3h1.1l1.3-2.3zm8 0h1.1v-3.4h-5.7v3.4h1.1l1.1 2.3h1.1l1.3-2.3zm8.1 0h1.1v-3.4h-5.7v3.4h1.1l1.1 2.3h1.1l1.3-2.3zm8 0h1.1v-3.4h-5.7v3.4h1.1l1.1 2.3h1.1l1.3-2.3zm8.1 0h1.1v-3.4h-5.7v3.4h1.1l1.1 2.3h1.1l1.3-2.3zm8 0h1.1v-3.4h-5.7v3.4h1.1l1.1 2.3h1.1l1.3-2.3zm9.2 0v-3.4h-5.7v3.4h1.1l1.1 2.3h1.1l1.1-2.3h1.3z"/><circle class="st1" cx="514" cy="223.4" r="2.9"/><circle class="st1" cx="514" cy="240.6" r="2.9"/><circle class="st1" cx="757.5" cy="223.4" r="2.9"/><circle class="st1" cx="757.5" cy="240.6" r="2.9"/><path class="st2" d="M503.7 252.7h264.1v27.6H503.7v-27.6z"/><path class="st1" d="M541 261.9h1.1v3.4h-5.7v-3.4h1.1l1.1-2.3h1.1l1.3 2.3zm6.9-2.3h-1.1l-1.1 2.3h-1.1v3.4h5.7v-3.4H549l-1.1-2.3zm8 0h-1.1l-1.1 2.3h-1.1v3.4h5.7v-3.4h-1.1l-1.3-2.3zm8.1 0h-1.1l-1.1 2.3h-1.1v3.4h5.7v-3.4h-1.1l-1.3-2.3zm8 0h-1.1l-1.1 2.3h-1.1v3.4h5.7v-3.4h-1.1l-1.3-2.3zm8.1 0H579l-1.1 2.3h-1.1v3.4h5.7v-3.4h-1.1l-1.3-2.3zm8 0H587l-1.1 2.3h-1.1v3.4h5.7v-3.4h-1.1l-1.3-2.3zm8 0H595l-1.1 2.3h-1.1v3.4h5.7v-3.4h-1.1l-1.3-2.3zm8.1 0H603l-1.1 2.3h-1.1v3.4h5.7v-3.4h-1.1l-1.2-2.3zm8 0h-1.1l-1.1 2.3h-1.1v3.4h5.7v-3.4h-1.1l-1.3-2.3zm8 0h-1.1l-1.1 2.3h-1.1v3.4h5.7v-3.4h-1.1l-1.3-2.3zm8.1 0h-1.1l-1.1 2.3H625v3.4h5.7v-3.4h-1.1l-1.3-2.3zm8 0h-1.1l-1.1 2.3H633v3.4h5.7v-3.4h-1.1l-1.3-2.3zm8.1 0h-1.1l-1.1 2.3h-1.1v3.4h5.7v-3.4h-1.1l-1.3-2.3zm8 0h-1.1l-1.1 2.3H649v3.4h5.7v-3.4h-1.1l-1.2-2.3zm8 0h-1.1l-1.1 2.3H657v3.4h5.7v-3.4h-1.1l-1.2-2.3zm8.1 0h-1.1l-1.1 2.3H665v3.4h5.7v-3.4h-1.1l-1.1-2.3zm8 0h-1.1l-1.1 2.3h-1.1v3.4h5.7v-3.4h-1.1l-1.3-2.3zm8.1 0h-1.1l-1.1 2.3h-1.1v3.4h5.7v-3.4h-1.1l-1.3-2.3zm8 0h-1.1l-1.1 2.3h-1.1v3.4h5.7v-3.4h-1.1l-1.3-2.3zm8 0h-1.1l-1.1 2.3h-1.1v3.4h5.7v-3.4h-1.1l-1.3-2.3zm8.1 0h-1.1l-1.1 2.3h-1.1v3.4h5.7v-3.4H710l-1.3-2.3zm8 0h-1.1l-1.1 2.3h-1.1v3.4h5.7v-3.4H718l-1.3-2.3zm8.1 0h-1.1l-1.1 2.3h-1.1v3.4h5.7v-3.4h-1.1l-1.3-2.3zm9.1 2.3-1.1-2.3h-1.1l-1.1 2.3h-1.1v3.4h5.7v-3.4h-1.3zm-194 12.6h-1.1l-1.1-2.3h-1.1v-3.4h5.7v3.4H541l-1.1 2.3zm9.1-2.3h1.1v-3.4h-5.7v3.4h1.1l1.1 2.3h1.1l1.3-2.3zm8.1 0h1.1v-3.4h-5.7v3.4h1.1l1.1 2.3h1.1l1.3-2.3zm8 0h1.1v-3.4h-5.7v3.4h1.1l1.1 2.3h1.1l1.3-2.3zm8.1 0h1.1v-3.4h-5.7v3.4h1.1l1.1 2.3h1.1l1.3-2.3zm8 0h1.1v-3.4h-5.7v3.4h1.1l1.1 2.3h1.1l1.3-2.3zm8 0h1.1v-3.4h-5.7v3.4h1.1l1.1 2.3h1.1l1.3-2.3zm8.1 0h1.1v-3.4h-5.7v3.4h1.1l1.1 2.3h1.1l1.3-2.3zm8 0h1.1v-3.4h-5.7v3.4h1.1l1.1 2.3h1.1l1.3-2.3zm8.1 0h1.1v-3.4h-5.7v3.4h1.1l1.1 2.3h1.1l1.3-2.3zm8 0h1.1v-3.4h-5.7v3.4h1.1l1.1 2.3h1.1l1.3-2.3zm8 0h1.1v-3.4h-5.7v3.4h1.1l1.1 2.3h1.1l1.3-2.3zm8.1 0h1.1v-3.4h-5.7v3.4h1.1l1.1 2.3h1.1l1.3-2.3zm8 0h1.1v-3.4h-5.7v3.4h1.1l1.1 2.3h1.1l1.3-2.3zm8.1 0h1.1v-3.4H649v3.4h1.1l1.1 2.3h1.1l1.3-2.3zm8 0h1.1v-3.4H657v3.4h1.1l1.1 2.3h1.1l1.3-2.3zm8 0h1.1v-3.4H665v3.4h1.1l1.1 2.3h1.1l1.3-2.3zm8.1 0h1.1v-3.4h-5.7v3.4h1.1l1.1 2.3h1.1l1.3-2.3zm8 0h1.1v-3.4h-5.7v3.4h1.1l1.1 2.3h1.1l1.3-2.3zm8 0h1.1v-3.4h-5.7v3.4h1.1l1.1 2.3h1.1l1.3-2.3zm8.1 0h1.1v-3.4h-5.7v3.4h1.1l1.1 2.3h1.1l1.3-2.3zm8 0h1.1v-3.4h-5.7v3.4h1.1l1.1 2.3h1.1l1.3-2.3zm8.1 0h1.1v-3.4h-5.7v3.4h1.1l1.1 2.3h1.1l1.3-2.3zm8 0h1.1v-3.4h-5.7v3.4h1.1l1.1 2.3h1.1l1.3-2.3zm9.2 0v-3.4h-5.7v3.4h1.1l1.1 2.3h1.1l1.1-2.3h1.3z"/><circle class="st1" cx="514" cy="257.8" r="2.9"/><circle class="st1" cx="514" cy="275.1" r="2.9"/><circle class="st1" cx="757.5" cy="257.8" r="2.9"/><circle class="st1" cx="757.5" cy="275.1" r="2.9"/><path class="st2" d="M503.7 287.1h264.1v27.6H503.7v-27.6z"/><path class="st1" d="M541 296.3h1.1v3.4h-5.7v-3.4h1.1l1.1-2.3h1.1l1.3 2.3zm6.9-2.3h-1.1l-1.1 2.3h-1.1v3.4h5.7v-3.4H549l-1.1-2.3zm8 0h-1.1l-1.1 2.3h-1.1v3.4h5.7v-3.4h-1.1l-1.3-2.3zm8.1 0h-1.1l-1.1 2.3h-1.1v3.4h5.7v-3.4h-1.1L564 294zm8 0h-1.1l-1.1 2.3h-1.1v3.4h5.7v-3.4h-1.1L572 294zm8.1 0H579l-1.1 2.3h-1.1v3.4h5.7v-3.4h-1.1l-1.3-2.3zm8 0H587l-1.1 2.3h-1.1v3.4h5.7v-3.4h-1.1l-1.3-2.3zm8 0H595l-1.1 2.3h-1.1v3.4h5.7v-3.4h-1.1l-1.3-2.3zm8.1 0H603l-1.1 2.3h-1.1v3.4h5.7v-3.4h-1.1l-1.2-2.3zm8 0h-1.1l-1.1 2.3h-1.1v3.4h5.7v-3.4h-1.1l-1.3-2.3zm8 0h-1.1l-1.1 2.3h-1.1v3.4h5.7v-3.4h-1.1l-1.3-2.3zm8.1 0h-1.1l-1.1 2.3H625v3.4h5.7v-3.4h-1.1l-1.3-2.3zm8 0h-1.1l-1.1 2.3H633v3.4h5.7v-3.4h-1.1l-1.3-2.3zm8.1 0h-1.1l-1.1 2.3h-1.1v3.4h5.7v-3.4h-1.1l-1.3-2.3zm8 0h-1.1l-1.1 2.3H649v3.4h5.7v-3.4h-1.1l-1.2-2.3zm8 0h-1.1l-1.1 2.3H657v3.4h5.7v-3.4h-1.1l-1.2-2.3zm8.1 0h-1.1l-1.1 2.3H665v3.4h5.7v-3.4h-1.1l-1.1-2.3zm8 0h-1.1l-1.1 2.3h-1.1v3.4h5.7v-3.4h-1.1l-1.3-2.3zm8.1 0h-1.1l-1.1 2.3h-1.1v3.4h5.7v-3.4h-1.1l-1.3-2.3zm8 0h-1.1l-1.1 2.3h-1.1v3.4h5.7v-3.4h-1.1l-1.3-2.3zm8 0h-1.1l-1.1 2.3h-1.1v3.4h5.7v-3.4h-1.1l-1.3-2.3zm8.1 0h-1.1l-1.1 2.3h-1.1v3.4h5.7v-3.4H710l-1.3-2.3zm8 0h-1.1l-1.1 2.3h-1.1v3.4h5.7v-3.4H718l-1.3-2.3zm8.1 0h-1.1l-1.1 2.3h-1.1v3.4h5.7v-3.4h-1.1l-1.3-2.3zm9.1 2.3-1.1-2.3h-1.1l-1.1 2.3h-1.1v3.4h5.7v-3.4h-1.3zm-194 12.6h-1.1l-1.1-2.3h-1.1v-3.4h5.7v3.4H541l-1.1 2.3zm9.1-2.3h1.1v-3.4h-5.7v3.4h1.1l1.1 2.3h1.1l1.3-2.3zm8.1 0h1.1v-3.4h-5.7v3.4h1.1l1.1 2.3h1.1l1.3-2.3zm8 0h1.1v-3.4h-5.7v3.4h1.1l1.1 2.3h1.1l1.3-2.3zm8.1 0h1.1v-3.4h-5.7v3.4h1.1l1.1 2.3h1.1l1.3-2.3zm8 0h1.1v-3.4h-5.7v3.4h1.1l1.1 2.3h1.1l1.3-2.3zm8 0h1.1v-3.4h-5.7v3.4h1.1l1.1 2.3h1.1l1.3-2.3zm8.1 0h1.1v-3.4h-5.7v3.4h1.1l1.1 2.3h1.1l1.3-2.3zm8 0h1.1v-3.4h-5.7v3.4h1.1l1.1 2.3h1.1l1.3-2.3zm8.1 0h1.1v-3.4h-5.7v3.4h1.1l1.1 2.3h1.1l1.3-2.3zm8 0h1.1v-3.4h-5.7v3.4h1.1l1.1 2.3h1.1l1.3-2.3zm8 0h1.1v-3.4h-5.7v3.4h1.1l1.1 2.3h1.1l1.3-2.3zm8.1 0h1.1v-3.4h-5.7v3.4h1.1l1.1 2.3h1.1l1.3-2.3zm8 0h1.1v-3.4h-5.7v3.4h1.1l1.1 2.3h1.1l1.3-2.3zm8.1 0h1.1v-3.4H649v3.4h1.1l1.1 2.3h1.1l1.3-2.3zm8 0h1.1v-3.4H657v3.4h1.1l1.1 2.3h1.1l1.3-2.3zm8 0h1.1v-3.4H665v3.4h1.1l1.1 2.3h1.1l1.3-2.3zm8.1 0h1.1v-3.4h-5.7v3.4h1.1l1.1 2.3h1.1l1.3-2.3zm8 0h1.1v-3.4h-5.7v3.4h1.1l1.1 2.3h1.1l1.3-2.3zm8 0h1.1v-3.4h-5.7v3.4h1.1l1.1 2.3h1.1l1.3-2.3zm8.1 0h1.1v-3.4h-5.7v3.4h1.1l1.1 2.3h1.1l1.3-2.3zm8 0h1.1v-3.4h-5.7v3.4h1.1l1.1 2.3h1.1l1.3-2.3zm8.1 0h1.1v-3.4h-5.7v3.4h1.1l1.1 2.3h1.1l1.3-2.3zm8 0h1.1v-3.4h-5.7v3.4h1.1l1.1 2.3h1.1l1.3-2.3zm9.2 0v-3.4h-5.7v3.4h1.1l1.1 2.3h1.1l1.1-2.3h1.3z"/><circle class="st1" cx="514" cy="292.3" r="2.9"/><circle class="st1" cx="514" cy="309.5" r="2.9"/><circle class="st1" cx="757.5" cy="292.3" r="2.9"/><circle class="st1" cx="757.5" cy="309.5" r="2.9"/><path class="st3" d="M503.7 493.8h264.1v41.3H503.7v-41.3z"/><circle class="st1" cx="514" cy="499" r="2.9"/><circle class="st1" cx="514" cy="530" r="2.9"/><circle class="st1" cx="757.5" cy="499" r="2.9"/><circle class="st1" cx="757.5" cy="530" r="2.9"/><path class="st4" d="M524.9 511.1h221.6v9.2H524.9v-9.2z"/><path class="st2" d="M711.5 528.3h-18.4c-2.5 0-4.6-2.1-4.6-4.6v-18.4c0-2.5 2.1-4.6 4.6-4.6h18.4c2.5 0 4.6 2.1 4.6 4.6v18.4c0 2.5-2 4.6-4.6 4.6z"/><path class="st3" d="M503.7 542.1h264.1v41.3H503.7v-41.3z"/><circle class="st1" cx="514" cy="547.2" r="2.9"/><circle class="st1" cx="514" cy="578.3" r="2.9"/><circle class="st1" cx="757.5" cy="547.2" r="2.9"/><circle class="st1" cx="757.5" cy="578.3" r="2.9"/><path class="st4" d="M524.9 559.3h221.6v9.2H524.9v-9.2z"/><path class="st2" d="M711.5 576.5h-18.4c-2.5 0-4.6-2.1-4.6-4.6v-18.4c0-2.5 2.1-4.6 4.6-4.6h18.4c2.5 0 4.6 2.1 4.6 4.6v18.4c0 2.6-2 4.6-4.6 4.6z"/><path class="st3" d="M503.7 590.3h264.1v41.3H503.7v-41.3z"/><circle class="st1" cx="514" cy="595.5" r="2.9"/><circle class="st1" cx="514" cy="626.5" r="2.9"/><circle class="st1" cx="757.5" cy="595.5" r="2.9"/><circle class="st1" cx="757.5" cy="626.5" r="2.9"/><path class="st4" d="M524.9 607.5h221.6v9.2H524.9v-9.2z"/><path class="st2" d="M711.5 624.8h-18.4c-2.5 0-4.6-2.1-4.6-4.6v-18.4c0-2.5 2.1-4.6 4.6-4.6h18.4c2.5 0 4.6 2.1 4.6 4.6v18.4c0 2.5-2 4.6-4.6 4.6z"/><path class="st3" d="M503.7 379h264.1v27.6H503.7V379z"/><circle class="st1" cx="514" cy="384.2" r="2.9"/><circle class="st1" cx="514" cy="401.4" r="2.9"/><circle class="st1" cx="757.5" cy="384.2" r="2.9"/><circle class="st1" cx="757.5" cy="401.4" r="2.9"/><circle class="st4" cx="543.3" cy="392.8" r="6.3"/><circle class="st5" cx="561.7" cy="392.8" r="6.3"/><circle class="st6" cx="606.5" cy="392.8" r="6.3"/><circle class="st6" cx="624.8" cy="392.8" r="6.3"/><path class="st3" d="M503.7 413.5h264.1V441H503.7v-27.5z"/><circle class="st1" cx="514" cy="418.6" r="2.9"/><circle class="st1" cx="514" cy="435.8" r="2.9"/><circle class="st1" cx="757.5" cy="418.6" r="2.9"/><circle class="st1" cx="757.5" cy="435.8" r="2.9"/><circle class="st4" cx="543.3" cy="427.2" r="6.3"/><circle class="st5" cx="561.7" cy="427.2" r="6.3"/><circle class="st6" cx="606.5" cy="427.2" r="6.3"/><circle class="st6" cx="624.8" cy="427.2" r="6.3"/><path class="st3" d="M503.7 447.9h264.1v27.6H503.7v-27.6z"/><circle class="st1" cx="514" cy="453.1" r="2.9"/><circle class="st1" cx="514" cy="470.3" r="2.9"/><circle class="st1" cx="757.5" cy="453.1" r="2.9"/><circle class="st1" cx="757.5" cy="470.3" r="2.9"/><circle class="st2" cx="543.3" cy="461.7" r="6.3"/><circle class="st2" cx="561.7" cy="461.7" r="6.3"/><circle class="st2" cx="606.5" cy="461.7" r="6.3"/><circle class="st2" cx="624.8" cy="461.7" r="6.3"/><path class="st3" d="M503.7 172.3h264.1v27.6H503.7v-27.6z"/><circle class="st1" cx="514" cy="177.4" r="2.9"/><circle class="st1" cx="514" cy="194.7" r="2.9"/><circle class="st1" cx="757.5" cy="177.4" r="2.9"/><circle class="st1" cx="757.5" cy="194.7" r="2.9"/><path class="st2" d="M581.5 179.5c-1.7-1.7-4-2.6-6.5-2.6s-4.7.9-6.5 2.6c-1.7 1.7-2.6 4-2.6 6.5s.9 4.7 2.6 6.5c1.7 1.7 4 2.6 6.5 2.6s4.7-.9 6.5-2.6c1.8-1.7 2.6-4 2.6-6.5s-.8-4.6-2.6-6.5z"/><path class="st3" d="M573 184.1c-.5.5-1.3.5-1.7 0-.5-.5-.5-1.3 0-1.7.5-.5 1.3-.5 1.7 0 .5.4.5 1.3 0 1.7zm5.7 3.9c-.5-.5-1.3-.5-1.7 0-.5.5-.5 1.3 0 1.7.5.5 1.3.5 1.7 0 .4-.4.4-1.2 0-1.7z"/><path class="st2" d="M604.5 179.5c-1.7-1.7-4-2.6-6.5-2.6s-4.7.9-6.5 2.6c-1.7 1.7-2.6 4-2.6 6.5s.9 4.7 2.6 6.5c1.7 1.7 4 2.6 6.5 2.6s4.7-.9 6.5-2.6c1.8-1.7 2.6-4 2.6-6.5s-.9-4.6-2.6-6.5z"/><path class="st3" d="M596 184.1c-.5.5-1.3.5-1.7 0-.5-.5-.5-1.3 0-1.7.5-.5 1.3-.5 1.7 0 .5.4.5 1.3 0 1.7zm5.6 3.9c-.5-.5-1.3-.5-1.7 0-.5.5-.5 1.3 0 1.7.5.5 1.3.5 1.7 0 .5-.4.5-1.2 0-1.7z"/><path class="st2" d="M627.5 179.5c-1.7-1.7-4-2.6-6.5-2.6s-4.7.9-6.5 2.6c-1.7 1.7-2.6 4-2.6 6.5s.9 4.7 2.6 6.5c1.7 1.7 4 2.6 6.5 2.6s4.7-.9 6.5-2.6c1.8-1.7 2.6-4 2.6-6.5s-.9-4.6-2.6-6.5z"/><path class="st3" d="M619 184.1c-.5.5-1.3.5-1.7 0-.5-.5-.5-1.3 0-1.7.5-.5 1.3-.5 1.7 0 .4.4.4 1.3 0 1.7zm5.6 3.9c-.5-.5-1.3-.5-1.7 0-.5.5-.5 1.3 0 1.7.5.5 1.3.5 1.7 0 .5-.4.5-1.2 0-1.7z"/><path class="st2" d="M650.5 179.5c-1.7-1.7-4-2.6-6.5-2.6s-4.7.9-6.5 2.6c-1.7 1.7-2.6 4-2.6 6.5s.9 4.7 2.6 6.5c1.7 1.7 4 2.6 6.5 2.6s4.7-.9 6.5-2.6c1.7-1.7 2.6-4 2.6-6.5s-.9-4.6-2.6-6.5z"/><path class="st3" d="M642 184.1c-.5.5-1.3.5-1.7 0-.5-.5-.5-1.3 0-1.7.5-.5 1.3-.5 1.7 0 .4.4.4 1.3 0 1.7zm5.6 3.9c-.5-.5-1.3-.5-1.7 0-.5.5-.5 1.3 0 1.7.5.5 1.3.5 1.7 0 .4-.4.4-1.2 0-1.7z"/><path class="st2" d="M673.4 179.5c-1.7-1.7-4-2.6-6.5-2.6s-4.7.9-6.5 2.6c-1.7 1.7-2.6 4-2.6 6.5s.9 4.7 2.6 6.5c1.7 1.7 4 2.6 6.5 2.6s4.7-.9 6.5-2.6c1.7-1.7 2.6-4 2.6-6.5s-.9-4.6-2.6-6.5z"/><path class="st3" d="M664.9 184.1c-.5.5-1.3.5-1.7 0-.5-.5-.5-1.3 0-1.7.5-.5 1.3-.5 1.7 0 .5.4.5 1.3 0 1.7zm5.6 3.9c-.5-.5-1.3-.5-1.7 0-.5.5-.5 1.3 0 1.7.5.5 1.3.5 1.7 0 .5-.4.5-1.2 0-1.7z"/><path class="st2" d="M696.4 179.5c-1.7-1.7-4-2.6-6.5-2.6s-4.7.9-6.5 2.6c-1.7 1.7-2.6 4-2.6 6.5s.9 4.7 2.6 6.5c1.7 1.7 4 2.6 6.5 2.6s4.7-.9 6.5-2.6c1.7-1.7 2.6-4 2.6-6.5s-.9-4.6-2.6-6.5z"/><path class="st3" d="M687.9 184.1c-.5.5-1.3.5-1.7 0-.5-.5-.5-1.3 0-1.7.5-.5 1.3-.5 1.7 0 .4.4.4 1.3 0 1.7zm5.6 3.9c-.5-.5-1.3-.5-1.7 0-.5.5-.5 1.3 0 1.7.5.5 1.3.5 1.7 0 .5-.4.5-1.2 0-1.7z"/><path class="st2" d="M719.4 179.5c-1.7-1.7-4-2.6-6.5-2.6s-4.7.9-6.5 2.6c-1.7 1.7-2.6 4-2.6 6.5s.9 4.7 2.6 6.5c1.7 1.7 4 2.6 6.5 2.6s4.7-.9 6.5-2.6c1.7-1.7 2.6-4 2.6-6.5s-.9-4.6-2.6-6.5z"/><path class="st3" d="M710.9 184.1c-.5.5-1.3.5-1.7 0-.5-.5-.5-1.3 0-1.7.5-.5 1.3-.5 1.7 0 .4.4.4 1.3 0 1.7zm5.6 3.9c-.5-.5-1.3-.5-1.7 0-.5.5-.5 1.3 0 1.7.5.5 1.3.5 1.7 0 .4-.4.4-1.2 0-1.7z"/><path class="st2" d="M742.3 179.5c-1.7-1.7-4-2.6-6.5-2.6s-4.7.9-6.5 2.6c-1.7 1.7-2.6 4-2.6 6.5s.9 4.7 2.6 6.5c1.7 1.7 4 2.6 6.5 2.6s4.7-.9 6.5-2.6c1.7-1.7 2.6-4 2.6-6.5s-.9-4.6-2.6-6.5z"/><path class="st3" d="M733.8 184.1c-.5.5-1.3.5-1.7 0-.5-.5-.5-1.3 0-1.7.5-.5 1.3-.5 1.7 0 .5.4.5 1.3 0 1.7zm5.7 3.9c-.5-.5-1.3-.5-1.7 0-.5.5-.5 1.3 0 1.7.5.5 1.3.5 1.7 0 .4-.4.4-1.2 0-1.7z"/><path class="st4" d="M548.5 193h-5.7c-1.3 0-2.3-1-2.3-2.3v-9.2c0-1.3 1-2.3 2.3-2.3h5.7c1.3 0 2.3 1 2.3 2.3v9.2c0 1.2-1.1 2.3-2.3 2.3z"/><path class="st3" d="M503.7 333.1h264.1v27.6H503.7v-27.6z"/><circle class="st1" cx="514" cy="338.2" r="2.9"/><circle class="st1" cx="514" cy="355.5" r="2.9"/><circle class="st1" cx="757.5" cy="338.2" r="2.9"/><circle class="st1" cx="757.5" cy="355.5" r="2.9"/><path class="st2" d="M581.5 340.3c-1.7-1.7-4-2.6-6.5-2.6s-4.7.9-6.5 2.6c-1.7 1.7-2.6 4-2.6 6.5s.9 4.7 2.6 6.5c1.7 1.7 4 2.6 6.5 2.6s4.7-.9 6.5-2.6c1.7-1.7 2.6-4 2.6-6.5s-.8-4.7-2.6-6.5z"/><path class="st3" d="M573 344.9c-.5.5-1.3.5-1.7 0-.5-.5-.5-1.3 0-1.7.5-.5 1.3-.5 1.7 0 .5.4.5 1.2 0 1.7zm5.7 3.9c-.5-.5-1.3-.5-1.7 0-.5.5-.5 1.3 0 1.7.5.5 1.3.5 1.7 0 .4-.4.4-1.2 0-1.7z"/><path class="st2" d="M604.5 340.3c-1.7-1.7-4-2.6-6.5-2.6s-4.7.9-6.5 2.6c-1.7 1.7-2.6 4-2.6 6.5s.9 4.7 2.6 6.5c1.7 1.7 4 2.6 6.5 2.6s4.7-.9 6.5-2.6c1.7-1.7 2.6-4 2.6-6.5s-.9-4.7-2.6-6.5z"/><path class="st3" d="M596 344.9c-.5.5-1.3.5-1.7 0-.5-.5-.5-1.3 0-1.7.5-.5 1.3-.5 1.7 0 .5.4.5 1.2 0 1.7zm5.6 3.9c-.5-.5-1.3-.5-1.7 0-.5.5-.5 1.3 0 1.7.5.5 1.3.5 1.7 0 .5-.4.5-1.2 0-1.7z"/><path class="st2" d="M627.5 340.3c-1.7-1.7-4-2.6-6.5-2.6s-4.7.9-6.5 2.6c-1.7 1.7-2.6 4-2.6 6.5s.9 4.7 2.6 6.5c1.7 1.7 4 2.6 6.5 2.6s4.7-.9 6.5-2.6c1.7-1.7 2.6-4 2.6-6.5s-.9-4.7-2.6-6.5z"/><path class="st3" d="M619 344.9c-.5.5-1.3.5-1.7 0-.5-.5-.5-1.3 0-1.7.5-.5 1.3-.5 1.7 0 .4.4.4 1.2 0 1.7zm5.6 3.9c-.5-.5-1.3-.5-1.7 0-.5.5-.5 1.3 0 1.7.5.5 1.3.5 1.7 0 .5-.4.5-1.2 0-1.7z"/><path class="st2" d="M650.5 340.3c-1.7-1.7-4-2.6-6.5-2.6s-4.7.9-6.5 2.6c-1.7 1.7-2.6 4-2.6 6.5s.9 4.7 2.6 6.5c1.7 1.7 4 2.6 6.5 2.6s4.7-.9 6.5-2.6c1.7-1.7 2.6-4 2.6-6.5s-.9-4.7-2.6-6.5z"/><path class="st3" d="M642 344.9c-.5.5-1.3.5-1.7 0-.5-.5-.5-1.3 0-1.7.5-.5 1.3-.5 1.7 0 .4.4.4 1.2 0 1.7zm5.6 3.9c-.5-.5-1.3-.5-1.7 0-.5.5-.5 1.3 0 1.7.5.5 1.3.5 1.7 0 .4-.4.4-1.2 0-1.7z"/><path class="st2" d="M673.4 340.3c-1.7-1.7-4-2.6-6.5-2.6s-4.7.9-6.5 2.6c-1.7 1.7-2.6 4-2.6 6.5s.9 4.7 2.6 6.5c1.7 1.7 4 2.6 6.5 2.6s4.7-.9 6.5-2.6c1.7-1.7 2.6-4 2.6-6.5s-.9-4.7-2.6-6.5z"/><path class="st3" d="M664.9 344.9c-.5.5-1.3.5-1.7 0-.5-.5-.5-1.3 0-1.7.5-.5 1.3-.5 1.7 0 .5.4.5 1.2 0 1.7zm5.6 3.9c-.5-.5-1.3-.5-1.7 0-.5.5-.5 1.3 0 1.7.5.5 1.3.5 1.7 0 .5-.4.5-1.2 0-1.7z"/><path class="st2" d="M696.4 340.3c-1.7-1.7-4-2.6-6.5-2.6s-4.7.9-6.5 2.6c-1.7 1.7-2.6 4-2.6 6.5s.9 4.7 2.6 6.5c1.7 1.7 4 2.6 6.5 2.6s4.7-.9 6.5-2.6c1.7-1.7 2.6-4 2.6-6.5s-.9-4.7-2.6-6.5z"/><path class="st3" d="M687.9 344.9c-.5.5-1.3.5-1.7 0-.5-.5-.5-1.3 0-1.7.5-.5 1.3-.5 1.7 0 .4.4.4 1.2 0 1.7zm5.6 3.9c-.5-.5-1.3-.5-1.7 0-.5.5-.5 1.3 0 1.7.5.5 1.3.5 1.7 0 .5-.4.5-1.2 0-1.7z"/><path class="st2" d="M719.4 340.3c-1.7-1.7-4-2.6-6.5-2.6s-4.7.9-6.5 2.6c-1.7 1.7-2.6 4-2.6 6.5s.9 4.7 2.6 6.5c1.7 1.7 4 2.6 6.5 2.6s4.7-.9 6.5-2.6c1.7-1.7 2.6-4 2.6-6.5s-.9-4.7-2.6-6.5z"/><path class="st3" d="M710.9 344.9c-.5.5-1.3.5-1.7 0-.5-.5-.5-1.3 0-1.7.5-.5 1.3-.5 1.7 0 .4.4.4 1.2 0 1.7zm5.6 3.9c-.5-.5-1.3-.5-1.7 0-.5.5-.5 1.3 0 1.7.5.5 1.3.5 1.7 0 .4-.4.4-1.2 0-1.7z"/><path class="st2" d="M742.3 340.3c-1.7-1.7-4-2.6-6.5-2.6s-4.7.9-6.5 2.6c-1.7 1.7-2.6 4-2.6 6.5s.9 4.7 2.6 6.5c1.7 1.7 4 2.6 6.5 2.6s4.7-.9 6.5-2.6c1.7-1.7 2.6-4 2.6-6.5s-.9-4.7-2.6-6.5z"/><path class="st3" d="M733.8 344.9c-.5.5-1.3.5-1.7 0-.5-.5-.5-1.3 0-1.7.5-.5 1.3-.5 1.7 0 .5.4.5 1.2 0 1.7zm5.7 3.9c-.5-.5-1.3-.5-1.7 0-.5.5-.5 1.3 0 1.7.5.5 1.3.5 1.7 0 .4-.4.4-1.2 0-1.7z"/><path class="st4" d="M548.5 353.7h-5.7c-1.3 0-2.3-1-2.3-2.3v-9.2c0-1.3 1-2.3 2.3-2.3h5.7c1.3 0 2.3 1 2.3 2.3v9.2c0 1.3-1.1 2.3-2.3 2.3z"/><path class="st2" d="M503.7 126.3h264.1v27.6H503.7v-27.6z"/><path class="st1" d="M652.4 133.2h-1.1l-1.1 2.3H649v3.4h5.7v-3.4h-1.1l-1.2-2.3zm8 0h-1.1l-1.1 2.3H657v3.4h5.7v-3.4h-1.1l-1.2-2.3zm8.1 0h-1.1l-1.1 2.3H665v3.4h5.7v-3.4h-1.1l-1.1-2.3zm8 0h-1.1l-1.1 2.3h-1.1v3.4h5.7v-3.4h-1.1l-1.3-2.3zm8.1 0h-1.1l-1.1 2.3h-1.1v3.4h5.7v-3.4h-1.1l-1.3-2.3zm8 0h-1.1l-1.1 2.3h-1.1v3.4h5.7v-3.4h-1.1l-1.3-2.3zm8 0h-1.1l-1.1 2.3h-1.1v3.4h5.7v-3.4h-1.1l-1.3-2.3zm8.1 0h-1.1l-1.1 2.3h-1.1v3.4h5.7v-3.4H710l-1.3-2.3zm8 0h-1.1l-1.1 2.3h-1.1v3.4h5.7v-3.4H718l-1.3-2.3zm8.1 0h-1.1l-1.1 2.3h-1.1v3.4h5.7v-3.4h-1.1l-1.3-2.3zm9.1 2.3-1.1-2.3h-1.1l-1.1 2.3h-1.1v3.4h5.7v-3.4h-1.3zm-80.3 10.4h1.1v-3.4H649v3.4h1.1l1.1 2.3h1.1l1.3-2.3zm8 0h1.1v-3.4H657v3.4h1.1l1.1 2.3h1.1l1.3-2.3zm8 0h1.1v-3.4H665v3.4h1.1l1.1 2.3h1.1l1.3-2.3zm8.1 0h1.1v-3.4h-5.7v3.4h1.1l1.1 2.3h1.1l1.3-2.3zm8 0h1.1v-3.4h-5.7v3.4h1.1l1.1 2.3h1.1l1.3-2.3zm8 0h1.1v-3.4h-5.7v3.4h1.1l1.1 2.3h1.1l1.3-2.3zm8.1 0h1.1v-3.4h-5.7v3.4h1.1l1.1 2.3h1.1l1.3-2.3zm8 0h1.1v-3.4h-5.7v3.4h1.1l1.1 2.3h1.1l1.3-2.3zm8.1 0h1.1v-3.4h-5.7v3.4h1.1l1.1 2.3h1.1l1.3-2.3zm8 0h1.1v-3.4h-5.7v3.4h1.1l1.1 2.3h1.1l1.3-2.3zm9.2 0v-3.4h-5.7v3.4h1.1l1.1 2.3h1.1l1.1-2.3h1.3z"/><circle class="st1" cx="514" cy="131.5" r="2.9"/><circle class="st1" cx="514" cy="148.7" r="2.9"/><circle class="st1" cx="757.5" cy="131.5" r="2.9"/><circle class="st1" cx="757.5" cy="148.7" r="2.9"/><path d="M656 354.4v251.3c0 2.4 1.9 4.2 4.2 4.2h159.3V350.2H660.2c-2.3 0-4.2 1.9-4.2 4.2z" opacity=".15"/><path class="st1" d="M873.9 599.5h37.2v58.4h-37.2v-58.4z"/><path class="st1" d="M1020.5 656.4c-.7-.7-1.9-1.2-2.9-1.2H767.3c-.9 0-2.2.5-2.9 1.2L749 671.8c-.7.7-.4 1.2.5 1.2h285.8c.9 0 1.2-.5.5-1.2l-15.3-15.4z"/><path d="M900.1 603.7c0 .9-.8 1.7-1.7 1.7h-11.8c-.9 0-1.7-.8-1.7-1.7v-.8c0-.9.8-1.7 1.7-1.7h11.8c.9 0 1.7.8 1.7 1.7v.8z" fill="#b24b53"/><path d="M868.8 591.1c0-.9.8-1.7 1.7-1.7h44c.9 0 1.7.8 1.7 1.7v7.6c0 .9-.8 1.7-1.7 1.7h-44c-.9 0-1.7-.8-1.7-1.7v-7.6z" fill="#2b353f"/><path class="st1" d="M680.2 330.2c-2.4 0-4.2 1.9-4.2 4.2v251.3c0 2.4 1.9 4.2 4.2 4.2h424.5c2.4 0 4.2-1.9 4.2-4.2V334.4c0-2.4-1.9-4.2-4.2-4.2H680.2z"/><path d="M1090.1 565.8c0 2.4-1.9 4.2-4.2 4.2H699.2c-2.4 0-4.2-1.9-4.2-4.2V352.1c0-2.4 1.9-4.2 4.2-4.2h386.7c2.4 0 4.2 1.9 4.2 4.2v213.7z" fill="#667e8e"/><path d="m1019.6 347.9-268.9 222h148.5l158.7-222h-38.3z" fill="#647b8b"/><path d="M700.4 347.9c-3 0-5.6 2.5-5.6 5.6v210.9c0 3 2.5 5.6 5.6 5.6h50.2l268.9-222-319.1-.1z" fill="#607786"/><path d="M1318.5 336.1c-65.4 0-118.5 53.1-118.5 118.5h237c.1-65.5-53-118.5-118.5-118.5z" fill="#7cb342"/><path d="M1318.5 454.6H1200c0 65.4 53.1 118.5 118.5 118.5S1437 520 1437 454.6h-118.5z" fill="#8bc34a"/><path d="M1413.5 578.7c-.1-1.1-.4-2-1-3l-34.5-59.8-11.4-19.9-21.3-36.8-16.3 16.3 20 34.8 11 19.1 33.3 57.5c.5 1 1.3 1.7 2.2 2.3l16.6 11.3c.6.4 1.4.4 2 .1.6-.4 1-1.1 1-1.8l-1.6-20.1z" fill="#e1e1e1"/><path d="M1382 454.6c0 15.7-5.8 30.2-15.4 41.4-5 5.7-10.8 10.6-17.5 14.2-9 5.1-19.5 7.9-30.6 7.9-11.1 0-21.5-2.9-30.5-7.9l20-34.8-16.3-16.3-67.3 116.6c-.5 1-.9 1.9-1 3l-1.5 20c-.1.8.3 1.4 1 1.8.6.4 1.4.3 2-.1l16.6-11.2c.9-.6 1.6-1.4 2.2-2.3l33.3-57.6c12.3 6.9 26.5 10.9 41.6 10.9 15.1 0 29.3-4 41.6-10.9 6.6-3.7 12.6-8.2 17.9-13.4 15.9-15.5 26-37.3 26-61.3H1382z" fill="#f1f1f1"/><path d="M1339.2 410.6h-6.9v-22.2h-27.5v22.2h-7c-6.8 0-12.4 5.6-12.4 12.4v28.1h.1c-.1 1.1.5 2.3 1.9 3.7l24.9 24.9c1.7 1.7 4 2.6 6.1 2.6v-.1l.1.1c2.3 0 4.5-.9 6.1-2.6l24.9-24.9c1.4-1.4 1.9-2.7 1.9-3.7h.1v-28c.1-6.9-5.4-12.5-12.3-12.5zm-20.6 44h-.1c-9 0-16.5-7.4-16.5-16.6 0-9.2 7.4-16.6 16.5-16.6v-.2l.1.2c9 .1 16.5 7.4 16.5 16.6 0 9.2-7.4 16.5-16.5 16.6z" fill="#646464"/><path d="M1318.6 131.5h-5.6v15.1h-10.3v-42.7h16.8c5.1 0 9 1.1 11.9 3.4 2.9 2.2 4.3 5.4 4.3 9.5 0 3-.6 5.4-1.8 7.4s-3.1 3.5-5.6 4.7l8.9 17.2v.4h-11l-7.6-15zm-5.6-7.9h6.5c2 0 3.4-.5 4.4-1.5 1-1 1.5-2.5 1.5-4.3 0-1.8-.5-3.3-1.5-4.3s-2.5-1.6-4.4-1.6h-6.5v11.7zm43.8 23.6c-4.9 0-8.8-1.5-11.8-4.4s-4.5-6.7-4.5-11.3v-.8c0-3.2.6-6.1 1.8-8.6 1.2-2.5 3-4.4 5.3-5.8 2.3-1.4 5-2 8.2-2 4.5 0 8 1.4 10.5 4.1 2.6 2.8 3.9 6.6 3.9 11.6v3.8h-19.6c.4 1.8 1.1 3.2 2.3 4.2 1.2 1 2.7 1.5 4.6 1.5 3.1 0 5.6-1.1 7.3-3.3l4.5 5.3c-1.2 1.7-3 3.1-5.2 4.1s-4.7 1.6-7.3 1.6zm-1.1-25.3c-2.9 0-4.6 1.9-5.2 5.7h10v-.8c0-1.6-.4-2.8-1.2-3.7-.9-.7-2.1-1.2-3.6-1.2zm29.9-14.9v7.9h5.2v6.9h-5.2v14.5c0 1.2.2 2 .6 2.5s1.3.7 2.5.7c1 0 1.8-.1 2.5-.2v7.1c-1.8.6-3.6.8-5.6.8-3.4 0-5.9-.8-7.5-2.4-1.6-1.6-2.4-4-2.4-7.3v-15.7h-4v-6.9h4V107h9.9zm28.3 16.8-3.3-.2c-3.1 0-5.1 1-6 2.9v20.1h-9.9v-31.7h9.3l.3 4.1c1.7-3.1 4-4.7 6.9-4.7 1.1 0 2 .1 2.8.4l-.1 9.1zm1.2 6.7c0-3.2.6-6 1.8-8.5 1.2-2.5 3-4.4 5.3-5.7 2.3-1.3 5-2 8.1-2 4.7 0 8.5 1.5 11.2 4.4 2.7 2.9 4.1 6.9 4.1 12v.4c0 4.9-1.4 8.9-4.1 11.8s-6.5 4.4-11.1 4.4c-4.5 0-8.1-1.4-10.9-4.1-2.7-2.7-4.2-6.4-4.4-11v-1.7zm9.9.6c0 2.9.5 5.1 1.4 6.4.9 1.4 2.3 2.1 4.1 2.1 3.5 0 5.3-2.7 5.4-8.1v-1c0-5.7-1.8-8.5-5.4-8.5-3.3 0-5.1 2.5-5.4 7.4l-.1 1.7zm27.3 15.5v-24.8h-4.6v-6.9h4.6v-2.5c0-3.6 1.1-6.4 3.2-8.4s5.1-3 9-3c1.4 0 2.9.2 4.6.6v7.3c-.6-.2-1.4-.3-2.4-.3-3 0-4.5 1.3-4.5 3.9v2.4h6.2v6.9h-6.2v24.8h-9.9zm19.4-39.9c0-1.4.5-2.6 1.5-3.5 1-.9 2.3-1.3 4-1.3s2.9.4 4 1.3c1 .9 1.5 2.1 1.5 3.5s-.5 2.6-1.5 3.5c-1 .9-2.3 1.3-4 1.3s-2.9-.4-4-1.3c-1-.9-1.5-2.1-1.5-3.5zm10.5 39.9h-9.9v-31.7h9.9v31.7zm17.6-39.6v7.9h5.2v6.9h-5.2v14.5c0 1.2.2 2 .6 2.5s1.3.7 2.5.7c1 0 1.8-.1 2.5-.2v7.1c-1.8.6-3.6.8-5.6.8-3.4 0-5.9-.8-7.5-2.4-1.6-1.6-2.4-4-2.4-7.3v-15.7h-4v-6.9h4V107h9.9zm-162.1 145.4v18h-10.5v-51.2h20c3.8 0 7.2.7 10.1 2.1s5.2 3.4 6.7 6c1.6 2.6 2.4 5.5 2.4 8.8 0 5-1.7 9-5.2 11.9-3.4 2.9-8.2 4.3-14.3 4.3h-9.2zm0-8.5h9.4c2.8 0 4.9-.7 6.4-2s2.2-3.2 2.2-5.6c0-2.5-.7-4.5-2.2-6.1s-3.5-2.3-6.1-2.4h-9.7v16.1zm78 2.1c0 5-.9 9.5-2.7 13.3s-4.3 6.7-7.6 8.8c-3.3 2.1-7.1 3.1-11.4 3.1-4.2 0-8-1-11.4-3.1s-5.9-5-7.7-8.7c-1.8-3.8-2.8-8.1-2.8-13.1v-2.5c0-5 .9-9.5 2.7-13.3s4.4-6.8 7.7-8.8c3.3-2.1 7.1-3.1 11.4-3.1s8.1 1 11.4 3.1c3.3 2.1 5.9 5 7.7 8.8s2.7 8.3 2.7 13.3v2.2zm-10.7-2.3c0-5.4-1-9.4-2.9-12.2-1.9-2.8-4.7-4.2-8.2-4.2-3.5 0-6.3 1.4-8.2 4.1-1.9 2.8-2.9 6.8-2.9 12.1v2.5c0 5.2 1 9.3 2.9 12.2s4.7 4.3 8.3 4.3c3.5 0 6.3-1.4 8.2-4.2s2.9-6.8 2.9-12.1v-2.5zm44.9 13.3c0-2-.7-3.5-2.1-4.6-1.4-1.1-3.9-2.2-7.6-3.4-3.7-1.2-6.6-2.3-8.7-3.5-5.8-3.1-8.7-7.4-8.7-12.7 0-2.8.8-5.2 2.3-7.4 1.6-2.2 3.8-3.9 6.7-5.1 2.9-1.2 6.2-1.8 9.8-1.8 3.7 0 6.9.7 9.8 2 2.9 1.3 5.1 3.2 6.7 5.6 1.6 2.4 2.4 5.2 2.4 8.2H1450c0-2.3-.7-4.2-2.2-5.5s-3.6-2-6.2-2-4.6.5-6 1.6-2.1 2.5-2.1 4.3c0 1.7.8 3.1 2.5 4.2s4.1 2.2 7.4 3.2c6 1.8 10.4 4 13.1 6.7s4.1 6 4.1 10c0 4.4-1.7 7.9-5 10.4-3.4 2.5-7.9 3.8-13.5 3.8-3.9 0-7.5-.7-10.8-2.2s-5.7-3.4-7.4-5.9c-1.7-2.5-2.5-5.4-2.5-8.7h10.6c0 5.6 3.4 8.5 10.1 8.5 2.5 0 4.5-.5 5.9-1.5s1.9-2.4 1.9-4.2zm56.2-29.2h-15.7v42.6h-10.5v-42.6h-15.5v-8.5h41.7v8.5z" fill="#fff"/></svg>