<svg xmlns="http://www.w3.org/2000/svg" viewBox="0 0 1920 673" xml:space="preserve"><path fill="#d2a41f" d="M0 0h1920v673H0z"/><path d="M692.9 427.8c9.3 11.5 19.6 23.1 31 34.8-33.1 10-54.8 28.4-68.3 44.8-21.4 25.8-32.7 60-30.1 89.3h-57c11.4-24.9 57-96.6 124.4-168.9zm660.2 184.3h-69.3c-159-83-298.5-141.4-446.8-154.2.3-20.6 4-44 11.1-70l-13.7-3.7c-7.3 26.7-11.1 51-11.5 72.6-15.4-1-31-1.5-46.7-1.5-13.3 0-25.4 1.2-36.5 3.4-14.4-14.4-26.7-28.1-37.1-41.2 68.4-71.2 181-135.6 279-159.9 27.6 91.7 86.8 154.6 158.7 196.9 5.3-3 10.5-6.2 15.5-9.5l125.4 135 5.5-.5c34.3-2.9 53.7 15.6 58.9 21.4 4 4.3 6.2 8.2 7.5 11.2z" fill="#d1a41a"/><path d="M1291.9 160.4c2.5 124.6-61 223.8-150 274.7-151.1-75.3-179.5-266-153.8-368.3 7.2 39.1 20.2 63.6 48.3 75.7 61.3-17.6 145.8-18.9 208-1.8 25.9-18.8 36-47.6 41.4-72.8 6.8 29.3 6.1 92.5 6.1 92.5z" fill="#ffdc76"/><path d="m911.9 278.4 23 68.3-70-46.9zm-67.5 29.9 24.8 42.7-52.1-26.5zm-56.3 33.3 11.9 42.7-35.9-24.8zM1169.7 456l-22.2 34.2 39.3-17.9zm35 39.3-35.8 27.3 49.5-12.8zm-87.1-370.6 26.5 58.1 17.1-58.9zm-134 84.6 41.8 22.2-37.6 2.5zm10.2 45.2 25.6 10.3-21.3 5.9zm298.9-29-34.2 14.5 28.2 4.3zm-13.7 41.8-26.5 7.7 21.4 7.7z"/><path d="M969.8 331.4h82.4v10.2h-82.4zm0-24.4h82.4v10.2h-82.4zm251.6 24.4h82.4v10.2h-82.4zm0-24.4h82.4v10.2h-82.4zm-29-60.3h-134.3v-9.2h41.8c5.1-22 6.2-43.1 0-53.8-2.6-4.5-6.3-6.7-11.5-6.7-23.9 0-33.8 25.3-34.2 26.3l-8.6-3.2c.5-1.3 12.4-32.3 42.7-32.3 8.5 0 15.2 3.9 19.4 11.2 7.6 13 6.7 35.5 1.6 58.4h73.3c9.7-28.6 30.1-42.1 64.1-42.1v9.2c-36.8 0-47.2 15.6-54.5 33h40l-.1 9.1-39.7.1z"/><path d="M1198.4 291.9c-10.8-16-14.2-29.7-9.7-45.3h-9.3c-3.3 10.4-1.9 26 6.1 39.4h-93.2c5.7-11.4 10.9-25.2 14.8-39.4h-9.5c-4.2 15-10.2 29.9-16.9 41.7l-2.2 3.8 52.3 32.9-29.4 19.4 5 7.6 32.9-21.7 35.5 23.2 4.9-7.7-32.9-20.4c0 .1 49.2-31.9 51.6-33.5zm-59.2 27.7-38.7-24.3h75.6l-36.9 24.3z"/><path d="M1307.3 149.4c-.1-15.9-5-83.2-14.1-101.7-24.7 9.4-69.7 39.8-79.8 70.9-48.8-7.3-103.7-6.4-151.9 1.9-8-33.5-48.4-59.1-78.9-73.5-12.9 21.7-18.5 72-17.1 107.6-.1 0-.1.1-.2.1 5.7 149.8 79.1 243 175.2 299.5 98.8-56.5 169.5-166.6 166.7-304.9 0 .1 0 .1.1.1zm-82.3-28.9c.4.1.7.1 1.1.2-.4 0-.7-.1-1.1-.2zm-6.1-1c.9.1 1.7.3 2.6.4-.9-.1-1.8-.3-2.6-.4zm73 40.7c2.5 124.6-61 223.8-150 274.7-151.1-75.3-179.5-266-153.8-368.3 7.2 39.1 20.2 63.6 48.3 75.7 61.3-17.6 145.8-18.9 207.9-1.8 25.9-18.8 36-47.6 41.5-72.8 6.8 29.3 6.1 92.5 6.1 92.5z"/><path d="M1356.3 591.3c-15.5-17.4-45.9-25.6-71.3-25-18-21.4-122.5-131.4-122.5-131.4l-7.2 9.1 126.1 135.8 5.5-.5c34.3-2.9 53.7 15.6 58.9 21.4 3.8 4.2 6.1 8.1 7.3 11.1h-69.3c-159-82.9-298.5-141.4-446.8-154.1.3-20.6 4-44 11-70l-13.6-3.7c-7.2 26.8-11.1 51-11.5 72.6-15.4-1-31-1.6-46.7-1.6-13.3 0-25.4 1.2-36.5 3.4-14.4-14.4-26.7-28.1-37.1-41.2 68.9-71.7 182.6-136.6 281.1-160.4l-3.2-13.8c-106.1 25.6-222.2 95.2-286.9 162.5-30-40.5-41.9-73.8-45.5-99-4.5-31.8 3.1-61 22-84.5 29.5-36.7 71.4-39.2 114.5-32-.8 6.8.1 13.3 2.8 17.3 11.4 16.8 72.7 22.8 109.2 6.4-27-37.8-81.7-56.3-96.8-48.9-5 2.4-8.8 7-11.4 12.2-14.9-2.7-29.7-4.6-40.5-4.6-38 .3-67.1 13.6-88.8 40.6-21.4 26.5-30 59.5-25 95.3 4.8 33.9 21.5 70 49.7 107.4-4.7 5-9.2 10-13.5 14.8-68.6 76.7-118.7 159-118.7 172.7v7.1h90.5l-1.6-8.4c-5.1-27 5.1-60.8 26-86 13.1-15.8 34.8-33.9 69-42.3 30.3 29.6 69 61.1 112 91.4h67.2v-7.1c0-8-4-15-11.1-19.6-10.6-6.9-27-7.9-42.1-2.8-14.4-16-22.4-37.4-24.1-63.9 145.9 12.9 285.5 71.8 443 154.1h86.6l1.1-5.7c1.6-7.8-2.8-18.6-11.8-28.7zm-700.7-84.2c-21.4 25.8-32.7 59.9-30.1 89.2h-57c11.5-24.8 57.1-96.4 124.5-168.8 9.3 11.5 19.6 23.1 31 34.8-33.2 10-54.9 28.5-68.4 44.8z"/></svg>