<svg xmlns="http://www.w3.org/2000/svg" viewBox="0 0 1920 673" xml:space="preserve"><style>.st1{fill:#36434f}.st2{fill:#999}.st3{fill:#122a3a}.st4{fill:#cc584c}.st5{fill:#4caf50}.st6{fill:#eec646}</style><path fill="#54879f" d="M0 0h1920v673H0z"/><path class="st1" d="M810.3 673H461.2c-5.1 0-9.2-4.1-9.2-9.2V94.2c0-5.1 4.1-9.2 9.2-9.2h349.1c5.1 0 9.2 4.1 9.2 9.2v569.6c0 5.1-4.1 9.2-9.2 9.2z"/><path class="st2" d="M503.7 218.2h264.1v27.6H503.7v-27.6z"/><path class="st1" d="M541 227.4h1.1v3.4h-5.7v-3.4h1.1l1.1-2.3h1.1l1.3 2.3zm6.9-2.3h-1.1l-1.1 2.3h-1.1v3.4h5.7v-3.4H549l-1.1-2.3zm8 0h-1.1l-1.1 2.3h-1.1v3.4h5.7v-3.4h-1.1l-1.3-2.3zm8.1 0h-1.1l-1.1 2.3h-1.1v3.4h5.7v-3.4h-1.1l-1.3-2.3zm8 0h-1.1l-1.1 2.3h-1.1v3.4h5.7v-3.4h-1.1l-1.3-2.3zm8.1 0H579l-1.1 2.3h-1.1v3.4h5.7v-3.4h-1.1l-1.3-2.3zm8 0H587l-1.1 2.3h-1.1v3.4h5.7v-3.4h-1.1l-1.3-2.3zm8 0H595l-1.1 2.3h-1.1v3.4h5.7v-3.4h-1.1l-1.3-2.3zm8.1 0H603l-1.1 2.3h-1.1v3.4h5.7v-3.4h-1.1l-1.2-2.3zm8 0h-1.1l-1.1 2.3h-1.1v3.4h5.7v-3.4h-1.1l-1.3-2.3zm8 0h-1.1l-1.1 2.3h-1.1v3.4h5.7v-3.4h-1.1l-1.3-2.3zm8.1 0h-1.1l-1.1 2.3H625v3.4h5.7v-3.4h-1.1l-1.3-2.3zm8 0h-1.1l-1.1 2.3H633v3.4h5.7v-3.4h-1.1l-1.3-2.3zm8.1 0h-1.1l-1.1 2.3h-1.1v3.4h5.7v-3.4h-1.1l-1.3-2.3zm8 0h-1.1l-1.1 2.3H649v3.4h5.7v-3.4h-1.1l-1.2-2.3zm8 0h-1.1l-1.1 2.3H657v3.4h5.7v-3.4h-1.1l-1.2-2.3zm8.1 0h-1.1l-1.1 2.3H665v3.4h5.7v-3.4h-1.1l-1.1-2.3zm8 0h-1.1l-1.1 2.3h-1.1v3.4h5.7v-3.4h-1.1l-1.3-2.3zm8.1 0h-1.1l-1.1 2.3h-1.1v3.4h5.7v-3.4h-1.1l-1.3-2.3zm8 0h-1.1l-1.1 2.3h-1.1v3.4h5.7v-3.4h-1.1l-1.3-2.3zm8 0h-1.1l-1.1 2.3h-1.1v3.4h5.7v-3.4h-1.1l-1.3-2.3zm8.1 0h-1.1l-1.1 2.3h-1.1v3.4h5.7v-3.4H710l-1.3-2.3zm8 0h-1.1l-1.1 2.3h-1.1v3.4h5.7v-3.4H718l-1.3-2.3zm8.1 0h-1.1l-1.1 2.3h-1.1v3.4h5.7v-3.4h-1.1l-1.3-2.3zm9.1 2.3-1.1-2.3h-1.1l-1.1 2.3h-1.1v3.4h5.7v-3.4h-1.3zm-194 12.6h-1.1l-1.1-2.3h-1.1v-3.4h5.7v3.4H541l-1.1 2.3zm9.1-2.3h1.1v-3.4h-5.7v3.4h1.1l1.1 2.3h1.1l1.3-2.3zm8.1 0h1.1v-3.4h-5.7v3.4h1.1l1.1 2.3h1.1l1.3-2.3zm8 0h1.1v-3.4h-5.7v3.4h1.1l1.1 2.3h1.1l1.3-2.3zm8.1 0h1.1v-3.4h-5.7v3.4h1.1l1.1 2.3h1.1l1.3-2.3zm8 0h1.1v-3.4h-5.7v3.4h1.1l1.1 2.3h1.1l1.3-2.3zm8 0h1.1v-3.4h-5.7v3.4h1.1l1.1 2.3h1.1l1.3-2.3zm8.1 0h1.1v-3.4h-5.7v3.4h1.1l1.1 2.3h1.1l1.3-2.3zm8 0h1.1v-3.4h-5.7v3.4h1.1l1.1 2.3h1.1l1.3-2.3zm8.1 0h1.1v-3.4h-5.7v3.4h1.1l1.1 2.3h1.1l1.3-2.3zm8 0h1.1v-3.4h-5.7v3.4h1.1l1.1 2.3h1.1l1.3-2.3zm8 0h1.1v-3.4h-5.7v3.4h1.1l1.1 2.3h1.1l1.3-2.3zm8.1 0h1.1v-3.4h-5.7v3.4h1.1l1.1 2.3h1.1l1.3-2.3zm8 0h1.1v-3.4h-5.7v3.4h1.1l1.1 2.3h1.1l1.3-2.3zm8.1 0h1.1v-3.4H649v3.4h1.1l1.1 2.3h1.1l1.3-2.3zm8 0h1.1v-3.4H657v3.4h1.1l1.1 2.3h1.1l1.3-2.3zm8 0h1.1v-3.4H665v3.4h1.1l1.1 2.3h1.1l1.3-2.3zm8.1 0h1.1v-3.4h-5.7v3.4h1.1l1.1 2.3h1.1l1.3-2.3zm8 0h1.1v-3.4h-5.7v3.4h1.1l1.1 2.3h1.1l1.3-2.3zm8 0h1.1v-3.4h-5.7v3.4h1.1l1.1 2.3h1.1l1.3-2.3zm8.1 0h1.1v-3.4h-5.7v3.4h1.1l1.1 2.3h1.1l1.3-2.3zm8 0h1.1v-3.4h-5.7v3.4h1.1l1.1 2.3h1.1l1.3-2.3zm8.1 0h1.1v-3.4h-5.7v3.4h1.1l1.1 2.3h1.1l1.3-2.3zm8 0h1.1v-3.4h-5.7v3.4h1.1l1.1 2.3h1.1l1.3-2.3zm9.2 0v-3.4h-5.7v3.4h1.1l1.1 2.3h1.1l1.1-2.3h1.3z"/><circle class="st1" cx="514" cy="223.4" r="2.9"/><circle class="st1" cx="514" cy="240.6" r="2.9"/><circle class="st1" cx="757.5" cy="223.4" r="2.9"/><circle class="st1" cx="757.5" cy="240.6" r="2.9"/><path class="st2" d="M503.7 252.7h264.1v27.6H503.7v-27.6z"/><path class="st1" d="M541 261.9h1.1v3.4h-5.7v-3.4h1.1l1.1-2.3h1.1l1.3 2.3zm6.9-2.3h-1.1l-1.1 2.3h-1.1v3.4h5.7v-3.4H549l-1.1-2.3zm8 0h-1.1l-1.1 2.3h-1.1v3.4h5.7v-3.4h-1.1l-1.3-2.3zm8.1 0h-1.1l-1.1 2.3h-1.1v3.4h5.7v-3.4h-1.1l-1.3-2.3zm8 0h-1.1l-1.1 2.3h-1.1v3.4h5.7v-3.4h-1.1l-1.3-2.3zm8.1 0H579l-1.1 2.3h-1.1v3.4h5.7v-3.4h-1.1l-1.3-2.3zm8 0H587l-1.1 2.3h-1.1v3.4h5.7v-3.4h-1.1l-1.3-2.3zm8 0H595l-1.1 2.3h-1.1v3.4h5.7v-3.4h-1.1l-1.3-2.3zm8.1 0H603l-1.1 2.3h-1.1v3.4h5.7v-3.4h-1.1l-1.2-2.3zm8 0h-1.1l-1.1 2.3h-1.1v3.4h5.7v-3.4h-1.1l-1.3-2.3zm8 0h-1.1l-1.1 2.3h-1.1v3.4h5.7v-3.4h-1.1l-1.3-2.3zm8.1 0h-1.1l-1.1 2.3H625v3.4h5.7v-3.4h-1.1l-1.3-2.3zm8 0h-1.1l-1.1 2.3H633v3.4h5.7v-3.4h-1.1l-1.3-2.3zm8.1 0h-1.1l-1.1 2.3h-1.1v3.4h5.7v-3.4h-1.1l-1.3-2.3zm8 0h-1.1l-1.1 2.3H649v3.4h5.7v-3.4h-1.1l-1.2-2.3zm8 0h-1.1l-1.1 2.3H657v3.4h5.7v-3.4h-1.1l-1.2-2.3zm8.1 0h-1.1l-1.1 2.3H665v3.4h5.7v-3.4h-1.1l-1.1-2.3zm8 0h-1.1l-1.1 2.3h-1.1v3.4h5.7v-3.4h-1.1l-1.3-2.3zm8.1 0h-1.1l-1.1 2.3h-1.1v3.4h5.7v-3.4h-1.1l-1.3-2.3zm8 0h-1.1l-1.1 2.3h-1.1v3.4h5.7v-3.4h-1.1l-1.3-2.3zm8 0h-1.1l-1.1 2.3h-1.1v3.4h5.7v-3.4h-1.1l-1.3-2.3zm8.1 0h-1.1l-1.1 2.3h-1.1v3.4h5.7v-3.4H710l-1.3-2.3zm8 0h-1.1l-1.1 2.3h-1.1v3.4h5.7v-3.4H718l-1.3-2.3zm8.1 0h-1.1l-1.1 2.3h-1.1v3.4h5.7v-3.4h-1.1l-1.3-2.3zm9.1 2.3-1.1-2.3h-1.1l-1.1 2.3h-1.1v3.4h5.7v-3.4h-1.3zm-194 12.6h-1.1l-1.1-2.3h-1.1v-3.4h5.7v3.4H541l-1.1 2.3zm9.1-2.3h1.1v-3.4h-5.7v3.4h1.1l1.1 2.3h1.1l1.3-2.3zm8.1 0h1.1v-3.4h-5.7v3.4h1.1l1.1 2.3h1.1l1.3-2.3zm8 0h1.1v-3.4h-5.7v3.4h1.1l1.1 2.3h1.1l1.3-2.3zm8.1 0h1.1v-3.4h-5.7v3.4h1.1l1.1 2.3h1.1l1.3-2.3zm8 0h1.1v-3.4h-5.7v3.4h1.1l1.1 2.3h1.1l1.3-2.3zm8 0h1.1v-3.4h-5.7v3.4h1.1l1.1 2.3h1.1l1.3-2.3zm8.1 0h1.1v-3.4h-5.7v3.4h1.1l1.1 2.3h1.1l1.3-2.3zm8 0h1.1v-3.4h-5.7v3.4h1.1l1.1 2.3h1.1l1.3-2.3zm8.1 0h1.1v-3.4h-5.7v3.4h1.1l1.1 2.3h1.1l1.3-2.3zm8 0h1.1v-3.4h-5.7v3.4h1.1l1.1 2.3h1.1l1.3-2.3zm8 0h1.1v-3.4h-5.7v3.4h1.1l1.1 2.3h1.1l1.3-2.3zm8.1 0h1.1v-3.4h-5.7v3.4h1.1l1.1 2.3h1.1l1.3-2.3zm8 0h1.1v-3.4h-5.7v3.4h1.1l1.1 2.3h1.1l1.3-2.3zm8.1 0h1.1v-3.4H649v3.4h1.1l1.1 2.3h1.1l1.3-2.3zm8 0h1.1v-3.4H657v3.4h1.1l1.1 2.3h1.1l1.3-2.3zm8 0h1.1v-3.4H665v3.4h1.1l1.1 2.3h1.1l1.3-2.3zm8.1 0h1.1v-3.4h-5.7v3.4h1.1l1.1 2.3h1.1l1.3-2.3zm8 0h1.1v-3.4h-5.7v3.4h1.1l1.1 2.3h1.1l1.3-2.3zm8 0h1.1v-3.4h-5.7v3.4h1.1l1.1 2.3h1.1l1.3-2.3zm8.1 0h1.1v-3.4h-5.7v3.4h1.1l1.1 2.3h1.1l1.3-2.3zm8 0h1.1v-3.4h-5.7v3.4h1.1l1.1 2.3h1.1l1.3-2.3zm8.1 0h1.1v-3.4h-5.7v3.4h1.1l1.1 2.3h1.1l1.3-2.3zm8 0h1.1v-3.4h-5.7v3.4h1.1l1.1 2.3h1.1l1.3-2.3zm9.2 0v-3.4h-5.7v3.4h1.1l1.1 2.3h1.1l1.1-2.3h1.3z"/><circle class="st1" cx="514" cy="257.8" r="2.9"/><circle class="st1" cx="514" cy="275.1" r="2.9"/><circle class="st1" cx="757.5" cy="257.8" r="2.9"/><circle class="st1" cx="757.5" cy="275.1" r="2.9"/><path class="st2" d="M503.7 287.1h264.1v27.6H503.7v-27.6z"/><path class="st1" d="M541 296.3h1.1v3.4h-5.7v-3.4h1.1l1.1-2.3h1.1l1.3 2.3zm6.9-2.3h-1.1l-1.1 2.3h-1.1v3.4h5.7v-3.4H549l-1.1-2.3zm8 0h-1.1l-1.1 2.3h-1.1v3.4h5.7v-3.4h-1.1l-1.3-2.3zm8.1 0h-1.1l-1.1 2.3h-1.1v3.4h5.7v-3.4h-1.1L564 294zm8 0h-1.1l-1.1 2.3h-1.1v3.4h5.7v-3.4h-1.1L572 294zm8.1 0H579l-1.1 2.3h-1.1v3.4h5.7v-3.4h-1.1l-1.3-2.3zm8 0H587l-1.1 2.3h-1.1v3.4h5.7v-3.4h-1.1l-1.3-2.3zm8 0H595l-1.1 2.3h-1.1v3.4h5.7v-3.4h-1.1l-1.3-2.3zm8.1 0H603l-1.1 2.3h-1.1v3.4h5.7v-3.4h-1.1l-1.2-2.3zm8 0h-1.1l-1.1 2.3h-1.1v3.4h5.7v-3.4h-1.1l-1.3-2.3zm8 0h-1.1l-1.1 2.3h-1.1v3.4h5.7v-3.4h-1.1l-1.3-2.3zm8.1 0h-1.1l-1.1 2.3H625v3.4h5.7v-3.4h-1.1l-1.3-2.3zm8 0h-1.1l-1.1 2.3H633v3.4h5.7v-3.4h-1.1l-1.3-2.3zm8.1 0h-1.1l-1.1 2.3h-1.1v3.4h5.7v-3.4h-1.1l-1.3-2.3zm8 0h-1.1l-1.1 2.3H649v3.4h5.7v-3.4h-1.1l-1.2-2.3zm8 0h-1.1l-1.1 2.3H657v3.4h5.7v-3.4h-1.1l-1.2-2.3zm8.1 0h-1.1l-1.1 2.3H665v3.4h5.7v-3.4h-1.1l-1.1-2.3zm8 0h-1.1l-1.1 2.3h-1.1v3.4h5.7v-3.4h-1.1l-1.3-2.3zm8.1 0h-1.1l-1.1 2.3h-1.1v3.4h5.7v-3.4h-1.1l-1.3-2.3zm8 0h-1.1l-1.1 2.3h-1.1v3.4h5.7v-3.4h-1.1l-1.3-2.3zm8 0h-1.1l-1.1 2.3h-1.1v3.4h5.7v-3.4h-1.1l-1.3-2.3zm8.1 0h-1.1l-1.1 2.3h-1.1v3.4h5.7v-3.4H710l-1.3-2.3zm8 0h-1.1l-1.1 2.3h-1.1v3.4h5.7v-3.4H718l-1.3-2.3zm8.1 0h-1.1l-1.1 2.3h-1.1v3.4h5.7v-3.4h-1.1l-1.3-2.3zm9.1 2.3-1.1-2.3h-1.1l-1.1 2.3h-1.1v3.4h5.7v-3.4h-1.3zm-194 12.6h-1.1l-1.1-2.3h-1.1v-3.4h5.7v3.4H541l-1.1 2.3zm9.1-2.3h1.1v-3.4h-5.7v3.4h1.1l1.1 2.3h1.1l1.3-2.3zm8.1 0h1.1v-3.4h-5.7v3.4h1.1l1.1 2.3h1.1l1.3-2.3zm8 0h1.1v-3.4h-5.7v3.4h1.1l1.1 2.3h1.1l1.3-2.3zm8.1 0h1.1v-3.4h-5.7v3.4h1.1l1.1 2.3h1.1l1.3-2.3zm8 0h1.1v-3.4h-5.7v3.4h1.1l1.1 2.3h1.1l1.3-2.3zm8 0h1.1v-3.4h-5.7v3.4h1.1l1.1 2.3h1.1l1.3-2.3zm8.1 0h1.1v-3.4h-5.7v3.4h1.1l1.1 2.3h1.1l1.3-2.3zm8 0h1.1v-3.4h-5.7v3.4h1.1l1.1 2.3h1.1l1.3-2.3zm8.1 0h1.1v-3.4h-5.7v3.4h1.1l1.1 2.3h1.1l1.3-2.3zm8 0h1.1v-3.4h-5.7v3.4h1.1l1.1 2.3h1.1l1.3-2.3zm8 0h1.1v-3.4h-5.7v3.4h1.1l1.1 2.3h1.1l1.3-2.3zm8.1 0h1.1v-3.4h-5.7v3.4h1.1l1.1 2.3h1.1l1.3-2.3zm8 0h1.1v-3.4h-5.7v3.4h1.1l1.1 2.3h1.1l1.3-2.3zm8.1 0h1.1v-3.4H649v3.4h1.1l1.1 2.3h1.1l1.3-2.3zm8 0h1.1v-3.4H657v3.4h1.1l1.1 2.3h1.1l1.3-2.3zm8 0h1.1v-3.4H665v3.4h1.1l1.1 2.3h1.1l1.3-2.3zm8.1 0h1.1v-3.4h-5.7v3.4h1.1l1.1 2.3h1.1l1.3-2.3zm8 0h1.1v-3.4h-5.7v3.4h1.1l1.1 2.3h1.1l1.3-2.3zm8 0h1.1v-3.4h-5.7v3.4h1.1l1.1 2.3h1.1l1.3-2.3zm8.1 0h1.1v-3.4h-5.7v3.4h1.1l1.1 2.3h1.1l1.3-2.3zm8 0h1.1v-3.4h-5.7v3.4h1.1l1.1 2.3h1.1l1.3-2.3zm8.1 0h1.1v-3.4h-5.7v3.4h1.1l1.1 2.3h1.1l1.3-2.3zm8 0h1.1v-3.4h-5.7v3.4h1.1l1.1 2.3h1.1l1.3-2.3zm9.2 0v-3.4h-5.7v3.4h1.1l1.1 2.3h1.1l1.1-2.3h1.3z"/><circle class="st1" cx="514" cy="292.3" r="2.9"/><circle class="st1" cx="514" cy="309.5" r="2.9"/><circle class="st1" cx="757.5" cy="292.3" r="2.9"/><circle class="st1" cx="757.5" cy="309.5" r="2.9"/><path class="st3" d="M503.7 493.8h264.1v41.3H503.7v-41.3z"/><circle class="st1" cx="514" cy="499" r="2.9"/><circle class="st1" cx="514" cy="530" r="2.9"/><circle class="st1" cx="757.5" cy="499" r="2.9"/><circle class="st1" cx="757.5" cy="530" r="2.9"/><path class="st4" d="M524.9 511.1h221.6v9.2H524.9v-9.2z"/><path class="st2" d="M711.5 528.3h-18.4c-2.5 0-4.6-2.1-4.6-4.6v-18.4c0-2.5 2.1-4.6 4.6-4.6h18.4c2.5 0 4.6 2.1 4.6 4.6v18.4c0 2.5-2 4.6-4.6 4.6z"/><path class="st3" d="M503.7 542.1h264.1v41.3H503.7v-41.3z"/><circle class="st1" cx="514" cy="547.2" r="2.9"/><circle class="st1" cx="514" cy="578.3" r="2.9"/><circle class="st1" cx="757.5" cy="547.2" r="2.9"/><circle class="st1" cx="757.5" cy="578.3" r="2.9"/><path class="st4" d="M524.9 559.3h221.6v9.2H524.9v-9.2z"/><path class="st2" d="M711.5 576.5h-18.4c-2.5 0-4.6-2.1-4.6-4.6v-18.4c0-2.5 2.1-4.6 4.6-4.6h18.4c2.5 0 4.6 2.1 4.6 4.6v18.4c0 2.6-2 4.6-4.6 4.6z"/><path class="st3" d="M503.7 590.3h264.1v41.3H503.7v-41.3z"/><circle class="st1" cx="514" cy="595.5" r="2.9"/><circle class="st1" cx="514" cy="626.5" r="2.9"/><circle class="st1" cx="757.5" cy="595.5" r="2.9"/><circle class="st1" cx="757.5" cy="626.5" r="2.9"/><path class="st4" d="M524.9 607.5h221.6v9.2H524.9v-9.2z"/><path class="st2" d="M711.5 624.8h-18.4c-2.5 0-4.6-2.1-4.6-4.6v-18.4c0-2.5 2.1-4.6 4.6-4.6h18.4c2.5 0 4.6 2.1 4.6 4.6v18.4c0 2.5-2 4.6-4.6 4.6z"/><path class="st3" d="M503.7 379h264.1v27.6H503.7V379z"/><circle class="st1" cx="514" cy="384.2" r="2.9"/><circle class="st1" cx="514" cy="401.4" r="2.9"/><circle class="st1" cx="757.5" cy="384.2" r="2.9"/><circle class="st1" cx="757.5" cy="401.4" r="2.9"/><circle class="st4" cx="543.3" cy="392.8" r="6.3"/><circle class="st5" cx="561.7" cy="392.8" r="6.3"/><circle class="st6" cx="606.5" cy="392.8" r="6.3"/><circle class="st6" cx="624.8" cy="392.8" r="6.3"/><path class="st3" d="M503.7 413.5h264.1V441H503.7v-27.5z"/><circle class="st1" cx="514" cy="418.6" r="2.9"/><circle class="st1" cx="514" cy="435.8" r="2.9"/><circle class="st1" cx="757.5" cy="418.6" r="2.9"/><circle class="st1" cx="757.5" cy="435.8" r="2.9"/><circle class="st4" cx="543.3" cy="427.2" r="6.3"/><circle class="st5" cx="561.7" cy="427.2" r="6.3"/><circle class="st6" cx="606.5" cy="427.2" r="6.3"/><circle class="st6" cx="624.8" cy="427.2" r="6.3"/><path class="st3" d="M503.7 447.9h264.1v27.6H503.7v-27.6z"/><circle class="st1" cx="514" cy="453.1" r="2.9"/><circle class="st1" cx="514" cy="470.3" r="2.9"/><circle class="st1" cx="757.5" cy="453.1" r="2.9"/><circle class="st1" cx="757.5" cy="470.3" r="2.9"/><circle class="st2" cx="543.3" cy="461.7" r="6.3"/><circle class="st2" cx="561.7" cy="461.7" r="6.3"/><circle class="st2" cx="606.5" cy="461.7" r="6.3"/><circle class="st2" cx="624.8" cy="461.7" r="6.3"/><path class="st3" d="M503.7 172.3h264.1v27.6H503.7v-27.6z"/><circle class="st1" cx="514" cy="177.4" r="2.9"/><circle class="st1" cx="514" cy="194.7" r="2.9"/><circle class="st1" cx="757.5" cy="177.4" r="2.9"/><circle class="st1" cx="757.5" cy="194.7" r="2.9"/><path class="st2" d="M581.5 179.5c-1.7-1.7-4-2.6-6.5-2.6s-4.7.9-6.5 2.6c-1.7 1.7-2.6 4-2.6 6.5s.9 4.7 2.6 6.5c1.7 1.7 4 2.6 6.5 2.6s4.7-.9 6.5-2.6c1.8-1.7 2.6-4 2.6-6.5s-.8-4.6-2.6-6.5z"/><path class="st3" d="M573 184.1c-.5.5-1.3.5-1.7 0-.5-.5-.5-1.3 0-1.7.5-.5 1.3-.5 1.7 0 .5.4.5 1.3 0 1.7zm5.7 3.9c-.5-.5-1.3-.5-1.7 0-.5.5-.5 1.3 0 1.7.5.5 1.3.5 1.7 0 .4-.4.4-1.2 0-1.7z"/><path class="st2" d="M604.5 179.5c-1.7-1.7-4-2.6-6.5-2.6s-4.7.9-6.5 2.6c-1.7 1.7-2.6 4-2.6 6.5s.9 4.7 2.6 6.5c1.7 1.7 4 2.6 6.5 2.6s4.7-.9 6.5-2.6c1.8-1.7 2.6-4 2.6-6.5s-.9-4.6-2.6-6.5z"/><path class="st3" d="M596 184.1c-.5.5-1.3.5-1.7 0-.5-.5-.5-1.3 0-1.7.5-.5 1.3-.5 1.7 0 .5.4.5 1.3 0 1.7zm5.6 3.9c-.5-.5-1.3-.5-1.7 0-.5.5-.5 1.3 0 1.7.5.5 1.3.5 1.7 0 .5-.4.5-1.2 0-1.7z"/><path class="st2" d="M627.5 179.5c-1.7-1.7-4-2.6-6.5-2.6s-4.7.9-6.5 2.6c-1.7 1.7-2.6 4-2.6 6.5s.9 4.7 2.6 6.5c1.7 1.7 4 2.6 6.5 2.6s4.7-.9 6.5-2.6c1.8-1.7 2.6-4 2.6-6.5s-.9-4.6-2.6-6.5z"/><path class="st3" d="M619 184.1c-.5.5-1.3.5-1.7 0-.5-.5-.5-1.3 0-1.7.5-.5 1.3-.5 1.7 0 .4.4.4 1.3 0 1.7zm5.6 3.9c-.5-.5-1.3-.5-1.7 0-.5.5-.5 1.3 0 1.7.5.5 1.3.5 1.7 0 .5-.4.5-1.2 0-1.7z"/><path class="st2" d="M650.5 179.5c-1.7-1.7-4-2.6-6.5-2.6s-4.7.9-6.5 2.6c-1.7 1.7-2.6 4-2.6 6.5s.9 4.7 2.6 6.5c1.7 1.7 4 2.6 6.5 2.6s4.7-.9 6.5-2.6c1.7-1.7 2.6-4 2.6-6.5s-.9-4.6-2.6-6.5z"/><path class="st3" d="M642 184.1c-.5.5-1.3.5-1.7 0-.5-.5-.5-1.3 0-1.7.5-.5 1.3-.5 1.7 0 .4.4.4 1.3 0 1.7zm5.6 3.9c-.5-.5-1.3-.5-1.7 0-.5.5-.5 1.3 0 1.7.5.5 1.3.5 1.7 0 .4-.4.4-1.2 0-1.7z"/><path class="st2" d="M673.4 179.5c-1.7-1.7-4-2.6-6.5-2.6s-4.7.9-6.5 2.6c-1.7 1.7-2.6 4-2.6 6.5s.9 4.7 2.6 6.5c1.7 1.7 4 2.6 6.5 2.6s4.7-.9 6.5-2.6c1.7-1.7 2.6-4 2.6-6.5s-.9-4.6-2.6-6.5z"/><path class="st3" d="M664.9 184.1c-.5.5-1.3.5-1.7 0-.5-.5-.5-1.3 0-1.7.5-.5 1.3-.5 1.7 0 .5.4.5 1.3 0 1.7zm5.6 3.9c-.5-.5-1.3-.5-1.7 0-.5.5-.5 1.3 0 1.7.5.5 1.3.5 1.7 0 .5-.4.5-1.2 0-1.7z"/><path class="st2" d="M696.4 179.5c-1.7-1.7-4-2.6-6.5-2.6s-4.7.9-6.5 2.6c-1.7 1.7-2.6 4-2.6 6.5s.9 4.7 2.6 6.5c1.7 1.7 4 2.6 6.5 2.6s4.7-.9 6.5-2.6c1.7-1.7 2.6-4 2.6-6.5s-.9-4.6-2.6-6.5z"/><path class="st3" d="M687.9 184.1c-.5.5-1.3.5-1.7 0-.5-.5-.5-1.3 0-1.7.5-.5 1.3-.5 1.7 0 .4.4.4 1.3 0 1.7zm5.6 3.9c-.5-.5-1.3-.5-1.7 0-.5.5-.5 1.3 0 1.7.5.5 1.3.5 1.7 0 .5-.4.5-1.2 0-1.7z"/><path class="st2" d="M719.4 179.5c-1.7-1.7-4-2.6-6.5-2.6s-4.7.9-6.5 2.6c-1.7 1.7-2.6 4-2.6 6.5s.9 4.7 2.6 6.5c1.7 1.7 4 2.6 6.5 2.6s4.7-.9 6.5-2.6c1.7-1.7 2.6-4 2.6-6.5s-.9-4.6-2.6-6.5z"/><path class="st3" d="M710.9 184.1c-.5.5-1.3.5-1.7 0-.5-.5-.5-1.3 0-1.7.5-.5 1.3-.5 1.7 0 .4.4.4 1.3 0 1.7zm5.6 3.9c-.5-.5-1.3-.5-1.7 0-.5.5-.5 1.3 0 1.7.5.5 1.3.5 1.7 0 .4-.4.4-1.2 0-1.7z"/><path class="st2" d="M742.3 179.5c-1.7-1.7-4-2.6-6.5-2.6s-4.7.9-6.5 2.6c-1.7 1.7-2.6 4-2.6 6.5s.9 4.7 2.6 6.5c1.7 1.7 4 2.6 6.5 2.6s4.7-.9 6.5-2.6c1.7-1.7 2.6-4 2.6-6.5s-.9-4.6-2.6-6.5z"/><path class="st3" d="M733.8 184.1c-.5.5-1.3.5-1.7 0-.5-.5-.5-1.3 0-1.7.5-.5 1.3-.5 1.7 0 .5.4.5 1.3 0 1.7zm5.7 3.9c-.5-.5-1.3-.5-1.7 0-.5.5-.5 1.3 0 1.7.5.5 1.3.5 1.7 0 .4-.4.4-1.2 0-1.7z"/><path class="st4" d="M548.5 193h-5.7c-1.3 0-2.3-1-2.3-2.3v-9.2c0-1.3 1-2.3 2.3-2.3h5.7c1.3 0 2.3 1 2.3 2.3v9.2c0 1.2-1.1 2.3-2.3 2.3z"/><path class="st3" d="M503.7 333.1h264.1v27.6H503.7v-27.6z"/><circle class="st1" cx="514" cy="338.2" r="2.9"/><circle class="st1" cx="514" cy="355.5" r="2.9"/><circle class="st1" cx="757.5" cy="338.2" r="2.9"/><circle class="st1" cx="757.5" cy="355.5" r="2.9"/><path class="st2" d="M581.5 340.3c-1.7-1.7-4-2.6-6.5-2.6s-4.7.9-6.5 2.6c-1.7 1.7-2.6 4-2.6 6.5s.9 4.7 2.6 6.5c1.7 1.7 4 2.6 6.5 2.6s4.7-.9 6.5-2.6c1.7-1.7 2.6-4 2.6-6.5s-.8-4.7-2.6-6.5z"/><path class="st3" d="M573 344.9c-.5.5-1.3.5-1.7 0-.5-.5-.5-1.3 0-1.7.5-.5 1.3-.5 1.7 0 .5.4.5 1.2 0 1.7zm5.7 3.9c-.5-.5-1.3-.5-1.7 0-.5.5-.5 1.3 0 1.7.5.5 1.3.5 1.7 0 .4-.4.4-1.2 0-1.7z"/><path class="st2" d="M604.5 340.3c-1.7-1.7-4-2.6-6.5-2.6s-4.7.9-6.5 2.6c-1.7 1.7-2.6 4-2.6 6.5s.9 4.7 2.6 6.5c1.7 1.7 4 2.6 6.5 2.6s4.7-.9 6.5-2.6c1.7-1.7 2.6-4 2.6-6.5s-.9-4.7-2.6-6.5z"/><path class="st3" d="M596 344.9c-.5.5-1.3.5-1.7 0-.5-.5-.5-1.3 0-1.7.5-.5 1.3-.5 1.7 0 .5.4.5 1.2 0 1.7zm5.6 3.9c-.5-.5-1.3-.5-1.7 0-.5.5-.5 1.3 0 1.7.5.5 1.3.5 1.7 0 .5-.4.5-1.2 0-1.7z"/><path class="st2" d="M627.5 340.3c-1.7-1.7-4-2.6-6.5-2.6s-4.7.9-6.5 2.6c-1.7 1.7-2.6 4-2.6 6.5s.9 4.7 2.6 6.5c1.7 1.7 4 2.6 6.5 2.6s4.7-.9 6.5-2.6c1.7-1.7 2.6-4 2.6-6.5s-.9-4.7-2.6-6.5z"/><path class="st3" d="M619 344.9c-.5.5-1.3.5-1.7 0-.5-.5-.5-1.3 0-1.7.5-.5 1.3-.5 1.7 0 .4.4.4 1.2 0 1.7zm5.6 3.9c-.5-.5-1.3-.5-1.7 0-.5.5-.5 1.3 0 1.7.5.5 1.3.5 1.7 0 .5-.4.5-1.2 0-1.7z"/><path class="st2" d="M650.5 340.3c-1.7-1.7-4-2.6-6.5-2.6s-4.7.9-6.5 2.6c-1.7 1.7-2.6 4-2.6 6.5s.9 4.7 2.6 6.5c1.7 1.7 4 2.6 6.5 2.6s4.7-.9 6.5-2.6c1.7-1.7 2.6-4 2.6-6.5s-.9-4.7-2.6-6.5z"/><path class="st3" d="M642 344.9c-.5.5-1.3.5-1.7 0-.5-.5-.5-1.3 0-1.7.5-.5 1.3-.5 1.7 0 .4.4.4 1.2 0 1.7zm5.6 3.9c-.5-.5-1.3-.5-1.7 0-.5.5-.5 1.3 0 1.7.5.5 1.3.5 1.7 0 .4-.4.4-1.2 0-1.7z"/><path class="st2" d="M673.4 340.3c-1.7-1.7-4-2.6-6.5-2.6s-4.7.9-6.5 2.6c-1.7 1.7-2.6 4-2.6 6.5s.9 4.7 2.6 6.5c1.7 1.7 4 2.6 6.5 2.6s4.7-.9 6.5-2.6c1.7-1.7 2.6-4 2.6-6.5s-.9-4.7-2.6-6.5z"/><path class="st3" d="M664.9 344.9c-.5.5-1.3.5-1.7 0-.5-.5-.5-1.3 0-1.7.5-.5 1.3-.5 1.7 0 .5.4.5 1.2 0 1.7zm5.6 3.9c-.5-.5-1.3-.5-1.7 0-.5.5-.5 1.3 0 1.7.5.5 1.3.5 1.7 0 .5-.4.5-1.2 0-1.7z"/><path class="st2" d="M696.4 340.3c-1.7-1.7-4-2.6-6.5-2.6s-4.7.9-6.5 2.6c-1.7 1.7-2.6 4-2.6 6.5s.9 4.7 2.6 6.5c1.7 1.7 4 2.6 6.5 2.6s4.7-.9 6.5-2.6c1.7-1.7 2.6-4 2.6-6.5s-.9-4.7-2.6-6.5z"/><path class="st3" d="M687.9 344.9c-.5.5-1.3.5-1.7 0-.5-.5-.5-1.3 0-1.7.5-.5 1.3-.5 1.7 0 .4.4.4 1.2 0 1.7zm5.6 3.9c-.5-.5-1.3-.5-1.7 0-.5.5-.5 1.3 0 1.7.5.5 1.3.5 1.7 0 .5-.4.5-1.2 0-1.7z"/><path class="st2" d="M719.4 340.3c-1.7-1.7-4-2.6-6.5-2.6s-4.7.9-6.5 2.6c-1.7 1.7-2.6 4-2.6 6.5s.9 4.7 2.6 6.5c1.7 1.7 4 2.6 6.5 2.6s4.7-.9 6.5-2.6c1.7-1.7 2.6-4 2.6-6.5s-.9-4.7-2.6-6.5z"/><path class="st3" d="M710.9 344.9c-.5.5-1.3.5-1.7 0-.5-.5-.5-1.3 0-1.7.5-.5 1.3-.5 1.7 0 .4.4.4 1.2 0 1.7zm5.6 3.9c-.5-.5-1.3-.5-1.7 0-.5.5-.5 1.3 0 1.7.5.5 1.3.5 1.7 0 .4-.4.4-1.2 0-1.7z"/><path class="st2" d="M742.3 340.3c-1.7-1.7-4-2.6-6.5-2.6s-4.7.9-6.5 2.6c-1.7 1.7-2.6 4-2.6 6.5s.9 4.7 2.6 6.5c1.7 1.7 4 2.6 6.5 2.6s4.7-.9 6.5-2.6c1.7-1.7 2.6-4 2.6-6.5s-.9-4.7-2.6-6.5z"/><path class="st3" d="M733.8 344.9c-.5.5-1.3.5-1.7 0-.5-.5-.5-1.3 0-1.7.5-.5 1.3-.5 1.7 0 .5.4.5 1.2 0 1.7zm5.7 3.9c-.5-.5-1.3-.5-1.7 0-.5.5-.5 1.3 0 1.7.5.5 1.3.5 1.7 0 .4-.4.4-1.2 0-1.7z"/><path class="st4" d="M548.5 353.7h-5.7c-1.3 0-2.3-1-2.3-2.3v-9.2c0-1.3 1-2.3 2.3-2.3h5.7c1.3 0 2.3 1 2.3 2.3v9.2c0 1.3-1.1 2.3-2.3 2.3z"/><path class="st2" d="M503.7 126.3h264.1v27.6H503.7v-27.6z"/><path class="st1" d="M652.4 133.2h-1.1l-1.1 2.3H649v3.4h5.7v-3.4h-1.1l-1.2-2.3zm8 0h-1.1l-1.1 2.3H657v3.4h5.7v-3.4h-1.1l-1.2-2.3zm8.1 0h-1.1l-1.1 2.3H665v3.4h5.7v-3.4h-1.1l-1.1-2.3zm8 0h-1.1l-1.1 2.3h-1.1v3.4h5.7v-3.4h-1.1l-1.3-2.3zm8.1 0h-1.1l-1.1 2.3h-1.1v3.4h5.7v-3.4h-1.1l-1.3-2.3zm8 0h-1.1l-1.1 2.3h-1.1v3.4h5.7v-3.4h-1.1l-1.3-2.3zm8 0h-1.1l-1.1 2.3h-1.1v3.4h5.7v-3.4h-1.1l-1.3-2.3zm8.1 0h-1.1l-1.1 2.3h-1.1v3.4h5.7v-3.4H710l-1.3-2.3zm8 0h-1.1l-1.1 2.3h-1.1v3.4h5.7v-3.4H718l-1.3-2.3zm8.1 0h-1.1l-1.1 2.3h-1.1v3.4h5.7v-3.4h-1.1l-1.3-2.3zm9.1 2.3-1.1-2.3h-1.1l-1.1 2.3h-1.1v3.4h5.7v-3.4h-1.3zm-80.3 10.4h1.1v-3.4H649v3.4h1.1l1.1 2.3h1.1l1.3-2.3zm8 0h1.1v-3.4H657v3.4h1.1l1.1 2.3h1.1l1.3-2.3zm8 0h1.1v-3.4H665v3.4h1.1l1.1 2.3h1.1l1.3-2.3zm8.1 0h1.1v-3.4h-5.7v3.4h1.1l1.1 2.3h1.1l1.3-2.3zm8 0h1.1v-3.4h-5.7v3.4h1.1l1.1 2.3h1.1l1.3-2.3zm8 0h1.1v-3.4h-5.7v3.4h1.1l1.1 2.3h1.1l1.3-2.3zm8.1 0h1.1v-3.4h-5.7v3.4h1.1l1.1 2.3h1.1l1.3-2.3zm8 0h1.1v-3.4h-5.7v3.4h1.1l1.1 2.3h1.1l1.3-2.3zm8.1 0h1.1v-3.4h-5.7v3.4h1.1l1.1 2.3h1.1l1.3-2.3zm8 0h1.1v-3.4h-5.7v3.4h1.1l1.1 2.3h1.1l1.3-2.3zm9.2 0v-3.4h-5.7v3.4h1.1l1.1 2.3h1.1l1.1-2.3h1.3z"/><circle class="st1" cx="514" cy="131.5" r="2.9"/><circle class="st1" cx="514" cy="148.7" r="2.9"/><circle class="st1" cx="757.5" cy="131.5" r="2.9"/><circle class="st1" cx="757.5" cy="148.7" r="2.9"/><path d="M656 354.4v251.3c0 2.4 1.9 4.2 4.2 4.2h159.3V350.2H660.2c-2.3 0-4.2 1.9-4.2 4.2z" opacity=".15"/><path class="st1" d="M873.9 599.5h37.2v58.4h-37.2v-58.4z"/><path class="st1" d="M1020.5 656.4c-.7-.7-1.9-1.2-2.9-1.2H767.3c-.9 0-2.2.5-2.9 1.2L749 671.8c-.7.7-.4 1.2.5 1.2h285.8c.9 0 1.2-.5.5-1.2l-15.3-15.4z"/><path d="M900.1 603.7c0 .9-.8 1.7-1.7 1.7h-11.8c-.9 0-1.7-.8-1.7-1.7v-.8c0-.9.8-1.7 1.7-1.7h11.8c.9 0 1.7.8 1.7 1.7v.8z" fill="#b24b53"/><path d="M868.8 591.1c0-.9.8-1.7 1.7-1.7h44c.9 0 1.7.8 1.7 1.7v7.6c0 .9-.8 1.7-1.7 1.7h-44c-.9 0-1.7-.8-1.7-1.7v-7.6z" fill="#2b353f"/><path class="st1" d="M680.2 330.2c-2.4 0-4.2 1.9-4.2 4.2v251.3c0 2.4 1.9 4.2 4.2 4.2h424.5c2.4 0 4.2-1.9 4.2-4.2V334.4c0-2.4-1.9-4.2-4.2-4.2H680.2z"/><path d="M1090.1 565.8c0 2.4-1.9 4.2-4.2 4.2H699.2c-2.4 0-4.2-1.9-4.2-4.2V352.1c0-2.4 1.9-4.2 4.2-4.2h386.7c2.4 0 4.2 1.9 4.2 4.2v213.7z" fill="#667e8e"/><path d="m1019.6 347.9-268.9 222h148.5l158.7-222h-38.3z" fill="#647b8b"/><path d="M700.4 347.9c-3 0-5.6 2.5-5.6 5.6v210.9c0 3 2.5 5.6 5.6 5.6h50.2l268.9-222-319.1-.1z" fill="#607786"/><path d="M1129.5 209.3c3.8 4.6 7.9 9.3 12.5 14.1-13.4 4-22.2 11.5-27.6 18.1-8.7 10.5-13.2 24.3-12.2 36.1h-23c4.6-10.1 23-39.1 50.3-68.3zm267 74.5h-28c-64.3-33.5-120.7-57.2-180.7-62.4.1-8.3 1.6-17.8 4.5-28.3l-5.5-1.5c-2.9 10.8-4.5 20.6-4.6 29.4-6.2-.4-12.5-.6-18.9-.6-5.4 0-10.3.5-14.7 1.4-5.8-5.8-10.8-11.4-15-16.6 27.7-28.8 73.2-54.9 112.9-64.7 11.2 37.1 35.1 62.5 64.2 79.6 2.1-1.2 4.2-2.5 6.3-3.8l50.7 54.6 2.2-.2c13.9-1.2 21.7 6.3 23.8 8.7 1.4 1.6 2.3 3.2 2.8 4.4z" fill="#d1a41a"/><path d="M1371.7 101.1c1 50.4-24.7 90.5-60.7 111.1-61.1-30.4-72.6-107.6-62.2-148.9 2.9 15.8 8.2 25.7 19.5 30.6 24.8-7.1 59-7.7 84.1-.7 10.5-7.6 14.5-19.3 16.8-29.4 2.8 11.8 2.5 37.3 2.5 37.3z" fill="#ffdc76"/><path d="m1218 148.8 9.4 27.7-28.4-19zm-27.3 12.1 10.1 17.3-21.1-10.7zm-22.7 13.5 4.8 17.3-14.5-10zm154.3 46.3-9 13.8 15.9-7.3zm14.2 15.9-14.5 11 20-5.2zm-35.3-149.9 10.8 23.5 6.9-23.9zm-54.2 34.2 17 9-15.2 1zm4.2 18.3 10.3 4.1-8.6 2.4zm120.8-11.8-13.8 5.9 11.4 1.7zm-5.5 17-10.7 3.1 8.6 3.1z"/><path d="M1241.5 170.3h33.3v4.1h-33.3zm0-9.9h33.3v4.1h-33.3zm101.7 9.9h33.3v4.1h-33.3zm0-9.9h33.3v4.1h-33.3zm-11.7-24.4h-54.2v-3.7h16.9c2.1-8.9 2.5-17.4 0-21.7-1.1-1.8-2.6-2.7-4.7-2.7-9.7 0-13.7 10.2-13.8 10.7l-3.5-1.3c.2-.5 5-13.1 17.3-13.1 3.4 0 6.1 1.6 7.9 4.5 3.1 5.3 2.7 14.4.6 23.6h29.7c3.9-11.6 12.2-17 25.9-17v3.7c-14.9 0-19.1 6.3-22.1 13.3h16.2v3.7h-16.2zm2.4 18.3c-4.4-6.5-5.8-12-3.9-18.3h-3.8c-1.3 4.2-.8 10.5 2.4 15.9H1291c2.3-4.6 4.4-10.2 6-15.9h-3.8c-1.7 6.1-4.1 12.1-6.8 16.9l-.9 1.5 21.1 13.3-11.9 7.8 2 3.1 13.3-8.8 14.4 9.4 2-3.1-13.3-8.2c-.1 0 19.9-12.9 20.8-13.6zm-23.9 11.2-15.6-9.8h30.6l-15 9.8z"/><path d="M1377.9 96.7c0-6.4-2-33.7-5.7-41.1-10 3.8-28.2 16.1-32.3 28.7-19.7-2.9-42-2.6-61.4.8-3.3-13.5-19.6-23.9-31.9-29.7-5.2 8.8-7.5 29.1-6.9 43.5h-.1c2.3 60.6 32 98.3 70.9 121.1 39.9-22.9 68.5-67.4 67.4-123.3 0-.1 0 0 0 0zM1344.7 85c.1 0 .3.1.4.1-.1-.1-.3-.1-.4-.1zm-2.5-.4c.3.1.7.1 1.1.2-.4-.1-.8-.2-1.1-.2zm29.5 16.4c1 50.4-24.7 90.5-60.7 111.1-61.1-30.4-72.6-107.6-62.2-148.9 2.9 15.8 8.2 25.7 19.5 30.6 24.8-7.1 58.9-7.7 84.1-.7 10.5-7.6 14.5-19.3 16.8-29.4 2.8 11.8 2.5 37.3 2.5 37.3z"/><path d="M1397.8 275.4c-6.3-7-18.6-10.3-28.8-10.1-7.3-8.7-49.5-53.2-49.5-53.2l-2.9 3.7 51 54.9 2.2-.2c13.9-1.2 21.7 6.3 23.8 8.7 1.5 1.7 2.5 3.3 3 4.5h-28c-64.3-33.5-120.7-57.2-180.7-62.4.1-8.3 1.6-17.8 4.5-28.3l-5.5-1.5c-2.9 10.8-4.5 20.6-4.6 29.4-6.2-.4-12.5-.6-18.9-.6-5.4 0-10.3.5-14.7 1.4-5.8-5.8-10.8-11.4-15-16.6 27.9-29 73.8-55.2 113.7-64.9l-1.3-5.6c-42.9 10.3-89.9 38.5-116.1 65.7-12.1-16.4-17-29.8-18.4-40-1.8-12.9 1.3-24.7 8.9-34.2 11.9-14.8 28.9-15.9 46.3-12.9-.3 2.8 0 5.4 1.1 7 4.6 6.8 29.4 9.2 44.2 2.6-10.9-15.3-33-22.8-39.1-19.8-2 1-3.6 2.8-4.6 4.9-6-1.1-12-1.9-16.4-1.8-15.4.1-27.1 5.5-35.9 16.4-8.6 10.7-12.1 24.1-10.1 38.5 1.9 13.7 8.7 28.3 20.1 43.4-1.9 2-3.7 4-5.5 6-27.7 31-48 64.3-48 69.8v2.9h36.6l-.6-3.4c-2.1-10.9 2.1-24.6 10.5-34.8 5.3-6.4 14.1-13.7 27.9-17.1 12.3 12 27.9 24.7 45.3 37h27.2V262c0-3.2-1.6-6-4.5-7.9-4.3-2.8-10.9-3.2-17-1.1-5.8-6.5-9.1-15.1-9.8-25.8 59 5.2 115.5 29.1 179.2 62.3h35l.5-2.3c.3-3.3-1.5-7.7-5.1-11.8zm-283.4-34.1c-8.7 10.4-13.2 24.2-12.2 36.1h-23.1c4.6-10 23.1-39 50.3-68.3 3.8 4.6 7.9 9.3 12.5 14.1-13.3 4-22 11.5-27.5 18.1z"/><path d="M1234.3 348.4v18h-10.5v-51.2h20c3.8 0 7.2.7 10.1 2.1s5.2 3.4 6.7 6c1.6 2.6 2.4 5.5 2.4 8.8 0 5-1.7 9-5.2 11.9-3.4 2.9-8.2 4.3-14.3 4.3h-9.2zm0-8.5h9.4c2.8 0 4.9-.7 6.4-2s2.2-3.2 2.2-5.6c0-2.5-.7-4.5-2.2-6.1s-3.5-2.3-6.1-2.4h-9.7v16.1zm77.9 2.1c0 5-.9 9.5-2.7 13.3s-4.3 6.7-7.6 8.8c-3.3 2.1-7.1 3.1-11.4 3.1-4.2 0-8-1-11.4-3.1s-5.9-5-7.7-8.7c-1.8-3.8-2.8-8.1-2.8-13.1v-2.5c0-5 .9-9.5 2.7-13.3s4.4-6.8 7.7-8.8c3.3-2.1 7.1-3.1 11.4-3.1s8.1 1 11.4 3.1c3.3 2.1 5.9 5 7.7 8.8s2.7 8.3 2.7 13.3v2.2zm-10.7-2.3c0-5.4-1-9.4-2.9-12.2-1.9-2.8-4.7-4.2-8.2-4.2-3.5 0-6.3 1.4-8.2 4.1-1.9 2.8-2.9 6.8-2.9 12.1v2.5c0 5.2 1 9.3 2.9 12.2s4.7 4.3 8.3 4.3c3.5 0 6.3-1.4 8.2-4.2s2.9-6.8 2.9-12.1v-2.5zm44.9 13.3c0-2-.7-3.5-2.1-4.6-1.4-1.1-3.9-2.2-7.6-3.4-3.7-1.2-6.6-2.3-8.7-3.5-5.8-3.1-8.7-7.4-8.7-12.7 0-2.8.8-5.2 2.3-7.4 1.6-2.2 3.8-3.9 6.7-5.1 2.9-1.2 6.2-1.8 9.8-1.8 3.7 0 6.9.7 9.8 2 2.9 1.3 5.1 3.2 6.7 5.6 1.6 2.4 2.4 5.2 2.4 8.2h-10.5c0-2.3-.7-4.2-2.2-5.5s-3.6-2-6.2-2-4.6.5-6 1.6-2.1 2.5-2.1 4.3c0 1.7.8 3.1 2.5 4.2s4.1 2.2 7.4 3.2c6 1.8 10.4 4 13.1 6.7s4.1 6 4.1 10c0 4.4-1.7 7.9-5 10.4-3.4 2.5-7.9 3.8-13.5 3.8-3.9 0-7.5-.7-10.8-2.2s-5.7-3.4-7.4-5.9c-1.7-2.5-2.5-5.4-2.5-8.7h10.6c0 5.6 3.4 8.5 10.1 8.5 2.5 0 4.5-.5 5.9-1.5s1.9-2.4 1.9-4.2zm56.3-29.2H1387v42.6h-10.5v-42.6H1361v-8.5h41.7v8.5z" fill="#fff"/></svg>