<svg xmlns="http://www.w3.org/2000/svg" viewBox="0 0 1920 673" xml:space="preserve"><style>.st1{fill:#7cb342}.st2{fill:#8bc34a}.st6{fill:#d6d7d7}</style><path fill="#61922d" d="M0 0h1920v673H0z"/><path class="st1" d="M568.9 292.7c0-38.6-31.3-69.4-69.4-69.9l-.5-.8v.9c-38.1 0-69.4 31.3-69.4 69.9 0 38.6 31.3 69.9 69.4 69.9h.5c38.1-.6 69.4-31.4 69.4-70z"/><path class="st1" d="M360.2 347.6h-.5V229.2c0-28.6 23.6-52.2 52.2-52.2h29.5V83.5h115.7V177h29c29 0 52.2 23.6 52.6 52.6v118h-.5c0 4-2.2 9.2-7.7 15H998C998.3 219.7 938.4 90.9 842.2 0H156.4C60.1 91 0 219.9 0 362.6h367.9c-5.5-5.7-8.1-10.5-7.7-15z"/><path class="st2" d="m455 450.2-84.4 146.5c37.7 20.9 81.7 33.1 128.4 33.1s90.7-11.8 128.8-33.1l-84.4-146.5 68.5-68.5 89.6 154.8c40.2-47.1 64.6-107.8 64.6-173.9H630.4c-.1.2-.3.3-.4.5L525.4 467.9c-6.8 7.3-16.3 10.9-25.9 10.9l-.5-.5v.5c-9.1 0-18.6-3.6-25.9-10.9L368.4 363.1c-.2-.2-.3-.3-.4-.5H0C0 479.9 40.6 587.8 108.4 673h109.8l168.3-291.3 68.5 68.5z"/><path class="st2" d="m766.3 362.6 93 .5c0 101.1-42.1 192.7-109.2 258l30 52h109.6c67.8-85.2 108.4-193.1 108.4-310.4H766.3z"/><path d="m543.5 450.2 84.4 146.5c28.1-15.4 52.6-35.8 73.5-59.9l.3-.3L612 381.7l-68.5 68.5zm206.4 171c-20.1 19.7-42.9 37.2-67.6 51.8H780l-30-52c0 .1 0 .1-.1.2z" fill="#e1e1e1"/><path d="M766.3 362.6c0 66.1-24.4 126.8-64.6 173.9l-.3.3c-20.9 24-45.4 44.5-73.5 59.9-38.1 21.3-82.1 33.1-128.8 33.1-46.7 0-90.7-12.2-128.4-33.1L455 450.2l-68.5-68.5L218.2 673h464.1c24.7-14.6 47.4-32.1 67.6-51.8l.2-.2c67-65.3 109.2-156.9 109.2-258l-93-.4z" fill="#f1f1f1"/><path d="M586.1 177h-29V83.5H441.4V177h-29.5c-28.6 0-52.2 23.6-52.2 52.2v118.4h.5c-.4 4.4 2.1 9.3 7.7 15 .1.2.3.3.4.5l104.8 104.8c7.3 7.3 16.8 10.9 25.9 10.9v-.5l.5.5c9.5 0 19.1-3.6 25.9-10.9l104.8-104.8c.2-.2.3-.3.4-.5 5.6-5.7 7.7-11 7.7-15h.5v-118c-.5-29-23.6-52.6-52.7-52.6zM499 362.6c-38.1 0-69.4-31.3-69.4-69.9 0-38.6 31.3-69.9 69.4-69.9v-.8l.5.9c38.1.5 69.4 31.3 69.4 69.9 0 38.6-31.3 69.4-69.4 69.9h-.5z" fill="#646464"/><path class="st6" d="M1076.9 130h370.2v111h-370.2z"/><path d="M1125.8 189.7v17.1h-5.8v-42.7h16.3c4.6 0 8.1 1.2 10.6 3.5s3.8 5.4 3.8 9.3c0 3.9-1.3 7-3.8 9.3s-6.1 3.5-10.6 3.5h-10.5zm0-4.5h10.5c2.9 0 5-.8 6.5-2.3s2.1-3.5 2.1-5.9c0-2.4-.7-4.3-2.2-5.9-1.4-1.6-3.6-2.4-6.5-2.4h-10.5v16.5zm38.4 3.1v18.5h-5.8v-42.6h15.4c4.7 0 8.2 1 10.7 3.1s3.7 5.1 3.7 9c0 2.2-.6 4.1-1.7 5.7s-2.8 2.9-5 3.9c2.3.8 4 2 5.1 3.7s1.5 3.8 1.5 6.3v4c0 1.3.1 2.5.4 3.6s.8 1.9 1.5 2.6v.7h-5.9c-.8-.7-1.3-1.6-1.5-2.9s-.3-2.6-.3-4V196c0-2.3-.7-4.2-2-5.6s-3.2-2.1-5.4-2.1h-10.7zm0-4.5h9.1c3.3 0 5.6-.6 7-1.9 1.4-1.2 2.2-3.1 2.2-5.7 0-2.4-.7-4.3-2.1-5.6-1.4-1.3-3.6-2-6.5-2h-9.7v15.2zm59.3 3.2H1204v15.2h22.5v4.5h-28.3V164h28v4.5H1204v13.8h19.5v4.7zm33 9.1c0-1.9-.7-3.6-2.2-4.9-1.5-1.3-4.1-2.4-7.8-3.3-4.5-1.1-8-2.7-10.6-4.8-2.5-2.1-3.8-4.7-3.8-7.9 0-3.3 1.4-6.1 4.1-8.3s6.3-3.3 10.6-3.3c4.7 0 8.4 1.3 11.1 3.8 2.8 2.6 4.1 5.5 4 8.9l-.1.2h-5.5c0-2.5-.8-4.5-2.5-6.1-1.7-1.5-4-2.3-7.1-2.3-2.9 0-5.1.6-6.6 1.9-1.5 1.3-2.3 3-2.3 5.1 0 1.9.8 3.4 2.5 4.6s4.4 2.3 8.1 3.3c4.5 1.1 7.9 2.8 10.3 4.9s3.5 4.9 3.5 8.1c0 3.4-1.4 6.2-4.2 8.3s-6.5 3.1-11 3.1c-4.3 0-8-1.2-11.3-3.5s-4.9-5.4-4.8-9.3l.1-.2h5.5c0 2.7 1 4.8 3 6.2s4.5 2.1 7.5 2.1c2.9 0 5.2-.6 6.9-1.8 1.7-1.1 2.6-2.7 2.6-4.8zm37.4 0c0-1.9-.7-3.6-2.2-4.9-1.5-1.3-4.1-2.4-7.8-3.3-4.5-1.1-8-2.7-10.6-4.8-2.5-2.1-3.8-4.7-3.8-7.9 0-3.3 1.4-6.1 4.1-8.3s6.3-3.3 10.6-3.3c4.7 0 8.4 1.3 11.1 3.8 2.8 2.6 4.1 5.5 4 8.9l-.1.2h-5.5c0-2.5-.8-4.5-2.5-6.1-1.7-1.5-4-2.3-7.1-2.3-2.9 0-5.1.6-6.6 1.9-1.5 1.3-2.3 3-2.3 5.1 0 1.9.8 3.4 2.5 4.6s4.4 2.3 8.1 3.3c4.5 1.1 7.9 2.8 10.3 4.9s3.5 4.9 3.5 8.1c0 3.4-1.4 6.2-4.2 8.3s-6.5 3.1-11 3.1c-4.3 0-8-1.2-11.3-3.5s-4.9-5.4-4.8-9.3l.1-.2h5.5c0 2.7 1 4.8 3 6.2s4.5 2.1 7.5 2.1c2.9 0 5.2-.6 6.9-1.8 1.8-1.1 2.6-2.7 2.6-4.8zm36.5-31.9 13.6 34.7h.2l13.6-34.7h7.4v42.7h-5.8V190l.6-17.3h-.1l-13.8 34.2h-3.8l-13.8-34.2h-.1l.6 17.3v16.9h-5.8v-42.7h7.2zM1401 187h-19.5v15.2h22.5v4.5h-28.3V164h28v4.5h-22.2v13.8h19.5v4.7z"/><path class="st6" d="M1076.9 281h370.2v111h-370.2z"/><path d="M1125.8 340.7v17.1h-5.8v-42.7h16.3c4.6 0 8.1 1.2 10.6 3.5s3.8 5.4 3.8 9.3c0 3.9-1.3 7-3.8 9.3s-6.1 3.5-10.6 3.5h-10.5zm0-4.5h10.5c2.9 0 5-.8 6.5-2.3s2.1-3.5 2.1-5.9c0-2.4-.7-4.3-2.2-5.9-1.4-1.6-3.6-2.4-6.5-2.4h-10.5v16.5zm38.4 3.1v18.5h-5.8v-42.6h15.4c4.7 0 8.2 1 10.7 3.1s3.7 5.1 3.7 9c0 2.2-.6 4.1-1.7 5.7s-2.8 2.9-5 3.9c2.3.8 4 2 5.1 3.7s1.5 3.8 1.5 6.3v4c0 1.3.1 2.5.4 3.6s.8 1.9 1.5 2.6v.7h-5.9c-.8-.7-1.3-1.6-1.5-2.9s-.3-2.6-.3-4V347c0-2.3-.7-4.2-2-5.6s-3.2-2.1-5.4-2.1h-10.7zm0-4.5h9.1c3.3 0 5.6-.6 7-1.9 1.4-1.2 2.2-3.1 2.2-5.7 0-2.4-.7-4.3-2.1-5.6-1.4-1.3-3.6-2-6.5-2h-9.7v15.2zm59.3 3.3H1204v15.2h22.5v4.5h-28.3v-42.7h28v4.5H1204v13.8h19.5v4.7zm33 9c0-1.9-.7-3.6-2.2-4.9-1.5-1.3-4.1-2.4-7.8-3.3-4.5-1.1-8-2.7-10.6-4.8-2.5-2.1-3.8-4.7-3.8-7.9 0-3.3 1.4-6.1 4.1-8.3s6.3-3.3 10.6-3.3c4.7 0 8.4 1.3 11.1 3.8 2.8 2.6 4.1 5.5 4 8.9l-.1.2h-5.5c0-2.5-.8-4.5-2.5-6.1-1.7-1.5-4-2.3-7.1-2.3-2.9 0-5.1.6-6.6 1.9-1.5 1.3-2.3 3-2.3 5.1 0 1.9.8 3.4 2.5 4.6s4.4 2.3 8.1 3.3c4.5 1.1 7.9 2.8 10.3 4.9s3.5 4.9 3.5 8.1c0 3.4-1.4 6.2-4.2 8.3s-6.5 3.1-11 3.1c-4.3 0-8-1.2-11.3-3.5s-4.9-5.4-4.8-9.3l.1-.2h5.5c0 2.7 1 4.8 3 6.2s4.5 2.1 7.5 2.1c2.9 0 5.2-.6 6.9-1.8 1.7-1.1 2.6-2.7 2.6-4.8zm37.4 0c0-1.9-.7-3.6-2.2-4.9-1.5-1.3-4.1-2.4-7.8-3.3-4.5-1.1-8-2.7-10.6-4.8-2.5-2.1-3.8-4.7-3.8-7.9 0-3.3 1.4-6.1 4.1-8.3s6.3-3.3 10.6-3.3c4.7 0 8.4 1.3 11.1 3.8 2.8 2.6 4.1 5.5 4 8.9l-.1.2h-5.5c0-2.5-.8-4.5-2.5-6.1-1.7-1.5-4-2.3-7.1-2.3-2.9 0-5.1.6-6.6 1.9-1.5 1.3-2.3 3-2.3 5.1 0 1.9.8 3.4 2.5 4.6s4.4 2.3 8.1 3.3c4.5 1.1 7.9 2.8 10.3 4.9s3.5 4.9 3.5 8.1c0 3.4-1.4 6.2-4.2 8.3s-6.5 3.1-11 3.1c-4.3 0-8-1.2-11.3-3.5s-4.9-5.4-4.8-9.3l.1-.2h5.5c0 2.7 1 4.8 3 6.2s4.5 2.1 7.5 2.1c2.9 0 5.2-.6 6.9-1.8 1.8-1.1 2.6-2.7 2.6-4.8zm36.5-31.9 13.6 34.7h.2l13.6-34.7h7.4v42.7h-5.8V341l.6-17.3h-.1l-13.8 34.2h-3.8l-13.8-34.2h-.1l.6 17.3v16.9h-5.8v-42.7h7.2zm70.6 22.9h-19.5v15.2h22.5v4.5h-28.3v-42.7h28v4.5h-22.2v13.8h19.5v4.7z"/><path class="st6" d="M1076.9 432h370.2v111h-370.2z"/><path d="M1125.8 491.7v17.1h-5.8v-42.7h16.3c4.6 0 8.1 1.2 10.6 3.5s3.8 5.4 3.8 9.3c0 3.9-1.3 7-3.8 9.3s-6.1 3.5-10.6 3.5h-10.5zm0-4.5h10.5c2.9 0 5-.8 6.5-2.3s2.1-3.5 2.1-5.9c0-2.4-.7-4.3-2.2-5.9-1.4-1.6-3.6-2.4-6.5-2.4h-10.5v16.5zm38.4 3.2v18.5h-5.8v-42.6h15.4c4.7 0 8.2 1 10.7 3.1s3.7 5.1 3.7 9c0 2.2-.6 4.1-1.7 5.7s-2.8 2.9-5 3.9c2.3.8 4 2 5.1 3.7s1.5 3.8 1.5 6.3v4c0 1.3.1 2.5.4 3.6s.8 1.9 1.5 2.6v.7h-5.9c-.8-.7-1.3-1.6-1.5-2.9s-.3-2.6-.3-4v-4c0-2.3-.7-4.2-2-5.6s-3.2-2.1-5.4-2.1h-10.7zm0-4.6h9.1c3.3 0 5.6-.6 7-1.9 1.4-1.2 2.2-3.1 2.2-5.7 0-2.4-.7-4.3-2.1-5.6-1.4-1.3-3.6-2-6.5-2h-9.7v15.2zm59.3 3.3H1204v15.2h22.5v4.5h-28.3v-42.7h28v4.5H1204v13.8h19.5v4.7zm33 9c0-1.9-.7-3.6-2.2-4.9-1.5-1.3-4.1-2.4-7.8-3.3-4.5-1.1-8-2.7-10.6-4.8-2.5-2.1-3.8-4.7-3.8-7.9 0-3.3 1.4-6.1 4.1-8.3s6.3-3.3 10.6-3.3c4.7 0 8.4 1.3 11.1 3.8 2.8 2.6 4.1 5.5 4 8.9l-.1.2h-5.5c0-2.5-.8-4.5-2.5-6.1-1.7-1.5-4-2.3-7.1-2.3-2.9 0-5.1.6-6.6 1.9-1.5 1.3-2.3 3-2.3 5.1 0 1.9.8 3.4 2.5 4.6s4.4 2.3 8.1 3.3c4.5 1.1 7.9 2.8 10.3 4.9s3.5 4.9 3.5 8.1c0 3.4-1.4 6.2-4.2 8.3s-6.5 3.1-11 3.1c-4.3 0-8-1.2-11.3-3.5s-4.9-5.4-4.8-9.3l.1-.2h5.5c0 2.7 1 4.8 3 6.2s4.5 2.1 7.5 2.1c2.9 0 5.2-.6 6.9-1.8 1.7-1 2.6-2.7 2.6-4.8zm37.4 0c0-1.9-.7-3.6-2.2-4.9-1.5-1.3-4.1-2.4-7.8-3.3-4.5-1.1-8-2.7-10.6-4.8-2.5-2.1-3.8-4.7-3.8-7.9 0-3.3 1.4-6.1 4.1-8.3s6.3-3.3 10.6-3.3c4.7 0 8.4 1.3 11.1 3.8 2.8 2.6 4.1 5.5 4 8.9l-.1.2h-5.5c0-2.5-.8-4.5-2.5-6.1-1.7-1.5-4-2.3-7.1-2.3-2.9 0-5.1.6-6.6 1.9-1.5 1.3-2.3 3-2.3 5.1 0 1.9.8 3.4 2.5 4.6s4.4 2.3 8.1 3.3c4.5 1.1 7.9 2.8 10.3 4.9s3.5 4.9 3.5 8.1c0 3.4-1.4 6.2-4.2 8.3s-6.5 3.1-11 3.1c-4.3 0-8-1.2-11.3-3.5s-4.9-5.4-4.8-9.3l.1-.2h5.5c0 2.7 1 4.8 3 6.2s4.5 2.1 7.5 2.1c2.9 0 5.2-.6 6.9-1.8 1.8-1 2.6-2.7 2.6-4.8zm36.5-31.9 13.6 34.7h.2l13.6-34.7h7.4v42.7h-5.8V492l.6-17.3h-.1l-13.8 34.2h-3.8l-13.8-34.2h-.1l.6 17.3v16.9h-5.8v-42.7h7.2zm70.6 22.9h-19.5v15.2h22.5v4.5h-28.3v-42.7h28v4.5h-22.2v13.8h19.5v4.7z"/></svg>