<svg xmlns="http://www.w3.org/2000/svg" viewBox="0 0 1920 673" xml:space="preserve"><path fill="#a9acb5" d="M0 0h1920v673H0z"/><path d="M430.3 378.2h-16.7v-8.3h-8.3v-75.1H422v58.4h8.3v-25h8.3v25h8.3v-58.4h16.7v75.1h-8.3v8.3h-16.7v-16.7h-8.3v16.7zm66.7-58.4h25v50.1h8.3v8.3H497v-8.3h8.3v-41.7H497v-8.4zm8.4-25h16.7v16.7h-16.7v-16.7zm58.4 33.4h-8.3v-8.3h16.7v8.3h8.3v50.1h-16.7v-50.1zm16.7-8.4h25v8.3h8.3v50.1h-16.7v-50.1h-16.7v-8.3zm100.1 16.7h-8.3v8.3H664v8.3h-8.3v8.3h-8.3v8.3h-8.3v8.3h-8.3v-16.7h8.3V353h8.3v-8.3h8.3v-8.3h8.3v-8.3h8.3v-8.3h8.3v-8.3h8.3v16.7h-8.3v8.3zm75.1-25h-8.3v-8.3h-16.7v25h8.3v-8.3h8.3v25H739v-8.3h-8.3V370h8.3v8.3h-33.4V370h8.3v-66.8h-8.3v-8.3H764v25h-8.3v-8.4zm33.4 16.7h-8.3v-8.3h16.7v8.3h8.3v50.1h-16.7v-50.1zm16.7-8.4h25v8.3h8.3v50.1h-16.7v-50.1h-16.7v-8.3zm175.2 8.4h-8.3v16.7h8.3v8.3h8.3v25h-16.7v-25h-8.3v-8.3H956v33.4h-25V370h8.3v-66.8H931v-8.3h25v33.4h8.3V320h8.3v-25h16.7v25H981v8.2zm33.3-8.4h41.7v8.3h8.3v16.7h-41.7v25h25v-8.3h16.7v8.3h-8.3v8.3h-41.7v-8.3h-8.3v-41.7h8.3v-8.3zm8.4 16.7h25v-8.3h-25v8.3zm58.4 58.4h33.4v-8.3h8.3v-8.3h-33.4V370h-8.3v-50.1h16.7V370h25v-50.1h16.7v66.8h-8.3v8.3h-8.3v8.3h-41.7v-8.4zm150.2-41.7h16.7v16.7h25v-25h-8.3v-8.3H1248v-8.3h-8.3V320h-8.3v-16.7h8.3V295h41.7v8.3h8.3V320H1273v-16.7h-25V320h8.3v8.3h16.7v8.3h8.3v8.3h8.3v25h-8.3v8.3h-41.7v-8.3h-8.3v-16.7zm125.1 25h-16.7v-8.3h-8.3v8.3h-16.7v-8.3h-8.3v-50.1h16.7v41.7h8.3v-25h8.3v25h8.3v-41.7h16.7v50.1h-8.3v8.3zm58.4 0h-25v-8.3h-8.3v-25h8.3v-8.3h25v-8.3h-25V320h33.4v8.3h8.3V370h8.3v8.3h-16.7V370h-8.3l-.1-.1v-25H1398v25h16.7v8.3zm66.8-58.4h25v8.3h8.3v41.7h-8.3v8.3h-25v16.7h8.3v8.3h-33.4v-8.3h8.3V328h-8.3v-8.3h16.7v8.3h8.3l.1.1v41.7h16.7v-41.7h-16.7v-8.3z" fill="#180f84"/></svg>