<svg version="1.1" xmlns="http://www.w3.org/2000/svg" x="0" y="0" viewBox="0 0 1920 673" xml:space="preserve"><style type="text/css">.st0{fill:#68217a}.st1{fill:#fff}</style><path class="st0" d="M0 0h1920v673H0z"/><path class="st1" d="M643.6 0h35.2v673h-35.2zm105.5 0h35.2v673h-35.2zm105.4 0h35.2v673h-35.2zM960 0h35.2v673H960zm105.5 0h35.2v673h-35.2zm105.4 0h35.2v673h-35.2z"/><path class="st1" d="M644.035 617.765v-35.2h562v35.2zM644 512.3v-35.2h562v35.2zm-.033-105.467v-35.2h562v35.2zm.066-105.466v-35.2h562v35.2zM644 195.9v-35.2h562v35.2zm-.035-105.465v-35.2h562v35.2z"/><path class="st0" d="M821.7 434.6l-35.2-11.7V250.1l35.2-11.7 85.8 64.6L1050 162l85.4 36.3v276.3L1050 511 907.5 370l-85.8 64.6zm130-98.3l97.9 74.1V262.6l-97.9 73.7zm-130 51.4l51.8-51.4-51.8-51v102.4z"/><path class="st1" d="M1050 162l85.4 36.3v276.3L1050 511 907.5 370l-85.8 64.6-35.2-11.7V250.1l35.2-11.7 85.8 64.6L1050 162m-.4 248.4V262.6l-97.9 73.7 97.9 74.1m-227.9-22.7l51.8-51.4-51.8-51v102.4m220.4-267.2l-16.8 16.6-120.9 119.6-61.5-46.4-14.8-11.1-17.5 5.8-35.2 11.7-24 8v223.4l24 8 35.2 11.7 17.5 5.8 14.8-11.1 61.5-46.4 120.9 119.6 16.8 16.6 21.7-9.2 85.4-36.3 25.4-9.1V175l-25.4-9.1-85.4-36.3-21.7-9.1z"/></svg>