<svg xmlns="http://www.w3.org/2000/svg" viewBox="0 0 1920 673" xml:space="preserve"><path fill="#f7941e" d="M0 0h1920v673H0z"/><path d="M551.2 176.9h75.7V393c0 20-4.7 37.9-14 53.6-9.3 15.7-22.3 27.9-38.9 36.6-16.7 8.7-35.2 13-55.7 13-34.3 0-61-8.7-80-26s-28.6-41.8-28.6-73.5h76.1c0 14.4 2.5 24.9 7.5 31.4s13.3 9.7 25 9.7c10.5 0 18.6-3.9 24.3-11.8 5.7-7.9 8.5-18.9 8.5-33V176.9zM848.8 433h-104l-18.2 58.8h-81.1L761 176.9h71.4l116.4 314.9h-81.5L848.8 433zm-85.9-58.6h67.7l-34-109.2-33.7 109.2zm314.3 31.8 62.7-229.3h84.8l-106 314.9h-83.1l-105-314.9h84.1l62.5 229.3zm333.2 26.8h-104l-18.2 58.8H1207l115.5-314.9h71.4l116.4 314.9h-81.5l-18.4-58.8zm-85.9-58.6h67.7l-34-109.2-33.7 109.2z" fill="#f89f42"/><path d="M1062.6 474.9c2.9-3.3 5.9-6.9 8.8-10.6 6.1 3 13.9 5.2 23.6 5.2 27.3 0 65.6-20.2 80.2-52.6 8.3-18.5 8.8-36.9 1.3-50.5-4.5-8.3-14.1-18.8-34-21.9-10.1-1.6-18.7.7-25.8 4.9l.3-1.5c1.7-8.8-5-16.9-13.9-16.9h-286c-9 0-15.6 8.2-13.9 16.9 4 21 12.7 57.9 28.1 88.8 7.8 15.6 17 28 26.2 38.3-74 2.9-124.7 8.9-124.7 15.8 0 18.9 38.3 35.7 96.7 45.8l9 11.9c0 5.9 54.4 10.7 121.6 10.7s121.6-4.8 121.6-10.7l9-11.9c58.4-10.1 96.7-26.9 96.7-45.8-.1-7-50.8-13-124.8-15.9zm77.4-114.7c10.7 1.7 18.3 6.3 22.4 13.8 5 9.2 4.4 22.5-1.9 36.3-11.5 25.8-43.2 43.2-65.5 43.2-5.8 0-10.5-1.1-14.4-2.6 2.8-4.5 5.5-9.2 8.1-14.3 9.2-18.4 16-38.9 20.9-56.9 6-10.1 16.2-21.8 30.4-19.5zM907.4 249c-.2-2.8-.1-5.7.3-8.6.7-5.7 2.5-11.1 4.9-16.1 2.3-5 5.1-9.5 8.1-13.7 5.9-8.4 12.1-15.9 17.2-23.2 2.6-3.6 4.9-7.1 6.7-10.5 1.8-3.3 3.1-6.5 3.9-9.5.4-1.6.5-2.8.8-5.2.2-2.1.4-4.3.5-6.5.2-4.4.2-8.8 0-13.3-.5-9-1.8-18.2-4.4-27.8-.1-.3.1-.6.4-.6.2 0 .3 0 .4.1 2.1 1.5 4 3.3 5.8 5.1 1.8 1.9 3.4 3.9 4.9 6 3 4.2 5.6 8.8 7.7 13.6 2.1 4.8 3.7 9.9 4.8 15.1.3 1.3.5 2.6.8 3.9.2 1.3.4 2.6.6 4 .4 2.4.5 6 .1 9.1-.7 6.4-2.9 12.4-5.7 17.5-2.8 5.1-6.2 9.4-9.6 13.3-3.4 3.9-6.9 7.4-10.3 10.8-3.4 3.4-6.6 6.7-9.6 10-6 6.6-10.9 13.5-13 21-.5 1.9-.9 3.8-1.1 5.8-.1 1.1-.1 2.1-.1 3.2v3.3c.1 4.4.7 8.9 1.5 13.4.9 4.5 2 9 3.4 13.5s3 8.9 4.8 13.3c3.5 8.8 7.7 17.4 12.4 25.8.1.2.1.5-.2.7-.2.1-.5.1-.6-.1-6.4-7.3-12.1-15.2-17.3-23.5-5.1-8.4-9.7-17.2-13-26.7-1.7-4.8-3.1-9.7-4-14.9l-.6-3.9c-.3-1.8-.4-3.1-.5-4.4zm63.6-24.9c2.3-3.5 5-6.5 7.8-9.1 2.9-2.7 5.9-5 9.1-7.1 3.2-2.1 6.5-3.9 9.8-5.5 3.4-1.6 6.8-3 10.4-4.1.3-.1.6.1.6.3.1.2 0 .4-.2.5-5.7 4.5-11.2 9.2-16.2 14.3-2.5 2.5-4.8 5.1-6.8 7.8-1 1.3-2 2.7-2.9 4.1-.8 1.4-1.7 2.8-2.3 4.2l-.5 1.1-.4 1.1c-.3.7-.5 1.4-.7 2.1-.2.7-.4 1.4-.5 2.1-.1.7-.3 1.4-.3 2.1-.2 2.7 0 5.5 1 7.7.2.6.5 1.1.8 1.7.3.5.6 1.1 1 1.6.8 1.1 1.7 2.1 2.8 3.1 2.1 2 4.8 4 7.8 6 1.5 1 3 2.1 4.5 3.3 1.5 1.2 3.1 2.4 4.7 3.8 1.5 1.4 3.1 3 4.5 4.8 1.4 1.8 2.6 3.8 3.6 6s1.5 4.5 1.9 6.8c.1 1.2.2 2.3.2 3.4s-.1 2.3-.2 3.4c-.4 4.7-2.4 9-4.9 12.6-1.3 1.8-2.7 3.4-4.2 4.8-1.5 1.5-3.1 2.7-4.7 3.9-3.3 2.3-6.7 4.1-10.2 5.6-3.5 1.5-7.1 2.7-10.7 3.6-3.6.9-7.3 1.6-11 1.9-.3 0-.5-.2-.5-.5 0-.2.1-.4.3-.5 6.6-3.2 12.9-6.7 18.6-10.7 2.8-2 5.5-4.2 7.9-6.5 2.3-2.3 4.3-4.8 5.7-7.4.3-.7.7-1.3.9-1.9.1-.3.3-.6.4-1l.3-1c.1-.3.2-.7.2-1l.2-1c0-.7.2-1.3.1-2 0-.7 0-1.3-.1-2 0-.7-.2-1.3-.3-2-.3-1.3-.7-2.5-1.3-3.6-2.2-4.4-7.4-8.1-13.4-12.3-1.5-1-3.1-2.2-4.6-3.4-1.6-1.2-3.2-2.6-4.7-4.1-1.5-1.5-3-3.3-4.3-5.2-1.3-1.9-2.4-4.1-3.1-6.4-.8-2.3-1.1-4.7-1.2-7 0-1.1-.1-2.3.1-3.4.1-.6.1-1.1.2-1.7l.3-1.7c.2-1.1.5-2.2.8-3.3.4-1 .7-2.1 1.1-3.1.5-1 .9-2 1.4-2.9l.8-1.4.4-.9z" fill="#fff"/></svg>