<svg xmlns="http://www.w3.org/2000/svg" viewBox="0 0 1920 673" xml:space="preserve"><style>.st3{fill:#fff}.st4{fill:#7cb342}.st5{fill:#8bc34a}</style><path d="M0 0h1920v673H0V0z" fill="#61922d"/><g opacity=".5"><path d="M1098.1 66.7c-133.3 0-241.5 108.2-241.5 241.5h483.1c.2-133.5-108-241.5-241.6-241.5zm0 241.6H856.6c0 133.3 108.2 241.5 241.5 241.5s241.5-108.2 241.5-241.5h-241.5z" opacity=".1" fill="#fff"/><path class="st3" d="M1291.8 561.2c-.2-2.2-.8-4.1-2-6.1l-70.2-121.8-23.3-40.6-43.5-75.1-33.2 33.2 40.8 70.9 22.4 38.9 67.9 117.2c1.1 2 2.6 3.5 4.3 4.5l33.8 23.1c1.3.8 2.8.8 4.1.2 1.3-.8 2-2.2 2-3.7l-3.1-40.7z"/><path class="st3" d="M1227.4 308.3c0 32-11.9 61.5-31.4 84.3-10.1 11.7-22 21.6-35.6 29-18.4 10.3-39.7 16-62.4 16s-43.8-5.9-62.2-16l40.8-70.9-33.1-33.1-137 237.5c-1.1 2-1.8 3.9-2 6.1l-3.2 40.9c-.2 1.5.6 2.8 2 3.7 1.3.8 2.8.6 4.1-.2l33.8-22.9c1.8-1.3 3.3-2.8 4.3-4.5l67.9-117.5c25.1 14 54 22.2 84.7 22.2s59.8-8.1 84.7-22.2c13.4-7.5 25.7-16.7 36.5-27.2 32.5-31.6 52.9-76 52.9-124.9l-44.8-.3z"/><path class="st3" d="M1140.3 218.5h-14v-45.3h-56.1v45.3H1056c-13.8 0-25.3 11.4-25.3 25.3V301h.2c-.2 2.2 1.1 4.5 3.9 7.5l50.7 50.7c3.5 3.5 8.1 5.3 12.5 5.3v-.2l.2.2c4.5 0 9.3-1.8 12.5-5.3l50.7-50.7c2.8-2.8 3.9-5.5 3.9-7.5h.2v-57c.1-14.2-11.2-25.5-25.2-25.5zm-41.9 89.8h-.2c-18.4 0-33.6-15.2-33.6-33.8 0-18.7 15.2-33.8 33.6-33.8v-.4l.2.4c18.4.2 33.6 15.2 33.6 33.8s-15.2 33.5-33.6 33.8z"/><path class="st3" d="M1098.1 87.8c29.8 0 58.6 5.8 85.8 17.3 26.2 11.1 49.8 27 70.1 47.2 20.2 20.2 36.1 43.8 47.2 70.1 11.5 27.2 17.3 56.1 17.3 85.8s-5.8 58.6-17.3 85.8c-11.1 26.2-27 49.8-47.2 70.1-20.2 20.2-43.8 36.1-70.1 47.2-27.2 11.5-56.1 17.3-85.8 17.3s-58.6-5.8-85.8-17.3c-26.2-11.1-49.8-27-70.1-47.2-20.2-20.2-36.1-43.8-47.2-70.1-11.5-27.2-17.3-56.1-17.3-85.8s5.8-58.6 17.3-85.8c11.1-26.2 27-49.8 47.2-70.1s43.8-36.1 70.1-47.2c27.2-11.5 56-17.3 85.8-17.3m0-21.1c-133.4 0-241.5 108.1-241.5 241.5s108.1 241.5 241.5 241.5 241.5-108.1 241.5-241.5-108-241.5-241.5-241.5z"/></g><path class="st4" d="M568.9 292.7c0-38.6-31.3-69.4-69.4-69.9l-.5-.8v.9c-38.1 0-69.4 31.3-69.4 69.9s31.3 69.9 69.4 69.9h.5c38.1-.6 69.4-31.4 69.4-70z"/><path class="st4" d="M360.2 347.6h-.5V229.2c0-28.6 23.6-52.2 52.2-52.2h29.5V83.5h115.7V177h29c29 0 52.2 23.6 52.6 52.6v118h-.5c0 4-2.2 9.2-7.7 15H998C998.3 219.7 938.4 90.9 842.2 0H156.4C60.1 91 0 219.9 0 362.6h367.9c-5.5-5.7-8.1-10.5-7.7-15z"/><path class="st5" d="m455 450.2-84.4 146.5c37.7 20.9 81.7 33.1 128.4 33.1s90.7-11.8 128.8-33.1l-84.4-146.5 68.5-68.5 89.6 154.8c40.2-47.1 64.6-107.8 64.6-173.9H630.4c-.1.2-.3.3-.4.5L525.4 467.9c-6.8 7.3-16.3 10.9-25.9 10.9l-.5-.5v.5c-9.1 0-18.6-3.6-25.9-10.9L368.4 363.1c-.2-.2-.3-.3-.4-.5H0C0 479.9 40.6 587.8 108.4 673h109.8l168.3-291.3 68.5 68.5z"/><path class="st5" d="m766.3 362.6 93 .5c0 101.1-42.1 192.7-109.2 258l30 52h109.6c67.8-85.2 108.4-193.1 108.4-310.4l-231.8-.1z"/><path d="m543.5 450.2 84.4 146.5c28.1-15.4 52.6-35.8 73.5-59.9l.3-.3L612 381.7l-68.5 68.5zm206.4 171c-20.1 19.7-42.9 37.2-67.6 51.8H780l-30-52c0 .1 0 .1-.1.2z" fill="#e1e1e1"/><path d="M766.3 362.6c0 66.1-24.4 126.8-64.6 173.9l-.3.3c-20.9 24-45.4 44.5-73.5 59.9-38.1 21.3-82.1 33.1-128.8 33.1s-90.7-12.2-128.4-33.1L455 450.2l-68.5-68.5L218.2 673h464.1c24.7-14.6 47.4-32.1 67.6-51.8l.2-.2c67-65.3 109.2-156.9 109.2-258l-93-.4z" fill="#f1f1f1"/><path d="M586.1 177h-29V83.5H441.4V177h-29.5c-28.6 0-52.2 23.6-52.2 52.2v118.4h.5c-.4 4.4 2.1 9.3 7.7 15 .1.2.3.3.4.5l104.8 104.8c7.3 7.3 16.8 10.9 25.9 10.9v-.5l.5.5c9.5 0 19.1-3.6 25.9-10.9l104.8-104.8c.2-.2.3-.3.4-.5 5.6-5.7 7.7-11 7.7-15h.5v-118c-.5-29-23.6-52.6-52.7-52.6zM499 362.6c-38.1 0-69.4-31.3-69.4-69.9s31.3-69.9 69.4-69.9v-.8l.5.9c38.1.5 69.4 31.3 69.4 69.9s-31.3 69.4-69.4 69.9h-.5v-.1z" fill="#646464"/><path class="st3" d="M1414 503.8v101.1h-22.9V503.8h22.9z"/></svg>