<svg xmlns="http://www.w3.org/2000/svg" viewBox="0 0 1920 673" xml:space="preserve"><style>.st1{fill:#36434f}.st2{fill:#999}.st3{fill:#122a3a}.st4{fill:#cc584c}.st5{fill:#4caf50}.st6{fill:#eec646}.st7{opacity:.15;enable-background:new}.st8{fill:#b24b53}.st9{fill:#2b353f}.st10{fill:#667e8e}.st11{fill:#647b8b}.st12{fill:#607786}.st13{enable-background:new}.st14{fill:#fff}</style><path d="M0 0h1920v673H0V0z" fill="#48a5b9"/><path class="st1" d="M559.8 673H210.7c-5.1 0-9.2-4.1-9.2-9.2V94.2c0-5.1 4.1-9.2 9.2-9.2h349.1c5.1 0 9.2 4.1 9.2 9.2v569.6c0 5.1-4.1 9.2-9.2 9.2z"/><path class="st2" d="M253.2 218.2h264.1v27.6H253.2v-27.6z"/><path class="st1" d="M290.5 227.4h1.1v3.4h-5.7v-3.4h1.1l1.1-2.3h1.1l1.3 2.3zm6.9-2.3h-1.1l-1.1 2.3h-1.1v3.4h5.7v-3.4h-1.1l-1.3-2.3zm8 0h-1.1l-1.1 2.3H302v3.4h5.7v-3.4h-1.1l-1.2-2.3zm8.1 0h-1.1l-1.1 2.3H310v3.4h5.7v-3.4h-1.1l-1.1-2.3zm8 0h-1.1l-1.1 2.3h-1.1v3.4h5.7v-3.4h-1.1l-1.3-2.3zm8.1 0h-1.1l-1.1 2.3h-1.1v3.4h5.7v-3.4h-1.1l-1.3-2.3zm8 0h-1.1l-1.1 2.3h-1.1v3.4h5.7v-3.4h-1.1l-1.3-2.3zm8 0h-1.1l-1.1 2.3h-1.1v3.4h5.7v-3.4h-1.1l-1.3-2.3zm8.1 0h-1.1l-1.1 2.3h-1.1v3.4h5.7v-3.4H355l-1.3-2.3zm8 0h-1.1l-1.1 2.3h-1.1v3.4h5.7v-3.4H363l-1.3-2.3zm8 0h-1.1l-1.1 2.3h-1.1v3.4h5.7v-3.4H371l-1.3-2.3zm8.1 0h-1.1l-1.1 2.3h-1.1v3.4h5.7v-3.4h-1.1l-1.3-2.3zm8 0h-1.1l-1.1 2.3h-1.1v3.4h5.7v-3.4H387l-1.2-2.3zm8.1 0h-1.1l-1.1 2.3h-1.1v3.4h5.7v-3.4H395l-1.1-2.3zm8 0h-1.1l-1.1 2.3h-1.1v3.4h5.7v-3.4h-1.1l-1.3-2.3zm8 0h-1.1l-1.1 2.3h-1.1v3.4h5.7v-3.4h-1.1l-1.3-2.3zm8.1 0h-1.1l-1.1 2.3h-1.1v3.4h5.7v-3.4h-1.1l-1.3-2.3zm8 0h-1.1l-1.1 2.3h-1.1v3.4h5.7v-3.4h-1.1l-1.3-2.3zm8.1 0H433l-1.1 2.3h-1.1v3.4h5.7v-3.4h-1.1l-1.3-2.3zm8 0H441l-1.1 2.3h-1.1v3.4h5.7v-3.4h-1.1l-1.3-2.3zm8 0H449l-1.1 2.3h-1.1v3.4h5.7v-3.4h-1.1l-1.3-2.3zm8.1 0H457l-1.1 2.3h-1.1v3.4h5.7v-3.4h-1.1l-1.2-2.3zm8 0h-1.1l-1.1 2.3h-1.1v3.4h5.7v-3.4h-1.1l-1.3-2.3zm8.1 0h-1.1l-1.1 2.3H471v3.4h5.7v-3.4h-1.1l-1.3-2.3zm9.1 2.3-1.1-2.3h-1.1l-1.1 2.3H479v3.4h5.7v-3.4h-1.3zm-194 12.6h-1.1l-1.1-2.3h-1.1v-3.4h5.7v3.4h-1.1l-1.3 2.3zm9.1-2.3h1.1v-3.4h-5.7v3.4h1.1l1.1 2.3h1.1l1.3-2.3zm8.1 0h1.1v-3.4H302v3.4h1.1l1.1 2.3h1.1l1.3-2.3zm8 0h1.1v-3.4H310v3.4h1.1l1.1 2.3h1.1l1.3-2.3zm8.1 0h1.1v-3.4h-5.7v3.4h1.1l1.1 2.3h1.1l1.3-2.3zm8 0h1.1v-3.4h-5.7v3.4h1.1l1.1 2.3h1.1l1.3-2.3zm8 0h1.1v-3.4h-5.7v3.4h1.1l1.1 2.3h1.1l1.3-2.3zm8.1 0h1.1v-3.4h-5.7v3.4h1.1l1.1 2.3h1.1l1.3-2.3zm8 0h1.1v-3.4h-5.7v3.4h1.1l1.1 2.3h1.1l1.3-2.3zm8.1 0h1.1v-3.4h-5.7v3.4h1.1l1.1 2.3h1.1l1.3-2.3zm8 0h1.1v-3.4h-5.7v3.4h1.1l1.1 2.3h1.1l1.3-2.3zm8 0h1.1v-3.4h-5.7v3.4h1.1l1.1 2.3h1.1l1.3-2.3zm8.1 0h1.1v-3.4h-5.7v3.4h1.1l1.1 2.3h1.1l1.3-2.3zm8 0h1.1v-3.4h-5.7v3.4h1.1l1.1 2.3h1.1l1.3-2.3zm8.1 0h1.1v-3.4h-5.7v3.4h1.1l1.1 2.3h1.1l1.3-2.3zm8 0h1.1v-3.4h-5.7v3.4h1.1l1.1 2.3h1.1l1.3-2.3zm8 0h1.1v-3.4h-5.7v3.4h1.1l1.1 2.3h1.1l1.3-2.3zm8.1 0h1.1v-3.4h-5.7v3.4h1.1l1.1 2.3h1.1l1.3-2.3zm8 0h1.1v-3.4h-5.7v3.4h1.1l1.1 2.3h1.1l1.3-2.3zm8 0h1.1v-3.4h-5.7v3.4h1.1l1.1 2.3h1.1l1.3-2.3zm8.1 0h1.1v-3.4h-5.7v3.4h1.1l1.1 2.3h1.1l1.3-2.3zm8 0h1.1v-3.4h-5.7v3.4h1.1l1.1 2.3h1.1l1.3-2.3zm8.1 0h1.1v-3.4h-5.7v3.4h1.1l1.1 2.3h1.1l1.3-2.3zm8 0h1.1v-3.4h-5.7v3.4h1.1l1.1 2.3h1.1l1.3-2.3zm9.2 0v-3.4h-5.7v3.4h1.1l1.1 2.3h1.1l1.1-2.3h1.3z"/><circle class="st1" cx="263.5" cy="223.4" r="2.9"/><circle class="st1" cx="263.5" cy="240.6" r="2.9"/><circle class="st1" cx="507" cy="223.4" r="2.9"/><circle class="st1" cx="507" cy="240.6" r="2.9"/><path class="st2" d="M253.2 252.7h264.1v27.6H253.2v-27.6z"/><path class="st1" d="M290.5 261.9h1.1v3.4h-5.7v-3.4h1.1l1.1-2.3h1.1l1.3 2.3zm6.9-2.3h-1.1l-1.1 2.3h-1.1v3.4h5.7v-3.4h-1.1l-1.3-2.3zm8 0h-1.1l-1.1 2.3H302v3.4h5.7v-3.4h-1.1l-1.2-2.3zm8.1 0h-1.1l-1.1 2.3H310v3.4h5.7v-3.4h-1.1l-1.1-2.3zm8 0h-1.1l-1.1 2.3h-1.1v3.4h5.7v-3.4h-1.1l-1.3-2.3zm8.1 0h-1.1l-1.1 2.3h-1.1v3.4h5.7v-3.4h-1.1l-1.3-2.3zm8 0h-1.1l-1.1 2.3h-1.1v3.4h5.7v-3.4h-1.1l-1.3-2.3zm8 0h-1.1l-1.1 2.3h-1.1v3.4h5.7v-3.4h-1.1l-1.3-2.3zm8.1 0h-1.1l-1.1 2.3h-1.1v3.4h5.7v-3.4H355l-1.3-2.3zm8 0h-1.1l-1.1 2.3h-1.1v3.4h5.7v-3.4H363l-1.3-2.3zm8 0h-1.1l-1.1 2.3h-1.1v3.4h5.7v-3.4H371l-1.3-2.3zm8.1 0h-1.1l-1.1 2.3h-1.1v3.4h5.7v-3.4h-1.1l-1.3-2.3zm8 0h-1.1l-1.1 2.3h-1.1v3.4h5.7v-3.4H387l-1.2-2.3zm8.1 0h-1.1l-1.1 2.3h-1.1v3.4h5.7v-3.4H395l-1.1-2.3zm8 0h-1.1l-1.1 2.3h-1.1v3.4h5.7v-3.4h-1.1l-1.3-2.3zm8 0h-1.1l-1.1 2.3h-1.1v3.4h5.7v-3.4h-1.1l-1.3-2.3zm8.1 0h-1.1l-1.1 2.3h-1.1v3.4h5.7v-3.4h-1.1l-1.3-2.3zm8 0h-1.1l-1.1 2.3h-1.1v3.4h5.7v-3.4h-1.1l-1.3-2.3zm8.1 0H433l-1.1 2.3h-1.1v3.4h5.7v-3.4h-1.1l-1.3-2.3zm8 0H441l-1.1 2.3h-1.1v3.4h5.7v-3.4h-1.1l-1.3-2.3zm8 0H449l-1.1 2.3h-1.1v3.4h5.7v-3.4h-1.1l-1.3-2.3zm8.1 0H457l-1.1 2.3h-1.1v3.4h5.7v-3.4h-1.1l-1.2-2.3zm8 0h-1.1l-1.1 2.3h-1.1v3.4h5.7v-3.4h-1.1l-1.3-2.3zm8.1 0h-1.1l-1.1 2.3H471v3.4h5.7v-3.4h-1.1l-1.3-2.3zm9.1 2.3-1.1-2.3h-1.1l-1.1 2.3H479v3.4h5.7v-3.4h-1.3zm-194 12.6h-1.1l-1.1-2.3h-1.1v-3.4h5.7v3.4h-1.1l-1.3 2.3zm9.1-2.3h1.1v-3.4h-5.7v3.4h1.1l1.1 2.3h1.1l1.3-2.3zm8.1 0h1.1v-3.4H302v3.4h1.1l1.1 2.3h1.1l1.3-2.3zm8 0h1.1v-3.4H310v3.4h1.1l1.1 2.3h1.1l1.3-2.3zm8.1 0h1.1v-3.4h-5.7v3.4h1.1l1.1 2.3h1.1l1.3-2.3zm8 0h1.1v-3.4h-5.7v3.4h1.1l1.1 2.3h1.1l1.3-2.3zm8 0h1.1v-3.4h-5.7v3.4h1.1l1.1 2.3h1.1l1.3-2.3zm8.1 0h1.1v-3.4h-5.7v3.4h1.1l1.1 2.3h1.1l1.3-2.3zm8 0h1.1v-3.4h-5.7v3.4h1.1l1.1 2.3h1.1l1.3-2.3zm8.1 0h1.1v-3.4h-5.7v3.4h1.1l1.1 2.3h1.1l1.3-2.3zm8 0h1.1v-3.4h-5.7v3.4h1.1l1.1 2.3h1.1l1.3-2.3zm8 0h1.1v-3.4h-5.7v3.4h1.1l1.1 2.3h1.1l1.3-2.3zm8.1 0h1.1v-3.4h-5.7v3.4h1.1l1.1 2.3h1.1l1.3-2.3zm8 0h1.1v-3.4h-5.7v3.4h1.1l1.1 2.3h1.1l1.3-2.3zm8.1 0h1.1v-3.4h-5.7v3.4h1.1l1.1 2.3h1.1l1.3-2.3zm8 0h1.1v-3.4h-5.7v3.4h1.1l1.1 2.3h1.1l1.3-2.3zm8 0h1.1v-3.4h-5.7v3.4h1.1l1.1 2.3h1.1l1.3-2.3zm8.1 0h1.1v-3.4h-5.7v3.4h1.1l1.1 2.3h1.1l1.3-2.3zm8 0h1.1v-3.4h-5.7v3.4h1.1l1.1 2.3h1.1l1.3-2.3zm8 0h1.1v-3.4h-5.7v3.4h1.1l1.1 2.3h1.1l1.3-2.3zm8.1 0h1.1v-3.4h-5.7v3.4h1.1l1.1 2.3h1.1l1.3-2.3zm8 0h1.1v-3.4h-5.7v3.4h1.1l1.1 2.3h1.1l1.3-2.3zm8.1 0h1.1v-3.4h-5.7v3.4h1.1l1.1 2.3h1.1l1.3-2.3zm8 0h1.1v-3.4h-5.7v3.4h1.1l1.1 2.3h1.1l1.3-2.3zm9.2 0v-3.4h-5.7v3.4h1.1l1.1 2.3h1.1l1.1-2.3h1.3z"/><circle class="st1" cx="263.5" cy="257.8" r="2.9"/><circle class="st1" cx="263.5" cy="275.1" r="2.9"/><circle class="st1" cx="507" cy="257.8" r="2.9"/><circle class="st1" cx="507" cy="275.1" r="2.9"/><path class="st2" d="M253.2 287.1h264.1v27.6H253.2v-27.6z"/><path class="st1" d="M290.5 296.3h1.1v3.4h-5.7v-3.4h1.1l1.1-2.3h1.1l1.3 2.3zm6.9-2.3h-1.1l-1.1 2.3h-1.1v3.4h5.7v-3.4h-1.1l-1.3-2.3zm8 0h-1.1l-1.1 2.3H302v3.4h5.7v-3.4h-1.1l-1.2-2.3zm8.1 0h-1.1l-1.1 2.3H310v3.4h5.7v-3.4h-1.1l-1.1-2.3zm8 0h-1.1l-1.1 2.3h-1.1v3.4h5.7v-3.4h-1.1l-1.3-2.3zm8.1 0h-1.1l-1.1 2.3h-1.1v3.4h5.7v-3.4h-1.1l-1.3-2.3zm8 0h-1.1l-1.1 2.3h-1.1v3.4h5.7v-3.4h-1.1l-1.3-2.3zm8 0h-1.1l-1.1 2.3h-1.1v3.4h5.7v-3.4h-1.1l-1.3-2.3zm8.1 0h-1.1l-1.1 2.3h-1.1v3.4h5.7v-3.4H355l-1.3-2.3zm8 0h-1.1l-1.1 2.3h-1.1v3.4h5.7v-3.4H363l-1.3-2.3zm8 0h-1.1l-1.1 2.3h-1.1v3.4h5.7v-3.4H371l-1.3-2.3zm8.1 0h-1.1l-1.1 2.3h-1.1v3.4h5.7v-3.4h-1.1l-1.3-2.3zm8 0h-1.1l-1.1 2.3h-1.1v3.4h5.7v-3.4H387l-1.2-2.3zm8.1 0h-1.1l-1.1 2.3h-1.1v3.4h5.7v-3.4H395l-1.1-2.3zm8 0h-1.1l-1.1 2.3h-1.1v3.4h5.7v-3.4h-1.1l-1.3-2.3zm8 0h-1.1l-1.1 2.3h-1.1v3.4h5.7v-3.4h-1.1l-1.3-2.3zm8.1 0h-1.1l-1.1 2.3h-1.1v3.4h5.7v-3.4h-1.1L418 294zm8 0h-1.1l-1.1 2.3h-1.1v3.4h5.7v-3.4h-1.1L426 294zm8.1 0H433l-1.1 2.3h-1.1v3.4h5.7v-3.4h-1.1l-1.3-2.3zm8 0H441l-1.1 2.3h-1.1v3.4h5.7v-3.4h-1.1l-1.3-2.3zm8 0H449l-1.1 2.3h-1.1v3.4h5.7v-3.4h-1.1l-1.3-2.3zm8.1 0H457l-1.1 2.3h-1.1v3.4h5.7v-3.4h-1.1l-1.2-2.3zm8 0h-1.1l-1.1 2.3h-1.1v3.4h5.7v-3.4h-1.1l-1.3-2.3zm8.1 0h-1.1l-1.1 2.3H471v3.4h5.7v-3.4h-1.1l-1.3-2.3zm9.1 2.3-1.1-2.3h-1.1l-1.1 2.3H479v3.4h5.7v-3.4h-1.3zm-194 12.6h-1.1l-1.1-2.3h-1.1v-3.4h5.7v3.4h-1.1l-1.3 2.3zm9.1-2.3h1.1v-3.4h-5.7v3.4h1.1l1.1 2.3h1.1l1.3-2.3zm8.1 0h1.1v-3.4H302v3.4h1.1l1.1 2.3h1.1l1.3-2.3zm8 0h1.1v-3.4H310v3.4h1.1l1.1 2.3h1.1l1.3-2.3zm8.1 0h1.1v-3.4h-5.7v3.4h1.1l1.1 2.3h1.1l1.3-2.3zm8 0h1.1v-3.4h-5.7v3.4h1.1l1.1 2.3h1.1l1.3-2.3zm8 0h1.1v-3.4h-5.7v3.4h1.1l1.1 2.3h1.1l1.3-2.3zm8.1 0h1.1v-3.4h-5.7v3.4h1.1l1.1 2.3h1.1l1.3-2.3zm8 0h1.1v-3.4h-5.7v3.4h1.1l1.1 2.3h1.1l1.3-2.3zm8.1 0h1.1v-3.4h-5.7v3.4h1.1l1.1 2.3h1.1l1.3-2.3zm8 0h1.1v-3.4h-5.7v3.4h1.1l1.1 2.3h1.1l1.3-2.3zm8 0h1.1v-3.4h-5.7v3.4h1.1l1.1 2.3h1.1l1.3-2.3zm8.1 0h1.1v-3.4h-5.7v3.4h1.1l1.1 2.3h1.1l1.3-2.3zm8 0h1.1v-3.4h-5.7v3.4h1.1l1.1 2.3h1.1l1.3-2.3zm8.1 0h1.1v-3.4h-5.7v3.4h1.1l1.1 2.3h1.1l1.3-2.3zm8 0h1.1v-3.4h-5.7v3.4h1.1l1.1 2.3h1.1l1.3-2.3zm8 0h1.1v-3.4h-5.7v3.4h1.1l1.1 2.3h1.1l1.3-2.3zm8.1 0h1.1v-3.4h-5.7v3.4h1.1l1.1 2.3h1.1l1.3-2.3zm8 0h1.1v-3.4h-5.7v3.4h1.1l1.1 2.3h1.1l1.3-2.3zm8 0h1.1v-3.4h-5.7v3.4h1.1l1.1 2.3h1.1l1.3-2.3zm8.1 0h1.1v-3.4h-5.7v3.4h1.1l1.1 2.3h1.1l1.3-2.3zm8 0h1.1v-3.4h-5.7v3.4h1.1l1.1 2.3h1.1l1.3-2.3zm8.1 0h1.1v-3.4h-5.7v3.4h1.1l1.1 2.3h1.1l1.3-2.3zm8 0h1.1v-3.4h-5.7v3.4h1.1l1.1 2.3h1.1l1.3-2.3zm9.2 0v-3.4h-5.7v3.4h1.1l1.1 2.3h1.1l1.1-2.3h1.3z"/><circle class="st1" cx="263.5" cy="292.3" r="2.9"/><circle class="st1" cx="263.5" cy="309.5" r="2.9"/><circle class="st1" cx="507" cy="292.3" r="2.9"/><circle class="st1" cx="507" cy="309.5" r="2.9"/><path class="st3" d="M253.2 493.8h264.1v41.3H253.2v-41.3z"/><circle class="st1" cx="263.5" cy="499" r="2.9"/><circle class="st1" cx="263.5" cy="530" r="2.9"/><circle class="st1" cx="507" cy="499" r="2.9"/><circle class="st1" cx="507" cy="530" r="2.9"/><path class="st4" d="M274.4 511.1H496v9.2H274.4v-9.2z"/><path class="st2" d="M461 528.3h-18.4c-2.5 0-4.6-2.1-4.6-4.6v-18.4c0-2.5 2.1-4.6 4.6-4.6H461c2.5 0 4.6 2.1 4.6 4.6v18.4c0 2.5-2 4.6-4.6 4.6z"/><path class="st3" d="M253.2 542.1h264.1v41.3H253.2v-41.3z"/><circle class="st1" cx="263.5" cy="547.2" r="2.9"/><circle class="st1" cx="263.5" cy="578.3" r="2.9"/><circle class="st1" cx="507" cy="547.2" r="2.9"/><circle class="st1" cx="507" cy="578.3" r="2.9"/><path class="st4" d="M274.4 559.3H496v9.2H274.4v-9.2z"/><path class="st2" d="M461 576.5h-18.4c-2.5 0-4.6-2.1-4.6-4.6v-18.4c0-2.5 2.1-4.6 4.6-4.6H461c2.5 0 4.6 2.1 4.6 4.6v18.4c0 2.6-2 4.6-4.6 4.6z"/><path class="st3" d="M253.2 590.3h264.1v41.3H253.2v-41.3z"/><circle class="st1" cx="263.5" cy="595.5" r="2.9"/><circle class="st1" cx="263.5" cy="626.5" r="2.9"/><circle class="st1" cx="507" cy="595.5" r="2.9"/><circle class="st1" cx="507" cy="626.5" r="2.9"/><path class="st4" d="M274.4 607.5H496v9.2H274.4v-9.2z"/><path class="st2" d="M461 624.8h-18.4c-2.5 0-4.6-2.1-4.6-4.6v-18.4c0-2.5 2.1-4.6 4.6-4.6H461c2.5 0 4.6 2.1 4.6 4.6v18.4c0 2.5-2 4.6-4.6 4.6z"/><path class="st3" d="M253.2 379h264.1v27.6H253.2V379z"/><circle class="st1" cx="263.5" cy="384.2" r="2.9"/><circle class="st1" cx="263.5" cy="401.4" r="2.9"/><circle class="st1" cx="507" cy="384.2" r="2.9"/><circle class="st1" cx="507" cy="401.4" r="2.9"/><circle class="st4" cx="292.8" cy="392.8" r="6.3"/><circle class="st5" cx="311.2" cy="392.8" r="6.3"/><circle class="st6" cx="356" cy="392.8" r="6.3"/><circle class="st6" cx="374.3" cy="392.8" r="6.3"/><path class="st3" d="M253.2 413.5h264.1V441H253.2v-27.5z"/><circle class="st1" cx="263.5" cy="418.6" r="2.9"/><circle class="st1" cx="263.5" cy="435.8" r="2.9"/><circle class="st1" cx="507" cy="418.6" r="2.9"/><circle class="st1" cx="507" cy="435.8" r="2.9"/><circle class="st4" cx="292.8" cy="427.2" r="6.3"/><circle class="st5" cx="311.2" cy="427.2" r="6.3"/><circle class="st6" cx="356" cy="427.2" r="6.3"/><circle class="st6" cx="374.3" cy="427.2" r="6.3"/><path class="st3" d="M253.2 447.9h264.1v27.6H253.2v-27.6z"/><circle class="st1" cx="263.5" cy="453.1" r="2.9"/><circle class="st1" cx="263.5" cy="470.3" r="2.9"/><circle class="st1" cx="507" cy="453.1" r="2.9"/><circle class="st1" cx="507" cy="470.3" r="2.9"/><circle class="st2" cx="292.8" cy="461.7" r="6.3"/><circle class="st2" cx="311.2" cy="461.7" r="6.3"/><circle class="st2" cx="356" cy="461.7" r="6.3"/><circle class="st2" cx="374.3" cy="461.7" r="6.3"/><path class="st3" d="M253.2 172.3h264.1v27.6H253.2v-27.6z"/><circle class="st1" cx="263.5" cy="177.4" r="2.9"/><circle class="st1" cx="263.5" cy="194.7" r="2.9"/><circle class="st1" cx="507" cy="177.4" r="2.9"/><circle class="st1" cx="507" cy="194.7" r="2.9"/><path class="st2" d="M331 179.5c-1.7-1.7-4-2.6-6.5-2.6s-4.7.9-6.5 2.6c-1.7 1.7-2.6 4-2.6 6.5s.9 4.7 2.6 6.5c1.7 1.7 4 2.6 6.5 2.6s4.7-.9 6.5-2.6 2.6-4 2.6-6.5-.8-4.6-2.6-6.5z"/><path class="st3" d="M322.5 184.1c-.5.5-1.3.5-1.7 0-.5-.5-.5-1.3 0-1.7.5-.5 1.3-.5 1.7 0 .5.4.5 1.3 0 1.7zm5.7 3.9c-.5-.5-1.3-.5-1.7 0-.5.5-.5 1.3 0 1.7.5.5 1.3.5 1.7 0 .4-.4.4-1.2 0-1.7z"/><path class="st2" d="M354 179.5c-1.7-1.7-4-2.6-6.5-2.6s-4.7.9-6.5 2.6c-1.7 1.7-2.6 4-2.6 6.5s.9 4.7 2.6 6.5c1.7 1.7 4 2.6 6.5 2.6s4.7-.9 6.5-2.6 2.6-4 2.6-6.5-.9-4.6-2.6-6.5z"/><path class="st3" d="M345.5 184.1c-.5.5-1.3.5-1.7 0-.5-.5-.5-1.3 0-1.7.5-.5 1.3-.5 1.7 0 .5.4.5 1.3 0 1.7zm5.6 3.9c-.5-.5-1.3-.5-1.7 0-.5.5-.5 1.3 0 1.7.5.5 1.3.5 1.7 0 .5-.4.5-1.2 0-1.7z"/><path class="st2" d="M377 179.5c-1.7-1.7-4-2.6-6.5-2.6s-4.7.9-6.5 2.6c-1.7 1.7-2.6 4-2.6 6.5s.9 4.7 2.6 6.5c1.7 1.7 4 2.6 6.5 2.6s4.7-.9 6.5-2.6 2.6-4 2.6-6.5-.9-4.6-2.6-6.5z"/><path class="st3" d="M368.5 184.1c-.5.5-1.3.5-1.7 0-.5-.5-.5-1.3 0-1.7.5-.5 1.3-.5 1.7 0 .4.4.4 1.3 0 1.7zm5.6 3.9c-.5-.5-1.3-.5-1.7 0-.5.5-.5 1.3 0 1.7.5.5 1.3.5 1.7 0 .5-.4.5-1.2 0-1.7z"/><path class="st2" d="M399.9 179.5c-1.7-1.7-4-2.6-6.5-2.6s-4.7.9-6.5 2.6c-1.7 1.7-2.6 4-2.6 6.5s.9 4.7 2.6 6.5c1.7 1.7 4 2.6 6.5 2.6s4.7-.9 6.5-2.6c1.7-1.7 2.6-4 2.6-6.5s-.8-4.6-2.6-6.5z"/><path class="st3" d="M391.5 184.1c-.5.5-1.3.5-1.7 0-.5-.5-.5-1.3 0-1.7.5-.5 1.3-.5 1.7 0 .4.4.4 1.3 0 1.7zm5.6 3.9c-.5-.5-1.3-.5-1.7 0-.5.5-.5 1.3 0 1.7.5.5 1.3.5 1.7 0 .4-.4.4-1.2 0-1.7z"/><path class="st2" d="M422.9 179.5c-1.7-1.7-4-2.6-6.5-2.6s-4.7.9-6.5 2.6c-1.7 1.7-2.6 4-2.6 6.5s.9 4.7 2.6 6.5c1.7 1.7 4 2.6 6.5 2.6s4.7-.9 6.5-2.6c1.7-1.7 2.6-4 2.6-6.5s-.9-4.6-2.6-6.5z"/><path class="st3" d="M414.4 184.1c-.5.5-1.3.5-1.7 0-.5-.5-.5-1.3 0-1.7.5-.5 1.3-.5 1.7 0 .5.4.5 1.3 0 1.7zm5.6 3.9c-.5-.5-1.3-.5-1.7 0-.5.5-.5 1.3 0 1.7.5.5 1.3.5 1.7 0 .5-.4.5-1.2 0-1.7z"/><path class="st2" d="M445.9 179.5c-1.7-1.7-4-2.6-6.5-2.6s-4.7.9-6.5 2.6c-1.7 1.7-2.6 4-2.6 6.5s.9 4.7 2.6 6.5c1.7 1.7 4 2.6 6.5 2.6s4.7-.9 6.5-2.6c1.7-1.7 2.6-4 2.6-6.5s-.9-4.6-2.6-6.5z"/><path class="st3" d="M437.4 184.1c-.5.5-1.3.5-1.7 0-.5-.5-.5-1.3 0-1.7.5-.5 1.3-.5 1.7 0 .4.4.4 1.3 0 1.7zm5.6 3.9c-.5-.5-1.3-.5-1.7 0-.5.5-.5 1.3 0 1.7.5.5 1.3.5 1.7 0 .5-.4.5-1.2 0-1.7z"/><path class="st2" d="M468.9 179.5c-1.7-1.7-4-2.6-6.5-2.6s-4.7.9-6.5 2.6c-1.7 1.7-2.6 4-2.6 6.5s.9 4.7 2.6 6.5c1.7 1.7 4 2.6 6.5 2.6s4.7-.9 6.5-2.6c1.7-1.7 2.6-4 2.6-6.5s-.9-4.6-2.6-6.5z"/><path class="st3" d="M460.4 184.1c-.5.5-1.3.5-1.7 0-.5-.5-.5-1.3 0-1.7.5-.5 1.3-.5 1.7 0 .4.4.4 1.3 0 1.7zm5.6 3.9c-.5-.5-1.3-.5-1.7 0-.5.5-.5 1.3 0 1.7.5.5 1.3.5 1.7 0 .4-.4.4-1.2 0-1.7z"/><path class="st2" d="M491.8 179.5c-1.7-1.7-4-2.6-6.5-2.6s-4.7.9-6.5 2.6c-1.7 1.7-2.6 4-2.6 6.5s.9 4.7 2.6 6.5c1.7 1.7 4 2.6 6.5 2.6s4.7-.9 6.5-2.6c1.7-1.7 2.6-4 2.6-6.5s-.9-4.6-2.6-6.5z"/><path class="st3" d="M483.3 184.1c-.5.5-1.3.5-1.7 0-.5-.5-.5-1.3 0-1.7.5-.5 1.3-.5 1.7 0 .5.4.5 1.3 0 1.7zm5.7 3.9c-.5-.5-1.3-.5-1.7 0-.5.5-.5 1.3 0 1.7.5.5 1.3.5 1.7 0 .4-.4.4-1.2 0-1.7z"/><path class="st4" d="M298 193h-5.7c-1.3 0-2.3-1-2.3-2.3v-9.2c0-1.3 1-2.3 2.3-2.3h5.7c1.3 0 2.3 1 2.3 2.3v9.2c0 1.2-1.1 2.3-2.3 2.3z"/><path class="st3" d="M253.2 333.1h264.1v27.6H253.2v-27.6z"/><circle class="st1" cx="263.5" cy="338.2" r="2.9"/><circle class="st1" cx="263.5" cy="355.5" r="2.9"/><circle class="st1" cx="507" cy="338.2" r="2.9"/><circle class="st1" cx="507" cy="355.5" r="2.9"/><path class="st2" d="M331 340.3c-1.7-1.7-4-2.6-6.5-2.6s-4.7.9-6.5 2.6c-1.7 1.7-2.6 4-2.6 6.5s.9 4.7 2.6 6.5c1.7 1.7 4 2.6 6.5 2.6s4.7-.9 6.5-2.6c1.7-1.7 2.6-4 2.6-6.5s-.8-4.7-2.6-6.5z"/><path class="st3" d="M322.5 344.9c-.5.5-1.3.5-1.7 0-.5-.5-.5-1.3 0-1.7.5-.5 1.3-.5 1.7 0 .5.4.5 1.2 0 1.7zm5.7 3.9c-.5-.5-1.3-.5-1.7 0-.5.5-.5 1.3 0 1.7.5.5 1.3.5 1.7 0 .4-.4.4-1.2 0-1.7z"/><path class="st2" d="M354 340.3c-1.7-1.7-4-2.6-6.5-2.6s-4.7.9-6.5 2.6c-1.7 1.7-2.6 4-2.6 6.5s.9 4.7 2.6 6.5c1.7 1.7 4 2.6 6.5 2.6s4.7-.9 6.5-2.6c1.7-1.7 2.6-4 2.6-6.5s-.9-4.7-2.6-6.5z"/><path class="st3" d="M345.5 344.9c-.5.5-1.3.5-1.7 0-.5-.5-.5-1.3 0-1.7.5-.5 1.3-.5 1.7 0 .5.4.5 1.2 0 1.7zm5.6 3.9c-.5-.5-1.3-.5-1.7 0-.5.5-.5 1.3 0 1.7.5.5 1.3.5 1.7 0 .5-.4.5-1.2 0-1.7z"/><path class="st2" d="M377 340.3c-1.7-1.7-4-2.6-6.5-2.6s-4.7.9-6.5 2.6c-1.7 1.7-2.6 4-2.6 6.5s.9 4.7 2.6 6.5c1.7 1.7 4 2.6 6.5 2.6s4.7-.9 6.5-2.6c1.7-1.7 2.6-4 2.6-6.5s-.9-4.7-2.6-6.5z"/><path class="st3" d="M368.5 344.9c-.5.5-1.3.5-1.7 0-.5-.5-.5-1.3 0-1.7.5-.5 1.3-.5 1.7 0 .4.4.4 1.2 0 1.7zm5.6 3.9c-.5-.5-1.3-.5-1.7 0-.5.5-.5 1.3 0 1.7.5.5 1.3.5 1.7 0 .5-.4.5-1.2 0-1.7z"/><path class="st2" d="M399.9 340.3c-1.7-1.7-4-2.6-6.5-2.6s-4.7.9-6.5 2.6c-1.7 1.7-2.6 4-2.6 6.5s.9 4.7 2.6 6.5c1.7 1.7 4 2.6 6.5 2.6s4.7-.9 6.5-2.6c1.7-1.7 2.6-4 2.6-6.5s-.8-4.7-2.6-6.5z"/><path class="st3" d="M391.5 344.9c-.5.5-1.3.5-1.7 0-.5-.5-.5-1.3 0-1.7.5-.5 1.3-.5 1.7 0 .4.4.4 1.2 0 1.7zm5.6 3.9c-.5-.5-1.3-.5-1.7 0-.5.5-.5 1.3 0 1.7.5.5 1.3.5 1.7 0 .4-.4.4-1.2 0-1.7z"/><path class="st2" d="M422.9 340.3c-1.7-1.7-4-2.6-6.5-2.6s-4.7.9-6.5 2.6c-1.7 1.7-2.6 4-2.6 6.5s.9 4.7 2.6 6.5c1.7 1.7 4 2.6 6.5 2.6s4.7-.9 6.5-2.6c1.7-1.7 2.6-4 2.6-6.5s-.9-4.7-2.6-6.5z"/><path class="st3" d="M414.4 344.9c-.5.5-1.3.5-1.7 0-.5-.5-.5-1.3 0-1.7.5-.5 1.3-.5 1.7 0 .5.4.5 1.2 0 1.7zm5.6 3.9c-.5-.5-1.3-.5-1.7 0-.5.5-.5 1.3 0 1.7.5.5 1.3.5 1.7 0 .5-.4.5-1.2 0-1.7z"/><path class="st2" d="M445.9 340.3c-1.7-1.7-4-2.6-6.5-2.6s-4.7.9-6.5 2.6c-1.7 1.7-2.6 4-2.6 6.5s.9 4.7 2.6 6.5c1.7 1.7 4 2.6 6.5 2.6s4.7-.9 6.5-2.6c1.7-1.7 2.6-4 2.6-6.5s-.9-4.7-2.6-6.5z"/><path class="st3" d="M437.4 344.9c-.5.5-1.3.5-1.7 0-.5-.5-.5-1.3 0-1.7.5-.5 1.3-.5 1.7 0 .4.4.4 1.2 0 1.7zm5.6 3.9c-.5-.5-1.3-.5-1.7 0-.5.5-.5 1.3 0 1.7.5.5 1.3.5 1.7 0 .5-.4.5-1.2 0-1.7z"/><path class="st2" d="M468.9 340.3c-1.7-1.7-4-2.6-6.5-2.6s-4.7.9-6.5 2.6c-1.7 1.7-2.6 4-2.6 6.5s.9 4.7 2.6 6.5c1.7 1.7 4 2.6 6.5 2.6s4.7-.9 6.5-2.6c1.7-1.7 2.6-4 2.6-6.5s-.9-4.7-2.6-6.5z"/><path class="st3" d="M460.4 344.9c-.5.5-1.3.5-1.7 0-.5-.5-.5-1.3 0-1.7.5-.5 1.3-.5 1.7 0 .4.4.4 1.2 0 1.7zm5.6 3.9c-.5-.5-1.3-.5-1.7 0-.5.5-.5 1.3 0 1.7.5.5 1.3.5 1.7 0 .4-.4.4-1.2 0-1.7z"/><path class="st2" d="M491.8 340.3c-1.7-1.7-4-2.6-6.5-2.6s-4.7.9-6.5 2.6c-1.7 1.7-2.6 4-2.6 6.5s.9 4.7 2.6 6.5c1.7 1.7 4 2.6 6.5 2.6s4.7-.9 6.5-2.6c1.7-1.7 2.6-4 2.6-6.5s-.9-4.7-2.6-6.5z"/><path class="st3" d="M483.3 344.9c-.5.5-1.3.5-1.7 0-.5-.5-.5-1.3 0-1.7.5-.5 1.3-.5 1.7 0 .5.4.5 1.2 0 1.7zm5.7 3.9c-.5-.5-1.3-.5-1.7 0-.5.5-.5 1.3 0 1.7.5.5 1.3.5 1.7 0 .4-.4.4-1.2 0-1.7z"/><path class="st4" d="M298 353.7h-5.7c-1.3 0-2.3-1-2.3-2.3v-9.2c0-1.3 1-2.3 2.3-2.3h5.7c1.3 0 2.3 1 2.3 2.3v9.2c0 1.3-1.1 2.3-2.3 2.3z"/><path class="st2" d="M253.2 126.3h264.1v27.6H253.2v-27.6z"/><path class="st1" d="M401.9 133.2h-1.1l-1.1 2.3h-1.1v3.4h5.7v-3.4h-1.1l-1.3-2.3zm8 0h-1.1l-1.1 2.3h-1.1v3.4h5.7v-3.4h-1.1l-1.3-2.3zm8.1 0h-1.1l-1.1 2.3h-1.1v3.4h5.7v-3.4h-1.1l-1.3-2.3zm8 0h-1.1l-1.1 2.3h-1.1v3.4h5.7v-3.4h-1.1l-1.3-2.3zm8.1 0H433l-1.1 2.3h-1.1v3.4h5.7v-3.4h-1.1l-1.3-2.3zm8 0H441l-1.1 2.3h-1.1v3.4h5.7v-3.4h-1.1l-1.3-2.3zm8 0H449l-1.1 2.3h-1.1v3.4h5.7v-3.4h-1.1l-1.3-2.3zm8.1 0H457l-1.1 2.3h-1.1v3.4h5.7v-3.4h-1.1l-1.2-2.3zm8 0h-1.1l-1.1 2.3h-1.1v3.4h5.7v-3.4h-1.1l-1.3-2.3zm8.1 0h-1.1l-1.1 2.3H471v3.4h5.7v-3.4h-1.1l-1.3-2.3zm9.1 2.3-1.1-2.3h-1.1l-1.1 2.3H479v3.4h5.7v-3.4h-1.3zm-80.3 10.4h1.1v-3.4h-5.7v3.4h1.1l1.1 2.3h1.1l1.3-2.3zm8 0h1.1v-3.4h-5.7v3.4h1.1l1.1 2.3h1.1l1.3-2.3zm8 0h1.1v-3.4h-5.7v3.4h1.1l1.1 2.3h1.1l1.3-2.3zm8.1 0h1.1v-3.4h-5.7v3.4h1.1l1.1 2.3h1.1l1.3-2.3zm8 0h1.1v-3.4h-5.7v3.4h1.1l1.1 2.3h1.1l1.3-2.3zm8 0h1.1v-3.4h-5.7v3.4h1.1l1.1 2.3h1.1l1.3-2.3zm8.1 0h1.1v-3.4h-5.7v3.4h1.1l1.1 2.3h1.1l1.3-2.3zm8 0h1.1v-3.4h-5.7v3.4h1.1l1.1 2.3h1.1l1.3-2.3zm8.1 0h1.1v-3.4h-5.7v3.4h1.1l1.1 2.3h1.1l1.3-2.3zm8 0h1.1v-3.4h-5.7v3.4h1.1l1.1 2.3h1.1l1.3-2.3zm9.2 0v-3.4h-5.7v3.4h1.1l1.1 2.3h1.1l1.1-2.3h1.3z"/><circle class="st1" cx="263.5" cy="131.5" r="2.9"/><circle class="st1" cx="263.5" cy="148.7" r="2.9"/><circle class="st1" cx="507" cy="131.5" r="2.9"/><circle class="st1" cx="507" cy="148.7" r="2.9"/><path class="st7" d="M405.5 354.4v251.3c0 2.4 1.9 4.2 4.2 4.2H569V350.2H409.7c-2.3 0-4.2 1.9-4.2 4.2z"/><path class="st1" d="M623.4 599.5h37.2v58.4h-37.2v-58.4z"/><path class="st1" d="M770 656.4c-.7-.7-1.9-1.2-2.9-1.2H516.8c-.9 0-2.2.5-2.9 1.2l-15.4 15.4c-.7.7-.4 1.2.5 1.2h285.8c.9 0 1.2-.5.5-1.2L770 656.4z"/><path class="st8" d="M649.6 603.7c0 .9-.8 1.7-1.7 1.7h-11.8c-.9 0-1.7-.8-1.7-1.7v-.8c0-.9.8-1.7 1.7-1.7h11.8c.9 0 1.7.8 1.7 1.7v.8z"/><path class="st9" d="M618.3 591.1c0-.9.8-1.7 1.7-1.7h44c.9 0 1.7.8 1.7 1.7v7.6c0 .9-.8 1.7-1.7 1.7h-44c-.9 0-1.7-.8-1.7-1.7v-7.6z"/><path class="st1" d="M429.7 330.2c-2.4 0-4.2 1.9-4.2 4.2v251.3c0 2.4 1.9 4.2 4.2 4.2h424.5c2.4 0 4.2-1.9 4.2-4.2V334.4c0-2.4-1.9-4.2-4.2-4.2H429.7z"/><path class="st10" d="M839.6 565.8c0 2.4-1.9 4.2-4.2 4.2H448.7c-2.4 0-4.2-1.9-4.2-4.2V352.1c0-2.4 1.9-4.2 4.2-4.2h386.7c2.4 0 4.2 1.9 4.2 4.2v213.7z"/><path class="st11" d="m769.1 347.9-268.9 222h148.5l158.7-222h-38.3z"/><path class="st12" d="M449.9 347.9c-3 0-5.6 2.5-5.6 5.6v210.9c0 3 2.5 5.6 5.6 5.6h50.2L769 348l-319.1-.1z"/><path class="st1" d="M1709.3 673h-349.1c-5.1 0-9.2-4.1-9.2-9.2V94.2c0-5.1 4.1-9.2 9.2-9.2h349.1c5.1 0 9.2 4.1 9.2 9.2v569.6c0 5.1-4.1 9.2-9.2 9.2z"/><path class="st2" d="M1402.7 218.2h264.1v27.6h-264.1v-27.6z"/><path class="st1" d="M1440 227.4h1.1v3.4h-5.7v-3.4h1.1l1.1-2.3h1.1l1.3 2.3zm6.9-2.3h-1.1l-1.1 2.3h-1.1v3.4h5.7v-3.4h-1.1l-1.3-2.3zm8 0h-1.1l-1.1 2.3h-1.1v3.4h5.7v-3.4h-1.1l-1.3-2.3zm8.1 0h-1.1l-1.1 2.3h-1.1v3.4h5.7v-3.4h-1.1l-1.3-2.3zm8 0h-1.1l-1.1 2.3h-1.1v3.4h5.7v-3.4h-1.1l-1.3-2.3zm8.1 0h-1.1l-1.1 2.3h-1.1v3.4h5.7v-3.4h-1.1l-1.3-2.3zm8 0h-1.1l-1.1 2.3h-1.1v3.4h5.7v-3.4h-1.1l-1.3-2.3zm8 0h-1.1l-1.1 2.3h-1.1v3.4h5.7v-3.4h-1.1l-1.3-2.3zm8.1 0h-1.1l-1.1 2.3h-1.1v3.4h5.7v-3.4h-1.1l-1.3-2.3zm8 0h-1.1l-1.1 2.3h-1.1v3.4h5.7v-3.4h-1.1l-1.3-2.3zm8 0h-1.1l-1.1 2.3h-1.1v3.4h5.7v-3.4h-1.1l-1.3-2.3zm8.1 0h-1.1l-1.1 2.3h-1.1v3.4h5.7v-3.4h-1.1l-1.3-2.3zm8 0h-1.1l-1.1 2.3h-1.1v3.4h5.7v-3.4h-1.1l-1.3-2.3zm8.1 0h-1.1l-1.1 2.3h-1.1v3.4h5.7v-3.4h-1.1l-1.3-2.3zm8 0h-1.1l-1.1 2.3h-1.1v3.4h5.7v-3.4h-1.1l-1.3-2.3zm8 0h-1.1l-1.1 2.3h-1.1v3.4h5.7v-3.4h-1.1l-1.3-2.3zm8.1 0h-1.1l-1.1 2.3h-1.1v3.4h5.7v-3.4h-1.1l-1.3-2.3zm8 0h-1.1l-1.1 2.3h-1.1v3.4h5.7v-3.4h-1.1l-1.3-2.3zm8.1 0h-1.1l-1.1 2.3h-1.1v3.4h5.7v-3.4h-1.1l-1.3-2.3zm8 0h-1.1l-1.1 2.3h-1.1v3.4h5.7v-3.4h-1.1l-1.3-2.3zm8 0h-1.1l-1.1 2.3h-1.1v3.4h5.7v-3.4h-1.1l-1.3-2.3zm8.1 0h-1.1l-1.1 2.3h-1.1v3.4h5.7v-3.4h-1.1l-1.3-2.3zm8 0h-1.1l-1.1 2.3h-1.1v3.4h5.7v-3.4h-1.1l-1.3-2.3zm8.1 0h-1.1l-1.1 2.3h-1.1v3.4h5.7v-3.4h-1.1l-1.3-2.3zm9.1 2.3-1.1-2.3h-1.1l-1.1 2.3h-1.1v3.4h5.7v-3.4h-1.3zm-194 12.6h-1.1l-1.1-2.3h-1.1v-3.4h5.7v3.4h-1.1l-1.3 2.3zm9.1-2.3h1.1v-3.4h-5.7v3.4h1.1l1.1 2.3h1.1l1.3-2.3zm8.1 0h1.1v-3.4h-5.7v3.4h1.1l1.1 2.3h1.1l1.3-2.3zm8 0h1.1v-3.4h-5.7v3.4h1.1l1.1 2.3h1.1l1.3-2.3zm8.1 0h1.1v-3.4h-5.7v3.4h1.1l1.1 2.3h1.1l1.3-2.3zm8 0h1.1v-3.4h-5.7v3.4h1.1l1.1 2.3h1.1l1.3-2.3zm8 0h1.1v-3.4h-5.7v3.4h1.1l1.1 2.3h1.1l1.3-2.3zm8.1 0h1.1v-3.4h-5.7v3.4h1.1l1.1 2.3h1.1l1.3-2.3zm8 0h1.1v-3.4h-5.7v3.4h1.1l1.1 2.3h1.1l1.3-2.3zm8.1 0h1.1v-3.4h-5.7v3.4h1.1l1.1 2.3h1.1l1.3-2.3zm8 0h1.1v-3.4h-5.7v3.4h1.1l1.1 2.3h1.1l1.3-2.3zm8 0h1.1v-3.4h-5.7v3.4h1.1l1.1 2.3h1.1l1.3-2.3zm8.1 0h1.1v-3.4h-5.7v3.4h1.1l1.1 2.3h1.1l1.3-2.3zm8 0h1.1v-3.4h-5.7v3.4h1.1l1.1 2.3h1.1l1.3-2.3zm8.1 0h1.1v-3.4h-5.7v3.4h1.1l1.1 2.3h1.1l1.3-2.3zm8 0h1.1v-3.4h-5.7v3.4h1.1l1.1 2.3h1.1l1.3-2.3zm8 0h1.1v-3.4h-5.7v3.4h1.1l1.1 2.3h1.1l1.3-2.3zm8.1 0h1.1v-3.4h-5.7v3.4h1.1l1.1 2.3h1.1l1.3-2.3zm8 0h1.1v-3.4h-5.7v3.4h1.1l1.1 2.3h1.1l1.3-2.3zm8 0h1.1v-3.4h-5.7v3.4h1.1l1.1 2.3h1.1l1.3-2.3zm8.1 0h1.1v-3.4h-5.7v3.4h1.1l1.1 2.3h1.1l1.3-2.3zm8 0h1.1v-3.4h-5.7v3.4h1.1l1.1 2.3h1.1l1.3-2.3zm8.1 0h1.1v-3.4h-5.7v3.4h1.1l1.1 2.3h1.1l1.3-2.3zm8 0h1.1v-3.4h-5.7v3.4h1.1l1.1 2.3h1.1l1.3-2.3zm9.2 0v-3.4h-5.7v3.4h1.1l1.1 2.3h1.1l1.1-2.3h1.3z"/><circle class="st1" cx="1413" cy="223.4" r="2.9"/><circle class="st1" cx="1413" cy="240.6" r="2.9"/><circle class="st1" cx="1656.5" cy="223.4" r="2.9"/><circle class="st1" cx="1656.5" cy="240.6" r="2.9"/><path class="st2" d="M1402.7 252.7h264.1v27.6h-264.1v-27.6z"/><path class="st1" d="M1440 261.9h1.1v3.4h-5.7v-3.4h1.1l1.1-2.3h1.1l1.3 2.3zm6.9-2.3h-1.1l-1.1 2.3h-1.1v3.4h5.7v-3.4h-1.1l-1.3-2.3zm8 0h-1.1l-1.1 2.3h-1.1v3.4h5.7v-3.4h-1.1l-1.3-2.3zm8.1 0h-1.1l-1.1 2.3h-1.1v3.4h5.7v-3.4h-1.1l-1.3-2.3zm8 0h-1.1l-1.1 2.3h-1.1v3.4h5.7v-3.4h-1.1l-1.3-2.3zm8.1 0h-1.1l-1.1 2.3h-1.1v3.4h5.7v-3.4h-1.1l-1.3-2.3zm8 0h-1.1l-1.1 2.3h-1.1v3.4h5.7v-3.4h-1.1l-1.3-2.3zm8 0h-1.1l-1.1 2.3h-1.1v3.4h5.7v-3.4h-1.1l-1.3-2.3zm8.1 0h-1.1l-1.1 2.3h-1.1v3.4h5.7v-3.4h-1.1l-1.3-2.3zm8 0h-1.1l-1.1 2.3h-1.1v3.4h5.7v-3.4h-1.1l-1.3-2.3zm8 0h-1.1l-1.1 2.3h-1.1v3.4h5.7v-3.4h-1.1l-1.3-2.3zm8.1 0h-1.1l-1.1 2.3h-1.1v3.4h5.7v-3.4h-1.1l-1.3-2.3zm8 0h-1.1l-1.1 2.3h-1.1v3.4h5.7v-3.4h-1.1l-1.3-2.3zm8.1 0h-1.1l-1.1 2.3h-1.1v3.4h5.7v-3.4h-1.1l-1.3-2.3zm8 0h-1.1l-1.1 2.3h-1.1v3.4h5.7v-3.4h-1.1l-1.3-2.3zm8 0h-1.1l-1.1 2.3h-1.1v3.4h5.7v-3.4h-1.1l-1.3-2.3zm8.1 0h-1.1l-1.1 2.3h-1.1v3.4h5.7v-3.4h-1.1l-1.3-2.3zm8 0h-1.1l-1.1 2.3h-1.1v3.4h5.7v-3.4h-1.1l-1.3-2.3zm8.1 0h-1.1l-1.1 2.3h-1.1v3.4h5.7v-3.4h-1.1l-1.3-2.3zm8 0h-1.1l-1.1 2.3h-1.1v3.4h5.7v-3.4h-1.1l-1.3-2.3zm8 0h-1.1l-1.1 2.3h-1.1v3.4h5.7v-3.4h-1.1l-1.3-2.3zm8.1 0h-1.1l-1.1 2.3h-1.1v3.4h5.7v-3.4h-1.1l-1.3-2.3zm8 0h-1.1l-1.1 2.3h-1.1v3.4h5.7v-3.4h-1.1l-1.3-2.3zm8.1 0h-1.1l-1.1 2.3h-1.1v3.4h5.7v-3.4h-1.1l-1.3-2.3zm9.1 2.3-1.1-2.3h-1.1l-1.1 2.3h-1.1v3.4h5.7v-3.4h-1.3zm-194 12.6h-1.1l-1.1-2.3h-1.1v-3.4h5.7v3.4h-1.1l-1.3 2.3zm9.1-2.3h1.1v-3.4h-5.7v3.4h1.1l1.1 2.3h1.1l1.3-2.3zm8.1 0h1.1v-3.4h-5.7v3.4h1.1l1.1 2.3h1.1l1.3-2.3zm8 0h1.1v-3.4h-5.7v3.4h1.1l1.1 2.3h1.1l1.3-2.3zm8.1 0h1.1v-3.4h-5.7v3.4h1.1l1.1 2.3h1.1l1.3-2.3zm8 0h1.1v-3.4h-5.7v3.4h1.1l1.1 2.3h1.1l1.3-2.3zm8 0h1.1v-3.4h-5.7v3.4h1.1l1.1 2.3h1.1l1.3-2.3zm8.1 0h1.1v-3.4h-5.7v3.4h1.1l1.1 2.3h1.1l1.3-2.3zm8 0h1.1v-3.4h-5.7v3.4h1.1l1.1 2.3h1.1l1.3-2.3zm8.1 0h1.1v-3.4h-5.7v3.4h1.1l1.1 2.3h1.1l1.3-2.3zm8 0h1.1v-3.4h-5.7v3.4h1.1l1.1 2.3h1.1l1.3-2.3zm8 0h1.1v-3.4h-5.7v3.4h1.1l1.1 2.3h1.1l1.3-2.3zm8.1 0h1.1v-3.4h-5.7v3.4h1.1l1.1 2.3h1.1l1.3-2.3zm8 0h1.1v-3.4h-5.7v3.4h1.1l1.1 2.3h1.1l1.3-2.3zm8.1 0h1.1v-3.4h-5.7v3.4h1.1l1.1 2.3h1.1l1.3-2.3zm8 0h1.1v-3.4h-5.7v3.4h1.1l1.1 2.3h1.1l1.3-2.3zm8 0h1.1v-3.4h-5.7v3.4h1.1l1.1 2.3h1.1l1.3-2.3zm8.1 0h1.1v-3.4h-5.7v3.4h1.1l1.1 2.3h1.1l1.3-2.3zm8 0h1.1v-3.4h-5.7v3.4h1.1l1.1 2.3h1.1l1.3-2.3zm8 0h1.1v-3.4h-5.7v3.4h1.1l1.1 2.3h1.1l1.3-2.3zm8.1 0h1.1v-3.4h-5.7v3.4h1.1l1.1 2.3h1.1l1.3-2.3zm8 0h1.1v-3.4h-5.7v3.4h1.1l1.1 2.3h1.1l1.3-2.3zm8.1 0h1.1v-3.4h-5.7v3.4h1.1l1.1 2.3h1.1l1.3-2.3zm8 0h1.1v-3.4h-5.7v3.4h1.1l1.1 2.3h1.1l1.3-2.3zm9.2 0v-3.4h-5.7v3.4h1.1l1.1 2.3h1.1l1.1-2.3h1.3z"/><circle class="st1" cx="1413" cy="257.8" r="2.9"/><circle class="st1" cx="1413" cy="275.1" r="2.9"/><circle class="st1" cx="1656.5" cy="257.8" r="2.9"/><circle class="st1" cx="1656.5" cy="275.1" r="2.9"/><path class="st2" d="M1402.7 287.1h264.1v27.6h-264.1v-27.6z"/><path class="st1" d="M1440 296.3h1.1v3.4h-5.7v-3.4h1.1l1.1-2.3h1.1l1.3 2.3zm6.9-2.3h-1.1l-1.1 2.3h-1.1v3.4h5.7v-3.4h-1.1l-1.3-2.3zm8 0h-1.1l-1.1 2.3h-1.1v3.4h5.7v-3.4h-1.1l-1.3-2.3zm8.1 0h-1.1l-1.1 2.3h-1.1v3.4h5.7v-3.4h-1.1l-1.3-2.3zm8 0h-1.1l-1.1 2.3h-1.1v3.4h5.7v-3.4h-1.1l-1.3-2.3zm8.1 0h-1.1l-1.1 2.3h-1.1v3.4h5.7v-3.4h-1.1l-1.3-2.3zm8 0h-1.1l-1.1 2.3h-1.1v3.4h5.7v-3.4h-1.1l-1.3-2.3zm8 0h-1.1l-1.1 2.3h-1.1v3.4h5.7v-3.4h-1.1l-1.3-2.3zm8.1 0h-1.1l-1.1 2.3h-1.1v3.4h5.7v-3.4h-1.1l-1.3-2.3zm8 0h-1.1l-1.1 2.3h-1.1v3.4h5.7v-3.4h-1.1l-1.3-2.3zm8 0h-1.1l-1.1 2.3h-1.1v3.4h5.7v-3.4h-1.1l-1.3-2.3zm8.1 0h-1.1l-1.1 2.3h-1.1v3.4h5.7v-3.4h-1.1l-1.3-2.3zm8 0h-1.1l-1.1 2.3h-1.1v3.4h5.7v-3.4h-1.1l-1.3-2.3zm8.1 0h-1.1l-1.1 2.3h-1.1v3.4h5.7v-3.4h-1.1l-1.3-2.3zm8 0h-1.1l-1.1 2.3h-1.1v3.4h5.7v-3.4h-1.1l-1.3-2.3zm8 0h-1.1l-1.1 2.3h-1.1v3.4h5.7v-3.4h-1.1l-1.3-2.3zm8.1 0h-1.1l-1.1 2.3h-1.1v3.4h5.7v-3.4h-1.1l-1.3-2.3zm8 0h-1.1l-1.1 2.3h-1.1v3.4h5.7v-3.4h-1.1l-1.3-2.3zm8.1 0h-1.1l-1.1 2.3h-1.1v3.4h5.7v-3.4h-1.1l-1.3-2.3zm8 0h-1.1l-1.1 2.3h-1.1v3.4h5.7v-3.4h-1.1l-1.3-2.3zm8 0h-1.1l-1.1 2.3h-1.1v3.4h5.7v-3.4h-1.1l-1.3-2.3zm8.1 0h-1.1l-1.1 2.3h-1.1v3.4h5.7v-3.4h-1.1l-1.3-2.3zm8 0h-1.1l-1.1 2.3h-1.1v3.4h5.7v-3.4h-1.1l-1.3-2.3zm8.1 0h-1.1l-1.1 2.3h-1.1v3.4h5.7v-3.4h-1.1l-1.3-2.3zm9.1 2.3-1.1-2.3h-1.1l-1.1 2.3h-1.1v3.4h5.7v-3.4h-1.3zm-194 12.6h-1.1l-1.1-2.3h-1.1v-3.4h5.7v3.4h-1.1l-1.3 2.3zm9.1-2.3h1.1v-3.4h-5.7v3.4h1.1l1.1 2.3h1.1l1.3-2.3zm8.1 0h1.1v-3.4h-5.7v3.4h1.1l1.1 2.3h1.1l1.3-2.3zm8 0h1.1v-3.4h-5.7v3.4h1.1l1.1 2.3h1.1l1.3-2.3zm8.1 0h1.1v-3.4h-5.7v3.4h1.1l1.1 2.3h1.1l1.3-2.3zm8 0h1.1v-3.4h-5.7v3.4h1.1l1.1 2.3h1.1l1.3-2.3zm8 0h1.1v-3.4h-5.7v3.4h1.1l1.1 2.3h1.1l1.3-2.3zm8.1 0h1.1v-3.4h-5.7v3.4h1.1l1.1 2.3h1.1l1.3-2.3zm8 0h1.1v-3.4h-5.7v3.4h1.1l1.1 2.3h1.1l1.3-2.3zm8.1 0h1.1v-3.4h-5.7v3.4h1.1l1.1 2.3h1.1l1.3-2.3zm8 0h1.1v-3.4h-5.7v3.4h1.1l1.1 2.3h1.1l1.3-2.3zm8 0h1.1v-3.4h-5.7v3.4h1.1l1.1 2.3h1.1l1.3-2.3zm8.1 0h1.1v-3.4h-5.7v3.4h1.1l1.1 2.3h1.1l1.3-2.3zm8 0h1.1v-3.4h-5.7v3.4h1.1l1.1 2.3h1.1l1.3-2.3zm8.1 0h1.1v-3.4h-5.7v3.4h1.1l1.1 2.3h1.1l1.3-2.3zm8 0h1.1v-3.4h-5.7v3.4h1.1l1.1 2.3h1.1l1.3-2.3zm8 0h1.1v-3.4h-5.7v3.4h1.1l1.1 2.3h1.1l1.3-2.3zm8.1 0h1.1v-3.4h-5.7v3.4h1.1l1.1 2.3h1.1l1.3-2.3zm8 0h1.1v-3.4h-5.7v3.4h1.1l1.1 2.3h1.1l1.3-2.3zm8 0h1.1v-3.4h-5.7v3.4h1.1l1.1 2.3h1.1l1.3-2.3zm8.1 0h1.1v-3.4h-5.7v3.4h1.1l1.1 2.3h1.1l1.3-2.3zm8 0h1.1v-3.4h-5.7v3.4h1.1l1.1 2.3h1.1l1.3-2.3zm8.1 0h1.1v-3.4h-5.7v3.4h1.1l1.1 2.3h1.1l1.3-2.3zm8 0h1.1v-3.4h-5.7v3.4h1.1l1.1 2.3h1.1l1.3-2.3zm9.2 0v-3.4h-5.7v3.4h1.1l1.1 2.3h1.1l1.1-2.3h1.3z"/><circle class="st1" cx="1413" cy="292.3" r="2.9"/><circle class="st1" cx="1413" cy="309.5" r="2.9"/><circle class="st1" cx="1656.5" cy="292.3" r="2.9"/><circle class="st1" cx="1656.5" cy="309.5" r="2.9"/><path class="st3" d="M1402.7 493.8h264.1v41.3h-264.1v-41.3z"/><circle class="st1" cx="1413" cy="499" r="2.9"/><circle class="st1" cx="1413" cy="530" r="2.9"/><circle class="st1" cx="1656.5" cy="499" r="2.9"/><circle class="st1" cx="1656.5" cy="530" r="2.9"/><path class="st4" d="M1423.9 511.1h221.6v9.2h-221.6v-9.2z"/><path class="st2" d="M1610.5 528.3h-18.4c-2.5 0-4.6-2.1-4.6-4.6v-18.4c0-2.5 2.1-4.6 4.6-4.6h18.4c2.5 0 4.6 2.1 4.6 4.6v18.4c0 2.5-2 4.6-4.6 4.6z"/><path class="st3" d="M1402.7 542.1h264.1v41.3h-264.1v-41.3z"/><circle class="st1" cx="1413" cy="547.2" r="2.9"/><circle class="st1" cx="1413" cy="578.3" r="2.9"/><circle class="st1" cx="1656.5" cy="547.2" r="2.9"/><circle class="st1" cx="1656.5" cy="578.3" r="2.9"/><path class="st4" d="M1423.9 559.3h221.6v9.2h-221.6v-9.2z"/><path class="st2" d="M1610.5 576.5h-18.4c-2.5 0-4.6-2.1-4.6-4.6v-18.4c0-2.5 2.1-4.6 4.6-4.6h18.4c2.5 0 4.6 2.1 4.6 4.6v18.4c0 2.6-2 4.6-4.6 4.6z"/><path class="st3" d="M1402.7 590.3h264.1v41.3h-264.1v-41.3z"/><circle class="st1" cx="1413" cy="595.5" r="2.9"/><circle class="st1" cx="1413" cy="626.5" r="2.9"/><circle class="st1" cx="1656.5" cy="595.5" r="2.9"/><circle class="st1" cx="1656.5" cy="626.5" r="2.9"/><path class="st4" d="M1423.9 607.5h221.6v9.2h-221.6v-9.2z"/><path class="st2" d="M1610.5 624.8h-18.4c-2.5 0-4.6-2.1-4.6-4.6v-18.4c0-2.5 2.1-4.6 4.6-4.6h18.4c2.5 0 4.6 2.1 4.6 4.6v18.4c0 2.5-2 4.6-4.6 4.6z"/><path class="st3" d="M1402.7 379h264.1v27.6h-264.1V379z"/><circle class="st1" cx="1413" cy="384.2" r="2.9"/><circle class="st1" cx="1413" cy="401.4" r="2.9"/><circle class="st1" cx="1656.5" cy="384.2" r="2.9"/><circle class="st1" cx="1656.5" cy="401.4" r="2.9"/><circle class="st4" cx="1442.3" cy="392.8" r="6.3"/><circle class="st5" cx="1460.7" cy="392.8" r="6.3"/><circle class="st6" cx="1505.5" cy="392.8" r="6.3"/><circle class="st6" cx="1523.8" cy="392.8" r="6.3"/><path class="st3" d="M1402.7 413.5h264.1V441h-264.1v-27.5z"/><circle class="st1" cx="1413" cy="418.6" r="2.9"/><circle class="st1" cx="1413" cy="435.8" r="2.9"/><circle class="st1" cx="1656.5" cy="418.6" r="2.9"/><circle class="st1" cx="1656.5" cy="435.8" r="2.9"/><circle class="st4" cx="1442.3" cy="427.2" r="6.3"/><circle class="st5" cx="1460.7" cy="427.2" r="6.3"/><circle class="st6" cx="1505.5" cy="427.2" r="6.3"/><circle class="st6" cx="1523.8" cy="427.2" r="6.3"/><path class="st3" d="M1402.7 447.9h264.1v27.6h-264.1v-27.6z"/><circle class="st1" cx="1413" cy="453.1" r="2.9"/><circle class="st1" cx="1413" cy="470.3" r="2.9"/><circle class="st1" cx="1656.5" cy="453.1" r="2.9"/><circle class="st1" cx="1656.5" cy="470.3" r="2.9"/><circle class="st2" cx="1442.3" cy="461.7" r="6.3"/><circle class="st2" cx="1460.7" cy="461.7" r="6.3"/><circle class="st2" cx="1505.5" cy="461.7" r="6.3"/><circle class="st2" cx="1523.8" cy="461.7" r="6.3"/><path class="st3" d="M1402.7 172.3h264.1v27.6h-264.1v-27.6z"/><circle class="st1" cx="1413" cy="177.4" r="2.9"/><circle class="st1" cx="1413" cy="194.7" r="2.9"/><circle class="st1" cx="1656.5" cy="177.4" r="2.9"/><circle class="st1" cx="1656.5" cy="194.7" r="2.9"/><path class="st2" d="M1480.5 179.5c-1.7-1.7-4-2.6-6.5-2.6s-4.7.9-6.5 2.6c-1.7 1.7-2.6 4-2.6 6.5s.9 4.7 2.6 6.5c1.7 1.7 4 2.6 6.5 2.6s4.7-.9 6.5-2.6c1.8-1.7 2.6-4 2.6-6.5s-.8-4.6-2.6-6.5z"/><path class="st3" d="M1472 184.1c-.5.5-1.3.5-1.7 0-.5-.5-.5-1.3 0-1.7.5-.5 1.3-.5 1.7 0 .5.4.5 1.3 0 1.7zm5.7 3.9c-.5-.5-1.3-.5-1.7 0s-.5 1.3 0 1.7 1.3.5 1.7 0 .4-1.2 0-1.7z"/><path class="st2" d="M1503.5 179.5c-1.7-1.7-4-2.6-6.5-2.6s-4.7.9-6.5 2.6c-1.7 1.7-2.6 4-2.6 6.5s.9 4.7 2.6 6.5c1.7 1.7 4 2.6 6.5 2.6s4.7-.9 6.5-2.6c1.8-1.7 2.6-4 2.6-6.5s-.9-4.6-2.6-6.5z"/><path class="st3" d="M1495 184.1c-.5.5-1.3.5-1.7 0-.5-.5-.5-1.3 0-1.7.5-.5 1.3-.5 1.7 0 .5.4.5 1.3 0 1.7zm5.6 3.9c-.5-.5-1.3-.5-1.7 0s-.5 1.3 0 1.7 1.3.5 1.7 0 .5-1.2 0-1.7z"/><path class="st2" d="M1526.5 179.5c-1.7-1.7-4-2.6-6.5-2.6s-4.7.9-6.5 2.6c-1.7 1.7-2.6 4-2.6 6.5s.9 4.7 2.6 6.5c1.7 1.7 4 2.6 6.5 2.6s4.7-.9 6.5-2.6c1.8-1.7 2.6-4 2.6-6.5s-.9-4.6-2.6-6.5z"/><path class="st3" d="M1518 184.1c-.5.5-1.3.5-1.7 0-.5-.5-.5-1.3 0-1.7.5-.5 1.3-.5 1.7 0 .4.4.4 1.3 0 1.7zm5.6 3.9c-.5-.5-1.3-.5-1.7 0s-.5 1.3 0 1.7 1.3.5 1.7 0 .5-1.2 0-1.7z"/><path class="st2" d="M1549.4 179.5c-1.7-1.7-4-2.6-6.5-2.6s-4.7.9-6.5 2.6c-1.7 1.7-2.6 4-2.6 6.5s.9 4.7 2.6 6.5c1.7 1.7 4 2.6 6.5 2.6s4.7-.9 6.5-2.6c1.7-1.7 2.6-4 2.6-6.5s-.8-4.6-2.6-6.5z"/><path class="st3" d="M1541 184.1c-.5.5-1.3.5-1.7 0-.5-.5-.5-1.3 0-1.7.5-.5 1.3-.5 1.7 0 .4.4.4 1.3 0 1.7zm5.6 3.9c-.5-.5-1.3-.5-1.7 0s-.5 1.3 0 1.7 1.3.5 1.7 0 .4-1.2 0-1.7z"/><path class="st2" d="M1572.4 179.5c-1.7-1.7-4-2.6-6.5-2.6s-4.7.9-6.5 2.6c-1.7 1.7-2.6 4-2.6 6.5s.9 4.7 2.6 6.5c1.7 1.7 4 2.6 6.5 2.6s4.7-.9 6.5-2.6c1.7-1.7 2.6-4 2.6-6.5s-.9-4.6-2.6-6.5z"/><path class="st3" d="M1563.9 184.1c-.5.5-1.3.5-1.7 0-.5-.5-.5-1.3 0-1.7.5-.5 1.3-.5 1.7 0 .5.4.5 1.3 0 1.7zm5.6 3.9c-.5-.5-1.3-.5-1.7 0s-.5 1.3 0 1.7 1.3.5 1.7 0 .5-1.2 0-1.7z"/><path class="st2" d="M1595.4 179.5c-1.7-1.7-4-2.6-6.5-2.6s-4.7.9-6.5 2.6c-1.7 1.7-2.6 4-2.6 6.5s.9 4.7 2.6 6.5c1.7 1.7 4 2.6 6.5 2.6s4.7-.9 6.5-2.6c1.7-1.7 2.6-4 2.6-6.5s-.9-4.6-2.6-6.5z"/><path class="st3" d="M1586.9 184.1c-.5.5-1.3.5-1.7 0-.5-.5-.5-1.3 0-1.7.5-.5 1.3-.5 1.7 0 .4.4.4 1.3 0 1.7zm5.6 3.9c-.5-.5-1.3-.5-1.7 0s-.5 1.3 0 1.7 1.3.5 1.7 0 .5-1.2 0-1.7z"/><path class="st2" d="M1618.4 179.5c-1.7-1.7-4-2.6-6.5-2.6s-4.7.9-6.5 2.6c-1.7 1.7-2.6 4-2.6 6.5s.9 4.7 2.6 6.5c1.7 1.7 4 2.6 6.5 2.6s4.7-.9 6.5-2.6c1.7-1.7 2.6-4 2.6-6.5s-.9-4.6-2.6-6.5z"/><path class="st3" d="M1609.9 184.1c-.5.5-1.3.5-1.7 0-.5-.5-.5-1.3 0-1.7.5-.5 1.3-.5 1.7 0 .4.4.4 1.3 0 1.7zm5.6 3.9c-.5-.5-1.3-.5-1.7 0s-.5 1.3 0 1.7 1.3.5 1.7 0 .4-1.2 0-1.7z"/><path class="st2" d="M1641.3 179.5c-1.7-1.7-4-2.6-6.5-2.6s-4.7.9-6.5 2.6c-1.7 1.7-2.6 4-2.6 6.5s.9 4.7 2.6 6.5c1.7 1.7 4 2.6 6.5 2.6s4.7-.9 6.5-2.6c1.7-1.7 2.6-4 2.6-6.5s-.9-4.6-2.6-6.5z"/><path class="st3" d="M1632.8 184.1c-.5.5-1.3.5-1.7 0-.5-.5-.5-1.3 0-1.7.5-.5 1.3-.5 1.7 0 .5.4.5 1.3 0 1.7zm5.7 3.9c-.5-.5-1.3-.5-1.7 0s-.5 1.3 0 1.7 1.3.5 1.7 0 .4-1.2 0-1.7z"/><path class="st4" d="M1447.5 193h-5.7c-1.3 0-2.3-1-2.3-2.3v-9.2c0-1.3 1-2.3 2.3-2.3h5.7c1.3 0 2.3 1 2.3 2.3v9.2c0 1.2-1.1 2.3-2.3 2.3z"/><path class="st3" d="M1402.7 333.1h264.1v27.6h-264.1v-27.6z"/><circle class="st1" cx="1413" cy="338.2" r="2.9"/><circle class="st1" cx="1413" cy="355.5" r="2.9"/><circle class="st1" cx="1656.5" cy="338.2" r="2.9"/><circle class="st1" cx="1656.5" cy="355.5" r="2.9"/><path class="st2" d="M1480.5 340.3c-1.7-1.7-4-2.6-6.5-2.6s-4.7.9-6.5 2.6c-1.7 1.7-2.6 4-2.6 6.5s.9 4.7 2.6 6.5c1.7 1.7 4 2.6 6.5 2.6s4.7-.9 6.5-2.6c1.7-1.7 2.6-4 2.6-6.5s-.8-4.7-2.6-6.5z"/><path class="st3" d="M1472 344.9c-.5.5-1.3.5-1.7 0-.5-.5-.5-1.3 0-1.7.5-.5 1.3-.5 1.7 0 .5.4.5 1.2 0 1.7zm5.7 3.9c-.5-.5-1.3-.5-1.7 0-.5.5-.5 1.3 0 1.7.5.5 1.3.5 1.7 0 .4-.4.4-1.2 0-1.7z"/><path class="st2" d="M1503.5 340.3c-1.7-1.7-4-2.6-6.5-2.6s-4.7.9-6.5 2.6c-1.7 1.7-2.6 4-2.6 6.5s.9 4.7 2.6 6.5c1.7 1.7 4 2.6 6.5 2.6s4.7-.9 6.5-2.6c1.7-1.7 2.6-4 2.6-6.5s-.9-4.7-2.6-6.5z"/><path class="st3" d="M1495 344.9c-.5.5-1.3.5-1.7 0-.5-.5-.5-1.3 0-1.7.5-.5 1.3-.5 1.7 0 .5.4.5 1.2 0 1.7zm5.6 3.9c-.5-.5-1.3-.5-1.7 0-.5.5-.5 1.3 0 1.7.5.5 1.3.5 1.7 0 .5-.4.5-1.2 0-1.7z"/><path class="st2" d="M1526.5 340.3c-1.7-1.7-4-2.6-6.5-2.6s-4.7.9-6.5 2.6c-1.7 1.7-2.6 4-2.6 6.5s.9 4.7 2.6 6.5c1.7 1.7 4 2.6 6.5 2.6s4.7-.9 6.5-2.6c1.7-1.7 2.6-4 2.6-6.5s-.9-4.7-2.6-6.5z"/><path class="st3" d="M1518 344.9c-.5.5-1.3.5-1.7 0-.5-.5-.5-1.3 0-1.7.5-.5 1.3-.5 1.7 0 .4.4.4 1.2 0 1.7zm5.6 3.9c-.5-.5-1.3-.5-1.7 0-.5.5-.5 1.3 0 1.7.5.5 1.3.5 1.7 0 .5-.4.5-1.2 0-1.7z"/><path class="st2" d="M1549.4 340.3c-1.7-1.7-4-2.6-6.5-2.6s-4.7.9-6.5 2.6c-1.7 1.7-2.6 4-2.6 6.5s.9 4.7 2.6 6.5c1.7 1.7 4 2.6 6.5 2.6s4.7-.9 6.5-2.6c1.7-1.7 2.6-4 2.6-6.5s-.8-4.7-2.6-6.5z"/><path class="st3" d="M1541 344.9c-.5.5-1.3.5-1.7 0-.5-.5-.5-1.3 0-1.7.5-.5 1.3-.5 1.7 0 .4.4.4 1.2 0 1.7zm5.6 3.9c-.5-.5-1.3-.5-1.7 0-.5.5-.5 1.3 0 1.7.5.5 1.3.5 1.7 0 .4-.4.4-1.2 0-1.7z"/><path class="st2" d="M1572.4 340.3c-1.7-1.7-4-2.6-6.5-2.6s-4.7.9-6.5 2.6c-1.7 1.7-2.6 4-2.6 6.5s.9 4.7 2.6 6.5c1.7 1.7 4 2.6 6.5 2.6s4.7-.9 6.5-2.6c1.7-1.7 2.6-4 2.6-6.5s-.9-4.7-2.6-6.5z"/><path class="st3" d="M1563.9 344.9c-.5.5-1.3.5-1.7 0-.5-.5-.5-1.3 0-1.7.5-.5 1.3-.5 1.7 0 .5.4.5 1.2 0 1.7zm5.6 3.9c-.5-.5-1.3-.5-1.7 0-.5.5-.5 1.3 0 1.7.5.5 1.3.5 1.7 0 .5-.4.5-1.2 0-1.7z"/><path class="st2" d="M1595.4 340.3c-1.7-1.7-4-2.6-6.5-2.6s-4.7.9-6.5 2.6c-1.7 1.7-2.6 4-2.6 6.5s.9 4.7 2.6 6.5c1.7 1.7 4 2.6 6.5 2.6s4.7-.9 6.5-2.6c1.7-1.7 2.6-4 2.6-6.5s-.9-4.7-2.6-6.5z"/><path class="st3" d="M1586.9 344.9c-.5.5-1.3.5-1.7 0-.5-.5-.5-1.3 0-1.7.5-.5 1.3-.5 1.7 0 .4.4.4 1.2 0 1.7zm5.6 3.9c-.5-.5-1.3-.5-1.7 0-.5.5-.5 1.3 0 1.7.5.5 1.3.5 1.7 0 .5-.4.5-1.2 0-1.7z"/><path class="st2" d="M1618.4 340.3c-1.7-1.7-4-2.6-6.5-2.6s-4.7.9-6.5 2.6c-1.7 1.7-2.6 4-2.6 6.5s.9 4.7 2.6 6.5c1.7 1.7 4 2.6 6.5 2.6s4.7-.9 6.5-2.6c1.7-1.7 2.6-4 2.6-6.5s-.9-4.7-2.6-6.5z"/><path class="st3" d="M1609.9 344.9c-.5.5-1.3.5-1.7 0-.5-.5-.5-1.3 0-1.7.5-.5 1.3-.5 1.7 0 .4.4.4 1.2 0 1.7zm5.6 3.9c-.5-.5-1.3-.5-1.7 0-.5.5-.5 1.3 0 1.7.5.5 1.3.5 1.7 0 .4-.4.4-1.2 0-1.7z"/><path class="st2" d="M1641.3 340.3c-1.7-1.7-4-2.6-6.5-2.6s-4.7.9-6.5 2.6c-1.7 1.7-2.6 4-2.6 6.5s.9 4.7 2.6 6.5c1.7 1.7 4 2.6 6.5 2.6s4.7-.9 6.5-2.6c1.7-1.7 2.6-4 2.6-6.5s-.9-4.7-2.6-6.5z"/><path class="st3" d="M1632.8 344.9c-.5.5-1.3.5-1.7 0-.5-.5-.5-1.3 0-1.7.5-.5 1.3-.5 1.7 0 .5.4.5 1.2 0 1.7zm5.7 3.9c-.5-.5-1.3-.5-1.7 0-.5.5-.5 1.3 0 1.7.5.5 1.3.5 1.7 0 .4-.4.4-1.2 0-1.7z"/><path class="st4" d="M1447.5 353.7h-5.7c-1.3 0-2.3-1-2.3-2.3v-9.2c0-1.3 1-2.3 2.3-2.3h5.7c1.3 0 2.3 1 2.3 2.3v9.2c0 1.3-1.1 2.3-2.3 2.3z"/><path class="st2" d="M1402.7 126.3h264.1v27.6h-264.1v-27.6z"/><path class="st1" d="M1551.4 133.2h-1.1l-1.1 2.3h-1.1v3.4h5.7v-3.4h-1.1l-1.3-2.3zm8 0h-1.1l-1.1 2.3h-1.1v3.4h5.7v-3.4h-1.1l-1.3-2.3zm8.1 0h-1.1l-1.1 2.3h-1.1v3.4h5.7v-3.4h-1.1l-1.3-2.3zm8 0h-1.1l-1.1 2.3h-1.1v3.4h5.7v-3.4h-1.1l-1.3-2.3zm8.1 0h-1.1l-1.1 2.3h-1.1v3.4h5.7v-3.4h-1.1l-1.3-2.3zm8 0h-1.1l-1.1 2.3h-1.1v3.4h5.7v-3.4h-1.1l-1.3-2.3zm8 0h-1.1l-1.1 2.3h-1.1v3.4h5.7v-3.4h-1.1l-1.3-2.3zm8.1 0h-1.1l-1.1 2.3h-1.1v3.4h5.7v-3.4h-1.1l-1.3-2.3zm8 0h-1.1l-1.1 2.3h-1.1v3.4h5.7v-3.4h-1.1l-1.3-2.3zm8.1 0h-1.1l-1.1 2.3h-1.1v3.4h5.7v-3.4h-1.1l-1.3-2.3zm9.1 2.3-1.1-2.3h-1.1l-1.1 2.3h-1.1v3.4h5.7v-3.4h-1.3zm-80.3 10.4h1.1v-3.4h-5.7v3.4h1.1l1.1 2.3h1.1l1.3-2.3zm8 0h1.1v-3.4h-5.7v3.4h1.1l1.1 2.3h1.1l1.3-2.3zm8 0h1.1v-3.4h-5.7v3.4h1.1l1.1 2.3h1.1l1.3-2.3zm8.1 0h1.1v-3.4h-5.7v3.4h1.1l1.1 2.3h1.1l1.3-2.3zm8 0h1.1v-3.4h-5.7v3.4h1.1l1.1 2.3h1.1l1.3-2.3zm8 0h1.1v-3.4h-5.7v3.4h1.1l1.1 2.3h1.1l1.3-2.3zm8.1 0h1.1v-3.4h-5.7v3.4h1.1l1.1 2.3h1.1l1.3-2.3zm8 0h1.1v-3.4h-5.7v3.4h1.1l1.1 2.3h1.1l1.3-2.3zm8.1 0h1.1v-3.4h-5.7v3.4h1.1l1.1 2.3h1.1l1.3-2.3zm8 0h1.1v-3.4h-5.7v3.4h1.1l1.1 2.3h1.1l1.3-2.3zm9.2 0v-3.4h-5.7v3.4h1.1l1.1 2.3h1.1l1.1-2.3h1.3z"/><circle class="st1" cx="1413" cy="131.5" r="2.9"/><circle class="st1" cx="1413" cy="148.7" r="2.9"/><circle class="st1" cx="1656.5" cy="131.5" r="2.9"/><circle class="st1" cx="1656.5" cy="148.7" r="2.9"/><path class="st7" d="M1514.5 354.4v251.3c0 2.4-1.9 4.2-4.2 4.2H1351V350.2h159.3c2.3 0 4.2 1.9 4.2 4.2z"/><path class="st1" d="M1259.4 599.5h37.2v58.4h-37.2v-58.4z"/><path class="st1" d="M1406 656.4c-.7-.7-1.9-1.2-2.9-1.2h-250.3c-.9 0-2.2.5-2.9 1.2l-15.4 15.4c-.7.7-.4 1.2.5 1.2h285.8c.9 0 1.2-.5.5-1.2l-15.3-15.4z"/><path class="st8" d="M1285.6 603.7c0 .9-.8 1.7-1.7 1.7h-11.8c-.9 0-1.7-.8-1.7-1.7v-.8c0-.9.8-1.7 1.7-1.7h11.8c.9 0 1.7.8 1.7 1.7v.8z"/><path class="st9" d="M1254.3 591.1c0-.9.8-1.7 1.7-1.7h44c.9 0 1.7.8 1.7 1.7v7.6c0 .9-.8 1.7-1.7 1.7h-44c-.9 0-1.7-.8-1.7-1.7v-7.6z"/><path class="st1" d="M1065.7 330.2c-2.4 0-4.2 1.9-4.2 4.2v251.3c0 2.4 1.9 4.2 4.2 4.2h424.5c2.4 0 4.2-1.9 4.2-4.2V334.4c0-2.4-1.9-4.2-4.2-4.2h-424.5z"/><path class="st10" d="M1475.6 565.8c0 2.4-1.9 4.2-4.2 4.2h-386.7c-2.4 0-4.2-1.9-4.2-4.2V352.1c0-2.4 1.9-4.2 4.2-4.2h386.7c2.4 0 4.2 1.9 4.2 4.2v213.7z"/><path class="st11" d="m1405.1 347.9-268.9 222h148.5l158.7-222h-38.3z"/><path class="st12" d="M1085.9 347.9c-3 0-5.6 2.5-5.6 5.6v210.9c0 3 2.5 5.6 5.6 5.6h50.2L1405 348l-319.1-.1z"/><g class="st13"><path class="st14" d="M864.1 122H859v17.4h-8.8V96.8h8.8v17.1h4l10.4-17.1h10.7l-13 20.2 14.5 22.5h-10.5l-11-17.5zm51.9-14.3v31.7h-8.5v-24.9H900l-.5 9.8c-.3 5.2-1.4 9-3.1 11.4-1.7 2.4-4.3 3.6-7.7 3.7h-2.9l-.1-6.9 1.1-.1c1.5-.1 2.6-1 3.3-2.7s1.1-4.5 1.3-8.6l.6-13.4h24zm25.6 0h8.5v31.7h-8.5v-19.6L931 139.4h-8.5v-31.7h8.5v19.5l10.6-19.5zm29.5 32.3c-4.6 0-8.4-1.4-11.4-4.3-2.9-2.9-4.4-6.7-4.4-11.4v-.8c0-3.2.6-6 1.8-8.5s3-4.4 5.2-5.8 4.8-2 7.7-2c4.3 0 7.7 1.4 10.2 4.1s3.7 6.6 3.7 11.6v3.5H964c.3 2.1 1.1 3.7 2.5 5s3.1 1.9 5.2 1.9c3.3 0 5.8-1.2 7.6-3.5l4.2 4.7c-1.3 1.8-3 3.2-5.2 4.2s-4.5 1.3-7.2 1.3zm-.9-26c-1.7 0-3 .6-4.1 1.7-1 1.1-1.7 2.8-2 4.9h11.8v-.7c0-1.9-.5-3.3-1.5-4.4-1-1-2.4-1.5-4.2-1.5zm46.3 25.4h-8.5v-12.2h-10.5v12.2H989v-31.7h8.5v12.7h10.5v-12.7h8.5v31.7zm32.8-24.8h-10.2v24.9h-8.5v-24.9h-10v-6.8h28.7v6.8zm20.8 10h-16.5v-6.8h16.5v6.8z"/></g><g class="st13"><path class="st14" d="M812 205.2c1.6 0 2.8-.4 3.8-1.3s1.5-2 1.5-3.4h7.9c0 2.1-.6 4.1-1.8 5.9-1.2 1.8-2.7 3.2-4.7 4.2s-4.2 1.5-6.6 1.5c-4.5 0-8.1-1.4-10.7-4.3-2.6-2.9-3.9-6.9-3.9-11.9v-.6c0-4.9 1.3-8.8 3.9-11.7 2.6-2.9 6.2-4.4 10.7-4.4 4 0 7.1 1.1 9.5 3.4 2.4 2.2 3.6 5.2 3.6 9h-7.9c0-1.6-.5-3-1.5-4s-2.3-1.5-3.9-1.5c-2 0-3.5.7-4.5 2.2-1 1.4-1.5 3.8-1.5 7v.9c0 3.3.5 5.6 1.5 7s2.6 2 4.6 2zm32.7 6.8c-4.6 0-8.4-1.4-11.4-4.3-2.9-2.9-4.4-6.7-4.4-11.4v-.8c0-3.2.6-6 1.8-8.5s3-4.4 5.2-5.8 4.8-2 7.7-2c4.3 0 7.7 1.4 10.2 4.1s3.7 6.6 3.7 11.6v3.5h-20.2c.3 2.1 1.1 3.7 2.5 5s3.1 1.9 5.2 1.9c3.3 0 5.8-1.2 7.6-3.5l4.2 4.7c-1.3 1.8-3 3.2-5.2 4.2s-4.2 1.3-6.9 1.3zm-.9-26c-1.7 0-3 .6-4.1 1.7-1 1.1-1.7 2.8-2 4.9h11.8v-.7c0-1.9-.5-3.3-1.5-4.4-1.1-1-2.4-1.5-4.2-1.5zm47.3 9.9c0 4.9-1.1 8.8-3.3 11.7-2.2 2.9-5.2 4.4-9 4.4-3.2 0-5.8-1.1-7.8-3.3v14.9h-8.5v-43.9h7.9l.3 3.1c2.1-2.5 4.7-3.7 8-3.7 3.9 0 6.9 1.4 9.1 4.3s3.3 6.9 3.3 12v.5zm-8.5-.6c0-2.9-.5-5.2-1.6-6.8-1-1.6-2.6-2.4-4.6-2.4-2.7 0-4.5 1-5.5 3v13c1 2.1 2.9 3.1 5.5 3.1 4.2 0 6.2-3.3 6.2-9.9zm14.3 16.1v-31.7h13.2c4.3 0 7.6.8 9.9 2.3 2.3 1.5 3.5 3.7 3.5 6.6 0 1.5-.5 2.8-1.5 3.9s-2.4 2.1-4.2 2.7c2.3.4 4 1.3 5.3 2.5 1.3 1.3 1.9 2.8 1.9 4.6 0 2.9-1.1 5.2-3.3 6.7-2.2 1.5-5.4 2.3-9.7 2.3h-15.1zm8.5-18.8h5.2c3 0 4.5-1 4.5-2.9 0-1.1-.4-2-1.2-2.4-.8-.5-2-.7-3.7-.7h-4.8v6zm0 5.7v6.4h6.8c3 0 4.5-1 4.5-3.1s-1.4-3.2-4.3-3.3h-7zm39.5 13.7c-4.6 0-8.4-1.4-11.4-4.3-2.9-2.9-4.4-6.7-4.4-11.4v-.8c0-3.2.6-6 1.8-8.5s3-4.4 5.2-5.8 4.8-2 7.7-2c4.3 0 7.7 1.4 10.2 4.1s3.7 6.6 3.7 11.6v3.5h-20.2c.3 2.1 1.1 3.7 2.5 5s3.1 1.9 5.2 1.9c3.3 0 5.8-1.2 7.6-3.5l4.2 4.7c-1.3 1.8-3 3.2-5.2 4.2s-4.3 1.3-6.9 1.3zm-1-26c-1.7 0-3 .6-4.1 1.7-1 1.1-1.7 2.8-2 4.9h11.8v-.7c0-1.9-.5-3.3-1.5-4.4-1-1-2.4-1.5-4.2-1.5zm47.4 9.9c0 4.9-1.1 8.8-3.3 11.7s-5.2 4.4-9 4.4c-3.2 0-5.8-1.1-7.8-3.3v14.9h-8.5v-43.9h7.9l.3 3.1c2.1-2.5 4.7-3.7 8-3.7 3.9 0 6.9 1.4 9.1 4.3s3.3 6.9 3.3 12v.5zm-8.5-.6c0-2.9-.5-5.2-1.6-6.8s-2.6-2.4-4.6-2.4c-2.7 0-4.5 1-5.5 3v13c1 2.1 2.9 3.1 5.5 3.1 4.2 0 6.2-3.3 6.2-9.9zm41.2 16.1h-8.5v-12.2H1005v12.2h-8.5v-31.7h8.5v12.7h10.5v-12.7h8.5v31.7zm15.6-22.4h6.1c2.7 0 5.1.5 7.2 1.4s3.7 2.2 4.8 3.9 1.7 3.7 1.7 6c0 3.3-1.2 6-3.7 8.1s-5.8 3.1-10.1 3.1h-14.4v-31.7h8.5v9.2zm0 6.8v8.8h6c1.7 0 3-.4 3.9-1.2.9-.8 1.3-1.8 1.3-3.2 0-1.4-.4-2.4-1.3-3.3s-2.2-1.2-3.9-1.2h-6zm33.2 15.6h-8.5v-31.7h8.5v31.7zm22 .6c-4.6 0-8.4-1.4-11.4-4.3s-4.4-6.7-4.4-11.4v-.8c0-3.2.6-6 1.8-8.5s3-4.4 5.2-5.8 4.8-2 7.7-2c4.3 0 7.7 1.4 10.2 4.1s3.7 6.6 3.7 11.6v3.5h-20.2c.3 2.1 1.1 3.7 2.5 5s3.1 1.9 5.2 1.9c3.3 0 5.8-1.2 7.6-3.5l4.2 4.7c-1.3 1.8-3 3.2-5.2 4.2s-4.3 1.3-6.9 1.3zm-1-26c-1.7 0-3 .6-4.1 1.7s-1.7 2.8-2 4.9h11.8v-.7c0-1.9-.5-3.3-1.5-4.4s-2.4-1.5-4.2-1.5z"/></g><g class="st13"><path class="st14" d="M813.2 283.4h-8.5v-24.9h-10.6v24.9h-8.5v-31.7h27.6v31.7zm35-15.5c0 4.9-1.1 8.8-3.3 11.7-2.2 2.9-5.2 4.4-9 4.4-3.2 0-5.8-1.1-7.8-3.3v14.9h-8.5v-43.9h7.9l.3 3.1c2.1-2.5 4.7-3.7 8-3.7 3.9 0 6.9 1.4 9.1 4.3s3.3 6.9 3.3 12v.5zm-8.4-.6c0-2.9-.5-5.2-1.6-6.8-1-1.6-2.6-2.4-4.6-2.4-2.7 0-4.5 1-5.5 3v13c1 2.1 2.9 3.1 5.5 3.1 4.1 0 6.2-3.3 6.2-9.9zm32.8-15.6h8.5v31.7h-8.5v-19.6L862 283.4h-8.5v-31.7h8.5v19.5l10.6-19.5zm42.5 0v31.7h-8.5v-24.9h-7.5l-.5 9.8c-.3 5.2-1.4 9-3.1 11.4-1.7 2.4-4.3 3.6-7.7 3.7H885l-.1-6.9 1.1-.1c1.5-.1 2.6-1 3.3-2.7s1.1-4.5 1.3-8.6l.6-13.4h23.9zm5.2 15.6c0-3.1.6-5.9 1.8-8.4 1.2-2.5 3-4.4 5.2-5.7 2.3-1.3 4.9-2 7.9-2 4.3 0 7.8 1.3 10.5 3.9 2.7 2.6 4.2 6.2 4.5 10.7l.1 2.2c0 4.9-1.4 8.8-4.1 11.7-2.7 2.9-6.4 4.4-10.9 4.4s-8.2-1.5-10.9-4.4-4.1-6.9-4.1-12v-.4zm8.5.6c0 3 .6 5.3 1.7 6.9 1.1 1.6 2.8 2.4 4.9 2.4 2.1 0 3.7-.8 4.8-2.4 1.2-1.6 1.7-4.1 1.7-7.6 0-3-.6-5.2-1.7-6.9-1.2-1.6-2.8-2.4-4.9-2.4-2.1 0-3.7.8-4.8 2.4-1.2 1.7-1.7 4.2-1.7 7.6zm56.6 3.8h-3.8v11.7h-8.5v-11.7h-3.8l-6.3 11.7h-10.2l10-16.6-9.9-15.1h10.5l6.6 11.8h3.1v-11.8h8.5v11.8h3.2l6.6-11.8h10.5l-9.8 14.9 10.1 16.8h-10.4l-6.4-11.7zm34.8 12.3c-4.6 0-8.4-1.4-11.4-4.3-2.9-2.9-4.4-6.7-4.4-11.4v-.8c0-3.2.6-6 1.8-8.5s3-4.4 5.2-5.8 4.8-2 7.7-2c4.3 0 7.7 1.4 10.2 4.1s3.7 6.6 3.7 11.6v3.5h-20c.3 2.1 1.1 3.7 2.5 5s3.1 1.9 5.2 1.9c3.3 0 5.8-1.2 7.6-3.5l4.2 4.7c-1.3 1.8-3 3.2-5.2 4.2s-4.5 1.3-7.1 1.3zm-1-26c-1.7 0-3 .6-4.1 1.7-1 1.1-1.7 2.8-2 4.9h11.8v-.7c0-1.9-.5-3.3-1.5-4.4-1-1-2.4-1.5-4.2-1.5zm46.3 25.4h-8.5v-12.2h-10.5v12.2h-8.5v-31.7h8.5v12.7h10.5v-12.7h8.5v31.7zm25.7-31.7h8.5v31.7h-8.5v-19.6l-10.6 19.6h-8.5v-31.7h8.5v19.5l10.6-19.5zm41.3 0v31.7h-8.4v-11h-5.4l-6.1 11h-8.6l6.9-12.4c-1.9-.9-3.4-2.1-4.4-3.6s-1.5-3.2-1.5-5.1c0-3.1 1.2-5.6 3.6-7.5s5.6-3 9.5-3.1h14.4zm-14.2 14.9h5.8v-8h-5.5c-1.5 0-2.7.4-3.7 1.2s-1.4 1.7-1.4 2.9.4 2.1 1.3 2.8c1 .7 2.1 1 3.5 1.1z"/></g></svg>