<svg xmlns="http://www.w3.org/2000/svg" viewBox="0 0 1920 673" xml:space="preserve"><path fill="#23a8a9" d="M0 0h1920v673H0z"/><path d="M801.7 336.5c20.1-3.1 34.2-10.1 42.3-20.9 8-10.9 12-29.8 12-56.6v-51c0-22.9 2.8-38 8.5-45.2 5.7-6.8 17-10.3 33.9-10.3h30v-46.4h-36.6c-40.9 0-68 5.9-81.3 17.8-13.8 11.9-20.8 35.9-20.8 72v52.5c0 24.4-4.3 41.4-12.9 51-8.5 9-23.6 13.6-45.2 13.9v23.1h70.1z" fill="#d03a34"/><path d="M801.7 336.5c20.1 3.1 34.2 10.1 42.3 20.9 8 10.9 12 29.8 12 56.6v51c0 22.9 2.8 38 8.5 45.2 5.7 6.8 17 10.3 33.9 10.3h30v46.4h-36.6c-40.9 0-68-5.9-81.3-17.8-13.8-11.9-20.8-35.9-20.8-72v-52.5c0-24.4-4.3-41.4-12.9-51-8.5-9-23.6-13.6-45.2-13.9v-23.1h70.1z" fill="#3475e5"/><path d="M1118.3 336.5c-20.1-3.1-34.2-10.1-42.3-20.9-8-10.9-12-29.8-12-56.6v-51c0-22.9-2.8-38-8.5-45.2-5.7-6.8-17-10.3-33.9-10.3h-30v-46.4h36.6c40.9 0 68 5.9 81.3 17.8 13.8 11.9 20.8 35.9 20.8 72v52.5c0 24.4 4.3 41.4 12.9 51 8.5 9 23.6 13.6 45.2 13.9v23.1h-70.1z" fill="#099350"/><path d="M1118.3 336.5c-20.1 3.1-34.2 10.1-42.3 20.9-8 10.9-12 29.8-12 56.6v51c0 22.9-2.8 38-8.5 45.2-5.7 6.8-17 10.3-33.9 10.3h-30v46.4h36.6c40.9 0 68-5.9 81.3-17.8 13.8-11.9 20.8-35.9 20.8-72v-52.5c0-24.4 4.3-41.4 12.9-51 8.5-9 23.6-13.6 45.2-13.9v-23.1h-70.1z" fill="#eaba37"/></svg>