<svg xmlns="http://www.w3.org/2000/svg" viewBox="0 0 1920 673" xml:space="preserve"><style>.st0{fill:#2aa0db}.st1{fill:#dedcd9}</style><path class="st0" d="M0 0h1920v673H0z"/><path class="st1" d="M927 441.3h44v69h-44v-69z"/><path class="st1" d="M1100.4 508.6c-.8-.8-2.3-1.4-3.4-1.4H801c-1.1 0-2.6.6-3.4 1.4l-18.2 18.2c-.8.8-.5 1.4.6 1.4h338c1.1 0 1.4-.6.6-1.4l-18.2-18.2z"/><path d="M958 446.3c0 1.1-.9 2-2 2h-14c-1.1 0-2-.9-2-2v-1c0-1.1.9-2 2-2h14c1.1 0 2 .9 2 2v1z" fill="#b24b53"/><path d="M921 431.3c0-1.1.9-2 2-2h52c1.1 0 2 .9 2 2v9c0 1.1-.9 2-2 2h-52c-1.1 0-2-.9-2-2v-9z" fill="#a6a3a1"/><path class="st1" d="M698 122.8c-2.8 0-5 2.3-5 5V425c0 2.8 2.3 5 5 5h502c2.8 0 5-2.3 5-5V127.8c0-2.8-2.3-5-5-5H698z"/><path class="st0" d="M1182.7 401.4c0 2.8-2.3 5-5 5H720.4c-2.8 0-5-2.3-5-5V148.8c0-2.8 2.3-5 5-5h457.3c2.8 0 5 2.3 5 5v252.6z"/><path d="m929.1 294.5 82.6 81.7 49.5-21V195l-49.5-21-82.6 81.7-49.7-37.5-20.5 6.9v100.1l20.5 6.9 49.7-37.6zm82.6-62.2V318l-56.8-42.8 56.8-42.9zm-132.4 13 30.1 29.8-30.1 29.8v-59.6z" fill="#fff"/></svg>