<svg xmlns="http://www.w3.org/2000/svg" viewBox="0 0 1920 673" xml:space="preserve"><style>.st1{opacity:.1;fill:#fff}.st2{fill:#ddd}.st3{opacity:.15;fill:#444;enable-background:new}.st4{fill:#36434f}.st5{fill:#fff}.st8{fill:#eec646}</style><path fill="#2d3e50" d="M0 0h1920v673H0z"/><path class="st1" d="M1539.9 673 856.6 216.2 839.7 233l-25.2 25.2-16.8 16.9 266 397.9z"/><path class="st1" d="M1382.8 673 842 230.8l-8.5 8.5-12.7 12.7-8.5 8.5L1149.6 673z"/><path class="st2" d="M639.5 651h-32v-67.5L425.1 359.6c-3.3-4-4.4-9.3-3-14.3 1.3-5 5-9 9.8-10.8L770.4 208l11.2 30L464 356.7l171.9 211c2.3 2.9 3.6 6.4 3.6 10.1V651z"/><path class="st3" d="M607.5 633h32v18h-32v-18z"/><path class="st2" d="M696 673H548v-24c0-4.4 3.6-8 8-8h132c4.4 0 8 3.6 8 8v24z"/><circle class="st4" cx="443.5" cy="350.5" r="7.5"/><path class="st5" d="M443.5 343c4.1 0 7.5 3.4 7.5 7.5s-3.4 7.5-7.5 7.5-7.5-3.4-7.5-7.5 3.4-7.5 7.5-7.5m0-4c-6.3 0-11.5 5.2-11.5 11.5s5.2 11.5 11.5 11.5 11.5-5.2 11.5-11.5-5.2-11.5-11.5-11.5z"/><circle class="st4" cx="622" cy="577.5" r="7.5"/><path class="st5" d="M622 570c4.1 0 7.5 3.4 7.5 7.5s-3.4 7.5-7.5 7.5-7.5-3.4-7.5-7.5 3.4-7.5 7.5-7.5m0-4c-6.3 0-11.5 5.2-11.5 11.5S615.7 589 622 589s11.5-5.2 11.5-11.5S628.3 566 622 566z"/><circle class="st4" cx="746.5" cy="233.5" r="7.5"/><path class="st5" d="M746.5 226c4.1 0 7.5 3.4 7.5 7.5s-3.4 7.5-7.5 7.5-7.5-3.4-7.5-7.5 3.4-7.5 7.5-7.5m0-4c-6.3 0-11.5 5.2-11.5 11.5s5.2 11.5 11.5 11.5 11.5-5.2 11.5-11.5-5.2-11.5-11.5-11.5z"/><path d="m770.4 208-21.8 8.2 24.8 24.8 8.2-3-11.2-30z" opacity=".3" fill="#444"/><circle cx="846.3" cy="264.4" r="26" fill="#ffdd7a"/><path class="st8" d="m763.1 165.7-15.6 15.6c-6.2 6.2-6.2 16.4 0 22.6l48.8 48.8 38.2-38.2-48.7-48.8c-6.3-6.3-16.4-6.3-22.7 0zm19.1 47.4c.8.8.8 2 0 2.8-.8.8-2 .8-2.8 0L766 202.5c-.8-.8-.8-2 0-2.8s2-.8 2.8 0l13.4 13.4zm7.8-7.8c.8.8.8 2 0 2.8-.8.8-2 .8-2.8 0l-13.4-13.4c-.8-.8-.8-2 0-2.8.8-.8 2-.8 2.8 0l13.4 13.4zm7.8-7.8c.8.8.8 2 0 2.8s-2 .8-2.8 0l-13.4-13.4c-.8-.8-.8-2 0-2.8.8-.8 2-.8 2.8 0l13.4 13.4z"/><path class="st3" d="M818.9 198.8c-7.8 4.3-15.2 9.7-21.8 16.4-6.6 6.6-12.1 14-16.4 21.8l15.6 15.6 38.2-38.2-15.6-15.6z"/><path class="st8" d="M907.9 216.1c-30.6-25.6-76.3-24.1-105.1 4.7S772.4 295.3 798 326l109.9-109.9z"/><path class="st3" d="M781.6 259.6c2.5 20.6 11 40.6 25.5 57.2l10.6-10.6c-1.7-1.5-3.4-3.1-5.1-4.8-13.8-13.8-23.6-30-29.6-47.2-.5 1.8-1 3.6-1.4 5.4z"/><path class="st3" d="m747.6 203.9 33.1 33.1 6.3 6.3c-2 4.3-3.6 8.8-4.7 13.4 0 .1-.1.3-.1.4-.2.8-.4 1.6-.6 2.5-4.9 22.8.6 47.5 16.4 66.4l9.1-9.1 10.6-10.6 35.2-35.2-62.9-63c-.8.8-2 .8-2.8 0l-13.4-13.4c-.8-.8-.8-2 0-2.8l-18.4-18.4-7.8 7.8c-6.3 6.2-6.3 16.3 0 22.6zm18.4-1.4c-.8-.8-.8-2 0-2.8s2-.8 2.8 0l13.4 13.4c.8.8.8 2 0 2.8-.8.8-2 .8-2.8 0L766 202.5zM464 356.7l158-59.1v-34.2l-190.1 71c-4.8 1.8-8.5 5.8-9.8 10.8-1.3 5-.2 10.3 3 14.3l182.4 223.9V641H556c-4.4 0-8 3.6-8 8v24h74V550.7l-158-194z"/><path d="M1076.9 365.8c-1.1 15.3-6.8 27.3-16.9 36.1-10.2 8.8-23.6 13.2-40.3 13.2-18.2 0-32.6-6.1-43-18.4-10.4-12.3-15.7-29.1-15.7-50.5v-8.7c0-13.7 2.4-25.7 7.2-36.1 4.8-10.4 11.7-18.4 20.7-24 9-5.6 19.4-8.3 31.2-8.3 16.4 0 29.6 4.4 39.6 13.2 10 8.8 15.8 21.1 17.4 37h-29.3c-.7-9.2-3.3-15.8-7.7-20-4.4-4.1-11.1-6.2-20.1-6.2-9.8 0-17.1 3.5-21.9 10.5-4.9 7-7.3 17.9-7.5 32.6v10.7c0 15.4 2.3 26.6 7 33.7 4.7 7.1 12 10.6 22 10.6 9 0 15.8-2.1 20.3-6.2s7-10.5 7.7-19.2h29.3zm74.3-32.3h35.3V359h-35.3v39.8h-26.9V359H1089v-25.5h35.4v-38.2h26.9v38.2zm109.2 0h35.3V359h-35.3v39.8h-26.9V359h-35.4v-25.5h35.4v-38.2h26.9v38.2zm119.6 79.6h-28.2V304.3l-33.7 10.4v-22.9l58.9-21.1h3v142.4zm114.8 0h-28.2V304.3l-33.7 10.4v-22.9l58.9-21.1h3v142.4z" fill="#616d7a"/></svg>