<svg xmlns="http://www.w3.org/2000/svg" viewBox="0 0 1920 673" xml:space="preserve"><style>.st0{fill:#68217a}</style><path class="st0" d="M0 0h1920v673H0z"/><g opacity=".1"><path class="st0" d="M759.3 477.9 708.6 461V212l50.7-16.9L883 288.3 1088.5 85l123.2 52.3v398.4L1088.5 588 883 384.7l-123.7 93.2zm187.5-141.7L1088 443V229.9L946.8 336.2zm-187.5 74.2 74.7-74.1-74.7-73.6v147.7z"/><path d="m1088.5 85 123.2 52.3v398.4L1088.5 588 883 384.7l-123.7 93.2-50.7-16.9V212l50.7-16.9L883 288.3 1088.5 85m-.6 358.1V229.9L946.8 336.2l141.1 106.9m-328.6-32.7 74.7-74.1-74.7-73.6v147.7M1077 25l-24.2 23.9-174.3 172.5-88.7-66.8-21.3-16-25.3 8.4-50.7 16.9-34.7 11.6v322l34.7 11.6 50.7 16.9 25.3 8.4 21.3-16 88.7-66.8 174.3 172.5L1077 648l31.3-13.3 123.2-52.3 36.6-13.1V103.8l-36.6-13.1-123.2-52.3L1077 25z" fill="#fff"/></g><path d="M1064.5 57.6c-25-22.3-55.3-13.3-85.3 13.2-4.4 3.9-8.9 8.4-13.3 13-51.2 54.3-98.7 154.8-113.4 231.8 5.7 11.7 10.2 26.5 13.2 37.9.8 2.8 1.5 5.6 1.9 8.1 1.3 5.5 1.9 9.1 1.9 9.1s-.5-1.7-2.3-7.3c-.3-1-.8-2.2-1.3-3.5-.2-.6-.5-1.3-.8-1.9-3.3-7.9-12.6-24.1-16.6-31.2-3.4 10.2-6.5 19.8-9.1 28.6 11.7 21.5 18.9 58.3 18.9 58.3s-.6-2.4-3.5-10.7c-2.6-7.4-15.6-30.2-18.7-35.6-5.2 19.5-7.4 32.7-5.5 36 3.6 6.1 7.3 17 10.2 28.8 7.1 26.8 11.8 59.2 11.8 59.2s.1 2.2.5 5.5c-.9 22.4-.3 45.7 1.4 66.7 2.3 27.8 6.6 51.8 12.2 64.5l3.8-2c-8.2-25.3-11.4-58.2-10-96.3 2.2-58.2 15.6-128.4 40.3-201.6 41.7-110.8 99.7-199.3 152.8-241.7-48.4 43.7-113.8 185.2-133.5 237.6-22 58.6-37.6 113.7-46.9 166.6 16.2-49.5 68.5-70.7 68.5-70.7s25.7-31.6 55.7-77c-17.9 4.1-47.4 11.2-57.4 15.3-14.6 6-18.4 8.2-18.4 8.2s47.1-28.7 87.7-41.8c55.6-87.9 116.2-212.5 55.2-267.1" fill="#f4f4f4"/></svg>