<svg xmlns="http://www.w3.org/2000/svg" viewBox="0 0 1920 673" xml:space="preserve"><style>.st1{fill:#36434f}.st2{fill:#999}.st3{fill:#122a3a}.st4{fill:#cc584c}.st5{fill:#4caf50}.st6{fill:#eec646}.st18{enable-background:new}.st19{fill:#fff}</style><path d="M0 0h1920v673H0V0z" fill="#4653a5"/><path class="st1" d="M810.3 673H461.2c-5.1 0-9.2-4.1-9.2-9.2V94.2c0-5.1 4.1-9.2 9.2-9.2h349.1c5.1 0 9.2 4.1 9.2 9.2v569.6c0 5.1-4.1 9.2-9.2 9.2z"/><path class="st2" d="M503.7 218.2h264.1v27.6H503.7v-27.6z"/><path class="st1" d="M541 227.4h1.1v3.4h-5.7v-3.4h1.1l1.1-2.3h1.1l1.3 2.3zm6.9-2.3h-1.1l-1.1 2.3h-1.1v3.4h5.7v-3.4H549l-1.1-2.3zm8 0h-1.1l-1.1 2.3h-1.1v3.4h5.7v-3.4h-1.1l-1.3-2.3zm8.1 0h-1.1l-1.1 2.3h-1.1v3.4h5.7v-3.4h-1.1l-1.3-2.3zm8 0h-1.1l-1.1 2.3h-1.1v3.4h5.7v-3.4h-1.1l-1.3-2.3zm8.1 0H579l-1.1 2.3h-1.1v3.4h5.7v-3.4h-1.1l-1.3-2.3zm8 0H587l-1.1 2.3h-1.1v3.4h5.7v-3.4h-1.1l-1.3-2.3zm8 0H595l-1.1 2.3h-1.1v3.4h5.7v-3.4h-1.1l-1.3-2.3zm8.1 0H603l-1.1 2.3h-1.1v3.4h5.7v-3.4h-1.1l-1.2-2.3zm8 0h-1.1l-1.1 2.3h-1.1v3.4h5.7v-3.4h-1.1l-1.3-2.3zm8 0h-1.1l-1.1 2.3h-1.1v3.4h5.7v-3.4h-1.1l-1.3-2.3zm8.1 0h-1.1l-1.1 2.3H625v3.4h5.7v-3.4h-1.1l-1.3-2.3zm8 0h-1.1l-1.1 2.3H633v3.4h5.7v-3.4h-1.1l-1.3-2.3zm8.1 0h-1.1l-1.1 2.3h-1.1v3.4h5.7v-3.4h-1.1l-1.3-2.3zm8 0h-1.1l-1.1 2.3H649v3.4h5.7v-3.4h-1.1l-1.2-2.3zm8 0h-1.1l-1.1 2.3H657v3.4h5.7v-3.4h-1.1l-1.2-2.3zm8.1 0h-1.1l-1.1 2.3H665v3.4h5.7v-3.4h-1.1l-1.1-2.3zm8 0h-1.1l-1.1 2.3h-1.1v3.4h5.7v-3.4h-1.1l-1.3-2.3zm8.1 0h-1.1l-1.1 2.3h-1.1v3.4h5.7v-3.4h-1.1l-1.3-2.3zm8 0h-1.1l-1.1 2.3h-1.1v3.4h5.7v-3.4h-1.1l-1.3-2.3zm8 0h-1.1l-1.1 2.3h-1.1v3.4h5.7v-3.4h-1.1l-1.3-2.3zm8.1 0h-1.1l-1.1 2.3h-1.1v3.4h5.7v-3.4H710l-1.3-2.3zm8 0h-1.1l-1.1 2.3h-1.1v3.4h5.7v-3.4H718l-1.3-2.3zm8.1 0h-1.1l-1.1 2.3h-1.1v3.4h5.7v-3.4h-1.1l-1.3-2.3zm9.1 2.3-1.1-2.3h-1.1l-1.1 2.3h-1.1v3.4h5.7v-3.4h-1.3zm-194 12.6h-1.1l-1.1-2.3h-1.1v-3.4h5.7v3.4H541l-1.1 2.3zm9.1-2.3h1.1v-3.4h-5.7v3.4h1.1l1.1 2.3h1.1l1.3-2.3zm8.1 0h1.1v-3.4h-5.7v3.4h1.1l1.1 2.3h1.1l1.3-2.3zm8 0h1.1v-3.4h-5.7v3.4h1.1l1.1 2.3h1.1l1.3-2.3zm8.1 0h1.1v-3.4h-5.7v3.4h1.1l1.1 2.3h1.1l1.3-2.3zm8 0h1.1v-3.4h-5.7v3.4h1.1l1.1 2.3h1.1l1.3-2.3zm8 0h1.1v-3.4h-5.7v3.4h1.1l1.1 2.3h1.1l1.3-2.3zm8.1 0h1.1v-3.4h-5.7v3.4h1.1l1.1 2.3h1.1l1.3-2.3zm8 0h1.1v-3.4h-5.7v3.4h1.1l1.1 2.3h1.1l1.3-2.3zm8.1 0h1.1v-3.4h-5.7v3.4h1.1l1.1 2.3h1.1l1.3-2.3zm8 0h1.1v-3.4h-5.7v3.4h1.1l1.1 2.3h1.1l1.3-2.3zm8 0h1.1v-3.4h-5.7v3.4h1.1l1.1 2.3h1.1l1.3-2.3zm8.1 0h1.1v-3.4h-5.7v3.4h1.1l1.1 2.3h1.1l1.3-2.3zm8 0h1.1v-3.4h-5.7v3.4h1.1l1.1 2.3h1.1l1.3-2.3zm8.1 0h1.1v-3.4H649v3.4h1.1l1.1 2.3h1.1l1.3-2.3zm8 0h1.1v-3.4H657v3.4h1.1l1.1 2.3h1.1l1.3-2.3zm8 0h1.1v-3.4H665v3.4h1.1l1.1 2.3h1.1l1.3-2.3zm8.1 0h1.1v-3.4h-5.7v3.4h1.1l1.1 2.3h1.1l1.3-2.3zm8 0h1.1v-3.4h-5.7v3.4h1.1l1.1 2.3h1.1l1.3-2.3zm8 0h1.1v-3.4h-5.7v3.4h1.1l1.1 2.3h1.1l1.3-2.3zm8.1 0h1.1v-3.4h-5.7v3.4h1.1l1.1 2.3h1.1l1.3-2.3zm8 0h1.1v-3.4h-5.7v3.4h1.1l1.1 2.3h1.1l1.3-2.3zm8.1 0h1.1v-3.4h-5.7v3.4h1.1l1.1 2.3h1.1l1.3-2.3zm8 0h1.1v-3.4h-5.7v3.4h1.1l1.1 2.3h1.1l1.3-2.3zm9.2 0v-3.4h-5.7v3.4h1.1l1.1 2.3h1.1l1.1-2.3h1.3z"/><circle transform="rotate(-80.781 514.005 223.392)" class="st1" cx="514" cy="223.4" r="2.9"/><circle transform="rotate(-80.781 514.005 240.592)" class="st1" cx="514" cy="240.6" r="2.9"/><circle class="st1" cx="757.5" cy="223.4" r="2.9"/><circle class="st1" cx="757.5" cy="240.6" r="2.9"/><path class="st2" d="M503.7 252.7h264.1v27.6H503.7v-27.6z"/><path class="st1" d="M541 261.9h1.1v3.4h-5.7v-3.4h1.1l1.1-2.3h1.1l1.3 2.3zm6.9-2.3h-1.1l-1.1 2.3h-1.1v3.4h5.7v-3.4H549l-1.1-2.3zm8 0h-1.1l-1.1 2.3h-1.1v3.4h5.7v-3.4h-1.1l-1.3-2.3zm8.1 0h-1.1l-1.1 2.3h-1.1v3.4h5.7v-3.4h-1.1l-1.3-2.3zm8 0h-1.1l-1.1 2.3h-1.1v3.4h5.7v-3.4h-1.1l-1.3-2.3zm8.1 0H579l-1.1 2.3h-1.1v3.4h5.7v-3.4h-1.1l-1.3-2.3zm8 0H587l-1.1 2.3h-1.1v3.4h5.7v-3.4h-1.1l-1.3-2.3zm8 0H595l-1.1 2.3h-1.1v3.4h5.7v-3.4h-1.1l-1.3-2.3zm8.1 0H603l-1.1 2.3h-1.1v3.4h5.7v-3.4h-1.1l-1.2-2.3zm8 0h-1.1l-1.1 2.3h-1.1v3.4h5.7v-3.4h-1.1l-1.3-2.3zm8 0h-1.1l-1.1 2.3h-1.1v3.4h5.7v-3.4h-1.1l-1.3-2.3zm8.1 0h-1.1l-1.1 2.3H625v3.4h5.7v-3.4h-1.1l-1.3-2.3zm8 0h-1.1l-1.1 2.3H633v3.4h5.7v-3.4h-1.1l-1.3-2.3zm8.1 0h-1.1l-1.1 2.3h-1.1v3.4h5.7v-3.4h-1.1l-1.3-2.3zm8 0h-1.1l-1.1 2.3H649v3.4h5.7v-3.4h-1.1l-1.2-2.3zm8 0h-1.1l-1.1 2.3H657v3.4h5.7v-3.4h-1.1l-1.2-2.3zm8.1 0h-1.1l-1.1 2.3H665v3.4h5.7v-3.4h-1.1l-1.1-2.3zm8 0h-1.1l-1.1 2.3h-1.1v3.4h5.7v-3.4h-1.1l-1.3-2.3zm8.1 0h-1.1l-1.1 2.3h-1.1v3.4h5.7v-3.4h-1.1l-1.3-2.3zm8 0h-1.1l-1.1 2.3h-1.1v3.4h5.7v-3.4h-1.1l-1.3-2.3zm8 0h-1.1l-1.1 2.3h-1.1v3.4h5.7v-3.4h-1.1l-1.3-2.3zm8.1 0h-1.1l-1.1 2.3h-1.1v3.4h5.7v-3.4H710l-1.3-2.3zm8 0h-1.1l-1.1 2.3h-1.1v3.4h5.7v-3.4H718l-1.3-2.3zm8.1 0h-1.1l-1.1 2.3h-1.1v3.4h5.7v-3.4h-1.1l-1.3-2.3zm9.1 2.3-1.1-2.3h-1.1l-1.1 2.3h-1.1v3.4h5.7v-3.4h-1.3zm-194 12.6h-1.1l-1.1-2.3h-1.1v-3.4h5.7v3.4H541l-1.1 2.3zm9.1-2.3h1.1v-3.4h-5.7v3.4h1.1l1.1 2.3h1.1l1.3-2.3zm8.1 0h1.1v-3.4h-5.7v3.4h1.1l1.1 2.3h1.1l1.3-2.3zm8 0h1.1v-3.4h-5.7v3.4h1.1l1.1 2.3h1.1l1.3-2.3zm8.1 0h1.1v-3.4h-5.7v3.4h1.1l1.1 2.3h1.1l1.3-2.3zm8 0h1.1v-3.4h-5.7v3.4h1.1l1.1 2.3h1.1l1.3-2.3zm8 0h1.1v-3.4h-5.7v3.4h1.1l1.1 2.3h1.1l1.3-2.3zm8.1 0h1.1v-3.4h-5.7v3.4h1.1l1.1 2.3h1.1l1.3-2.3zm8 0h1.1v-3.4h-5.7v3.4h1.1l1.1 2.3h1.1l1.3-2.3zm8.1 0h1.1v-3.4h-5.7v3.4h1.1l1.1 2.3h1.1l1.3-2.3zm8 0h1.1v-3.4h-5.7v3.4h1.1l1.1 2.3h1.1l1.3-2.3zm8 0h1.1v-3.4h-5.7v3.4h1.1l1.1 2.3h1.1l1.3-2.3zm8.1 0h1.1v-3.4h-5.7v3.4h1.1l1.1 2.3h1.1l1.3-2.3zm8 0h1.1v-3.4h-5.7v3.4h1.1l1.1 2.3h1.1l1.3-2.3zm8.1 0h1.1v-3.4H649v3.4h1.1l1.1 2.3h1.1l1.3-2.3zm8 0h1.1v-3.4H657v3.4h1.1l1.1 2.3h1.1l1.3-2.3zm8 0h1.1v-3.4H665v3.4h1.1l1.1 2.3h1.1l1.3-2.3zm8.1 0h1.1v-3.4h-5.7v3.4h1.1l1.1 2.3h1.1l1.3-2.3zm8 0h1.1v-3.4h-5.7v3.4h1.1l1.1 2.3h1.1l1.3-2.3zm8 0h1.1v-3.4h-5.7v3.4h1.1l1.1 2.3h1.1l1.3-2.3zm8.1 0h1.1v-3.4h-5.7v3.4h1.1l1.1 2.3h1.1l1.3-2.3zm8 0h1.1v-3.4h-5.7v3.4h1.1l1.1 2.3h1.1l1.3-2.3zm8.1 0h1.1v-3.4h-5.7v3.4h1.1l1.1 2.3h1.1l1.3-2.3zm8 0h1.1v-3.4h-5.7v3.4h1.1l1.1 2.3h1.1l1.3-2.3zm9.2 0v-3.4h-5.7v3.4h1.1l1.1 2.3h1.1l1.1-2.3h1.3z"/><circle transform="rotate(-80.781 514.005 257.792)" class="st1" cx="514" cy="257.8" r="2.9"/><circle transform="rotate(-80.781 514.006 275.092)" class="st1" cx="514" cy="275.1" r="2.9"/><circle class="st1" cx="757.5" cy="257.8" r="2.9"/><circle class="st1" cx="757.5" cy="275.1" r="2.9"/><path class="st2" d="M503.7 287.1h264.1v27.6H503.7v-27.6z"/><path class="st1" d="M541 296.3h1.1v3.4h-5.7v-3.4h1.1l1.1-2.3h1.1l1.3 2.3zm6.9-2.3h-1.1l-1.1 2.3h-1.1v3.4h5.7v-3.4H549l-1.1-2.3zm8 0h-1.1l-1.1 2.3h-1.1v3.4h5.7v-3.4h-1.1l-1.3-2.3zm8.1 0h-1.1l-1.1 2.3h-1.1v3.4h5.7v-3.4h-1.1L564 294zm8 0h-1.1l-1.1 2.3h-1.1v3.4h5.7v-3.4h-1.1L572 294zm8.1 0H579l-1.1 2.3h-1.1v3.4h5.7v-3.4h-1.1l-1.3-2.3zm8 0H587l-1.1 2.3h-1.1v3.4h5.7v-3.4h-1.1l-1.3-2.3zm8 0H595l-1.1 2.3h-1.1v3.4h5.7v-3.4h-1.1l-1.3-2.3zm8.1 0H603l-1.1 2.3h-1.1v3.4h5.7v-3.4h-1.1l-1.2-2.3zm8 0h-1.1l-1.1 2.3h-1.1v3.4h5.7v-3.4h-1.1l-1.3-2.3zm8 0h-1.1l-1.1 2.3h-1.1v3.4h5.7v-3.4h-1.1l-1.3-2.3zm8.1 0h-1.1l-1.1 2.3H625v3.4h5.7v-3.4h-1.1l-1.3-2.3zm8 0h-1.1l-1.1 2.3H633v3.4h5.7v-3.4h-1.1l-1.3-2.3zm8.1 0h-1.1l-1.1 2.3h-1.1v3.4h5.7v-3.4h-1.1l-1.3-2.3zm8 0h-1.1l-1.1 2.3H649v3.4h5.7v-3.4h-1.1l-1.2-2.3zm8 0h-1.1l-1.1 2.3H657v3.4h5.7v-3.4h-1.1l-1.2-2.3zm8.1 0h-1.1l-1.1 2.3H665v3.4h5.7v-3.4h-1.1l-1.1-2.3zm8 0h-1.1l-1.1 2.3h-1.1v3.4h5.7v-3.4h-1.1l-1.3-2.3zm8.1 0h-1.1l-1.1 2.3h-1.1v3.4h5.7v-3.4h-1.1l-1.3-2.3zm8 0h-1.1l-1.1 2.3h-1.1v3.4h5.7v-3.4h-1.1l-1.3-2.3zm8 0h-1.1l-1.1 2.3h-1.1v3.4h5.7v-3.4h-1.1l-1.3-2.3zm8.1 0h-1.1l-1.1 2.3h-1.1v3.4h5.7v-3.4H710l-1.3-2.3zm8 0h-1.1l-1.1 2.3h-1.1v3.4h5.7v-3.4H718l-1.3-2.3zm8.1 0h-1.1l-1.1 2.3h-1.1v3.4h5.7v-3.4h-1.1l-1.3-2.3zm9.1 2.3-1.1-2.3h-1.1l-1.1 2.3h-1.1v3.4h5.7v-3.4h-1.3zm-194 12.6h-1.1l-1.1-2.3h-1.1v-3.4h5.7v3.4H541l-1.1 2.3zm9.1-2.3h1.1v-3.4h-5.7v3.4h1.1l1.1 2.3h1.1l1.3-2.3zm8.1 0h1.1v-3.4h-5.7v3.4h1.1l1.1 2.3h1.1l1.3-2.3zm8 0h1.1v-3.4h-5.7v3.4h1.1l1.1 2.3h1.1l1.3-2.3zm8.1 0h1.1v-3.4h-5.7v3.4h1.1l1.1 2.3h1.1l1.3-2.3zm8 0h1.1v-3.4h-5.7v3.4h1.1l1.1 2.3h1.1l1.3-2.3zm8 0h1.1v-3.4h-5.7v3.4h1.1l1.1 2.3h1.1l1.3-2.3zm8.1 0h1.1v-3.4h-5.7v3.4h1.1l1.1 2.3h1.1l1.3-2.3zm8 0h1.1v-3.4h-5.7v3.4h1.1l1.1 2.3h1.1l1.3-2.3zm8.1 0h1.1v-3.4h-5.7v3.4h1.1l1.1 2.3h1.1l1.3-2.3zm8 0h1.1v-3.4h-5.7v3.4h1.1l1.1 2.3h1.1l1.3-2.3zm8 0h1.1v-3.4h-5.7v3.4h1.1l1.1 2.3h1.1l1.3-2.3zm8.1 0h1.1v-3.4h-5.7v3.4h1.1l1.1 2.3h1.1l1.3-2.3zm8 0h1.1v-3.4h-5.7v3.4h1.1l1.1 2.3h1.1l1.3-2.3zm8.1 0h1.1v-3.4H649v3.4h1.1l1.1 2.3h1.1l1.3-2.3zm8 0h1.1v-3.4H657v3.4h1.1l1.1 2.3h1.1l1.3-2.3zm8 0h1.1v-3.4H665v3.4h1.1l1.1 2.3h1.1l1.3-2.3zm8.1 0h1.1v-3.4h-5.7v3.4h1.1l1.1 2.3h1.1l1.3-2.3zm8 0h1.1v-3.4h-5.7v3.4h1.1l1.1 2.3h1.1l1.3-2.3zm8 0h1.1v-3.4h-5.7v3.4h1.1l1.1 2.3h1.1l1.3-2.3zm8.1 0h1.1v-3.4h-5.7v3.4h1.1l1.1 2.3h1.1l1.3-2.3zm8 0h1.1v-3.4h-5.7v3.4h1.1l1.1 2.3h1.1l1.3-2.3zm8.1 0h1.1v-3.4h-5.7v3.4h1.1l1.1 2.3h1.1l1.3-2.3zm8 0h1.1v-3.4h-5.7v3.4h1.1l1.1 2.3h1.1l1.3-2.3zm9.2 0v-3.4h-5.7v3.4h1.1l1.1 2.3h1.1l1.1-2.3h1.3z"/><circle transform="rotate(-80.781 514.006 292.292)" class="st1" cx="514" cy="292.3" r="2.9"/><circle transform="rotate(-80.781 514.006 309.492)" class="st1" cx="514" cy="309.5" r="2.9"/><circle class="st1" cx="757.5" cy="292.3" r="2.9"/><circle class="st1" cx="757.5" cy="309.5" r="2.9"/><path class="st3" d="M503.7 493.8h264.1v41.3H503.7v-41.3z"/><circle transform="rotate(-80.781 514.01 498.992)" class="st1" cx="514" cy="499" r="2.9"/><circle transform="rotate(-22.5 513.974 529.978)" class="st1" cx="514" cy="530" r="2.9"/><circle class="st1" cx="757.5" cy="499" r="2.9"/><circle class="st1" cx="757.5" cy="530" r="2.9"/><path class="st4" d="M524.9 511.1h221.6v9.2H524.9v-9.2z"/><path class="st2" d="M711.5 528.3h-18.4c-2.5 0-4.6-2.1-4.6-4.6v-18.4c0-2.5 2.1-4.6 4.6-4.6h18.4c2.5 0 4.6 2.1 4.6 4.6v18.4c0 2.5-2 4.6-4.6 4.6z"/><path class="st3" d="M503.7 542.1h264.1v41.3H503.7v-41.3z"/><circle transform="rotate(-22.5 513.974 547.177)" class="st1" cx="514" cy="547.2" r="2.9"/><circle transform="rotate(-22.5 513.974 578.276)" class="st1" cx="514" cy="578.3" r="2.9"/><circle class="st1" cx="757.5" cy="547.2" r="2.9"/><circle class="st1" cx="757.5" cy="578.3" r="2.9"/><path class="st4" d="M524.9 559.3h221.6v9.2H524.9v-9.2z"/><path class="st2" d="M711.5 576.5h-18.4c-2.5 0-4.6-2.1-4.6-4.6v-18.4c0-2.5 2.1-4.6 4.6-4.6h18.4c2.5 0 4.6 2.1 4.6 4.6v18.4c0 2.6-2 4.6-4.6 4.6z"/><path class="st3" d="M503.7 590.3h264.1v41.3H503.7v-41.3z"/><circle transform="rotate(-22.5 513.974 595.475)" class="st1" cx="514" cy="595.5" r="2.9"/><circle transform="rotate(-22.5 513.974 626.473)" class="st1" cx="514" cy="626.5" r="2.9"/><circle class="st1" cx="757.5" cy="595.5" r="2.9"/><circle class="st1" cx="757.5" cy="626.5" r="2.9"/><path class="st4" d="M524.9 607.5h221.6v9.2H524.9v-9.2z"/><path class="st2" d="M711.5 624.8h-18.4c-2.5 0-4.6-2.1-4.6-4.6v-18.4c0-2.5 2.1-4.6 4.6-4.6h18.4c2.5 0 4.6 2.1 4.6 4.6v18.4c0 2.5-2 4.6-4.6 4.6z"/><path class="st3" d="M503.7 379h264.1v27.6H503.7V379z"/><circle transform="rotate(-80.781 514.007 384.192)" class="st1" cx="514" cy="384.2" r="2.9"/><circle transform="rotate(-80.781 514.008 401.392)" class="st1" cx="514" cy="401.4" r="2.9"/><circle class="st1" cx="757.5" cy="384.2" r="2.9"/><circle class="st1" cx="757.5" cy="401.4" r="2.9"/><circle class="st4" cx="543.3" cy="392.8" r="6.3"/><circle class="st5" cx="561.7" cy="392.8" r="6.3"/><circle class="st6" cx="606.5" cy="392.8" r="6.3"/><circle class="st6" cx="624.8" cy="392.8" r="6.3"/><path class="st3" d="M503.7 413.5h264.1V441H503.7v-27.5z"/><circle transform="rotate(-80.781 514.008 418.592)" class="st1" cx="514" cy="418.6" r="2.9"/><circle transform="rotate(-80.781 514.008 435.792)" class="st1" cx="514" cy="435.8" r="2.9"/><circle class="st1" cx="757.5" cy="418.6" r="2.9"/><circle class="st1" cx="757.5" cy="435.8" r="2.9"/><circle class="st4" cx="543.3" cy="427.2" r="6.3"/><circle class="st5" cx="561.7" cy="427.2" r="6.3"/><circle class="st6" cx="606.5" cy="427.2" r="6.3"/><circle class="st6" cx="624.8" cy="427.2" r="6.3"/><path class="st3" d="M503.7 447.9h264.1v27.6H503.7v-27.6z"/><circle transform="rotate(-80.781 514.009 453.092)" class="st1" cx="514" cy="453.1" r="2.9"/><circle transform="rotate(-80.781 514.009 470.292)" class="st1" cx="514" cy="470.3" r="2.9"/><circle class="st1" cx="757.5" cy="453.1" r="2.9"/><circle class="st1" cx="757.5" cy="470.3" r="2.9"/><circle class="st2" cx="543.3" cy="461.7" r="6.3"/><circle class="st2" cx="561.7" cy="461.7" r="6.3"/><circle class="st2" cx="606.5" cy="461.7" r="6.3"/><circle class="st2" cx="624.8" cy="461.7" r="6.3"/><path class="st3" d="M503.7 172.3h264.1v27.6H503.7v-27.6z"/><circle transform="rotate(-80.781 514.004 177.392)" class="st1" cx="514" cy="177.4" r="2.9"/><circle transform="rotate(-80.781 514.004 194.692)" class="st1" cx="514" cy="194.7" r="2.9"/><circle class="st1" cx="757.5" cy="177.4" r="2.9"/><circle class="st1" cx="757.5" cy="194.7" r="2.9"/><path class="st2" d="M581.5 179.5c-1.7-1.7-4-2.6-6.5-2.6s-4.7.9-6.5 2.6c-1.7 1.7-2.6 4-2.6 6.5s.9 4.7 2.6 6.5c1.7 1.7 4 2.6 6.5 2.6s4.7-.9 6.5-2.6c1.8-1.7 2.6-4 2.6-6.5s-.8-4.6-2.6-6.5z"/><path class="st3" d="M573 184.1c-.5.5-1.3.5-1.7 0-.5-.5-.5-1.3 0-1.7.5-.5 1.3-.5 1.7 0 .5.4.5 1.3 0 1.7zm5.7 3.9c-.5-.5-1.3-.5-1.7 0-.5.5-.5 1.3 0 1.7.5.5 1.3.5 1.7 0 .4-.4.4-1.2 0-1.7z"/><path class="st2" d="M604.5 179.5c-1.7-1.7-4-2.6-6.5-2.6s-4.7.9-6.5 2.6c-1.7 1.7-2.6 4-2.6 6.5s.9 4.7 2.6 6.5c1.7 1.7 4 2.6 6.5 2.6s4.7-.9 6.5-2.6c1.8-1.7 2.6-4 2.6-6.5s-.9-4.6-2.6-6.5z"/><path class="st3" d="M596 184.1c-.5.5-1.3.5-1.7 0-.5-.5-.5-1.3 0-1.7.5-.5 1.3-.5 1.7 0 .5.4.5 1.3 0 1.7zm5.6 3.9c-.5-.5-1.3-.5-1.7 0-.5.5-.5 1.3 0 1.7.5.5 1.3.5 1.7 0 .5-.4.5-1.2 0-1.7z"/><path class="st2" d="M627.5 179.5c-1.7-1.7-4-2.6-6.5-2.6s-4.7.9-6.5 2.6c-1.7 1.7-2.6 4-2.6 6.5s.9 4.7 2.6 6.5c1.7 1.7 4 2.6 6.5 2.6s4.7-.9 6.5-2.6c1.8-1.7 2.6-4 2.6-6.5s-.9-4.6-2.6-6.5z"/><path class="st3" d="M619 184.1c-.5.5-1.3.5-1.7 0-.5-.5-.5-1.3 0-1.7.5-.5 1.3-.5 1.7 0 .4.4.4 1.3 0 1.7zm5.6 3.9c-.5-.5-1.3-.5-1.7 0-.5.5-.5 1.3 0 1.7.5.5 1.3.5 1.7 0 .5-.4.5-1.2 0-1.7z"/><path class="st2" d="M650.5 179.5c-1.7-1.7-4-2.6-6.5-2.6s-4.7.9-6.5 2.6c-1.7 1.7-2.6 4-2.6 6.5s.9 4.7 2.6 6.5c1.7 1.7 4 2.6 6.5 2.6s4.7-.9 6.5-2.6c1.7-1.7 2.6-4 2.6-6.5s-.9-4.6-2.6-6.5z"/><path class="st3" d="M642 184.1c-.5.5-1.3.5-1.7 0-.5-.5-.5-1.3 0-1.7.5-.5 1.3-.5 1.7 0 .4.4.4 1.3 0 1.7zm5.6 3.9c-.5-.5-1.3-.5-1.7 0-.5.5-.5 1.3 0 1.7.5.5 1.3.5 1.7 0 .4-.4.4-1.2 0-1.7z"/><path class="st2" d="M673.4 179.5c-1.7-1.7-4-2.6-6.5-2.6s-4.7.9-6.5 2.6c-1.7 1.7-2.6 4-2.6 6.5s.9 4.7 2.6 6.5c1.7 1.7 4 2.6 6.5 2.6s4.7-.9 6.5-2.6c1.7-1.7 2.6-4 2.6-6.5s-.9-4.6-2.6-6.5z"/><path class="st3" d="M664.9 184.1c-.5.5-1.3.5-1.7 0-.5-.5-.5-1.3 0-1.7.5-.5 1.3-.5 1.7 0 .5.4.5 1.3 0 1.7zm5.6 3.9c-.5-.5-1.3-.5-1.7 0-.5.5-.5 1.3 0 1.7.5.5 1.3.5 1.7 0 .5-.4.5-1.2 0-1.7z"/><path class="st2" d="M696.4 179.5c-1.7-1.7-4-2.6-6.5-2.6s-4.7.9-6.5 2.6c-1.7 1.7-2.6 4-2.6 6.5s.9 4.7 2.6 6.5c1.7 1.7 4 2.6 6.5 2.6s4.7-.9 6.5-2.6c1.7-1.7 2.6-4 2.6-6.5s-.9-4.6-2.6-6.5z"/><path class="st3" d="M687.9 184.1c-.5.5-1.3.5-1.7 0-.5-.5-.5-1.3 0-1.7.5-.5 1.3-.5 1.7 0 .4.4.4 1.3 0 1.7zm5.6 3.9c-.5-.5-1.3-.5-1.7 0-.5.5-.5 1.3 0 1.7.5.5 1.3.5 1.7 0 .5-.4.5-1.2 0-1.7z"/><path class="st2" d="M719.4 179.5c-1.7-1.7-4-2.6-6.5-2.6s-4.7.9-6.5 2.6c-1.7 1.7-2.6 4-2.6 6.5s.9 4.7 2.6 6.5c1.7 1.7 4 2.6 6.5 2.6s4.7-.9 6.5-2.6c1.7-1.7 2.6-4 2.6-6.5s-.9-4.6-2.6-6.5z"/><path class="st3" d="M710.9 184.1c-.5.5-1.3.5-1.7 0-.5-.5-.5-1.3 0-1.7.5-.5 1.3-.5 1.7 0 .4.4.4 1.3 0 1.7zm5.6 3.9c-.5-.5-1.3-.5-1.7 0-.5.5-.5 1.3 0 1.7.5.5 1.3.5 1.7 0 .4-.4.4-1.2 0-1.7z"/><path class="st2" d="M742.3 179.5c-1.7-1.7-4-2.6-6.5-2.6s-4.7.9-6.5 2.6c-1.7 1.7-2.6 4-2.6 6.5s.9 4.7 2.6 6.5c1.7 1.7 4 2.6 6.5 2.6s4.7-.9 6.5-2.6c1.7-1.7 2.6-4 2.6-6.5s-.9-4.6-2.6-6.5z"/><path class="st3" d="M733.8 184.1c-.5.5-1.3.5-1.7 0-.5-.5-.5-1.3 0-1.7.5-.5 1.3-.5 1.7 0 .5.4.5 1.3 0 1.7zm5.7 3.9c-.5-.5-1.3-.5-1.7 0-.5.5-.5 1.3 0 1.7.5.5 1.3.5 1.7 0 .4-.4.4-1.2 0-1.7z"/><path class="st4" d="M548.5 193h-5.7c-1.3 0-2.3-1-2.3-2.3v-9.2c0-1.3 1-2.3 2.3-2.3h5.7c1.3 0 2.3 1 2.3 2.3v9.2c0 1.2-1.1 2.3-2.3 2.3z"/><path class="st3" d="M503.7 333.1h264.1v27.6H503.7v-27.6z"/><circle transform="rotate(-80.781 514.007 338.192)" class="st1" cx="514" cy="338.2" r="2.9"/><circle transform="rotate(-80.781 514.007 355.492)" class="st1" cx="514" cy="355.5" r="2.9"/><circle class="st1" cx="757.5" cy="338.2" r="2.9"/><circle class="st1" cx="757.5" cy="355.5" r="2.9"/><path class="st2" d="M581.5 340.3c-1.7-1.7-4-2.6-6.5-2.6s-4.7.9-6.5 2.6c-1.7 1.7-2.6 4-2.6 6.5s.9 4.7 2.6 6.5c1.7 1.7 4 2.6 6.5 2.6s4.7-.9 6.5-2.6c1.7-1.7 2.6-4 2.6-6.5s-.8-4.7-2.6-6.5z"/><path class="st3" d="M573 344.9c-.5.5-1.3.5-1.7 0-.5-.5-.5-1.3 0-1.7.5-.5 1.3-.5 1.7 0 .5.4.5 1.2 0 1.7zm5.7 3.9c-.5-.5-1.3-.5-1.7 0-.5.5-.5 1.3 0 1.7.5.5 1.3.5 1.7 0 .4-.4.4-1.2 0-1.7z"/><path class="st2" d="M604.5 340.3c-1.7-1.7-4-2.6-6.5-2.6s-4.7.9-6.5 2.6c-1.7 1.7-2.6 4-2.6 6.5s.9 4.7 2.6 6.5c1.7 1.7 4 2.6 6.5 2.6s4.7-.9 6.5-2.6c1.7-1.7 2.6-4 2.6-6.5s-.9-4.7-2.6-6.5z"/><path class="st3" d="M596 344.9c-.5.5-1.3.5-1.7 0-.5-.5-.5-1.3 0-1.7.5-.5 1.3-.5 1.7 0 .5.4.5 1.2 0 1.7zm5.6 3.9c-.5-.5-1.3-.5-1.7 0-.5.5-.5 1.3 0 1.7.5.5 1.3.5 1.7 0 .5-.4.5-1.2 0-1.7z"/><path class="st2" d="M627.5 340.3c-1.7-1.7-4-2.6-6.5-2.6s-4.7.9-6.5 2.6c-1.7 1.7-2.6 4-2.6 6.5s.9 4.7 2.6 6.5c1.7 1.7 4 2.6 6.5 2.6s4.7-.9 6.5-2.6c1.7-1.7 2.6-4 2.6-6.5s-.9-4.7-2.6-6.5z"/><path class="st3" d="M619 344.9c-.5.5-1.3.5-1.7 0-.5-.5-.5-1.3 0-1.7.5-.5 1.3-.5 1.7 0 .4.4.4 1.2 0 1.7zm5.6 3.9c-.5-.5-1.3-.5-1.7 0-.5.5-.5 1.3 0 1.7.5.5 1.3.5 1.7 0 .5-.4.5-1.2 0-1.7z"/><path class="st2" d="M650.5 340.3c-1.7-1.7-4-2.6-6.5-2.6s-4.7.9-6.5 2.6c-1.7 1.7-2.6 4-2.6 6.5s.9 4.7 2.6 6.5c1.7 1.7 4 2.6 6.5 2.6s4.7-.9 6.5-2.6c1.7-1.7 2.6-4 2.6-6.5s-.9-4.7-2.6-6.5z"/><path class="st3" d="M642 344.9c-.5.5-1.3.5-1.7 0-.5-.5-.5-1.3 0-1.7.5-.5 1.3-.5 1.7 0 .4.4.4 1.2 0 1.7zm5.6 3.9c-.5-.5-1.3-.5-1.7 0-.5.5-.5 1.3 0 1.7.5.5 1.3.5 1.7 0 .4-.4.4-1.2 0-1.7z"/><path class="st2" d="M673.4 340.3c-1.7-1.7-4-2.6-6.5-2.6s-4.7.9-6.5 2.6c-1.7 1.7-2.6 4-2.6 6.5s.9 4.7 2.6 6.5c1.7 1.7 4 2.6 6.5 2.6s4.7-.9 6.5-2.6c1.7-1.7 2.6-4 2.6-6.5s-.9-4.7-2.6-6.5z"/><path class="st3" d="M664.9 344.9c-.5.5-1.3.5-1.7 0-.5-.5-.5-1.3 0-1.7.5-.5 1.3-.5 1.7 0 .5.4.5 1.2 0 1.7zm5.6 3.9c-.5-.5-1.3-.5-1.7 0-.5.5-.5 1.3 0 1.7.5.5 1.3.5 1.7 0 .5-.4.5-1.2 0-1.7z"/><path class="st2" d="M696.4 340.3c-1.7-1.7-4-2.6-6.5-2.6s-4.7.9-6.5 2.6c-1.7 1.7-2.6 4-2.6 6.5s.9 4.7 2.6 6.5c1.7 1.7 4 2.6 6.5 2.6s4.7-.9 6.5-2.6c1.7-1.7 2.6-4 2.6-6.5s-.9-4.7-2.6-6.5z"/><path class="st3" d="M687.9 344.9c-.5.5-1.3.5-1.7 0-.5-.5-.5-1.3 0-1.7.5-.5 1.3-.5 1.7 0 .4.4.4 1.2 0 1.7zm5.6 3.9c-.5-.5-1.3-.5-1.7 0-.5.5-.5 1.3 0 1.7.5.5 1.3.5 1.7 0 .5-.4.5-1.2 0-1.7z"/><path class="st2" d="M719.4 340.3c-1.7-1.7-4-2.6-6.5-2.6s-4.7.9-6.5 2.6c-1.7 1.7-2.6 4-2.6 6.5s.9 4.7 2.6 6.5c1.7 1.7 4 2.6 6.5 2.6s4.7-.9 6.5-2.6c1.7-1.7 2.6-4 2.6-6.5s-.9-4.7-2.6-6.5z"/><path class="st3" d="M710.9 344.9c-.5.5-1.3.5-1.7 0-.5-.5-.5-1.3 0-1.7.5-.5 1.3-.5 1.7 0 .4.4.4 1.2 0 1.7zm5.6 3.9c-.5-.5-1.3-.5-1.7 0-.5.5-.5 1.3 0 1.7.5.5 1.3.5 1.7 0 .4-.4.4-1.2 0-1.7z"/><path class="st2" d="M742.3 340.3c-1.7-1.7-4-2.6-6.5-2.6s-4.7.9-6.5 2.6c-1.7 1.7-2.6 4-2.6 6.5s.9 4.7 2.6 6.5c1.7 1.7 4 2.6 6.5 2.6s4.7-.9 6.5-2.6c1.7-1.7 2.6-4 2.6-6.5s-.9-4.7-2.6-6.5z"/><path class="st3" d="M733.8 344.9c-.5.5-1.3.5-1.7 0-.5-.5-.5-1.3 0-1.7.5-.5 1.3-.5 1.7 0 .5.4.5 1.2 0 1.7zm5.7 3.9c-.5-.5-1.3-.5-1.7 0-.5.5-.5 1.3 0 1.7.5.5 1.3.5 1.7 0 .4-.4.4-1.2 0-1.7z"/><path class="st4" d="M548.5 353.7h-5.7c-1.3 0-2.3-1-2.3-2.3v-9.2c0-1.3 1-2.3 2.3-2.3h5.7c1.3 0 2.3 1 2.3 2.3v9.2c0 1.3-1.1 2.3-2.3 2.3z"/><path class="st2" d="M503.7 126.3h264.1v27.6H503.7v-27.6z"/><path class="st1" d="M652.4 133.2h-1.1l-1.1 2.3H649v3.4h5.7v-3.4h-1.1l-1.2-2.3zm8 0h-1.1l-1.1 2.3H657v3.4h5.7v-3.4h-1.1l-1.2-2.3zm8.1 0h-1.1l-1.1 2.3H665v3.4h5.7v-3.4h-1.1l-1.1-2.3zm8 0h-1.1l-1.1 2.3h-1.1v3.4h5.7v-3.4h-1.1l-1.3-2.3zm8.1 0h-1.1l-1.1 2.3h-1.1v3.4h5.7v-3.4h-1.1l-1.3-2.3zm8 0h-1.1l-1.1 2.3h-1.1v3.4h5.7v-3.4h-1.1l-1.3-2.3zm8 0h-1.1l-1.1 2.3h-1.1v3.4h5.7v-3.4h-1.1l-1.3-2.3zm8.1 0h-1.1l-1.1 2.3h-1.1v3.4h5.7v-3.4H710l-1.3-2.3zm8 0h-1.1l-1.1 2.3h-1.1v3.4h5.7v-3.4H718l-1.3-2.3zm8.1 0h-1.1l-1.1 2.3h-1.1v3.4h5.7v-3.4h-1.1l-1.3-2.3zm9.1 2.3-1.1-2.3h-1.1l-1.1 2.3h-1.1v3.4h5.7v-3.4h-1.3zm-80.3 10.4h1.1v-3.4H649v3.4h1.1l1.1 2.3h1.1l1.3-2.3zm8 0h1.1v-3.4H657v3.4h1.1l1.1 2.3h1.1l1.3-2.3zm8 0h1.1v-3.4H665v3.4h1.1l1.1 2.3h1.1l1.3-2.3zm8.1 0h1.1v-3.4h-5.7v3.4h1.1l1.1 2.3h1.1l1.3-2.3zm8 0h1.1v-3.4h-5.7v3.4h1.1l1.1 2.3h1.1l1.3-2.3zm8 0h1.1v-3.4h-5.7v3.4h1.1l1.1 2.3h1.1l1.3-2.3zm8.1 0h1.1v-3.4h-5.7v3.4h1.1l1.1 2.3h1.1l1.3-2.3zm8 0h1.1v-3.4h-5.7v3.4h1.1l1.1 2.3h1.1l1.3-2.3zm8.1 0h1.1v-3.4h-5.7v3.4h1.1l1.1 2.3h1.1l1.3-2.3zm8 0h1.1v-3.4h-5.7v3.4h1.1l1.1 2.3h1.1l1.3-2.3zm9.2 0v-3.4h-5.7v3.4h1.1l1.1 2.3h1.1l1.1-2.3h1.3z"/><circle transform="rotate(-80.781 514.003 131.492)" class="st1" cx="514" cy="131.5" r="2.9"/><circle transform="rotate(-80.781 514.003 148.692)" class="st1" cx="514" cy="148.7" r="2.9"/><circle class="st1" cx="757.5" cy="131.5" r="2.9"/><circle class="st1" cx="757.5" cy="148.7" r="2.9"/><path d="M656 354.4v251.3c0 2.4 1.9 4.2 4.2 4.2h159.3V350.2H660.2c-2.3 0-4.2 1.9-4.2 4.2z" opacity=".15"/><path class="st1" d="M873.9 599.5h37.2v58.4h-37.2v-58.4z"/><path class="st1" d="M1020.5 656.4c-.7-.7-1.9-1.2-2.9-1.2H767.3c-.9 0-2.2.5-2.9 1.2L749 671.8c-.7.7-.4 1.2.5 1.2h285.8c.9 0 1.2-.5.5-1.2l-15.3-15.4z"/><path d="M900.1 603.7c0 .9-.8 1.7-1.7 1.7h-11.8c-.9 0-1.7-.8-1.7-1.7v-.8c0-.9.8-1.7 1.7-1.7h11.8c.9 0 1.7.8 1.7 1.7v.8z" fill="#b24b53"/><path d="M868.8 591.1c0-.9.8-1.7 1.7-1.7h44c.9 0 1.7.8 1.7 1.7v7.6c0 .9-.8 1.7-1.7 1.7h-44c-.9 0-1.7-.8-1.7-1.7v-7.6z" fill="#2b353f"/><path class="st1" d="M680.2 330.2c-2.4 0-4.2 1.9-4.2 4.2v251.3c0 2.4 1.9 4.2 4.2 4.2h424.5c2.4 0 4.2-1.9 4.2-4.2V334.4c0-2.4-1.9-4.2-4.2-4.2H680.2z"/><path d="M1090.1 565.8c0 2.4-1.9 4.2-4.2 4.2H699.2c-2.4 0-4.2-1.9-4.2-4.2V352.1c0-2.4 1.9-4.2 4.2-4.2h386.7c2.4 0 4.2 1.9 4.2 4.2v213.7z" fill="#667e8e"/><path d="m1019.6 347.9-268.9 222h148.5l158.7-222h-38.3z" fill="#647b8b"/><path d="M700.4 347.9c-3 0-5.6 2.5-5.6 5.6v210.9c0 3 2.5 5.6 5.6 5.6h50.2l268.9-222-319.1-.1z" fill="#607786"/><path d="M1318.5 336.1c-65.4 0-118.5 53.1-118.5 118.5h237c.1-65.5-53-118.5-118.5-118.5z" fill="#7cb342"/><path d="M1318.5 454.6H1200c0 65.4 53.1 118.5 118.5 118.5S1437 520 1437 454.6h-118.5z" fill="#8bc34a"/><path d="M1413.5 578.7c-.1-1.1-.4-2-1-3l-34.5-59.8-11.4-19.9-21.3-36.8-16.3 16.3 20 34.8 11 19.1 33.3 57.5c.5 1 1.3 1.7 2.2 2.3l16.6 11.3c.6.4 1.4.4 2 .1.6-.4 1-1.1 1-1.8l-1.6-20.1z" fill="#e1e1e1"/><path d="M1382 454.6c0 15.7-5.8 30.2-15.4 41.4-5 5.7-10.8 10.6-17.5 14.2-9 5.1-19.5 7.9-30.6 7.9s-21.5-2.9-30.5-7.9l20-34.8-16.3-16.3-67.3 116.6c-.5 1-.9 1.9-1 3l-1.5 20c-.1.8.3 1.4 1 1.8.6.4 1.4.3 2-.1l16.6-11.2c.9-.6 1.6-1.4 2.2-2.3l33.3-57.6c12.3 6.9 26.5 10.9 41.6 10.9s29.3-4 41.6-10.9c6.6-3.7 12.6-8.2 17.9-13.4 15.9-15.5 26-37.3 26-61.3H1382z" fill="#f1f1f1"/><path d="M1339.2 410.6h-6.9v-22.2h-27.5v22.2h-7c-6.8 0-12.4 5.6-12.4 12.4v28.1h.1c-.1 1.1.5 2.3 1.9 3.7l24.9 24.9c1.7 1.7 4 2.6 6.1 2.6v-.1l.1.1c2.3 0 4.5-.9 6.1-2.6l24.9-24.9c1.4-1.4 1.9-2.7 1.9-3.7h.1v-28c.1-6.9-5.4-12.5-12.3-12.5zm-20.6 44c-9.1 0-16.6-7.4-16.6-16.6s7.4-16.6 16.5-16.6v-.2l.1.2c9 .1 16.5 7.4 16.5 16.6s-7.4 16.5-16.5 16.6z" fill="#646464"/><g class="st18"><path class="st19" d="M1051.5 137h-16.9l-3 9.6h-13.2l18.8-51.2h11.6l18.9 51.2h-13.3l-2.9-9.6zm-14-9.5h11l-5.5-17.8-5.5 17.8zm67 .4c0 5.9-1.3 10.6-4 14.2s-6.3 5.3-10.8 5.3c-3.5 0-6.4-1.3-8.6-3.8v17.8h-11.8v-52.7h11.1l.4 3.5c2.3-2.8 5.3-4.2 9-4.2 4.7 0 8.3 1.7 10.9 5.2s3.9 8.2 3.9 14.3v.4zm-11.8-.8c0-6.8-2-10.1-5.9-10.1-2.8 0-4.7 1-5.6 3v15c1 2.1 2.9 3.2 5.7 3.2 3.8 0 5.7-3.3 5.8-9.8v-1.3zm38.5 19.5c-.4-.8-.8-1.9-1.1-3.4-2.2 2.7-5.2 4.1-9.1 4.1-3.6 0-6.6-1.1-9.1-3.3s-3.8-4.9-3.8-8.2c0-4.1 1.5-7.2 4.6-9.4s7.5-3.2 13.3-3.2h3.7v-2c0-3.5-1.5-5.3-4.5-5.3-2.8 0-4.2 1.4-4.2 4.2h-11.8c0-3.7 1.6-6.7 4.7-9s7.1-3.4 12-3.4 8.7 1.2 11.5 3.6 4.3 5.6 4.3 9.7v17c0 3.5.6 6.2 1.6 8v.6h-12.1zm-7.4-7.7c1.5 0 2.7-.3 3.7-.9s1.7-1.3 2.1-2.1v-6.1h-3.4c-4.1 0-6.2 1.9-6.2 5.6 0 1.1.4 2 1.1 2.6s1.5.9 2.7.9zm40.3-.7c1.7 0 3-.5 3.9-1.4s1.4-2.2 1.3-3.8h11.1c0 4.2-1.5 7.6-4.5 10.3s-6.8 4-11.5 4c-5.5 0-9.9-1.7-13.1-5.2s-4.8-8.3-4.8-14.4v-.5c0-3.8.7-7.2 2.1-10.2s3.5-5.2 6.1-6.8 5.8-2.4 9.5-2.4c4.9 0 8.9 1.4 11.8 4.1s4.4 6.5 4.4 11.1h-11.1c0-2-.5-3.5-1.4-4.5s-2.3-1.6-3.9-1.6c-3.1 0-4.9 2-5.4 5.9-.2 1.2-.2 3-.2 5.1 0 3.8.5 6.5 1.4 7.9s2.3 2.4 4.3 2.4zm32.9-25.6c2.5-3.2 5.8-4.8 9.7-4.8 4.2 0 7.4 1.2 9.5 3.7s3.2 6.2 3.3 11v24h-11.9v-23.7c0-2-.4-3.5-1.2-4.4s-2.2-1.4-4.2-1.4c-2.4 0-4.2.8-5.2 2.3v27.3h-11.8v-54h11.8v20zm47.4 34.7c-5.8 0-10.6-1.7-14.2-5.2s-5.4-8-5.4-13.6v-1c0-3.9.7-7.3 2.2-10.3s3.5-5.3 6.3-6.9 6-2.4 9.8-2.4c5.3 0 9.6 1.7 12.7 5s4.6 7.9 4.6 13.9v4.6h-23.6c.4 2.1 1.3 3.8 2.8 5s3.3 1.8 5.6 1.8c3.8 0 6.7-1.3 8.8-3.9l5.4 6.4c-1.5 2-3.6 3.7-6.3 4.9s-5.6 1.7-8.7 1.7zm-1.3-30.3c-3.5 0-5.5 2.3-6.2 6.9h12v-.9c0-1.9-.4-3.4-1.4-4.4s-2.5-1.6-4.4-1.6zm83.4 29.6h-12.3v-21.4H1296v21.4h-12.3V95.4h12.3v20.3h18.2V95.4h12.3v51.2zm46.9-41.7H1358v41.7h-12.3v-41.7h-15.1v-9.5h42.8v9.5zm46 0H1404v41.7h-12.3v-41.7h-15.1v-9.5h42.8v9.5zm17.5 24.3v17.4h-12.3V95.4h20.4c3.9 0 7.4.7 10.4 2.2s5.3 3.5 7 6.2 2.5 5.7 2.5 9.1c0 5-1.8 9-5.4 12s-8.5 4.5-14.7 4.5h-7.9zm0-9.5h8.1c2.4 0 4.2-.6 5.5-1.8s1.9-2.9 1.9-5.1c0-2.4-.6-4.3-1.9-5.7s-3-2.2-5.3-2.2h-8.2v14.8z"/></g><g class="st18"><path class="st19" d="M1300.3 248.4v18h-10.5v-51.2h20c3.8 0 7.2.7 10.1 2.1s5.2 3.4 6.7 6c1.6 2.6 2.4 5.5 2.4 8.8 0 5-1.7 9-5.2 11.9-3.4 2.9-8.2 4.3-14.3 4.3h-9.2zm0-8.5h9.4c2.8 0 4.9-.7 6.4-2s2.2-3.2 2.2-5.6c0-2.5-.7-4.5-2.2-6.1s-3.5-2.3-6.1-2.4h-9.7v16.1zm77.9 2.1c0 5-.9 9.5-2.7 13.3-1.8 3.8-4.3 6.7-7.6 8.8-3.3 2.1-7.1 3.1-11.4 3.1-4.2 0-8-1-11.4-3.1-3.3-2-5.9-5-7.7-8.7s-2.8-8.1-2.8-13.1v-2.5c0-5 .9-9.5 2.7-13.3 1.8-3.8 4.4-6.8 7.7-8.8 3.3-2.1 7.1-3.1 11.4-3.1 4.3 0 8.1 1 11.4 3.1 3.3 2.1 5.9 5 7.7 8.8 1.8 3.8 2.7 8.3 2.7 13.3v2.2zm-10.7-2.3c0-5.4-1-9.4-2.9-12.2-1.9-2.8-4.7-4.2-8.2-4.2-3.5 0-6.3 1.4-8.2 4.1-1.9 2.8-2.9 6.8-2.9 12.1v2.5c0 5.2 1 9.3 2.9 12.2 1.9 2.9 4.7 4.3 8.3 4.3 3.5 0 6.3-1.4 8.2-4.2s2.9-6.8 2.9-12.1v-2.5zm44.9 13.3c0-2-.7-3.5-2.1-4.6s-3.9-2.2-7.6-3.4-6.6-2.3-8.7-3.5c-5.8-3.1-8.7-7.4-8.7-12.7 0-2.8.8-5.2 2.3-7.4 1.6-2.2 3.8-3.9 6.7-5.1s6.2-1.8 9.8-1.8c3.7 0 6.9.7 9.8 2 2.9 1.3 5.1 3.2 6.7 5.6s2.4 5.2 2.4 8.2h-10.5c0-2.3-.7-4.2-2.2-5.5s-3.6-2-6.2-2-4.6.5-6 1.6c-1.4 1.1-2.1 2.5-2.1 4.3 0 1.7.8 3.1 2.5 4.2s4.1 2.2 7.4 3.2c6 1.8 10.4 4 13.1 6.7s4.1 6 4.1 10c0 4.4-1.7 7.9-5 10.4-3.4 2.5-7.9 3.8-13.5 3.8-3.9 0-7.5-.7-10.8-2.2s-5.7-3.4-7.4-5.9c-1.7-2.5-2.5-5.4-2.5-8.7h10.6c0 5.6 3.4 8.5 10.1 8.5 2.5 0 4.5-.5 5.9-1.5s1.9-2.4 1.9-4.2zm56.3-29.2H1453v42.6h-10.5v-42.6H1427v-8.5h41.7v8.5z"/></g></svg>