<svg xmlns="http://www.w3.org/2000/svg" viewBox="0 0 1920 673" xml:space="preserve"><style>.st1{fill:#36434f}</style><path fill="#ffb74d" d="M0 0h1920v673H0z"/><path class="st1" d="M684.8 596.3h52.6V673h-52.6z"/><path d="M721.9 602.3c0 1.3-1.1 2.4-2.4 2.4h-16.7c-1.3 0-2.4-1.1-2.4-2.4v-1.2c0-1.3 1.1-2.4 2.4-2.4h16.7c1.3 0 2.4 1.1 2.4 2.4v1.2z" fill="#b24b53"/><path d="M677.7 584.4c0-1.3 1.1-2.4 2.4-2.4h62.1c1.3 0 2.4 1.1 2.4 2.4v10.8c0 1.3-1.1 2.4-2.4 2.4h-62.1c-1.3 0-2.4-1.1-2.4-2.4v-10.8z" fill="#2b353f"/><path class="st1" d="M411.2 215.8c-3.3 0-6 2.7-6 6v355.1c0 3.3 2.7 6 6 6H1011c3.3 0 6-2.7 6-6V221.7c0-3.3-2.7-6-6-6H411.2z"/><path d="M990.3 548.6c0 3.3-2.7 6-6 6H437.9c-3.3 0-6-2.7-6-6V246.8c0-3.3 2.7-6 6-6h546.4c3.3 0 6 2.7 6 6v301.8z" fill="#667e8e"/><path fill="#647b8b" d="M890.7 240.9 510.8 554.6h209.8l224.1-313.7z"/><path d="M439.8 240.9c-4.2 0-7.9 3.5-7.9 7.8v298c0 4.2 3.5 7.8 7.9 7.8h71l379.9-313.6H439.8z" fill="#607786"/><path class="st1" d="M489.6 294.4h443.1v37.4H489.6zm0 84.6h443.1v37.4H489.6zm0 84.7h443.1v37.4H489.6z"/><path d="m1126.6 434.6-35.2-11.7V250.1l35.2-11.7 85.8 64.6 142.5-141 85.4 36.3v276.3l-85.4 36.3-142.5-141-85.8 64.7zm130-98.3 97.9 74.1V262.6l-97.9 73.7zm-130 51.4 51.8-51.4-51.8-51v102.4z" fill="#fff"/></svg>