<svg xmlns="http://www.w3.org/2000/svg" viewBox="0 0 1920 673" xml:space="preserve"><style>.st5{fill:#fff}.st11{fill:#2c2255}</style><path fill="#eaeaec" d="M0 0h1920v673H0z"/><linearGradient id="a" gradientUnits="userSpaceOnUse" x1="36.651" y1="859.202" x2="42.133" y2="859.202" gradientTransform="matrix(29.8 0 0 -26.5 -28.1 23060.902)"><stop offset=".26" stop-color="#f97a12"/><stop offset=".46" stop-color="#b07b58"/><stop offset=".72" stop-color="#577bae"/><stop offset=".91" stop-color="#1e7ce5"/><stop offset="1" stop-color="#087cfa"/></linearGradient><path fill="url(#a)" d="m1149.2 364.8-85.1-67 42.3-78.5 121.4 47.2z"/><linearGradient id="b" gradientUnits="userSpaceOnUse" x1="29.698" y1="870.369" x2="36.336" y2="868.003" gradientTransform="matrix(40.6 0 0 -63 -16.2 55049)"><stop offset="0" stop-color="#f97a12"/><stop offset=".07" stop-color="#cb7a3e"/><stop offset=".15" stop-color="#9e7b6a"/><stop offset=".24" stop-color="#757b91"/><stop offset=".33" stop-color="#537bb1"/><stop offset=".43" stop-color="#387ccc"/><stop offset=".54" stop-color="#237ce0"/><stop offset=".66" stop-color="#147cef"/><stop offset=".79" stop-color="#0b7cf7"/><stop offset="1" stop-color="#087cfa"/></linearGradient><path fill="url(#b)" d="m1411.8 184.7-6.6 203.2-135.1 54.4-81.3-52.8 118.6-123-51.6-114.3 46.7-56z"/><linearGradient id="c" gradientUnits="userSpaceOnUse" x1="48.224" y1="864.004" x2="45.584" y2="869.737" gradientTransform="matrix(28.4 0 0 -39.1 8.2 34088.7)"><stop offset="0" stop-color="#fe315d"/><stop offset=".08" stop-color="#cb417e"/><stop offset=".16" stop-color="#9e4e9b"/><stop offset=".25" stop-color="#755bb4"/><stop offset=".34" stop-color="#5365ca"/><stop offset=".44" stop-color="#386ddb"/><stop offset=".54" stop-color="#2374e9"/><stop offset=".66" stop-color="#1478f3"/><stop offset=".79" stop-color="#0b7bf8"/><stop offset="1" stop-color="#087cfa"/></linearGradient><path fill="url(#c)" d="M1411.8 184.7 1304.7 311l-48.9-158.8 46.7-56z"/><linearGradient id="d" gradientUnits="userSpaceOnUse" x1="23.672" y1="870.97" x2="28.254" y2="865.005" gradientTransform="matrix(49.1 0 0 -62.4 -48.1 54521.8)"><stop offset="0" stop-color="#fe315d"/><stop offset=".04" stop-color="#f63462"/><stop offset=".1" stop-color="#df3a71"/><stop offset=".17" stop-color="#c24383"/><stop offset=".29" stop-color="#ad4a91"/><stop offset=".55" stop-color="#755bb4"/><stop offset=".92" stop-color="#1d76ed"/><stop offset="1" stop-color="#087cfa"/></linearGradient><path fill="url(#d)" d="m1229.4 382.4-140.6 51.1 22.5-79.1 29.1-97.8-80.2-26.9 51.1-139 109.9 13.2L1330 228z"/><path d="M1126.2 156.6h219.7v219.7h-219.7z"/><path class="st5" d="M1147 335.2h82.4v13.7H1147zm58.8-133.5v-16.5h-45v16.5h12.6v57.7h-12.6v17h45v-17h-12.6v-57.7zm44 75.8c-6.3.3-12.5-1-18.1-3.8-4.6-2.5-8.7-5.9-12.1-9.9l12.6-14.3c2.3 2.5 4.9 4.7 7.7 6.6 2.7 1.6 5.7 2.3 8.8 2.2 3.4.3 6.7-1.2 8.8-3.8 2.5-3.3 3.7-7.4 3.3-11.5v-58.8h20.3v59.3c.2 4.9-.5 9.7-2.2 14.3-1.4 4.6-4.1 8.8-7.7 12.1-6.2 4.5-13.7 7.2-21.4 7.6"/><path d="M665.6 90.7c-86.9 0-157.4 70.5-157.4 157.4H823c.1-87-70.4-157.4-157.4-157.4z" fill="#7cb342"/><path d="M665.6 248.1H508.2c0 86.9 70.5 157.4 157.4 157.4S823 335 823 248.1H665.6z" fill="#8bc34a"/><path d="M791.8 412.9c-.1-1.5-.6-2.7-1.3-4l-45.8-79.4-15.2-26.4-28.3-48.9-21.6 21.6 26.6 46.2 14.6 25.3 44.2 76.3c.7 1.3 1.7 2.3 2.8 3l22 15c.8.6 1.9.6 2.7.1.8-.6 1.3-1.5 1.3-2.4l-2-26.4z" fill="#e1e1e1"/><path d="M749.8 248.1c0 20.9-7.8 40.1-20.5 55-6.6 7.6-14.3 14.1-23.2 18.9-12 6.7-25.9 10.5-40.6 10.5s-28.6-3.9-40.5-10.5l26.6-46.2-21.6-21.7-89.3 154.8c-.7 1.3-1.2 2.6-1.3 4l-2 26.6c-.1 1 .4 1.9 1.3 2.4.8.6 1.9.4 2.7-.1l22-14.9c1.2-.8 2.1-1.9 2.8-3l44.2-76.6c16.3 9.1 35.2 14.5 55.2 14.5s38.9-5.3 55.2-14.5c8.7-4.8 16.8-10.9 23.7-17.7 21.2-20.6 34.5-49.5 34.5-81.4l-29.2-.1z" fill="#f1f1f1"/><path d="M693.1 189.6H684v-29.4h-36.5v29.4h-9.3c-9 0-16.5 7.4-16.5 16.5v37.3h.1c-.1 1.5.7 3 2.6 4.8l33 33c2.3 2.3 5.3 3.5 8.2 3.5v-.1l.1.1c3 0 6-1.2 8.2-3.5l33-33c1.9-1.9 2.6-3.6 2.6-4.8h.1v-37.2c0-9.2-7.4-16.6-16.5-16.6zm-27.4 58.5h-.1c-12 0-21.9-9.9-21.9-22s9.9-22 21.9-22v-.3l.1.3c12 .1 21.9 9.9 21.9 22s-9.8 21.9-21.9 22z" fill="#646464"/><path class="st11" d="M766.9 565.8h-15.8c2.1 7.2 6 13.6 11.6 19.3 9 9 19.9 13.6 32.7 13.6 2.5 0 5-.2 7.4-.6 9.6-1.4 18-5.8 25.2-13 5.7-5.7 9.6-12.1 11.7-19.3h-72.8zm-8.7-21.5H750c-.3 1.8-.5 3.7-.6 5.6h92.1c-.1-1.9-.3-3.7-.6-5.6M749.4 555c.1 1.9.3 3.7.6 5.6h91c.3-1.8.5-3.7.6-5.6m-1.9-15.8c-2.1-7.2-6-13.6-11.7-19.4-7.2-7.2-15.5-11.5-25.1-12.9-2.4-.4-4.9-.6-7.5-.6-12.7 0-23.6 4.5-32.7 13.5-5.7 5.7-9.6 12.2-11.6 19.4"/><path d="M746.7 552.5c0-24.3 18.3-44.6 42.1-48.1H787c-26.7 0-48.3 21.6-48.3 48.2s21.6 48.2 48.3 48.2h1.8c-23.9-3.8-42.1-24-42.1-48.3zm255.4-52h9.6v12.2h-9.6z" fill="#f7941e"/><path class="st11" d="M921.9 550.6v4.7h-44.2c.4 6.6 2.4 11.7 6 15.1 3.6 3.5 8.5 5.2 14.9 5.2 3.7 0 7.3-.5 10.7-1.4 3.5-.9 6.9-2.3 10.3-4.1v9.1c-3.4 1.5-7 2.6-10.6 3.3-3.6.8-7.3 1.1-11 1.1-9.3 0-16.7-2.7-22.2-8.1-5.4-5.4-8.2-12.8-8.2-22 0-9.6 2.6-17.2 7.8-22.8 5.2-5.6 12.1-8.4 20.9-8.4 7.9 0 14.1 2.5 18.7 7.6s6.9 12 6.9 20.7m-9.6-2.9c-.1-5.3-1.5-9.5-4.4-12.6-2.9-3.1-6.7-4.7-11.4-4.7-5.4 0-9.7 1.5-12.9 4.5-3.2 3-5.1 7.3-5.6 12.8h34.3zm59.4-21.7v9c-2.7-1.5-5.4-2.6-8.2-3.4-2.7-.7-5.5-1.1-8.3-1.1-6.2 0-11.1 2-14.5 5.9-3.4 4-5.2 9.5-5.2 16.6 0 7.1 1.7 12.7 5.2 16.6 3.4 4 8.3 5.9 14.5 5.9 2.8 0 5.5-.4 8.3-1.1 2.7-.7 5.5-1.9 8.2-3.4v8.9c-2.7 1.3-5.5 2.2-8.3 2.8-2.9.6-5.9.9-9.2.9-8.8 0-15.8-2.8-21-8.3-5.2-5.5-7.8-13-7.8-22.4 0-9.5 2.6-17 7.9-22.5 5.2-5.5 12.4-8.2 21.5-8.2 3 0 5.8.3 8.7.9 2.8.7 5.6 1.6 8.2 2.9m8.7-25.1h9.6v81.3h-9.6zm21.7 22.8h9.6v58.5h-9.6v-58.5zm31 49.7v31h-9.7v-80.7h9.7v8.9c2-3.5 4.6-6.1 7.7-7.8 3.1-1.7 6.8-2.5 11-2.5 7.1 0 12.9 2.8 17.3 8.5 4.4 5.6 6.7 13.1 6.7 22.2 0 9.2-2.2 16.6-6.7 22.2-4.4 5.6-10.2 8.5-17.3 8.5-4.3 0-8-.8-11-2.5-3.2-1.7-5.7-4.3-7.7-7.8m32.7-20.4c0-7.1-1.5-12.6-4.4-16.6s-6.9-6-12-6-9.1 2-12 6c-2.9 4-4.4 9.6-4.4 16.6 0 7.1 1.5 12.6 4.4 16.6 2.9 4 6.9 6 12 6s9.1-2 12-6c2.9-4 4.4-9.5 4.4-16.6m55.1-27.6v9.1c-2.7-1.4-5.5-2.4-8.5-3.1-2.9-.7-6-1-9.1-1-4.8 0-8.3.7-10.7 2.2-2.4 1.5-3.6 3.7-3.6 6.6 0 2.2.8 4 2.6 5.2 1.7 1.3 5.1 2.5 10.3 3.6l3.3.7c6.8 1.5 11.7 3.5 14.5 6.2 2.9 2.7 4.3 6.4 4.3 11.1 0 5.4-2.2 9.7-6.5 12.9-4.3 3.2-10.2 4.8-17.7 4.8-3.1 0-6.4-.3-9.8-.9-3.4-.6-7-1.5-10.7-2.7v-9.9c3.6 1.8 7.1 3.2 10.5 4.2 3.4.9 6.9 1.4 10.2 1.4 4.5 0 8-.8 10.4-2.3 2.4-1.6 3.7-3.7 3.7-6.6 0-2.6-.9-4.6-2.6-6-1.8-1.4-5.6-2.7-11.6-4l-3.3-.8c-6-1.3-10.3-3.2-12.9-5.8-2.6-2.6-4-6.2-4-10.7 0-5.5 1.9-9.7 5.8-12.7s9.4-4.5 16.6-4.5c3.6 0 6.9.3 10 .8 3.3.4 6.2 1.2 8.8 2.2m60.5 25.2v4.7h-44.2c.4 6.6 2.4 11.7 6 15.1 3.6 3.5 8.5 5.2 14.9 5.2 3.7 0 7.3-.5 10.7-1.4 3.5-.9 6.9-2.3 10.3-4.1v9.1c-3.4 1.5-7 2.6-10.6 3.3-3.6.8-7.3 1.1-11 1.1-9.3 0-16.7-2.7-22.2-8.1-5.5-5.4-8.2-12.8-8.2-22 0-9.6 2.6-17.2 7.8-22.8 5.2-5.6 12.1-8.4 20.9-8.4 7.9 0 14.1 2.5 18.7 7.6s6.9 12 6.9 20.7m-9.6-2.9c-.1-5.3-1.5-9.5-4.4-12.6-2.9-3.1-6.7-4.7-11.4-4.7-5.4 0-9.7 1.5-12.9 4.5-3.2 3-5.1 7.3-5.6 12.8h34.3z"/><linearGradient id="e" gradientUnits="userSpaceOnUse" x1="795.46" y1="891.859" x2="795.46" y2="822.472" gradientTransform="translate(0 -287)"><stop offset=".303" stop-color="#473788"/><stop offset=".872" stop-color="#2c2255"/></linearGradient><path d="M826.8 549.9c-.2-1.9-.5-3.8-1-5.6H765c-.5 1.8-.8 3.7-1 5.6h62.8z" fill="url(#e)"/><linearGradient id="f" gradientUnits="userSpaceOnUse" x1="795.46" y1="891.86" x2="795.46" y2="822.473" gradientTransform="translate(0 -287)"><stop offset=".303" stop-color="#473788"/><stop offset=".872" stop-color="#2c2255"/></linearGradient><path d="M826.8 555h-62.7c.2 1.9.5 3.8 1 5.6h60.8c.4-1.8.8-3.6.9-5.6z" fill="url(#f)"/><linearGradient id="g" gradientUnits="userSpaceOnUse" x1="795.46" y1="891.858" x2="795.46" y2="822.475" gradientTransform="translate(0 -287)"><stop offset=".303" stop-color="#473788"/><stop offset=".863" stop-color="#2c2255"/></linearGradient><path d="M795.5 583.9c12.6 0 23.5-7.4 28.5-18.2h-57c5 10.8 15.8 18.2 28.5 18.2z" fill="url(#g)"/><path class="st5" d="M759.5 555h82.1c0-.8.1-1.6.1-2.5 0-.9 0-1.8-.1-2.7h-92.1c-.1.9-.1 1.8-.1 2.7 0 .8 0 1.7.1 2.5h10zm7.3-15.8h-15.6c-.5 1.7-.8 3.4-1.2 5.2h90.5c-.3-1.8-.7-3.5-1.2-5.2m-4.6 21.4H750c.3 1.8.7 3.5 1.2 5.2h88.5c.5-1.7.9-3.4 1.2-5.2h-6.2z"/></svg>