<svg version="1.1" xmlns="http://www.w3.org/2000/svg" x="0" y="0" viewBox="0 0 1920 673" xml:space="preserve"><style type="text/css">.st28{fill:#fcefd4}</style><g stroke-width="1.51" id="background"><path fill="#ee9230" stroke="#ee9230" d="M775 23.5L759.8 0H360.6L160 178.5z"/><path fill="#e08a34" stroke="#e08a34" d="M160 178.5l186 177 429-332z"/><path fill="#d67e27" stroke="#d67e27" d="M346 355.5l348 79 81-411z"/><path fill="#da8f46" stroke="#da8f46" d="M33 223.5l313 132-186-177z"/><path fill="#e59950" stroke="#e59950" d="M160 178.5L0 102v70.5l33 51z"/><path fill="#f5a552" stroke="#f5a552" d="M203.7 0H0v102l160 76.5z"/><path fill="#f9a443" stroke="#f9a443" d="M360.6 0H203.7L160 178.5z"/><path fill="#f88f26" stroke="#f88f26" d="M797.1 0h-37.3L775 23.5z"/><path fill="#db741c" stroke="#db741c" d="M694 434.5l389-252-308-159z"/><path fill="#b3742b" stroke="#b3742b" d="M346 355.5L408.2 673h201.4L694 434.5z"/><path fill="#c68746" stroke="#c68746" d="M33 223.5L78.4 673h63.5L346 355.5z"/><path fill="#c48b53" stroke="#c48b53" d="M0 242.2V673h78.4L33 223.5z"/><path fill="#dd9858" stroke="#dd9858" d="M0 172.5v69.7l33-18.7z"/><path fill="#c36517" stroke="#c36517" d="M694 434.5L1017.7 673h34.8l30.5-490.5z"/><path fill="#af631c" stroke="#af631c" d="M747.3 673h270.4L694 434.5z"/><path fill="#b06c24" stroke="#b06c24" d="M609.6 673h137.7L694 434.5z"/><path fill="#c05b12" stroke="#c05b12" d="M1083 182.5L1052.5 673h19.2L1281 425.5z"/><path fill="#f07d1b" stroke="#f07d1b" d="M1083 182.5L1128.8 0H797.1L775 23.5z"/><path fill="#eb6f14" stroke="#eb6f14" d="M1591.6 0h-462.8L1083 182.5z"/><path fill="#b27a3b" stroke="#b27a3b" d="M141.9 673h266.3L346 355.5z"/><path fill="#c8590e" stroke="#c8590e" d="M1083 182.5l198 243 209-46z"/><path fill="#aa4a0d" stroke="#aa4a0d" d="M1281 425.5l69.4 247.5h114.4l25.2-293.5z"/><path fill="#a94f11" stroke="#a94f11" d="M1281 425.5L1071.7 673h278.7z"/><path fill="#d45a0a" stroke="#d45a0a" d="M1490 379.5L1687.8 0h-96.2L1083 182.5z"/><path fill="#bd4504" stroke="#bd4504" d="M1920 439V196.8L1747.3 0h-59.5L1490 379.5z"/><path fill="#9f400a" stroke="#9f400a" d="M1464.8 673h301.4L1490 379.5z"/><path fill="#9f3a05" stroke="#9f3a05" d="M1766.2 673H1920V439l-430-59.5z"/><path fill="#b94303" stroke="#b94303" d="M1920 0h-172.7L1920 196.8z"/></g><g id="image"><path class="st28" d="M14.3 6.4H14c-.1.9-.2 2-1.8 2h-.7c-.4 0-.4-.1-.4-.4V3.4c0-.3 0-.4.8-.4h.3v-.3H9.4V3h.2c.7 0 .7.1.7.4V8c0 .3 0 .4-.7.4h-.2v.3H14l.3-2.3z" transform="matrix(45 0 0 45 40 40)"/><path class="st28" d="M14.1 2.7c0-.1-.1-.1-.2-.1s-.1 0-.2.1l-1.4 3.6c-.1.2-.2.4-.7.4v.2H13v-.2c-.3 0-.4-.1-.4-.3v-.1l.3-.8h1.8l.3.9v.1c0 .2-.3.2-.5.2v.2h1.7v-.2h-.1c-.4 0-.5-.1-.5-.2l-1.5-3.8zm-.3.6l.8 2H13l.8-2zm7.4-.6h-5.4l-.2 2h.2c.2-1.4.3-1.7 1.7-1.7h.5c.2 0 .2.1.2.3V8c0 .3 0 .4-.9.4h-.4v.3h3.4v-.3h-.4c-.9 0-.9-.1-.9-.4V3.3c0-.2 0-.3.2-.3h.5c1.3 0 1.5.3 1.6 1.7h.2l-.3-2z" transform="matrix(45 0 0 45 40 40)"/><path class="st28" d="M25.9 8.4h-.2c-.2 1.4-.4 2-1.9 2h-1.2c-.4 0-.4-.1-.4-.4V7.7h.8c.9 0 1 .3 1 1h.2V6.4H24c0 .8-.1 1-1 1h-.8V5.3c0-.3 0-.4.4-.4h1.1c1.4 0 1.6.5 1.7 1.7h.2l-.2-2h-5v.3h.2c.7 0 .7.1.7.4V10c0 .3 0 .4-.7.4h-.2v.3h5.1l.4-2.3z" transform="matrix(45 0 0 45 40 40)"/><path class="st28" d="M28.6 5.3l1.2-1.8c.2-.3.5-.6 1.3-.6v-.2H29V3c.4 0 .5.2.5.4 0 .1 0 .1-.1.2l-1 1.5-1.1-1.7-.1-.1c0-.1.2-.3.6-.3v-.3h-2.4V3h.2c.5 0 .7.1.8.3L28 5.7l-1.4 2.1c-.1.2-.4.6-1.3.6v.3h2.1v-.3c-.4 0-.6-.2-.6-.4 0-.1 0-.1.1-.2L28.1 6l1.5 2v.1c0 .1-.2.3-.6.3v.3h2.4v-.3h-.2c-.5 0-.6 0-.8-.3l-1.8-2.8z" transform="matrix(45 0 0 45 40 40)"/></g></svg>