<svg xmlns="http://www.w3.org/2000/svg" viewBox="0 0 1920 673" xml:space="preserve"><style>.st2{fill:#0078de}.st3{fill:#4d4d4d}.st5{fill:#8d12ba}</style><path fill="#eee" d="M0 0h1920v673H0z"/><path d="M441.3 241.1h-22.9v19.4h26.7v5.9h-33.7v-54.8h33.3v6h-26.4v17.6h22.9v5.9zm32.9-.3 10.9-15.1h8.2l-15.2 20.1 15.6 20.6h-8.1L474.4 251l-11.3 15.5H455l15.6-20.6-15.2-20.1h8.1l10.7 15zm56.3 25.7c-.3-.5-.5-1.2-.7-2-.2-.8-.3-1.6-.4-2.5-.7.7-1.5 1.4-2.4 2s-1.8 1.2-2.9 1.7c-1 .5-2.2.9-3.3 1.1-1.2.3-2.4.4-3.8.4-2.2 0-4.1-.3-5.9-.9-1.7-.6-3.2-1.5-4.4-2.5-1.2-1.1-2.2-2.3-2.8-3.8-.7-1.5-1-3.1-1-4.8 0-2.2.4-4.2 1.3-5.9s2.2-3.1 3.8-4.2c1.6-1.1 3.6-2 5.9-2.5 2.3-.6 4.9-.8 7.7-.8h7.6v-3.2c0-1.2-.2-2.3-.7-3.3-.5-1-1.1-1.8-1.9-2.5-.8-.7-1.8-1.2-3-1.6-1.2-.4-2.5-.6-4-.6-1.4 0-2.6.2-3.7.5-1.1.4-2 .8-2.8 1.4-.8.6-1.3 1.3-1.8 2.1-.4.8-.6 1.6-.6 2.5h-7c0-1.5.4-2.9 1.1-4.4.7-1.4 1.8-2.7 3.2-3.9 1.4-1.1 3.1-2.1 5.1-2.8 2-.7 4.3-1.1 6.8-1.1 2.3 0 4.5.3 6.4.8 2 .6 3.7 1.4 5.1 2.6 1.4 1.1 2.6 2.6 3.4 4.3.8 1.7 1.2 3.7 1.2 6v18.9c0 1.4.1 2.8.4 4.3.3 1.5.6 2.8 1.1 4v.6h-7zm-12.3-5.3c1.4 0 2.6-.2 3.8-.5 1.2-.4 2.3-.8 3.2-1.4 1-.6 1.8-1.2 2.5-2 .7-.7 1.3-1.5 1.7-2.3v-8.2h-6.5c-4.1 0-7.2.6-9.5 1.8s-3.4 3.1-3.4 5.7c0 1 .2 1.9.5 2.8.3.9.8 1.6 1.5 2.2.7.6 1.5 1.1 2.6 1.5 1 .2 2.2.4 3.6.4zm35-35.5.2 3.8c.8-1.4 1.9-2.5 3.3-3.4 1.3-.8 3-1.2 4.9-1.2 3.7 0 6.2 1.5 7.5 4.4.8-1.3 1.9-2.4 3.2-3.1s2.9-1.2 4.8-1.2c3 0 5.3.9 6.9 2.7 1.6 1.8 2.4 4.6 2.4 8.3v30.4h-6.6V236c0-3.4-1.6-5.1-4.7-5.1-.8 0-1.5.1-2.1.3s-1.1.5-1.5.9c-.4.4-.7.8-.9 1.4-.2.5-.4 1-.5 1.6v31.4h-6.6V236c0-1.6-.4-2.9-1.1-3.8-.7-.9-1.9-1.3-3.5-1.3-1.5 0-2.6.3-3.4.9-.8.6-1.4 1.3-1.8 2.3v32.4h-6.6v-40.7h6.1zm77.5 20.9c0 2.9-.4 5.6-1.1 8.2-.7 2.5-1.7 4.7-3.1 6.6-1.4 1.9-3 3.3-5 4.4-2 1.1-4.3 1.6-6.8 1.6s-4.7-.4-6.6-1.2c-1.9-.8-3.5-2-4.9-3.5v19.6h-7v-56.4h6.4l.3 4.4c1.4-1.7 3-3 4.9-3.9 1.9-.9 4.1-1.3 6.7-1.3 2.6 0 4.9.5 6.9 1.5s3.7 2.5 5 4.3c1.4 1.8 2.4 4 3.1 6.6.7 2.5 1.1 5.3 1.1 8.4v.7zm-7-.8c0-2-.2-3.9-.7-5.7-.4-1.8-1.1-3.4-2-4.7-.9-1.4-2.1-2.5-3.5-3.3-1.4-.8-3.1-1.2-5-1.2-2.2 0-4.1.5-5.6 1.6-1.5 1-2.7 2.4-3.6 4v19.6c.9 1.6 2.1 2.9 3.6 3.9s3.4 1.5 5.7 1.5c1.9 0 3.6-.4 5-1.2 1.4-.8 2.6-1.9 3.5-3.3.9-1.4 1.6-3 2-4.8.4-1.8.7-3.7.7-5.7v-.7zm19.9-37.2h20.8v51.8h13.3v6h-34.1v-6h13.9v-45.8h-13.9v-6zm63.2 58.6c-2.9 0-5.5-.5-7.9-1.5-2.4-1-4.5-2.3-6.2-4.1-1.7-1.8-3-3.8-4-6.3-1-2.4-1.4-5-1.4-7.9V246c0-3.3.5-6.2 1.6-8.8s2.5-4.8 4.2-6.6c1.7-1.8 3.7-3.2 6-4.1 2.2-1 4.5-1.4 6.8-1.4 2.9 0 5.5.5 7.7 1.5s4 2.4 5.5 4.2c1.5 1.8 2.5 3.9 3.3 6.3.7 2.4 1.1 5.1 1.1 7.9v3.1h-29.1c.1 1.9.4 3.6 1.1 5.2.6 1.6 1.5 3.1 2.6 4.3 1.1 1.2 2.5 2.2 4 2.9 1.6.7 3.3 1.1 5.2 1.1 2.5 0 4.7-.5 6.6-1.5 1.9-1 3.5-2.3 4.8-4l4.3 3.3c-.7 1-1.5 2-2.5 3-1 .9-2.2 1.8-3.5 2.5-1.3.7-2.8 1.3-4.5 1.8-1.8.3-3.7.5-5.7.5zm-.9-36.5c-1.4 0-2.7.3-4 .8-1.3.5-2.4 1.3-3.4 2.3-1 1-1.9 2.2-2.5 3.7-.7 1.4-1.2 3.1-1.5 5h21.9v-.5c-.1-1.4-.3-2.7-.8-4-.4-1.3-1.1-2.5-1.9-3.6-.9-1.1-1.9-1.9-3.2-2.6-1.2-.8-2.8-1.1-4.6-1.1zm29.2-19.1h33.1v6.1h-13.1v42.7h13.1v6h-33.1v-6H748v-42.7h-12.8v-6.1zm52.6 14.1.5 6c1.5-2.1 3.3-3.8 5.5-5 2.2-1.2 4.6-1.8 7.2-1.8 2.1 0 4.1.3 5.8.9 1.7.6 3.2 1.5 4.5 2.8 1.2 1.3 2.2 2.9 2.8 4.9.7 2 1 4.3 1 7v25.9h-7v-25.7c0-1.8-.2-3.3-.6-4.6-.4-1.3-1-2.3-1.8-3.1s-1.8-1.3-2.9-1.7c-1.1-.4-2.5-.5-3.9-.5-2.3 0-4.4.6-6.2 1.8s-3.2 2.7-4.2 4.6v29.2h-7v-40.7h6.3zm56.5-9.8v9.9h15.5v5.4h-15.5v22.1c0 1.6.2 2.9.6 3.9.4 1 1 1.9 1.7 2.5.7.6 1.5 1 2.4 1.3s1.9.4 2.9.4c.8 0 1.5 0 2.3-.1l2.4-.3c.8-.1 1.5-.3 2.1-.4.7-.1 1.2-.3 1.6-.4l1 4.9c-.6.4-1.3.7-2.1.9-.8.3-1.7.5-2.7.7s-2 .3-3.1.4c-1.1.1-2.2.2-3.3.2-1.8 0-3.5-.3-5.1-.8-1.6-.5-2.9-1.3-4.1-2.4-1.2-1.1-2.1-2.6-2.7-4.3-.7-1.8-1-3.9-1-6.4v-22.1h-10.7v-5.4h10.7V216h7.1zm47.8 51.3c-2.9 0-5.5-.5-7.9-1.5-2.4-1-4.5-2.3-6.2-4.1-1.7-1.8-3-3.8-4-6.3-1-2.4-1.4-5-1.4-7.9V246c0-3.3.5-6.2 1.6-8.8s2.5-4.8 4.2-6.6c1.7-1.8 3.7-3.2 6-4.1 2.2-1 4.5-1.4 6.8-1.4 2.9 0 5.5.5 7.7 1.5s4 2.4 5.5 4.2c1.5 1.8 2.5 3.9 3.3 6.3.7 2.4 1.1 5.1 1.1 7.9v3.1h-29.1c.1 1.9.4 3.6 1.1 5.2.6 1.6 1.5 3.1 2.6 4.3 1.1 1.2 2.5 2.2 4 2.9 1.6.7 3.3 1.1 5.2 1.1 2.5 0 4.7-.5 6.6-1.5 1.9-1 3.5-2.3 4.8-4l4.3 3.3c-.7 1-1.5 2-2.5 3-1 .9-2.2 1.8-3.5 2.5-1.3.7-2.8 1.3-4.5 1.8-1.9.3-3.7.5-5.7.5zm-.9-36.5c-1.4 0-2.7.3-4 .8-1.3.5-2.4 1.3-3.4 2.3-1 1-1.9 2.2-2.5 3.7-.7 1.4-1.2 3.1-1.5 5h21.9v-.5c-.1-1.4-.3-2.7-.8-4-.4-1.3-1.1-2.5-1.9-3.6-.9-1.1-1.9-1.9-3.2-2.6-1.3-.8-2.8-1.1-4.6-1.1zM947 225c.7 0 1.3 0 2 .1.7 0 1.4.1 2 .2l1.8.3c.5.1 1 .3 1.3.4l-.9 6.8c-1.4-.3-2.6-.5-3.9-.7-1.2-.1-2.5-.2-3.8-.2-3.3 0-5.9.7-7.9 2.2-2 1.5-3.5 3.6-4.5 6.2v26.1h-7v-40.7h6.6l.3 6.5c1.7-2.2 3.6-4 6-5.3 2.4-1.3 5-1.9 8-1.9zm29.9 41.5v-35.4h-11.2v-5.4h11.2v-2.9c0-2.6.4-4.9 1.1-6.9.8-2 1.8-3.6 3.2-5 1.4-1.3 3.1-2.3 5-3 2-.7 4.1-1 6.6-1 1.7 0 3.3.1 4.8.4 1.6.3 3.2.6 4.8 1.1l-.8 5.8c-1-.4-2.2-.7-3.6-.9-1.4-.3-2.8-.4-4.4-.4-3.3 0-5.7.9-7.4 2.5-1.6 1.6-2.5 4.1-2.5 7.5v2.9h15.7v5.4H984v35.4h-7.1zm62.8 0c-.3-.5-.5-1.2-.7-2-.2-.8-.3-1.6-.4-2.5-.7.7-1.5 1.4-2.4 2s-1.8 1.2-2.9 1.7c-1 .5-2.2.9-3.3 1.1-1.2.3-2.4.4-3.8.4-2.2 0-4.1-.3-5.9-.9-1.7-.6-3.2-1.5-4.4-2.5-1.2-1.1-2.2-2.3-2.8-3.8s-1-3.1-1-4.8c0-2.2.4-4.2 1.3-5.9s2.2-3.1 3.8-4.2c1.6-1.1 3.6-2 5.9-2.5 2.3-.6 4.9-.8 7.7-.8h7.6v-3.2c0-1.2-.2-2.3-.7-3.3s-1.1-1.8-1.9-2.5c-.8-.7-1.8-1.2-3-1.6-1.2-.4-2.5-.6-4-.6-1.4 0-2.6.2-3.7.5-1.1.4-2 .8-2.8 1.4-.8.6-1.3 1.3-1.8 2.1s-.6 1.6-.6 2.5h-7c0-1.5.4-2.9 1.1-4.4.7-1.4 1.8-2.7 3.2-3.9 1.4-1.1 3.1-2.1 5.1-2.8 2-.7 4.3-1.1 6.8-1.1 2.3 0 4.5.3 6.4.8s3.7 1.4 5.1 2.6c1.4 1.1 2.6 2.6 3.4 4.3.8 1.7 1.2 3.7 1.2 6v18.9c0 1.4.1 2.8.4 4.3s.6 2.8 1.1 4v.6h-7zm-12.4-5.3c1.4 0 2.6-.2 3.8-.5 1.2-.4 2.3-.8 3.2-1.4 1-.6 1.8-1.2 2.5-2 .7-.7 1.3-1.5 1.7-2.3v-8.2h-6.5c-4.1 0-7.2.6-9.5 1.8-2.3 1.2-3.4 3.1-3.4 5.7 0 1 .2 1.9.5 2.8.3.9.8 1.6 1.5 2.2.7.6 1.5 1.1 2.6 1.5 1.1.2 2.3.4 3.6.4zm49.2.4c1.3 0 2.5-.2 3.7-.6 1.2-.4 2.3-1 3.2-1.7.9-.7 1.7-1.6 2.2-2.5.6-1 .9-2 .9-3.1h6.6c0 1.8-.5 3.5-1.4 5.2-.9 1.6-2.1 3.1-3.7 4.3s-3.3 2.2-5.3 3-4.1 1.1-6.2 1.1c-3.1 0-5.8-.6-8.1-1.7s-4.2-2.6-5.8-4.5c-1.5-1.9-2.7-4-3.5-6.5-.8-2.4-1.2-5-1.2-7.7v-1.6c0-2.7.4-5.3 1.2-7.7.8-2.5 1.9-4.6 3.5-6.5 1.5-1.9 3.5-3.4 5.8-4.5s5-1.7 8.1-1.7c2.4 0 4.6.4 6.6 1.1 2 .8 3.8 1.8 5.2 3.1 1.5 1.3 2.6 2.9 3.4 4.7.8 1.8 1.2 3.7 1.2 5.8h-6.6c0-1.2-.3-2.4-.8-3.5s-1.2-2.1-2.1-2.9c-.9-.8-1.9-1.5-3.1-2-1.2-.5-2.5-.7-3.9-.7-2.2 0-4 .4-5.4 1.3s-2.7 2-3.6 3.4c-.9 1.4-1.6 3-1.9 4.7-.4 1.7-.6 3.5-.6 5.2v1.6c0 1.8.2 3.5.6 5.3.4 1.7 1 3.3 1.9 4.7.9 1.4 2.1 2.5 3.5 3.4s3.4 1.5 5.6 1.5zm46.9 5.6c-2.9 0-5.5-.5-7.9-1.5-2.4-1-4.5-2.3-6.2-4.1-1.7-1.8-3-3.8-4-6.3-1-2.4-1.4-5-1.4-7.9V246c0-3.3.5-6.2 1.6-8.8s2.5-4.8 4.2-6.6c1.7-1.8 3.7-3.2 6-4.1 2.2-1 4.5-1.4 6.8-1.4 2.9 0 5.5.5 7.7 1.5s4 2.4 5.5 4.2c1.5 1.8 2.5 3.9 3.3 6.3.7 2.4 1.1 5.1 1.1 7.9v3.1H1111c.1 1.9.4 3.6 1.1 5.2.6 1.6 1.5 3.1 2.6 4.3 1.1 1.2 2.5 2.2 4 2.9 1.6.7 3.3 1.1 5.2 1.1 2.5 0 4.7-.5 6.6-1.5 1.9-1 3.5-2.3 4.8-4l4.3 3.3c-.7 1-1.5 2-2.5 3-1 .9-2.2 1.8-3.5 2.5-1.3.7-2.8 1.3-4.5 1.8-1.8.3-3.7.5-5.7.5zm-.9-36.5c-1.4 0-2.7.3-4 .8-1.3.5-2.4 1.3-3.4 2.3-1 1-1.9 2.2-2.5 3.7-.7 1.4-1.2 3.1-1.5 5h21.9v-.5c-.1-1.4-.3-2.7-.8-4-.4-1.3-1.1-2.5-1.9-3.6-.9-1.1-1.9-1.9-3.2-2.6s-2.8-1.1-4.6-1.1z" fill="#d10771"/><path class="st2" d="m1213 252 1.8 4.9 12.4-31.2h7.8l-20.7 47c-.5 1.1-1.1 2.2-1.8 3.4s-1.6 2.3-2.7 3.3-2.3 1.8-3.7 2.5c-1.4.7-3 1-4.9 1-.3 0-.7 0-1.1-.1s-.8-.1-1.2-.2c-.4-.1-.8-.1-1.1-.2-.4-.1-.6-.1-.9-.2l1.1-5.7h.7c.3 0 .6.1.9.1.3 0 .6 0 .9.1h.7c1 0 1.8-.3 2.6-.8s1.5-1.2 2.1-1.9c.6-.7 1.1-1.5 1.6-2.3.4-.8.8-1.4 1-1.9l2.8-5.4-17.6-38.8h7.8L1213 252z"/><path class="st3" d="M1324.2 237.1h-33.6V231h33.6v6.1zm0 15.6h-33.6v-6h33.6v6z"/><path d="m787.7 318.3.5 6c1.5-2.1 3.3-3.8 5.5-5 2.2-1.2 4.6-1.8 7.2-1.8 2.1 0 4.1.3 5.8.9 1.7.6 3.2 1.5 4.5 2.8 1.2 1.3 2.2 2.9 2.8 4.9.7 2 1 4.3 1 7V359h-7v-25.7c0-1.8-.2-3.3-.6-4.6-.4-1.3-1-2.3-1.8-3.1s-1.8-1.3-2.9-1.7c-1.1-.4-2.5-.5-3.9-.5-2.3 0-4.4.6-6.2 1.8s-3.2 2.7-4.2 4.6V359h-7v-40.8h6.3zm58 41.5c-2.9 0-5.5-.5-7.9-1.5-2.4-1-4.5-2.3-6.2-4.1s-3-3.8-4-6.3c-1-2.4-1.4-5-1.4-7.9v-1.6c0-3.3.5-6.2 1.6-8.8s2.5-4.8 4.2-6.6c1.7-1.8 3.7-3.2 6-4.1 2.2-1 4.5-1.4 6.8-1.4 2.9 0 5.5.5 7.7 1.5s4 2.4 5.5 4.2c1.5 1.8 2.5 3.9 3.3 6.3.7 2.4 1.1 5.1 1.1 7.9v3.1h-29.1c.1 1.9.4 3.6 1.1 5.2.6 1.6 1.5 3.1 2.6 4.3 1.1 1.2 2.5 2.2 4 2.9s3.3 1.1 5.2 1.1c2.5 0 4.7-.5 6.6-1.5 1.9-1 3.5-2.3 4.8-4l4.3 3.3c-.7 1-1.5 2-2.5 3-1 .9-2.2 1.8-3.5 2.5-1.3.7-2.8 1.3-4.5 1.8-1.9.5-3.7.7-5.7.7zm-.9-36.5c-1.4 0-2.7.3-4 .8-1.3.5-2.4 1.3-3.4 2.3-1 1-1.9 2.2-2.5 3.7-.7 1.4-1.2 3.1-1.5 5h21.9v-.5c-.1-1.4-.3-2.7-.8-4-.4-1.3-1.1-2.5-1.9-3.6-.9-1.1-1.9-1.9-3.2-2.6-1.3-.8-2.8-1.1-4.6-1.1zm35.4 21 .8 5.8 1-5.8 6.5-26h4.5l6.5 26 1.1 6.4 1-6.4 4.5-26h6.2l-8.7 40.8h-5.5l-6.4-25-1.1-6.3-1 6.3-6.3 25h-5.5l-8.7-40.8h6.2l4.9 26z" fill="#05ad97"/><path class="st5" d="M1003.5 310.2h-16.9V359h-6.8v-48.9h-16.9v-6h40.7v6.1zm27.3 49.6c-2.9 0-5.5-.5-7.9-1.5-2.4-1-4.5-2.3-6.2-4.1-1.7-1.8-3-3.8-4-6.3-1-2.4-1.4-5-1.4-7.9v-1.6c0-3.3.5-6.2 1.6-8.8s2.5-4.8 4.2-6.6c1.7-1.8 3.7-3.2 6-4.1 2.2-1 4.5-1.4 6.8-1.4 2.9 0 5.5.5 7.7 1.5s4 2.4 5.5 4.2c1.5 1.8 2.5 3.9 3.3 6.3.7 2.4 1.1 5.1 1.1 7.9v3.1h-29.1c.1 1.9.4 3.6 1.1 5.2.6 1.6 1.5 3.1 2.6 4.3 1.1 1.2 2.5 2.2 4 2.9 1.6.7 3.3 1.1 5.2 1.1 2.5 0 4.7-.5 6.6-1.5 1.9-1 3.5-2.3 4.8-4l4.3 3.3c-.7 1-1.5 2-2.5 3-1 .9-2.2 1.8-3.5 2.5-1.3.7-2.8 1.3-4.5 1.8-1.8.5-3.7.7-5.7.7zm-.9-36.5c-1.4 0-2.7.3-4 .8-1.3.5-2.4 1.3-3.4 2.3-1 1-1.9 2.2-2.5 3.7-.7 1.4-1.2 3.1-1.5 5h21.9v-.5c-.1-1.4-.3-2.7-.8-4-.4-1.3-1.1-2.5-1.9-3.6-.9-1.1-1.9-1.9-3.2-2.6s-2.8-1.1-4.6-1.1zm56.3 24.9c0-.8-.2-1.6-.5-2.2-.3-.7-.9-1.3-1.7-1.8-.8-.6-1.8-1.1-3.1-1.5s-2.9-.9-4.8-1.3c-2.3-.5-4.5-1.1-6.4-1.7-1.9-.7-3.6-1.5-4.9-2.4-1.4-.9-2.4-2-3.2-3.3-.8-1.3-1.1-2.7-1.1-4.4 0-1.7.4-3.2 1.2-4.7.8-1.4 1.9-2.7 3.3-3.8 1.4-1.1 3.1-1.9 5-2.6 1.9-.6 4.1-.9 6.4-.9 2.5 0 4.8.3 6.8 1s3.7 1.6 5.1 2.7c1.4 1.2 2.5 2.5 3.3 4 .8 1.5 1.1 3.2 1.1 5h-7c0-.9-.2-1.7-.7-2.6-.5-.8-1.1-1.6-1.9-2.2s-1.8-1.2-2.9-1.6c-1.1-.4-2.4-.6-3.9-.6s-2.8.2-3.9.5-2 .8-2.8 1.3c-.7.6-1.3 1.2-1.7 1.9-.4.7-.6 1.5-.6 2.3 0 .8.2 1.5.5 2.1.3.6.8 1.2 1.6 1.7.7.5 1.7 1 3 1.4 1.2.4 2.8.8 4.7 1.2 2.5.5 4.8 1.1 6.7 1.8 2 .7 3.7 1.5 5 2.5 1.4 1 2.4 2.1 3.1 3.4.7 1.3 1.1 2.8 1.1 4.4 0 1.8-.4 3.5-1.2 4.9-.8 1.5-2 2.8-3.4 3.8-1.5 1.1-3.2 1.9-5.2 2.4-2 .6-4.3.9-6.7.9-2.8 0-5.2-.4-7.4-1.1s-4-1.7-5.5-2.9-2.6-2.6-3.4-4.2c-.8-1.6-1.2-3.3-1.2-5h7c.1 1.4.5 2.6 1.1 3.6.7 1 1.5 1.8 2.5 2.4 1 .6 2.1 1 3.3 1.3 1.2.3 2.4.4 3.6.4 2.9 0 5.3-.5 7-1.6 1.8-1.3 2.7-2.7 2.7-4.5zm35.7-39.8v9.9h15.5v5.4h-15.5v22.1c0 1.6.2 2.9.6 3.9.4 1 1 1.9 1.7 2.5.7.6 1.5 1 2.4 1.3.9.3 1.9.4 2.9.4.8 0 1.5 0 2.3-.1l2.4-.3c.8-.1 1.5-.3 2.1-.4.7-.1 1.2-.3 1.6-.4l1 4.9c-.6.4-1.3.7-2.1.9-.8.3-1.7.5-2.7.7-1 .2-2 .3-3.1.4s-2.2.2-3.3.2c-1.8 0-3.5-.3-5.1-.8s-2.9-1.3-4.1-2.4c-1.2-1.1-2.1-2.6-2.7-4.3-.7-1.8-1-3.9-1-6.4v-22.1h-10.7v-5.4h10.7v-9.9h7.1zm65.3 34.1c-.3 2.5-1 4.9-2 7s-2.3 3.9-3.8 5.5c-1.6 1.5-3.4 2.7-5.6 3.5-2.1.8-4.5 1.3-7.2 1.3-2.3 0-4.3-.3-6.2-1-1.8-.6-3.5-1.5-4.9-2.7-1.4-1.1-2.7-2.5-3.7-4s-1.9-3.2-2.6-5c-.7-1.8-1.2-3.7-1.5-5.7-.3-2-.5-4-.5-6v-7.6c0-2 .2-4 .5-6s.9-3.9 1.5-5.7c.7-1.8 1.6-3.5 2.6-5s2.3-2.9 3.7-4c1.4-1.1 3.1-2 4.9-2.7 1.8-.6 3.9-1 6.2-1 2.7 0 5.2.4 7.3 1.3s4 2 5.6 3.6 2.8 3.4 3.7 5.6c.9 2.2 1.6 4.5 1.9 7.2h-7c-.2-1.7-.6-3.2-1.2-4.6-.6-1.4-1.3-2.7-2.2-3.8-.9-1.1-2.1-1.9-3.4-2.5-1.3-.6-2.9-.9-4.8-.9-1.7 0-3.1.3-4.4.8-1.3.5-2.4 1.3-3.3 2.2-.9.9-1.7 2-2.3 3.2-.6 1.2-1.1 2.5-1.5 3.9-.4 1.4-.6 2.8-.8 4.2s-.2 2.8-.2 4.2v7.7c0 1.4.1 2.8.2 4.2s.4 2.9.8 4.3.9 2.7 1.5 3.9 1.4 2.3 2.3 3.3c.9.9 2 1.7 3.3 2.2 1.3.5 2.7.8 4.4.8 1.8 0 3.4-.3 4.8-.9 1.3-.6 2.5-1.4 3.4-2.4.9-1 1.7-2.3 2.2-3.7.6-1.4.9-3 1.2-4.6h7.1zm11.9-41.3h20.8V353h13.3v6h-34.1v-6h13.9v-45.8h-13.9v-6zM1271 359c-.3-.5-.5-1.2-.7-2s-.3-1.6-.4-2.5c-.7.7-1.5 1.4-2.4 2-.9.6-1.8 1.2-2.9 1.7-1 .5-2.2.9-3.3 1.1-1.2.3-2.4.4-3.8.4-2.2 0-4.1-.3-5.9-.9-1.7-.6-3.2-1.5-4.4-2.5-1.2-1.1-2.2-2.3-2.8-3.8s-1-3.1-1-4.8c0-2.2.4-4.2 1.3-5.9s2.2-3.1 3.8-4.2c1.6-1.1 3.6-2 5.9-2.5 2.3-.6 4.9-.8 7.7-.8h7.6v-3.2c0-1.2-.2-2.3-.7-3.3s-1.1-1.8-1.9-2.5c-.8-.7-1.8-1.2-3-1.6-1.2-.4-2.5-.6-4-.6-1.4 0-2.6.2-3.7.5-1.1.4-2 .8-2.8 1.4-.8.6-1.3 1.3-1.8 2.1s-.6 1.6-.6 2.5h-7c0-1.5.4-2.9 1.1-4.4.7-1.4 1.8-2.7 3.2-3.9 1.4-1.1 3.1-2.1 5.1-2.8 2-.7 4.3-1.1 6.8-1.1 2.3 0 4.5.3 6.4.8s3.7 1.4 5.1 2.6c1.4 1.1 2.6 2.6 3.4 4.3.8 1.7 1.2 3.7 1.2 6V350c0 1.4.1 2.8.4 4.3s.6 2.8 1.1 4v.6h-7zm-12.3-5.3c1.4 0 2.6-.2 3.8-.5 1.2-.4 2.3-.8 3.2-1.4 1-.6 1.8-1.2 2.5-2s1.3-1.5 1.7-2.3v-8.2h-6.5c-4.1 0-7.2.6-9.5 1.8-2.3 1.2-3.4 3.1-3.4 5.7 0 1 .2 1.9.5 2.8s.8 1.6 1.5 2.2 1.5 1.1 2.6 1.4c1.1.4 2.3.5 3.6.5zm58.9-5.5c0-.8-.2-1.6-.5-2.2-.3-.7-.9-1.3-1.7-1.8-.8-.6-1.8-1.1-3.1-1.5s-2.9-.9-4.8-1.3c-2.3-.5-4.5-1.1-6.4-1.7-1.9-.7-3.6-1.5-4.9-2.4-1.4-.9-2.4-2-3.2-3.3-.8-1.3-1.1-2.7-1.1-4.4 0-1.7.4-3.2 1.2-4.7.8-1.4 1.9-2.7 3.3-3.8 1.4-1.1 3.1-1.9 5-2.6 1.9-.6 4.1-.9 6.4-.9 2.5 0 4.8.3 6.8 1s3.7 1.6 5.1 2.7c1.4 1.2 2.5 2.5 3.3 4 .8 1.5 1.1 3.2 1.1 5h-7c0-.9-.2-1.7-.7-2.6-.5-.8-1.1-1.6-1.9-2.2s-1.8-1.2-2.9-1.6c-1.1-.4-2.4-.6-3.9-.6s-2.8.2-3.9.5-2 .8-2.8 1.3c-.7.6-1.3 1.2-1.7 1.9-.4.7-.6 1.5-.6 2.3 0 .8.2 1.5.5 2.1.3.6.8 1.2 1.6 1.7.7.5 1.7 1 3 1.4 1.2.4 2.8.8 4.7 1.2 2.5.5 4.8 1.1 6.7 1.8 2 .7 3.7 1.5 5 2.5 1.4 1 2.4 2.1 3.1 3.4.7 1.3 1.1 2.8 1.1 4.4 0 1.8-.4 3.5-1.2 4.9-.8 1.5-2 2.8-3.4 3.8-1.5 1.1-3.2 1.9-5.2 2.4-2 .6-4.3.9-6.7.9-2.8 0-5.2-.4-7.4-1.1s-4-1.7-5.5-2.9-2.6-2.6-3.4-4.2c-.8-1.6-1.2-3.3-1.2-5h7c.1 1.4.5 2.6 1.1 3.6.7 1 1.5 1.8 2.5 2.4 1 .6 2.1 1 3.3 1.3 1.2.3 2.4.4 3.6.4 2.9 0 5.3-.5 7-1.6 1.8-1.3 2.7-2.7 2.7-4.5zm46.3 0c0-.8-.2-1.6-.5-2.2-.3-.7-.9-1.3-1.7-1.8-.8-.6-1.8-1.1-3.1-1.5s-2.9-.9-4.8-1.3c-2.3-.5-4.5-1.1-6.4-1.7-1.9-.7-3.6-1.5-4.9-2.4-1.4-.9-2.4-2-3.2-3.3-.8-1.3-1.1-2.7-1.1-4.4 0-1.7.4-3.2 1.2-4.7.8-1.4 1.9-2.7 3.3-3.8 1.4-1.1 3.1-1.9 5-2.6 1.9-.6 4.1-.9 6.4-.9 2.5 0 4.8.3 6.8 1s3.7 1.6 5.1 2.7c1.4 1.2 2.5 2.5 3.3 4 .8 1.5 1.1 3.2 1.1 5h-7c0-.9-.2-1.7-.7-2.6-.5-.8-1.1-1.6-1.9-2.2s-1.8-1.2-2.9-1.6c-1.1-.4-2.4-.6-3.9-.6s-2.8.2-3.9.5-2 .8-2.8 1.3c-.7.6-1.3 1.2-1.7 1.9-.4.7-.6 1.5-.6 2.3 0 .8.2 1.5.5 2.1.3.6.8 1.2 1.6 1.7.7.5 1.7 1 3 1.4 1.2.4 2.8.8 4.7 1.2 2.5.5 4.8 1.1 6.7 1.8 2 .7 3.7 1.5 5 2.5 1.4 1 2.4 2.1 3.1 3.4.7 1.3 1.1 2.8 1.1 4.4 0 1.8-.4 3.5-1.2 4.9-.8 1.5-2 2.8-3.4 3.8-1.5 1.1-3.2 1.9-5.2 2.4-2 .6-4.3.9-6.7.9-2.8 0-5.2-.4-7.4-1.1s-4-1.7-5.5-2.9-2.6-2.6-3.4-4.2c-.8-1.6-1.2-3.3-1.2-5h7c.1 1.4.5 2.6 1.1 3.6.7 1 1.5 1.8 2.5 2.4 1 .6 2.1 1 3.3 1.3 1.2.3 2.4.4 3.6.4 2.9 0 5.3-.5 7-1.6 1.8-1.3 2.7-2.7 2.7-4.5z"/><path class="st3" d="M1390 336.8c0-3.6.3-7 .8-10.1.6-3.2 1.3-6.1 2.3-8.8 1-2.7 2.1-5.2 3.3-7.4 1.2-2.2 2.5-4.2 3.9-6 1.4-1.7 2.7-3.2 4.1-4.4 1.4-1.2 2.7-2.2 4-2.9l1.5 4.6c-1.6 1.2-3.1 2.8-4.7 4.8-1.5 2-2.9 4.5-4.1 7.4s-2.2 6.2-3 10c-.8 3.8-1.1 8-1.1 12.7v.5c0 4.7.4 8.9 1.1 12.7.8 3.8 1.8 7.1 3 10.1s2.6 5.4 4.1 7.5c1.5 2.1 3.1 3.7 4.7 5l-1.5 4.3c-1.3-.7-2.6-1.7-4-2.9s-2.8-2.7-4.1-4.4c-1.4-1.7-2.7-3.7-3.9-6-1.2-2.2-2.3-4.7-3.3-7.4-.9-2.7-1.7-5.6-2.3-8.8-.6-3.2-.8-6.5-.8-10.1v-.4zm64.8.4c0 3.6-.3 7-.8 10.1-.6 3.2-1.3 6.1-2.3 8.8s-2.1 5.2-3.3 7.4c-1.2 2.2-2.5 4.2-3.9 6-1.4 1.7-2.8 3.2-4.1 4.4-1.4 1.2-2.7 2.2-4 2.9l-1.5-4.3c1.6-1.2 3.1-2.8 4.7-4.8 1.5-2.1 2.9-4.6 4.1-7.5 1.2-2.9 2.2-6.3 3-10.1s1.1-8.1 1.1-12.8v-.5c0-4.7-.4-9-1.2-12.8-.8-3.8-1.8-7.2-3.1-10.2-1.3-3-2.7-5.5-4.2-7.5-1.5-2.1-3-3.7-4.4-4.8l1.5-4.3c1.3.7 2.6 1.7 4 2.9s2.8 2.7 4.1 4.4c1.4 1.7 2.7 3.7 3.9 6 1.2 2.2 2.3 4.7 3.3 7.4s1.7 5.6 2.3 8.8c.6 3.2.8 6.5.8 10.1v.4zm43.5 20.2c0 1.2-.1 2.4-.4 3.7-.3 1.3-.7 2.6-1.3 3.8-.6 1.3-1.2 2.5-2.1 3.6-.8 1.2-1.7 2.2-2.8 3.1l-4.3-2.4c1.2-1.8 2.1-3.6 2.6-5.6.5-2 .8-4 .8-6.2v-6.7h7.6v6.7zm-8.9-35.9c0-.8.1-1.5.4-2.1.2-.7.6-1.2 1-1.7.5-.5 1-.9 1.7-1.1.7-.3 1.5-.4 2.4-.4.9 0 1.7.1 2.4.4.7.3 1.3.7 1.7 1.1.5.5.8 1.1 1.1 1.7.2.7.4 1.4.4 2.1 0 .7-.1 1.4-.4 2.1-.2.6-.6 1.2-1.1 1.7-.5.5-1 .8-1.7 1.1-.7.3-1.5.4-2.4.4-.9 0-1.7-.1-2.4-.4-.7-.3-1.2-.6-1.7-1.1-.5-.5-.8-1-1-1.7-.3-.7-.4-1.3-.4-2.1z"/><path class="st2" d="m426.1 437.1 1.8 4.9 12.4-31.2h7.8l-20.7 47c-.5 1.1-1.1 2.2-1.8 3.4-.7 1.2-1.6 2.3-2.7 3.3s-2.3 1.8-3.7 2.5c-1.4.7-3 1-4.9 1-.3 0-.7 0-1.1-.1-.4 0-.8-.1-1.2-.2-.4-.1-.8-.1-1.1-.2-.4-.1-.6-.1-.9-.2l1.1-5.7h.7c.3 0 .6 0 .9.1.3 0 .6 0 .9.1h.7c1 0 1.8-.3 2.6-.8s1.5-1.2 2.1-1.9 1.1-1.5 1.6-2.3c.4-.8.8-1.4 1-1.9l2.8-5.4-17.6-38.8h7.8l11.5 26.4z"/><path d="M469.5 447.1c0-.8.1-1.5.4-2.1.2-.7.6-1.2 1-1.7.5-.5 1-.9 1.7-1.1.7-.3 1.5-.4 2.4-.4.9 0 1.7.1 2.4.4.7.3 1.3.7 1.7 1.1.5.5.8 1.1 1.1 1.7.2.7.4 1.4.4 2.1 0 .7-.1 1.4-.4 2.1-.2.6-.6 1.2-1.1 1.7-.5.5-1 .8-1.7 1.1-.7.3-1.5.4-2.4.4-.9 0-1.7-.1-2.4-.4-.7-.3-1.2-.6-1.7-1.1-.5-.5-.8-1-1-1.7-.2-.7-.4-1.4-.4-2.1z" fill="#333"/><path class="st5" d="M502.4 430.9c0-3 .4-5.8 1.1-8.4.8-2.5 1.9-4.7 3.3-6.6 1.4-1.8 3.1-3.3 5.1-4.3 2-1 4.3-1.5 6.7-1.5 2.4 0 4.6.4 6.4 1.2 1.8.8 3.4 2 4.7 3.6v-21.1h7v57.8h-6.4l-.3-4.3c-1.4 1.7-3 2.9-4.9 3.8-1.9.9-4.1 1.3-6.6 1.3s-4.7-.5-6.7-1.6-3.7-2.5-5.1-4.4c-1.4-1.9-2.5-4-3.3-6.6-.8-2.5-1.2-5.2-1.2-8.2v-.7zm6.9.8c0 2 .2 3.9.6 5.6.4 1.8 1.1 3.4 2 4.7.9 1.4 2 2.4 3.4 3.2 1.4.8 3 1.2 5 1.2 1.2 0 2.2-.1 3.2-.4 1-.3 1.8-.7 2.6-1.2s1.5-1.1 2.1-1.8c.6-.7 1.1-1.5 1.6-2.4v-18.9c-.9-1.7-2.1-3-3.7-4.1-1.5-1.1-3.4-1.6-5.7-1.6-2 0-3.6.4-5 1.2-1.4.8-2.5 1.9-3.4 3.3-.9 1.4-1.6 3-2 4.7-.4 1.8-.6 3.7-.6 5.7v.8zm38.7-.9c0-2.9.4-5.7 1.3-8.2s2.1-4.7 3.7-6.6c1.6-1.9 3.5-3.3 5.8-4.4 2.3-1.1 4.9-1.6 7.7-1.6 2.9 0 5.5.5 7.8 1.6s4.2 2.5 5.8 4.4 2.8 4 3.7 6.6c.9 2.5 1.3 5.3 1.3 8.2v.8c0 2.9-.4 5.7-1.3 8.2-.9 2.5-2.1 4.7-3.7 6.6-1.6 1.9-3.5 3.3-5.8 4.4-2.3 1.1-4.9 1.6-7.7 1.6-2.9 0-5.5-.5-7.8-1.6s-4.2-2.5-5.8-4.4c-1.6-1.9-2.8-4-3.7-6.6-.9-2.5-1.3-5.2-1.3-8.2v-.8zm7 .9c0 2 .2 3.9.7 5.7.5 1.8 1.2 3.4 2.2 4.8 1 1.4 2.2 2.5 3.6 3.3 1.5.8 3.2 1.2 5.1 1.2 1.9 0 3.6-.4 5-1.2 1.4-.8 2.6-1.9 3.6-3.3s1.7-3 2.2-4.8c.5-1.8.7-3.7.7-5.7v-.8c0-2-.2-3.9-.7-5.7s-1.2-3.4-2.2-4.8c-1-1.4-2.2-2.5-3.6-3.3-1.4-.8-3.1-1.2-5.1-1.2-1.9 0-3.6.4-5 1.2-1.4.8-2.6 1.9-3.6 3.3s-1.7 3-2.2 4.8-.7 3.7-.7 5.7v.8zm70 6c0-1.7-.4-3.1-1.1-4.3-.8-1.2-1.8-2.1-3-2.9s-2.5-1.4-4-2c-1.4-.5-2.8-1-4.2-1.4-1.9-.6-3.9-1.4-5.9-2.3s-3.8-2-5.5-3.2c-1.6-1.3-3-2.8-4-4.5-1-1.7-1.6-3.8-1.6-6.2 0-2.4.5-4.5 1.6-6.3 1-1.9 2.4-3.4 4.1-4.7 1.7-1.3 3.6-2.3 5.7-2.9 2.1-.7 4.3-1 6.4-1 2.4 0 4.7.4 6.9 1.2 2.2.8 4.2 1.9 5.9 3.3 1.7 1.4 3.1 3.2 4.1 5.2 1 2 1.6 4.3 1.6 6.8h-7.2c-.2-1.6-.6-3-1.2-4.3-.6-1.3-1.3-2.4-2.3-3.3-1-.9-2.1-1.7-3.4-2.2-1.3-.5-2.8-.8-4.5-.8-1.3 0-2.6.2-3.9.6-1.3.4-2.4.9-3.4 1.7-1 .8-1.8 1.7-2.4 2.8-.6 1.1-.9 2.4-.9 3.8 0 1.6.4 2.9 1.2 4s1.8 2 3 2.8c1.2.8 2.5 1.4 3.9 1.9s2.7.9 3.9 1.3c1.4.4 2.7.9 4.1 1.5 1.4.5 2.7 1.2 4 1.9 1.3.7 2.5 1.5 3.6 2.4 1.1.9 2.1 1.9 2.9 3s1.5 2.3 1.9 3.7c.5 1.3.7 2.8.7 4.5 0 2.5-.5 4.6-1.6 6.4-1.1 1.8-2.5 3.4-4.2 4.6s-3.7 2.1-5.9 2.7c-2.2.6-4.4.9-6.6.9-2.4 0-4.8-.4-7.2-1.1-2.3-.8-4.4-1.8-6.3-3.3-1.8-1.4-3.3-3.2-4.5-5.2-1.2-2-1.8-4.4-1.8-7h7.1c.2 1.7.7 3.2 1.4 4.5.7 1.3 1.6 2.4 2.7 3.4 1.1.9 2.4 1.6 3.8 2.1s3 .7 4.7.7c1.4 0 2.7-.2 4-.5 1.3-.3 2.5-.9 3.5-1.6 1-.7 1.9-1.6 2.5-2.7 1-1.2 1.4-2.5 1.4-4zm15.6-6.9c0-2.9.4-5.7 1.3-8.2s2.1-4.7 3.7-6.6c1.6-1.9 3.5-3.3 5.8-4.4 2.3-1.1 4.9-1.6 7.7-1.6 2.9 0 5.5.5 7.8 1.6s4.2 2.5 5.8 4.4 2.8 4 3.7 6.6c.9 2.5 1.3 5.3 1.3 8.2v.8c0 2.9-.4 5.7-1.3 8.2-.9 2.5-2.1 4.7-3.7 6.6-1.6 1.9-3.5 3.3-5.8 4.4-2.3 1.1-4.9 1.6-7.7 1.6-2.9 0-5.5-.5-7.8-1.6s-4.2-2.5-5.8-4.4c-1.6-1.9-2.8-4-3.7-6.6-.9-2.5-1.3-5.2-1.3-8.2v-.8zm7 .9c0 2 .2 3.9.7 5.7.5 1.8 1.2 3.4 2.2 4.8 1 1.4 2.2 2.5 3.6 3.3 1.5.8 3.2 1.2 5.1 1.2 1.9 0 3.6-.4 5-1.2 1.4-.8 2.6-1.9 3.6-3.3s1.7-3 2.2-4.8c.5-1.8.7-3.7.7-5.7v-.8c0-2-.2-3.9-.7-5.7s-1.2-3.4-2.2-4.8c-1-1.4-2.2-2.5-3.6-3.3-1.4-.8-3.1-1.2-5.1-1.2-1.9 0-3.6.4-5 1.2-1.4.8-2.6 1.9-3.6 3.3s-1.7 3-2.2 4.8-.7 3.7-.7 5.7v.8zm44.4-20.9.2 3.8c.8-1.4 1.9-2.5 3.3-3.4 1.3-.8 3-1.2 4.9-1.2 3.7 0 6.2 1.5 7.5 4.4.8-1.3 1.9-2.4 3.2-3.1 1.3-.8 2.9-1.2 4.8-1.2 3 0 5.3.9 6.9 2.7 1.6 1.8 2.4 4.6 2.4 8.3v30.4h-6.6V421c0-3.4-1.6-5.1-4.7-5.1-.8 0-1.5.1-2.1.3-.6.2-1.1.5-1.5.9-.4.4-.7.8-.9 1.4-.2.5-.4 1-.5 1.6v31.4h-6.6V421c0-1.6-.4-2.9-1.1-3.8-.7-.9-1.9-1.3-3.5-1.3-1.5 0-2.6.3-3.4.9-.8.6-1.4 1.3-1.8 2.3v32.4h-6.6v-40.7h6.1zm61.1 41.5c-2.9 0-5.5-.5-7.9-1.5-2.4-1-4.5-2.3-6.2-4.1s-3-3.8-4-6.3c-1-2.4-1.4-5-1.4-7.9v-1.6c0-3.3.5-6.2 1.6-8.8 1.1-2.6 2.5-4.8 4.2-6.6 1.7-1.8 3.7-3.2 6-4.1 2.2-1 4.5-1.4 6.8-1.4 2.9 0 5.5.5 7.7 1.5s4 2.4 5.5 4.2c1.5 1.8 2.5 3.9 3.3 6.3.7 2.4 1.1 5.1 1.1 7.9v3.1h-29.1c.1 1.9.4 3.6 1.1 5.2.6 1.6 1.5 3.1 2.6 4.3 1.1 1.2 2.5 2.2 4 2.9 1.6.7 3.3 1.1 5.2 1.1 2.5 0 4.7-.5 6.6-1.5 1.9-1 3.5-2.3 4.8-4l4.3 3.3c-.7 1-1.5 2-2.5 3-1 .9-2.2 1.8-3.5 2.5-1.3.7-2.8 1.3-4.5 1.8-1.9.5-3.7.7-5.7.7zm-.9-36.5c-1.4 0-2.7.3-4 .8-1.3.5-2.4 1.3-3.4 2.3-1 1-1.9 2.2-2.5 3.7-.7 1.4-1.2 3.1-1.5 5h21.9v-.6c-.1-1.4-.3-2.7-.8-4-.4-1.3-1.1-2.5-1.9-3.6-.9-1.1-1.9-1.9-3.2-2.6-1.3-.7-2.8-1-4.6-1zm45.7-14.8v9.9h15.5v5.4h-15.5v22.1c0 1.6.2 2.9.6 3.9.4 1 1 1.9 1.7 2.5.7.6 1.5 1 2.4 1.3.9.3 1.9.4 2.9.4.8 0 1.5 0 2.3-.1l2.4-.3c.8-.1 1.5-.3 2.1-.4.7-.1 1.2-.3 1.6-.4l1 4.9c-.6.4-1.3.7-2.1.9-.8.3-1.7.5-2.7.7s-2 .3-3.1.4c-1.1.1-2.2.2-3.3.2-1.8 0-3.5-.3-5.1-.8-1.6-.5-2.9-1.3-4.1-2.4s-2.1-2.6-2.7-4.3c-.7-1.8-1-3.9-1-6.4v-22.1h-10.7V411h10.7v-10h7.1zm36.8 15.9c1.5-2.1 3.3-3.8 5.4-5 2.1-1.2 4.5-1.8 7.2-1.8 2.1 0 4.1.3 5.8.9 1.7.6 3.2 1.6 4.5 2.9 1.2 1.3 2.2 3 2.8 5 .7 2 1 4.4 1 7.1v25.6h-7v-25.7c0-3.3-.8-5.8-2.4-7.5-1.6-1.6-3.9-2.4-6.8-2.4-2.2 0-4.3.5-6.1 1.6-1.8 1.1-3.3 2.5-4.4 4.3v29.6h-7v-57.8h7v23.2zm40.4-6.1h20.8v34.7h13.3v6h-34.1v-6H889v-28.7h-13.9v-6zm12.9-10.6c0-1.2.3-2.1 1-2.9s1.7-1.2 3.1-1.2c1.4 0 2.4.4 3.1 1.2.7.8 1.1 1.8 1.1 2.9 0 1.1-.4 2.1-1.1 2.8-.7.8-1.7 1.1-3.1 1.1-1.4 0-2.5-.4-3.1-1.1-.6-.8-1-1.7-1-2.8zm38.5 10.6.5 6c1.5-2.1 3.3-3.8 5.5-5 2.2-1.2 4.6-1.8 7.2-1.8 2.1 0 4.1.3 5.8.9 1.7.6 3.2 1.5 4.5 2.8 1.2 1.3 2.2 2.9 2.8 4.9.7 2 1 4.3 1 7v25.9h-7v-25.7c0-1.8-.2-3.3-.6-4.6-.4-1.3-1-2.3-1.8-3.1s-1.8-1.3-2.9-1.7c-1.1-.4-2.5-.5-3.9-.5-2.3 0-4.4.6-6.2 1.8s-3.2 2.7-4.2 4.6v29.2h-7v-40.7h6.3zm38.8 20.1c0-3 .4-5.8 1.1-8.4.7-2.5 1.8-4.7 3.2-6.6 1.4-1.8 3.1-3.3 5.1-4.3 2-1 4.3-1.5 6.8-1.5s4.7.4 6.6 1.3c1.9.9 3.5 2.2 4.8 3.9l.3-4.4h6.3v39.9c0 2.7-.4 5.1-1.3 7.2-.8 2.1-2 3.9-3.5 5.3-1.5 1.5-3.3 2.6-5.4 3.3-2.1.8-4.4 1.1-7 1.1-1.1 0-2.3-.1-3.6-.4s-2.7-.6-4.1-1.2c-1.4-.5-2.7-1.3-4-2.2-1.3-.9-2.4-2-3.3-3.4l3.6-4.2c.9 1 1.7 1.9 2.6 2.6.9.7 1.8 1.3 2.8 1.7.9.4 1.9.7 2.8.9.9.2 1.9.3 2.8.3 1.7 0 3.2-.2 4.5-.7 1.3-.5 2.5-1.2 3.4-2.1.9-.9 1.7-2.1 2.2-3.4.5-1.4.8-2.9.8-4.7v-3.5c-1.4 1.6-3 2.7-4.8 3.6-1.8.8-4 1.2-6.4 1.2-2.5 0-4.7-.5-6.7-1.6s-3.7-2.5-5.1-4.4c-1.4-1.9-2.5-4-3.2-6.6-.8-2.5-1.1-5.2-1.1-8.2v-.5zm6.9.8c0 2 .2 3.9.6 5.6.4 1.8 1.1 3.4 2 4.7.9 1.4 2 2.4 3.4 3.2 1.4.8 3 1.2 5 1.2 1.2 0 2.3-.1 3.3-.4 1-.3 1.8-.7 2.6-1.2s1.5-1.2 2.1-1.9 1.1-1.5 1.6-2.4v-18.7c-.5-.9-1-1.6-1.6-2.3s-1.3-1.3-2.1-1.8-1.6-.9-2.6-1.2c-1-.3-2-.4-3.2-.4-2 0-3.6.4-5 1.2-1.4.8-2.5 1.9-3.4 3.3-.9 1.4-1.5 3-2 4.7s-.6 3.7-.6 5.7v.7z"/><path class="st3" d="M1019.7 429.3c0-3.6.3-7 .8-10.1.6-3.2 1.3-6.1 2.3-8.8 1-2.7 2.1-5.2 3.3-7.4s2.5-4.2 3.9-6c1.4-1.7 2.7-3.2 4.1-4.4 1.4-1.2 2.7-2.2 4-2.9l1.5 4.6c-1.6 1.2-3.1 2.8-4.7 4.8-1.5 2-2.9 4.5-4.1 7.4-1.2 2.9-2.2 6.2-3 10-.8 3.8-1.1 8-1.1 12.7v.5c0 4.7.4 8.9 1.1 12.7.8 3.8 1.8 7.1 3 10.1s2.6 5.4 4.1 7.5c1.5 2.1 3.1 3.7 4.7 5l-1.5 4.3c-1.3-.7-2.6-1.7-4-2.9s-2.8-2.7-4.1-4.4c-1.4-1.7-2.7-3.7-3.9-6-1.2-2.2-2.3-4.7-3.3-7.4-.9-2.7-1.7-5.6-2.3-8.8-.6-3.2-.8-6.5-.8-10.1v-.4zm64.8.4c0 3.6-.3 7-.8 10.1-.6 3.2-1.3 6.1-2.3 8.8s-2.1 5.2-3.3 7.4c-1.2 2.2-2.5 4.2-3.9 6-1.4 1.7-2.8 3.2-4.1 4.4-1.4 1.2-2.7 2.2-4 2.9l-1.5-4.3c1.6-1.2 3.1-2.8 4.7-4.8 1.5-2.1 2.9-4.6 4.1-7.5 1.2-2.9 2.2-6.3 3-10.1.8-3.8 1.1-8.1 1.1-12.8v-.5c0-4.7-.4-9-1.2-12.8-.8-3.8-1.8-7.2-3.1-10.2-1.3-2.9-2.7-5.5-4.2-7.5s-3-3.7-4.4-4.8l1.5-4.3c1.3.7 2.6 1.7 4 2.9s2.8 2.7 4.1 4.4c1.4 1.7 2.7 3.7 3.9 6 1.2 2.2 2.3 4.7 3.3 7.4s1.7 5.6 2.3 8.8c.6 3.2.8 6.5.8 10.1v.4zM1128 450c0 1.2-.1 2.4-.4 3.7-.3 1.3-.7 2.6-1.3 3.8-.6 1.3-1.2 2.5-2.1 3.6s-1.7 2.2-2.8 3.1l-4.3-2.4c1.2-1.8 2.1-3.6 2.6-5.6.5-2 .8-4 .8-6.2v-6.7h7.6v6.7zm-8.9-35.9c0-.8.1-1.5.4-2.1.2-.7.6-1.2 1-1.7.5-.5 1-.9 1.7-1.1.7-.3 1.5-.4 2.4-.4.9 0 1.7.1 2.4.4.7.3 1.3.7 1.7 1.1.5.5.8 1.1 1.1 1.7.2.7.4 1.4.4 2.1 0 .7-.1 1.4-.4 2.1-.2.6-.6 1.2-1.1 1.7s-1 .8-1.7 1.1-1.5.4-2.4.4c-.9 0-1.7-.1-2.4-.4s-1.2-.6-1.7-1.1c-.5-.5-.8-1-1-1.7-.3-.7-.4-1.4-.4-2.1z"/></svg>