<svg xmlns="http://www.w3.org/2000/svg" viewBox="0 0 1920 673" xml:space="preserve"><path fill="#e7e9e8" d="M0 0h1920v673H0z"/><path d="m32.7 240.5 4.3 4.3 4.3-4.3 14.2-14.2 14.2 14.2 4.3 4.3 4.3-4.3 14.2-14.2 14.2 14.2 4.3 4.3 4.3-4.3 14.2-14.2 14.2 14.2 4.3 4.3 4.3-4.3 14.2-14.2 14.2 14.2 4.3 4.3 4.3-4.3 14.2-14.2 14.2 14.2 4.3 4.3 4.3-4.3 14.2-14.2 14.2 14.2 4.3 4.3 4.3-4.3 14.2-14.2 14.2 14.2 4.3 4.3 4.3-4.3 14.2-14.2 14.2 14.2 4.3 4.3 4.3-4.3 14.2-14.2 14.2 14.2 4.3 4.3 4.3-4.3 14.2-14.2 14.2 14.2 4.3 4.3 4.3-4.3 14.2-14.2 14.2 14.2 4.3 4.3 4.3-4.3 14.2-14.2 14.2 14.2 4.3 4.3 4.3-4.3 14.2-14.2 14.2 14.2 4.3 4.3 4.3-4.3 14.2-14.2 14.2 14.2 4.3 4.3 4.3-4.3 14.2-14.2 14.2 14.2 4.3 4.3 4.3-4.3 14.2-14.2 14.2 14.2 4.3 4.3 4.3-4.3 14.2-14.2 14.2 14.2 4.3 4.3 4.3-4.3 14.2-14.2 14.2 14.2 4.3 4.3 4.3-4.3 14.2-14.2 14.2 14.2 4.3 4.3 4.3-4.3 14.2-14.2 14.2 14.2 4.3 4.3 4.3-4.3 14.2-14.2 14.2 14.2 4.3 4.3 4.3-4.3 14.2-14.2 14.2 14.2 4.3 4.3 4.3-4.3 14.2-14.2 14.2 14.2 4.3 4.3 4.3-4.3 14.2-14.2 14.2 14.2 4.3 4.3 4.3-4.3 14.2-14.2 14.2 14.2 4.3 4.3 4.3-4.3 14.2-14.2 14.2 14.2 4.3 4.3 4.3-4.3 14.2-14.2 14.2 14.2 4.3 4.3 4.3-4.3 14.2-14.2 14.2 14.2 4.3 4.3 4.3-4.3 14.2-14.2 14.2 14.2 4.3 4.3 4.3-4.3 14.2-14.2 14.2 14.2 4.3 4.3 4.3-4.3 14.2-14.2 14.2 14.2 4.3 4.3 4.3-4.3 14.2-14.2 14.2 14.2 4.3 4.3 4.3-4.3 14.2-14.2 14.2 14.2 4.3 4.3 4.3-4.3 14.2-14.2 14.2 14.2 4.3 4.3 4.3-4.3 14.2-14.2 14.2 14.2 4.3 4.3 4.3-4.3 14.2-14.2 14.2 14.2 4.3 4.3 4.3-4.3 14.2-14.2 14.2 14.2 4.3 4.3 4.3-4.3 14.2-14.2 14.2 14.2 4.3 4.3 4.3-4.3 14.2-14.2 14.2 14.2 4.3 4.3 4.3-4.3 14.2-14.2 14.2 14.2 4.3 4.3 4.3-4.3 14.2-14.2 14.2 14.2 4.3 4.3 4.3-4.3 14.2-14.2 14.2 14.2 4.3 4.3 4.3-4.3 14.2-14.2 14.2 14.2 4.3 4.3 4.3-4.3 14.2-14.2 14.2 14.2 4.3 4.3 4.3-4.3 14.2-14.2 14.2 14.2 4.3 4.3 4.3-4.3 14.2-14.2 14.2 14.2 4.3 4.3 4.3-4.3 14.2-14.2 14.2 14.2 4.3 4.3 4.3-4.3 14.2-14.2 14.2 14.2 4.3 4.3 4.3-4.3 14.2-14.2 14.2 14.2 4.3 4.3 4.3-4.3 14.2-14.2 14.2 14.2 4.3 4.3 4.3-4.3 14.2-14.2 14.2 14.2.3.3v-8.5l-10.2-10.2-8.3-4.3-4.3 4.3-14.2 14.2-14.2-14.2-4.3-4.3-4.3 4.3-14.2 14.2-14.2-14.2-4.3-4.3-4.3 4.3-14.2 14.2-14.2-14.2-4.3-4.3-4.3 4.3-14.2 14.2-14.2-14.2-4.3-4.3-4.3 4.3-14.2 14.2-14.2-14.2-4.3-4.3-4.3 4.3-14.2 14.2-14.2-14.2-4.3-4.3-4.3 4.3-14.2 14.2-14.2-14.2-4.3-4.3-4.3 4.3-14.2 14.2-14.2-14.2-4.3-4.3-4.3 4.3-14.2 14.2-14.2-14.2-4.3-4.3-4.3 4.3-14.2 14.2-14.2-14.2-4.3-4.3-4.3 4.3-14.2 14.2-14.2-14.2-4.3-4.3-4.3 4.3-14.2 14.2-14.2-14.2-4.3-4.3-4.3 4.3-14.2 14.2-14.2-14.2-4.3-4.3-4.3 4.3-14.2 14.2-14.2-14.2-4.3-4.3-4.3 4.3-14.2 14.2-14.2-14.2-4.3-4.3-4.3 4.3-14.2 14.2-14.2-14.2-4.3-4.3-4.3 4.3-14.2 14.2-14.2-14.2-4.3-4.3-4.3 4.3-14.2 14.2-14.2-14.2-4.3-4.3-4.3 4.3-14.2 14.2-14.2-14.2-4.3-4.3-4.3 4.3-14.2 14.2-14.2-14.2-4.3-4.3-4.3 4.3-14.2 14.2-14.2-14.2-4.3-4.3-4.3 4.3-14.2 14.2-14.2-14.2-4.3-4.3-4.3 4.3-14.2 14.2-14.2-14.2-4.3-4.3-4.3 4.3-14.2 14.2-14.2-14.2-4.3-4.3-4.3 4.3-14.2 14.2-14.2-14.2-4.3-4.3-4.3 4.3-12.2 14.2-14.2-14.2-4.3-4.3-4.3 4.3-14.2 14.2-14.2-14.2-4.3-4.3-4.3 4.3-14.2 14.2-14-14.2-4.3-4.3-4.3 4.3-14.2 14.2-14.2-14.2-4.3-4.3-4.3 4.3-14.2 14.2-14.2-14.2-4.3-4.3-4.3 4.3-14.2 14.2-14.2-14.2-4.3-4.3-4.3 4.3-14.2 14.2-14.2-14.2-4.3-4.3-4.3 4.3-14.2 14.2-14.2-14.2-4.3-4.3-4.3 4.3-14.2 14.2-14.2-14.2-4.3-4.3-4.3 4.3-14.2 14.2-14.2-14.2-4.3-4.3-4.3 4.3-14.2 14.2-14.2-14.2-4.3-4.3-4.3 4.3-14.2 14.2-14.2-14.2-4.3-4.3-4.3 4.3-14.2 14.2-14.2-14.2-4.3-4.3-4.3 4.3-13.4 14.2-14.2-14.2-4.3-4.3-4.3 4.3-14.2 14.2-14.2-14.2-4.3-4.3-4.3 4.3-14.2 14.2-14-14.2-4.3-4.3-4.3 4.3-14.2 14.2-14.2-14.2-4.3-4.3-4.3 4.3-14.2 14.2-14.2-14.2-4.3-4.3-4.3 4.3-14.2 14.2-14.2-14.2-4.3-4.3-4.3 4.3-14.2 14.2-14.2-14.2-4.3-4.3-4.3 4.3-14.2 14.2-14.2-14.2-4.3-4.3-4.3 4.3-14.2 14.2-14.2-14.2-4.3-4.3-4.3 4.3-14.2 14.2-14.2-14.2-4.3-4.3-4.3 4.3-14.2 14.2L96 222.1l-4.3-4.3-4.3 4.3-14.2 14.2L59 222.1l-4.3-4.3-4.3 4.3-14.2 14.2L22 222.1l-4.3-4.3-4.3 4.3L0 236.3v8.5l18.5-18.5zm0-42 4.3 4.3 4.3-4.3 14.2-14.2 14.1 14.2 4.3 4.3 4.3-4.3 14.2-14.2 14.2 14.2 4.3 4.3 4.3-4.3 14.2-14.2 14.2 14.2 4.3 4.3 4.3-4.3 14.2-14.2 14.2 14.2 4.3 4.3 4.3-4.3 14.2-14.2 14.2 14.2 4.3 4.3 4.3-4.3 14.2-14.2 14.2 14.2 4.3 4.3 4.3-4.3 14.2-14.2 14.2 14.2 4.3 4.3 4.3-4.3 14.2-14.2 13.6 14.2 4.3 4.3 4.3-4.3 14.2-14.2 14.2 14.2 4.3 4.3 4.3-4.3 14.2-14.2 14.2 14.2 4.3 4.3 4.3-4.3 14.2-14.2 14.2 14.2 4.3 4.3 4.3-4.3 14.2-14.2 14.2 14.2 4.3 4.3 4.3-4.3 14.2-14.2 14.2 14.2 4.3 4.3 4.3-4.3 14.2-14.2 14.2 14.2 4.3 4.3 4.3-4.3 14.2-14.2 14.2 14.2 4.3 4.3 4.3-4.3 14.2-14.2 14.2 14.2 4.3 4.3 4.3-4.3 14.2-14.2 14.2 14.2 4.3 4.3 4.3-4.3 14.2-14.2 14.2 14.2 4.3 4.3 4.3-4.3 14.2-14.2 14.2 14.2 4.3 4.3 4.3-4.3 14.2-14.2 14.2 14.2 4.3 4.3 4.3-4.3 14.2-14.2 13.2 14.2 4.3 4.3 4.3-4.3 14.2-14.2 14.2 14.2 4.3 4.3 4.3-4.3 14.2-14.2 14.2 14.2 4.3 4.3 4.3-4.3 14.2-14.2 14.2 14.2 4.3 4.3 4.3-4.3 14.2-14.2 14.2 14.2 4.3 4.3 4.3-4.3 14.2-14.2 14.2 14.2 4.3 4.3 4.3-4.3 14.2-14.2 14.2 14.2 4.3 4.3 4.3-4.3 14.2-14.2 14.2 14.2 4.3 4.3 4.3-4.3 14.2-14.2 14.2 14.2 4.3 4.3 4.3-4.3 14.2-14.2 14.2 14.2 4.3 4.3 4.3-4.3 14.2-14.2 14.2 14.2 4.3 4.3 4.3-4.3 14.2-14.2 14.2 14.2 4.3 4.3 4.3-4.3 14.2-14.2 14.2 14.2 4.3 4.3 4.3-4.3 14.2-14.2 13.2 14.2 4.3 4.3 4.3-4.3 14.2-14.2 14.2 14.2 4.3 4.3 4.3-4.3 14.2-14.2 14.2 14.2 4.3 4.3 4.3-4.3 14.2-14.2 14.2 14.2 4.3 4.3 4.3-4.3 14.2-14.2 14.2 14.2 4.3 4.3 4.3-4.3 14.2-14.2 14.2 14.2 4.3 4.3 4.3-4.3 14.2-14.2 14.2 14.2 4.3 4.3 4.3-4.3 14.2-14.2 14.2 14.2 4.3 4.3 4.3-4.3 14.2-14.2 14.2 14.2 4.3 4.3 4.3-4.3 14.2-14.2 14.2 14.2 4.3 4.3 4.3-4.3 14.2-14.2 14.2 14.2 4.3 4.3 4.3-4.3 14.2-14.2 14.2 14.2 4.3 4.3 4.3-4.3 14.2-14.2 14.2 14.2 4.3 4.3 4.3-4.3 14.2-14.2 13.2 14.2 4.3 4.3 4.3-4.3 14.2-14.2 14.2 14.2 4.3 4.3 4.3-4.3 14.2-14.2 14.2 14.2 4.3 4.3 4.3-4.3 14.2-14.2 14.2 14.2 4.3 4.3 4.3-4.3 14.2-14.2 14.2 14.2 4 4V194l-14.2-14-4.3-4.3-4.3 4.3-14.2 14.2-14.2-14.2-4.3-4.3-4.3 4.3-14.2 14.2-14.2-14.2-4.3-4.3-4.3 4.3-14.2 14.2-14.2-14.2-4.3-4.3-4.3 4.3-14.2 14.2-14.2-14.2-4.3-4.3-4.3 4.3-14.2 14.2-14.2-14.2-4.3-4.3-4.3 4.3-14.2 14.2-14.2-14.2-4.3-4.3-4.3 4.3-14.2 14.2-14.2-14.2-4.3-4.3-4.3 4.3-14.2 14.2-14.2-14.2-4.3-4.3-4.3 4.3-14.2 14.2-14.2-14.2-4.3-4.3-4.3 4.3-14.2 14.2-14.2-14.2-4.3-4.3-4.3 4.3-14.2 14.2-14.2-14.2-4.3-4.3-4.3 4.3-14.2 14.2-14.2-14.2-4.3-4.3-4.3 4.3-14.2 14.2-14.2-14.2-4.3-4.3-4.3 4.3-14.2 14.2-14.2-14.2-4.3-4.3-4.3 4.3-14.2 14.2-14.2-14.2-4.3-4.3-4.3 4.3-14.2 14.2-14.2-14.2-4.3-4.3-4.3 4.3-14.2 14.2-14.2-14.2-4.3-4.3-4.3 4.3-14.2 14.2-14.2-14.2-4.3-4.3-4.3 4.3-14.2 14.2-14.2-14.2-4.3-4.3-4.3 4.3-14.2 14.2-14.2-14.2-4.3-4.3-4.3 4.3-14.2 14.2-14.2-14.2-4.3-4.3-4.3 4.3-14.2 14.2-14.2-14.2-4.3-4.3-4.3 4.3-14.2 14.2-14.2-14.2-4.3-4.3-4.3 4.3-14.2 14.2-14.2-14.2-4.3-4.3-4.3 4.3-14.2 14.2-14.2-14.2-4.3-4.3-4.3 4.3-12.2 14.2-14.2-14.2-4.3-4.3-4.3 4.3-14.2 14.2-14.2-14.2-4.3-4.3-4.3 4.3-14.2 14.2-14-14.2-4.3-4.3-4.3 4.3-14.2 14.2L835 180l-4.3-4.3-4.3 4.3-14.2 14.2L798 180l-4.3-4.3-4.3 4.3-14.2 14.2L761 180l-4.3-4.3-4.3 4.3-14.2 14.2L724 180l-4.3-4.3-4.3 4.3-14.2 14.2L687 180l-4.3-4.3-4.3 4.3-14.2 14.2L650 180l-4.3-4.3-4.3 4.3-14.2 14.2L613 180l-4.3-4.3-4.3 4.3-14.2 14.2L576 180l-4.3-4.3-4.3 4.3-14.2 14.2L539 180l-4.3-4.3-4.3 4.3-14.2 14.2L502 180l-4.3-4.3-4.3 4.3-13.4 14.2-14.2-14.2-4.3-4.3-4.3 4.3-14.2 14.2-14.2-14.2-4.3-4.3-4.3 4.3-14.2 14.2-14-14.2-4.3-4.3-4.3 4.3-14.2 14.2L355 180l-4.3-4.3-4.3 4.3-14.2 14.2L318 180l-4.3-4.3-4.3 4.3-14.2 14.2L281 180l-4.3-4.3-4.3 4.3-14.2 14.2L244 180l-4.3-4.3-4.3 4.3-14.2 14.2L207 180l-4.3-4.3-4.3 4.3-14.2 14.2L170 180l-4.3-4.3-4.3 4.3-14.2 14.2L133 180l-4.3-4.3-4.3 4.3-14.2 14.2L96 180l-4.3-4.3-4.3 4.3-14.2 14.2L59 180l-4.3-4.3-4.3 4.3-14.2 14.2L22 180l-4.3-4.3-4.3 4.3L0 194.2v8.5l18.5-18.5zm0 84.1 4.3 4.3 4.3-4.3 14.2-14.2 14.2 14.2 4.3 4.3 4.3-4.3 14.2-14.2 14.2 14.2 4.3 4.3 4.3-4.3 14.2-14.2 14.2 14.2 4.3 4.3 4.3-4.3 14.2-14.2 14.2 14.2 4.3 4.3 4.3-4.3 14.2-14.2 14.2 14.2 4.3 4.3 4.3-4.3 14.2-14.2 14.2 14.2 4.3 4.3 4.3-4.3 14.2-14.2 14.2 14.2 4.3 4.3 4.3-4.3 14.2-14.2 14.2 14.2 4.3 4.3 4.3-4.3 14.2-14.2 14.2 14.2 4.3 4.3 4.3-4.3 14.2-14.2 14.2 14.2 4.3 4.3 4.3-4.3 14.2-14.2 14.2 14.2 4.3 4.3 4.3-4.3 14.2-14.2 14.2 14.2 4.3 4.3 4.3-4.3 14.2-14.2 14.2 14.2 4.3 4.3 4.3-4.3 14.2-14.2 14.2 14.2 4.3 4.3 4.3-4.3 14.2-14.2 14.2 14.2 4.3 4.3 4.3-4.3 14.2-14.2 14.2 14.2 4.3 4.3 4.3-4.3 14.2-14.2 14.2 14.2 4.3 4.3 4.3-4.3 14.2-14.2 14.2 14.2 4.3 4.3 4.3-4.3 14.2-14.2 14.2 14.2 4.3 4.3 4.3-4.3 14.2-14.2 14.2 14.2 4.3 4.3 4.3-4.3 14.2-14.2 14.2 14.2 4.3 4.3 4.3-4.3 14.2-14.2 14.2 14.2 4.3 4.3 4.3-4.3 14.2-14.2 14.2 14.2 4.3 4.3 4.3-4.3 14.2-14.2 14.2 14.2 4.3 4.3 4.3-4.3 14.2-14.2 14.2 14.2 4.3 4.3 4.3-4.3 14.2-14.2 14.2 14.2 4.3 4.3 4.3-4.3 14.2-14.2 14.2 14.2 4.3 4.3 4.3-4.3 14.2-14.2 14.2 14.2 4.3 4.3 4.3-4.3 14.2-14.2 14.2 14.2 4.3 4.3 4.3-4.3 14.2-14.2 14.2 14.2 4.3 4.3 4.3-4.3 14.2-14.2 14.2 14.2 4.3 4.3 4.3-4.3 14.2-14.2 14.2 14.2 4.3 4.3 4.3-4.3 14.2-14.2 14.2 14.2 4.3 4.3 4.3-4.3 14.2-14.2 14.2 14.2 4.3 4.3 4.3-4.3 14.2-14.2 14.2 14.2 4.3 4.3 4.3-4.3 14.2-14.2 14.2 14.2 4.3 4.3 4.3-4.3 14.2-14.2 14.2 14.2 4.3 4.3 4.3-4.3 14.2-14.2 14.2 14.2 4.3 4.3 4.3-4.3 14.2-14.2 14.2 14.2 4.3 4.3 4.3-4.3 14.2-14.2 14.2 14.2 4.3 4.3 4.3-4.3 14.2-14.2 14.2 14.2 4.3 4.3 4.3-4.3 14.2-14.2 14.2 14.2 4.3 4.3 4.3-4.3 14.2-14.2 14.2 14.2 4.3 4.3 4.3-4.3 14.2-14.2 14.2 14.2 4.3 4.3 4.3-4.3 14.2-14.2 14.2 14.2 4.3 4.3 4.3-4.3 14.2-14.2 14.2 14.2 4.3 4.3 4.3-4.3 14.2-14.2 14.2 14.2 4.3 4.3 4.3-4.3 14.2-14.2 14.2 14.2 4.3 4.3 4.3-4.3 14.2-14.2 14.2 14.2 4.3 4.3 4.3-4.3 14.2-14.2 14.2 14.2 4.3 4.3 4.3-4.3 14.2-14.2 14.2 14.2.3.3v-8.5l-10.2-10.2-8.3-4.3-4.3 4.3-14.2 14.2-14.2-14.2-4.3-4.3-4.3 4.3-14.2 14.2-14.2-14.2-4.3-4.3-4.3 4.3-14.2 14.2-14.2-14.2-4.3-4.3-4.3 4.3-14.2 14.2-14.2-14.2-4.3-4.3-4.3 4.3-14.2 14.2-14.2-14.2-4.3-4.3-4.3 4.3-14.2 14.2-14.2-14.2-4.3-4.3-4.3 4.3-14.2 14.2-14.2-14.2-4.3-4.3-4.3 4.3-14.2 14.2-14.2-14.2-4.3-4.3-4.3 4.3-14.2 14.2-14.2-14.2-4.3-4.3-4.3 4.3-14.2 14.2-14.2-14.2-4.3-4.3-4.3 4.3-14.2 14.2-14.2-14.2-4.3-4.3-4.3 4.3-14.2 14.2-14.2-14.2-4.3-4.3-4.3 4.3-14.2 14.2-14.2-14.2-4.3-4.3-4.3 4.3-14.2 14.2-14.2-14.2-4.3-4.3-4.3 4.3-14.2 14.2-14.2-14.2-4.3-4.3-4.3 4.3-14.2 14.2-14.2-14.2-4.3-4.3-4.3 4.3-14.2 14.2-14.2-14.2-4.3-4.3-4.3 4.3-14.2 14.2-14.2-14.2-4.3-4.3-4.3 4.3-14.2 14.2-14.2-14.2-4.3-4.3-4.3 4.3-14.2 14.2-14.2-14.2-4.3-4.3-4.3 4.3-14.2 14.2-14.2-14.2-4.3-4.3-4.3 4.3-14.2 14.2-14.2-14.2-4.3-4.3-4.3 4.3-14.2 14.2-14.2-14.2-4.3-4.3-4.3 4.3-14.2 14.2-14.2-14.2-4.3-4.3-4.3 4.3-14.2 14.2-14.2-14.2-4.3-4.3-4.3 4.3-12.2 14.2-14.2-14.2-4.3-4.3-4.3 4.3-14.2 14.2-14.2-14.2-4.3-4.3-4.3 4.3-14.2 14.2-14-14.2-4.3-4.3-4.3 4.3-14.2 14.2-14.2-14.2-4.3-4.3-4.3 4.3-14.2 14.2-14.2-14.2-4.3-4.3-4.3 4.3-14.2 14.2-14.2-14.2-4.3-4.3-4.3 4.3-14.2 14.2-14.2-14.2-4.3-4.3-4.3 4.3-14.2 14.2-14.2-14.2-4.3-4.3-4.3 4.3-14.2 14.2-14.2-14.2-4.3-4.3-4.3 4.3-14.2 14.2-14.2-14.2-4.3-4.3-4.3 4.3-14.2 14.2-14.2-14.2-4.3-4.3-4.3 4.3-14.2 14.2-14.2-14.2-4.3-4.3-4.3 4.3-14.2 14.2-14.2-14.2-4.3-4.3-4.3 4.3-13.4 14.2-14.2-14.2-4.3-4.3-4.3 4.3-14.2 14.2-14.2-14.2-4.3-4.3-4.3 4.3-14.2 14.2-14-14.2-4.3-4.3-4.3 4.3-14.2 14.2-14.2-14.2-4.3-4.3-4.3 4.3-14.2 14.2-14.2-14.2-4.3-4.3-4.3 4.3-14.2 14.2-14.2-14.2-4.3-4.3-4.3 4.3-14.2 14.2-14.2-14.2-4.3-4.3-4.3 4.3-14.2 14.2-14.2-14.2-4.3-4.3-4.3 4.3-14.2 14.2-14.2-14.2-4.3-4.3-4.3 4.3-14.2 14.2-14.2-14.2-4.3-4.3-4.3 4.3-14.2 14.2L96 264.2l-4.3-4.3-4.3 4.3-14.2 14.2L59 264.2l-4.3-4.3-4.3 4.3-14.2 14.2L22 264.2l-4.3-4.3-4.3 4.3L0 278.4v8.5l18.5-18.5zm0-210.4 4.3 4.3 4.3-4.3L55.5 58l14.2 14.2 4.3 4.3 4.3-4.3L92.5 58l14.2 14.2 4.3 4.3 4.3-4.3L129.5 58l14.2 14.2 4.3 4.3 4.3-4.3L166.5 58l14.2 14.2 4.3 4.3 4.3-4.3L203.5 58l14.2 14.2 4.3 4.3 4.3-4.3L240.5 58l14.2 14.2 4.3 4.3 4.3-4.3L277.5 58l14.2 14.2 4.3 4.3 4.3-4.3L314.5 58l14.2 14.2 4.3 4.3 4.3-4.3L351.5 58l14.2 14.2 4.3 4.3 4.3-4.3L388.5 58l14.2 14.2 4.3 4.3 4.3-4.3L425.5 58l14.2 14.2 4.3 4.3 4.3-4.3L462.5 58l14.2 14.2 4.3 4.3 4.3-4.3L499.5 58l14.2 14.2 4.3 4.3 4.3-4.3L536.5 58l14.2 14.2 4.3 4.3 4.3-4.3L573.5 58l14.2 14.2 4.3 4.3 4.3-4.3L610.5 58l14.2 14.2 4.3 4.3 4.3-4.3L647.5 58l14.2 14.2 4.3 4.3 4.3-4.3L684.5 58l14.2 14.2 4.3 4.3 4.3-4.3L721.5 58l14.2 14.2 4.3 4.3 4.3-4.3L758.5 58l14.2 14.2 4.3 4.3 4.3-4.3L795.5 58l14.2 14.2 4.3 4.3 4.3-4.3L832.5 58l14.2 14.2 4.3 4.3 4.3-4.3L869.5 58l14.2 14.2 4.3 4.3 4.3-4.3L906.5 58l14.2 14.2 4.3 4.3 4.3-4.3L943.5 58l14.2 14.2 4.3 4.3 4.3-4.3L980.5 58l14.2 14.2 4.3 4.3 4.3-4.3 14.2-14.2 14.2 14.2 4.3 4.3 4.3-4.3 14.2-14.2 14.2 14.2 4.3 4.3 4.3-4.3 14.2-14.2 14.2 14.2 4.3 4.3 4.3-4.3 14.2-14.2 14.2 14.2 4.3 4.3 4.3-4.3 14.2-14.2 14.2 14.2 4.3 4.3 4.3-4.3 14.2-14.2 14.2 14.2 4.3 4.3 4.3-4.3 14.2-14.2 14.2 14.2 4.3 4.3 4.3-4.3 14.2-14.2 14.2 14.2 4.3 4.3 4.3-4.3 14.2-14.2 14.2 14.2 4.3 4.3 4.3-4.3 14.2-14.2 14.2 14.2 4.3 4.3 4.3-4.3 14.2-14.2 14.2 14.2 4.3 4.3 4.3-4.3 14.2-14.2 14.2 14.2 4.3 4.3 4.3-4.3 14.2-14.2 14.2 14.2 4.3 4.3 4.3-4.3 14.2-14.2 14.2 14.2 4.3 4.3 4.3-4.3 14.2-14.2 14.2 14.2 4.3 4.3 4.3-4.3 14.2-14.2 14.2 14.2 4.3 4.3 4.3-4.3 14.2-14.2 14.2 14.2 4.3 4.3 4.3-4.3 14.2-14.2 14.2 14.2 4.3 4.3 4.3-4.3 14.2-14.2 14.2 14.2 4.3 4.3 4.3-4.3 14.2-14.2 14.2 14.2 4.3 4.3 4.3-4.3 14.2-14.2 14.2 14.2 4.3 4.3 4.3-4.3 14.2-14.2 14.2 14.2 4.3 4.3 4.3-4.3 14.2-14.2 14.2 14.2 4.3 4.3 4.3-4.3 14.2-14.2 14.2 14.2 4.3 4.3 4.3-4.3 14.2-14.2 14.2 14.2.3.3V64l-10.2-10.2-8.3-4.2-4.3 4.3-14.2 14.2-14.2-14.2-4.3-4.3-4.3 4.3-14.2 14.2-14.2-14.2-4.3-4.3-4.3 4.3-14.2 14.2-14.2-14.2-4.3-4.3-4.3 4.3-14.2 14.2-14.2-14.2-4.3-4.3-4.3 4.3-14.2 14.2-14.2-14.2-4.3-4.3-4.3 4.3-14.2 14.2-14.2-14.2-4.3-4.3-4.3 4.3-14.2 14.2-14.2-14.2-4.3-4.3-4.3 4.3-14.2 14.2-14.2-14.2-4.3-4.3-4.3 4.3-14.2 14.2-14.2-14.2-4.3-4.3-4.3 4.3-14.2 14.2-14.2-14.2-4.3-4.3-4.3 4.3-14.2 14.2-14.2-14.2-4.3-4.3-4.3 4.3-14.2 14.2-14.2-14.2-4.3-4.3-4.3 4.3-14.2 14.2-14.2-14.2-4.3-4.3-4.3 4.3-14.2 14.2-14.2-14.2-4.3-4.3-4.3 4.3-14.2 14.2-14.2-14.2-4.3-4.3-4.3 4.3-14.2 14.2-14.2-14.2-4.3-4.3-4.3 4.3-14.2 14.2-14.2-14.2-4.3-4.3-4.3 4.3-14.2 14.2-14.2-14.2-4.3-4.3-4.3 4.3-14.2 14.2-14.2-14.2-4.3-4.3-4.3 4.3-14.2 14.2-14.2-14.2-4.3-4.3-4.3 4.3-14.2 14.2-14.2-14.2-4.3-4.3-4.3 4.3-14.2 14.2-14.2-14.2-4.3-4.3-4.3 4.3-14.2 14.2-14.2-14.2-4.3-4.3-4.3 4.3-14.2 14.2-14.2-14.2-4.3-4.3-4.3 4.3L995 68.1l-14.2-14.2-4.3-4.3-4.3 4.3L960 68l-14.2-14.2-4.3-4.3-4.3 4.3L923 68l-14.2-14.2-4.3-4.3-4.3 4.3L886 68l-14-14.2-4.3-4.3-4.3 4.3L849.2 68 835 53.8l-4.3-4.3-4.3 4.3L812.2 68 798 53.8l-4.3-4.3-4.3 4.3L775.2 68 761 53.8l-4.3-4.3-4.3 4.3L738.2 68 724 53.8l-4.3-4.3-4.3 4.3L701.2 68 687 53.8l-4.3-4.3-4.3 4.3L664.2 68 650 53.8l-4.3-4.3-4.3 4.3L627.2 68 613 53.8l-4.3-4.3-4.3 4.3L590.2 68 576 53.8l-4.3-4.3-4.3 4.3L553.2 68 539 53.8l-4.3-4.3-4.3 4.3L516.2 68 502 53.8l-4.3-4.3-4.3 4.3L480 68l-14.2-14.2-4.3-4.3-4.3 4.3L443 68l-14.2-14.2-4.3-4.3-4.3 4.3L406 68l-14-14.2-4.3-4.3-4.3 4.3L369.2 68 355 53.8l-4.3-4.3-4.3 4.3L332.2 68 318 53.8l-4.3-4.3-4.3 4.3L295.2 68 281 53.8l-4.3-4.3-4.3 4.3L258.2 68 244 53.8l-4.3-4.3-4.3 4.3L221.2 68 207 53.8l-4.3-4.3-4.3 4.3L184.2 68 170 53.8l-4.3-4.3-4.3 4.3L147.2 68 133 53.8l-4.3-4.3-4.3 4.3L110.2 68 96 53.8l-4.3-4.3-4.3 4.3L73.2 68 59 53.8l-4.3-4.3-4.3 4.3L36.2 68 22 53.8l-4.3-4.3-4.3 4.3L0 68v8.5L18.5 58zm0-42 4.3 4.3 4.3-4.3L55.5 16l14.2 14.2 4.3 4.3 4.3-4.3L92.5 16l14.2 14.2 4.3 4.3 4.3-4.3L129.5 16l14.2 14.2 4.3 4.3 4.3-4.3L166.5 16l14.2 14.2 4.3 4.3 4.3-4.3L203.5 16l14.2 14.2 4.3 4.3 4.3-4.3L240.5 16l14.2 14.2 4.3 4.3 4.3-4.3L277.5 16l14.2 14.2 4.3 4.3 4.3-4.3L314.5 16l14.2 14.2 4.3 4.3 4.3-4.3L351.5 16l14.2 14.2 4.3 4.3 4.3-4.3L388.5 16l14.2 14.2 4.3 4.3 4.3-4.3L425.5 16l14.2 14.2 4.3 4.3 4.3-4.3L462.5 16l14.2 14.2 4.3 4.3 4.3-4.3L499.5 16l14.2 14.2 4.3 4.3 4.3-4.3L536.5 16l14.2 14.2 4.3 4.3 4.3-4.3L573.5 16l14.2 14.2 4.3 4.3 4.3-4.3L610.5 16l14.2 14.2 4.3 4.3 4.3-4.3L647.5 16l14.2 14.2 4.3 4.3 4.3-4.3L684.5 16l14.2 14.2 4.3 4.3 4.3-4.3L721.5 16l14.2 14.2 4.3 4.3 4.3-4.3L758.5 16l14.2 14.2 4.3 4.3 4.3-4.3L795.5 16l14.2 14.2 4.3 4.3 4.3-4.3L832.5 16l14.2 14.2 4.3 4.3 4.3-4.3L869.5 16l14.2 14.2 4.3 4.3 4.3-4.3L906.5 16l14.2 14.2 4.3 4.3 4.3-4.3L943.5 16l14.2 14.2 4.3 4.3 4.3-4.3L980.5 16l14.2 14.2 4.3 4.3 4.3-4.3 14.2-14.2 14.2 14.2 4.3 4.3 4.3-4.3 14.2-14.2 14.2 14.2 4.3 4.3 4.3-4.3 14.2-14.2 14.2 14.2 4.3 4.3 4.3-4.3 14.2-14.2 14.2 14.2 4.3 4.3 4.3-4.3 14.2-14.2 14.2 14.2 4.3 4.3 4.3-4.3 14.2-14.2 14.2 14.2 4.3 4.3 4.3-4.3 14.2-14.2 14.2 14.2 4.3 4.3 4.3-4.3 14.2-14.2 14.2 14.2 4.3 4.3 4.3-4.3 14.2-14.2 14.2 14.2 4.3 4.3 4.3-4.3 14.2-14.2 14.2 14.2 4.3 4.3 4.3-4.3 14.2-14.2 14.2 14.2 4.3 4.3 4.3-4.3 14.2-14.2 14.2 14.2 4.3 4.3 4.3-4.3 14.2-14.2 14.2 14.2 4.3 4.3 4.3-4.3 14.2-14.2 14.2 14.2 4.3 4.3 4.3-4.3 14.2-14.2 14.2 14.2 4.3 4.3 4.3-4.3 14.2-14.2 14.2 14.2 4.3 4.3 4.3-4.3 14.2-14.2 14.2 14.2 4.3 4.3 4.3-4.3 14.2-14.2 14.2 14.2 4.3 4.3 4.3-4.3 14.2-14.2 14.2 14.2 4.3 4.3 4.3-4.3 14.2-14.2 14.2 14.2 4.3 4.3 4.3-4.3 14.2-14.2 14.2 14.2 4.3 4.3 4.3-4.3 14.2-14.2 14.2 14.2 4.3 4.3 4.3-4.3 14.2-14.2 14.2 14.2 4.3 4.3 4.3-4.3 14.2-14.2 14.2 14.2 4.3 4.3 4.3-4.3 14.2-14.2 14.2 14.2.3.3V22l-10.2-10.2-8.3-4.3-4.3 4.3L1883 26l-14.2-14.2-4.3-4.3-4.3 4.3L1846 26l-14.2-14.2-4.3-4.3-4.3 4.3L1809 26l-14.2-14.2-4.3-4.3-4.3 4.3L1772 26l-14.2-14.2-4.3-4.3-4.3 4.3L1735 26l-14.2-14.2-4.3-4.3-4.3 4.3L1698 26l-14.2-14.2-4.3-4.3-4.3 4.3L1661 26l-14.2-14.2-4.3-4.3-4.3 4.3L1624 26l-14.2-14.2-4.3-4.3-4.3 4.3L1587 26l-14.2-14.2-4.3-4.3-4.3 4.3L1550 26l-14.2-14.2-4.3-4.3-4.3 4.3L1513 26l-14.2-14.2-4.3-4.3-4.3 4.3L1476 26l-14.2-14.2-4.3-4.3-4.3 4.3L1439 26l-14.2-14.2-4.3-4.3-4.3 4.3L1402 26l-14.2-14.2-4.3-4.3-4.3 4.3L1365 26l-14.2-14.2-4.3-4.3-4.3 4.3L1328 26l-14.2-14.2-4.3-4.3-4.3 4.3L1291 26l-14.2-14.2-4.3-4.3-4.3 4.3L1254 26l-14.2-14.2-4.3-4.3-4.3 4.3L1217 26l-14.2-14.2-4.3-4.3-4.3 4.3L1180 26l-14.2-14.2-4.3-4.3-4.3 4.3L1143 26l-14.2-14.2-4.3-4.3-4.3 4.3L1106 26l-14.2-14.2-4.3-4.3-4.3 4.3L1069 26l-14.2-14.2-4.3-4.3-4.3 4.3L1032 26l-14.2-14.2-4.3-4.3-4.3 4.3L995 26l-14.2-14.2-4.3-4.3-4.3 4.3L960 26l-14.2-14.2-4.3-4.3-4.3 4.3L923 26l-14.2-14.2-4.3-4.3-4.3 4.3L886 26l-14-14.2-4.3-4.3-4.3 4.3L849.2 26 835 11.8l-4.3-4.3-4.3 4.3L812.2 26 798 11.8l-4.3-4.3-4.3 4.3L775.2 26 761 11.8l-4.3-4.3-4.3 4.3L738.2 26 724 11.8l-4-4.3-4.3 4.3L701.5 26l-14.2-14.2-4.3-4.3-4.3 4.3L664.5 26l-14.2-14.2-4.3-4.3-4.3 4.3L627.5 26l-14.2-14.2-4.3-4.3-4.3 4.3L590.5 26l-14.2-14.2-4.3-4.3-4.3 4.3L553.5 26l-14.2-14.2-4.3-4.3-4.3 4.3L516.5 26l-14.2-14.2-4.3-4.3-4.3 4.3L480 26l-14.2-14.2-4.3-4.3-4.3 4.3L443 26l-14.2-14.2-4.3-4.3-4.3 4.3L406 26l-14-14.2-4.3-4.3-4.3 4.3L369.2 26 355 11.8l-4.3-4.3-4.3 4.3L332.2 26 318 11.8l-4.3-4.3-4.3 4.3L295.2 26 281 11.8l-4.3-4.3-4.3 4.3L258.2 26 244 11.8l-4-4.3-4.3 4.3L221.5 26l-14.2-14.2-4.3-4.3-4.3 4.3L184.5 26l-14.2-14.2-4.3-4.3-4.3 4.3L147.5 26l-14.2-14.2-4.3-4.3-4.3 4.3L110.5 26 96.3 11.8 92 7.5l-4.3 4.3L73.5 26 59.3 11.8 55 7.5l-4.3 4.3L36.5 26 22.3 11.8 18 7.5l-4.3 4.3L0 26v8.5L18.5 16zm0 294.5L37 329l4.3-4.3 14.1-14.2 14.2 14.2 4.3 4.3 4.3-4.3 14.1-14.2 14.2 14.2 4.3 4.3 4.3-4.3 14.2-14.2 14.2 14.2 4.3 4.3 4.3-4.3 14.2-14.2 14.2 14.2 4.3 4.3 4.3-4.3 14.2-14.2 14.2 14.2 4.3 4.3 4.3-4.3 13.9-14.2 14.2 14.2 4.3 4.3 4.3-4.3 14.2-14.2 14.2 14.2 4.3 4.3 4.3-4.3 14.2-14.2 14.2 14.2 4.3 4.3 4.3-4.3 14.2-14.2 14.2 14.2 4.3 4.3 4.3-4.3 14.2-14.2 14.2 14.2 4.3 4.3 4.3-4.3 14.2-14.2 14.2 14.2 4.3 4.3 4.3-4.3 14.2-14.2 14.2 14.2 4.3 4.3 4.3-4.3 14.2-14.2 14.2 14.2 4.3 4.3 4.3-4.3 14.2-14.2 14.2 14.2 4.3 4.3 4.3-4.3 14.2-14.2 14.2 14.2 4.3 4.3 4.3-4.3 14.2-14.2 14.2 14.2 4.3 4.3 4.3-4.3 14.2-14.2 14.2 14.2 4.3 4.3 4.3-4.3 14.2-14.2 14.2 14.2 4.3 4.3 4.3-4.3 13.2-14.2 14.2 14.2 4.3 4.3 4.3-4.3 14.2-14.2 14.2 14.2 4.3 4.3 4.3-4.3 14.2-14.2 14.2 14.2 4.3 4.3 4.3-4.3 14.2-14.2 14.2 14.2 4.3 4.3 4.3-4.3 14.2-14.2 14.2 14.2 4.3 4.3 4.3-4.3 14.2-14.2 14.2 14.2 4.3 4.3 4.3-4.3 14.2-14.2 14.2 14.2 4.3 4.3 4.3-4.3 14.2-14.2 14.2 14.2 4.3 4.3 4.3-4.3 14.2-14.2 14.2 14.2 4.3 4.3 4.3-4.3 14.2-14.2 14.2 14.2 4.3 4.3 4.3-4.3 14.2-14.2 14.2 14.2 4.3 4.3 4.3-4.3 14.2-14.2 14.2 14.2 4.3 4.3 4.3-4.3 14.2-14.2 14.2 14.2 4.3 4.3 4.3-4.3 13.2-14.2 14.2 14.2 4.3 4.3 4.3-4.3 14.2-14.2 14.2 14.2 4.3 4.3 4.3-4.3 14.2-14.2 14.2 14.2 4.3 4.3 4.3-4.3 14.2-14.2 14.2 14.2 4.3 4.3 4.3-4.3 14.2-14.2 14.2 14.2 4.3 4.3 4.3-4.3 14.2-14.2 14.2 14.2 4.3 4.3 4.3-4.3 14.2-14.2 14.2 14.2 4.3 4.3 4.3-4.3 14.2-14.2 14.2 14.2 4.3 4.3 4.3-4.3 14.2-14.2 14.2 14.2 4.3 4.3 4.3-4.3 14.2-14.2 14.2 14.2 4.3 4.3 4.3-4.3 14.2-14.2 14.2 14.2 4.3 4.3 4.3-4.3 14.2-14.2 14.2 14.2 4.3 4.3 4.3-4.3 14.2-14.2 14.2 14.2 4.3 4.3 4.3-4.3 13.2-14.2 14.2 14.2 4.3 4.3 4.3-4.3 14.2-14.2 14.2 14.2 4.3 4.3 4.3-4.3 14.2-14.2 14.2 14.2 4.3 4.3 4.3-4.3 14.2-14.2 14.2 14.2 4.3 4.3 4.3-4.3 14.2-14.2 14.2 14.2 4.3 4.3 4.3-4.3 14.2-14.2 14.2 14.2 4.3 4.3 4.3-4.3 14.2-14.2 14.2 14.2 3.8 3.8V320l-13.7-13.7-4.8-4.3-4.3 4.3-14.2 14.2-14.2-14.2-4.3-4.3-4.3 4.3-14.2 14.2-14.2-14.2-4.3-4.3-4.3 4.3-14.2 14.2-14.2-14.2-4.3-4.3-4.3 4.3-14.2 14.2-14.2-14.2-4.3-4.3-4.3 4.3-14.2 14.2-14.2-14.2-4.3-4.3-4.3 4.3-14.2 14.2-14.2-14.2-4.3-4.3-4.3 4.3-14.2 14.2-14.2-14.2-4.3-4.3-4.3 4.3-14.2 14.2-14.2-14.2-4.3-4.3-4.3 4.3-14.2 14.2-14.2-14.2-4.3-4.3-4.3 4.3-14.2 14.2-14.2-14.2-4.3-4.3-4.3 4.3-14.2 14.2-14.2-14.2-4.3-4.3-4.3 4.3-14.2 14.2-14.2-14.2-4.3-4.3-4.3 4.3-14.2 14.2-14.2-14.2-4.3-4.3-4.3 4.3-14.2 14.2-14.2-14.2-4.3-4.3-4.3 4.3-14.2 14.2-14.2-14.2-4.3-4.3-4.3 4.3-14.2 14.2-14.2-14.2-4.3-4.3-4.3 4.3-14.2 14.2-14.2-14.2-4.3-4.3-4.3 4.3-14.2 14.2-14.2-14.2-4.3-4.3-4.3 4.3-14.2 14.2-14.2-14.2-4.3-4.3-4.3 4.3-14.2 14.2-14.2-14.2-4.3-4.3-4.3 4.3-14.2 14.2-14.2-14.2-4.3-4.3-4.3 4.3-14.2 14.2-14.2-14.2-4.3-4.3-4.3 4.3-14.2 14.2-14.2-14.2-4.3-4.3-4.3 4.3-14.2 14.2-14.2-14.2-4.3-4.3-4.3 4.3-14.2 14.2-14.2-14.2-4.3-4.3-4.3 4.3-12.2 14.1-14.2-14.2-4.3-4.3-4.3 4.3-14.2 14.2-14.2-14.2-4.3-4.3-4.3 4.3-14.2 14.2-14-14.2-4.3-4.3-4.3 4.3-14.2 14.2-14.2-14.2-4.3-4.3-4.3 4.3-14.2 14.2-14.2-14.2-4.3-4.3-4.3 4.3-14.2 14.2-14.2-14.2-4.3-4.3-4.3 4.3-14.2 14.2-14.2-14.2-4.3-4.3-4.3 4.3-14.2 14.2-14.2-14.2-4.3-4.3-4.3 4.3-14.2 14.2-14.2-14.2-4.3-4.3-4.3 4.3-14.2 14.2-14.2-14.2-4.3-4.3-4.3 4.3-14.2 14.2-14.2-14.2-4.3-4.3-4.3 4.3-14.2 14.2-14.2-14.2-4.3-4.3-4.3 4.3-14.2 14.2-14.2-14.2-4.3-4.3-4.3 4.3-13.4 14.2-14.2-14.2-4.3-4.3-4.3 4.3-14.2 14.2-14.2-14.2-4.3-4.3-4.3 4.3-14.2 14.2-14-14.2-4.3-4.3-4.3 4.3-14.2 14.2-14.2-14.2-4.3-4.3-4.3 4.3-14.2 14.2-14.2-14.2-4.3-4.3-4.3 4.3-14.2 14.2-14.2-14.2-4.3-4.3-4.3 4.3-14.2 14.2-14.2-14.2-4.3-4.3-4.3 4.3-14.2 14.2-14.2-14.2-4.3-4.3-4.3 4.3-14.2 14.2-14.2-14.2-4.3-4.3-4.3 4.3-14.2 14.2-14.2-14.2-4.3-4.3-4.3 4.3-14.2 14.2L96 306.2l-4.3-4.3-4.3 4.3-14.2 14.2L59 306.2l-4.3-4.3-4.3 4.3-14.2 14.2L22 306.2l-4.3-4.3-4.3 4.3L0 320.4v8.5l18.5-18.4zm0-210.4 4.3 4.3 4.3-4.3 14.2-14.2 14.2 14.2 4.3 4.3 4.3-4.3 14.2-14.2 14.2 14.2 4.3 4.3 4.3-4.3 14.2-14.2 14.2 14.2 4.3 4.3 4.3-4.3 14.2-14.2 14.2 14.2 4.3 4.3 4.3-4.3 14.2-14.2 14.2 14.2 4.3 4.3 4.3-4.3 14.2-14.2 14.2 14.2 4.3 4.3 4.3-4.3 14.2-14.2 14.2 14.2 4.3 4.3 4.3-4.3 14.2-14.2 14.2 14.2 4.3 4.3 4.3-4.3 14.2-14.2 14.2 14.2 4.3 4.3 4.3-4.3 14.2-14.2 14.2 14.2 4.3 4.3 4.3-4.3 14.2-14.2 14.2 14.2 4.3 4.3 4.3-4.3 14.2-14.2 14.2 14.2 4.3 4.3 4.3-4.3 14.2-14.2 14.2 14.2 4.3 4.3 4.3-4.3 14.2-14.2 14.2 14.2 4.3 4.3 4.3-4.3 14.2-14.2 14.2 14.2 4.3 4.3 4.3-4.3 14.2-14.2 14.2 14.2 4.3 4.3 4.3-4.3 14.2-14.2 14.2 14.2 4.3 4.3 4.3-4.3 14.2-14.2 14.2 14.2 4.3 4.3 4.3-4.3 14.2-14.2 14.2 14.2 4.3 4.3 4.3-4.3 14.2-14.2 14.2 14.2 4.3 4.3 4.3-4.3 14.2-14.2 14.2 14.2 4.3 4.3 4.3-4.3 14.2-14.2 14.2 14.2 4.3 4.3 4.3-4.3 14.2-14.2 14.2 14.2 4.3 4.3 4.3-4.3 14.2-14.2 14.2 14.2 4.3 4.3 4.3-4.3 14.2-14.2 14.2 14.2 4.3 4.3 4.3-4.3 14.2-14.2 14.2 14.2 4.3 4.3 4.3-4.3 14.2-14.2 14.2 14.2 4.3 4.3 4.3-4.3 14.2-14.2 14.2 14.2 4.3 4.3 4.3-4.3 14.2-14.2 14.2 14.2 4.3 4.3 4.3-4.3 14.2-14.2 14.2 14.2 4.3 4.3 4.3-4.3 14.2-14.2 14.2 14.2 4.3 4.3 4.3-4.3 14.2-14.2 14.2 14.2 4.3 4.3 4.3-4.3 14.2-14.2 14.2 14.2 4.3 4.3 4.3-4.3 14.2-14.2 14.2 14.2 4.3 4.3 4.3-4.3 14.2-14.2 14.2 14.2 4.3 4.3 4.3-4.3 14.2-14.2 14.2 14.2 4.3 4.3 4.3-4.3 14.2-14.2 14.2 14.2 4.3 4.3 4.3-4.3 14.2-14.2 14.2 14.2 4.3 4.3 4.3-4.3 14.2-14.2 14.2 14.2 4.3 4.3 4.3-4.3 14.2-14.2 14.2 14.2 4.3 4.3 4.3-4.3 14.2-14.2 14.2 14.2 4.3 4.3 4.3-4.3 14.2-14.2 14.2 14.2 4.3 4.3 4.3-4.3 14.2-14.2 14.2 14.2 4.3 4.3 4.3-4.3 14.2-14.2 14.2 14.2 4.3 4.3 4.3-4.3 14.2-14.2 14.2 14.2 4.3 4.3 4.3-4.3 14.2-14.2 14.2 14.2 4.3 4.3 4.3-4.3 14.2-14.2 14.2 14.2 4.3 4.3 4.3-4.3 14.2-14.2 14.2 14.2 4.3 4.3 4.3-4.3 14.2-14.2 14.2 14.2 4.3 4.3 4.3-4.3 14.2-14.2 14.2 14.2 4.3 4.3 4.3-4.3 14.2-14.2 14.2 14.2.3.3V107l-14.2-11.1-4.3-4.3-4.3 4.3-14.2 14.2-14.2-14.2-4.3-4.3-4.3 4.3-14.2 14.2-14.2-14.2-4.3-4.3-4.3 4.3-14.2 14.2-14.2-14.2-4.3-4.3-4.3 4.3-14.2 14.2-14.2-14.2-4.3-4.3-4.3 4.3-14.2 14.2-14.2-14.2-4.3-4.3-4.3 4.3-14.2 14.2-14.2-14.2-4.3-4.3-4.3 4.3-14.2 14.2-14.2-14.2-4.3-4.3-4.3 4.3-14.2 14.2-14.2-14.2-4.3-4.3-4.3 4.3-14.2 14.2-14.2-14.2-4.3-4.3-4.3 4.3-14.2 14.2-14.2-14.2-4.3-4.3-4.3 4.3-14.2 14.2-14.2-14.2-4.3-4.3-4.3 4.3-14.2 14.2-14.2-14.2-4.3-4.3-4.3 4.3-14.2 14.2-14.2-14.2-4.3-4.3-4.3 4.3-14.2 14.2-14.2-14.2-4.3-4.3-4.3 4.3-14.2 14.2-14.2-14.2-4.3-4.3-4.3 4.3-14.2 14.2-14.2-14.2-4.3-4.3-4.3 4.3-14.2 14.2-14.2-14.2-4.3-4.3-4.3 4.3-14.2 14.2-14.2-14.2-4.3-4.3-4.3 4.3-14.2 14.2-14.2-14.2-4.3-4.3-4.3 4.3-14.2 14.2-14.2-14.2-4.3-4.3-4.3 4.3-14.2 14.2-14.2-14.2-4.3-4.3-4.3 4.3-14.2 14.2-14.2-14.2-4.3-4.3-4.3 4.3-14.2 14.2-14.2-14.2-4.3-4.3-4.3 4.3-14.2 14.2-14.2-14.2-4.3-4.3-4.3 4.3-14.2 14.2-14.2-14.2-4.3-4.3-4.3 4.3-12.2 14.2-14.2-14.2-4.3-4.3-4.3 4.3-14.2 14.2-14.2-14.2-4.3-4.3-4.3 4.3-14.2 14.2-14-14.2-4.3-4.3-4.3 4.3-14.2 14.2L835 95.9l-4.3-4.3-4.3 4.3-14.2 14.2L798 95.9l-4.3-4.3-4.3 4.3-14.2 14.2L761 95.9l-4.3-4.3-4.3 4.3-14.2 14.2L724 95.9l-4.3-4.3-4.3 4.3-14.2 14.2L687 95.9l-4.3-4.3-4.3 4.3-14.2 14.2L650 95.9l-4.3-4.3-4.3 4.3-14.2 14.2L613 95.9l-4.3-4.3-4.3 4.3-14.2 14.2L576 95.9l-4.3-4.3-4.3 4.3-14.2 14.2L539 95.9l-4.3-4.3-4.3 4.3-14.2 14.2L502 95.9l-4.3-4.3-4.3 4.3-13.4 14.2-14.2-14.2-4.3-4.3-4.3 4.3-14.2 14.2-14.2-14.2-4.3-4.3-4.3 4.3-14.2 14.2-14-14.2-4.3-4.3-4.3 4.3-14.2 14.2L355 95.9l-4.3-4.3-4.3 4.3-14.2 14.2L318 95.9l-4.3-4.3-4.3 4.3-14.2 14.2L281 95.9l-4.3-4.3-4.3 4.3-14.2 14.2L244 95.9l-4.3-4.3-4.3 4.3-14.2 14.2L207 95.9l-4.3-4.3-4.3 4.3-14.2 14.2L170 95.9l-4.3-4.3-4.3 4.3-14.2 14.2L133 95.9l-4.3-4.3-4.3 4.3-14.2 14.2L96 95.9l-4.3-4.3-4.3 4.3-14.2 14.2L59 95.9l-4.3-4.3-4.3 4.3-14.2 14.2L22 95.9l-4.3-4.3-4.3 4.3L0 110.1v8.5l18.5-18.5zm0 42.1 4.3 4.3 4.3-4.3 14.2-14.2 14.2 14.2 4.3 4.3 4.3-4.3 14.2-14.2 14.2 14.2 4.3 4.3 4.3-4.3 14.2-14.2 14.2 14.2 4.3 4.3 4.3-4.3 14.2-14.2 14.2 14.2 4.3 4.3 4.3-4.3 14.2-14.2 14.2 14.2 4.3 4.3 4.3-4.3 14.2-14.2 14.2 14.2 4.3 4.3 4.3-4.3 14.2-14.2 14.2 14.2 4.3 4.3 4.3-4.3 14.2-14.2 14.2 14.2 4.3 4.3 4.3-4.3 14.2-14.2 14.2 14.2 4.3 4.3 4.3-4.3 14.2-14.2 14.2 14.2 4.3 4.3 4.3-4.3 14.2-14.2 14.2 14.2 4.3 4.3 4.3-4.3 14.2-14.2 14.2 14.2 4.3 4.3 4.3-4.3 14.2-14.2 14.2 14.2 4.3 4.3 4.3-4.3 14.2-14.2 14.2 14.2 4.3 4.3 4.3-4.3 14.2-14.2 14.2 14.2 4.3 4.3 4.3-4.3 14.2-14.2 14.2 14.2 4.3 4.3 4.3-4.3 14.2-14.2 14.2 14.2 4.3 4.3 4.3-4.3 14.2-14.2 14.2 14.2 4.3 4.3 4.3-4.3 14.2-14.2 14.2 14.2 4.3 4.3 4.3-4.3 14.2-14.2 14.2 14.2 4.3 4.3 4.3-4.3 14.2-14.2 14.2 14.2 4.3 4.3 4.3-4.3 14.2-14.2 14.2 14.2 4.3 4.3 4.3-4.3 14.2-14.2 14.2 14.2 4.3 4.3 4.3-4.3 14.2-14.2 14.2 14.2 4.3 4.3 4.3-4.3 14.2-14.2 14.2 14.2 4.3 4.3 4.3-4.3 14.2-14.2 14.2 14.2 4.3 4.3 4.3-4.3 14.2-14.2 14.2 14.2 4.3 4.3 4.3-4.3 14.2-14.2 14.2 14.2 4.3 4.3 4.3-4.3 14.2-14.2 14.2 14.2 4.3 4.3 4.3-4.3 14.2-14.2 14.2 14.2 4.3 4.3 4.3-4.3 14.2-14.2 14.2 14.2 4.3 4.3 4.3-4.3 14.2-14.2 14.2 14.2 4.3 4.3 4.3-4.3 14.2-14.2 14.2 14.2 4.3 4.3 4.3-4.3 14.2-14.2 14.2 14.2 4.3 4.3 4.3-4.3 14.2-14.2 14.2 14.2 4.3 4.3 4.3-4.3 14.2-14.2 14.2 14.2 4.3 4.3 4.3-4.3 14.2-14.2 14.2 14.2 4.3 4.3 4.3-4.3 14.2-14.2 14.2 14.2 4.3 4.3 4.3-4.3 14.2-14.2 14.2 14.2 4.3 4.3 4.3-4.3 14.2-14.2 14.2 14.2 4.3 4.3 4.3-4.3 14.2-14.2 14.2 14.2 4.3 4.3 4.3-4.3 14.2-14.2 14.2 14.2 4.3 4.3 4.3-4.3 14.2-14.2 14.2 14.2 4.3 4.3 4.3-4.3 14.2-14.2 14.2 14.2 4.3 4.3 4.3-4.3 14.2-14.2 14.2 14.2 4.3 4.3 4.3-4.3 14.2-14.2 14.2 14.2 4.3 4.3 4.3-4.3 14.2-14.2 14.2 14.2 4.3 4.3 4.3-4.3 14.2-14.2 14.2 14.2 4.3 4.3 4.3-4.3 14.2-14.2 14.2 14.2 4.3 4.3 4.3-4.3 14.2-14.2 14.2 14.2 4.3 4.3 4.3-4.3 14.2-14.2 14.2 14.2.3.3v-8.5l-10.2-10.2-8.3-4.3-4.3 4.3-14.2 14.2-14.2-14.2-4.3-4.3-4.3 4.3-14.2 14.2-14.2-14.2-4.3-4.3-4.3 4.3-14.2 14.2-14.2-14.2-4.3-4.3-4.3 4.3-14.2 14.2-14.2-14.2-4.3-4.3-4.3 4.3-14.2 14.2-14.2-14.2-4.3-4.3-4.3 4.3-14.2 14.2-14.2-14.2-4.3-4.3-4.3 4.3-14.2 14.2-14.2-14.2-4.3-4.3-4.3 4.3-14.2 14.2-14.2-14.2-4.3-4.3-4.3 4.3-14.2 14.2-14.2-14.2-4.3-4.3-4.3 4.3-14.2 14.2-14.2-14.2-4.3-4.3-4.3 4.3-14.2 14.2-14.2-14.2-4.3-4.3-4.3 4.3-14.2 14.2-14.2-14.2-4.3-4.3-4.3 4.3-14.2 14.2-14.2-14.2-4.3-4.3-4.3 4.3-14.2 14.2-14.2-14.2-4.3-4.3-4.3 4.3-14.2 14.2-14.2-14.2-4.3-4.3-4.3 4.3-14.2 14.2-14.2-14.2-4.3-4.3-4.3 4.3-14.2 14.2-14.2-14.2-4.3-4.3-4.3 4.3-14.2 14.2-14.2-14.2-4.3-4.3-4.3 4.3-14.2 14.2-14.2-14.2-4.3-4.3-4.3 4.3-14.2 14.2-14.2-14.2-4.3-4.3-4.3 4.3-14.2 14.2-14.2-14.2-4.3-4.3-4.3 4.3-14.2 14.2-14.2-14.2-4.3-4.3-4.3 4.3-14.2 14.2-14.2-14.2-4.3-4.3-4.3 4.3-14.2 14.2-14.2-14.2-4.3-4.3-4.3 4.3-14.2 14.2-14.2-14.2-4.3-4.3-4.3 4.3-12.2 14.2-14.2-14.2-4.3-4.3-4.3 4.3-14.2 14.2-14.2-14.2-4.3-4.3-4.3 4.3-14.2 14.2-14-14.2-4.3-4.3-4.3 4.3-14.2 14.2L835 138l-4.3-4.3-4.3 4.3-14.2 14.2L798 138l-4.3-4.3-4.3 4.3-14.2 14.2L761 138l-4.3-4.3-4.3 4.3-14.2 14.2L724 138l-4.3-4.3-4.3 4.3-14.2 14.2L687 138l-4.3-4.3-4.3 4.3-14.2 14.2L650 138l-4.3-4.3-4.3 4.3-14.2 14.2L613 138l-4.3-4.3-4.3 4.3-14.2 14.2L576 138l-4.3-4.3-4.3 4.3-14.2 14.2L539 138l-4.3-4.3-4.3 4.3-14.2 14.2L502 138l-4.3-4.3-4.3 4.3-13.4 14.2-14.2-14.2-4.3-4.3-4.3 4.3-14.2 14.2-14.2-14.2-4.3-4.3-4.3 4.3-14.2 14.2-14-14.2-4.3-4.3-4.3 4.3-14.2 14.2L355 138l-4.3-4.3-4.3 4.3-14.2 14.2L318 138l-4.3-4.3-4.3 4.3-14.2 14.2L281 138l-4.3-4.3-4.3 4.3-14.2 14.2L244 138l-4.3-4.3-4.3 4.3-14.2 14.2L207 138l-4.3-4.3-4.3 4.3-14.2 14.2L170 138l-4.3-4.3-4.3 4.3-14.2 14.2L133 138l-4.3-4.3-4.3 4.3-14.2 14.2L96 138l-4.3-4.3-4.3 4.3-14.2 14.2L59 138l-4.3-4.3-4.3 4.3-14.2 14.2L22 138l-4.3-4.3-4.3 4.3L0 152.2v8.5l18.5-18.5zm0 462.7 4.3 4.3 4.3-4.3 14.2-14.2 14.2 14.2 4.3 4.3 4.3-4.3 14.2-14.2 14.2 14.2 4.3 4.3 4.3-4.3 14.2-14.2 14.2 14.2 4.3 4.3 4.3-4.3 14.2-14.2 14.2 14.2 4.3 4.3 4.3-4.3 14.2-14.2 14.2 14.2 4.3 4.3 4.3-4.3 14.2-14.2 14.2 14.2 4.3 4.3 4.3-4.3 14.2-14.2 14.2 14.2 4.3 4.3 4.3-4.3 14.2-14.2 14.2 14.2 4.3 4.3 4.3-4.3 14.2-14.2 14.2 14.2 4.3 4.3 4.3-4.3 14.2-14.2 14.2 14.2 4.3 4.3 4.3-4.3 14.2-14.2 14.2 14.2 4.3 4.3 4.3-4.3 14.2-14.2 14.2 14.2 4.3 4.3 4.3-4.3 14.2-14.2 14.2 14.2 4.3 4.3 4.3-4.3 14.2-14.2 14.2 14.2 4.3 4.3 4.3-4.3 14.2-14.2 14.2 14.2 4.3 4.3 4.3-4.3 14.2-14.2 14.2 14.2 4.3 4.3 4.3-4.3 14.2-14.2 14.2 14.2 4.3 4.3 4.3-4.3 14.2-14.2 14.2 14.2 4.3 4.3 4.3-4.3 14.2-14.2 14.2 14.2 4.3 4.3 4.3-4.3 14.2-14.2 14.2 14.2 4.3 4.3 4.3-4.3 14.2-14.2 14.2 14.2 4.3 4.3 4.3-4.3 14.2-14.2 14.2 14.2 4.3 4.3 4.3-4.3 14.2-14.2 14.2 14.2 4.3 4.3 4.3-4.3 14.2-14.2 14.2 14.2 4.3 4.3 4.3-4.3 14.2-14.2 14.2 14.2 4.3 4.3 4.3-4.3 14.2-14.2 14.2 14.2 4.3 4.3 4.3-4.3 14.2-14.2 14.2 14.2 4.3 4.3 4.3-4.3 14.2-14.2 14.2 14.2 4.3 4.3 4.3-4.3 14.2-14.2 14.2 14.2 4.3 4.3 4.3-4.3 14.2-14.2 14.2 14.2 4.3 4.3 4.3-4.3 14.2-14.2 14.2 14.2 4.3 4.3 4.3-4.3 14.2-14.2 14.2 14.2 4.3 4.3 4.3-4.3 14.2-14.2 14.2 14.2 4.3 4.3 4.3-4.3 14.2-14.2 14.2 14.2 4.3 4.3 4.3-4.3 14.2-14.2 14.2 14.2 4.3 4.3 4.3-4.3 14.2-14.2 14.2 14.2 4.3 4.3 4.3-4.3 14.2-14.2 14.2 14.2 4.3 4.3 4.3-4.3 14.2-14.2 14.2 14.2 4.3 4.3 4.3-4.3 14.2-14.2 14.2 14.2 4.3 4.3 4.3-4.3 14.2-14.2 14.2 14.2 4.3 4.3 4.3-4.3 14.2-14.2 14.2 14.2 4.3 4.3 4.3-4.3 14.2-14.2 14.2 14.2 4.3 4.3 4.3-4.3 14.2-14.2 14.2 14.2 4.3 4.3 4.3-4.3 14.2-14.2 14.2 14.2 4.3 4.3 4.3-4.3 14.2-14.2 14.2 14.2 4.3 4.3 4.3-4.3 14.2-14.2 14.2 14.2 4.3 4.3 4.3-4.3 14.2-14.2 14.2 14.2 4.3 4.3 4.3-4.3 14.2-14.2 14.2 14.2 4.3 4.3 4.3-4.3 14.2-14.2 14.2 14.2 4.3 4.3 4.3-4.3 14.2-14.2 14.2 14.2 4.3 4.3 4.3-4.3 14.2-14.2 14.2 14.2.3.3v-8.5l-10.2-10.2-8.3-4.3-4.3 4.3-14.2 14.2-14.2-14.2-4.3-4.3-4.3 4.3-14.2 14.2-14.2-14.2-4.3-4.3-4.3 4.3-14.2 14.2-14.2-14.2-4.3-4.3-4.3 4.3-14.2 14.2-14.2-14.2-4.3-4.3-4.3 4.3-14.2 14.2-14.2-14.2-4.3-4.3-4.3 4.3-14.2 14.2-14.2-14.2-4.3-4.3-4.3 4.3-14.2 14.2-14.2-14.2-4.3-4.3-4.3 4.3-14.2 14.2-14.2-14.2-4.3-4.3-4.3 4.3-14.2 14.2-14.2-14.2-4.3-4.3-4.3 4.3-14.2 14.2-14.2-14.2-4.3-4.3-4.3 4.3-14.2 14.2-14.2-14.2-4.3-4.3-4.3 4.3-14.2 14.2-14.2-14.2-4.3-4.3-4.3 4.3-14.2 14.2-14.2-14.2-4.3-4.3-4.3 4.3-14.2 14.2-14.2-14.2-4.3-4.3-4.3 4.3-14.2 14.2-14.2-14.2-4.3-4.3-4.3 4.3-14.2 14.2-14.2-14.2-4.3-4.3-4.3 4.3-14.2 14.2-14.2-14.2-4.3-4.3-4.3 4.3-14.2 14.2-14.2-14.2-4.3-4.3-4.3 4.3-14.2 14.2-14.2-14.2-4.3-4.3-4.3 4.3-14.2 14.2-14.2-14.2-4.3-4.3-4.3 4.3-14.2 14.2-14.2-14.2-4.3-4.3-4.3 4.3-14.2 14.2-14.2-14.2-4.3-4.3-4.3 4.3-14.2 14.2-14.2-14.2-4.3-4.3-4.3 4.3-14.2 14.2-14.2-14.2-4.3-4.3-4.3 4.3-14.2 14.2-14.2-14.2-4.3-4.3-4.3 4.3-14.2 14.2-14.2-14.2-4.3-4.3-4.3 4.3-14.2 14.2-14.2-14.2-4.3-4.3-4.3 4.3-14.2 14.2-14.2-14.2-4.3-4.3-4.3 4.3-14.2 14.2-14.2-14.2-4.3-4.3-4.3 4.3-14.2 14.2-14.2-14.2-4.3-4.3-4.3 4.3-14.2 14.2-14.2-14.2-4.3-4.3-4.3 4.3-14.2 14.2-14.2-14.2-4.3-4.3-4.3 4.3-14.2 14.2-14.2-14.2-4.3-4.3-4.3 4.3-14.2 14.2-14.2-14.2-4.3-4.3-4.3 4.3-14.2 14.2-14.2-14.2-4.3-4.3-4.3 4.3-14.2 14.2-14.2-14.2-4.3-4.3-4.3 4.3-14.2 14.2-14.2-14.2-4.3-4.3-4.3 4.3-14.2 14.2-14.2-14.2-4.3-4.3-4.3 4.3-14.2 14.2-14.2-14.2-4.3-4.3-4.3 4.3-14.2 14.2-14.2-14.2-4.3-4.3-4.3 4.3-14.2 14.2-14.2-14.2-4.3-4.3-4.3 4.3-14.2 14.2-14.2-14.2-4.3-4.3-4.3 4.3-14.2 14.2-14.2-14.2-4.3-4.3-4.3 4.3-14.2 14.2-14.2-14.2-4.3-4.3-4.3 4.3-14.2 14.2-14.2-14.2-4.3-4.3-4.3 4.3-14.2 14.2-14.2-14.2-4.3-4.3-4.3 4.3-14.2 14.2-14.2-14.2-4.3-4.3-4.3 4.3-14.2 14.2-14.2-14.2-4.3-4.3-4.3 4.3-14.2 14.2-14.2-14.2-4.3-4.3-4.3 4.3L70 614.9l-14.2-14.2-4.3-4.3-4.3 4.3L33 614.9l-14.2-14.2-4.3-4.3-4.3 4.3L0 614.9v8.5l18.5-18.5zm0-84.1 4.3 4.3 4.3-4.3 14.2-14.2L69.7 535l4.3 4.3 4.3-4.3 14.2-14.2 14.2 14.2 4.3 4.3 4.3-4.3 14.2-14.2 14.2 14.2 4.3 4.3 4.3-4.3 14.2-14.2 14.2 14.2 4.3 4.3 4.3-4.3 14.2-14.2 14.2 14.2 4.3 4.3 4.3-4.3 14.2-14.2 14.2 14.2 4.3 4.3 4.3-4.3 14.2-14.2 14.2 14.2 4.3 4.3 4.3-4.3 14.2-14.2 14.2 14.2 4.3 4.3 4.3-4.3 14.2-14.2 14.2 14.2 4.3 4.3 4.3-4.3 14.2-14.2 14.2 14.2 4.3 4.3 4.3-4.3 14.2-14.2 14.2 14.2 4.3 4.3 4.3-4.3 14.2-14.2 14.2 14.2 4.3 4.3 4.3-4.3 14.2-14.2 14.2 14.2 4.3 4.3 4.3-4.3 14.2-14.2 14.2 14.2 4.3 4.3 4.3-4.3 14.2-14.2 14.2 14.2 4.3 4.3 4.3-4.3 14.2-14.2 14.2 14.2 4.3 4.3 4.3-4.3 14.2-14.2 14.2 14.2 4.3 4.3 4.3-4.3 14.2-14.2 14.2 14.2 4.3 4.3 4.3-4.3 14.2-14.2 14.2 14.2 4.3 4.3 4.3-4.3 14.2-14.2 14.2 14.2 4.3 4.3 4.3-4.3 14.2-14.2 14.2 14.2 4.3 4.3 4.3-4.3 14.2-14.2 14.2 14.2 4.3 4.3 4.3-4.3 14.2-14.2 14.2 14.2 4.3 4.3 4.3-4.3 14.2-14.2 14.2 14.2 4.3 4.3 4.3-4.3 14.2-14.2 14.2 14.2 4.3 4.3 4.3-4.3 14.2-14.2 14.2 14.2 4.3 4.3 4.3-4.3 14.2-14.2 14.2 14.2 4.3 4.3 4.3-4.3 14.2-14.2 14.2 14.2 4.3 4.3 4.3-4.3 14.2-14.2 14.2 14.2 4.3 4.3 4.3-4.3 14.2-14.2 14.2 14.2 4.3 4.3 4.3-4.3 14.2-14.2 14.2 14.2 4.3 4.3 4.3-4.3 14.2-14.2 14.2 14.2 4.3 4.3 4.3-4.3 14.2-14.2 14.2 14.2 4.3 4.3 4.3-4.3 14.2-14.2 14.2 14.2 4.3 4.3 4.3-4.3 14.2-14.2 14.2 14.2 4.3 4.3 4.3-4.3 14.2-14.2 14.2 14.2 4.3 4.3 4.3-4.3 14.2-14.2 14.2 14.2 4.3 4.3 4.3-4.3 14.2-14.2 14.2 14.2 4.3 4.3 4.3-4.3 14.2-14.2 14.2 14.2 4.3 4.3 4.3-4.3 14.2-14.2 14.2 14.2 4.3 4.3 4.3-4.3 14.2-14.2 14.2 14.2 4.3 4.3 4.3-4.3 14.2-14.2 14.2 14.2 4.3 4.3 4.3-4.3 14.2-14.2 14.2 14.2 4.3 4.3 4.3-4.3 14.2-14.2 14.2 14.2 4.3 4.3 4.3-4.3 14.2-14.2 14.2 14.2 4.3 4.3 4.3-4.3 14.2-14.2 14.2 14.2 4.3 4.3 4.3-4.3 14.2-14.2 14.2 14.2 4.3 4.3 4.3-4.3 14.2-14.2 14.2 14.2 4.3 4.3 4.3-4.3 14.2-14.2 14.2 14.2 4.3 4.3 4.3-4.3 14.2-14.2 14.2 14.2 4.3 4.3 4.3-4.3 14.2-14.2 14.2 14.2.3.3v-8.5l-10.2-10.2-8.3-4.3-4.3 4.3-14.2 14.2-14.2-14.2-4.3-4.3-4.3 4.3-14.2 14.2-14.2-14.2-4.3-4.3-4.3 4.3-14.2 14.2-14.2-14.2-4.3-4.3-4.3 4.3-14.2 14.2-14.2-14.2-4.3-4.3-4.3 4.3-14.2 14.2-14.2-14.2-4.3-4.3-4.3 4.3-14.2 14.2-14.2-14.2-4.3-4.3-4.3 4.3-14.2 14.2-14.2-14.2-4.3-4.3-4.3 4.3-14.2 14.2-14.2-14.2-4.3-4.3-4.3 4.3-14.2 14.2-14.2-14.2-4.3-4.3-4.3 4.3-14.2 14.2-14.2-14.2-4.3-4.3-4.3 4.3-14.2 14.2-14.2-14.2-4.3-4.3-4.3 4.3-14.2 14.2-14.2-14.2-4.3-4.3-4.3 4.3-14.2 14.2-14.2-14.2-4.3-4.3-4.3 4.3-14.2 14.2-14.2-14.2-4.3-4.3-4.3 4.3-14.2 14.2-14.2-14.2-4.3-4.3-4.3 4.3-14.2 14.2-14.2-14.2-4.3-4.3-4.3 4.3-14.2 14.2-14.2-14.2-4.3-4.3-4.3 4.3-14.2 14.2-14.2-14.2-4.3-4.3-4.3 4.3-14.2 14.2-14.2-14.2-4.3-4.3-4.3 4.3-14.2 14.2-14.2-14.2-4.3-4.3-4.3 4.3-14.2 14.2-14.2-14.2-4.3-4.3-4.3 4.3-14.2 14.2-14.2-14.2-4.3-4.3-4.3 4.3-14.2 14.2-14.2-14.2-4.3-4.3-4.3 4.3-14.2 14.2-14.2-14.2-4.3-4.3-4.3 4.3-14.2 14.2-14.2-14.2-4.3-4.3-4.3 4.3-14.2 14.2-14.2-14.2-4.3-4.3-4.3 4.3-14.2 14.2-14.2-14.2-4.3-4.3-4.3 4.3-14.2 14.2-14.2-14.2-4.3-4.3-4.3 4.3-14.2 14.2-14.2-14.2-4.3-4.3-4.3 4.3-14.2 14.2-14.2-14.2-4.3-4.3-4.3 4.3-14.2 14.2-14.2-14.2-4.3-4.3-4.3 4.3-14.2 14.2-14.2-14.2-4.3-4.3-4.3 4.3-14.2 14.2-14.2-14.2-4.3-4.3-4.3 4.3-14.2 14.2-14.2-14.2-4.3-4.3-4.3 4.3-14.2 14.2-14.2-14.2-4.3-4.3-4.3 4.3-14.2 14.2-14.2-14.2-4.3-4.3-4.3 4.3-14.2 14.2-14.2-14.2-4.3-4.3-4.3 4.3-14.2 14.2-14.2-14.2-4.3-4.3-4.3 4.3-14.2 14.2-14.2-14.2-4.3-4.3-4.3 4.3-14.2 14.2-14.2-14.2-4.3-4.3-4.3 4.3-14.2 14.2-14.2-14.2-4.3-4.3-4.3 4.3-14.2 14.2-14.2-14.2-4.3-4.3-4.3 4.3-14.2 14.2-14.2-14.2-4.3-4.3-4.3 4.3-14.2 14.2-14.2-14.2-4.3-4.3-4.3 4.3-14.2 14.2-14.2-14.2-4.3-4.3-4.3 4.3-14.2 14.2-14.2-14.2-4.3-4.3-4.3 4.3-14.2 14.2-14.2-14.2-4.3-4.3-4.3 4.3-14.2 14.2-14.2-14.2-4.3-4.3-4.3 4.3-14.2 14.2-14.2-14.2-4.3-4.3-4.3 4.3L70 530.8l-14.2-14.2-4.3-4.3-4.3 4.3L33 530.8l-14.2-14.2-4.3-4.3-4.3 4.3L0 530.8v8.5l18.5-18.5zm0 42 4.3 4.3 4.3-4.3 14.2-14.2L69.7 577l4.3 4.3 4.3-4.3 14.2-14.2 14.2 14.2 4.3 4.3 4.3-4.3 14.2-14.2 14.2 14.2 4.3 4.3 4.3-4.3 14.2-14.2 14.2 14.2 4.3 4.3 4.3-4.3 14.2-14.2 14.2 14.2 4.3 4.3 4.3-4.3 14.2-14.2 14.2 14.2 4.3 4.3 4.3-4.3 14.2-14.2 14.2 14.2 4.3 4.3 4.3-4.3 14.2-14.2 14.2 14.2 4.3 4.3 4.3-4.3 14.2-14.2 14.2 14.2 4.3 4.3 4.3-4.3 14.2-14.2 14.2 14.2 4.3 4.3 4.3-4.3 14.2-14.2 14.2 14.2 4.3 4.3 4.3-4.3 14.2-14.2 14.2 14.2 4.3 4.3 4.3-4.3 14.2-14.2 14.2 14.2 4.3 4.3 4.3-4.3 14.2-14.2 14.2 14.2 4.3 4.3 4.3-4.3 14.2-14.2 14.2 14.2 4.3 4.3 4.3-4.3 14.2-14.2 14.2 14.2 4.3 4.3 4.3-4.3 14.2-14.2 14.2 14.2 4.3 4.3 4.3-4.3 14.2-14.2 14.2 14.2 4.3 4.3 4.3-4.3 14.2-14.2 14.2 14.2 4.3 4.3 4.3-4.3 14.2-14.2 14.2 14.2 4.3 4.3 4.3-4.3 14.2-14.2 14.2 14.2 4.3 4.3 4.3-4.3 14.2-14.2 14.2 14.2 4.3 4.3 4.3-4.3 14.2-14.2 14.2 14.2 4.3 4.3 4.3-4.3 14.2-14.2 14.2 14.2 4.3 4.3 4.3-4.3 14.2-14.2 14.2 14.2 4.3 4.3 4.3-4.3 14.2-14.2 14.2 14.2 4.3 4.3 4.3-4.3 14.2-14.2 14.2 14.2 4.3 4.3 4.3-4.3 14.2-14.2 14.2 14.2 4.3 4.3 4.3-4.3 14.2-14.2 14.2 14.2 4.3 4.3 4.3-4.3 14.2-14.2 14.2 14.2 4.3 4.3 4.3-4.3 14.2-14.2 14.2 14.2 4.3 4.3 4.3-4.3 14.2-14.2 14.2 14.2 4.3 4.3 4.3-4.3 14.2-14.2 14.2 14.2 4.3 4.3 4.3-4.3 14.2-14.2 14.2 14.2 4.3 4.3 4.3-4.3 14.2-14.2 14.2 14.2 4.3 4.3 4.3-4.3 14.2-14.2 14.2 14.2 4.3 4.3 4.3-4.3 14.2-14.2 14.2 14.2 4.3 4.3 4.3-4.3 14.2-14.2 14.2 14.2 4.3 4.3 4.3-4.3 14.2-14.2 14.2 14.2 4.3 4.3 4.3-4.3 14.2-14.2 14.2 14.2 4.3 4.3 4.3-4.3 14.2-14.2 14.2 14.2 4.3 4.3 4.3-4.3 14.2-14.2 14.2 14.2 4.3 4.3 4.3-4.3 14.2-14.2 14.2 14.2 4.3 4.3 4.3-4.3 14.2-14.2 14.2 14.2 4.3 4.3 4.3-4.3 14.2-14.2 14.2 14.2 4.3 4.3 4.3-4.3 14.2-14.2 14.2 14.2 4.3 4.3 4.3-4.3 14.2-14.2 14.2 14.2 4.3 4.3 4.3-4.3 14.2-14.2 14.2 14.2 4.3 4.3 4.3-4.3 14.2-14.2 14.2 14.2 4.3 4.3 4.3-4.3 14.2-14.2 14.2 14.2 4.3 4.3 4.3-4.3 14.2-14.2 14.2 14.2.3.3v-8.5l-10.2-10.2-8.3-4.2-4.3 4.3-14.2 14.2-14.2-14.2-4.3-4.3-4.3 4.3-14.2 14.2-14.2-14.2-4.3-4.3-4.3 4.3-14.2 14.2-14.2-14.2-4.3-4.3-4.3 4.3-14.2 14.2-14.2-14.2-4.3-4.3-4.3 4.3-14.2 14.2-14.2-14.2-4.3-4.3-4.3 4.3-14.2 14.2-14.2-14.2-4.3-4.3-4.3 4.3-14.2 14.2-14.2-14.2-4.3-4.3-4.3 4.3-14.2 14.2-14.2-14.2-4.3-4.3-4.3 4.3-14.2 14.2-14.2-14.2-4.3-4.3-4.3 4.3-14.2 14.2-14.2-14.2-4.3-4.3-4.3 4.3-14.2 14.2-14.2-14.2-4.3-4.3-4.3 4.3-14.2 14.2-14.2-14.2-4.3-4.3-4.3 4.3-14.2 14.2-14.2-14.2-4.3-4.3-4.3 4.3-14.2 14.2-14.2-14.2-4.3-4.3-4.3 4.3-14.2 14.2-14.2-14.2-4.3-4.3-4.3 4.3-14.2 14.2-14.2-14.2-4.3-4.3-4.3 4.3-14.2 14.2-14.2-14.2-4.3-4.3-4.3 4.3-14.2 14.2-14.2-14.2-4.3-4.3-4.3 4.3-14.2 14.2-14.2-14.2-4.3-4.3-4.3 4.3-14.2 14.2-14.2-14.2-4.3-4.3-4.3 4.3-14.2 14.2-14.2-14.2-4.3-4.3-4.3 4.3-14.2 14.2-14.2-14.2-4.3-4.3-4.3 4.3-14.2 14.2-14.2-14.2-4.3-4.3-4.3 4.3-14.2 14.2-14.2-14.2-4.3-4.3-4.3 4.3-14.2 14.2-14.2-14.2-4.3-4.3-4.3 4.3-14.2 14.2-14.2-14.2-4.3-4.3-4.3 4.3-14.2 14.2-14.2-14.2-4.3-4.3-4.3 4.3-14.2 14.2-14.2-14.2-4.3-4.3-4.3 4.3-14.2 14.2-14.2-14.2-4.3-4.3-4.3 4.3-14.2 14.2-14.2-14.2-4.3-4.3-4.3 4.3-14.2 14.2-14.2-14.2-4.3-4.3-4.3 4.3-14.2 14.2-14.2-14.2-4.3-4.3-4.3 4.3-14.2 14.2-14.2-14.2-4.3-4.3-4.3 4.3-14.2 14.2-14.2-14.2-4.3-4.3-4.3 4.3-14.2 14.2-14.2-14.2-4.3-4.3-4.3 4.3-14.2 14.2-14.2-14.2-4.3-4.3-4.3 4.3-14.2 14.2-14.2-14.2-4.3-4.3-4.3 4.3-14.2 14.2-14.2-14.2-4.3-4.3-4.3 4.3-14.2 14.2-14.2-14.2-4.3-4.3-4.3 4.3-14.2 14.2-14.2-14.2-4.3-4.3-4.3 4.3-14.2 14.2-14.2-14.2-4.3-4.3-4.3 4.3-14.2 14.2-14.2-14.2-4.3-4.3-4.3 4.3-14.2 14.2-14.2-14.2-4.3-4.3-4.3 4.3-14.2 14.2-14.2-14.2-4.3-4.3-4.3 4.3-14.2 14.2-14.2-14.2-4.3-4.3-4.3 4.3-14.2 14.2-14.2-14.2-4.3-4.3-4.3 4.3-14.2 14.2-14.2-14.2-4.3-4.3-4.3 4.3-14.2 14.2-14.2-14.2-4.3-4.3-4.3 4.3-14.2 14.2-14.2-14.2-4.3-4.3-4.3 4.3L70 572.9l-14.2-14.2-4.3-4.3-4.3 4.3L33 572.9l-14.2-14.2-4.3-4.3-4.3 4.3L0 572.8v8.5l18.5-18.5zm-.3-210.2 4.3 4.3 4.3-4.3 14.2-14.2 14.2 14.2 4.3 4.3 4.3-4.3 14.2-14.2 14.2 14.2 4.3 4.3 4.3-4.3 14.2-14.2 14.2 14.2 4.3 4.3 4.3-4.3 14-14.2 14.2 14.2 4.3 4.3 4.3-4.3 14.2-14.2 14.2 14.2 4.3 4.3 4.3-4.3 14.2-14.2 13.4 14.2 4.3 4.3 4.3-4.3 14.2-14.2 14.2 14.2 4.3 4.3 4.3-4.3 14.2-14.2 14.2 14.2 4.3 4.3 4.3-4.3 14.2-14.2 14.2 14.2 4.3 4.3 4.3-4.3 14.2-14.2 14.2 14.2 4.3 4.3 4.3-4.3 14.2-14.2 14.2 14.2 4.3 4.3 4.3-4.3 14.2-14.2 14.2 14.2 4.3 4.3 4.3-4.3 14.2-14.2 14.2 14.2 4.3 4.3 4.3-4.3 14.2-14.2 14.2 14.2 4.3 4.3 4.3-4.3 14.2-14.2 14.2 14.2 4.3 4.3 4.3-4.3 14.2-14.2 14.2 14.2 4.3 4.3 4.3-4.3 14-14.2 14.2 14.2 4.3 4.3 4.3-4.3 14.2-14.2 14.2 14.2 4.3 4.3 4.3-4.3 14.2-14.2 11.7 14.1 4.3 4.3 4.3-4.3 14.2-14.2 14.2 14.2 4.3 4.3 4.3-4.3 14.2-14.2 14.2 14.2 4.3 4.3 4.3-4.3 14.2-14.2 14.2 14.2 4.3 4.3 4.3-4.3 14.2-14.2 14.2 14.2 4.3 4.3 4.3-4.3 14.2-14.2 14.2 14.2 4.3 4.3 4.3-4.3 14.2-14.2 14.2 14.2 4.3 4.3 4.3-4.3 14.2-14.2 14.2 14.2 4.3 4.3 4.3-4.3 14.2-14.2 14.2 14.2 4.3 4.3 4.3-4.3 14.2-14.2 14.2 14.2 4.3 4.3 4.3-4.3 14.2-14.2 14.2 14.2 4.3 4.3 4.3-4.3 14.2-14.2 14.2 14.2 4.3 4.3 4.3-4.3 14.2-14.2 14.2 14.2 4.3 4.3 4.3-4.3 14.2-14.2 14.2 14.2 4.3 4.3 4.3-4.3 14.2-14.2 14.2 14.2 4.3 4.3 4.3-4.3 14.2-14.2 14.2 14.2 4.3 4.3 4.3-4.3 14.2-14.2 14.2 14.2 4.3 4.3 4.3-4.3 14.2-14.2 14.2 14.2 4.3 4.3 4.3-4.3 14.2-14.2 14.2 14.2 4.3 4.3 4.3-4.3 14.2-14.2 14.2 14.2 4.3 4.3 4.3-4.3 14.2-14.2 14.2 14.2 4.3 4.3 4.3-4.3 14.2-14.2 14.2 14.2 4.3 4.3 4.3-4.3 14.2-14.2 14.2 14.2 4.3 4.3 4.3-4.3 14.2-14.2 14.2 14.2 4.3 4.3 4.3-4.3 14.2-14.2 14.2 14.2 4.3 4.3 4.3-4.3 14.2-14.2 14.2 14.2 4.3 4.3 4.3-4.3 14.2-14.2 14.2 14.2 4.3 4.3 4.3-4.3 14.2-14.2 14.2 14.2 4.3 4.3 4.3-4.3 14.2-14.2 14.2 14.2 4.3 4.3 4.3-4.3 14.2-14.2 14.2 14.2 4.3 4.3 4.3-4.3 14.2-14.2 14.2 14.2 4.3 4.3 4.3-4.3 14.2-14.2 14.2 14.2 4.3 4.3 4.3-4.3 14.2-14.2 14.2 14.2 4.3 4.3v-8.5l-14.2-14.2-3.3-4.3-4.3 4.3-14.2 14.2-14.2-14.2-4.3-4.3-4.3 4.3-14.2 14.2-14.2-14.2-4.3-4.3-4.3 4.3-14.2 14.2-14.2-14.2-4.3-4.3-4.3 4.3-14.2 14.2-14.2-14.2-4.3-4.3-4.3 4.3-14.2 14.2-14.2-14.2-4.3-4.3-4.3 4.3-14.2 14.2-14.2-14.2-4.3-4.3-4.3 4.3-14.2 14.2-14.2-14.2-4.3-4.3-4.3 4.3-14.2 14.2-14.2-14.2-4.3-4.3-4.3 4.3-14.2 14.2-14.2-14.2-4.3-4.3-4.3 4.3-14.2 14.2-14.2-14.2-4.3-4.3-4.3 4.3-14.2 14.2-14.2-14.2-4.3-4.3-4.3 4.3-14.2 14.2-14.2-14.2-4.3-4.3-4.3 4.3-14.2 14.2-13.2-14.2-4.3-4.3-4.3 4.3-14.2 14.2-14.2-14.2-4.3-4.3-4.3 4.3-14.2 14.2-14.2-14.2-4.3-4.3-4.3 4.3-14.2 14.2-14.2-14.2-4.3-4.3-4.3 4.3-14.2 14.2-14.2-14.2-4.3-4.3-4.3 4.3-14.2 14.2-14.2-14.2-4.3-4.3-4.3 4.3-14.2 14.2-14.2-14.2-4.3-4.3-4.3 4.3-14.2 14.2-14.2-14.2-4.3-4.3-4.3 4.3-14.2 14.2-14.2-14.2-4.3-4.3-4.3 4.3-14.2 14.2-14.2-14.2-4.3-4.3-4.3 4.3-14.2 14.2-14.2-14.2-4.3-4.3-4.3 4.3-14.2 14.2-14.2-14.2-4.3-4.3-4.3 4.3-14.2 14.2-14.2-14.2-4.3-4.3-4.3 4.3-14.2 14.2-13.2-14.2-4.3-4.3-4.3 4.3-14.2 14.2-14.2-14.2-4.3-4.3-4.3 4.3-14.2 14.2-14.2-14.2-4.3-4.3-4.3 4.3-14.2 14.2-14.2-14.2-4.3-4.3-4.3 4.3-14.2 14.2-14.2-14.2-4.3-4.3-4.3 4.3-14.2 14.2-14.2-14.2-4.3-4.3-4.3 4.3-14.2 14.2-14.2-14.2-4.3-4.3-4.3 4.3-14.2 14.2-14.2-14.2-4.3-4.3-4.3 4.3-14.2 14.2-14.2-14.2-4.3-4.3-4.3 4.3-14.2 14.2-14.2-14.2-4.3-4.3-4.3 4.3-14.2 14.2-14.2-14.2-4.3-4.3-4.3 4.3-14.2 14.2-14.2-14.2-4.3-4.3-4.3 4.3-14.2 14.2-14.2-14.2-4.3-4.3-4.3 4.3-14.2 14.2-13.4-14.2-4.3-4.3-4.3 4.3-14.2 14.2-14.2-14.2-4.3-4.3-4.3 4.3-14.2 14.2-14.2-14.2-4.3-4.3-4.3 4.3-14.2 14.2-14.2-14.2-4.3-4.3-4.3 4.3-14.2 14.2-14.2-14.2-4.3-4.3-4.3 4.3-14.2 14.2-14.2-14.2-4.3-4.3-4.3 4.3-14.2 14.2-14.2-14.2-4.3-4.3-4.3 4.3-14.2 14.2-14.2-14.2-4.3-4.3-4.3 4.3-14.2 14.2-14.2-14.2-4.3-4.3-4.3 4.3-14.2 14.2-14.2-14.2-4.3-4.3-4.3 4.3-14.2 14.2-14.2-14.2-4.3-4.3-4.3 4.3-14.2 14.2-14.1-14.2-4.3-4.3-4.3 4.3-14.2 14.2-14.1-14.2-4.3-4.3-4.3 4.3L0 362.5v8.5l18.2-18.4zm.3 294.4 4.3 4.3 4.3-4.3L55.5 647l14.2 14.2 4.3 4.3 4.3-4.3L92.5 647l14.2 14.2 4.3 4.3 4.3-4.3 14.2-14.2 14.2 14.2 4.3 4.3 4.3-4.3 14.2-14.2 14.2 14.2 4.3 4.3 4.3-4.3 14.2-14.2 14.2 14.2 4.3 4.3 4.3-4.3 14.2-14.2 14.2 14.2 4.3 4.3 4.3-4.3 14.2-14.2 14.2 14.2 4.3 4.3 4.3-4.3 14.2-14.2 14.2 14.2 4.3 4.3 4.3-4.3 14.2-14.2 14.2 14.2 4.3 4.3 4.3-4.3 14.2-14.2 14.2 14.2 4.3 4.3 4.3-4.3 14.2-14.2 14.2 14.2 4.3 4.3 4.3-4.3 14.2-14.2 14.2 14.2 4.3 4.3 4.3-4.3 14.2-14.2 14.2 14.2 4.3 4.3 4.3-4.3 14.2-14.2 14.2 14.2 4.3 4.3 4.3-4.3 14.2-14.2 14.2 14.2 4.3 4.3 4.3-4.3 14.2-14.2 14.2 14.2 4.3 4.3 4.3-4.3 14.2-14.2 14.2 14.2 4.3 4.3 4.3-4.3 14.2-14.2 14.2 14.2 4.3 4.3 4.3-4.3 14.2-14.2 14.2 14.2 4.3 4.3 4.3-4.3 14.2-14.2 14.2 14.2 4.3 4.3 4.3-4.3 14.2-14.2 14.2 14.2 4.3 4.3 4.3-4.3 14.2-14.2 14.2 14.2 4.3 4.3 4.3-4.3 14.2-14.2 14.2 14.2 4.3 4.3 4.3-4.3 14.2-14.2 14.2 14.2 4.3 4.3 4.3-4.3 14.2-14.2 14.2 14.2 4.3 4.3 4.3-4.3 14.2-14.2 14.2 14.2 4.3 4.3 4.3-4.3 14.2-14.2 14.2 14.2 4.3 4.3 4.3-4.3 14.2-14.2 14.2 14.2 4.3 4.3 4.3-4.3 14.2-14.2 14.2 14.2 4.3 4.3 4.3-4.3 14.2-14.2 14.2 14.2 4.3 4.3 4.3-4.3 14.2-14.2 14.2 14.2 4.3 4.3 4.3-4.3 14.2-14.2 14.2 14.2 4.3 4.3 4.3-4.3 14.2-14.2 14.2 14.2 4.3 4.3 4.3-4.3 14.2-14.2 14.2 14.2 4.3 4.3 4.3-4.3 14.2-14.2 14.2 14.2 4.3 4.3 4.3-4.3 14.2-14.2 14.2 14.2 4.3 4.3 4.3-4.3 14.2-14.2 14.2 14.2 4.3 4.3 4.3-4.3 14.2-14.2 14.2 14.2 4.3 4.3 4.3-4.3 14.2-14.2 14.2 14.2 4.3 4.3 4.3-4.3 14.2-14.2 14.2 14.2 4.3 4.3 4.3-4.3 14.2-14.2 14.2 14.2 4.3 4.3 4.3-4.3 14.2-14.2 14.2 14.2 4.3 4.3 4.3-4.3 14.2-14.2 14.2 14.2 4.3 4.3 4.3-4.3 14.2-14.2 14.2 14.2 4.3 4.3 4.3-4.3 14.2-14.2 14.2 14.2 4.3 4.3 4.3-4.3 14.2-14.2 14.2 14.2 4.3 4.3 4.3-4.3 14.2-14.2 14.2 14.2 4.3 4.3 4.3-4.3 14.2-14.2 14.2 14.2 4.3 4.3 4.3-4.3 14.2-14.2 14.2 14.2 4.3 4.3 4.3-4.3 14.2-14.2 14.2 14.2 4.3 4.3 4.3-4.3 14.2-14.2 14.2 14.2.3.3v-7.6l-14.2-11.1-4.3-4.3-4.3 4.3L1883 657l-14.2-14.2-4.3-4.3-4.3 4.3L1846 657l-14.2-14.2-4.3-4.3-4.3 4.3L1809 657l-14.2-14.2-4.3-4.3-4.3 4.3L1772 657l-14.2-14.2-4.3-4.3-4.3 4.3L1735 657l-14.2-14.2-4.3-4.3-4.3 4.3L1698 657l-14.2-14.2-4.3-4.3-4.3 4.3L1661 657l-14.2-14.2-4.3-4.3-4.3 4.3L1624 657l-14.2-14.2-4.3-4.3-4.3 4.3L1587 657l-14.2-14.2-4.3-4.3-4.3 4.3L1550 657l-14.2-14.2-4.3-4.3-4.3 4.3L1513 657l-14.2-14.2-4.3-4.3-4.3 4.3L1476 657l-14.2-14.2-4.3-4.3-4.3 4.3L1439 657l-14.2-14.2-4.3-4.3-4.3 4.3L1402 657l-14.2-14.2-4.3-4.3-4.3 4.3L1365 657l-14.2-14.2-4.3-4.3-4.3 4.3L1328 657l-14.2-14.2-4.3-4.3-4.3 4.3L1291 657l-14.2-14.2-4.3-4.3-4.3 4.3L1254 657l-14.2-14.2-4.3-4.3-4.3 4.3L1217 657l-14.2-14.2-4.3-4.3-4.3 4.3L1180 657l-14.2-14.2-4.3-4.3-4.3 4.3L1143 657l-14.2-14.2-4.3-4.3-4.3 4.3L1106 657l-14.2-14.2-4.3-4.3-4.3 4.3L1069 657l-14.2-14.2-4.3-4.3-4.3 4.3L1032 657l-14.2-14.2-4.3-4.3-4.3 4.3L995 657l-14.2-14.2-4.3-4.3-4.3 4.3L958 657l-14.2-14.2-4.3-4.3-4.3 4.3L921 657l-14.2-14.2-4.3-4.3-4.3 4.3L884 657l-14.2-14.2-4.3-4.3-4.3 4.3L847 657l-14.2-14.2-4.3-4.3-4.3 4.3L810 657l-14.2-14.2-4.3-4.3-4.3 4.3L773 657l-14.2-14.2-4.3-4.3-4.3 4.3L736 657l-14.2-14.2-4.3-4.3-4.3 4.3L699 657l-14.2-14.2-4.3-4.3-4.3 4.3L662 657l-14.2-14.2-4.3-4.3-4.3 4.3L625 657l-14.2-14.2-4.3-4.3-4.3 4.3L588 657l-14.2-14.2-4.3-4.3-4.3 4.3L551 657l-14.2-14.2-4.3-4.3-4.3 4.3L514 657l-14.2-14.2-4.3-4.3-4.3 4.3L477 657l-14.2-14.2-4.3-4.3-4.3 4.3L440 657l-14.2-14.2-4.3-4.3-4.3 4.3L403 657l-14.2-14.2-4.3-4.3-4.3 4.3L366 657l-14.2-14.2-4.3-4.3-4.3 4.3L329 657l-14.2-14.2-4.3-4.3-4.3 4.3L292 657l-14.2-14.2-4.3-4.3-4.3 4.3L255 657l-14.2-14.2-4.3-4.3-4.3 4.3L218 657l-14.2-14.2-4.3-4.3-4.3 4.3L181 657l-14.2-14.2-4.3-4.3-4.3 4.3L144 657l-14.2-14.2-4.3-4.3-4.3 4.3L107 657l-14.2-14.2-4.3-4.3-4.3 4.3L70 657l-14.2-14.2-4.3-4.3-4.3 4.3L33 657l-14.2-14.2-4.3-4.3-4.3 4.3L0 657v8.5L18.5 647zm0-252.4 4.3 4.3 4.3-4.3 14.2-14.2 14.2 14.2 4.3 4.3 4.3-4.3 14.2-14.2 14.2 14.2 4.3 4.3 4.3-4.3 14.2-14.2 14.2 14.2 4.3 4.3 4.3-4.3 14.2-14.2 14.2 14.2 4.3 4.3 4.3-4.3 14.2-14.2 14.2 14.2 4.3 4.3 4.3-4.3 14.2-14.2 14.2 14.2 4.3 4.3 4.3-4.3 14.2-14.2 14.2 14.2 4.3 4.3 4.3-4.3 14.2-14.2 14.2 14.2 4.3 4.3 4.3-4.3 14.2-14.2 14.2 14.2 4.3 4.3 4.3-4.3 14.2-14.2 14.2 14.2 4.3 4.3 4.3-4.3 14.2-14.2 14.2 14.2 4.3 4.3 4.3-4.3 14.2-14.2 14.2 14.2 4.3 4.3 4.3-4.3 14.2-14.2 14.2 14.2 4.3 4.3 4.3-4.3 14.2-14.2 14.2 14.2 4.3 4.3 4.3-4.3 14.2-14.2 14.2 14.2 4.3 4.3 4.3-4.3 14.2-14.2 14.2 14.2 4.3 4.3 4.3-4.3 14.2-14.2 14.2 14.2 4.3 4.3 4.3-4.3 14.2-14.2 14.2 14.2 4.3 4.3 4.3-4.3 14.2-14.2 14.2 14.2 4.3 4.3 4.3-4.3 14.2-14.2 14.2 14.2 4.3 4.3 4.3-4.3 14.2-14.2 14.2 14.2 4.3 4.3 4.3-4.3 14.2-14.2 14.2 14.2 4.3 4.3 4.3-4.3 14.2-14.2 14.2 14.2 4.3 4.3 4.3-4.3 14.2-14.2 14.2 14.2 4.3 4.3 4.3-4.3 14.2-14.2 14.2 14.2 4.3 4.3 4.3-4.3 14.2-14.2 14.2 14.2 4.3 4.3 4.3-4.3 14.2-14.2 14.2 14.2 4.3 4.3 4.3-4.3 14.2-14.2 14.2 14.2 4.3 4.3 4.3-4.3 14.2-14.2 14.2 14.2 4.3 4.3 4.3-4.3 14.2-14.2 14.2 14.2 4.3 4.3 4.3-4.3 14.2-14.2 14.2 14.2 4.3 4.3 4.3-4.3 14.2-14.2 14.2 14.2 4.3 4.3 4.3-4.3 14.2-14.2 14.2 14.2 4.3 4.3 4.3-4.3 14.2-14.2 14.2 14.2 4.3 4.3 4.3-4.3 14.2-14.2 14.2 14.2 4.3 4.3 4.3-4.3 14.2-14.2 14.2 14.2 4.3 4.3 4.3-4.3 14.2-14.2 14.2 14.2 4.3 4.3 4.3-4.3 14.2-14.2 14.2 14.2 4.3 4.3 4.3-4.3 14.2-14.2 14.2 14.2 4.3 4.3 4.3-4.3 14.2-14.2 14.2 14.2 4.3 4.3 4.3-4.3 14.2-14.2 14.2 14.2 4.3 4.3 4.3-4.3 14.2-14.2 14.2 14.2 4.3 4.3 4.3-4.3 14.2-14.2 14.2 14.2 4.3 4.3 4.3-4.3 14.2-14.2 14.2 14.2 4.3 4.3 4.3-4.3 14.2-14.2 14.2 14.2 4.3 4.3 4.3-4.3 14.2-14.2 14.2 14.2 4.3 4.3 4.3-4.3 14.2-14.2 14.2 14.2 4.3 4.3 4.3-4.3 14.2-14.2 14.2 14.2 4.3 4.3 4.3-4.3 14.2-14.2 14.2 14.2 4.3 4.3 4.3-4.3 14.2-14.2 14.2 14.2 4.3 4.3 4.3-4.3 14.2-14.2 14.2 14.2.3.3v-8.5l-10.2-10.2-8.3-4.3-4.3 4.3-14.2 14.2-14.2-14.2-4.3-4.3-4.3 4.3-14.2 14.2-14.2-14.2-4.3-4.3-4.3 4.3-14.2 14.2-14.2-14.2-4.3-4.3-4.3 4.3-14.2 14.2-14.2-14.2-4.3-4.3-4.3 4.3-14.2 14.2-14.2-14.2-4.3-4.3-4.3 4.3-14.2 14.2-14.2-14.2-4.3-4.3-4.3 4.3-14.2 14.2-14.2-14.2-4.3-4.3-4.3 4.3-14.2 14.2-14.2-14.2-4.3-4.3-4.3 4.3-14.2 14.2-14.2-14.2-4.3-4.3-4.3 4.3-14.2 14.2-14.2-14.2-4.3-4.3-4.3 4.3-14.2 14.2-14.2-14.2-4.3-4.3-4.3 4.3-14.2 14.2-14.2-14.2-4.3-4.3-4.3 4.3-14.2 14.2-14.2-14.2-4.3-4.3-4.3 4.3-14.2 14.2-14.2-14.2-4.3-4.3-4.3 4.3-14.2 14.2-14.2-14.2-4.3-4.3-4.3 4.3-14.2 14.2-14.2-14.2-4.3-4.3-4.3 4.3-14.2 14.2-14.2-14.2-4.3-4.3-4.3 4.3-14.2 14.2-14.2-14.2-4.3-4.3-4.3 4.3-14.2 14.2-14.2-14.2-4.3-4.3-4.3 4.3-14.2 14.2-14.2-14.2-4.3-4.3-4.3 4.3-14.2 14.2-14.2-14.2-4.3-4.3-4.3 4.3-14.2 14.2-14.2-14.2-4.3-4.3-4.3 4.3-14.2 14.2-14.2-14.2-4.3-4.3-4.3 4.3-14.2 14.2-14.2-14.2-4.3-4.3-4.3 4.3-14.2 14.2-14.2-14.2-4.3-4.3-4.3 4.3-14.2 14.2-14.2-14.2-4.3-4.3-4.3 4.3-14.2 14.2-14.2-14.2-4.3-4.3-4.3 4.3-14.2 14.2-14.2-14.2-4.3-4.3-4.3 4.3-14.2 14.2-14.2-14.2-4.3-4.3-4.3 4.3-14.2 14.2-14.2-14.2-4.3-4.3-4.3 4.3-14.2 14.2-14.2-14.2-4.3-4.3-4.3 4.3-14.2 14.2-14.2-14.2-4.3-4.3-4.3 4.3-14.2 14.2-14.2-14.2-4.3-4.3-4.3 4.3-14.2 14.2-14.2-14.2-4.3-4.3-4.3 4.3-14.2 14.2-14.2-14.2-4.3-4.3-4.3 4.3-14.2 14.2-14.2-14.2-4.3-4.3-4.3 4.3-14.2 14.2-14.2-14.2-4.3-4.3-4.3 4.3-14.2 14.2-14.2-14.2-4.3-4.3-4.3 4.3-14.2 14.2-14.2-14.2-4.3-4.3-4.3 4.3-14.2 14.2-14.2-14.2-4.3-4.3-4.3 4.3-14.2 14.2-14.2-14.2-4.3-4.3-4.3 4.3-14.2 14.2-14.2-14.2-4.3-4.3-4.3 4.3-14.2 14.2-14.2-14.2-4.3-4.3-4.3 4.3-14.2 14.2-14.2-14.2-4.3-4.3-4.3 4.3-14.2 14.2-14.2-14.2-4.3-4.3-4.3 4.3-14.2 14.2-14.2-14.2-4.3-4.3-4.3 4.3-14.2 14.2-14.2-14.2-4.3-4.3-4.3 4.3-14.2 14.2-14.2-14.2-4.3-4.3-4.3 4.3-14.2 14.2-14.2-14.2-4.3-4.3-4.3 4.3L70 404.6l-14.2-14.2-4.3-4.3-4.3 4.3L33 404.6l-14.2-14.2-4.3-4.3-4.3 4.3L0 404.6v8.5l18.5-18.5zm0 84.1 4.3 4.3 4.3-4.3 14.2-14.2 14.2 14.2 4.3 4.3 4.3-4.3 14.2-14.2 14.2 14.2 4.3 4.3 4.3-4.3 14.2-14.2 14.2 14.2 4.3 4.3 4.3-4.3 14.2-14.2 14.2 14.2 4.3 4.3 4.3-4.3 14.2-14.2 14.2 14.2 4.3 4.3 4.3-4.3 14.2-14.2 14.2 14.2 4.3 4.3 4.3-4.3 14.2-14.2 14.2 14.2 4.3 4.3 4.3-4.3 14.2-14.2 14.2 14.2 4.3 4.3 4.3-4.3 14.2-14.2 14.2 14.2 4.3 4.3 4.3-4.3 14.2-14.2 14.2 14.2 4.3 4.3 4.3-4.3 14.2-14.2 14.2 14.2 4.3 4.3 4.3-4.3 14.2-14.2 14.2 14.2 4.3 4.3 4.3-4.3 14.2-14.2 14.2 14.2 4.3 4.3 4.3-4.3 14.2-14.2 14.2 14.2 4.3 4.3 4.3-4.3 14.2-14.2 14.2 14.2 4.3 4.3 4.3-4.3 14.2-14.2 14.2 14.2 4.3 4.3 4.3-4.3 14.2-14.2 14.2 14.2 4.3 4.3 4.3-4.3 14.2-14.2 14.2 14.2 4.3 4.3 4.3-4.3 14.2-14.2 14.2 14.2 4.3 4.3 4.3-4.3 14.2-14.2 14.2 14.2 4.3 4.3 4.3-4.3 14.2-14.2 14.2 14.2 4.3 4.3 4.3-4.3 14.2-14.2 14.2 14.2 4.3 4.3 4.3-4.3 14.2-14.2 14.2 14.2 4.3 4.3 4.3-4.3 14.2-14.2 14.2 14.2 4.3 4.3 4.3-4.3 14.2-14.2 14.2 14.2 4.3 4.3 4.3-4.3 14.2-14.2 14.2 14.2 4.3 4.3 4.3-4.3 14.2-14.2 14.2 14.2 4.3 4.3 4.3-4.3 14.2-14.2 14.2 14.2 4.3 4.3 4.3-4.3 14.2-14.2 14.2 14.2 4.3 4.3 4.3-4.3 14.2-14.2 14.2 14.2 4.3 4.3 4.3-4.3 14.2-14.2 14.2 14.2 4.3 4.3 4.3-4.3 14.2-14.2 14.2 14.2 4.3 4.3 4.3-4.3 14.2-14.2 14.2 14.2 4.3 4.3 4.3-4.3 14.2-14.2 14.2 14.2 4.3 4.3 4.3-4.3 14.2-14.2 14.2 14.2 4.3 4.3 4.3-4.3 14.2-14.2 14.2 14.2 4.3 4.3 4.3-4.3 14.2-14.2 14.2 14.2 4.3 4.3 4.3-4.3 14.2-14.2 14.2 14.2 4.3 4.3 4.3-4.3 14.2-14.2 14.2 14.2 4.3 4.3 4.3-4.3 14.2-14.2 14.2 14.2 4.3 4.3 4.3-4.3 14.2-14.2 14.2 14.2 4.3 4.3 4.3-4.3 14.2-14.2 14.2 14.2 4.3 4.3 4.3-4.3 14.2-14.2 14.2 14.2 4.3 4.3 4.3-4.3 14.2-14.2 14.2 14.2 4.3 4.3 4.3-4.3 14.2-14.2 14.2 14.2 4.3 4.3 4.3-4.3 14.2-14.2 14.2 14.2 4.3 4.3 4.3-4.3 14.2-14.2 14.2 14.2 4.3 4.3 4.3-4.3 14.2-14.2 14.2 14.2 4.3 4.3 4.3-4.3 14.2-14.2 14.2 14.2 4.3 4.3 4.3-4.3 14.2-14.2 14.2 14.2 4.3 4.3 4.3-4.3 14.2-14.2 14.2 14.2.3.3v-8.5l-10.2-10.2-8.3-4.3-4.3 4.3-14.2 14.2-14.2-14.2-4.3-4.3-4.3 4.3-14.2 14.2-14-14.2-4.3-4.3-4.3 4.3-14.2 14.2-14.2-14.2-4.3-4.3-4.3 4.3-14.2 14.2-14.2-14.2-4.3-4.3-4.3 4.3-14.2 14.2-14.2-14.2-4.3-4.3-4.3 4.3-14.2 14.2-14.2-14.2-4.3-4.3-4.3 4.3-14.2 14.2-14.2-14.2-4.3-4.3-4.3 4.3-14.2 14.2-14.2-14.2-4.3-4.3-4.3 4.3-14.2 14.2-14.2-14.2-4.3-4.3-4.3 4.3-14.2 14.2-14.2-14.2-4.3-4.3-4.3 4.3-14.2 14.2-14.2-14.2-4.3-4.3-4.3 4.3-14.2 14.2-14.2-14.2-4.3-4.3-4.3 4.3-14.2 14.2-14.2-14.2-4.3-4.3-4.3 4.3-14.2 14.2-14.2-14.2-4.3-4.3-4.3 4.3-14.2 14.2-13.2-14.2-4.3-4.3-4.3 4.3-14.2 14.2-14.2-14.2-4.3-4.3-4.3 4.3-14.2 14.2-14.2-14.2-4.3-4.3-4.3 4.3-14.2 14.2-14.2-14.2-4.3-4.3-4.3 4.3-14.2 14.2-14.2-14.2-4.3-4.3-4.3 4.3-14.2 14.2-14.2-14.2-4.3-4.3-4.3 4.3-14.2 14.2-14.2-14.2-4.3-4.3-4.3 4.3-14.2 14.2-14.2-14.2-4.3-4.3-4.3 4.3-14.2 14.2-14.2-14.2-4.3-4.3-4.3 4.3-14.2 14.2-14.2-14.2-4.3-4.3-4.3 4.3-14.2 14.2-14.2-14.2-4.3-4.3-4.3 4.3-14.2 14.2-14.2-14.2-4.3-4.3-4.3 4.3-14.2 14.2-14.2-14.2-4.3-4.3-4.3 4.3-14.2 14.2-13.2-14.2-4.3-4.3-4.3 4.3-14.2 14.2-14.2-14.2-4.3-4.3-4.3 4.3-14.2 14.2-14.2-14.2-4.3-4.3-4.3 4.3-14.2 14.2-14.2-14.2-4.3-4.3-4.3 4.3-14.2 14.2-14.2-14.2-4.3-4.3-4.3 4.3-14.2 14.2-14.2-14.2-4.3-4.3-4.3 4.3-14.2 14.2-14.2-14.2-4.3-4.3-4.3 4.3-14.2 14.2-14.2-14.2-4.3-4.3-4.3 4.3-14.2 14.2-14.2-14.2-4.3-4.3-4.3 4.3-14.2 14.2-14.2-14.2-4.3-4.3-4.3 4.3-14.2 14.2-14.2-14.2-4.3-4.3-4.3 4.3-14.2 14.2-14.2-14.2-4.3-4.3-4.3 4.3-14.2 14.2-14.2-14.2-4.3-4.3-4.3 4.3-14.2 14.2-13.2-14.2-4.3-4.3-4.3 4.3-14.2 14.2-14.2-14.2-4.3-4.3-4.3 4.3-14.2 14.2-14.2-14.2-4.3-4.3-4.3 4.3-14.2 14.2-14.2-14.2-4.3-4.3-4.3 4.3-14.2 14.2-14.2-14.2-4.3-4.3-4.3 4.3-14.2 14.2-14.2-14.2-4.3-4.3-4.3 4.3-14.2 14.2-14.2-14.2-4.3-4.3-4.3 4.3-14.2 14.2-14.2-14.2-4.3-4.3-4.3 4.3-14.2 14.2-13.6-14.2-4.3-4.3-4.3 4.3-14.2 14.2-14.2-14.2-4.3-4.3-4.3 4.3-14.2 14.2-14.1-14.2-4.3-4.3-4.3 4.3L0 488.7v8.5l18.5-18.5zm0-42.1 4.3 4.3 4.3-4.3 14.2-14.2 14.2 14.2 4.3 4.3 4.3-4.3 14.2-14.2 14.2 14.2 4.3 4.3 4.3-4.3 14.2-14.2 14.2 14.2 4.3 4.3 4.3-4.3 14.2-14.2 14.2 14.2 4.3 4.3 4.3-4.3 14.2-14.2 14.2 14.2 4.3 4.3 4.3-4.3 14.2-14.2 14.2 14.2 4.3 4.3 4.3-4.3 14.2-14.2 14.2 14.2 4.3 4.3 4.3-4.3 14.2-14.2 14.2 14.2 4.3 4.3 4.3-4.3 14.2-14.2 14.2 14.2 4.3 4.3 4.3-4.3 14.2-14.2 14.2 14.2 4.3 4.3 4.3-4.3 14.2-14.2 14.2 14.2 4.3 4.3 4.3-4.3 14.2-14.2 14.2 14.2 4.3 4.3 4.3-4.3 14.2-14.2 14.2 14.2 4.3 4.3 4.3-4.3 14.2-14.2 14.2 14.2 4.3 4.3 4.3-4.3 14.2-14.2 14.2 14.2 4.3 4.3 4.3-4.3 14.2-14.2 14.2 14.2 4.3 4.3 4.3-4.3 14.2-14.2 14.2 14.2 4.3 4.3 4.3-4.3 14.2-14.2 14.2 14.2 4.3 4.3 4.3-4.3 14.2-14.2 14.2 14.2 4.3 4.3 4.3-4.3 14.2-14.2 14.2 14.2 4.3 4.3 4.3-4.3 14.2-14.2 14.2 14.2 4.3 4.3 4.3-4.3 14.2-14.2 14.2 14.2 4.3 4.3 4.3-4.3 14.2-14.2 14.2 14.2 4.3 4.3 4.3-4.3 14.2-14.2 14.2 14.2 4.3 4.3 4.3-4.3 14.2-14.2 14.2 14.2 4.3 4.3 4.3-4.3 14.2-14.2 14.2 14.2 4.3 4.3 4.3-4.3 14.2-14.2 14.2 14.2 4.3 4.3 4.3-4.3 14.2-14.2 14.2 14.2 4.3 4.3 4.3-4.3 14.2-14.2 14.2 14.2 4.3 4.3 4.3-4.3 14.2-14.2 14.2 14.2 4.3 4.3 4.3-4.3 14.2-14.2 14.2 14.2 4.3 4.3 4.3-4.3 14.2-14.2 14.2 14.2 4.3 4.3 4.3-4.3 14.2-14.2 14.2 14.2 4.3 4.3 4.3-4.3 14.2-14.2 14.2 14.2 4.3 4.3 4.3-4.3 14.2-14.2 14.2 14.2 4.3 4.3 4.3-4.3 14.2-14.2 14.2 14.2 4.3 4.3 4.3-4.3 14.2-14.2 14.2 14.2 4.3 4.3 4.3-4.3 14.2-14.2 14.2 14.2 4.3 4.3 4.3-4.3 14.2-14.2 14.2 14.2 4.3 4.3 4.3-4.3 14.2-14.2 14.2 14.2 4.3 4.3 4.3-4.3 14.2-14.2 14.2 14.2 4.3 4.3 4.3-4.3 14.2-14.2 14.2 14.2 4.3 4.3 4.3-4.3 14.2-14.2 14.2 14.2 4.3 4.3 4.3-4.3 14.2-14.2 14.2 14.2 4.3 4.3 4.3-4.3 14.2-14.2 14.2 14.2 4.3 4.3 4.3-4.3 14.2-14.2 14.2 14.2 4.3 4.3 4.3-4.3 14.2-14.2 14.2 14.2 4.3 4.3 4.3-4.3 14.2-14.2 14.2 14.2 4.3 4.3 4.3-4.3 14.2-14.2 14.2 14.2 4.3 4.3 4.3-4.3 14.2-14.2 14.2 14.2 4.3 4.3 4.3-4.3 14.2-14.2 14.2 14.2.3.3v-8.5l-10.2-10.2-8.3-4.2-4.3 4.3-14.2 14.2-14.2-14.2-4.3-4.3-4.3 4.3-14.2 14.2-14.2-14.2-4.3-4.3-4.3 4.3-14.2 14.2-14.2-14.2-4.3-4.3-4.3 4.3-14.2 14.2-14.2-14.2-4.3-4.3-4.3 4.3-14.2 14.2-14.2-14.2-4.3-4.3-4.3 4.3-14.2 14.2-14.2-14.2-4.3-4.3-4.3 4.3-14.2 14.2-14.2-14.2-4.3-4.3-4.3 4.3-14.2 14.2-14.2-14.2-4.3-4.3-4.3 4.3-14.2 14.2-14.2-14.2-4.3-4.3-4.3 4.3-14.2 14.2-14.2-14.2-4.3-4.3-4.3 4.3-14.2 14.2-14.2-14.2-4.3-4.3-4.3 4.3-14.2 14.2-14.2-14.2-4.3-4.3-4.3 4.3-14.2 14.2-14.2-14.2-4.3-4.3-4.3 4.3-14.2 14.2-14.2-14.2-4.3-4.3-4.3 4.3-14.2 14.2-14.2-14.2-4.3-4.3-4.3 4.3-14.2 14.2-14.2-14.2-4.3-4.3-4.3 4.3-14.2 14.2-14.2-14.2-4.3-4.3-4.3 4.3-14.2 14.2-14.2-14.2-4.3-4.3-4.3 4.3-14.2 14.2-14.2-14.2-4.3-4.3-4.3 4.3-14.2 14.2-14.2-14.2-4.3-4.3-4.3 4.3-14.2 14.2-14.2-14.2-4.3-4.3-4.3 4.3-14.2 14.2-14.2-14.2-4.3-4.3-4.3 4.3-14.2 14.2-14.2-14.2-4.3-4.3-4.3 4.3-14.2 14.2-14.2-14.2-4.3-4.3-4.3 4.3-14.2 14.2-14.2-14.2-4.3-4.3-4.3 4.3-14.2 14.2-14.2-14.2-4.3-4.3-4.3 4.3-14.2 14.2-14.2-14.2-4.3-4.3-4.3 4.3-14.2 14.2-14.2-14.2-4.3-4.3-4.3 4.3-14.2 14.2-14.2-14.2-4.3-4.3-4.3 4.3-14.2 14.2-14.2-14.2-4.3-4.3-4.3 4.3-14.2 14.2-14.2-14.2-4.3-4.3-4.3 4.3-14.2 14.2-14.2-14.2-4.3-4.3-4.3 4.3-14.2 14.2-14.2-14.2-4.3-4.3-4.3 4.3-14.2 14.2-14.2-14.2-4.3-4.3-4.3 4.3-14.2 14.2-14.2-14.2-4.3-4.3-4.3 4.3-14.2 14.2-14.2-14.2-4.3-4.3-4.3 4.3-14.2 14.2-14.2-14.2-4.3-4.3-4.3 4.3-14.2 14.2-14.2-14.2-4.3-4.3-4.3 4.3-14.2 14.2-14.2-14.2-4.3-4.3-4.3 4.3-14.2 14.2-14.2-14.2-4.3-4.3-4.3 4.3-14.2 14.2-14.2-14.2-4.3-4.3-4.3 4.3-14.2 14.2-14.2-14.2-4.3-4.3-4.3 4.3-14.2 14.2-14.2-14.2-4.3-4.3-4.3 4.3-14.2 14.2-14.2-14.2-4.3-4.3-4.3 4.3-14.2 14.2-14.2-14.2-4.3-4.3-4.3 4.3-14.2 14.2-14.2-14.2-4.3-4.3-4.3 4.3-14.2 14.2-14.2-14.2-4.3-4.3-4.3 4.3-14.2 14.2-14.2-14.2-4.3-4.3-4.3 4.3-14.2 14.2-14.2-14.2-4.3-4.3-4.3 4.3L70 446.7l-14.2-14.2-4.3-4.3-4.3 4.3L33 446.7l-14.2-14.2-4.3-4.3-4.3 4.3L0 446.6v8.5l18.5-18.5z" fill="#e2e2e2"/><path d="m521.7 332.3-19 20.5v50.8H466V225.8h36.6v80.6l16.1-22.1 45.3-58.5h45l-63.1 79 64.9 98.8h-43.6l-45.5-71.3zm91.9 4c0-13.1 2.5-24.8 7.6-35 5-10.3 12.3-18.2 21.8-23.8 9.5-5.6 20.5-8.4 33-8.4 17.8 0 32.4 5.5 43.6 16.4 11.3 10.9 17.6 25.7 18.9 44.4l.2 9c0 20.3-5.7 36.5-17 48.8-11.3 12.2-26.5 18.4-45.5 18.4s-34.2-6.1-45.6-18.3-17-28.8-17-49.8v-1.7zm35.3 2.5c0 12.6 2.4 22.2 7.1 28.8 4.7 6.6 11.5 10 20.3 10 8.5 0 15.2-3.3 20-9.8 4.8-6.6 7.2-17.1 7.2-31.5 0-12.3-2.4-21.8-7.2-28.6-4.8-6.8-11.6-10.1-20.3-10.1-8.6 0-15.3 3.4-20 10.1-4.7 6.6-7.1 17-7.1 31.1zm150.5 2.2v62.6h-36.6V225.8h69.3c13.3 0 25.1 2.4 35.2 7.3s17.9 11.8 23.4 20.8 8.2 19.2 8.2 30.7c0 17.4-6 31.1-17.9 41.2-11.9 10.1-28.4 15.1-49.5 15.1h-32.1zm0-29.7h32.7c9.7 0 17.1-2.3 22.2-6.8 5.1-4.6 7.6-11.1 7.6-19.5 0-8.7-2.6-15.7-7.7-21.1s-12.2-8.1-21.2-8.3h-33.6v55.7zM959 403.6h-35.4V216.1H959v187.5zm105.6 0c-1.6-3.2-2.8-7.1-3.5-11.8-8.5 9.5-19.7 14.3-33.3 14.3-12.9 0-23.7-3.7-32.2-11.2-8.5-7.5-12.8-16.9-12.8-28.3 0-14 5.2-24.7 15.6-32.2 10.4-7.5 25.4-11.3 45-11.4h16.2v-7.6c0-6.1-1.6-11-4.7-14.6s-8.1-5.5-14.8-5.5c-5.9 0-10.6 1.4-14 4.3-3.4 2.8-5.1 6.8-5.1 11.7h-35.3c0-7.6 2.4-14.7 7.1-21.2 4.7-6.5 11.4-11.6 20-15.3 8.6-3.7 18.3-5.6 29.1-5.6 16.3 0 29.2 4.1 38.8 12.3 9.6 8.2 14.3 19.7 14.3 34.5v57.3c.1 12.5 1.8 22 5.2 28.4v2.1h-35.6zm-29.2-24.6c5.2 0 10-1.2 14.4-3.5s7.6-5.4 9.8-9.3v-22.7h-13.2c-17.7 0-27.1 6.1-28.2 18.3l-.1 2.1c0 4.4 1.5 8 4.6 10.9 3.1 2.8 7.3 4.2 12.7 4.2zm134.1-25.3 24.4-82.2h37.8l-53.1 152.6-2.9 7c-7.9 17.3-20.9 25.9-39.1 25.9-5.1 0-10.3-.8-15.6-2.3V428l5.4.1c6.7 0 11.7-1 15-3.1 3.3-2 5.9-5.4 7.8-10.1l4.2-10.9-46.4-132.5h38l24.5 82.2zm135.4 52.3c-19.4 0-35.1-5.9-47.3-17.8-12.2-11.9-18.3-27.7-18.3-47.5v-3.4c0-13.3 2.6-25.1 7.7-35.6s12.4-18.5 21.8-24.2c9.4-5.7 20.1-8.5 32.2-8.5 18.1 0 32.3 5.7 42.7 17.1 10.4 11.4 15.6 27.5 15.6 48.5V349h-84.1c1.1 8.6 4.6 15.5 10.3 20.8 5.7 5.2 13 7.8 21.8 7.8 13.6 0 24.2-4.9 31.9-14.8l17.3 19.4c-5.3 7.5-12.5 13.3-21.5 17.5s-19.1 6.3-30.1 6.3zm-4-108.5c-7 0-12.7 2.4-17 7.1s-7.1 11.5-8.4 20.4h49.1v-2.8c-.2-7.8-2.3-13.9-6.3-18.2-4.2-4.4-9.9-6.5-17.4-6.5zm152.6 7.1c-4.8-.7-9-1-12.7-1-13.3 0-22.1 4.5-26.2 13.5v86.4h-35.3v-132h33.3l1 15.7c7.1-12.1 16.9-18.2 29.4-18.2 3.9 0 7.6.5 11 1.6l-.5 34z"/></svg>