<svg xmlns="http://www.w3.org/2000/svg" viewBox="0 0 1920 673" xml:space="preserve"><style>.st5{fill:#fff}</style><path fill="#2b9e90" d="M0 0h1920v673H0z"/><path fill="#60ba62" d="m1301.3 673 94-533L601 0H0v673z"/><path fill="#9ac95d" d="m1132.9 673 70.2-398.3L0 62.6V673z"/><path fill="#cfdd4e" d="m964.3 673 46.5-263.7L0 231.1V673z"/><path fill="#eeefb6" d="m795.8 673 22.8-129.1L0 399.6V673z"/><path class="st5" d="M957.2 394.5c-1.8 0-3.4-.5-4.9-1.3l-15.5-9.2c-2.3-1.3-1.2-1.8-.5-2 3.2-1.1 3.7-1.3 7-3.2.4-.2.8-.1 1.2.1l11.9 7.1c.5.2 1.1.2 1.4 0l46.6-27c.5-.2.7-.7.7-1.3v-53.8c0-.6-.2-1.1-.7-1.3L957.8 276c-.5-.2-1.1-.2-1.4 0l-46.6 26.8c-.5.2-.7.8-.7 1.3v53.8c0 .5.2 1.1.7 1.3l12.7 7.4c6.9 3.5 11.2-.6 11.2-4.7v-53.1c0-.7.6-1.4 1.4-1.4h6c.7 0 1.4.6 1.4 1.4v53.1c0 9.2-5 14.6-13.8 14.6-2.7 0-4.8 0-10.7-2.9l-12.3-7c-3-1.8-4.9-5-4.9-8.5v-53.8c0-3.5 1.9-6.8 4.9-8.5l46.6-27c2.9-1.6 6.9-1.6 9.8 0l46.6 27c3 1.8 4.9 5 4.9 8.5V358c0 3.5-1.9 6.8-4.9 8.5l-46.6 27c-1.5.7-3.3 1-4.9 1z"/><path class="st5" d="M971.6 357.5c-20.4 0-24.6-9.3-24.6-17.3 0-.7.6-1.4 1.4-1.4h6.1c.7 0 1.3.5 1.3 1.2.9 6.2 3.6 9.2 16 9.2 9.8 0 14-2.2 14-7.5 0-3-1.2-5.3-16.5-6.8-12.7-1.3-20.7-4.1-20.7-14.2 0-9.5 7.9-15.1 21.2-15.1 14.9 0 22.3 5.1 23.2 16.3 0 .4-.1.7-.4 1.1-.2.2-.6.5-.9.5h-6.1c-.6 0-1.2-.5-1.3-1.1-1.4-6.4-5-8.5-14.6-8.5-10.7 0-12 3.7-12 6.5 0 3.4 1.5 4.4 16 6.3 14.4 1.9 21.1 4.6 21.1 14.6 0 10.4-8.4 16.2-23.2 16.2zM812.8 184.2c0-2.1-1.2-4.1-3-5.1l-49.5-28.5c-.8-.5-1.8-.7-2.7-.8h-.5c-.9 0-1.9.4-2.7.8L705 179c-1.9 1.1-3 3-3 5.1l.1 76.5c0 1.1.6 2.1 1.5 2.6.9.6 2.1.6 2.9 0l29.4-16.8c1.9-1.1 3-3 3-5.1v-35.8c0-2.1 1.2-4.1 3-5.1l12.5-7.2c.9-.6 2-.8 3-.8s2.1.2 2.9.8l12.5 7.2c1.9 1.1 3 3 3 5.1v35.8c0 2.1 1.2 4.1 3 5.1l29.4 16.8c.9.6 2.1.6 3 0 .9-.5 1.5-1.5 1.5-2.6l.1-76.4zm237.7-105.4c-.9-.5-2.1-.5-2.9 0-.9.6-1.5 1.5-1.5 2.6v75.8c0 .7-.3 1.4-1.1 1.9-.7.4-1.4.4-2.1 0l-12.4-7.1c-1.9-1.1-4.1-1.1-6 0L975 180.6c-1.9 1.1-3 3-3 5.1v57.1c0 2.1 1.2 4.1 3 5.1l49.5 28.6c1.9 1.1 4.1 1.1 6 0l49.5-28.6c1.9-1.1 3-3 3-5.1V100.5c0-2.2-1.2-4.2-3-5.3l-29.5-16.4zM1046 224c0 .6-.2 1.1-.7 1.3l-16.9 9.8c-.5.2-1.1.2-1.5 0l-16.9-9.8c-.5-.2-.7-.8-.7-1.3v-19.6c0-.6.2-1.1.7-1.3l16.9-9.8c.5-.2 1.1-.2 1.5 0l16.9 9.8c.5.2.7.8.7 1.3V224zm169.2-20.1c1.9-1.1 2.9-3 2.9-5.1v-13.9c0-2.1-1.2-4.1-2.9-5.1l-49.1-28.5c-1.9-1.1-4.1-1.1-6 0l-49.5 28.6c-1.9 1.1-3 3-3 5.1v57c0 2.1 1.2 4.1 3 5.1l49.1 28c1.9 1.1 4.1 1.1 5.8 0l29.8-16.6c.9-.5 1.5-1.5 1.5-2.6s-.6-2.1-1.5-2.6l-49.7-28.6c-.9-.6-1.5-1.5-1.5-2.6v-17.9c0-1.1.6-2.1 1.5-2.6l15.5-8.9c.9-.6 2.1-.6 3 0l15.5 8.9c.9.6 1.5 1.5 1.5 2.6v14c0 1.1.6 2.1 1.5 2.6.9.6 2.1.6 3 0l29.6-16.9z"/><path d="M1162.3 201.2c.3-.2.8-.2 1.2 0l9.5 5.5c.3.2.6.6.6 1.1v11c0 .5-.2.8-.6 1.1l-9.5 5.5c-.3.2-.8.2-1.2 0l-9.5-5.5c-.3-.2-.6-.6-.6-1.1v-11c0-.5.2-.8.6-1.1l9.5-5.5z" fill="#699f63"/><linearGradient id="a" gradientUnits="userSpaceOnUse" x1="912.488" y1="10.625" x2="868.077" y2="101.223" gradientTransform="translate(0 162)"><stop offset="0" stop-color="#41873f"/><stop offset=".329" stop-color="#418b3d"/><stop offset=".635" stop-color="#419637"/><stop offset=".932" stop-color="#3fa92d"/><stop offset="1" stop-color="#3fae2a"/></linearGradient><path d="M895.5 151.5c-1.9-1.1-4.1-1.1-6 0l-49.1 28.4c-1.9 1.1-2.9 3-2.9 5.1v56.8c0 2.1 1.2 4.1 2.9 5.1l49.1 28.4c1.9 1.1 4.1 1.1 6 0l49.1-28.4c1.9-1.1 2.9-3 2.9-5.1V185c0-2.1-1.2-4.1-2.9-5.1l-49.1-28.4z" fill="url(#a)"/><linearGradient id="b" gradientUnits="userSpaceOnUse" x1="885.035" y1="58.037" x2="1009.649" y2="-34.035" gradientTransform="translate(0 162)"><stop offset=".138" stop-color="#41873f"/><stop offset=".403" stop-color="#54a044"/><stop offset=".714" stop-color="#66b848"/><stop offset=".908" stop-color="#6cc04a"/></linearGradient><path d="m944.7 179.9-49.4-28.4c-.5-.2-1.1-.5-1.5-.6l-55.3 94.7c.5.6 1 1.1 1.6 1.4l49.4 28.4c1.4.8 3 1.1 4.6.6l51.9-95c-.4-.4-.8-.8-1.3-1.1z" fill="url(#b)"/><linearGradient id="c" gradientUnits="userSpaceOnUse" x1="835.701" y1="51.406" x2="949.359" y2="51.406" gradientTransform="translate(0 162)"><stop offset=".092" stop-color="#6cc04a"/><stop offset=".286" stop-color="#66b848"/><stop offset=".597" stop-color="#54a044"/><stop offset=".862" stop-color="#41873f"/></linearGradient><path d="M944.8 246.9c1.4-.8 2.5-2.2 2.9-3.7l-54.1-92.4c-1.4-.2-2.9-.1-4.2.7l-49 28.2 52.9 96.4c.7-.1 1.5-.4 2.2-.7l49.3-28.5z" fill="url(#c)"/><path class="st5" d="m492.9 451.5.6 6.6c3.9-5.1 9.2-7.6 16-7.6 5.8 0 10.2 1.7 13.1 5.2 2.9 3.5 4.4 8.7 4.5 15.7v36.1h-17.5v-35.4c0-2.8-.6-4.9-1.7-6.2s-3.2-2-6.2-2c-3.4 0-6 1.3-7.6 4v39.6h-17.5v-56h16.3zm95.8 28.4c0 8.7-2 15.6-5.9 20.8-3.9 5.2-9.2 7.8-15.9 7.8-5.1 0-9.4-1.9-12.7-5.6V529h-17.5v-77.6H553l.5 5.2c3.3-4.1 7.8-6.2 13.2-6.2 6.9 0 12.3 2.5 16.1 7.6 3.8 5.1 5.7 12.1 5.7 21v.9zm-17.4-1.1c0-9.9-2.9-14.9-8.7-14.9-4.1 0-6.9 1.5-8.3 4.5v22.1c1.5 3.1 4.3 4.7 8.4 4.7 5.6 0 8.4-4.8 8.6-14.4v-2zm41.6-27.3.6 6.6c4-5.1 9.3-7.6 16-7.6 7.1 0 11.9 2.8 14.3 8.4 3.8-5.6 9.3-8.4 16.5-8.4 11.4 0 17.2 6.9 17.5 20.6v36.5h-17.5v-35.4c0-2.9-.5-5-1.4-6.3-1-1.3-2.7-2-5.3-2-3.5 0-6 1.5-7.7 4.6l.1.7v38.3h-17.5v-35.3c0-2.9-.5-5.1-1.4-6.4-.9-1.3-2.7-2-5.3-2-3.3 0-5.9 1.5-7.7 4.6v39h-17.5v-56h16.3zm109 30.2h-31.1v-13.5h31.1v13.5zm37.3 13.4c2.5 0 4.3-.7 5.7-2 1.3-1.3 2-3.2 2-5.6h16.4c0 6.1-2.2 11.2-6.6 15.1-4.4 3.9-10.1 5.9-17 5.9-8.1 0-14.6-2.6-19.3-7.7-4.7-5.1-7-12.2-7-21.2v-.7c0-5.7 1-10.7 3.1-15 2.1-4.3 5.1-7.7 9-10s8.6-3.5 14-3.5c7.3 0 13.1 2 17.3 6.1 4.3 4 6.4 9.5 6.4 16.4h-16.4c0-2.9-.7-5.1-2.1-6.7-1.4-1.6-3.3-2.3-5.7-2.3-4.5 0-7.2 2.9-7.9 8.6-.2 1.8-.4 4.3-.4 7.6 0 5.6.7 9.5 2 11.7 1.4 2.2 3.5 3.3 6.5 3.3zm48.4-37.6c3.7-4.7 8.5-7 14.3-7 6.2 0 10.8 1.8 14 5.5s4.7 9.1 4.8 16.2v35.4h-17.5v-35c0-3-.6-5.2-1.8-6.6-1.2-1.4-3.3-2.1-6.2-2.1-3.6 0-6.1 1.1-7.6 3.4v40.2h-17.5V428h17.5v29.5zm69.9 51c-8.6 0-15.6-2.6-20.9-7.7s-8-11.8-8-20v-1.4c0-5.7 1.1-10.8 3.2-15.2 2.1-4.4 5.2-7.8 9.3-10.2 4.1-2.4 8.9-3.6 14.5-3.6 7.9 0 14.1 2.4 18.6 7.3 4.6 4.9 6.8 11.7 6.8 20.4v6.8h-34.7c.6 3.1 2 5.6 4.1 7.4 2.1 1.8 4.8 2.7 8.2 2.7 5.5 0 9.8-1.9 12.9-5.8l8 9.4c-2.2 3-5.3 5.4-9.2 7.2-3.9 1.8-8.2 2.7-12.8 2.7zm-1.9-44.6c-5.1 0-8.1 3.4-9.1 10.2h17.6v-1.3c.1-2.8-.6-5-2.1-6.5-1.6-1.6-3.7-2.4-6.4-2.4zm56.3 31.2c2.5 0 4.3-.7 5.7-2 1.3-1.3 2-3.2 2-5.6H956c0 6.1-2.2 11.2-6.6 15.1-4.4 3.9-10.1 5.9-17 5.9-8.1 0-14.6-2.6-19.3-7.7-4.7-5.1-7-12.2-7-21.2v-.7c0-5.7 1-10.7 3.1-15 2.1-4.3 5.1-7.7 9-10s8.6-3.5 14-3.5c7.3 0 13.1 2 17.3 6.1 4.3 4 6.4 9.5 6.4 16.4h-16.4c0-2.9-.7-5.1-2.1-6.7-1.4-1.6-3.3-2.3-5.7-2.3-4.5 0-7.2 2.9-7.9 8.6-.2 1.8-.4 4.3-.4 7.6 0 5.6.7 9.5 2 11.7 1.4 2.2 3.5 3.3 6.5 3.3zm53.9-8.5-4.9 4.9v16h-17.5v-79.6h17.5v42.3l1.8-2.3 13.2-16.4h20.9l-19.6 23 20.9 33h-20l-12.3-20.9zm69.6-4.9h-31.1v-13.5h31.1v13.5zm46.9 19.7c-3.7 4.7-8.7 7.1-15 7.1-6.1 0-10.8-1.8-14-5.4-3.2-3.6-4.7-8.7-4.7-15.4v-36.3h17.5v36.4c0 4.8 2.3 7.2 7 7.2 4 0 6.9-1.4 8.5-4.3v-39.3h17.6v56h-16.4l-.5-6zm78.5-21.5c0 8.7-2 15.6-5.9 20.8-3.9 5.2-9.2 7.8-15.9 7.8-5.1 0-9.4-1.9-12.7-5.6V529h-17.5v-77.6h16.3l.5 5.2c3.3-4.1 7.8-6.2 13.2-6.2 6.9 0 12.3 2.5 16.1 7.6 3.8 5.1 5.7 12.1 5.7 21v.9zm-17.5-1.1c0-9.9-2.9-14.9-8.7-14.9-4.1 0-6.9 1.5-8.3 4.5v22.1c1.5 3.1 4.3 4.7 8.4 4.7 5.6 0 8.4-4.8 8.6-14.4v-2zm23 .3c0-8.9 1.9-15.9 5.7-21s9.2-7.7 16.1-7.7c5 0 9.2 2 12.6 5.9V428h17.5v79.5h-15.7l-.9-6c-3.6 4.7-8.1 7-13.7 7-6.7 0-11.9-2.6-15.8-7.7-3.9-5-5.8-12.3-5.8-21.7zm17.4 1.1c0 9.9 2.9 14.9 8.7 14.9 3.9 0 6.6-1.6 8.3-4.9v-21.3c-1.6-3.3-4.3-5-8.2-5-5.4 0-8.3 4.4-8.8 13v3.3zm76 27.3c-.6-1.1-1.2-2.8-1.7-5-3.2 4-7.7 6.1-13.5 6.1-5.3 0-9.8-1.6-13.5-4.8-3.7-3.2-5.5-7.2-5.5-12 0-6.1 2.2-10.7 6.7-13.8 4.5-3.1 11-4.7 19.6-4.7h5.4v-3c0-5.2-2.2-7.8-6.7-7.8-4.1 0-6.2 2-6.2 6.1h-17.5c0-5.4 2.3-9.8 6.9-13.2 4.6-3.4 10.5-5.1 17.6-5.1 7.1 0 12.8 1.7 16.9 5.2 4.1 3.5 6.3 8.3 6.4 14.3v24.8c.1 5.1.9 9.1 2.4 11.8v.9h-17.3zm-10.9-11.4c2.2 0 4-.5 5.4-1.4 1.4-.9 2.5-2 3.1-3.2v-9h-5.1c-6.1 0-9.1 2.7-9.1 8.2 0 1.6.5 2.9 1.6 3.9 1 1 2.4 1.5 4.1 1.5zm56-58.6v13.9h9.2v12.1h-9.2v25.6c0 2.1.4 3.6 1.1 4.4.8.8 2.3 1.2 4.5 1.2 1.7 0 3.2-.1 4.3-.3V507c-3.1 1-6.4 1.5-9.8 1.5-6 0-10.4-1.4-13.3-4.2-2.9-2.8-4.3-7.1-4.3-12.9v-27.8h-7.1v-12.1h7.1v-13.9h17.5zm43.1 71c-8.6 0-15.6-2.6-20.9-7.7s-8-11.8-8-20v-1.4c0-5.7 1.1-10.8 3.2-15.2 2.1-4.4 5.2-7.8 9.3-10.2 4.1-2.4 8.9-3.6 14.5-3.6 7.9 0 14.1 2.4 18.6 7.3 4.6 4.9 6.8 11.7 6.8 20.4v6.8h-34.7c.6 3.1 2 5.6 4.1 7.4 2.1 1.8 4.8 2.7 8.2 2.7 5.5 0 9.8-1.9 12.9-5.8l8 9.4c-2.2 3-5.3 5.4-9.2 7.2-3.9 1.8-8.2 2.7-12.8 2.7zm-1.9-44.6c-5.1 0-8.1 3.4-9.1 10.2h17.6v-1.3c.1-2.8-.6-5-2.1-6.5-1.5-1.6-3.7-2.4-6.4-2.4zm61.9 27.9c0-1.5-.8-2.7-2.3-3.6-1.6-.9-4.5-1.8-8.9-2.8-4.4-1-7.9-2.2-10.8-3.8-2.8-1.6-5-3.5-6.5-5.7s-2.2-4.8-2.2-7.7c0-5.1 2.1-9.4 6.4-12.7 4.2-3.3 9.8-5 16.7-5 7.4 0 13.3 1.7 17.8 5s6.7 7.8 6.7 13.2h-17.5c0-4.5-2.4-6.7-7.1-6.7-1.8 0-3.4.5-4.6 1.5-1.2 1-1.9 2.3-1.9 3.8 0 1.6.8 2.8 2.3 3.8 1.5 1 3.9 1.8 7.3 2.4 3.3.6 6.3 1.4 8.8 2.2 8.4 2.9 12.6 8.1 12.6 15.6 0 5.1-2.3 9.3-6.8 12.5-4.5 3.2-10.4 4.8-17.6 4.8-4.8 0-9.1-.9-12.8-2.6-3.8-1.7-6.7-4.1-8.8-7-2.1-3-3.2-6.1-3.2-9.4h16.3c.1 2.6.9 4.5 2.6 5.7 1.7 1.2 3.8 1.8 6.4 1.8 2.4 0 4.2-.5 5.4-1.5 1.1-1 1.7-2.3 1.7-3.8z"/></svg>