<svg xmlns="http://www.w3.org/2000/svg" viewBox="0 0 1920 673" xml:space="preserve"><path fill="#2b9e8f" d="M0 0h1920v673H0z"/><path d="m715.5 159.3-45 120.9H697l8.3-24.9H749l8.4 24.9h26.5l-45.2-120.9h-23.2zM712 235l15-45.2 15.2 45.2H712zm101.5 37.3c5.6 6.3 12.9 9.5 22 9.5 10.7 0 19.2-4.2 25.4-12.5 6.3-8.3 9.4-19.4 9.4-33.2v-1.2c0-14.4-3.1-25.7-9.2-33.9s-14.7-12.3-25.8-12.3c-9.4 0-16.9 3.5-22.7 10.5l-.8-8.8h-22.2v124.3h24v-42.4zm0-55.5c2.8-5.8 8-8.6 15.5-8.6 5.6 0 9.9 2.3 12.9 6.8s4.4 11 4.4 19.3c0 18.8-5.7 28.1-17.2 28.1-7.5 0-12.8-3-15.7-8.9v-36.7zm148 61.9c-2.3-4.4-3.5-10.8-3.6-19.3v-38.9c0-10.1-3.3-17.9-9.8-23.4-6.5-5.6-15.3-8.3-26.4-8.3-7.3 0-13.9 1.3-19.8 3.8s-10.4 6-13.6 10.4c-3.2 4.4-4.8 9.2-4.8 14.4h24c0-3.4 1.1-6 3.4-8 2.3-1.9 5.5-2.9 9.5-2.9 4.6 0 8 1.2 10.1 3.7 2.1 2.5 3.2 5.8 3.2 10v5.1h-11c-13.3.1-23.5 2.6-30.6 7.7-7.1 5.1-10.6 12.4-10.6 21.9 0 7.7 2.9 14.2 8.7 19.3 5.8 5.1 13.1 7.6 21.9 7.6 9.3 0 16.9-3.2 22.7-9.7.5 3.2 1.3 5.9 2.4 8.1h24.2v-1.5zm-27.6-24c-1.4 2.7-3.7 4.8-6.6 6.4s-6.3 2.4-9.8 2.4c-3.7 0-6.5-1-8.6-2.9-2.1-1.9-3.2-4.4-3.2-7.4l.1-1.4c.8-8.3 7.2-12.5 19.2-12.5h9v15.4zm49.8 14.8c-7.4-8.2-11.1-19.4-11.1-33.8v-1.6c0-13.8 3.7-24.9 11-33.1 7.4-8.2 17.5-12.4 30.3-12.4 11.2 0 20.2 3.2 27 9.6 6.8 6.4 10.2 14.9 10.3 25.5h-22.5c-.1-4.7-1.5-8.5-4.3-11.4-2.8-2.9-6.4-4.4-11-4.4-5.6 0-9.8 2-12.7 6.1-2.9 4.1-4.3 10.7-4.3 19.8v2.5c0 9.3 1.4 15.9 4.2 20 2.8 4 7.1 6.1 12.9 6.1 4.4 0 8-1.2 10.8-3.7 2.8-2.4 4.2-5.7 4.3-9.7h22.5c-.1 6.1-1.7 11.7-5 16.7-3.3 5.1-7.7 9-13.4 11.8-5.7 2.8-11.9 4.2-18.8 4.2-12.6.1-22.7-4-30.2-12.2zm104.7-53.2v63.8h-24V152.6h24v47.5c6.4-7.6 14.4-11.5 24-11.5 19.5 0 29.4 11.3 29.6 34v57.5h-24v-56.9c0-5.1-1.1-9-3.3-11.4-2.2-2.5-5.9-3.7-11-3.7-7 0-12.1 2.8-15.3 8.2zm113.1 65.5c7.5 0 14.3-1.4 20.4-4.3s11-6.8 14.6-11.9l-11.8-13.2c-5.2 6.7-12.4 10-21.7 10-6 0-10.9-1.8-14.8-5.3-3.9-3.5-6.2-8.2-7-14.1h57.2v-9.8c0-14.2-3.5-25.2-10.6-33-7.1-7.7-16.7-11.6-29-11.6-8.2 0-15.5 1.9-21.9 5.8-6.4 3.8-11.3 9.3-14.8 16.4-3.5 7.1-5.2 15.2-5.2 24.2v2.3c0 13.4 4.1 24.2 12.4 32.3 8.3 8.1 19 12.2 32.2 12.2zm-14.3-69c3-3.2 6.8-4.8 11.6-4.8 5.1 0 9 1.5 11.8 4.4 2.8 2.9 4.2 7 4.3 12.4v1.9h-33.4c.8-6 2.7-10.7 5.7-13.9zM505.7 368.2c-6.9-3.3-14.9-5-23.9-5h-47.1v120.9h24.9v-42.6h21.8c14.3 0 25.6-3.4 33.7-10.3 8.1-6.8 12.2-16.2 12.2-28 0-7.8-1.9-14.8-5.6-20.9-3.8-6-9.1-10.7-16-14.1zm-8.9 48.5c-3.5 3.1-8.5 4.6-15.1 4.6h-22.2v-37.9h22.8c6.1.1 11 2 14.4 5.6s5.2 8.4 5.2 14.4c.1 5.8-1.6 10.2-5.1 13.3zm120.9-53.4h24.9v120.9h-24.9v-51.8h-48.6v51.8h-24.9V363.3h24.9v49h48.6v-49zm117.8 4.9c-6.9-3.3-14.9-5-23.9-5h-47.1v120.9h24.9v-42.6h21.8c14.3 0 25.6-3.4 33.7-10.3 8.1-6.8 12.2-16.2 12.2-28 0-7.8-1.9-14.8-5.6-20.9-3.8-6-9.1-10.7-16-14.1zm-8.9 48.5c-3.5 3.1-8.5 4.6-15.1 4.6h-22.2v-37.9h22.8c6.1.1 11 2 14.4 5.6s5.2 8.4 5.2 14.4c.1 5.8-1.7 10.2-5.1 13.3zm136.6-.2h30v21.7h-30V472h-22.8v-33.9h-30v-21.7h30V384h22.8v32.5zm182.8-53.2h32.7v120.9h-25v-33l2.5-57-32.6 90.1h-17.1l-32.5-90 2.5 56.9v33h-24.9V363.3H984l31 87.7 31-87.7zm103 31h25.7l-36.1 103.8-2 4.7c-5.4 11.7-14.2 17.6-26.6 17.6-3.5 0-7-.5-10.6-1.6v-18.2l3.7.1c4.5 0 7.9-.7 10.2-2.1 2.2-1.4 4-3.7 5.3-6.9l2.8-7.4-31.5-90.1h25.8l16.7 55.9 16.6-55.8zm60.3 1.2c0 3.9 2 7.2 5.9 9.9 4 2.7 9.8 5.1 17.5 7.5 14.2 4.3 24.5 9.5 31 15.9s9.7 14.2 9.7 23.6c0 10.5-4 18.7-11.9 24.6-7.9 5.9-18.6 8.9-32 8.9-9.3 0-17.8-1.7-25.4-5.1s-13.5-8.1-17.5-14-6-12.8-6-20.6h25c0 13.3 8 20 23.9 20 5.9 0 10.5-1.2 13.9-3.6s5-5.8 5-10.1c0-4.7-1.7-8.3-5-10.8s-9.3-5.2-17.9-8c-8.6-2.8-15.5-5.5-20.5-8.3-13.7-7.4-20.6-17.4-20.6-30 0-6.5 1.8-12.4 5.5-17.5s9-9.1 15.9-12c6.9-2.9 14.6-4.3 23.2-4.3s16.3 1.6 23.1 4.7c6.8 3.1 12 7.5 15.7 13.2 3.7 5.7 5.6 12.2 5.6 19.4h-24.9c0-5.5-1.7-9.8-5.2-12.9s-8.4-4.6-14.7-4.6c-6.1 0-10.8 1.3-14.2 3.9-3.4 2.6-5.1 6-5.1 10.2zm155.4-26.6c-7.8-4.8-16.8-7.3-26.9-7.3-10.1 0-19 2.4-26.9 7.3-7.8 4.8-13.9 11.8-18.2 20.8-4.3 9-6.4 19.5-6.4 31.4v6c.1 11.6 2.2 21.9 6.6 30.8 4.3 8.9 10.4 15.8 18.3 20.6 7.9 4.8 16.8 7.2 26.8 7.2 3.2 0 6.2-.2 9.1-.7l25.7 20.7 15.9-14-20.1-15.8c6.5-5 11.5-11.7 15.2-20 3.7-8.3 5.5-18.1 5.5-29.4V421c0-11.8-2.1-22.3-6.4-31.3-4.3-9.1-10.3-16-18.2-20.8zm-.6 57.9c-.1 12.6-2.3 22.1-6.8 28.7s-10.9 9.8-19.3 9.8c-8.5 0-15.1-3.4-19.6-10.2-4.5-6.8-6.8-16.4-6.8-28.7v-5.9c.1-12.6 2.4-22.1 6.9-28.6s11-9.8 19.3-9.8c8.4 0 14.9 3.3 19.4 9.9 4.5 6.6 6.8 16.2 6.8 28.9v5.9zm121.3 37.3v20h-77.8V363.3h24.9v100.9h52.9z" fill="#f8f8f8"/></svg>