<svg xmlns="http://www.w3.org/2000/svg" viewBox="0 0 1920 673" xml:space="preserve"><style>.st0,.st30{fill:#f0f2f4}.st30{opacity:.3}</style><path class="st0" d="M0 0h1920v673H0z"/><g stroke-width="1.51"><path fill="#4596c3" stroke="#4596c3" d="M1329.8 0h-202.2l173.7 215z"/><path fill="#7badd2" stroke="#7badd2" d="M746.2 0h-77.5l51.6 51z"/><path fill="#7caad0" stroke="#7caad0" d="M720.3 51 668.7 0H396.2l56.1 125z"/><path fill="#318eb7" stroke="#318eb7" d="m1498.3 2-1.4-2h-167.1l-28.5 215z"/><path fill="#4b99c2" stroke="#4b99c2" d="M1301.3 215 1127.6 0H746.2l-25.9 51z"/><path fill="#3991a8" stroke="#3991a8" d="m720.3 51 401 356 180-192z"/><path fill="#4691a0" stroke="#4691a0" d="m709.3 574 412-167-401-356z"/><path fill="#3e93b1" stroke="#3e93b1" d="M1500.4 0h-3.5l1.4 2z"/><path fill="#2087a0" stroke="#2087a0" d="m1301.3 215 197 158V2z"/><path fill="#26859a" stroke="#26859a" d="m1121.3 407 377-34-197-158z"/><path fill="#5a9aad" stroke="#5a9aad" d="m452.3 125 257 449 11-523z"/><path fill="#1e757e" stroke="#1e757e" d="m1121.3 407 281 266H1596l-97.7-300z"/><path fill="#298aa4" stroke="#298aa4" d="m1793.3 252 81.6-252h-374.5l-2.1 2z"/><path fill="#138494" stroke="#138494" d="m1498.3 373 295-121-295-250z"/><path fill="#9bb9d8" stroke="#9bb9d8" d="M0 0v18.1L6.5 0z"/><path fill="#86add1" stroke="#86add1" d="M396.2 0H6.5L0 18.1v199.2L452.3 125z"/><path fill="#63969a" stroke="#63969a" d="M452.3 125 211.8 673h33.9l463.6-99z"/><path fill="#789c9a" stroke="#789c9a" d="M0 673h203.2L0 353.6z"/><path fill="#73a1a8" stroke="#73a1a8" d="M0 217.3v136.3L203.2 673h8.6l240.5-548z"/><path fill="#057c7e" stroke="#057c7e" d="m1498.3 373 421.7-3.3v-50.3L1793.3 252z"/><path fill="#22808f" stroke="#22808f" d="m1874.9 0-81.6 252 126.7-12.3V0z"/><path fill="#07716c" stroke="#07716c" d="M1596 673h240.4l83.6-143.6V369.7l-421.7 3.3z"/><path fill="#397d85" stroke="#397d85" d="m709.3 574 71.1 99h266.5l74.4-266z"/><path fill="#5a8387" stroke="#5a8387" d="M245.7 673h384.7l78.9-99z"/><path fill="#407880" stroke="#407880" d="M717.3 673h63.1l-71.1-99z"/><path fill="#4d7c82" stroke="#4d7c82" d="M630.4 673h86.9l-8-99z"/><path fill="#057772" stroke="#057772" d="M1920 319.4v-79.7L1793.3 252z"/><path fill="#256c79" stroke="#256c79" d="M1046.9 673h355.4l-281-266z"/><path fill="#036255" stroke="#036255" d="M1920 673V529.4L1836.4 673z"/></g><path class="st30" d="M915.4 250.3v-24.6h-24.6v-24.6H743v270.8h197V250.3z"/><path class="st0" d="M915.4 250.3V275h-49.2v-49.2h24.6v-24.6H743V472h197V250.3h-24.6zm0 197H767.7V225.7h73.9v73.9h73.9v147.7zm-24.6-197v-24.6h24.6v24.6h-24.6z"/><path class="st30" d="M1152.3 250.3v-24.6h-24.6v-24.6H980v270.8h197V250.3z"/><path class="st0" d="M1152.3 250.3V275h-49.2v-49.2h24.6v-24.6H980V472h197V250.3h-24.7zm0 197h-147.7V225.7h73.9v73.9h73.9v147.7zm-24.6-197v-24.6h24.6v24.6h-24.6z"/><path class="st30" d="M1389.3 250.3v-24.6h-24.6v-24.6H1217v270.8h196.9V250.3z"/><path class="st0" d="M1389.3 250.3V275h-49.2v-49.2h24.6v-24.6H1217V472h197V250.3h-24.7zm0 197h-147.7V225.7h73.9v73.9h73.9v147.7zm-24.6-197v-24.6h24.6v24.6h-24.6z"/><path class="st30" d="M678.4 250.3v-24.6h-24.6v-24.6H506.1v270.8H703V250.3z"/><path class="st0" d="M678.4 250.3V275h-49.2v-49.2h24.6v-24.6H506.1V472h197V250.3h-24.7zm0 197H530.7V225.7h73.9v73.9h73.9v147.7zm-24.6-197v-24.6h24.6v24.6h-24.6z"/></svg>