<svg xmlns="http://www.w3.org/2000/svg" viewBox="0 0 1920 673" xml:space="preserve"><path fill="#20639b" d="M0 0h1920v673H0z"/><path d="M576.9 317.1c-1.2 0-12-8.1-19.5-23.5-6.9-14.1-8.3-29.3-8.3-39 0-10.5 1.5-24.4 7.9-38.1 7.4-15.9 18.6-24.4 19.9-24.4.8 0 1.2.4 1.2 1.2 0 .4 0 .6-1.6 2.1-15.4 15.6-20.1 37.4-20.1 59.1 0 19.1 4 42.8 19.6 58.5 2.1 2.1 2.1 2.4 2.1 2.8 0 .9-.5 1.3-1.2 1.3zm45.9-51.9c-1.4 5.5-2.1 8.3-2.1 11 0 4.3 2 8.3 6.9 8.3 4 0 12.5-3 16.6-16.4.3-.9.5-1.4 1.6-1.4.4 0 1.5 0 1.5 1.2 0 3.1-7.1 19.2-20 19.2-7.5 0-12-4.9-13.5-9.5-.4.7-4.9 9.5-13.1 9.5-5.5 0-11.7-2.5-11.7-8.2 0-4 3.1-7.3 6.9-7.3 1.9 0 4.6 1 4.6 4.4 0 3.5-2.8 6.1-5.9 6.8 2.6 1.6 5.5 1.6 6.2 1.6 5.5 0 9.9-5.3 11.9-13 4.6-17.5 6.8-25.9 6.8-29.8 0-7.3-4.4-8.4-6.8-8.4-4.3 0-12.5 3.1-16.7 16.4-.3 1.1-.6 1.4-1.6 1.4-.3 0-1.5 0-1.5-1.2 0-3.1 7.1-19.3 20.1-19.3 3.6 0 10.4 1.2 13.5 9.5 1.5-2.9 5.9-9.5 13.1-9.5 4.3 0 11.6 1.8 11.6 8.3 0 5-4 7.3-6.8 7.3-3.4 0-4.7-2.4-4.7-4.4 0-3 2.5-6.1 6-6.8-2.6-1.6-5.6-1.6-6.2-1.6-8.8 0-11.6 11.5-12.4 14.8l-4.3 17.1zm80.1-32.4c-2 0-4.5 0-4.5-2.5s2.3-2.5 4.4-2.5h74.6c2.1 0 4.4 0 4.4 2.5s-2.4 2.5-4.5 2.5h-74.4zm-.1 24.3c-2.1 0-4.4 0-4.4-2.5s2.3-2.5 4.4-2.5h74.6c2.1 0 4.4 0 4.4 2.5s-2.2 2.5-4.4 2.5h-74.6zm0 24.2c-2.1 0-4.4 0-4.4-2.5s2.5-2.5 4.5-2.5h74.4c2.1 0 4.5 0 4.5 2.5s-2.2 2.5-4.4 2.5h-74.6zm160.8 35.8c-1.2 0-12-8.1-19.5-23.5-6.9-14.1-8.3-29.3-8.3-39 0-10.5 1.5-24.4 7.9-38.1 7.4-15.9 18.6-24.4 19.9-24.4.8 0 1.2.4 1.2 1.2 0 .4 0 .6-1.6 2.1-15.4 15.6-20.1 37.4-20.1 59.1 0 19.1 4 42.8 19.6 58.5 2.1 2.1 2.1 2.4 2.1 2.8 0 .9-.5 1.3-1.2 1.3zm60.9-52.6c-.5 1.8-1.4 5.6-1.4 9.1 0 7.1 3.4 10.9 9.3 10.9 6.1 0 10.5-4.4 13.8-11 3.2-6.4 6.9-18.6 6.9-22.9 0-6-3.1-9.3-4.5-10.6-1.1-1-1.9-1.8-1.9-3.4 0-2.8 3.1-6 6.2-6 2.1 0 5.5 1.9 5.5 8.8 0 6-4 22.8-8.3 32.5-3.3 7.5-8.8 15.4-18.1 15.4-3.7 0-12.4-.7-15.6-8.7-5 8.7-10.9 8.7-13 8.7-9.4 0-17.8-4.4-17.8-15.7 0-4.8 1.5-10.5 7-25.3.9-2.1 2.2-5.6 2.2-8.7 0-4-2-4.1-3.1-4.1-4.4 0-9.3 3.9-12.6 15.5-.6 2-.7 2.2-2 2.2-.3 0-1.5 0-1.5-1.2 0-1.1 4.6-19.3 16.5-19.3 6.1 0 10.3 4.6 10.3 10.3 0 2.5-.8 4.3-2.1 8-5.9 15.4-6.5 20.3-6.5 24.2 0 2.1 0 11.4 10 11.4 4.9 0 8.6-3.9 11.5-10.5-.1-.6-.1-.9-.1-2.3 0-2.3.3-4.5 1.1-8.3.9-3.2 6.8-27.1 7.1-28 .9-2.5 3.1-3.5 4.6-3.5 1.9 0 3.6 1.1 3.6 3.4 0 .7-1.2 5.4-1.9 8.1l-5.2 21zm112.6 21.5c-.7 1.8-1.1 2.6-2.8 2.6-1.1 0-1.9-.5-2.9-2.6l-31.1-70.4c-.8-1.5-.8-1.8-.8-2 0-1.4 1.1-2.5 2.5-2.5.9 0 1.9.3 2.9 2.6l29.4 66.2 29.4-66.1c.9-1.9 1.6-2.8 2.9-2.8 1.4 0 2.5 1.1 2.5 2.5 0 .6-.1.9-.9 2.5l-31.1 70zm115.5 0c-3.5 14.1-16.4 25.5-29.3 25.5-7.7 0-13.3-4.6-13.3-10.9 0-6.1 4.1-8.1 7-8.1 1.2 0 4.6.5 4.6 4.4 0 2.4-1.2 4-2.5 5.1-1.8 1.5-3.4 1.5-5.4 1.5 2.1 4.9 7.7 5.2 9.5 5.2 5.8 0 10.5-3.6 13.8-7.9 5-6.6 6.5-12.7 8.1-19.2-3.5 3.5-7.7 5.6-12.6 5.6-7.4 0-15.2-3.7-15.2-14.9 0-5.9 2.2-13 7.2-26.3.9-2.4 2.1-5.6 2.1-8.8 0-4-2.1-4-3.1-4-4.3 0-9.3 3.8-12.6 15.5-.6 2-.7 2.2-2 2.2-.3 0-1.5 0-1.5-1.2 0-1.1 4.6-19.3 16.5-19.3 6.3 0 10.3 4.6 10.3 10.3 0 2.5-.5 3.9-2.5 9-4.3 11-6.4 18.8-6.4 24.5 0 4.6 1.4 10.1 7.7 10.1 8.3 0 13.6-8.7 14.1-10.6l5.6-22.5c.8-3.4 1.6-6.8 2.5-10 .5-2.2 1.5-6.1 1.8-6.8 1.1-1.9 3.1-2.6 4.4-2.6 1.9 0 3.6 1.1 3.6 3.4 0 .9 0 1.1-.5 2.9l-11.9 47.9zm45.3 6.7c-7.4 15.9-18.6 24.4-19.9 24.4-.7 0-1.2-.5-1.2-1.2 0-.4 0-.6 1.6-2.1 15.5-15.7 20.1-37.7 20.1-59.1 0-26.1-7.1-46-19.4-58.4-2.4-2.3-2.4-2.5-2.4-2.9 0-.7.5-1.2 1.2-1.2 1.2 0 12 8.1 19.5 23.5 6.9 14.1 8.2 29.3 8.2 39 .2 10.4-1.3 24.3-7.7 38zm48.5 0c-7.4 15.9-18.6 24.4-19.9 24.4-.7 0-1.2-.5-1.2-1.2 0-.4 0-.6 1.6-2.1 15.5-15.7 20.1-37.7 20.1-59.1 0-26.1-7.1-46-19.4-58.4-2.4-2.3-2.4-2.5-2.4-2.9 0-.7.5-1.2 1.2-1.2 1.2 0 12 8.1 19.5 23.5 6.9 14.1 8.2 29.3 8.2 39 .1 10.4-1.4 24.3-7.7 38zm92.5-6.7c-.7 1.8-1.1 2.6-2.8 2.6-1.1 0-1.9-.5-2.9-2.6l-31.1-70.4c-.8-1.5-.8-1.8-.8-2 0-1.4 1.1-2.5 2.5-2.5.9 0 1.9.3 2.9 2.6l29.4 66.2 29.4-66.1c.9-1.9 1.6-2.8 2.9-2.8 1.4 0 2.5 1.1 2.5 2.5 0 .6-.1.9-.9 2.5l-31.1 70zM433 480.9c-1.2 0-12-8.1-19.5-23.5-6.9-14.1-8.3-29.3-8.3-39 0-10.5 1.5-24.4 7.9-38.1 7.4-15.9 18.6-24.4 19.9-24.4.8 0 1.2.4 1.2 1.2 0 .4 0 .6-1.6 2.1-15.4 15.6-20.1 37.4-20.1 59.1 0 19.1 4 42.8 19.6 58.5 2.1 2.1 2.1 2.4 2.1 2.8.1.9-.4 1.3-1.2 1.3zm48.5 0c-1.2 0-12-8.1-19.5-23.5-6.9-14.1-8.3-29.3-8.3-39 0-10.5 1.5-24.4 7.9-38.1 7.4-15.9 18.6-24.4 19.9-24.4.8 0 1.2.4 1.2 1.2 0 .4 0 .6-1.6 2.1-15.4 15.6-20.1 37.4-20.1 59.1 0 19.1 4 42.8 19.6 58.5 2.1 2.1 2.1 2.4 2.1 2.8 0 .9-.5 1.3-1.2 1.3zm61-52.6c-.5 1.8-1.4 5.6-1.4 9.1 0 7.1 3.4 10.9 9.3 10.9 6.1 0 10.5-4.4 13.7-11 3.3-6.4 6.9-18.6 6.9-22.9 0-6-3.1-9.3-4.5-10.6-1.1-1-1.9-1.8-1.9-3.4 0-2.8 3.1-6 6.2-6 2.1 0 5.5 1.9 5.5 8.8 0 6-4 22.8-8.2 32.5-3.2 7.5-8.7 15.4-18.1 15.4-3.8 0-12.4-.7-15.6-8.7-5 8.7-10.9 8.7-13 8.7-9.4 0-17.8-4.4-17.8-15.7 0-4.8 1.5-10.5 7-25.3.9-2.1 2.2-5.6 2.2-8.7 0-4-2-4.1-3.1-4.1-4.4 0-9.3 3.9-12.6 15.5-.6 2-.7 2.2-2 2.2-.3 0-1.5 0-1.5-1.2 0-1.1 4.6-19.3 16.5-19.3 6.1 0 10.2 4.6 10.2 10.3 0 2.5-.7 4.3-2.1 8-5.9 15.4-6.5 20.3-6.5 24.2 0 2.1 0 11.4 10 11.4 4.9 0 8.6-3.9 11.5-10.5-.1-.6-.1-.9-.1-2.3 0-2.3.2-4.5 1.1-8.3.9-3.2 6.8-27.1 7.1-28 .9-2.5 3.1-3.5 4.6-3.5 1.9 0 3.6 1.1 3.6 3.4 0 .7-1.2 5.4-1.9 8.1l-5.1 21zm86.6-7.4c-2.2 0-4.5 0-4.5-2.5s2.3-2.5 4.5-2.5H722c-5.4-4-9-8.4-11.5-12.1-5.3-8.4-6.4-16.3-6.4-16.5 0-1.5 1.5-1.5 2.5-1.5 2.1 0 2.3.4 2.6 1.9 4.7 21 19.9 27.3 25.4 29.4.2.1 1 .5 1 1.4 0 .9-.4 1.1-1.9 1.6-14.1 5.7-21.5 16.2-24.4 28.5-.5 2.3-.6 2.5-2.8 2.5-1 0-2.5 0-2.5-1.5 0-.1 1-8 6.6-16.6 1-1.6 4.4-6.8 11.2-12h-92.7zm168.3 18c2.6 0 4.5.5 8.7 2.1 2.6.9 4.9 1.6 7.4 1.6 4.1 0 12.1-2.4 15-10.5.4-.9.6-1.6 1.8-1.6 1 0 1.5.6 1.5 1.2 0 3.4-7.2 19.2-19.6 19.2-3.6 0-5.9-2-8-4.6-3.1-3.6-4.4-4.8-7.2-4.8-4 0-7.8 3.4-10.6 7.8-.7 1.4-1 1.6-2 1.6-.2 0-1.5 0-1.5-1.2 0-.9 4.4-8 12.9-16.4l11.2-10.5c2.4-2 12.9-11 17.4-16.4-3.2 0-4.6 0-9.6-1.9-2.9-1-5.3-1.9-7.9-1.9-1 0-8.3.1-10.6 5.9-.2.7-.5 1.4-1.6 1.4s-1.5-.7-1.5-1.4c0-2.6 5.8-14.3 15.1-14.3 4.1 0 6.2 2.5 8.6 5.4 1.9 2.1 3.4 4 6.4 4 3 0 5.6-2 9.4-8 .6-1.1 1-1.4 1.9-1.4.2 0 1.4 0 1.4 1.2 0 .5-2.8 6.5-14.6 18.1-4.5 4.5-12.3 11.1-12.3 11.3-4.5 3.9-8.1 7-14.9 14.2.9-.1 2.9-.1 3.2-.1zm71.9 17.6c-7.4 15.9-18.6 24.4-19.9 24.4-.8 0-1.2-.5-1.2-1.2 0-.4 0-.6 1.6-2.1 15.5-15.7 20.1-37.7 20.1-59.1 0-26.1-7.1-46-19.4-58.4-2.4-2.3-2.4-2.5-2.4-2.9 0-.7.5-1.2 1.2-1.2 1.2 0 12 8.1 19.5 23.5 6.9 14.1 8.3 29.3 8.3 39 .1 10.4-1.4 24.3-7.8 38zm123.7-8.6c.7 1.5.7 1.8.7 2 0 1.4-1.1 2.5-2.5 2.5-.5 0-1.8 0-2.9-2.6L959 383.5l-29.4 66.3c-1 2.4-2 2.6-2.9 2.6-1.4 0-2.5-1.1-2.5-2.5 0-.6.1-.9.9-2.5l31.1-69.9c.7-1.8 1.1-2.6 2.8-2.6 1.1 0 1.9.5 2.9 2.6l31.1 70.4zm75.6 33c-1.2 0-12-8.1-19.5-23.5-6.9-14.1-8.3-29.3-8.3-39 0-10.5 1.5-24.4 7.9-38.1 7.4-15.9 18.6-24.4 19.9-24.4.7 0 1.2.4 1.2 1.2 0 .4 0 .6-1.6 2.1-15.4 15.6-20.1 37.4-20.1 59.1 0 19.1 4 42.8 19.6 58.5 2.1 2.1 2.1 2.4 2.1 2.8 0 .9-.5 1.3-1.2 1.3zm57.2-31.1c-3.5 14.1-16.4 25.5-29.2 25.5-7.8 0-13.3-4.6-13.3-10.9 0-6.1 4.1-8.1 7-8.1 1.2 0 4.6.5 4.6 4.4 0 2.4-1.2 4-2.5 5.1-1.8 1.5-3.4 1.5-5.4 1.5 2.1 4.9 7.8 5.2 9.5 5.2 5.7 0 10.5-3.6 13.7-7.9 5-6.6 6.5-12.7 8.1-19.2-3.5 3.5-7.7 5.6-12.6 5.6-7.4 0-15.3-3.7-15.3-14.9 0-5.9 2.3-13 7.3-26.3.9-2.4 2.1-5.6 2.1-8.8 0-4-2.1-4-3.1-4-4.3 0-9.3 3.8-12.6 15.5-.6 2-.8 2.2-2 2.2-.2 0-1.5 0-1.5-1.2 0-1.1 4.6-19.3 16.5-19.3 6.2 0 10.2 4.6 10.2 10.3 0 2.5-.5 3.9-2.5 9-4.3 11-6.4 18.8-6.4 24.5 0 4.6 1.4 10.1 7.8 10.1 8.2 0 13.6-8.7 14.1-10.6l5.6-22.5c.7-3.4 1.6-6.8 2.5-10 .5-2.2 1.5-6.1 1.8-6.8 1.1-1.9 3.1-2.6 4.4-2.6 1.9 0 3.6 1.1 3.6 3.4 0 .9 0 1.1-.5 2.9l-11.9 47.9zm63.2-28.9c-2.2 0-4.5 0-4.5-2.5s2.3-2.5 4.5-2.5h92.9c-5.4-4-9-8.4-11.5-12.1-5.3-8.4-6.4-16.3-6.4-16.5 0-1.5 1.5-1.5 2.5-1.5 2.1 0 2.3.4 2.6 1.9 4.7 21 19.9 27.3 25.4 29.4.2.1 1 .5 1 1.4 0 .9-.4 1.1-1.9 1.6-14.1 5.7-21.5 16.2-24.4 28.5-.5 2.3-.6 2.5-2.8 2.5-1 0-2.5 0-2.5-1.5 0-.1 1-8 6.6-16.6 1-1.6 4.4-6.8 11.2-12H1189zm200.8 7.4c-.5 1.8-1.4 5.6-1.4 9.1 0 7.1 3.4 10.9 9.3 10.9 6.1 0 10.5-4.4 13.7-11 3.3-6.4 6.9-18.6 6.9-22.9 0-6-3.1-9.3-4.5-10.6-1.1-1-1.9-1.8-1.9-3.4 0-2.8 3.1-6 6.2-6 2.1 0 5.5 1.9 5.5 8.8 0 6-4 22.8-8.2 32.5-3.2 7.5-8.7 15.4-18.1 15.4-3.7 0-12.4-.7-15.6-8.7-5 8.7-10.9 8.7-13 8.7-9.4 0-17.8-4.4-17.8-15.7 0-4.8 1.5-10.5 7-25.3.9-2.1 2.2-5.6 2.2-8.7 0-4-2-4.1-3.1-4.1-4.4 0-9.3 3.9-12.6 15.5-.6 2-.8 2.2-2 2.2-.2 0-1.5 0-1.5-1.2 0-1.1 4.6-19.3 16.5-19.3 6.1 0 10.2 4.6 10.2 10.3 0 2.5-.7 4.3-2.1 8-5.9 15.4-6.5 20.3-6.5 24.2 0 2.1 0 11.4 10 11.4 4.9 0 8.6-3.9 11.5-10.5-.1-.6-.1-.9-.1-2.3 0-2.3.2-4.5 1.1-8.3.9-3.2 6.8-27.1 7.1-28 .9-2.5 3.1-3.5 4.6-3.5 1.9 0 3.6 1.1 3.6 3.4 0 .7-1.2 5.4-1.9 8.1l-5.1 21zm68.6 28.2c-7.4 15.9-18.6 24.4-19.9 24.4-.8 0-1.2-.5-1.2-1.2 0-.4 0-.6 1.6-2.1 15.5-15.7 20.1-37.7 20.1-59.1 0-26.1-7.1-46-19.4-58.4-2.4-2.3-2.4-2.5-2.4-2.9 0-.7.5-1.2 1.2-1.2 1.2 0 12 8.1 19.5 23.5 6.9 14.1 8.3 29.3 8.3 39 .1 10.4-1.5 24.3-7.8 38zm48.5 0c-7.4 15.9-18.6 24.4-19.9 24.4-.8 0-1.2-.5-1.2-1.2 0-.4 0-.6 1.6-2.1 15.5-15.7 20.1-37.7 20.1-59.1 0-26.1-7.1-46-19.4-58.4-2.4-2.3-2.4-2.5-2.4-2.9 0-.7.5-1.2 1.2-1.2 1.2 0 12 8.1 19.5 23.5 6.9 14.1 8.3 29.3 8.3 39 .1 10.4-1.5 24.3-7.8 38z" fill="#e0e0e0"/></svg>