<svg xmlns="http://www.w3.org/2000/svg" viewBox="0 0 1920 673" xml:space="preserve"><style>.st2{fill:#fff}</style><path fill="#721412" d="M0 0h1920v673H0z"/><path d="m1903.7 561.1-5-50.3c3.1-.8 5.3-3.5 5.3-6.8 0-3.9-3.1-7-7-7-1.6 0-3 .5-4.2 1.4l-53.4-52.8 42.8-152.7c1.6-.1 2.8-1.4 2.8-3 0-1.7-1.3-3-3-3-.6 0-1.1.2-1.5.4l-105.1-87.1c.4-.7.6-1.5.6-2.3 0-2.7-2.2-4.9-4.9-5l-8.4-48.3 8.7-7.5c1.2 1.1 2.8 1.7 4.6 1.7 3.9 0 7-3.1 7-7s-3.1-7-7-7c-.9 0-1.7.2-2.5.5l-18.7-33.6c.8-.7 1.2-1.7 1.2-2.9 0-.5-.1-1-.3-1.4L1877.9 0h-3.4l-120 85.9c-.7-.6-1.6-.9-2.6-.9-.5 0-.9.1-1.3.2L1715 31.3c1.2-1.1 1.9-2.6 1.9-4.4 0-3.3-2.7-6-6-6l-3.6-21h-2l3.7 21.3c-1.4.5-2.6 1.5-3.3 2.8l-56.4-19.8 2.4-4.3h-2.3l-2 3.7-6.2-2.2-.5-1.5h-2.1l.2.6-1.8-.5h-6l8.7 3.1 1.3 3.7c-.4.2-.7.4-1 .7l-9.2-7.5h-3.2l2.7 2.2-3.4-2.2h-3.7l12.7 8-22.5-8h-5.9l25.7 9.2-55-9.2H1566l72.1 12c0 3.3 2.7 6 6 6 2.5 0 4.7-1.5 5.6-3.7l55.5 12.4v.3c0 3.2 2.5 5.8 5.6 6l7.6 75.1c-1.9 1.2-3.2 3.4-3.2 5.9 0 3 1.9 5.5 4.5 6.5l5 49.7c-1.9.6-3.3 2.3-3.5 4.4l-134.5 17.2c-.4-.5-.9-.8-1.6-.8-.8 0-1.5.5-1.8 1.2l-82.5 10.4c-.5-1-1.5-1.7-2.7-1.7-1.7 0-3 1.3-3 3v.1l-49.8 20.1c-.9-1.3-2.4-2.2-4.2-2.2-.3 0-.6 0-.9.1l-35.7-88.9c1-.7 1.6-1.9 1.6-3.2 0-.3 0-.6-.1-.9l87.3-45.9c.9 1.1 2.3 1.8 3.8 1.8 2.8 0 5-2.2 5-5 0-1.8-1-3.4-2.4-4.3l6-16.9c.4.1.9.1 1.4.1 3.9 0 7-3.1 7-7s-3.1-7-7-7c-2.5 0-4.6 1.3-5.9 3.2L1452 25.5c0-.2.1-.5.1-.7 0-1-.4-1.9-1-2.6l15-22.2h-2.4l-14.4 21.2c-.4-.1-.9-.2-1.3-.2-.2 0-.5 0-.7.1L1438.2.8c.4-.2.7-.5 1.1-.8h-10.5c1.4 1.2 3.3 2 5.3 2 .8 0 1.6-.1 2.4-.4l9.1 20.3c-.9.7-1.5 1.8-1.5 3.1 0 2.2 1.8 4 4 4 .6 0 1.2-.1 1.7-.4l14.5 17.7c-.1.2-.1.5-.1.7 0 .3.1.5.2.8l-60.6 78.6c-.1 0-.1 0-.2-.1l.8-7.3c4.3-.1 7.8-3.6 7.8-8s-3.6-8-8-8-8 3.6-8 8c0 3.8 2.6 7 6.2 7.8l-.8 7.3c-1.9.3-3.4 1.9-3.4 3.9 0 2.2 1.8 4 4 4 .2 0 .3 0 .5-.1l35.7 88.9c-1.4.9-2.2 2.4-2.2 4.2 0 1.9 1 3.5 2.6 4.3l-34 107.7c-.9.2-1.6 1-1.6 2 0 1.1.9 2 2 2 .2 0 .3 0 .5-.1l40.8 43.3 12.4 60.3c-.4.4-.7.9-.7 1.5 0 .5.2 1 .6 1.4l-16.9 60.6h-.6c-3.3 0-6 2.7-6 6 0 1.9.8 3.5 2.2 4.6L1408 571c-1.1 0-2 .9-2 2 0 .2.1.5.1.7l-22.8 27.6c-1.2-.8-2.7-1.3-4.3-1.3-3.5 0-6.4 2.2-7.5 5.3l-19.5-4.5v-.8c0-4.4-3.6-8-8-8-2.8 0-5.2 1.4-6.7 3.6l-41.4-20.7c0-.2-.1-.4-.1-.6l17.8-22.3h.3c1.1 0 2-.9 2-2s-.9-2-2-2-2 .9-2 2c0 .3.1.5.1.7l-17.8 22.3h-.3c-1.1 0-2 .9-2 2 0 .9.6 1.6 1.3 1.9l17.4 96.1h2l-17.4-96.2 41.1 20.6c-.3.8-.5 1.7-.5 2.7 0 3.2 1.9 6 4.6 7.3l-21 65.7h2.1l20.8-65.1c.5.1 1 .1 1.5.1 3.5 0 6.4-2.2 7.5-5.3l19.5 4.5v.8c0 2.2.9 4.2 2.4 5.7l-45.7 59.3h2.5l44.8-58.1c1.2.7 2.6 1.1 4.1 1.1 4.4 0 8-3.6 8-8 0-2.1-.8-4-2.2-5.5l22.8-27.6h.3c.3 0 .5-.1.8-.1l59.4 46.2c-.1.3-.2.6-.2.9 0 1.7 1.3 3 3 3 .7 0 1.3-.2 1.8-.6l34.3 23-7.9 25.6h2.1l7.5-24.4 1.8 1.2 1.1 23.3h2l-1-21.9 30.6 20.5c-.1.4-.2.9-.2 1.3h8c0-2.2-1.8-4-4-4-.8 0-1.5.2-2.1.6l-29-28.2c.7-1 1.1-2.1 1.1-3.4 0-1.8-.8-3.5-2.1-4.6l8.9-15.1c1 .4 2.1.7 3.2.7 4.4 0 8-3.6 8-8v-.3l75.4-12.3c.5.9 1.5 1.6 2.6 1.6h.3l25.2 52.1c-1.5 1.1-2.5 2.9-2.5 4.9 0 3.3 2.7 6 6 6h.2l2 10h2l-2-10.4c.5-.2 1-.5 1.5-.8l11.9 11.2h2.9l-3.3-3.1 4.1 3.1h3.3l-17.2-13.2c.4-.8.7-1.8.7-2.8 0-.8-.2-1.6-.5-2.3l40.1-25.2c.5.6 1.2 1.2 1.9 1.6l-16 41.9h2.1l15.7-41.2c.5.1 1 .2 1.5.2 1.5 0 2.8-.5 3.9-1.2l38.8 42.2h4.2l7-11h.1c1.1 0 2-.9 2-2l67.1-38-54.7 51h2.9l51.6-48.1-35.1 48.1h2.5l35.8-49c1 .5 2 .9 3.2 1l1.9 48h2l-1.9-48.1c3.8-.6 6.7-3.9 6.7-7.9 0-1.3-.3-2.5-.8-3.5l71-47.1c.5.4 1.1.6 1.8.6 1.7 0 3-1.3 3-3 .2-1.4-.8-2.6-2.1-2.9zM1646 6.3c-.6-.2-1.3-.3-2-.3-.4 0-.7 0-1.1.1l-.8-2.2 4.3 1.5-.4.9zm4 6V12c0-1.9-.9-3.6-2.3-4.7l.7-1.2 46.2 16.2-44.6-10zm-146.3 45.9-6 16.9c-.2 0-.5-.1-.7-.1-1 0-1.9.3-2.6.8l-25.8-27.4 31.4 3.8c.1 2.6 1.6 4.8 3.7 6zm-52.2-30.5 48.8 22.3v.1l-32.4-4c-.3-.7-1-1.2-1.8-1.2h-.3l-14.3-17.2zm14.2 21.3h.3c.2 0 .3 0 .5-.1l26.5 28.2c-.6.8-.9 1.8-.9 2.9 0 .5.1.9.2 1.4l-86.6 45.6 60-78zm426.7 460.2-14.1 21.5L1837 478l53.3 24.1c-.2.6-.3 1.3-.3 1.9 0 2.1.9 4 2.4 5.2zm-59.4-40.6.8-2.7 46.6 29-45.4-22c.1-.3.1-.5.1-.8-.1-1.6-.9-2.8-2.1-3.5zm-46.9-17.8 5.2-11.4 33.1 20.6 4.1 8.9c-.3.2-.5.4-.7.7l-40.8-16.5v-.1c0-.9-.4-1.6-.9-2.2zm16.1-47.8c-1.9.2-3.6 1.1-4.9 2.3l-78-59.6c.4-.8.7-1.8.7-2.8 0-.3 0-.6-.1-.8l26.8-8.4 51.6-8.6c.8 2.5 2.9 4.3 5.5 4.8l-1.6 73.1zm3.2 15.6 17.5 38.1-30.8-19.2 8.6-18.9c.7.2 1.5.4 2.4.4.7 0 1.5-.1 2.3-.4zM1798 323v.2l-37.7 6.3 102.8-32.4-52.1 22.3c-1.2-2-3.4-3.4-6-3.4-3.9 0-7 3.1-7 7zm-51.8 8.8-25 4.2 103.1-28.8-78.1 24.6zm-13.6 4.3-13.3 4.2c-.3-.7-.8-1.3-1.4-1.8l14.7-2.4zm-14.5 11.3 38.9 29.7-40.4-28.7c.5-.3 1-.6 1.5-1zm77.8 59.8c-.2.4-.4.9-.6 1.4l-65.4-11.7c-.1-2.7-2.3-4.9-5-4.9-.3 0-.6 0-.8.1l-18.1-46.9 1.2-.9 1.1.8c.8 2.3 3 3.9 5.6 4l82 58.1zm-.9 3.4v.4c0 2.9 1.5 5.4 3.8 6.8l-8.4 18.7-60.4-37.6 65 11.7zm32.5 51.3 4.5 2.8-.9 3.3h-.1c-.2 0-.5 0-.7.1l-2.8-6.2zm-1.5-3.3-18.7-40.8c.2-.2.5-.3.7-.5l29.2 28.9-4.6 16.5-6.6-4.1zm64 39.8-55.6-34.6 4.5-16 51.1 50.6zm-52.2-54.4-28.5-28.2c1-1.3 1.7-3 1.7-4.9 0-2.4-1.1-4.6-2.8-6.1l71.1-108.9-41.5 148.1zm-31.3-40.2c-.7-.4-1.5-.6-2.3-.7l1.7-73.2c3.5-.4 6.2-3.4 6.2-6.9 0-.6-.1-1.2-.2-1.8l67.6-29-73 111.6zm-37.3-210.4c-.8.3-1.5.9-2.1 1.5l-36.3-18.6c.1-.4.2-.9.2-1.3 0-.9-.2-1.7-.7-2.4l30.6-26.3 8.3 47.1zm2.6-67c-1.7 1.3-2.8 3.3-2.8 5.6 0 1.4.4 2.7 1.1 3.8l-7.8 6.7-8.3-47.8 17.8 31.7zm-20.1-33.1 8.8 50.6L1729 171c-.2-.2-.4-.3-.7-.4l23.4-77.3zm-31.6 14zm-7.4-74.6c.2-.1.5-.2.7-.3l35.6 53.8c-.6.7-1 1.6-1 2.7 0 .6.1 1.2.4 1.7l-21.7 18.1c-1.2-1.1-2.8-1.8-4.6-1.8l-9.4-74.2zm10.8 88.1c3.2-.7 5.5-3.5 5.5-6.8 0-1.3-.4-2.6-1-3.7l21.7-18.1c.1.1.2.1.3.2l-23.3 77-3.2-48.6zm-290.4 134.5-8.2 33.8c-2.3 1.4-3.9 3.9-3.9 6.9 0 1.6.5 3 1.2 4.2l-4.8 19.8h-.4c-2.4 0-4.4 1.4-5.4 3.4l21.5-68.1zm1.7 1.5-5.4 31.2h-.4c-.6 0-1.2.1-1.8.2l7.6-31.4zm-23.7 68.3c0 .3-.1.6-.1.9 0 1.5.6 2.9 1.5 4l-5 6.2 3.6-11.1zm35.8 54.3 14.3 19.8-13.1-13.9-1.2-5.9zm2 9.6 15.9 16.9c-1.1 1.4-1.8 3.2-1.8 5.1 0 3.3 2 6.1 4.8 7.3l-7.6 25.6-11.3-54.9zm11.8 60.9c.7-.3 1.3-1 1.3-1.9 0-.5-.2-1-.5-1.4l8.2-27.7c.4.1.9.1 1.3.1 1 0 1.9-.2 2.8-.5l39.2 75.8c-1.8 1.3-2.9 3.3-2.9 5.7 0 .3 0 .6.1.9l-53.7 15.2c-.8-1.9-2.4-3.3-4.4-3.9l8.6-62.3zm-6.6 74.8c1.4-1 2.4-2.4 2.7-4.1l52.3 4.2c.1.3.2.5.3.7l-33.3 38.7c-.3-.1-.7-.2-1.1-.2h-.4l-20.5-39.3zm11.5 26.3-16.8-25.1c.4.1.8.1 1.2.1.8 0 1.6-.1 2.3-.4l13.3 25.4zm-8.7-88.2L1450 512c-1.4 0-2.6.4-3.7 1.1-.6-1.1-1.6-2-2.7-2.5l13.3-47.8zm-18 58.8c.7.2 1.4.4 2.1.4.9 0 1.7-.2 2.4-.5.3.9.8 1.7 1.5 2.3l-28.8 37 22.8-39.2zm7.3 4 26.4 39.7c-.2.3-.4.7-.5 1l-61.9 5.5 36-46.2zm24 93.5c-.3.1-.6.2-.8.4l-58.8-45.7 61.7-5.5c.3.7.8 1.2 1.5 1.5l-3.6 49.3zm2 .2 3.6-49.4c.3-.1.5-.2.8-.3l30.8 24.8c-.2.5-.4 1.1-.4 1.6 0 .4.1.9.2 1.3l-34.4 22.4c-.2-.2-.4-.3-.6-.4zm36.1-20.4c.5.4 1 .8 1.7.9v13.5l-34.1 6.7 32.4-21.1zm-.6 46.5-28.3-19 25.7 10.3c-.1.4-.1.8-.1 1.3 0 2.3 1.3 4.4 3.3 5.4l-.6 2zm-1.8-10.5-31.4-12.5 35.5-7v16.7c-1.7.3-3.2 1.3-4.1 2.8zm3.5 11.7.8-2.6h.1l.2 3.3-1.1-.7zm.7-54.5c-.5.1-1 .4-1.4.7l-30.8-24.8c.1-.3.2-.6.2-1 0-.5-.2-1-.4-1.5l33.3-38.7-.9 65.3zm1.5-71.1c-1 .1-1.9.8-2.3 1.7l-49.1-5.5 50.4-14.3c.8 1.7 2.2 3.1 4 3.7l-3 14.4zm7.4 90.5-7 1.4v-13.1c.4-.1.8-.3 1.1-.5l7.4 6.9c-1 1.3-1.5 2.9-1.5 4.7v.6zm19.4 54.5-25.9-17.4-.2-4.8c.8-.2 1.6-.5 2.3-1l23.8 23.2zm-25.2-33.6-1.2-.3V615l7.4-1.5c.5 1.5 1.5 2.8 2.7 3.8l-8.9 15.1zm8.7-27.6-7.4-6.9c.3-.6.5-1.2.5-1.9 0-1.8-1.3-3.4-2.9-3.8l.8-57.3 11.8 68.5c-1.1.3-2 .8-2.8 1.4zm90.3-10.7c-1.1.3-2 1.2-2.2 2.4l-75.4 12.3c-1-3.3-4-5.7-7.7-5.7h-.4l-13.2-76.4c.9-.5 1.5-1.5 1.5-2.6s-.6-2-1.4-2.6l3-14.5h.4c3.9 0 7-3.1 7-7s-3.1-7-7-7c-.8 0-1.6.1-2.3.4l-39.2-75.8c2.1-1.4 3.5-3.9 3.5-6.6 0-4.4-3.6-8-8-8-1.4 0-2.7.4-3.8 1l-20.3-28.2c.1-.2.2-.5.2-.8 0-1.1-.9-2-2-2s-2 .9-2 2c0 .9.6 1.6 1.4 1.9l1.2 5.6-38.6-41c.1-.2.1-.4.1-.6 0-.3-.1-.5-.1-.7l7.2-9c.9.5 1.9.8 2.9.8 3.3 0 6-2.7 6-6 0-2.5-1.5-4.6-3.6-5.5l4.5-18.4c1.4 1.2 3.2 1.9 5.2 1.9 4.4 0 8-3.6 8-8 0-3.6-2.4-6.6-5.7-7.6l9.8-56.4c2.7-.1 4.9-2.3 4.9-5 0-.3 0-.6-.1-.9l49.9-20.1c.5.6 1.3 1 2.2 1 1.4 0 2.6-1 2.9-2.4l82.5-10.4.2.2L1562 275c-2.2 0-4 1.8-4 4s1.8 4 4 4 4-1.8 4-4c0-1.5-.8-2.8-2-3.5l21.6-80.6c.6-.2 1.1-.6 1.3-1.1l134.4-17.2c.7 2 2.5 3.4 4.7 3.4 1.6 0 3-.7 3.9-1.9l36.3 18.6c-.1.4-.2.9-.2 1.3 0 2.8 2.2 5 5 5 1.2 0 2.3-.4 3.1-1.1l105.1 87.1c-.1.3-.2.5-.2.8l-170.6 47.7c-1-2-3-3.4-5.4-3.4-1.9 0-3.6.9-4.7 2.3l-95.6-51.4c.2-.6.3-1.2.3-1.9 0-3.3-2.7-6-6-6s-6 2.7-6 6 2.7 6 6 6c1.9 0 3.6-.9 4.7-2.3l95.6 51.4c-.2.6-.3 1.2-.3 1.9 0 2.4 1.4 4.5 3.5 5.4l-21.9 80.6h-.6c-3.3 0-6 2.7-6 6 0 1.5.6 2.9 1.5 4l-51.5 63.2c-.3-.1-.6-.2-1-.2-1.7 0-3 1.3-3 3 0 1.2.7 2.3 1.8 2.7l-7.6 89.3zm28.1 57.1-23.4-48.4 21.4 23.7c-.2.4-.4.9-.4 1.4 0 1.3.9 2.5 2.1 2.8l.7 20.3c-.1.2-.2.2-.4.2zm.7-26.2c-.4 0-.8.1-1.2.2l-23.5-26 69.8 24.4c0 .2-.1.5-.1.7l-42.3 2.4c-.4-.9-1.5-1.7-2.7-1.7zm5.5 28c-.9-1-2.2-1.8-3.7-2l-.7-20.3c.9-.3 1.5-1.1 1.8-1.9l42.3-2.4c.1.5.3 1 .5 1.4l-40.2 25.2zm91.4 19.5-38.9-42.3 46 29.8v.1c0 .3.1.6.2.9l-7.3 11.5zm10.1-14.2c-.3-.2-.6-.3-1-.3-.3 0-.6.1-.9.2l-46.7-30.3c.3-.7.6-1.5.6-2.4l115.2-7.1c.1.5.3 1.1.5 1.6l-67.7 38.3zm75-49.3c-4.2 0-7.7 3.3-8 7.5l-115.2 7.1c-.7-3.2-3.5-5.6-6.9-5.6-2.7 0-5 1.5-6.2 3.8L1616 597c0-1.2-.7-2.2-1.8-2.7l7.5-89.4c1.3-.3 2.2-1.5 2.2-2.9 0-.6-.2-1.1-.4-1.6l51.5-63.2c.9.5 1.9.8 3 .8 3.3 0 6-2.7 6-6 0-2.4-1.4-4.5-3.5-5.4l21.9-80.6h.6c.4 0 .8 0 1.2-.1l18.1 46.9c-1.4.9-2.3 2.4-2.3 4.2 0 2.8 2.2 5 5 5 1.4 0 2.7-.6 3.6-1.6l60.9 37.9-5.3 11.7h-.2c-1.7 0-3 1.3-3 3s1.3 3 3 3c.9 0 1.6-.4 2.2-.9l41.2 18.6c.6 1.4 2 2.3 3.6 2.3.4 0 .8-.1 1.1-.2l.9.4 44.1 56.3-50.6 77.3c-1.1-.5-2.2-.8-3.5-.8zm77.1-44.3-71 47.1-.9-.9 50.2-76.7 22.1 28.2c-.3.5-.5 1-.5 1.6 0 .3 0 .5.1.7zm-20.5-32.3 14.5-22.1c.8.4 1.7.6 2.6.6l5 49.7-22.1-28.2zM1883.5.7c-.2-.2-.3-.4-.4-.7h13.8c-1.4 2.4-4 4-6.9 4h-.8l12.2 60.1c1.5.2 2.6 1.4 2.6 3 0 1.7-1.3 3-3 3s-3-1.3-3-3c0-1.1.6-2 1.5-2.6l-12.4-61c-.7-.3-1.3-.6-1.9-1l-12 63c2.7.9 4.7 3.5 4.7 6.6 0 3.9-3.1 7-7 7s-7-3.1-7-7 3.1-7 7-7h.3L1883.5.7zm-600.1 304.1 33.1-82.8c.2 0 .3.1.5.1 2.2 0 4-1.8 4-4s-1.8-4-4-4c-1.2 0-2.2.5-2.9 1.3l-10.2-5.4c.1-.3.1-.6.1-.9 0-2.2-1.8-4-4-4s-4 1.8-4 4c0 .4.1.8.2 1.1l-25.5 15.5c-.9-1-2.2-1.6-3.7-1.6-2.8 0-5 2.2-5 5 0 .5.1 1 .2 1.5l-72.3 39.8c-.7-.8-1.8-1.3-2.9-1.3-.5 0-1.1.1-1.5.3l-34.4-45.8c.5-.7.9-1.5.9-2.5 0-2.2-1.8-4-4-4s-4 1.8-4 4c0 2 1.5 3.7 3.5 3.9l8.5 66.3c-3.4.9-6 4-6 7.7 0 .9.2 1.8.5 2.7l-.9.8c-.5-.3-1-.4-1.5-.4-1.7 0-3 1.3-3 3s1.3 3 3 3c.4 0 .8-.1 1.2-.3l11 11.7c-.8 1-1.2 2.3-1.2 3.6 0 3.2 2.5 5.8 5.6 6l8.1 85.3c-1.4.5-2.5 1.8-2.6 3.4l-97.4 15.5c-.8-2.4-3-4.1-5.7-4.1-.4 0-.8 0-1.1.1l-43.2-116c2.6-1.3 4.3-4 4.3-7.1 0-1.3-.3-2.4-.8-3.5l9.2-6c.9.9 2.2 1.5 3.6 1.5 2.8 0 5-2.2 5-5 0-1.9-1.1-3.5-2.6-4.4l39.7-33.1c1 .9 2.4 1.4 3.9 1.4 3.3 0 6-2.7 6-6s-2.7-6-6-6-6 2.7-6 6c0 1.1.3 2.1.8 3l-40.8 34c-2.5 0-4.5 1.8-4.9 4.1l-9.6 8c-.5-.5-1.1-.9-1.7-1.2l36.9-99h.4c2.2 0 4-1.8 4-4 0-1.9-1.3-3.4-3-3.9v-10.3c.5-.1 1-.4 1.5-.7l34 25.7c-.3.7-.5 1.4-.5 2.1 0 2.8 2.2 5 5 5s5-2.2 5-5c0-1.9-1.1-3.5-2.6-4.4l22-70.7c.2 0 .3-.1.5-.2l13.1 8.2v.1c0 1.1.9 2 2 2s2-.9 2-2c0-.2 0-.4-.1-.5l37.8-38.7c.4.2.8.3 1.3.3 1.7 0 3-1.3 3-3 0-1.5-1.1-2.7-2.5-3l-15-80.5c.9-.5 1.5-1.5 1.5-2.6 0-1.2-.7-2.3-1.8-2.7L1168 0h-2l-.8 11.1c-1.1.3-2 1.2-2.2 2.4l-34.5 6c-.5-.9-1.5-1.5-2.6-1.5-.6 0-1.1.2-1.6.5L1101.2 0h-3.2l24.1 19.2L1068 8.1l-2.5-8.1h-2.1l2.4 7.6-9-1.8-5.9-5.8h-3.3l-.3 2.4-1.8-2.4h-2.5l2.3 3.2-10.1-3.2h-6.8l2.3.7 2.2 61.6-27.7-56.9 6.3-5.4h-3.1l-4.1 3.5-1.7-3.5h-2.2l2.4 4.9L974 29.4c-1-.9-2.4-1.4-3.9-1.4-3.3 0-5.9 2.6-6 5.9l-17.7 2.6 4-33.5c2.1-.1 3.9-1.3 4.9-3h-10.5l-53.3 42.8c-.7-.5-1.5-.8-2.4-.8-2.2 0-4 1.8-4 4 0 .2 0 .4.1.6l-82.9 34.8c-.3-.3-.7-.4-1.2-.4h-.3l-32.6-41.2c1.2-1.3 1.9-2.9 1.9-4.8 0-1.8-.7-3.4-1.8-4.7l25-30.3h-2.6l-24.1 29c-1.1-.7-2.3-1-3.6-1-.5 0-.9 0-1.3.1L751.8 0h-2.1l10.1 28.8c-2.2 1.2-3.8 3.5-3.8 6.2 0 2 .8 3.8 2.1 5l-15.4 21.3c-1-.8-2.3-1.3-3.8-1.3-3.3 0-6 2.7-6 6 0 1.9.8 3.5 2.2 4.6l-2.1 3.6c-.3-.1-.7-.2-1-.2l-14.4-57.5c2.6-1 4.3-3.5 4.3-6.5 0-1.7-.6-3.3-1.7-4.6L725 0h-2.7l-3.6 4.1c-1-.7-2.3-1.1-3.7-1.1-3.9 0-7 3.1-7 7s3.1 7 7 7h.7l14.4 57.5c-1.2.7-2.1 2-2.1 3.5 0 2.2 1.8 4 4 4 .7 0 1.3-.2 1.9-.5l24.4 26.1c-.2.4-.3.9-.3 1.4 0 .9.4 1.6.9 2.2L728.2 179h-.2c-1.5 0-2.8 1.2-3 2.7l-81.6 19c-.4-.4-.9-.6-1.5-.6-.5 0-1 .2-1.4.6L557 176.1v-.1c0-2.2-1.8-4-4-4h-.2L539 127.3c2.4-1.1 4-3.5 4-6.3 0-3.9-3.1-7-7-7-2.4 0-4.5 1.2-5.7 3l-14.7-7.4c.3-.8.5-1.7.5-2.7 0-2.1-.8-3.9-2.1-5.4l9-10.5c.9.5 2 .9 3.1.9 3.3 0 6-2.7 6-6 0-2.6-1.7-4.9-4-5.7l4-5.8c.6.3 1.3.4 2 .4 2.8 0 5-2.2 5-5s-2.2-5-5-5h-.4L514.4 0h-2.1l19.4 65.6c-1.6.8-2.7 2.5-2.7 4.4 0 1.3.5 2.5 1.4 3.4l-4.4 6.3L512.1 0h-2L524 80.3c-2.3.8-4 3-4 5.7 0 .6.1 1.2.3 1.8l-8.5 12.1c-1.1-.6-2.4-.9-3.7-.9-4.4 0-8 3.6-8 8 0 3.3 2 6.1 4.8 7.3l-12 40.7c-1.6.1-2.8 1.4-2.8 3v.1l-49 19.9c-1.4-2.4-4-4.1-7-4.1-4.4 0-8 3.6-8 8s3.6 8 8 8 8-3.6 8-8c0-.7-.1-1.4-.3-2.1l49-20c.5.6 1.3 1 2.2 1 1 0 1.9-.5 2.4-1.2l53.6 16.1v.2c0 2 1.5 3.7 3.5 4l9.6 72.3c-2.9.8-5.1 3.5-5.1 6.7v.7l-45.6 11.6c-1.1-2.5-3.5-4.3-6.5-4.3-2.3 0-4.4 1.1-5.7 2.9l-54.5-28.5c.1-.4.2-.9.2-1.4 0-2.8-2.2-5-5-5s-5 2.2-5 5 2.2 5 5 5c1.6 0 2.9-.7 3.9-1.9l54.5 28.5c-.3.7-.4 1.5-.4 2.3 0 3.9 3.1 7 7 7s7-3.1 7-7l52.4-7.7c.4.5.9.8 1.6.8l39.7 66.1c-.4.5-.7 1.2-.7 1.9 0 1.7 1.3 3 3 3 .3 0 .7-.1 1-.2l6.5 8.2c-.9 1.1-1.5 2.5-1.5 4 0 2.8 1.9 5.1 4.4 5.8l-9.2 90.4c-.7.3-1.2 1-1.2 1.8v.2l-22.1 15.5c-1.5-1.6-3.6-2.6-5.9-2.6-4.4 0-8 3.6-8 8 0 3 1.6 5.6 4.1 7l-11.5 28.1c-.2 0-.4-.1-.5-.1-2.2 0-4 1.8-4 4 0 .8.3 1.6.7 2.3l-51.3 59.1c-1.3-.9-2.8-1.3-4.4-1.3-3.4 0-6.2 2.1-7.4 5L428 554.8v-.8c0-2.9-1.8-5.4-4.2-6.4l21-78.6h.3c2.8 0 5-2.2 5-5 0-1.4-.6-2.6-1.5-3.5l42.2-63.7c.4.1.8.2 1.3.2 2.2 0 4-1.8 4-4s-1.8-4-4-4c-1.3 0-2.5.7-3.2 1.7l-56.8-21.9c0-.3.1-.5.1-.8 0-2.8-2.2-5-5-5-.9 0-1.7.2-2.4.6L375 304.4c1.3-1.4 2.1-3.3 2.1-5.4 0-4.4-3.6-8-8-8-3.8 0-7 2.7-7.8 6.3l-32.3-2.9c-.3-1.6-1.5-2.9-3.1-3.3l-16.8-50.8c2.3-1.1 3.9-3.5 3.9-6.3 0-3.9-3.1-7-7-7h-.2l-10.7-62.4c2.8-.9 4.8-3.5 4.8-6.7 0-1.9-.8-3.7-2.1-5l38.8-52.1h.2c1.1 0 2-.9 2-2 0-.4-.1-.8-.4-1.1L369.2 34c1-.1 1.8-.9 1.8-2 0-.2 0-.5-.1-.7L397.7 0H394l-22.3 27.1L381 0h-3.1l-2.4 5.6 1.2-5.6h-2l-3.1 15-7.8 18.4-59.6 28c-.3-.2-.7-.4-1.1-.4-.6 0-1.2.3-1.5.7L241 51.3c-.3-.8-1-1.3-1.9-1.3-1.1 0-2 .9-2 2s.9 2 2 2c.4 0 .8-.1 1.1-.3L335 99.2c0 .1 0 .2.1.4l-66.1 66c-.6-.4-1.3-.6-2-.6-.5 0-.9.1-1.3.2l-46.6-70.8c1.2-1.1 1.9-2.7 1.9-4.4 0-3.3-2.7-6-6-6s-6 2.7-6 6 2.7 6 6 6c.6 0 1.1-.1 1.7-.2l47.4 70.6-.1.1-79.1-36c.1-.5.2-1 .2-1.5 0-3.3-2.7-6-6-6-2.5 0-4.6 1.5-5.5 3.7l-36.5-8.7c0-1.9-1.4-3.5-3.3-3.9l-4.2-57.2c3.1-.7 5.5-3.5 5.5-6.8 0-.6-.1-1.2-.2-1.8L186 26.9c.9 1.3 2.4 2.2 4.1 2.2 2.8 0 5-2.2 5-5s-2.2-5-5-5-5 2.2-5 5c0 .3 0 .7.1 1L135.4 46l13.2-9.8c.7.6 1.6.9 2.5.9 2.2 0 4-1.8 4-4s-1.8-4-4-4-4 1.8-4 4c0 .5.1 1 .3 1.5L133 45.1c-1.3-1.3-3-2.1-5-2.1-3.8 0-6.8 3-7 6.7l-93.2 9.6c-.7-2.8-3.1-5-6.1-5.3L19.4 0h-2l2.3 54.1c-3.2.6-5.7 3.5-5.7 6.9 0 3.9 3.1 7 7 7h.7l13.5 55.6c-3 1.1-5.2 4.1-5.2 7.5 0 4.4 3.6 8 8 8h.2l8.6 55.3c-3.3 1-5.8 4-5.8 7.7 0 4.4 3.6 8 8 8 3.6 0 6.7-2.4 7.7-5.8l88.4 14.1c.2 2 1.9 3.6 4 3.6.7 0 1.3-.2 1.8-.4l31.9 36.2c-.4.6-.7 1.4-.7 2.2 0 .7.2 1.4.6 2l-94.4 94.4c-1.2-.9-2.6-1.4-4.2-1.4-3.9 0-7 3.1-7 7 0 2.2 1 4.1 2.5 5.4l-49.4 80.8c-.4-.1-.8-.2-1.2-.2-2.2 0-4 1.8-4 4s1.8 4 4 4c1.1 0 2.2-.5 2.9-1.2L86.1 485c-.1.3-.1.7-.1 1 0 .3 0 .6.1.9L31.7 515c-1.3-1.8-3.3-2.9-5.7-2.9-3.9 0-7 3.1-7 7 0 3.7 2.9 6.7 6.5 7l4.3 57.3c-1.1.5-1.8 1.5-1.8 2.7 0 1.7 1.3 3 3 3s3-1.3 3-3c0-.5-.1-1-.4-1.4l3.2-3.5c.9.6 2 .9 3.2.9 3.3 0 6-2.7 6-6 0-1.5-.5-2.8-1.4-3.8l41-47.8c.7.4 1.5.6 2.4.6 2 0 3.7-1.1 4.5-2.8l55.6 14.5v.3c0 2.8 2.2 5 5 5l13.7 69.4c-2.7 1-4.7 3.5-4.7 6.6 0 3.1 2.1 5.8 4.9 6.7l-5.6 35.1c-1.4 1.3-2.3 3.1-2.3 5.2 0 1.3.3 2.5.9 3.5l-.7 4.5h2l.4-2.5c.3.3.7.5 1 .7l-.7 1.7h2.1l.4-1.1c.4.1.7.1 1.1.1l.1 1h3.4v-1.8c2.2-1.1 3.6-3.3 3.8-5.9l25.6-2.4-17.7 10h7.7l16.4-10.6 4.5-.4c1.1.6 2.3 1 3.6 1 1.8 0 3.4-.7 4.6-1.8l6.9-.6-30 12.4h5.2l26.2-10.8c1.1 1.7 2.9 2.8 5.1 2.8 3.3 0 6-2.7 6-6s-2.7-6-6-6c-1.7 0-3.3.7-4.4 1.9L175.3 621c.4-.9.7-1.9.7-3 0-3.9-3.1-7-7-7h-.4l-13.7-69.4c1.8-.8 3.1-2.5 3.1-4.6 0-.4-.1-.8-.2-1.2l59.3-28.3c1.1 1.5 2.9 2.5 4.9 2.5 3.3 0 6-2.7 6-6 0-.6-.1-1.2-.3-1.8l21.1-10.6 8.9 4.2 24.5 77.8c-1.9 1-3.3 3-3.3 5.3 0 3.3 2.7 6 6 6 .9 0 1.8-.2 2.6-.6l12.9 17.9c-.3.5-.5 1.1-.5 1.7 0 1.5 1.2 2.8 2.7 3l15.8 66h2.1l-13-54.4 20.8 54.4h2.1l-25.1-65.6 54.8 47.8c-.7 1.1-1.1 2.4-1.1 3.8 0 1.6.5 3.1 1.5 4.3l-9.5 9.7h2.8l4.7-4.8-3.3 4.8h2.4l5.4-7.7c.9.5 2 .7 3.1.7s2.1-.3 3.1-.7l5.3 7.7h2.4l-6-8.9c1.4-1.3 2.3-3.1 2.3-5.1 0-2-.8-3.7-2.1-5l56.7-78.3c.5.2.9.3 1.5.3 1.1 0 2.1-.5 2.8-1.2l77.2 44.6c0 .2-.1.4-.1.5 0 .4.1.8.3 1.2l-55.2 52h2.9l53.4-50.3c.4.2.9.3 1.4.3 1.7 0 3-1.3 3-3 0-1.5-1.1-2.7-2.5-2.9l-5.3-33.4c.8-.2 1.5-.6 2.2-1l43.3 49.8c-1.1 1.2-1.7 2.8-1.7 4.6 0 3.9 3.1 7 7 7 2.2 0 4.2-1.1 5.5-2.7l6.5 3.7c0 1.1.9 2 2 2s2-.9 2-2-.9-2-2-2c-.4 0-.7.1-1 .3l-6.5-3.7c.3-.8.5-1.7.5-2.6 0-3.9-3.1-7-7-7-1.4 0-2.7.4-3.8 1.1L511 581.3c1.3-1.4 2-3.3 2-5.3 0-.9-.2-1.8-.4-2.6l37.3-18.3c.5.5 1.3.9 2.1.9 1.3 0 2.3-.8 2.8-1.9l56.3 2.6c.4 3 2.9 5.3 6 5.3 3.3 0 6-2.7 6-6v-.5l18.6-4.6c1.2 3 4.1 5.1 7.5 5.1 4.4 0 8-3.6 8-8s-3.6-8-8-8-8 3.6-8 8c0 .3 0 .6.1 1l-18.6 4.6c-.9-2.1-3-3.6-5.5-3.6-.5 0-.9.1-1.4.2l-26.1-61.3 42.1-33.7c.7.5 1.5.8 2.4.8 2.2 0 4-1.8 4-4 0-.2 0-.4-.1-.7L679 433c.5.6 1.3.9 2.2.9.7 0 1.4-.3 1.9-.7l59.5 35.5c-.3.7-.4 1.4-.4 2.2 0 3.1 2.4 5.7 5.4 6l12.4 22.3c-1.1.9-1.8 2.3-1.8 3.8 0 2.4 1.7 4.4 3.9 4.9l-1.3 67.4c-2.1.6-3.6 2.5-3.6 4.8 0 2.1 1.3 3.9 3.1 4.6L742.4 673h2.9l16-67h.3l40.1 67.1h2.3L763.3 605c.4-.5.7-1.2.7-1.9 0-1.3-.8-2.4-1.9-2.8l.3-15.2c2.6-.2 4.6-2.3 4.6-5 0-2.4-1.7-4.4-3.9-4.9l.9-67.2c1.7-.3 3.1-1.5 3.7-3l91.5 16.8c.3.8 1 1.3 1.9 1.3.2 0 .4 0 .5-.1l70.5 69.6c0 .2-.1.3-.1.5 0 .9.5 1.6 1.3 1.9l1.7 10.5c-2.4.8-4 3-4 5.7 0 1.8.8 3.4 2.1 4.5L898 673h2.3l34.4-56.4c.7.3 1.4.4 2.2.4.9 0 1.8-.2 2.5-.6l31.5 45.9c-.6.7-1 1.6-1 2.6v.1l-29 7.9h7.6l22-6c.7 1.2 2 2 3.5 2h.3l1.3 4h2.1l-1.5-4.6c.5-.3 1-.8 1.3-1.4h.2l1.2 6h2l-1.1-5.4 19.5 5.4h7.5l-27.5-7.6-2.5-12.1 10.4-66.3c2.7-.1 4.8-2.3 4.8-5v-.4l113.6-33.3c.8 1.6 2.5 2.6 4.4 2.7l5.5 28.4c-3.2 1.1-5.5 4.1-5.5 7.6 0 4.4 3.6 8 8 8s8-3.6 8-8-3.6-8-8-8h-.5l-5.5-28.4c1.8-.8 3.1-2.5 3.1-4.6v-.4l44.7-13.1c.4.3.8.6 1.4.6 1.1 0 2-.9 2-2 0-.4-.1-.7-.3-1l47.9-15.5c.4.3.8.5 1.3.5 1.1 0 2-.9 2-2s-.9-2-2-2c-1 0-1.8.7-2 1.6l-49.9 16.1-88.3-90.2c.7-1 1.1-2.2 1.1-3.5l97.3-15.5c.6 1.4 2 2.4 3.7 2.4 2.2 0 4-1.8 4-4 0-2-1.5-3.6-3.4-3.9l-8.1-85.3c2.3-.6 4.1-2.6 4.4-5.1l93.2-4.4c.6 3.2 3.5 5.7 6.9 5.7 3.9 0 7-3.1 7-7 0-1.6-.5-3-1.4-4.2l2.4-2.4c.6.4 1.3.6 2 .6 2.2 0 4-1.8 4-4 0-1.2-.6-2.4-1.6-3.1zm-249.1-10.2c0 .1 0 .2.1.3l-1.7 1.1 1.6-1.4zm-513-204.8c.1 0 .1 0 0 0l-.6.8.6-.8zm10.1 36.5c1.2 1.1 2.8 1.7 4.6 1.7.4 0 .7 0 1.1-.1l12.8 41.6-24.7-37.9 6.2-5.3zm-16.7-14.9 14.7 7.4c-.2.7-.4 1.4-.4 2.2 0 1.4.4 2.7 1.1 3.8l-6 5.1-11-16.8c.6-.5 1.1-1 1.6-1.7zM494.9 155l11.8-40.1c.4.1.8.1 1.3.1 1.3 0 2.4-.3 3.5-.8l11.1 17-27.7 23.8zm54.7 18.9-53.6-16c0-.3-.1-.6-.2-.9l27.9-24 26.4 40.4c-.2.1-.4.3-.5.5zm-25.5 96.3 33.4-8.5c.5 1.3 1.5 2.4 2.6 3.2l-36 5.3zM373.4 15.6l.7-1.6-.9 2.6.2-1zm-4 9.4-1.1 5.1c-.7.2-1.3.9-1.4 1.7l-.6.3 3.1-7.1zm-4.2 9.9 1.7-.8-11.7 24.4 10-23.6zM245.9 54.2l55.2 9.5c.3.8 1 1.3 1.9 1.3.2 0 .3 0 .5-.1l29.1 30.8-86.7-41.5zm59 9.4c0-.1.1-.3.1-.4l57.5-27L336.7 97h-.2l-31.6-33.4zM165.4 658c-.7.1-1.3.2-1.9.4l3.1-19.4-1.2 19zm53.9 1.1c.2-.3.3-.6.4-1l3.5.6-3.9.4zm6.2-2.5c-.1.2-.1.3-.2.5l-5.3-.9v-.2c0-1.4-.4-2.7-1.1-3.8l6.6 4.4zm-22.7 4-16.4 1.5 20-3.8c0 .1.1.2.1.2l-3.7 2.1zm11.4-11.5c-.4-.1-.8-.1-1.2-.1-1.8 0-3.4.7-4.6 1.7l-27-23.3 32.8 21.7zm-44.3-24.2c1.4-.2 2.7-.8 3.7-1.7l33.5 29c-.7 1.1-1.1 2.4-1.1 3.8v.3l-33.4 6.4c-.6-1.6-1.7-3-3.2-3.8l.5-34zm257.6-68.2 67.8 17.8-47.8-2.5-20.3-14.7.3-.6zm61.5-161-42.2 63.7c-.6-.2-1.2-.3-1.8-.4l-8.8-46.8 52.3-17.1c.3.2.4.4.5.6zM421.4 415l-8.9-17.7 2.9-5.3 8.8 22.1-2.8.9zm3.4 1 11 27.6-13.5-26.8 2.5-.8zm-13.5-16.5 8.2 16.2-20.4 6.7 12.2-22.9zm-9.1 12.8 6.4-18.2 1.7 3.3-8.1 14.9zm9.1-17.2-1.9-3.7 2.6-7.5 2.3 5.7-3 5.5zm.7-16.1c-1.1 0-2 .9-2 2 0 .5.2.9.5 1.3l-2.3 6.6-9.5-18.8s.1-.1.1-.2l23.4-.8c.1.5.3.9.5 1.3l-10 8.7c-.3-.1-.5-.1-.7-.1zm-13.3-11.1c-.3-.5-.8-.8-1.4-.9l-1.1-2.8 20.1 3.1-17.6.6zm-.7 5.3 9.3 18.3-9.3 26.6v-44.9zm22.4 44.2 21.6 42.7-43-35.7 21.4-7zm6.3-2.1 7.7-2.5 7.7 41.2-15.4-38.7zm4.5-44.6 56.8 21.9v.6l-52.1 17-7.1-37.6c1-.4 1.9-1 2.4-1.9zm-5.6 2.1c.4.1.9.2 1.3.2l7.1 37.9-8 2.6-9.5-23.8 9.1-16.9zm-10 14.4-2-5c.3-.3.4-.8.4-1.2v-.4l9.6-8.3-8 14.9zm-42.3-81.5 49.8 59.2c-.3.4-.6.9-.8 1.4l-27-4.2-22.4-56.1c.1-.1.3-.2.4-.3zm17.6 55.7c-.3-1.3-1.4-2.4-2.8-2.4l-11.6-38.5 16.5 41.2-2.1-.3zm3 2.5.8 2-3-2.4 2.2.4zm-4.4.7 5.5 4.2v.2c0 .7.4 1.4 1 1.7v39.4l-6.6-45.5h.1zM369 307c.5 0 .9 0 1.3-.1l15.8 52.5-46.7-35.2c.3-.7.5-1.4.5-2.1 0-.7-.1-1.3-.4-1.9l23.4-15.8c1.6 1.5 3.7 2.6 6.1 2.6zm-30.5 11.4c-.9-.9-2.1-1.4-3.5-1.4-.2 0-.4 0-.6.1l-1-2.9 27.4-10.9-22.3 15.1zm-9.7-22.1 32.3 2.9c0 .6.1 1.2.2 1.7l-28.4 11.3-4.8-14.6c.2-.4.5-.8.7-1.3zm3.6 21.5c-1 .6-1.7 1.6-2.1 2.7l-10.1-1.1 11.2-4.4 1 2.8zM325 299h.4l5.2 14.2-13 5.1 6.9-19.3h.5zm-8.5 16.7-1.9-16.2 7-2.3c.3.5.7.9 1.1 1.2l-6.2 17.3zm-6.7-40.7 2.7 23.1-72.2 23.5c-1.3-2.7-4-4.6-7.2-4.6-1.4 0-2.7.4-3.8 1l-40.1-55.4c.6-.7.9-1.6.9-2.5l89.5-23.1c.7 1.2 2 2.1 3.5 2.1.5 0 1-.1 1.4-.3l25.3 36.2zm-25.3-43.7 3.3-25.6 13.8 22.9c-1.4 1.1-2.4 2.8-2.5 4.7l-12.2.5c-.4-1.1-1.3-2.1-2.4-2.5zm36.5 63.9-6.6 2.2-2.2-19 9.8 14c-.6.7-1 1.6-1 2.6v.2zm-8.3 4.9 2.1 18.3c-.2.2-.4.4-.6.7l-73.4 4.4 71.9-23.4zm9.4-10.9-10.4-14.9-3.5-29.7 13.9 44.6zm-12.8-18.4L286 237.6c.4-.5.7-1.1.9-1.8l12.2-.5c.6 3.2 3.3 5.6 6.7 5.7l3.5 29.8zm-5.5-43.5c-.2.1-.4.1-.6.2l-15.1-25.1 4.9-37.5h.1l10.7 62.4zm24.1-117.8-31.6 42.4c-1-.5-2.1-.8-3.3-.8-3.9 0-7 3.1-7 7 0 .6.1 1.2.2 1.8l-14.9 6.3 56.6-56.7zm-57 58.9 16.1-6.8c.9 1.5 2.4 2.6 4.1 3.1l-4.5 35-16.7-27.9c.7-.7 1.2-1.7 1.2-2.8-.1-.2-.1-.4-.2-.6zm15.3 34.5-3.5 26.6-13.2-54.4 16.7 27.8zm-21-30.4c.5.3 1.1.4 1.8.4l14.2 58.5c-1.3.7-2.1 2-2.1 3.5L189.6 258c-.1-.1-.1-.2-.2-.3l75.8-85.2zM123.5 55.4c1.1.9 2.5 1.5 4 1.6l4.2 57.3c-.7.2-1.2.6-1.7 1.1L83.3 91.6l40.2-36.2zM45.1 126l1.1 2.9-.5.1c-.2-.9-.6-1.7-1.2-2.5l.6-.5zm-.4-6.6 14.7-30.7c.5.2 1.1.2 1.7.2 2 0 3.8-1 4.9-2.5l13 6.3-33 29.7-1.3-3zM46 131s0-.1 0 0l.9-.2.4 1c-.6.4-1.1.8-1.4 1.4l-.2-.1c.2-.7.3-1.4.3-2.1zm.6-6.4 34.2-30.8 48.2 23.4v.3l-80.8 11.1-1.6-4zM28 61.3l93.2-9.6c.2.8.5 1.5 1 2.2L81.4 90.6 67 83.3V83c0-3.3-2.7-6-6-6-1.4 0-2.7.5-3.8 1.3L27.6 63.2c.2-.6.4-1.2.4-1.9zm-1.4 3.9L55.3 81c-.2.6-.3 1.3-.3 2 0 2 1 3.8 2.5 4.9l-13.9 29-19.2-49.8c.9-.5 1.6-1.1 2.2-1.9zM44.3 124l-1.1 1c-.3-.2-.6-.5-.9-.7l1.1-2.4.9 2.1zm-6.3-1c-.3 0-.6 0-.9.1L25.6 75.6l16.9 43.7-2 4.1c-.8-.3-1.6-.4-2.5-.4zm10.2 67.2-8-51.5c2-.6 3.7-1.9 4.7-3.7l.2.1c-.1.3-.1.6-.1 1 0 2.4 1.7 4.4 3.9 4.9l-.7 49.2zm1-59.1-.2-.6 58.7-8-53 11.5c-.8-1.8-2.5-3-4.6-3-.4 0-.7 0-.9.1zm4.7 64.6c-1.1-.8-2.4-1.4-3.8-1.6l.8-53.2c2.3-.4 4.1-2.5 4.1-4.9v-.1l74.4-16.1c0 .1.1.2.1.2l-75.6 75.7zm98.4 24.5c.4-.6.7-1.4.7-2.2 0-2.2-1.8-4-4-4-1.6 0-3 1-3.7 2.4L57 202.3v-.3c0-1.8-.6-3.5-1.7-4.9l75.7-75.7c.6.4 1.3.6 2 .6 1.5 0 2.8-.9 3.5-2.1l36.5 8.7v.4c0 3.3 2.7 6 6 6 2.1 0 3.9-1 5-2.6l79.1 36c0 .2-.1.5-.1.7 0 .8.3 1.6.7 2.2l-75.9 85.2c-.5-.3-1.2-.5-1.8-.5-.7 0-1.3.2-1.8.4l-31.9-36.2zm31.7 43.2c.6.4 1.3.6 2 .6.5 0 1-.1 1.5-.3l40.1 55.4c-1.6 1.5-2.5 3.5-2.5 5.8 0 .3 0 .6.1.9L90.5 359.4c-.2-.6-.5-1.1-.9-1.5l94.4-94.5zM34 576c0 .8.2 1.5.4 2.2l-2.7 4.5-3.9-51.9 9.7 39.6c-2 1-3.5 3.1-3.5 5.6zm5.5-6.3-10.9-44.2c2.6-1 4.4-3.5 4.4-6.5 0-.8-.1-1.6-.4-2.3l54.4-28c0 .1.1.1.1.2l-47.6 80.8zm47.8-54.6c-2.4.3-4.3 2.4-4.3 4.9 0 1.1.4 2.2 1.1 3l-41.2 47.7c-.4-.2-.9-.4-1.4-.5l47.3-80.1-1.5 25zm-.2-31.9L32.9 453c.1-.3.1-.7.1-1 0-1.1-.4-2.1-1.1-2.8l45-73.6L64.2 404H64c-1.7 0-3 1.3-3 3s1.3 3 3 3 3-1.3 3-3c0-.9-.4-1.6-.9-2.2l16-36.1c.4.1.8.2 1.2.2l5.5 113.2c-.6.3-1.2.7-1.7 1.1zm61.4 51.6L93 520.3v-.3c0-2.3-1.6-4.2-3.7-4.8l1.5-25.3c.6-.1 1.1-.4 1.6-.7l56.1 45.6c.1-.1 0 0 0 0zm6.7-2.3c-.7-.3-1.4-.5-2.2-.5-1.2 0-2.3.4-3.2 1.2l-56.2-45.5c.2-.5.4-1.1.4-1.7 0-1.9-1.4-3.5-3.2-3.9l-5.5-113.2c3.2-.6 5.7-3.5 5.7-6.9v-.7l134.6-33.4c1.2 3 4.1 5.1 7.5 5.1h.2l5.2 34.3c-1.4.6-2.4 2-2.4 3.7 0 1.4.7 2.6 1.8 3.3L204.6 468c-.9.2-1.6 1-1.6 2 0 .3.1.5.1.8l-47.9 61.7zM216 504c0 .6.1 1.1.2 1.6L157 534c-.1-.1-.1-.2-.2-.2l48-61.8h.1l13.6 27.2c-1.5 1.1-2.5 2.8-2.5 4.8zm10.8-3.5c-1.1-1.5-2.8-2.5-4.8-2.5-.6 0-1.2.1-1.8.3l-13.1-26.1 39.4 18.5-19.7 9.8zm22-11-27.9-13.1 32.1 10.7v.3l-4.2 2.1zm2.3 1 2.8-1.4c.5.5 1.2.8 2 .8l1 3.3-5.8-2.7zm4.9-6.5c-1 0-1.8.5-2.4 1.2L207 469.6c-.1-.3-.2-.6-.4-.9l33.1-93.7h.3c2.2 0 4-1.8 4-4 0-2.1-1.6-3.8-3.6-4l-5.2-34.4c3.2-.9 5.6-3.7 5.8-7.2l73.4-4.4c.4.5 1 .9 1.7.9s1.2-.3 1.6-.8l12.4 1.3c.2 2.5 2.4 4.5 5 4.5 1.3 0 2.4-.5 3.3-1.3l46.8 35.5c-.1.2-.1.5-.1.8 0 1.5 1 2.7 2.4 2.9l8.3 57.5c-.5.4-.8.9-.8 1.6 0 1.1.9 2 2 2 .2 0 .5 0 .7-.1l42.9 35.8c-.4.7-.6 1.5-.6 2.4 0 2 1.1 3.6 2.8 4.5l-21 78.6c-.3 0-.5-.1-.8-.1-3.8 0-6.9 3-7 6.8l-97.3 11.4c-.8-3-3.5-5.2-6.8-5.2-.6 0-1.1.1-1.7.2l-19.9-49c1-.7 1.6-1.9 1.6-3.2 0-2.2-1.8-4-4-4-1 0-1.9.4-2.6 1l-24.5-17.2c.1-.3.1-.5.1-.8.1-1.7-1.2-3-2.9-3zm26.1 23.3c0 .2-.1.5-.1.7 0 2.2 1.8 4 4 4 .2 0 .4 0 .5-.1l18.9 46.5-39.8-58.9 16.5 7.8zm-18.6-11-3.7-5.4 16.1 11.3-12.4-5.9zm-4.1-1.9-.4-1.1 1 1.4-.6-.3zM285 573c-.3 0-.6 0-.8.1l-24-76.1 2 .9 43.1 63.9c-1.4 1.3-2.3 3.1-2.3 5.2 0 .7.1 1.4.3 2.1l-13.4 6.4c-1.1-1.5-2.9-2.5-4.9-2.5zm17.5 28c-.1 0-.3.1-.4.1l-12.9-17.9c1.1-1.1 1.7-2.6 1.7-4.2 0-.6-.1-1.1-.2-1.7l13.4-6.4c.8 1.3 2.1 2.2 3.5 2.7l-5.1 27.4zm65.8 51.4c-.7-.3-1.5-.4-2.3-.4-1.7 0-3.3.6-4.6 1.7l-55.7-48.6c.1-.3.2-.7.2-1.1 0-1.1-.6-2.1-1.5-2.6l5.2-27.4h.3c3.8 0 6.9-3 7-6.8l97.3-11.4c.4 1.6 1.4 2.9 2.7 3.9l-48.6 92.7zm57.6-77.9-52.6 72.7 45.4-86.6c.7.3 1.5.4 2.3.4.7 0 1.3-.1 1.9-.3l3.6 8.2c-.9.7-1.5 1.8-1.5 3.1 0 1 .4 1.8.9 2.5zm3.1-6.5c-.2 0-.4 0-.7.1l-3.6-8.1c.5-.3.9-.6 1.3-1l17.8 12.9-10.9-.6c-.3-1.9-2-3.3-3.9-3.3zm4.1 5.2 13.7.7 48.9 35.5-62.6-36.2zm77.5 44.2c-.1 0-.2.1-.3.2l-59.8-43.4 46.6 2.5c.3 4.1 3.7 7.4 8 7.4h.3l5.2 33.3zm239.9 25.3 7.7-38.6c.2.6.6 1.1 1.2 1.4l-8.9 37.2zm9.6-42.5c-.5.2-.9.4-1.2.8l1.3-6.7-.1 5.9zM1064 429.8c-.4.2-.7.5-1 .8l-60.5-47.2 15.8-69.4h.8c.6 0 1.2-.1 1.8-.2l43.1 116zm-62.7-41.3.7-2.9 51.3 40-48.7-29.4c.3-.7.4-1.4.4-2.2 0-2.5-1.5-4.6-3.7-5.5zM948 370.8l24.4-5c.7 1.3 2 2.2 3.6 2.2.6 0 1.1-.1 1.6-.3l17 22.2c-.3.3-.5.6-.7.9l-46-18.6c.1-.4.1-.8.1-1.3v-.1zm-.4-2c-.1-.3-.3-.6-.4-.9l65.9-55.6-35.6 48c-.5-.2-1-.3-1.5-.3-2.1 0-3.9 1.7-4 3.8l-24.4 5zm34 .8 18.7 14.6-.9 3.9h-.3c-1 0-2 .3-2.8.7l-14.7-19.2zm-1.9-4c.2-.5.3-1 .3-1.6 0-1-.3-1.8-.9-2.5l36-48.5c.4.2.8.4 1.2.5l-15.6 68.5-21-16.4zm79.3-173.5c-1.7.4-3 2-3 3.9 0 1.4.7 2.6 1.7 3.3l-36.9 98.9c-.6-.1-1.2-.2-1.8-.2-4.4 0-8 3.6-8 8 0 1.6.5 3.1 1.3 4.4l-66.4 56.1c-1-.9-2.4-1.4-3.9-1.4-1.4 0-2.6.5-3.6 1.2L897 327.5c0-.1.1-.3.1-.5 0-1.1-.9-2-2-2h-.1l-38-58.3c.7-.7 1.1-1.6 1.1-2.7 0-2.2-1.8-4-4-4-1.2 0-2.3.6-3.1 1.4l-67.3-31.9c.3-.8.4-1.6.4-2.5 0-3.1-1.8-5.9-4.5-7.2l28.8-82.9c.2 0 .4.1.7.1 2 0 3.7-1.2 4.5-2.9L919 159.4v.6c0 3.9 3.1 7 7 7 3 0 5.5-1.8 6.5-4.4l58.5 14v.4c0 3.3 2.7 6 6 6 2.9 0 5.4-2.1 5.9-4.9l25.3.4c.9.3 1.8.5 2.8.5.9 0 1.7-.2 2.5-.4l22.6.4c.3 1.4 1.5 2.6 2.9 2.9v10.2zM919.8 443.7l-19.2 18.5c-.6-.4-1.3-.8-2-1l4.6-47.2c1.1 0 2.1-.3 3-.7l14.4 24c-1 .9-1.6 2.2-1.6 3.7 0 1 .3 1.9.8 2.7zm-5.6 8.1-11.3 14.3c-.1-.9-.5-1.8-1-2.5l12.3-11.8zM895 406l-25.5 3.3 66-33.9-27.3 24.6c-1.4-1.2-3.2-2-5.2-2-4.4 0-8 3.6-8 8zm12.9 6.3c1.9-1.5 3.1-3.7 3.1-6.3 0-1.7-.5-3.3-1.4-4.6l28.7-25.8c.4.3.8.6 1.3.8L924.2 436h-.2c-.6 0-1.1.1-1.7.3l-14.4-24zm-177-230.9 35.5-21.9 7.6 59.8c-1.2.3-2.2.8-3.1 1.6l-40.1-37.6c.2-.4.3-.8.3-1.2-.1-.3-.1-.5-.2-.7zm33-73.1 5-3.2 35.5 24.9c-.3.6-.4 1.3-.4 2 0 .6.1 1.2.3 1.7L768 156.1l-5.7-44.5c1-.5 1.7-1.5 1.7-2.7 0-.1 0-.4-.1-.6zm4.4 50 37.1-22.9c.3.3.7.6 1.1.9l-28.8 82.9c-.5-.1-1.1-.2-1.7-.2l-7.7-60.7zm172.8-80.1 7.9 36.2c-1.8.8-3 2.5-3 4.6 0 1.4.6 2.7 1.6 3.7l-18.9 30.9c-.2-.1-.4-.2-.6-.2l13-75.2zm-.6-9.1c-1 .1-1.8.6-2.4 1.3L893 47c0-.2 0-.3.1-.5l51.1-7.6-3.7 30.2zm62.1 105.9c-.8-2.3-3-4-5.6-4-1 0-2 .3-2.9.7l-3.1-3.9 32 3.4v.2l-20.4 3.6zm20.8-1.6c.4 1.2 1 2.2 1.8 3.1l-17.7-.3 15.9-2.8zm-30.9-.4c-.4.5-.8 1-1.1 1.7L941 162.6l47.1 4.9 4.4 5.5zM933 159.7c-.1-2.1-1-3.9-2.5-5.1l18.9-30.9c.5.2 1.1.3 1.7.3.8 0 1.6-.2 2.2-.6l33.2 41.9-53.5-5.6zm103.7 16.9c.8-.8 1.4-1.7 1.8-2.8l12.5 3-14.3-.2zm64.8 27.4h-.5c-1.3 0-2.4.5-3.3 1.3l-34-25.7c.2-.5.3-1 .3-1.5s-.1-1-.3-1.4l59.4-42.1-21.6 69.4zm58.5-98c0 .6.1 1.3.4 1.8l-21.9 14.2-2.1-11.4c3.1-1 5.4-3.8 5.6-7.1l19.7-1.2c-1 .9-1.7 2.2-1.7 3.7zm1.5 3.5-.9 1.4-9.1 5.1 10-6.5c-.1 0-.1 0 0 0zm-24.9 13.8-9.8 6.4 5.8-18.8c.5.1.9.1 1.4.1h.4l2.2 12.3zm-9.6 8.8s0-.1 0 0l10.2-5.8 2.4 13.6-12.6-7.8zm14.5 7.3-2.5-14.1 19.1-10.7-16.6 24.8zm6.3-5.8 14.1-21.2 2.6-1.5h.5c2 0 3.7-1.2 4.5-2.8l6.9-3.9-28.6 29.4zm21.5-30.2c-.4-.6-.8-1.1-1.4-1.5l7.1-.4-5.7 1.9zm2.1 1.4-1.5.8v-.3l1.5-.5zM1116.1 20h-42.3c-.4-1.1-1.4-1.9-2.7-2l-2.4-7.7 47.4 9.7zm-49.6-10.2 2.4 7.7-9.4-9.2 7 1.5zm-4.9 3.5-9.1-6.3 3.3.7 5.8 5.6zm-12.2-11.9 3.8 3.7-3.3-.7c-.1-.4-.4-.7-.7-1l.2-2zm-.8 5.5c.1 0 .2-.1.2-.1l19.3 13.4c-.1.3-.1.5-.1.8 0 .6.2 1.1.5 1.6L1035.9 63l12.7-56.1zm-15.9-5.6 13.4 4.1c.1.4.3.7.6 1l-11.9 52.8-2.1-57.9zm-29.2 5.4 27.9 57.2c-.1.1-.3.2-.4.4l-55.3-28.5c.2-.6.3-1.2.3-1.8 0-1.1-.3-2.2-.9-3.1l28.4-24.2zM970 40c2 0 3.7-.9 4.8-2.4l55.3 28.5c-.1.3-.1.6-.1.9 0 2.2 1.8 4 4 4s4-1.8 4-4c0-.9-.3-1.7-.8-2.4l32.8-40.8c.3.1.6.2 1 .2 1.3 0 2.4-.8 2.8-2h49.4c.4 1.2 1.5 2 2.8 2 1.5 0 2.7-1.1 2.9-2.5l34.5-6c.4.8 1.2 1.3 2.1 1.5l15 80.5c-.7.4-1.2 1-1.4 1.8l-37.3 2.3c-.7-3.7-3.9-6.5-7.9-6.5-4.4 0-8 3.6-8 8 0 3.2 1.9 6 4.7 7.3l-6.1 19.8c-.9.2-1.6 1-1.6 1.9v.2l-60.4 42.8c-.7-.6-1.6-1-2.6-1-1.5 0-2.8.9-3.5 2.1l-17.5-4.2c0-.3.1-.6.1-.9 0-4.4-3.6-8-8-8-3.8 0-7 2.6-7.8 6.2l-34-3.6-34.4-43.4c.7-.9 1.2-2 1.2-3.2 0-2-1.2-3.8-3-4.6L969.7 40h.3zm-2.7-.7c.1.1.3.1.5.2L951.1 114h-.2l-8.1-37.5c1.3-.7 2.2-2 2.2-3.6 0-.9-.3-1.8-.9-2.5l23.2-31.1zm-3-3.4c.3.9.8 1.6 1.4 2.3l-23.2 31.2h-.1l3.6-30.7 18.3-2.8zM946 1.5c.7.6 1.4 1 2.3 1.3l-4 34-51.6 7.6v-.1L946 1.5zm-54 47.2 45.1 23.4c-.1.3-.1.6-.1.9 0 1.6 1 3 2.4 3.6L926.2 153h-.2c-.4 0-.8 0-1.2.1L891.1 49.4c.3-.2.6-.5.9-.7zm-89 34.6 82.9-34.8c.7 1 1.9 1.6 3.2 1.6h.2L923 153.8c-1.5.8-2.8 2.1-3.4 3.7L814 132.2v-.2c0-2.7-2.1-4.9-4.8-5l-6.9-42.5c.3-.3.6-.7.7-1.2zm-2.7 1.6 6.9 42.5c-.6.2-1.2.6-1.7 1l-34.9-24.5L800 84.8c.2 0 .2 0 .3.1zm-40.5-43.7c1 .5 2.1.8 3.2.8 1.3 0 2.5-.4 3.5-1l31.8 40.2L745 66.6V66c0-1.1-.3-2.2-.9-3.1l15.7-21.7zm-22.1 30.6c.4.1.9.2 1.3.2 2.4 0 4.5-1.4 5.4-3.5l46.5 12.7-55-4c-.1-.7-.4-1.3-.9-1.8l2.7-3.6zm-1.9 7.5 62.2 4.5-29 18.9-33.2-23.3c-.1 0 0-.1 0-.1zm3.5 5 27.8 19.5-4.3 2.8c-.5-.4-1.1-.6-1.8-.6-.4 0-.8.1-1.2.3l-20.5-22zm21.2 28.3 5.7 44.7-35.9 22.1 30.2-66.8zm-116.6 90 81.6-19c.5.8 1.5 1.4 2.5 1.4.5 0 1-.1 1.4-.3l40.2 37.7c-1 1.3-1.5 2.9-1.5 4.7 0 1.1.2 2.1.6 3L699 269.3c-.7-.8-1.7-1.2-2.9-1.2-.6 0-1.1.1-1.6.3l-50.6-65.6v-.2zm48.2 70.3-53.6 28.5c-1.4-2.1-3.8-3.4-6.5-3.4-.4 0-.8 0-1.2.1l-19.7-69.2 8.4-7 72.7 48.7c-.1.4-.2.9-.2 1.3s0 .7.1 1zm-115.4-24.4-6.4 4.7 19.5-22.8-13.1 18.1zm27.5-34.6c.2.1.4.1.6.1l3.3 11.6-26.2 19.1 22.3-30.8zm-31.3 39.8-2.2 3.1c-.1-.4-.3-.8-.5-1.1l2.7-2zm5.2-3.8 30.5-22.3.2.6-37.4 31 6.7-9.3zm28.6-36.5c.1 0 .1 0 0 0l9.4 6.2-6.3 4.6-3.1-10.8zm1.2-1.7c0-.1.1-.3.1-.4l29.4-7.1-19.5 14.2-10-6.7zm8.3 10.4-5.6 4.7-.1-.5 5.7-4.2zm25.1-18.2c.2.1.4.1.7.1h.3l49.2 63.8-70.3-47.1 20.1-16.8zm-3.2-2-30.6 7.4c-.5-.8-1.5-1.4-2.5-1.4-.7 0-1.3.2-1.8.6l-44.3-29.8 79.2 23.2zm-73 50.2-10.6-72.4c.4-.2.8-.4 1.1-.7l46.5 31.3c-.1.2-.1.5-.1.7 0 .5.2 1.1.4 1.5l-34.7 40.6c-.7-.5-1.6-.8-2.6-1zm2.9 12.7c.5-.3.9-.7 1.3-1.2l40.1-33.3 19.4 68.4c-1.2.5-2.3 1.3-3.1 2.3L568 265.1v-.3zm39.4 67.3-.3-.5.3.5zm-38.2-63.9 55.5 34.5c-.5 1-.7 2.1-.7 3.3 0 2.1.8 4 2.2 5.5l-16.7 20.1-40.3-63.4zm48.5 76.3-7-11.1 17.1-20.6c.4.2.8.5 1.2.6l-8.4 30.6h-.6c-.8 0-1.6.2-2.3.5zm-12.4 108-7.5 9.8-10.5 3.3c-.1-.1-.1-.3-.2-.4l18.2-12.7zM588 469c0-.5-.1-1-.1-1.4l7.7-2.4-10.4 13.6-1.2-2.8c2.4-1.5 4-4.1 4-7zm-9.6 7.8c.5.1 1 .2 1.6.2.8 0 1.5-.1 2.2-.3l1.6 3.8-11.7 15.2 6.3-18.9zm-8.2 24.8 14.5-18.9 2.4 5.6-17 13.6.1-.3zm-.5-4.8-1.3 3.8-.6.8 1.9-4.6zM564 512c.2 0 .4 0 .6-.1l-3.2 9.7 2.6-9.6zm-12.2 38c-1.5.1-2.8 1.4-2.8 3v.3l-37.3 18.3c-.2-.3-.5-.6-.7-.9l51-58.7-10.2 38zm59.3 4.7-56.3-2.6c-.2-.6-.5-1.1-1-1.5l12.9-38.8 45.2 40.9c-.3.7-.6 1.3-.8 2zm2.7-3.7c-.2.1-.3.2-.5.3l-45.8-41.4c.3-.5.4-1 .4-1.6l1-2.9 19-15.2 25.9 60.8zm-25.1-64.1-2.6-6.1 12.8-16.7 30.3-9.5-40.5 32.3zm12.3-25.6 8.7-11.4h.3c.6 0 1.2-.3 1.5-.7l18.2 3-28.7 9.1zm36.1-11.8c-.7-.9-1.8-1.5-3.1-1.5-1.6 0-3 1-3.7 2.4l-15.3-2.6 55.7-13.3-33.6 15zm40.9-18.8-66.6 15.9c-.1-.1-.2-.2-.3-.2l9.2-90.4c.8-.1 1.6-.3 2.4-.7l55.7 74c-.2.4-.3.9-.4 1.4zm3-2.7c-.3 0-.6.1-.9.2l-55.8-74c1-1.1 1.6-2.5 1.6-4.1 0-2.4-1.4-4.5-3.5-5.4l8.4-30.6c.4.1.7.1 1.1.1 4.4 0 8-3.6 8-8 0-1-.2-2-.5-2.8l53.6-28.5c.7.8 1.8 1.3 2.9 1.3 2.2 0 4-1.8 4-4 0-.4-.1-.7-.1-1l69.7-39.2c1.5 2 3.8 3.2 6.4 3.2 2.8 0 5.3-1.5 6.7-3.7l67.3 31.9c0 .2-.1.5-.1.8 0 2.2 1.8 4 4 4 .4 0 .9-.1 1.3-.2l38 58.3c-.1.3-.2.6-.2.9 0 1.1.9 2 2 2 .2 0 .4 0 .6-.1l41.4 38.8c-.6.9-1 2.1-1 3.3 0 .6.1 1.2.3 1.8L867 408.3c-.7-.8-1.8-1.3-3-1.3s-2.2.5-2.9 1.3l-56.6-30.4c.3-.9.5-1.9.5-2.9 0-4.4-3.6-8-8-8-1 0-1.9.2-2.8.5l-8.6-16.5c.8-.7 1.3-1.8 1.3-3 0-2.2-1.8-4-4-4s-4 1.8-4 4 1.8 4 4 4c.3 0 .6 0 .9-.1l8.6 16.5c-1.5 1-2.6 2.6-3.2 4.4l-31.3-4.7v-.2c0-4.4-3.6-8-8-8s-8 3.6-8 8c0 2.9 1.6 5.5 4 6.9L724 426.1c-.3-.1-.7-.1-1-.1-2.4 0-4.4 1.7-4.9 4h-34.3c-.4-1.2-1.5-2-2.8-2zm87.3-23.5L735.2 423l55-41.6-14.8 17.2c-.7-.4-1.5-.6-2.4-.6-2.8 0-5 2.2-5 5 0 .5.1 1 .3 1.5zm21.8-25.5-63.8 48.3-.4-.4 21.9-51.2c.7.2 1.4.3 2.2.3 3.7 0 6.8-2.5 7.7-5.8l31.3 4.7v.2c0 1.4.4 2.7 1.1 3.9zm-16.6 28.9c2.5-.3 4.5-2.4 4.5-4.9 0-1.2-.4-2.2-1.1-3.1l15.4-17.9-20.1 39.4 1.3-13.5zM684.6 432h33.5c.5 2.3 2.5 4 4.9 4 .5 0 1-.1 1.5-.3l16.7 30-56.6-33.7zm59.3 34.6-1.2-2.2 1.2 2.2c.1-.1.1 0 0 0zm4.1-1.6c-.8 0-1.6.2-2.3.5l-19.3-30.8c1-.9 1.6-2.2 1.6-3.6 0-.5-.1-1-.3-1.5l41.5-23.2c.3.4.7.7 1.1 1L749 465.3c-.3-.3-.6-.3-1-.3zm23.2-54.3-1.6 15.6-15 29.3 16.6-44.9zm-21.6 66.1.2.3-.2-.3zm12.9 21.3c-.2 0-.4 0-.7.1L751.4 476c1.6-1.1 2.6-2.9 2.6-4.9 0-2-1-3.7-2.4-4.8l17.5-34.4-6.6 66.2zm97.6 21.1c-.2.1-.5.3-.6.5L768 502.9c0-2.2-1.5-4-3.5-4.7l7.1-71.3 22.7-44.4c.8.3 1.8.5 2.7.5 2.7 0 5.1-1.3 6.5-3.4l56.6 30.4c-.1.3-.1.6-.1.9 0 2.2 1.8 4 4 4 2 0 3.7-1.5 3.9-3.5l27.3-3.5c.7 2.9 3 5.1 6 5.8l-4.6 47.2c-3.1.2-5.6 2.8-5.6 6v.2l-21.4 4.5c-.9-2.2-3-3.8-5.6-3.8-3.3 0-6 2.7-6 6 0 2.8 2 5.2 4.6 5.8l-2.5 39.6zm37.4-46.2-21.7 27.5 18.7-28c.7.3 1.6.5 2.4.5h.6zm-32.9 7c3-.3 5.4-2.9 5.4-6v-.2l21.4-4.5c.3.8.8 1.6 1.5 2.2l-30.7 46 2.4-37.5zM937 605l-1.1-6.5 4 7.2c-.8-.4-1.8-.7-2.9-.7zm6 6.2.9 1.6-1-.4c0-.4.1-.8.1-1.2zm-.6-5.2-4.6-8.3 7.3 6.5-2.7 1.8zm1.2 2.3 3.7-2.1 16.8 15c0 .1-.1.2-.1.2l-17.2-7.3-3.2-5.8zm5.5-3.2 34.1-19.8c.3.3.6.6 1 .9l-12.7 32c-.5-.1-1.1-.2-1.6-.2-1.7 0-3.3.6-4.5 1.7l-16.3-14.6zM982 582l-3 .6 3.3-2.3c-.2.5-.3 1.1-.3 1.7zm-.8 2.2-25 14.5 18.7-13.2 6.3-1.3zm-7.1-.5-30.7 6.4 56.1-24.3-25.4 17.9zm-4.1 2.9L946.7 603l-10.5-9.4 33.8-7zm-28.8 28.7c.3-.3.6-.7.9-1.1l3.4 1.4 17.3 31.2-21.6-31.5zm7.2 1.6 14.8 6.3c-.1.6-.2 1.2-.2 1.8 0 3.8 3 6.8 6.7 7l2.8 28.3-24.1-43.4zm25.8 40.2-1.3-12.9 1.9 9.2-.6 3.7zm1.4 4.2.4-2.4.6 3c-.3-.2-.6-.4-1-.6zm.1-13.6-3.3-16.2c2.7-1 4.6-3.5 4.6-6.6 0-2.6-1.4-4.9-3.5-6.1l11.1-28.2-8.9 57.1zm14.1-69.9c-.8-.5-1.7-.8-2.7-.8l12.1-8.5-9.4 9.3zm1.6 1.9c-.1-.1-.1-.3-.2-.4l16.3-16.3c.2 0 .3.1.5.1.8 0 1.6-.5 1.9-1.3l86-12.7-104.5 30.6zm113.6-34-95.5 14c-.4-.5-.9-.8-1.6-.8-1 0-1.9.8-2 1.8l-70.8 30.6c-.3-.2-.7-.4-1.2-.4-.2 0-.4 0-.5.1l-70.5-69.6c0-.2.1-.3.1-.5 0-.3-.1-.5-.1-.7l58.9-74.8c.7.3 1.4.5 2.2.5 2.8 0 5-2.2 5-5 0-2-1.2-3.7-2.8-4.5l15.3-59.5h.5c2.2 0 4.1-1.1 5.1-2.9l46 18.6c-.1.4-.1.8-.1 1.3 0 3.3 2.7 6 6 6 1.8 0 3.4-.8 4.5-2.1l57.9 34.9c-.3.7-.4 1.4-.4 2.2 0 3.3 2.7 6 6 6 .4 0 .8 0 1.2-.1l39.1 100.9c-1.3.9-2.2 2.4-2.3 4zm53-16.3-43.7 14.1c-.9-1.5-2.5-2.5-4.3-2.5-.3 0-.6 0-.8.1l-39.1-100.9c.1-.1.2-.1.4-.2l87.5 89.4zm156.1-308.7c.2.2.4.3.6.5l-30.7 76.7 13-67.9 17.1-9.3zm-49.5 26.9 4.3-2.3 9.4 53.2-16.8-42.4c2.1-1.2 3.5-3.5 3.5-6.1 0-.9-.2-1.7-.4-2.4zm5.3-7.8 13.7-13.4 12.5-2.8-1 5.1-24.9 13.5-.3-2.4zm30.4-26.8c1.1-.1 2-.5 2.7-1.3l10.2 5.4c-.1.3-.1.5-.1.8l-14.3 3.1 1.5-8zm10 7.5-12.8 7 .8-4.3 12-2.7zm-12.4-8.1c.1.1.2.1.4.2l-1.7 8.9-10.2 2.3 11.5-11.4zm-4.8 2-10.4 10.2-10 2.2 20.4-12.4zM1272 229l8-1.8-10.5 10.2-.7-3.7c1.9-.8 3.2-2.6 3.2-4.7zm-3.5 14.2-4.7 2.5 4.3-4.2.4 1.7zm-1.6-9.2.9 5.1-5.5 5.4c-.2-.1-.4-.3-.6-.4l4.3-10.1h.9zm-3.7-1.8.9.9-4.3 10.1c-.6-.2-1.2-.2-1.8-.2-3.9 0-7 3.1-7 7 0 .4 0 .8.1 1.2l-54.4 17.6 66.5-36.6zm-72.2 40.6 60.7-19.7c1.1 2.3 3.5 3.9 6.3 3.9h.3l8.5 44.7-75.9-28.3v-.4c.1-.1.1-.2.1-.2zm-7.1-2.3c-.5.7-.9 1.5-.9 2.5 0 .6.1 1.2.4 1.7l-21.3 17.5c-.4-.3-.9-.5-1.3-.6l-11.1-66.6 34.2 45.5zm-22.7 36.1-.1-.2.1.2zm-5.5-33 2.9 17.5h-.7l-2.2-17.5zm6 44.4-11-11.7c.2-.4.3-.9.3-1.4 0-.2 0-.4-.1-.6l.8-.5c1.5 1.9 3.7 3.1 6.3 3.1.4 0 .8 0 1.3-.1l3.1 10.7c-.3.2-.5.4-.7.5zm4.8-.8c-.5-.1-.9-.2-1.5-.2l-2-11.8c1.8-1.5 3-3.7 3-6.2 0-1.7-.5-3.3-1.4-4.6l19.6-17.6-17.7 40.4zm97.5.1-93.2 4.4c-.3-1.6-1.3-2.9-2.6-3.7l18.1-41.1c.2 0 .4.1.6.1 1.4 0 2.6-.7 3.3-1.7l77 28.7 1.4 7.4c-2.4.9-4.3 3.2-4.6 5.9zm11.2-4.9c-1.2-.9-2.6-1.4-4.2-1.4h-.3l-1.2-6.2 7.5 2.8v.4c0 .7.2 1.4.6 2l-2.4 2.4zm2.5-6.7-8.7-3.2-8.1-42.3 17.7 44.6c-.3.2-.6.6-.9.9zm-7-61.5 24-13-13.7 71.3-10.3-58.3zM1349 671c2 0 3.9.8 5.3 2h-10.6c1.4-1.2 3.3-2 5.3-2zM438 233c-3.3 0-6-2.7-6-6s2.7-6 6-6 6 2.7 6 6-2.7 6-6 6zm635.7 440h-11.5c1.3-1.8 3.4-3 5.7-3 2.5 0 4.6 1.2 5.8 3zm33.3-452c1.1 0 2 .9 2 2s-.9 2-2 2-2-.9-2-2 .9-2 2-2zm-23 451c0 .3-.1.7-.1 1h-8.9l1.1-.4c0-.2-.1-.4-.1-.6 0-2.2 1.8-4 4-4s4 1.8 4 4zM599 62c0-2.8 2.2-5 5-5s5 2.2 5 5-2.2 5-5 5-5-2.2-5-5zm997.8-62h10.4c-1 1.8-3 3-5.2 3s-4.2-1.2-5.2-3zM1357 556c0-3.9 3.1-7 7-7s7 3.1 7 7-3.1 7-7 7-7-3.1-7-7zm-52.4-527.8L1286.2 0h2.4l17.7 27.1c.2-.1.5-.1.7-.1 1.7 0 3 1.3 3 3s-1.3 3-3 3-3-1.3-3-3c0-.7.2-1.3.6-1.8zM1386.4 0h9.1c-.8 1.8-2.5 3-4.5 3s-3.8-1.2-4.6-3z" opacity=".3" fill="#989898"/><path class="st2" d="M657.7 155.3c0 47.1-28.8 78.7-71.4 78.7-42.4 0-70.8-31.8-70.8-79 0-47.1 28.6-79.2 71-79.2 42.2 0 71.2 32.3 71.2 79.5zm-127.8-.9c0 40.5 22.4 67 56.6 67s56.8-26.6 56.8-66.3c0-39.9-22.9-66.8-57-66.8-33.6 0-56.4 26.7-56.4 66.1zm160.6-11.9c7.8-16.1 20.8-24.1 39.1-24.1 29.7 0 49.1 23.1 49.1 58.2 0 34.6-19.4 57.5-48.8 57.5-17.5 0-31.1-7.8-38.5-23.6v60.8h-12.8V121.5h12.2v21h-.3zm.5 33.7c0 28.6 14.4 46.4 37.3 46.4 22.2 0 36.8-18.2 36.8-46.2 0-28.6-14.4-47.1-37.3-47.1S691 146.8 691 176.2zM843.7 234c-30.4 0-50-22.2-50-56.8s20.5-58.7 49.8-58.7c32.3 0 47.9 26.7 47.9 56.8v3.8h-84.2c0 22.9 10.6 44.1 36.8 44.1 17.4 0 29-9.7 33.3-28.6h12.8c-4.4 24.1-20.7 39.4-46.4 39.4zm-.7-104.6c-23.8 0-33.3 18.4-35.8 38.7H878c-1.5-24.1-14.7-38.7-35-38.7zm79 12.5c8.7-15.5 19.8-23.6 38.5-23.6 21.2 0 37.7 10.9 37.7 37.7v74.3h-13.4v-70c0-22.4-11.3-30.4-27.8-30.4-20 0-34.4 13.2-34.4 41.3v59h-13.4V121.5h12.5V142h.3zm187.8-18c-1.7-18.9-14.2-26.6-32.8-26.6-18.1 0-28.8 7.8-28.8 21 0 14.4 9.4 15.3 38.4 22.9 25.7 6.6 54.5 12.7 54.5 45.1 0 34.2-30.4 47.2-59.9 47.2-35.8 0-63.5-17-63.5-53.5h26c0 23.3 17.5 32.5 39.1 32.5 20.3 0 32.5-8.9 32.5-23.8 0-15.6-12.8-18.4-35.2-24.1-31.9-8.3-56.8-13.5-56.8-44.3 0-26.9 21.9-44.1 55.7-44.1 30.7 0 55 13.7 56.4 47.4h-25.5v.3zm137.4 0c-1.7-18.9-14.2-26.6-32.8-26.6-18.1 0-28.8 7.8-28.8 21 0 14.4 9.4 15.3 38.4 22.9 25.7 6.6 54.5 12.7 54.5 45.1 0 34.2-30.4 47.2-59.9 47.2-35.8 0-63.5-17-63.5-53.5h26c0 23.3 17.5 32.5 39.1 32.5 20.3 0 32.5-8.9 32.5-23.8 0-15.6-12.8-18.4-35.2-24.1-31.9-8.3-56.8-13.5-56.8-44.3 0-26.9 21.9-44.1 55.7-44.1 30.7 0 55 13.7 56.4 47.4h-25.5v.3zm157.3 106.4H1301V79.4h26.7v128h76.7v22.9z"/><path class="st2" d="M722.5 268.9c-8.5 0-14.1-6.3-14.1-15.8 0-8.5 5.2-15.8 14.4-15.8 6.1 0 11.6 3.3 12.7 10.2h-5.2c-.7-3.6-3.6-5.7-7.5-5.7-6.4 0-9 5.7-9 11.3 0 5.6 2.4 11.3 8.9 11.3 4.9 0 7.1-3.3 7.6-7.6h5.4c-.7 7-5.8 12.1-13.2 12.1zm29.7-18.4c-.9 0-1.2-.2-1.7-.2-4.9 0-6.3 3.6-6.3 8.2v9.5h-4.9v-21.9h4.5v4.3c1.4-3 3.8-4.9 7.3-4.9h.9v4.9h.2zm13.7 17.2c-1.6 4.2-2.8 8.9-8.2 8.9-1 0-1.7 0-3.3-.2v-4c1.4.2 1.9.3 2.6.3 2.4 0 3.1-3.1 3.6-5l-8.3-21.2h5.4l5.9 16.1 5.6-16.1h5l-8.3 21.2zm15.4-18.6c1.6-2.4 4.3-3.6 7.1-3.6 6.1 0 9.9 4.5 9.9 11.6 0 6.9-3.8 11.5-9.7 11.5-3 0-5.4-1-7.1-3.5V276h-4.9v-29.9h4.5v3h.2zm0 8c0 4.7 2.3 7.6 6.1 7.6 3.6 0 5.9-3 5.9-7.5 0-4.7-2.3-7.8-6.1-7.8-3.6 0-5.9 3-5.9 7.7zm32-7.3H809v11.5c0 2.1 0 3.1 2.4 3.1h1.9v3.8c-1.4.2-2.1.2-3.3.2-6.4 0-5.9-3.1-5.9-8.2v-10.4h-3.8v-3.5h3.6v-6.6h4.9v6.6h4.3v3.5h.2zm24.5 7.3c0 7.1-4.2 11.6-10.9 11.6-6.8 0-11.1-4.5-11.1-11.6s4.3-11.6 11.1-11.6c6.5.1 10.9 4.6 10.9 11.6zm-17.2 0c0 4.9 2.3 7.8 6.3 7.8 3.8 0 6.1-3 6.1-7.8s-2.3-7.6-6.1-7.6c-3.9-.1-6.3 2.9-6.3 7.6zm41.3 8.5c0 7.1-2.6 11.1-10.6 11.1-5.9 0-9.2-2.3-9.7-6.6h4.9c.5 2.3 2.1 3.3 5 3.3 4 0 5.7-1.9 5.7-6.4v-2.6c-1.7 2.6-3.8 3.6-6.9 3.6-5.7 0-9.5-4.2-9.5-10.9 0-6.9 3.8-11.3 9.7-11.3 3.1 0 5 1.2 6.8 3.6v-3.1h4.5v19.3h.1zm-16.3-8.7c0 4.3 2.3 7.1 5.7 7.1 3.6 0 5.9-3 5.9-7.5s-2.3-7.1-5.9-7.1c-3.6 0-5.7 2.8-5.7 7.5zm33.7-6.4c-.9 0-1.2-.2-1.7-.2-4.9 0-6.3 3.6-6.3 8.2v9.5h-4.9v-21.9h4.5v4.3c1.4-3 3.8-4.9 7.3-4.9h.9v4.9h.2zm11.9-4.9c5.2 0 9 1.9 9 6.6v11.1c0 1.2.2 1.6 1.2 1.6h1v3.5c-1.6.3-2.3.5-3.1.5-1.9 0-3.3-.7-3.6-2.6-1.9 1.9-4.9 2.6-7.6 2.6-4.5 0-7.3-2.4-7.3-6.6 0-5.7 5.4-6.4 9.7-6.9 3.3-.3 4.3-.7 4.9-1.2.2-.2.3-.7.3-1.6 0-2.3-1.4-3.3-4.5-3.3s-4.5 1-4.9 3.8h-4.5c.4-5.6 4.1-7.5 9.4-7.5zm-.7 12.7c-2.3.3-4.9.7-4.9 3.6 0 2.1 1.4 3.3 4 3.3 1.9 0 3.8-.7 5-1.7 1-1 1-2.4 1-3.8v-2.6c-1.6.8-3.3 1-5.1 1.2zm19.5-9.2c1.6-2.4 4.3-3.6 7.1-3.6 6.1 0 9.9 4.5 9.9 11.6 0 6.9-3.8 11.5-9.7 11.5-3 0-5.4-1-7.1-3.5V276h-4.9v-29.9h4.5v3h.2zm.2 8c0 4.7 2.3 7.6 6.1 7.6 3.6 0 5.9-3 5.9-7.5 0-4.7-2.3-7.8-6.1-7.8-3.7 0-5.9 3-5.9 7.7zm26-7.8c1.6-2.3 3.8-3.6 6.9-3.6 4.7 0 7.5 2.6 7.5 7.6V268h-4.9v-13.2c0-3-.7-5.2-4.2-5.2-4 0-5.4 3-5.4 6.6V268h-4.9v-30h4.9v11.3zm30.6 18.4c-1.6 4.2-2.8 8.9-8.2 8.9-1 0-1.7 0-3.3-.2v-4c1.4.2 1.9.3 2.6.3 2.4 0 3.1-3.1 3.6-5l-8.3-21.2h5.4l5.9 16.1 5.6-16.1h5l-8.3 21.2zm32.1-22.1c5.2 0 9 1.9 9 6.6v11.1c0 1.2.2 1.6 1.2 1.6h1v3.5c-1.6.3-2.3.5-3.1.5-1.9 0-3.3-.7-3.6-2.6-1.9 1.9-4.9 2.6-7.6 2.6-4.5 0-7.3-2.4-7.3-6.6 0-5.7 5.4-6.4 9.7-6.9 3.3-.3 4.3-.7 4.9-1.2.2-.2.3-.7.3-1.6 0-2.3-1.4-3.3-4.5-3.3s-4.5 1-4.9 3.8h-4.5c.4-5.6 4-7.5 9.4-7.5zm-.9 12.7c-2.3.3-4.9.7-4.9 3.6 0 2.1 1.4 3.3 4 3.3 1.9 0 3.8-.7 5-1.7 1-1 1-2.4 1-3.8v-2.6c-1.6.8-3.3 1-5.1 1.2zm19.6-8.9c1.7-2.6 4-3.8 7.3-3.8 5 0 7.5 3 7.5 7.8V268h-4.9v-12.7c0-3-.3-5.7-4.2-5.7-3 0-5.4 1.6-5.4 6.6V268h-4.9v-21.9h4.5l.1 3.3zm40.5 18.6h-4.5v-3c-1.4 2.4-3.6 3.6-6.9 3.6-6.3 0-10.1-4.5-10.1-11.6s3.8-11.5 9.9-11.5c3.1 0 5.4 1.2 6.9 3.5v-11h4.7v30zm-16.8-10.9c0 4.9 2.3 7.8 6.1 7.8s6.1-2.8 6.1-7.6-2.3-7.6-6.3-7.6c-3.5-.3-5.9 2.7-5.9 7.4zm51-10.3c-.3-3.8-2.8-5.4-6.6-5.4-3.6 0-5.7 1.6-5.7 4.2 0 3 1.9 3.1 7.6 4.5 5.2 1.4 10.9 2.6 10.9 9 0 6.8-6.1 9.4-12 9.4-7.1 0-12.7-3.5-12.7-10.8h5.2c0 4.7 3.5 6.4 7.8 6.4 4 0 6.4-1.7 6.4-4.7 0-3.1-2.6-3.6-7.1-4.9-6.4-1.7-11.3-2.8-11.3-8.9 0-5.4 4.3-8.9 11.1-8.9 6.1 0 10.9 2.8 11.3 9.5h-5v.6zm27.4 0c-.3-3.8-2.8-5.4-6.6-5.4-3.6 0-5.7 1.6-5.7 4.2 0 3 1.9 3.1 7.6 4.5 5.2 1.4 10.9 2.6 10.9 9 0 6.8-6.1 9.4-12 9.4-7.1 0-12.7-3.5-12.7-10.8h5.2c0 4.7 3.5 6.4 7.8 6.4 4 0 6.4-1.7 6.4-4.7 0-3.1-2.6-3.6-7.1-4.9-6.4-1.7-11.3-2.8-11.3-8.9 0-5.4 4.3-8.9 11.1-8.9 6.1 0 10.9 2.8 11.3 9.5h-5v.6zm31.6 21.2h-20.7v-30h5.4v25.5h15.3v4.5zm4 .9h-4.3l12.3-31.6h4.2l-12.2 31.6z"/><path class="st2" d="M1191.5 242.5h-9.5V268h-5.4v-25.5h-9.5V238h24.5v4.5zm24.1 25.5h-20.7v-30h5.4v25.5h15.3v4.5zm20.5-21.2c-.3-3.8-2.8-5.4-6.6-5.4-3.6 0-5.7 1.6-5.7 4.2 0 3 1.9 3.1 7.6 4.5 5.2 1.4 10.9 2.6 10.9 9 0 6.8-6.1 9.4-12 9.4-7.1 0-12.7-3.5-12.7-10.8h5.2c0 4.7 3.5 6.4 7.8 6.4 4 0 6.4-1.7 6.4-4.7 0-3.1-2.6-3.6-7.1-4.9-6.4-1.7-11.3-2.8-11.3-8.9 0-5.4 4.3-8.9 11.1-8.9 6.1 0 10.9 2.8 11.3 9.5h-5v.6zm44.3-4.3h-9.5V268h-5.4v-25.5h-9.5V238h24.5v4.5zm19.1 14.6c0 7.1-4.2 11.6-10.9 11.6-6.8 0-11.1-4.5-11.1-11.6s4.3-11.6 11.1-11.6c6.7.1 10.9 4.6 10.9 11.6zm-17.2 0c0 4.9 2.3 7.8 6.3 7.8 3.8 0 6.1-3 6.1-7.8s-2.3-7.6-6.1-7.6-6.3 2.9-6.3 7.6zm42.3 0c0 7.1-4.2 11.6-10.9 11.6-6.8 0-11.1-4.5-11.1-11.6s4.3-11.6 11.1-11.6c6.6.1 10.9 4.6 10.9 11.6zm-17.2 0c0 4.9 2.3 7.8 6.3 7.8 3.8 0 6.1-3 6.1-7.8s-2.3-7.6-6.1-7.6c-4-.1-6.3 2.9-6.3 7.6zm26.3 10.9h-4.9v-30h4.9v30zm16.3-13.7 9.2 13.9h-5.9l-6.6-10.6-3 2.8v7.8h-4.7V238h4.7v17l8.7-8.7h5.9l-8.3 8zm16.6-11.8h-4.9v-4.7h4.9v4.7zm0 25.5h-4.9v-21.9h4.9V268zm16-18.2h-4.3v11.5c0 2.1 0 3.1 2.4 3.1h1.9v3.8c-1.4.2-2.1.2-3.3.2-6.4 0-5.9-3.1-5.9-8.2v-10.4h-3.6v-3.5h3.6v-6.6h4.9v6.6h4.3v3.5zm-328.8 286.9c-6 0-9.8-1.7-11.2-4.9-1.4-3.4-2.3-10-2.3-19.8v-53.6h33.6v-22.7h-33.6v-35.3h-26.4v35.3h-18.6v22.7h18.6v56.5c0 17.5 2.6 29.5 7.7 35.9s14.6 9.5 28.4 9.5c5.7 0 13.8-1.1 25-3.2l-1.1-21.2-20.1.8zM913 391c-25 0-42.7 7.2-52.8 21.5-10 14.3-15.2 36.1-15.2 65.7 0 29.3 4.9 50.8 14.9 64.5 9.8 13.5 27.5 20.4 52.8 20.4 6.9 0 11.8-.6 14.9-1.4l21.5 35.6 25-11.8-20.1-32.8c9.5-6.3 16.3-15.5 20.4-27.5 4.3-12 6.3-27.8 6.3-47.3 0-29.5-5.2-51.6-15.2-65.7-10.1-14.1-27.6-21.2-52.5-21.2zm31.2 134.8c-5.4 9.5-16.1 14.1-31.6 14.1s-26.1-4.9-31.6-14.3c-5.5-9.5-8.3-25.2-8.3-47.3 0-22.1 2.9-38.1 8.6-48.2 5.4-10 16.1-15.2 31.3-15.2s25.5 5.2 31.3 14.9c5.5 10 8.3 26.4 8.3 48.5.1 22.2-2.8 38-8 47.5z"/></svg>