<svg xmlns="http://www.w3.org/2000/svg" viewBox="0 0 1920 673" xml:space="preserve"><style>.st0{fill:#4eb96f}</style><path class="st0" d="M0 0h1920v673H0z"/><path d="M1423 411.1c-10.5 0-17.1-3-19.6-8.5-2.5-6-4-17.6-4-34.7V274h58.8v-39.7h-58.8v-61.8h-46.2v61.8h-32.6V274h32.6v98.9c0 30.6 4.5 51.7 13.6 62.8 9 11 25.6 16.6 49.7 16.6 10 0 24.1-2 43.7-5.5l-2-37.2-35.2 1.5zm-246.6-255.2c-43.7 0-74.8 12.6-92.4 37.7-17.6 25.1-26.6 63.3-26.6 115 0 51.2 8.5 88.9 26.1 113 17.1 23.6 48.2 35.7 92.4 35.7 12.1 0 20.6-1 26.1-2.5l37.7 62.3 43.7-20.6-35.2-57.3c16.6-11 28.6-27.1 35.7-48.2 7.5-21.1 11-48.7 11-82.9 0-51.7-9-90.4-26.6-115s-48.2-37.2-91.9-37.2zm54.7 236.1c-9.5 16.6-28.1 24.6-55.2 24.6s-45.7-8.5-55.2-25.1-14.6-44.2-14.6-82.9 5-66.8 15.1-84.4c9.5-17.6 28.1-26.6 54.7-26.6s44.7 9 54.7 26.1c9.5 17.6 14.6 46.2 14.6 84.9 0 39.2-5 66.8-14.1 83.4z" fill="#fff"/><path d="M866 483.4H499.2c-6.7 0-12.2-5.5-12.2-12.2V227.8h391.3v243.4c0 6.7-5.5 12.2-12.3 12.2z" fill="#36434f"/><path class="st0" d="m675.1 340.6-97.8 47.1v-18.3l78.8-36.3v-.4l-78.8-36.3V278l97.8 47.1v15.5zm0 36h112.8v56.7H675.1v-56.7z"/><path d="M878.3 227.8H487v-26c0-6.7 5.5-12.2 12.2-12.2H866c6.7 0 12.2 5.5 12.2 12.2v26z" fill="#afc5d8"/></svg>