<svg xmlns="http://www.w3.org/2000/svg" viewBox="0 0 1920 673" xml:space="preserve"><style>.st8{fill:#e2e1e1}.st9{fill:#e71e60}.st10{fill:#85bf5e}</style><path fill="#3c3c3b" d="M0 0h1920v673H0z"/><path class="st8" d="M580.3 376.5c-4 4.8-9.6 8.5-16.9 11.1-7.3 2.6-15.3 3.9-24.1 3.9-9.3 0-17.4-2-24.4-6.1-7-4-12.4-9.9-16.2-17.6-3.8-7.7-5.8-16.8-5.9-27.2v-7.3c0-10.7 1.8-20 5.4-27.8 3.6-7.8 8.8-13.8 15.6-18 6.8-4.1 14.8-6.2 23.9-6.2 12.7 0 22.6 3 29.8 9.1 7.2 6.1 11.4 14.9 12.7 26.5h-21.5c-1-6.1-3.2-10.6-6.5-13.5-3.4-2.8-8-4.3-13.9-4.3-7.5 0-13.2 2.8-17.2 8.5-3.9 5.6-5.9 14-6 25.2v6.8c0 11.2 2.1 19.7 6.4 25.5 4.3 5.7 10.5 8.6 18.8 8.6s14.2-1.8 17.7-5.3V350h-20.1v-16.3h42.2v42.8zm82.4-32.9h-42.4v28.7h49.8V390h-71.9V282.9h71.7v17.9h-49.6v25.5h42.4v17.3zm107.5 46.5h-22.1l-43-70.5v70.5H683V282.9h22.1l43.1 70.7v-70.7h22v107.2zm54.2-58.9 22.3-48.3h24.1l-35.2 68.3v38.9h-22.5v-38.9L778 282.9h24.2l22.2 48.3zm72.2-48.3 39.5 94.6 39.7-94.6h12.1v107.2h-9.1v-46.7l.7-47.9-39.9 94.5h-7l-39.8-94.2.7 47.2v47h-9.1V282.9h12.2zm197.7 59.4c0 9.9-1.7 18.5-5.1 26-3.4 7.5-8.3 13.2-14.6 17.2-6.3 4-13.6 6-21.9 6-12.5 0-22.6-4.5-30.3-13.4-7.7-9-11.6-21-11.6-36.3v-11c0-9.8 1.7-18.4 5.2-26 3.5-7.5 8.4-13.3 14.7-17.4s13.6-6.1 21.9-6.1 15.5 2 21.8 6 11.2 9.6 14.6 16.9c3.4 7.3 5.2 15.7 5.4 25.3v12.8zm-9.1-11.6c0-12.9-2.9-23-8.8-30.3-5.8-7.3-13.8-11-24-11-10 0-17.9 3.7-23.8 11-5.9 7.3-8.9 17.6-8.9 30.7v11.2c0 12.7 2.9 22.8 8.8 30.2s13.9 11.2 24 11.2c10.3 0 18.3-3.7 24-11 5.7-7.3 8.6-17.6 8.6-30.7v-11.3zm102.7-40.1h-36.7v99.5h-9.1v-99.5h-36.7v-7.7h82.5v7.7zm28.3 99.5h-9.1V282.9h9.1v107.2zm108.3-47.8c0 9.9-1.7 18.5-5.1 26-3.4 7.5-8.3 13.2-14.6 17.2-6.3 4-13.6 6-21.9 6-12.5 0-22.6-4.5-30.3-13.4-7.7-9-11.6-21-11.6-36.3v-11c0-9.8 1.7-18.4 5.2-26 3.5-7.5 8.4-13.3 14.7-17.4s13.6-6.1 21.9-6.1 15.5 2 21.8 6 11.2 9.6 14.6 16.9c3.4 7.3 5.2 15.7 5.4 25.3v12.8zm-9.1-11.6c0-12.9-2.9-23-8.8-30.3-5.8-7.3-13.8-11-24-11-10 0-17.9 3.7-23.8 11-5.9 7.3-8.9 17.6-8.9 30.7v11.2c0 12.7 2.9 22.8 8.8 30.2s13.9 11.2 24 11.2c10.3 0 18.3-3.7 24-11 5.7-7.3 8.6-17.6 8.6-30.7v-11.3zm111.7 59.4h-9.1l-61.6-91.7v91.7h-9.1V282.9h9.1l61.7 91.8v-91.8h9v107.2z"/><circle class="st9" cx="500" cy="90.5" r="18.5"/><circle class="st10" cx="1207.6" cy="144.2" r="15"/><circle class="st10" cx="161.8" cy="371.7" r="20.6"/><circle class="st10" cx="1351.1" cy="562.4" r="13.3"/><circle class="st10" cx="782.6" cy="498.2" r="7.7"/><circle class="st8" cx="1033.7" cy="560.6" r="19.1"/><circle class="st9" cx="535.7" cy="540.8" r="17.2"/><circle class="st10" cx="734.8" cy="95.7" r="11.6"/><circle class="st10" cx="1769.5" cy="364.4" r="27.9"/><circle class="st9" cx="1638.8" cy="165.9" r="21.7"/><circle class="st9" cx="119.8" cy="95.7" r="11.6"/><circle class="st10" cx="108.3" cy="590.9" r="15.2"/><circle class="st9" cx="259.4" cy="213.8" r="17.2"/><circle class="st9" cx="865.4" cy="186.5" r="20.6"/><circle class="st9" cx="1409.8" cy="68.8" r="22.2"/><circle class="st9" cx="1228.3" cy="478.5" r="19.4"/><circle class="st9" cx="1465.3" cy="425.7" r="19.1"/><circle class="st9" cx="1661.7" cy="539.1" r="21.5"/><circle class="st10" cx="1812.6" cy="590.9" r="15.2"/><circle class="st10" cx="1846.6" cy="140.4" r="18.8"/><circle class="st9" cx="1704.8" cy="39.8" r="14.2"/><circle class="st10" cx="1061.8" cy="25.9" r="16.8"/><circle class="st9" cx="1041.3" cy="203.5" r="17"/><circle class="st8" cx="664.3" cy="205.2" r="8.6"/><circle class="st10" cx="476.4" cy="447.8" r="11.2"/><circle class="st8" cx="700.1" cy="615.7" r="9.7"/><circle class="st9" cx="889.6" cy="536.3" r="12.7"/><circle class="st9" cx="1200.4" cy="623.3" r="23.2"/><circle class="st10" cx="1108.3" cy="447.8" r="11.2"/><circle class="st8" cx="1437.2" cy="219.1" r="12"/><circle class="st8" cx="487.7" cy="198.8" r="12.3"/><circle class="st9" cx="892.3" cy="55.7" r="13.1"/><circle class="st8" cx="69.7" cy="192.7" r="12.6"/><circle class="st8" cx="57.3" cy="409" r="16.7"/><circle class="st10" cx="252.2" cy="559.2" r="10.1"/><circle class="st10" cx="318.3" cy="385.2" r="13.5"/><circle class="st9" cx="360.9" cy="69.9" r="14.2"/><circle class="st8" cx="1611.6" cy="354.1" r="17.6"/></svg>