<svg xmlns="http://www.w3.org/2000/svg" viewBox="0 0 1920 673" xml:space="preserve"><style>.st1{fill:#989898}</style><path fill="#445a76" d="M0 0h1920v673H0z"/><path class="st1" d="m1815.2 0-.7 4.4.7-4.4h-1.1l-13.6 97.2.2-97.2h-1l-.2 95.6L1765.6 0h-1.1l34.9 98.6v5.7l-38.1 24-29.9-44.8-9.5-83.5h-1l9.5 81.6-27.3-41 8.5-40.6h-1l-8.3 39.4-19.5-29.3-4.4-10.1h-1.1l2.4 5.8-3.8-5.8h-1.2l7.1 10.7 17.7 42 38 91 9.9 46.4-167.4 11L1638.1 0h-1L1579 201.2l-8.1.5-1.7-9.7 4.3-28.5-.5-.1.5-.1-16.4-60 37.4-77.6L1616.2 0h-1.3l-21.3 25.2.4.3-.5-.2-36.9 76.6L1528.8 0h-1l28.3 103.2-2.3 4.8-101.7 1v.5l-.2.5 110.6 49.4 5.8 32.7-1.5 10-176.9 11.7-110.6-70.7-.3.4h-.5l-5 64h.5-.5l3 29.8-44.8 50.8-38.7 35.8L1254.1 90l58.6-90h-1.2l-56.6 87 22.8-87h-1l-23.4 89.6-74.3 114-49.5-81.2 11.9-93.6L1202 0h-2.3l-58.6 27.9-19.2-21.1 27.4-6.8h-7.5l-20.9 6 .1.5-.2-.5-.4.2-6-6.2h-1.4l6.4 6.7-37.3 17.3-96.8-6.6L1001.7 0h-1.4L984 17.2l-20.2-1.4L952.3 0h-1.2l11.3 15.7-24.7-1.7 2.4-14h-1l-2.4 14-116.8-8 1.4-6h-1l-1.4 5.9-12.3-.9 1.4-5h-1l-.3 1.1.1-1.1h-1l-.3 5.2L788 15.5 793 0h-1l-5.2 16.3-2.6 1.6-.9-17.9h-1l.8 18.4-6 3.6-38.2-22h-2l39.3 22.6-14.1 8.3L731.2 0h-1.4l24.7 24.7L724.3 0h-1.6l38.9 31.9.3-.4.1.5 22-5-.1-.5.3.4 22-20.9 12.5.9-37 155.8-126.9-86.9L686.3 0h-1.1L654 75.2l-91.8-62.9 40-12.3h-3.4l-37.7 11.6L544.2 0h-1.8l17.5 12-53.5 16.4L491 0h-1.1l15.5 28.7L387.2 65l-2.7-40.2L427.6 0h-2l-41.8 24.1.2.4-.5-.2-34.9 81.9-40 26.3L324.2 0h-1l-15.4 131.7L245.6 0h-1.1l63.1 133.7.5-.2.1.5 46-11.2 65.5 188.7-.2-.3-.4.3.3-.4-18-12-.3.4v-.5l-37-3v.5h-.5l4 96.6-64.7 18.9-46.7 3-66.8-68.8-.4.3.3-.4-50.2-32.8-4.6-106.8-1-90h-.5.5L125.2 0h-1l8.3 115.9-46.4-4.9-.1.5-.5-.2-23 67 .5.2-.2.5 70.7 27.9 3 105.6L121.6 444 63 440v.5l-.4.2 51 102 .4-.2-.4.3 18.3 30.1-89.2 75.2.3.4-.1.5 71.6 17.2-1.7 6.8h1l1.6-6.6 26.3 6.3v.3h5.8l-1.8-66.7 5-2.1L160 662l-4.8 11h1.1l4-9.2.9 5.6-1.5 3.6h1.1l.7-1.7.3 1.7h1l-.6-3.4 11.1-27 5.7 30.5h1l-6.1-32.2 67.2-163.4 39.7 39.7 3 25.2-24.3 58.1.5.2-.5.1 8.2 72.4h1l-8-71.1 14.9 14.9 4.2 56.3h1l-3.6-47.7 9 47.7h1l-10.7-56.5 15-89.8 24.8-39.3L350.5 673h1l-34.4-186.8 57.1-90.3 83.6 25.1 55.6 63-3.7 27.2L408.9 535l.1.5-.5.1 12 63 1-.2-11.9-62.5L510.1 513l-.1-.5.5.2.2-.7 16.3-3.9L608.1 673h1.1L528 507.8l8.3-2 1.1 1L612.6 673h1.1l-74.4-164.4 12.4 11.3.3-.4.3.4 25.9-23.9 98.3-23.3L751.3 673h1.1l-74.8-200.6 90.2-21.3 19.8 48.6.5-.2-.4.2 32 64 .4-.2.5.1 15.4-51.9L862 673h1l-26.4-163.6-.5.1.5-.1-5.9-29.6 9.3-77.3 36.2-130.8 52-4.8v-.5l.5.1 36-141.8 52.9-34.5 174 235.2-25.7 25.7.4.4-.4-.3L1020.6 597l-11.1-4.8 3-109.7h-.5l-.4-.3L867.2 673h1.3l143-189-3 108.2L891.7 673h1.8l102.9-71.1-63.6 50.2.3.4-.5.2 9.6 20.3h1.1l-9.3-19.8 47.6 10.7v9.1h1.5l-.5-9.4 38.6-65.4 68.5 29.6 1.1 18.4-62.7 26.7h2.5l60.2-25.7.9 15.2h.5l-.3.4 11.2 10.1h1.5l-11.8-10.7 3.7-16.7 21.7 27.4h1.3l-22.8-28.7-5.5-15.7 79.2 44.4h2l-81.9-45.9-.2.4.2-.5-68.6-29.7 144.5-245 79.4 114.1-44.9 113.8.5.2-.5.1 16.1 92.4h1l-15.8-90.8 20.7 23.5-4.9 67.5h1l3-45-1 45h1l1.5-67.5 23-139-.5-.1.4-.3-79.8-114.6 65.5-62.5 267.7 45.8-8.3 35.5-124.3 206.9-13.8-19-.4.3-.5-.2-34 100 .5.2-.5.2 3.5 8.2-1.7 6.1h1l1.3-4.6 1.9 4.6h1.1l-2.6-6.1.4-1.4 5.5 7.5h1.2l-6.3-8.7 1-3.5 39.5 12.2h3.4l-42.6-13.2.3-1 78.6-1.8-12.9 16h1.3l12.7-15.7L1417 673h1.3l-12.7-16.7-15.6-45.9 39.3 62.6h1.2l-41.9-66.8-.4.3.4-.3-20.5-28.1 124.3-206.9L1526 390l.2-.4-.2.4 84.8 42.9 18.7 40.1-34.6 82.9-68.6-19.9-.1.5h-.5l.9 120.1-18.3 16.4h1.5l16.8-15.1.1 7.4-4.8 7.6h1.2l3.8-6 .5 6h1l-.7-7.4 9.8-17.4L1660 538.3l23.2 67.2-128.8 67.5h2.2l126.8-66.5 23 66.5h1.1l-23.1-67 65.9-34.5 73.3 49.2-22.2 52.3h1.1l20.9-49.1-5.8 49.1h1l6.1-51.9 30.1 5.8 3.2 46.1h1l-3.2-46.5 16-118.9-.5-.1-.2-.4L1748 569l-87.6-31.9-29.9-64.1 64.8-155 40.3 101.7.5-.2.2.4 25-13-.2-.4.5-.1-8.9-44.7 114.7-73.8-.3-.4.5-.1-30-99-.5.1.5-.2-26-59.1-10.3-29 15-100.2h-1.1zM765 30.3l12.1-7.2 5.5 3.2-17.6 4zm13.1-7.7 5.1-3 .3 6.1-5.4-3.1zm6.1-3.6 2.1-1.3-1.9 6-.2-4.7zm.9 5.8 2.5-7.8 14.9-8.8-17.4 16.6zM86.3 112l45.5 4.8-67.7 60L86.3 112zm-22.4 66.3 68.6-60.7 1 88.2-69.6-27.5zm917.8 484.6-47.6-10.7 73.8-58.2-26.2 68.9zm2.9-4.7 24.7-65 10.9 4.7-35.6 60.3zm107.7.7-.7-12 3.7-1.6-3 13.6zm3.1-14.7-3.8 1.6-.8-14.9 4.6 13.3zm127.3-39.8-21.1-24 43.2-109.3-22.1 133.3zm-93.6-487-5.6-81 16.8-7.1-11.2 88.1zm-6.5-80.6 5.8 84.6-71.4-56.8 65.6-27.8zm-64 26.1 41.1-36.7 22.2 1.5.6 8.1-63.9 27.1zm64.4-35.1 15.9 1.1-15.4 6.5-.5-7.6zm16.7.1-16.8-1.2-1.2-17.7 18 18.9zm-19.3-20.2.2.2 1.3 18.8-21.1-1.5 19.6-17.5zm-2.2.7-18.8 16.8-15.2-1 34-15.8zM1082.3 25l16 1.1-42.4 37.8-30.2-12.7 56.6-26.2zm-97.9-6.8 95.9 6.6-55.8 25.8-50.6-21.3 10.5-11.1zm-11 12.6 24 32.4-28.3 13.1 4.3-45.5zm-5.4 46-37.5 17.4 41.8-62.8-4.3 45.4zm6.5-46.1 48.7 20.6-25 11.6-23.7-32.2zm8.6-12.5-10 10.6-8.5-11.8 18.5 1.2zM937.6 15l25.7 1.8 9.2 12.7L928.7 95l-5.5 2.5L937.6 15zm-71.8 165.9-82.2-17.6L922 99.2l-1.4 8-54.8 73.7zm54-71-29 104.7-24.2-33.2 53.2-71.5zm3.2-11.2 4.6-2.2-5.8 8.7 1.2-6.5zM819.7 6.9l116.9 8L922.1 98l-139.4 64.6 37-155.7zm-37.2 157.2 82.6 17.7-89.5 97.3 6.9-115zm82.8 18.9-10.8 89.7-78.3 7.2 89.1-96.9zm-90.8 97.2-126.9 56.1-16.3-127.1 20.2-71.5 13.8-28.5 116.2 54.6-7 116.4zM433 350l-51.2 33.8 40.7-64.3L433 350zm-10.5-33.3.3.4-.1.2-.2-.6zm.6 1.7.3-.5 20.1 25.2-9.7 6.4-10.7-31.1zm.9-1.4 21.5-34 14.2 49.4-15.3 10.1L424 317zm36 16.4 12.9 44.9-27.9-35 15-9.9zm.8-.6 166.4-109.9-.3-.4.5.1 3.1-11 16 125-158.1 69.8-14.1-26.2-13.5-47.4zm183.9-232.6 1.9-4.6 15.1 11.1-17-6.5zm19.6 8.6-13.1 27.1-6.6-34.6 19.7 7.5zm-20.5-9.2-25.3-24.5L645.7 95l-1.9 4.6zm-.3 1.1 6.4 33.9-34.8-61.4 28.4 27.5zm7 36.9-19.5 69L613.8 73l36.7 64.6zm-20.2 71.5-3.5 12.3-63.2-86.9 49-62.8 17.7 137.4zm-65.7-71.6 61.2 84.2-34.4-7.7-26.8-76.5zm24.8 73.9-53.5-74.5 26.7-1.9 26.8 76.4zm65-134.7 122.2 83.7-111.4-52.3L647 94.7l7.4-18zm-93.5-64 92.7 63.5-7.5 17.9-32.8-24-.3.4-.4-.3-49.5 63.4-56.3-104.3 54.1-16.6zm-55.1 16.9 56.4 104.5L535 136v.5l-.4.3 56 78 .4-.3-.1.5 34.8 7.7-165.1 109.1-14.3-50 39.2-62-.8-.5-38.7 61.3-57.8-201.3-.9-13.3 118.5-36.4zM386.9 74.8l-2.3-7.9 1.7-.5.6 8.4zm-2.4-35.4 1.7 25.9-1.7.5V39.4zm-1-12.5v39.4l-32.8 37.5 32.8-76.9zm.3 40.6 3.4 12 2.3 33.4-39.5-6.7 33.8-38.7zm-73.1 64.8 38.1-25.1 5 14.5-43.1 10.6zm39-25.2 37.8 6.5-32.8 8-5-14.5zm5.4 15.4 35-8.5-.1-.5h.5l-2-29.4 56.6 197.6-21.8 34.5-1.8-2.3-66.4-191.4zm64 189.9 1.6 2 1.4 4-42.3 66.9-10.1 6.7 49.4-79.6zM400.8 300l15.3 10.2-46.8-12.8 31.5 2.6zm-36.3-2.8 53.7 14.6-49.8 80.1-3.9-94.7zm-176.2 49.4-45 65.8-4.2-97.9 49.2 32.1zm-42.7 143.5-3.8-20.1-1.4-51.6 2-2.9 3.2 74.6zm-3.2-76.3-2 2.9-2.9-103.3.6.4 4.3 100zm-5.9-138.4 1.6 37.2-.5-.4-1.1-36.8zm.2 44.2 2.7 98.5-16.7 24.4 14-122.9zm2.8 100.2 1.2 43.9-1.2-6.4-.5.1.3-.4-16.6-12.7 16.8-24.5zM121.8 445l15.1 11.5-67.4-15.1 52.3 3.6zm-7.9 96.1-50-99.9 74.5 16.7-24.5 83.2zm25-81.5 2 10.5 3.1 110.6-4.5-13.4-.5.2.4-.4-24.8-24.8 24.3-82.7zm2.2 128.5 3.2 5.3.3 12.2-2.2.9-1.3-18.4zm.4 18.8-.8.3-.5-17.4 1.3 17.1zm-.6-21-1.1-14.4 4.2 12.7.2 7.2-3.3-5.5zm-4.9-8.1-2.8-4.7 5-4.2-2.2 8.9zm2.6-6.6.4 11.5-2.2-3.7 1.8-7.8zm-2.2 9.2 2.6 4.4.7 22.9-11.1 4.6 7.8-31.9zm-19.8-34.6 21.7 21.7-5.6 4.8-16.1-26.5zm15.8 27.9 3.3 5.4-8.2 33.6-81.7 34 86.6-73zm-17.7 91.5-70.1-16.8 82.6-34.4-12.5 51.2zm1 .3 12.7-52 11.4-4.8 1.9 63-26-6.2zm27 6.5-1.9-63.6.8-.3 4.9 64.9-3.8-1zm3.2-19.5-3.4-45 2.1-.9 1.3 45.9zm-.8-65.1 4 12-3.8-6.3-.2-5.7zm.5 17.8-.3-10.1 4.9 8.1-4.6 2zM145 584l-3-107.6 3.9 20.7 4.4 102.9-5.3-16zm6.5 19.4-4.3-99.5 24.6 130.7-11.1 25.7-9.2-56.9zm10.4 64.3-.9-5.5 11.2-25.7.8 4.3-11.1 26.9zm11.8-28.7-.8-4.2L221 523.9 173.7 639zm66.8-162.7-68 156.7-25.6-136-3.5-82.9 45.7-66.8 66.4 68.4-15 60.6zm15.9-60.3 45.9-2.9-25.6 66.9-35-3.9 14.7-60.1zm-14 61.2 34.2 3.8 4.1 34.5-38.3-38.3zm35.8 8.8 11.8 38.7-8.1-8.1-3.7-30.6zm5.9 58.2.4 3.2-15.3 32.3 14.9-35.5zm-8.5 71.2-15-15 23.5-49.8-8.5 64.8zm4.5-26.8 5.3-41 3.6-12.5-8.9 53.5zm4.8-46.2 3.3-7.9-3 10.5-.3-2.6zm-.2-2-2.6-22.1 8.4 8.4-5.8 13.7zm6.5-15.1-13.6-44.8 25.3-66.2L316 486l-24.8 39.3zm25.6-40.6-13.2-71.9L368 394l5.1 1.5-56.3 89.2zm56.9-90-4.5-1.4 9.3-6.1-4.8 7.5zm1 .3 5.8-9.1 52.9-34.9 23.9 68.8-82.6-24.8zm59.5-44.6 9.9-6.6 29.3 36.8-15.4 38.5-23.8-68.7zm39.9 31.3 13.5 25.2-28.7 12.7 15.2-37.9zm14 26.1 27.5 51.2-56.6-38.4 29.1-12.8zM461 423.1l55.5 37.6-3 21.9-52.5-59.5zm55.7 43.3.7 20.7-3.1-3.5 2.4-17.2zm-2.5 18.6 3.2 3.7-6.2 18.7 3-22.4zm-3.1 25.8 7-21 8.5 17.3-15.5 3.7zm16.5-3.9-8-16.3 15.8 14.4-7.8 1.9zm-9.1-18.6-.9-25.3 18.8 41.6-17.9-16.3zm33.5 30.5-13.7-12.5-.4-.8 38.3-9.1-24.2 22.4zm25.7-23.8-40.2 9.5-20-44.3-.5.2.4-.2-28.4-52.8 157.7-69.7 10.7 83.6-79.7 73.7zm2-.4 78.1-72.2 18.4 49.3-96.5 22.9zm97.5-23.1-18.1-48.6 42.6 32 .3-.4v.5l60.2-3.6-85 20.1zm25-17.5-41.8-31.4 104.5 27.6-62.7 3.8zm66.6-2.9L824 455l-35.9 43.6-19.3-47.5zm53.3 55-33.2-6.9 35.5-43.2-2.3 50.1zm3.2-47.5 4.3 21.3-3.3 27.1-3.2-.7 2.2-47.7zm-5.7 103-30.7-61.4 33.2 6.9-2.5 54.5zm3.5-54.3 3.1.6-5.1 42.1 2-42.7zm-1.9 50.4 6-49.5 8.2 1.7-14.2 47.8zm14.2-48.8-8.1-1.7 2.9-24.2 5.2 25.9zm-5.5-32.2-4.4-22.2 12.6-45.5-8.2 67.7zm9-74.3L824.6 454l-56.5-4-109.6-28.9-10.7-83.8L775.1 281l79.3-7.3-15.5 128.7zm1.8-6.5 14.7-122.3 19.6-1.8-34.3 124.1zm34.6-125.1-19.8 1.8 10.8-89.8 24.1 33.1-15.1 54.9zm1.1-.1 14.9-53.8 35.8 49.1-50.7 4.7zm51.4-5.4-36.2-49.6 29.8-107.6 42.1 16.6-35.7 140.6zm35.8-141.5-41.8-16.5 7.7-11.5L967.9 78l-4.3 45.8zm1-.3 4.4-46 29-13.4 18.8 25.4-52.2 34zm34.3-59.9 25.6-11.9 30.5 12.8-37.3 24.3-18.8-25.2zm19.3 26.2 37.8-24.6 72.6 57.7 49.9 81.8 12.8 119.1-173.1-234zm161.3 114.8 72.9-111.9-60.2 230-12.7-118.1zm187.2 373.5-1.4 2.4-8.5-16.1 9.9 13.7zm13.8 33.4-53.2 40.1 3.2-11.4 34.6-57.6 15.4 28.9zm-27.4-51.7 11.5 21.7-33 55 21.5-76.7zm-5.6 16.4-17.9 63.6-8.7 14.5 26.6-78.1zm-18.9 67.2-2.6 9.1-5.3 4 7.9-13.1zm-6.1 22-1.3-3.1 1.6 2.1-.3 1zm.6-2.2-2.8-3.8 3.6 1.1-.8 2.7zm1-3.6-2-.6 2.2-.1-.2.7zm.5-1.7-4 .1 5.1-3.8-1.1 3.7zm1-.1 1.3-4.7 54.1-40.8 23.2 43.6-78.6 1.9zm76.9-7-20.7-39 5.9-4.5 14.8 43.5zm-15.2-44.4-5.9 4.5-15.6-29.3 1.5-2.6 20 27.4zm436.5 13.3-67.3-45.2 70.5 37.6-3.2 7.6zm.9.4 3.1-7.5 24 12.8-27.1-5.3zm29.9 5.6-26.4-14.1 41.8-100.4-15.4 114.5zm-27.3-14.5-75.9-40.4 118.6-62.2-42.7 102.6zm-11.5-75.3-65.4 34.3-1.3-.7 66.7-33.6zm-68 34 1.3.9-65.2 34.2-23.1-66.7 87 31.6zm50.7-463.9-24.7 40.8L1762 129l36.5-23zm-49.6 84 25-41.3 26.7 40.1-51.7 1.2zm52.4-.2 63.5 95.2-115.4-94 51.9-1.2zM1684.8 15.1l17.2 25.7-2.1 10-15.1-35.7zm15.7 37.4 2.2-10.5 27.8 41.8 6.5 56.3-36.5-87.6zm31.3 33.1 28.8 43.1-22.1 13.9-6.7-57zm6.8 58.1 22.5-14.2 12.1 18.2-25 41.4-9.6-45.4zm-159.9 58.5-4.8 16.5-2.8-16 7.6-.5zm19.3 153.5-.7-4.1 7.1 1.2-6.4 2.9zm7.5-2.4 4.4 70.3-11.8-66.9 7.4-3.4zm-3.5-2-5-.8-.3-1.4 5.3 2.2zm-5.4-3.4-.2-.9 3.9 2.5-3.7-1.6zm-.4-2.2-.9-5.4 8.3 10.1-7.4-4.7zm-58.2-36.1-7.2 9.5-23.7-10.3 3.9-16.4 27 17.2zm-26.8-18.3 1.2-5.2 40.7 3.9-14.5 18.9-27.4-17.6zm18.9 28.6-12.9 16.9-16.1-2.8 5.7-24.3 23.3 10.2zm.9.4 64.7 28.2.3 1.7-77.7-13.3 12.7-16.6zm64.3 26 .2 1.1-63.8-27.9 7.1-9.3 56.5 36.1zm-55.9-36.9 14.6-19.1 40 48.4 1.1 6.2-55.7-35.5zm15.2-20 19.1-66.2 20 113.6-39.1-47.4zm1.8-184.7 12.1 44.2-13.9-40.4 1.8-3.8zm-102.1 5.3 99.3-1 8.6 49.1-107.9-48.1zm101.3 4.6 16.6 48-8.8-3.9-7.8-44.1zm7.9 45.2 8.9 4-3.8 25.1-5.1-29.1zm5.2 35.3 1.2 6.7-2.2.1 1-6.8zm-1.1 7.9 2.5-.2 3.2 18.1-17.6 61.1 11.9-79zm-1.1 0-13 85.9-41.5-4v.5l-.5-.1-1.3 5.3-119-76.1 175.3-11.5zm-56.5 88.7-3.9 16.6-183.2-80L1386 215l3.5-.2 120.5 76.9zm-211.7-74.2-2.1-8.2 84.8 5.3-67.7 9.4-15-6.5zm13.1 6.9-11.1 1.5-1.8-7.2 12.9 5.7zm-14.3-7.4-19-8.3v-.5l17 1.1 2 7.7zm.3 1.3 1.8 7-21.1-15.4 19.3 8.4zm1.6 8.1-21.5 10.3.5-25.6 21 15.3zm1.1.6 13-1.8 6.5 2.8-38.7 8.2 19.2-9.2zm15-2.1 56.7-7.9-50.4 10.6-6.3-2.7zm73.1-11-2.2.1-90.1-5.6-16.1-63.8 108.4 69.3zm-108.8-66.7 15.5 61.1-16.7-1 1.2-60.1zm-1.3 13.9-1 46.1-2.6-.2 3.6-45.9zm-1 47.1v.1l-.3-.1h.3zm-2.5.4 2.5 1.8-.4 18.9-2.1-20.7zm-41.6 79.6 44.3-50.2 44-9.3 184.6 80.6-5.8 24.6-267.1-45.7zm267.9 46.8 15.6 2.7-23.5 30.7 7.9-33.4zm-8.2 35.3 24.9-32.5 78.6 13.5.8 4.8-71 32.9-33.3-18.7zm34.4 19.2 70.1-32.4 13.1 74.5-83.2-42.1zm67.1 167.3-31.1 43.8-36-63.2 67.1 19.4zm-66.7 106.8-.1-6.6 7.6-6.8-7.5 13.4zm9-16-9.1 8.1-.9-117.3 35.9 63.1-25.9 46.1zm2.3-2.1 24.6-43.7 31.9-44.8 62.7-18.3-119.2 106.8zm120.5-108.3-63.4 18.5 34.1-81.5 29.3 63zm-29.4-65.4-18.4-39.4-5-79.9h-.5l.4-.3-11.4-13.9-20.7-117.3 5.4-18.8 167.5-11.1-51.2 122.4-3.7-5.2-.4.3-.5.2 3.2 8-64.7 155zm65.4-156.4-1.2-3.1 1.6 2.3-.4.8zm40.6 102.5-40.1-101.2.5-1.2 48.8 69.3-9.2 33.1zm.9.6 9-32.7 14.4 20.5-23.4 12.2zm23.2-14.2-13.9-19.7 5.8-20.9 8.1 40.6zm-8.3-43.2.3.4-.5-.1-6.1 22.1-48.7-69.1 51.4-123.1 117.9 96.1-114.3 73.7zm50.8-171.3 29.2-.7 33.6 94.8-62.8-94.1zm57.8 77.2-27.6-77.9 4-.1 23.6 78zm-24.1-79-3.9.1-16.4-46.2 20.3 46.1zm-4.9.1-29.5.7-27.4-41 25.5-42.2 10.6 24 20.8 58.5zm-25.3-71.2-5.5-12.5.3-2.1 5.2 14.6z"/><path class="st1" d="M518 493.5c-2.8 0-5-2.2-5-5s2.2-5 5-5 5 2.2 5 5-2.2 5-5 5zm-1-41c-4.4 0-8 3.6-8 8s3.6 8 8 8 8-3.6 8-8-3.6-8-8-8zm-153-171c-8.3 0-15 6.7-15 15s6.7 15 15 15 15-6.7 15-15-6.7-15-15-15zm4 103c-5 0-9 4-9 9s4 9 9 9 9-4 9-9-4-9-9-9zm184 146c6.1 0 11-4.9 11-11s-4.9-11-11-11-11 4.9-11 11 4.9 11 11 11zm-155-464c0-7.2-5.8-13-13-13s-13 5.8-13 13 5.8 13 13 13 13-5.8 13-13zm100 153c0-6.6-5.4-12-12-12s-12 5.4-12 12 5.4 12 12 12 12-5.4 12-12zm-14 161c0-5-4-9-9-9s-9 4-9 9 4 9 9 9 9-4 9-9zm85-246c0-2.8-2.2-5-5-5s-5 2.2-5 5 2.2 5 5 5 5-2.2 5-5zm-58 392c7.7 0 14-6.3 14-14s-6.3-14-14-14-14 6.3-14 14 6.3 14 14 14zm25-397c-3.9 0-7 3.1-7 7s3.1 7 7 7 7-3.1 7-7-3.1-7-7-7zm-77 279c-6.6 0-12 5.4-12 12s5.4 12 12 12 12-5.4 12-12-5.4-12-12-12zm-74-370c7.7 0 14-6.3 14-14s-6.3-14-14-14-14 6.3-14 14 6.3 14 14 14zm-23 68c0-6.6-5.4-12-12-12s-12 5.4-12 12 5.4 12 12 12 12-5.4 12-12zm-53 20c-3.9 0-7 3.1-7 7s3.1 7 7 7 7-3.1 7-7-3.1-7-7-7zm7 286c0-6.6-5.4-12-12-12s-12 5.4-12 12 5.4 12 12 12 12-5.4 12-12zm-15 135c0-6.4-4.1-11.9-9.8-14h.8c3.9 0 7-3.1 7-7s-3.1-7-7-7-7 3.1-7 7c0 2.8 1.6 5.2 4 6.3-1-.2-1.9-.3-3-.3-8.3 0-15 6.7-15 15s6.7 15 15 15 15-6.7 15-15zm-17-67c0-3.3-2.7-6-6-6s-6 2.7-6 6 2.7 6 6 6 6-2.7 6-6zm-174 62c0 2.8 2.2 5 5 5s5-2.2 5-5-2.2-5-5-5-5 2.2-5 5zm18.4-90.8c-.9 1.7-1.4 3.7-1.4 5.8 0 7.2 5.8 13 13 13s13-5.8 13-13-5.8-13-13-13c-3.3 0-6.3 1.3-8.6 3.3.4-1 .6-2.1.6-3.3 0-5-4-9-9-9s-9 4-9 9 4 9 9 9c2 0 3.9-.7 5.4-1.8zM174 346.5c0 8.3 6.7 15 15 15s15-6.7 15-15-6.7-15-15-15-15 6.7-15 15zm247 265c7.2 0 13-5.8 13-13s-5.8-13-13-13-13 5.8-13 13 5.8 13 13 13zm-12-63c7.2 0 13-5.8 13-13s-5.8-13-13-13-13 5.8-13 13 5.8 13 13 13zm-19-430c2.8 0 5-2.2 5-5s-2.2-5-5-5-5 2.2-5 5 2.2 5 5 5zm11 191c1.6 0 3-.4 4.3-1-.2 1-.3 2-.3 3 0 7.7 6.3 14 14 14s14-6.3 14-14-6.3-14-14-14c-3 0-5.8.9-8 2.5v-.5c0-5.5-4.5-10-10-10s-10 4.5-10 10 4.5 10 10 10zm-133 106c0-6.6-5.4-12-12-12s-12 5.4-12 12 5.4 12 12 12 12-5.4 12-12zm-40 61c0 7.2 5.8 13 13 13s13-5.8 13-13-5.8-13-13-13-13 5.8-13 13zm48 154c7.7 0 14-6.3 14-14s-6.3-14-14-14c-1.1 0-2.2.1-3.2.4.1-.8.2-1.6.2-2.4 0-7.2-5.8-13-13-13s-13 5.8-13 13 5.8 13 13 13c.8 0 1.6-.1 2.4-.2-.2 1-.4 2.1-.4 3.2 0 7.7 6.3 14 14 14zm816 27c-2.8 0-5 2.2-5 5s2.2 5 5 5 5-2.2 5-5-2.2-5-5-5zm-171-564c-7.7 0-14 6.3-14 14s6.3 14 14 14 14-6.3 14-14-6.3-14-14-14zm0 173c0 3.9 3.1 7 7 7s7-3.1 7-7-3.1-7-7-7-7 3.1-7 7zm52-244c-3.9 0-7 3.1-7 7s3.1 7 7 7 7-3.1 7-7-3.1-7-7-7zm-9 87c-8.3 0-15 6.7-15 15s6.7 15 15 15 15-6.7 15-15-6.7-15-15-15zm-31 555c6.6 0 12-5.4 12-12s-5.4-12-12-12-12 5.4-12 12 5.4 12 12 12zm-97-210c0-6.1-4.9-11-11-11s-11 4.9-11 11 4.9 11 11 11 11-4.9 11-11zm21-273c0 5 4 9 9 9s9-4 9-9-4-9-9-9-9 4-9 9zm194-117c0 2.8 2.2 5 5 5s5-2.2 5-5-2.2-5-5-5-5 2.2-5 5zm-42 519c-5 0-9 4-9 9s4 9 9 9 9-4 9-9-4-9-9-9zm-872-260c6.1 0 11-4.9 11-11s-4.9-11-11-11-11 4.9-11 11 4.9 11 11 11zm972 321c0-7.2-5.8-13-13-13s-13 5.8-13 13 5.8 13 13 13 13-5.8 13-13zm-14-17c0-2.8-2.2-5-5-5s-5 2.2-5 5 2.2 5 5 5 5-2.2 5-5zm-83-153c-4.4 0-8 3.6-8 8s3.6 8 8 8 8-3.6 8-8-3.6-8-8-8zm-197 89c0 2.8 2.2 5 5 5s5-2.2 5-5-2.2-5-5-5-5 2.2-5 5zm-47-106c3.9 0 7-3.1 7-7s-3.1-7-7-7-7 3.1-7 7 3.1 7 7 7zm-111-320c0-3.3-2.7-6-6-6s-6 2.7-6 6 2.7 6 6 6 6-2.7 6-6zm1 299c8.3 0 15-6.7 15-15s-6.7-15-15-15-15 6.7-15 15 6.7 15 15 15zm178 84c6.1 0 11-4.9 11-11s-4.9-11-11-11-11 4.9-11 11 4.9 11 11 11zm-209-286c6.6 0 12-5.4 12-12s-5.4-12-12-12-12 5.4-12 12 5.4 12 12 12zm-14-171c-3.9 0-7 3.1-7 7s3.1 7 7 7 7-3.1 7-7-3.1-7-7-7zm175 443c3.9 0 7-3.1 7-7s-3.1-7-7-7-7 3.1-7 7 3.1 7 7 7zm-123-406c-2.6 0-4.9 1.2-6.3 3.1.2-1 .3-2.1.3-3.1 0-8.3-6.7-15-15-15s-15 6.7-15 15 6.7 15 15 15c5.6 0 10.4-3.1 13-7.6v.6c0 4.4 3.6 8 8 8s8-3.6 8-8-3.6-8-8-8zm29 354c0 4.4 3.6 8 8 8s8-3.6 8-8-3.6-8-8-8-8 3.6-8 8zm90-174c0-5-4-9-9-9s-9 4-9 9 4 9 9 9 9-4 9-9zm-14-117c0 6.6 5.4 12 12 12s12-5.4 12-12-5.4-12-12-12-12 5.4-12 12zm30-158c0 3.3 2.7 6 6 6s6-2.7 6-6c0-2.5-1.5-4.6-3.6-5.5h-4.8c-2.1.9-3.6 3-3.6 5.5zm-9 21c0-3.9-3.1-7-7-7s-7 3.1-7 7 3.1 7 7 7 7-3.1 7-7zm-29-8c-7.2 0-13 5.8-13 13s5.8 13 13 13 13-5.8 13-13-5.8-13-13-13zm-178 196c0 3.9 3.1 7 7 7s7-3.1 7-7-3.1-7-7-7-7 3.1-7 7zm595-19c-5 0-9 4-9 9s4 9 9 9 9-4 9-9-4-9-9-9zm375-97c-5.5 0-10 4.5-10 10s4.5 10 10 10 10-4.5 10-10-4.5-10-10-10zm-6 503c0 8.3 6.7 15 15 15s15-6.7 15-15-6.7-15-15-15-15 6.7-15 15zm46-589c-7.2 0-13 5.8-13 13s5.8 13 13 13 13-5.8 13-13-5.8-13-13-13zm-21 142c-5 0-9 4-9 9s4 9 9 9 9-4 9-9-4-9-9-9zm108 154c0 6.1 4.9 11 11 11s11-4.9 11-11-4.9-11-11-11-11 4.9-11 11zm-7 229c0-7.7-6.3-14-14-14s-14 6.3-14 14 6.3 14 14 14 14-6.3 14-14zm-153 128c0 3.3 2.7 6 6 6s6-2.7 6-6-2.7-6-6-6-6 2.7-6 6zm-9-390c-5.5 0-10 4.5-10 10s4.5 10 10 10 10-4.5 10-10-4.5-10-10-10zm-20 82c-7.2 0-13 5.8-13 13s5.8 13 13 13 13-5.8 13-13-5.8-13-13-13zm114-15c-5.5 0-10 4.5-10 10s4.5 10 10 10 10-4.5 10-10-4.5-10-10-10zm-80 36c-6.1 0-11 4.9-11 11s4.9 11 11 11 11-4.9 11-11-4.9-11-11-11zm179-326c0-2.8-2.2-5-5-5s-5 2.2-5 5 2.2 5 5 5 5-2.2 5-5zm-110 498c-3.3 0-6 2.7-6 6s2.7 6 6 6 6-2.7 6-6-2.7-6-6-6zm31-118c0-8.3-6.7-15-15-15s-15 6.7-15 15 6.7 15 15 15 15-6.7 15-15zm-72-129c7.7 0 14-6.3 14-14s-6.3-14-14-14-14 6.3-14 14 6.3 14 14 14zm198 51c-3.9 0-7 3.1-7 7s3.1 7 7 7 7-3.1 7-7-3.1-7-7-7zm85-173c-3.9 0-7 3.1-7 7s3.1 7 7 7 7-3.1 7-7-3.1-7-7-7zm-37-89c-6.6 0-12 5.4-12 12s5.4 12 12 12 12-5.4 12-12-5.4-12-12-12zm67 183c-6.6 0-12 5.4-12 12s5.4 12 12 12 12-5.4 12-12-5.4-12-12-12zm-758-269c0 6.6 5.4 12 12 12s12-5.4 12-12c0-2.4-.7-4.6-1.9-6.5h-20.2c-1.2 1.9-1.9 4.1-1.9 6.5zm762 508c3.9 0 7-3.1 7-7s-3.1-7-7-7-7 3.1-7 7 3.1 7 7 7zm-59 106c0 6.6 5.4 12 12 12s12-5.4 12-12-5.4-12-12-12-12 5.4-12 12zm-70-51c0 3.3 2.7 6 6 6s6-2.7 6-6-2.7-6-6-6-6 2.7-6 6zm113 46c-6.1 0-11 4.9-11 11s4.9 11 11 11 11-4.9 11-11-4.9-11-11-11zm-107-434c-5 0-9 4-9 9s4 9 9 9 9-4 9-9-4-9-9-9zm13 230c2.8 0 5-2.2 5-5s-2.2-5-5-5-5 2.2-5 5 2.2 5 5 5zm-23-274c-3.3 0-6 2.7-6 6s2.7 6 6 6 6-2.7 6-6-2.7-6-6-6zm-11 282c0 5 4 9 9 9s9-4 9-9-4-9-9-9-9 4-9 9zm-427-207c-7.7 0-14 6.3-14 14 0 1.3.2 2.5.5 3.7-2.2-2.9-5.6-4.7-9.5-4.7-6.6 0-12 5.4-12 12s5.4 12 12 12 12-5.4 12-12c0-1-.1-1.9-.3-2.8 2.5 3.5 6.7 5.8 11.3 5.8 7.7 0 14-6.3 14-14s-6.3-14-14-14zm-307 451c0-6.1-4.9-11-11-11s-11 4.9-11 11c0 4.1 2.2 7.6 5.5 9.5h11.1c3.2-1.9 5.4-5.4 5.4-9.5zm-846 3c-3.7 0-6.7 2.9-7 6.5h14c-.3-3.6-3.3-6.5-7-6.5zm967-544c0 8.3 6.7 15 15 15s15-6.7 15-15-6.7-15-15-15-15 6.7-15 15zm34-94c0-3.9-3.1-7-7-7s-7 3.1-7 7 3.1 7 7 7 7-3.1 7-7zm91 438c0 3.9 3.1 7 7 7s7-3.1 7-7-3.1-7-7-7-7 3.1-7 7zM43 655.5c3.9 0 7-3.1 7-7s-3.1-7-7-7-7 3.1-7 7 3.1 7 7 7zm1189-381c-7.7 0-14 6.3-14 14s6.3 14 14 14 14-6.3 14-14-6.3-14-14-14zm-1093 308c8.3 0 15-6.7 15-15s-6.7-15-15-15-15 6.7-15 15 6.7 15 15 15zm-69-404c0-3.9-3.1-7-7-7s-7 3.1-7 7 3.1 7 7 7 7-3.1 7-7zm1138 427c0 8.3 6.7 15 15 15s15-6.7 15-15-6.7-15-15-15-15 6.7-15 15zm-1075-504c-8.3 0-15 6.7-15 15s6.7 15 15 15 15-6.7 15-15-6.7-15-15-15zm18 514c6.6 0 12-5.4 12-12s-5.4-12-12-12-12 5.4-12 12 5.4 12 12 12zm-100-175c0 6.6 5.4 12 12 12s12-5.4 12-12-5.4-12-12-12-12 5.4-12 12zm1487 96c0-6.6-5.4-12-12-12s-12 5.4-12 12 5.4 12 12 12 12-5.4 12-12zM80 111.5c0 3.3 2.7 6 6 6s6-2.7 6-6-2.7-6-6-6-6 2.7-6 6zm1308 509c7.7 0 14-6.3 14-14s-6.3-14-14-14-14 6.3-14 14 6.3 14 14 14zm-8-285c0 5 4 9 9 9s9-4 9-9-4-9-9-9-9 4-9 9zm6-130c-5 0-9 4-9 9s4 9 9 9 9-4 9-9-4-9-9-9zm71-96c0-2.8-2.2-5-5-5s-5 2.2-5 5 2.2 5 5 5 5-2.2 5-5zm-90 449c0-7.7-6.3-14-14-14s-14 6.3-14 14 6.3 14 14 14 14-6.3 14-14zm-166 14c-4.4 0-8 3.6-8 8s3.6 8 8 8 8-3.6 8-8-3.6-8-8-8zm204 90c3.3 0 6-2.7 6-6s-2.7-6-6-6-6 2.7-6 6 2.7 6 6 6zm-252-311c0 7.2 5.8 13 13 13s13-5.8 13-13-5.8-13-13-13-13 5.8-13 13zm110-144c0 6.1 4.9 11 11 11s11-4.9 11-11-4.9-11-11-11-11 4.9-11 11zm-71 107c-6.1 0-11 4.9-11 11s4.9 11 11 11 11-4.9 11-11-4.9-11-11-11zm-1049-108c0-5-4-9-9-9s-9 4-9 9 4 9 9 9 9-4 9-9zm1176 457c2.8 0 5-2.2 5-5s-2.2-5-5-5-5 2.2-5 5 2.2 5 5 5zm-40-527c-3.9 0-7 3.1-7 7s3.1 7 7 7 7-3.1 7-7-3.1-7-7-7z"/><g fill="#ff6863"><path d="M501.7 154.9h363.2v363.2H501.7z"/><path fill-opacity=".5" d="M1055.1 154.9h363.2v363.2h-363.2z"/></g></svg>