<svg xmlns="http://www.w3.org/2000/svg" viewBox="0 0 1920 673" xml:space="preserve"><style>.st1{fill:#fff}</style><path fill="#415596" d="M0 0h1920v673H0z"/><path class="st1" d="M570 419.1h780V673H570z"/><path fill="#008376" d="M1322 255H598l-28 28v145h780V283z"/><path fill="#00564a" d="M1327 260H593l-16.9 16.9V309h767.8v-32.1z"/><path class="st1" d="m613.4 270.1-6.5 6.5V300h23.7v-29.9h-17.2zm4.3 10.8h-2.1v-6.6h2.1v6.6zm4.3 0h-2.1v-6.6h2.1v6.6zm4.3 0h-2.1v-6.6h2.1v6.6zm507-10.8c-11.5 0-18.3 7.8-18.3 7.8l18.3 22.1 18.3-22.1s-6.8-7.8-18.3-7.8z"/><path opacity=".5" fill="#fff" d="m1155.7 300 29.9-29.9V300z"/><path class="st1" d="m1155.7 300 17.2-17.2V300zm94.8-2.4h-3.5v-17.1l-5.2 1.8v-3l8.3-3.1h.5v21.4zm21.7 0h-14.3v-2.4l7.1-7.7c1-1.1 1.8-2.1 2.2-2.9s.7-1.5.7-2.3c0-1-.3-1.8-.9-2.5-.6-.6-1.3-.9-2.3-.9-1.2 0-2 .4-2.7 1.1s-1 1.7-1 2.9h-3.6c0-1.3.3-2.5.9-3.5s1.4-1.8 2.5-2.4c1.1-.6 2.4-.9 3.8-.9 2.1 0 3.7.5 4.9 1.6 1.2 1 1.8 2.5 1.8 4.3 0 1.1-.3 2.2-.9 3.3-.6 1.2-1.6 2.5-3 4l-5.2 5.6h9.9v2.7zm5.1-16.2c.7 0 1.2.2 1.5.6s.5.8.5 1.4c0 .6-.2 1-.5 1.4s-.9.5-1.5.5-1.1-.2-1.5-.5-.6-.8-.6-1.4.2-1 .5-1.4 1-.6 1.6-.6zm0 12.4c.7 0 1.2.2 1.5.6s.5.8.5 1.4c0 .6-.2 1-.5 1.4s-.9.5-1.5.5-1.1-.2-1.5-.5-.6-.8-.6-1.4.2-1 .5-1.4 1-.6 1.6-.6zm6.6-6.8 1.2-10.8h11.5v3.1h-8.5l-.6 5.1c1-.6 2.1-.8 3.3-.8 2 0 3.6.6 4.7 1.9 1.1 1.3 1.7 3 1.7 5.2s-.6 3.9-1.9 5.2-3 1.9-5.1 1.9c-2 0-3.6-.6-4.9-1.7s-2-2.6-2.1-4.4h3.4c.1 1 .5 1.8 1.1 2.4s1.4.8 2.4.8c1.1 0 1.9-.4 2.6-1.2.6-.8.9-1.8.9-3.2 0-1.3-.3-2.3-1-3.1s-1.6-1.1-2.8-1.1c-.6 0-1.2.1-1.6.3s-.9.5-1.5 1l-2.8-.6zm28.1 3h2.7v2.9h-2.7v4.7h-3.6v-4.7h-9.2l-.1-2.2 9.2-14.4h3.7V290zm-9.2 0h5.6v-8.9l-.3.5-5.3 8.4zm-84.9-15.5v-4.4h-10.6v4.4h-4.3V300h19.3v-25.5h-4.4zm-.3 10.1-10.1 11.8 3.4-8.6h-3.4l4.8-9.5h5.3l-3.9 6.3h3.9zm-583.8 93.5h-11.6l-2.4 7h-5.4l11.3-29.9h4.7l11.3 29.9h-5.4l-2.5-7zm-10.1-4.2h8.7l-4.3-12.4-4.4 12.4zm24.5-11 .1 2.6c1.6-2 3.8-3 6.5-3 4.6 0 7 2.6 7.1 7.9v14.7h-5v-14.4c0-1.4-.3-2.5-.9-3.1-.6-.7-1.6-1-3-1-2 0-3.5.9-4.5 2.7v15.8h-5v-22.2h4.7zm18.8-5.8c0-.8.2-1.4.7-1.9s1.2-.8 2.1-.8 1.6.3 2.1.8.7 1.1.7 1.9c0 .8-.2 1.4-.7 1.9-.5.5-1.2.7-2.1.7s-1.6-.2-2.1-.7c-.5-.5-.7-1.1-.7-1.9zm5.3 28h-5v-22.2h5v22.2zm10.1-22.2.1 2.3c1.6-1.8 3.7-2.7 6.4-2.7 3 0 5 1.1 6.1 3.4 1.6-2.3 3.9-3.4 6.8-3.4 2.4 0 4.3.7 5.5 2s1.8 3.3 1.8 6v14.6h-5v-14.4c0-1.4-.3-2.4-.9-3.1s-1.6-1-3.1-1c-1.1 0-2.1.3-2.8.9s-1.2 1.4-1.5 2.4v15.2h-5v-14.6c-.1-2.6-1.4-3.9-4-3.9-2 0-3.4.8-4.2 2.4v16.1h-5v-22.2h4.8zm45.1 22.2c-.2-.4-.4-1.1-.6-2.1-1.6 1.7-3.5 2.5-5.8 2.5-2.2 0-4-.6-5.5-1.9s-2.1-2.8-2.1-4.7c0-2.4.9-4.2 2.6-5.4s4.3-1.9 7.5-1.9h3.1v-1.5c0-1.1-.3-2.1-1-2.8s-1.6-1-2.9-1c-1.1 0-2.1.3-2.8.9-.7.6-1.1 1.3-1.1 2.2h-5c0-1.2.4-2.4 1.2-3.4s1.9-1.9 3.3-2.5 2.9-.9 4.6-.9c2.6 0 4.7.7 6.2 2s2.3 3.1 2.4 5.5v10c0 2 .3 3.6.8 4.8v.3h-4.9zm-5.5-3.6c1 0 1.9-.2 2.8-.7s1.5-1.1 2-1.9v-4.2h-2.7c-1.8 0-3.2.3-4.2 1s-1.4 1.6-1.4 2.7c0 1 .3 1.7 1 2.3s1.4.8 2.5.8zm21.2-24v5.4h3.9v3.7h-3.9V379c0 .8.2 1.5.5 1.8s.9.6 1.8.6c.6 0 1.2-.1 1.7-.2v3.9c-1.1.3-2.2.5-3.3.5-3.8 0-5.7-2.1-5.7-6.3v-12.6h-3.7V363h3.7v-5.4h5zm7.7-.4c0-.8.2-1.4.7-1.9s1.2-.8 2.1-.8 1.6.3 2.1.8.7 1.1.7 1.9c0 .8-.2 1.4-.7 1.9-.5.5-1.2.7-2.1.7s-1.6-.2-2.1-.7c-.4-.5-.7-1.1-.7-1.9zm5.3 28h-5v-22.2h5v22.2zm4.5-11.3c0-2.2.4-4.1 1.3-5.9.9-1.7 2.1-3.1 3.6-4 1.6-.9 3.3-1.4 5.4-1.4 3 0 5.4 1 7.3 2.9s2.9 4.5 3 7.7v1.2c0 2.2-.4 4.1-1.3 5.9s-2 3.1-3.6 4-3.4 1.4-5.4 1.4c-3.1 0-5.6-1-7.5-3.1s-2.8-4.9-2.8-8.3v-.4zm5 .4c0 2.3.5 4.1 1.4 5.4.9 1.3 2.3 1.9 3.9 1.9s3-.7 3.9-2 1.4-3.2 1.4-5.8c0-2.2-.5-4-1.4-5.3s-2.3-2-3.9-2-2.9.6-3.9 1.9c-.9 1.4-1.4 3.3-1.4 5.9zm24.5-11.3.1 2.6c1.6-2 3.8-3 6.5-3 4.6 0 7 2.6 7.1 7.9v14.7h-5v-14.4c0-1.4-.3-2.5-.9-3.1-.6-.7-1.6-1-3-1-2 0-3.5.9-4.5 2.7v15.8h-5v-22.2h4.7z"/><g fill="#f15a54"><path d="M908.9 484.7h132v132h-132z"/><path opacity=".5" d="M855.5 491.3h53.4v118.8h-53.4z"/><path opacity=".3" d="M808.7 504.5h46.8v92.4h-46.8z"/></g><path d="M575.4 673V323c0-34.3 28.1-62.4 62.4-62.4h644.5c34.3 0 62.4 28.1 62.4 62.4v350h27.7V329.9c0-57.5-46.4-103.9-103.9-103.9H651.6c-57.5 0-103.9 46.4-103.9 103.9V673h27.7z" fill="#122a3a"/></svg>