<svg xmlns="http://www.w3.org/2000/svg" viewBox="0 0 1920 673" xml:space="preserve"><style>.st1{fill:#fff}.st2{fill:#221e1f}.st3{fill:#98cd70}</style><path fill="#e4e5e7" d="M0 0h1920v673H0z"/><ellipse transform="rotate(-53.843 1432.185 253.512)" class="st1" cx="1432.2" cy="253.5" rx="55.9" ry="39.2"/><path class="st2" d="M1417.2 306.4c-7.2 0-13.8-2-19.3-6-18.4-13.4-18-45.4.8-71.3 18.9-25.8 49.2-35.9 67.6-22.5 9 6.6 13.9 17.8 13.6 31.3-.2 13.4-5.4 27.5-14.4 39.9-9 12.4-21 21.6-33.6 25.9-5 1.8-10 2.7-14.7 2.7zm-15-74.8c-17.5 24-18.3 53.3-1.7 65.3 7.9 5.8 18.6 6.8 30.1 2.9 11.8-4 23-12.7 31.6-24.4 8.6-11.7 13.4-25 13.7-37.5.2-12.2-4-22.1-11.9-27.9-16.6-12.1-44.3-2.4-61.8 21.6z"/><path class="st3" d="M1266.9 343.4s1.6 7.5 0 11.2c-1.6 3.6-12.5 13.8-12.5 13.8l23 3.1s2.9-7.8 3.6-12.8c.7-5.1 0-11.1 0-11.1"/><path class="st2" d="m1278.8 373.8-29.1-3.9 3.2-3c4.1-3.9 11-10.8 12.1-13.1 1-2.2.5-7.2-.2-9.9l4.1-.8c.2.8 1.7 8.3-.2 12.4-1.2 2.7-6.3 8-9.9 11.5l17.1 2.4c.8-2.5 2.4-7.4 3-10.9.7-4.7 0-10.5 0-10.5l4.2-.5c0 .2.8 6.3 0 11.6-.8 5.2-3.6 13-3.7 13.3l-.6 1.4z"/><path class="st3" d="M1371.2 266.5c-13.5-3.6-47-33-94.4-36.3-47.4-3.3-73.9 57.2-81.4 81.4-7.4 24.1-10.7 43.7-7.4 74.9s21.9 63 32.8 74.7 25.3 26.3 45.8 26.3c27.5 0 37.3-20.3 39.5-30 3.1-16.7-12.8-48.8-34.5-50-21.6-1.1-27.9 12.5-27.9 21.9s10.9 19.5 19.3 20c8.3.5 17.5-5.1 16.5-13.1-.9-7.9-7-4.2-7-4.2s1.4 7-4.6 7.4-11.6-4.6-10.7-10.2c.9-5.6 7-10.7 17.2-9.3 10.2 1.4 21.9 22.3 20 32.6-1.9 10.2-6.1 26-28.4 21.4-28.8-6.1-64.2-58.6-62.8-96.8 1.4-38.2 29.7-58.6 29.7-58.6s23.2 32.6 68.4 30.7c45.2-1.9 76.7-12.1 76.7-12.1s11.6 4.8 28.8 3.3c25.1-5.1 48.5-24.7 48.5-24.7s-15.4-28.4-29.8-36.7-40.8-9-54.3-12.6z"/><path class="st2" d="M1266.6 489.4c-22 0-37.3-16.2-47.4-26.9-11.5-12.3-30.1-44.9-33.3-75.9-3.3-32 .2-52 7.5-75.7 2.7-8.9 28.3-86.7 83.6-82.9 34.1 2.4 60.8 17.8 78.5 28 7.1 4.1 12.7 7.3 16.3 8.3 4.5 1.2 10.7 2.1 17.2 3 13.1 1.9 27.9 4 37.6 9.7 14.7 8.6 30 36.4 30.7 37.6l.8 1.5-1.3 1.1c-1 .8-24 20-49.4 25.1h-.2c-15.3 1.4-26.3-2-29.1-3.1-5 1.5-35.4 10.2-76.6 12-39.6 1.7-63.1-23-68.8-29.8-5.8 4.9-26.2 24.2-27.3 55.7-1.4 36.4 32.4 88.6 61.1 94.6 7.2 1.5 12.9.8 17-1.9 5.7-3.8 7.7-11.2 8.9-17.8.9-5.2-2.3-14.4-7.4-21.6-3.6-4.9-7.5-8-10.8-8.5-8.7-1.2-14.1 2.9-14.9 7.6-.3 1.7.3 3.6 1.7 5.1 1.7 1.8 4.3 2.9 6.8 2.7 1-.1 1.7-.4 2.1-1 .9-1.1.8-3.3.6-3.9l-.3-1.4 1.2-.8c.4-.2 3.6-2 6.5-.7 2 1 3.3 3.1 3.6 6.4.4 3.5-.8 6.8-3.3 9.6-3.6 3.8-9.6 6.1-15.3 5.8-9.3-.5-21.2-11.3-21.2-22.1 0-3.1.7-10.9 7.1-17 5.4-5.1 13.1-7.4 22.9-6.9 8.7.5 17.3 5.7 24.3 14.6 9 11.4 14 27.3 12.1 37.9-3.3 14.6-16.2 31.6-41.5 31.6zm6.5-257.3c-49.6 0-73.1 71.7-75.7 80.1-7.1 23.2-10.6 42.7-7.4 74.1 3.1 30.1 21.1 61.5 32.3 73.5 9.6 10.2 24.1 25.7 44.3 25.7 30 0 36.8-25.5 37.5-28.4 1.7-9.2-3.1-24.1-11.2-34.4-6.3-8-13.8-12.6-21.2-13.1-8.7-.5-15.3 1.4-19.9 5.8-5.3 5-5.8 11.5-5.8 14 0 8.2 10.2 17.5 17.3 17.9 4.6.2 9.3-1.5 12.1-4.4 1.2-1.3 2.6-3.4 2.3-6.2-.2-1.7-.7-2.8-1.3-3.1-.4-.2-.9-.2-1.4 0 .1 1.5-.2 3.8-1.5 5.6-.8 1.1-2.4 2.4-5.2 2.7-3.8.3-7.6-1.2-10.2-4-2.3-2.4-3.3-5.6-2.7-8.6 1.1-6.7 8.2-12.6 19.6-11 4.4.6 9.3 4.2 13.6 10.2 4.9 6.8 9.6 17.4 8.2 24.8-1.4 7.5-3.7 15.9-10.7 20.6-5.1 3.4-11.8 4.2-20.2 2.5-14.2-3-30.7-16.9-44-37.3-13.4-20.4-21.1-43.5-20.4-61.6 1.4-38.7 29.4-59.3 30.7-60.3l1.7-1.2 1.2 1.7c.2.3 23.1 31.6 66.6 29.8 44.2-1.8 75.9-11.9 76.2-12l.8-.2.7.3c.1.1 11.4 4.6 27.7 3.1 20.9-4.3 40.8-19 46.1-23.1-3.4-5.9-16.3-27.5-28.2-34.4-9.1-5.3-23.5-7.4-36.2-9.2-6.7-1-13-1.9-17.8-3.2-4.2-1.1-10-4.5-17.3-8.7-17.4-10-43.6-25.2-76.7-27.5-1.5-.4-2.7-.5-3.9-.5z"/><ellipse transform="rotate(-9.119 1364.145 243.525)" class="st1" cx="1364.2" cy="243.5" rx="41.1" ry="58.2"/><path class="st2" d="M1368.7 303.4c-21.8 0-42.4-22.5-47.3-53-5.2-32.9 9.6-62.6 33.2-66.4 23.5-3.8 47 19.9 52.3 52.7 5.2 32.9-9.6 62.6-33.2 66.4-1.6.2-3.3.3-5 .3zm-9.1-115.6c-1.4 0-2.9.2-4.4.4-21.2 3.4-34.6 31-29.7 61.6s26.2 52.6 47.4 49.2 34.6-31 29.7-61.6c-4.4-28.5-23.2-49.6-43-49.6z"/><circle class="st2" cx="1352.3" cy="253.1" r="9.6"/><circle class="st2" cx="1455.5" cy="243.5" r="9.6"/><path d="M1163.8 364.8h-27.9s-3.1 6.5-3.1 12.9 3.1 12.9 3.1 12.9h27.9v-25.8z" fill="#d07b84"/><path class="st2" d="M1165.9 392.7h-31.3l-.6-1.2c-.2-.3-3.3-7.1-3.3-13.8 0-6.8 3.2-13.5 3.3-13.8l.6-1.2h31.3v30zm-28.6-4.2h24.4v-21.6h-24.4c-.8 2-2.4 6.5-2.4 10.8-.1 4.3 1.5 8.7 2.4 10.8z"/><path class="st1" d="M1186.1 364.8h-27.9s-3.1 6.5-3.1 12.9 3.1 12.9 3.1 12.9h27.9v-25.8z"/><path class="st2" d="M1188.2 392.7h-31.3l-.6-1.2c-.2-.3-3.3-7.1-3.3-13.8 0-6.8 3.2-13.5 3.3-13.8l.6-1.2h31.3v30zm-28.6-4.2h24.4v-21.6h-24.4c-.8 2-2.4 6.5-2.4 10.8 0 4.3 1.5 8.7 2.4 10.8z"/><path class="st1" d="M1195.9 364.8H1168s-3.1 6.5-3.1 12.9 3.1 12.9 3.1 12.9h27.9v-25.8z"/><path class="st2" d="M1198 392.7h-31.3l-.6-1.2c-.2-.3-3.3-7.1-3.3-13.8 0-6.8 3.2-13.5 3.3-13.8l.6-1.2h31.3v30zm-28.6-4.2h24.4v-21.6h-24.4c-.8 2-2.4 6.5-2.4 10.8-.1 4.3 1.5 8.7 2.4 10.8z"/><path d="M1439.6 364.8h-261.8s-3.1 6.5-3.1 12.9 3.1 12.9 3.1 12.9h261.8l64.4-12.9-64.4-12.9z" fill="#dcc576"/><path class="st1" d="M1439.6 364.8s-3.9 4.6-3.9 12.9 3.9 12.9 3.9 12.9l64.4-12.9-64.4-12.9z"/><path class="st2" d="M1439.8 392.7h-263.3l-.6-1.2c-.2-.3-3.3-7.1-3.3-13.8 0-6.8 3.2-13.5 3.3-13.8l.6-1.2 263.6.1 74.7 15-75 14.9zm-260.6-4.2h260.3l54-10.8-54-10.9h-260.3c-.8 2-2.4 6.5-2.4 10.8-.1 4.4 1.5 8.8 2.4 10.9z"/><path class="st2" d="M1472.6 371.4s-1.6 2.9-1.6 6.3 1.6 6.3 1.6 6.3l31.4-6.3-31.4-6.3z"/><path fill="none" d="M1435.7 377.7h-261.1"/><path class="st2" d="M1174.6 375.6h261.1v4.2h-261.1z"/><path class="st1" d="M1439.6 364.8s-3.9 4.6-3.9 12.9 3.9 12.9 3.9 12.9"/><path class="st2" d="M1438 392c-.2-.2-4.4-5.2-4.4-14.3s4.2-14 4.4-14.3l3.2 2.7-1.6-1.4 1.6 1.4c0 .1-3.4 4.2-3.4 11.5 0 7.4 3.3 11.5 3.4 11.5l-3.2 2.9z"/><path class="st3" d="M1378.5 390.6c0 1.9 8.4 14.5 23.5 13 15.5-1.5 23.5-13 23.5-13H1410s-4.3 2.4-10.1 2.4-9.2-.8-11-2.4c-1.8-1.6-1.4-3.6-5.8-3.6-3.3 0-4.6 1.7-4.6 3.6z"/><path class="st2" d="M1399.5 405.8c-8.6 0-14.6-4.2-17.6-6.9-2.7-2.4-5.5-6.1-5.5-8.3 0-2.8 2-5.7 6.8-5.7 3.9 0 5.2 1.4 6.5 3.1.3.4.5.8.8 1.1 1.4 1.3 4.6 1.9 9.6 1.9 5.2 0 9-2.1 9.1-2.1l.5-.3h19.9l-2.3 3.3c-.4.5-8.7 12.3-25 13.9h-2.8zm-18.9-15.3c.6 1.6 7.7 12.4 21.2 11.1 9.1-.9 15.6-5.5 19-8.8h-10.2c-1.4.7-5.5 2.4-10.6 2.4-6.3 0-10.1-.9-12.4-3-.7-.6-1.1-1.2-1.4-1.7-.7-1-.9-1.3-3-1.3-1-.1-2.5.1-2.6 1.3z"/><path class="st3" d="M1235.5 316.6s-5.5 10.9-6.1 20.6c-.5 9.8 4 23.4 4 23.4s-7.4 8.6-8.7 14.9c-.6 3.1-.4 6.6 3.5 11.6 4 5.2 7.7 7.7 9.5 8.2 3.5.8 5.8-.7 8-1.9s5.3-2.1 3.3-2.8c-5.9-.5-12.9-12.1-11.2-14.9s6.6-10.9 6.6-10.9h11.7s-13.1-15.4-12.9-19.7c.2-4.3 9.1-20.7 9.1-20.7"/><path class="st2" d="M1239.7 397.6c-.8 0-1.6-.1-2.5-.3-2.8-.7-7-4.2-10.6-8.9-4.6-5.9-4.5-10.2-3.9-13.3 1.1-5.5 6.4-12.4 8.3-15-1.1-3.5-4.2-14.5-3.8-23 .5-10.1 6.1-21 6.3-21.6l3.7 1.9c-.1.1-5.4 10.6-5.8 19.8-.5 9.3 3.9 22.5 3.9 22.6l.4 1.1-.8.9c-2 2.3-7.3 9.2-8.2 13.9-.5 2.5-.5 5.4 3.1 9.9 3.7 4.8 7.1 7.1 8.3 7.4 2.4.6 3.9-.3 5.9-1.4l.6-.4c.2-.1.2-.2.4-.2-3.3-2-6.3-5.8-8-9.3-1.1-2.3-2.2-5.5-.9-7.5 1.7-2.7 6.5-10.8 6.5-10.9l.6-1.1h8.4c-4.3-5.3-10.7-14-10.5-17.8.2-4.6 7.8-18.8 9.3-21.6l3.6 2c-3.3 6.1-8.7 16.9-8.8 19.8-.1 2.1 6.4 11.2 12.4 18.4l3 3.4h-15c-1.4 2.3-4.6 7.6-5.9 9.9-.1.7.6 3.3 2.8 6.4 2.2 3.1 4.9 5.2 6.7 5.4l.5.1c1.7.6 2 1.7 2 2.4.1 1.8-1.5 2.6-3.5 3.5-.5.2-1.1.5-1.7.8l-.6.3c-1.5 1.3-3.4 2.4-6.2 2.4zm.1-20.9"/><path class="st3" d="M1316.6 324.4s-5.2 11.2-3.5 20.3 13.7 20.3 13.7 20.3-1.1 9.1 0 14.4 4.2 17.1 12.5 19c8.2 1.8 14.8-7.6 14.8-7.6h-11s-5.7-7.4-4.9-12.9 11.2-12.9 11.2-12.9h9.9s-6.5-6.9-12.3-6.7c-5.8.2-11.8 5.3-11.8 5.3s-3.6-6.8-4.7-8c-1.1-1.3-5.3-14-4.2-18.7 1.1-4.7 6.8-12.3 6.8-12.3"/><path class="st2" d="M1341.5 400.5c-.8 0-1.7-.1-2.7-.3-9.2-2-12.7-13.8-14.1-20.6-.9-4.6-.4-11.4-.2-14-2.7-2.7-12-12.3-13.6-20.6-1.8-9.6 3.4-21 3.6-21.6l3.8 1.7c-.1.1-4.9 10.7-3.3 19s13 19 13.1 19.1l.8.7-.2 1.1c0 .1-1 8.8 0 13.8.9 4.7 3.8 15.7 10.9 17.3 3.8.8 7.3-1.4 9.6-3.4h-7.3l-.6-.8c-.6-.8-6.2-8.3-5.3-14.5.9-6.1 10.9-13.5 12-14.3l.5-.4h4.9c-2-1.4-4.5-2.6-6.5-2.5-5 .2-10.5 4.8-10.5 4.8l-2 1.7-1.2-2.3c-1.5-2.7-3.9-6.9-4.5-7.7-1.4-1.7-5.8-15.3-4.7-20.5 1.1-5 6.8-12.7 7.1-13.1l3.3 2.5c-1.5 2-5.6 8.1-6.4 11.5-.8 3.7 2.9 15.5 3.9 17 .8.9 2.5 3.9 3.7 6.1 2.4-1.7 6.8-4.2 11.2-4.2 6.5-.2 13.1 6.6 13.9 7.4l3.3 3.6h-14c-3.7 2.8-9.3 7.9-9.8 11.2-.5 3.3 2.2 8.1 3.9 10.5h13.9l-2.3 3.3c-.2.2-6 8.5-14.2 8.5z"/><path class="st3" d="m1359.3 342 22 22.8s-.5 1.3-2.6 5.6-2.8 6.4-.9 7.4 7.2-4.4 9.6-7.4c2.4-3 4.4-5.6 4.4-5.6h32.6s-11.4-7.6-19.4-8c-8-.4-15.8-.8-15.8-.8l-10.9-18.8"/><path class="st2" d="M1378.1 379.8c-.5 0-.9-.1-1.4-.3-3.9-2-1.7-6.5 0-10.1 1-2 1.6-3.4 2-4.2l-21-21.9 3-2.9 23 23.8-.5 1.3c0 .1-.6 1.4-2.7 5.7-.4.8-1.4 3-1.7 4.2 1.5-.8 4.6-3.6 6.8-6.4l5.1-6.4h25.8c-3.6-1.8-8-3.6-11.7-3.9l-16.8-.7-11.5-19.8 3.6-2.1 10.4 17.8 14.6.8c8.5.5 20 8 20.5 8.3l5.8 3.9h-38.6l-3.8 4.8c-.8.9-6.7 8.1-10.9 8.1z"/><path class="st2" d="m1338.3 347.8-.6-4.2c24.3-3.6 39.8-8.5 39.9-8.6l.8-.2.7.3c.1 0 9.2 3.7 22.8 3.3l.1 4.2c-12.5.3-21.3-2.5-23.8-3.4-3.4 1.2-18.2 5.4-39.9 8.6z"/><path d="M937.8 371.2c-21.6.1-40.3 5.3-56 13-5.8-11.4-11.5-21.6-12.5-29-1.1-8.7-2.5-14-1.1-24.4 1.4-10.4 7.5-25.2 7.3-26.3s-1.4-6.4-13.8-6.6c-12.4-.1-23.2 2.4-24.4 5.6s-3.6 10.7-5.2 18.4c-2.1 11.3-24.9 51.6-37.8 72.7-4.2-8.2-7.8-15.5-8.6-21.2-1.1-8.7-2.5-14-1.1-24.4s7.5-25.2 7.3-26.3c-.1-1.1-1.4-6.4-13.8-6.6-12.4-.1-23.2 2.4-24.4 5.6-1.2 3.3-2.6 11-5.2 18.4s-32.8 74.8-40.7 92.2c-4.1 8.9-7.6 16-10.1 20.9 0 0-.1.3-.5.9-2.1 4.2-3.4 6.4-3.4 6.4v.1c-1.7 3-3.5 5.9-4.4 5.9-.7 0-1.9-8.1.2-19.2 4.5-23.4 15.2-59.8 15.1-61 0-.7 2-7-7-10.3-8.8-3.3-12 2.1-12.8 2.1s-1.4 1.9-1.4 1.9 9.8-40.9-18.8-40.9c-17.8 0-42.5 19.5-54.7 37.2-7.7 4.2-24.1 13.1-41.6 22.7-6.7 3.7-13.6 7.5-20 11-.5-.5-.9-1-1.4-1.5-34.6-36.9-98.5-63-95.8-112.6 1-18.1 7.2-65.5 122.8-123.1 95.1-46.9 170.8-33.9 183.9-5.1C777 209 717.7 285.4 619.5 296.4c-37.5 4.2-57.2-10.3-62.1-15.7-5.2-5.6-6-6-7.9-4.9-3.2 1.7-1.1 6.8 0 9.7 2.9 7.7 15 21.2 35.5 27.9 18.1 5.9 62 9.1 115.2-11.4 59.5-23 106.1-87.1 92.4-140.7-13.7-54.4-104-72.4-189.5-42-50.8 18.1-106 46.5-145.6 83.6-47.1 44.1-54.6 82.3-51.5 98.4 11 56.9 89.5 94 120.9 121.4-1.6.9-3 1.7-4.3 2.4-15.7 7.8-75.6 39.1-90.5 72.2-16.9 37.5 2.7 64.4 15.7 68 40.3 11.2 81.8-8.9 104-42.1s19.5-76.4 9.3-96.1c-.1-.2-.2-.5-.5-.7 4.1-2.4 8.2-4.9 12.3-7.2 8-4.7 15.9-9.1 22.7-12.8-3.8 10.5-6.7 23-8 41.1-1.7 21.2 7 48.8 18.4 59.6 5.1 4.7 11.1 4.9 14.9 4.9 13.3 0 19.3-11.1 26-24.2 8.1-16 15.5-34.7 15.5-34.7s-9.1 50.4 15.7 50.4c9 0 18.2-11.7 22.3-17.7v.1s.2-.3.7-1.1c.9-1.5 1.5-2.4 1.5-2.4v-.2c3.6-6.3 11.7-20.7 23.8-44.5C742 407 757 368.6 757 368.6s1.4 9.4 6 25c2.7 9.1 8.4 19.2 12.9 28.9-3.6 5.1-5.9 7.9-5.9 7.9l.1.1c-2.9 3.8-6.1 8-9.6 12.1-12.3 14.7-27 31.5-29 36.4-2.4 5.8-1.8 9.9 2.7 13.3 3.3 2.5 9.1 2.8 15.1 2.5 11.1-.8 18.9-3.5 22.7-5.2 6-2.1 13-5.4 19.5-10.3 12.1-8.9 19.4-21.7 18.8-38.5-.3-9.3-3.4-18.5-7.1-27.2 1.1-1.6 2.1-3.2 3.3-4.7 19.1-27.9 33.9-58.5 33.9-58.5s1.4 9.4 6 25c2.3 7.9 6.9 16.5 11 24.9-18 14.6-29 31.5-33 42.6-7.1 20.6-1.6 29.8 8.9 32 4.7 1 11.5-1.2 16.5-3.4 6.3-2 13.8-5.5 20.9-10.7 12.1-8.9 23.7-21.3 23-38.2-.3-7.7-2.4-15.2-5.2-22.6 15.2-6.3 34.9-9.8 60-6.9 53.8 6.3 64.4 39.9 62.4 54s-13.3 21.8-17.1 24.2c-3.7 2.4-5 3.2-4.6 4.9.5 2.5 2.3 2.4 5.4 1.9 4.4-.8 28.2-11.4 29.3-37.4 1.4-33.6-30.2-69.8-86.1-69.5zM523 511.1c-17.8 19.4-42.7 26.8-53.4 20.6-11.5-6.7-7-35.4 14.9-55.9 13.3-12.5 30.5-24.2 41.9-31.3 2.6-1.6 6.4-3.8 11.1-6.7.8-.5 1.2-.7 1.2-.7.9-.6 1.8-1.1 2.7-1.7 8 29.4.3 55.2-18.4 75.7zm129.9-88.4c-6.2 15.1-19.2 53.9-27.1 51.7-6.8-1.8-11-31.2-1.4-60.2 4.9-14.6 15.1-32 21.1-38.7 9.7-10.8 20.4-14.5 23-10.1 3.4 5.8-11.8 47.8-15.6 57.3zM760.1 474c-2.6 1.4-5.1 2.3-6.2 1.6-.8-.5 1.1-2.3 1.1-2.3s13.4-14.5 18.8-21c3-3.8 6.7-8.4 10.5-13.4v1.5c0 17.2-16.8 28.9-24.2 33.6zm82.7-18.9c-1.9-1.4-1.6-5.9 4.9-20 2.5-5.5 8.4-14.8 18.4-23.7 1.1 3.6 1.9 7.1 1.8 10.4-.2 21.8-15.8 30-25.1 33.3z" fill="#cd6799"/></svg>