<svg xmlns="http://www.w3.org/2000/svg" viewBox="0 0 1920 673" xml:space="preserve"><path fill="#2e3853" d="M0 0h1920v673H0z"/><radialGradient id="a" cx="761" cy="432.5" r="391.624" gradientUnits="userSpaceOnUse"><stop offset="0" stop-color="#0a3284"/><stop offset="1" stop-color="#0098da"/></radialGradient><path d="m1198.8 336.5-191.9-53.3c-41.4-16.4-104.2-7.8-139.7 19L717.9 406c-35.5 26.8-29.1 52.1 12.2 68.5L902.3 561c41.4 16.4 92.3 3 127.8-23.8l163.3-120c35.5-26.9 46.7-64.3 5.4-80.7z" fill="url(#a)"/><radialGradient id="b" cx="755" cy="385.5" r="363.499" gradientUnits="userSpaceOnUse"><stop offset="0" stop-color="#bf0826"/><stop offset="1" stop-color="#e0001b"/></radialGradient><path d="m1198.8 286.5-191.9-53.3c-41.4-16.4-104.2-7.8-139.7 19L717.9 356c-35.5 26.8-29.1 52.1 12.2 68.5L902.3 511c41.4 16.4 92.3 3 127.8-23.8l163.3-120c35.5-26.9 46.7-64.3 5.4-80.7z" fill="url(#b)"/><path d="m1198.8 226.5-191.9-53.3c-41.4-16.4-104.2-7.8-139.7 19L717.9 296c-35.5 26.8-29.1 52.1 12.2 68.5L902.3 451c41.4 16.4 92.3 3 127.8-23.8l163.3-120c35.5-26.9 46.7-64.3 5.4-80.7z" fill="#f8d500"/><radialGradient id="c" cx="952" cy="384.5" r="214.31" gradientUnits="userSpaceOnUse"><stop offset="0" stop-color="#2e922b"/><stop offset="1" stop-color="#96bf0d"/></radialGradient><path d="m1198.8 166.5-191.9-53.3c-41.4-16.4-104.2-7.8-139.7 19L717.9 236c-35.5 26.8-29.1 52.1 12.2 68.5L902.3 391c41.4 16.4 92.3 3 127.8-23.8l163.3-120c35.5-26.9 46.7-64.3 5.4-80.7z" fill="url(#c)"/></svg>