<svg xmlns="http://www.w3.org/2000/svg" viewBox="0 0 1920 673" xml:space="preserve"><style>.st28{fill:#fcefd4}</style><g stroke-width="1.51"><path fill="#ee9230" stroke="#ee9230" d="M775 23.5 759.8 0H360.6L160 178.5z"/><path fill="#e08a34" stroke="#e08a34" d="m160 178.5 186 177 429-332z"/><path fill="#d67e27" stroke="#d67e27" d="m346 355.5 348 79 81-411z"/><path fill="#da8f46" stroke="#da8f46" d="m33 223.5 313 132-186-177z"/><path fill="#e59950" stroke="#e59950" d="M160 178.5 0 102v70.5l33 51z"/><path fill="#f5a552" stroke="#f5a552" d="M203.7 0H0v102l160 76.5z"/><path fill="#f9a443" stroke="#f9a443" d="M360.6 0H203.7L160 178.5z"/><path fill="#f88f26" stroke="#f88f26" d="M797.1 0h-37.3L775 23.5z"/><path fill="#db741c" stroke="#db741c" d="m694 434.5 389-252-308-159z"/><path fill="#b3742b" stroke="#b3742b" d="M346 355.5 408.2 673h201.4L694 434.5z"/><path fill="#c68746" stroke="#c68746" d="M33 223.5 78.4 673h63.5L346 355.5z"/><path fill="#c48b53" stroke="#c48b53" d="M0 242.2V673h78.4L33 223.5z"/><path fill="#dd9858" stroke="#dd9858" d="M0 172.5v69.7l33-18.7z"/><path fill="#c36517" stroke="#c36517" d="M694 434.5 1017.7 673h34.8l30.5-490.5z"/><path fill="#af631c" stroke="#af631c" d="M747.3 673h270.4L694 434.5z"/><path fill="#b06c24" stroke="#b06c24" d="M609.6 673h137.7L694 434.5z"/><path fill="#c05b12" stroke="#c05b12" d="M1083 182.5 1052.5 673h19.2L1281 425.5z"/><path fill="#f07d1b" stroke="#f07d1b" d="M1083 182.5 1128.8 0H797.1L775 23.5z"/><path fill="#eb6f14" stroke="#eb6f14" d="M1591.6 0h-462.8L1083 182.5z"/><path fill="#b27a3b" stroke="#b27a3b" d="M141.9 673h266.3L346 355.5z"/><path fill="#c8590e" stroke="#c8590e" d="m1083 182.5 198 243 209-46z"/><path fill="#aa4a0d" stroke="#aa4a0d" d="m1281 425.5 69.4 247.5h114.4l25.2-293.5z"/><path fill="#a94f11" stroke="#a94f11" d="M1281 425.5 1071.7 673h278.7z"/><path fill="#d45a0a" stroke="#d45a0a" d="M1490 379.5 1687.8 0h-96.2L1083 182.5z"/><path fill="#bd4504" stroke="#bd4504" d="M1920 439V196.8L1747.3 0h-59.5L1490 379.5z"/><path fill="#9f400a" stroke="#9f400a" d="M1464.8 673h301.4L1490 379.5z"/><path fill="#9f3a05" stroke="#9f3a05" d="M1766.2 673H1920V439l-430-59.5z"/><path fill="#b94303" stroke="#b94303" d="M1920 0h-172.7L1920 196.8z"/></g><path class="st28" d="M683.5 328H670c-4.5 40.5-9 90-81 90h-31.5c-18 0-18-4.5-18-18V193c0-13.5 0-18 36-18H589v-13.5H463V175h9c31.5 0 31.5 4.5 31.5 18v207c0 13.5 0 18-31.5 18h-9v13.5h207L683.5 328z"/><path class="st28" d="M674.5 161.5c0-4.5-4.5-4.5-9-4.5s-4.5 0-9 4.5l-63 162c-4.5 9-9 18-31.5 18v9h63v-9c-13.5 0-18-4.5-18-13.5v-4.5l13.5-36h81L715 328v4.5c0 9-13.5 9-22.5 9v9H769v-9h-4.5c-18 0-22.5-4.5-22.5-9l-67.5-171zm-13.5 27 36 90h-72l36-90zm333-27H751l-9 90h9c9-63 13.5-76.5 76.5-76.5H850c9 0 9 4.5 9 13.5V400c0 13.5 0 18-40.5 18h-18v13.5h153V418h-18c-40.5 0-40.5-4.5-40.5-18V188.5c0-9 0-13.5 9-13.5h22.5c58.5 0 67.5 13.5 72 76.5h9l-13.5-90z"/><path class="st28" d="M1205.5 418h-9c-9 63-18 90-85.5 90h-54c-18 0-18-4.5-18-18V386.5h36c40.5 0 45 13.5 45 45h9V328h-9c0 36-4.5 45-45 45h-36v-94.5c0-13.5 0-18 18-18h49.5c63 0 72 22.5 76.5 76.5h9l-9-90H958v13.5h9c31.5 0 31.5 4.5 31.5 18V490c0 13.5 0 18-31.5 18h-9v13.5h229.5l18-103.5z"/><path class="st28" d="m1327 278.5 54-81c9-13.5 22.5-27 58.5-27v-9H1345V175c18 0 22.5 9 22.5 18 0 4.5 0 4.5-4.5 9l-45 67.5-49.5-76.5-4.5-4.5c0-4.5 9-13.5 27-13.5v-13.5h-108V175h9c22.5 0 31.5 4.5 36 13.5l72 108-63 94.5c-4.5 9-18 27-58.5 27v13.5h94.5V418c-18 0-27-9-27-18 0-4.5 0-4.5 4.5-9l54-81 67.5 90v4.5c0 4.5-9 13.5-27 13.5v13.5h108V418h-9c-22.5 0-27 0-36-13.5l-81-126z"/></svg>