<svg xmlns="http://www.w3.org/2000/svg" viewBox="0 0 1920 673" xml:space="preserve"><style>.st1{fill:#fff}</style><path fill="#356d62" d="M0 0h1920v673H0z"/><path class="st1" d="M1296.8 74.4c-20.7-8-39.3-9.6-41.6-3.5 0 .1 0 .1-.1.3v.1c-.1.6-.1 1.2 0 1.8 0 0 1.9 12.3-.3 17.7l-89.4 232.6c-6.3 17.1 2.2 36.2 19.2 42.7 17.1 6.5 36.2-1.9 42.9-18.9l89.4-232.6c1.8-4.6 11.7-13.4 11.7-13.4.4-.4.9-.9 1.2-1.3v-.1c0-.1.1-.1.1-.3 2.4-5.9-12.5-17.3-33.1-25.1zm18.9 20.3c-1.3 3.4-12.7 2.1-25.5-2.8s-22.1-11.7-20.8-15.1c1.3-3.4 12.7-2.1 25.5 2.8 12.6 5 21.9 11.8 20.8 15.1z"/><path d="M1283.2 176.4 1218.7 344c-4.7 12-18.6 18.3-30.8 13.6s-18.9-18.9-14.5-31l41.2-107.2s5.2-8.3 15.2-14.2c10-5.9 18.4-4.7 29.7-9.6 11.3-4.9 23.7-19.2 23.7-19.2z" fill="#be0000"/><path d="M1228.7 222c.6 1.3 0 2.8-1.3 3.4-1.3.6-2.8 0-3.4-1.3-.6-1.3 0-2.8 1.3-3.4 1.2-.6 2.8-.1 3.4 1.3zm18.2 18.1c.9 1.9 0 4.3-1.9 5.2-1.9.9-4.3 0-5.2-1.9-.9-1.9 0-4.3 1.9-5.2 1.9-.9 4.3 0 5.2 1.9zm-22.9 21c1.6 3.7 0 8-3.7 9.7-3.7 1.6-8 0-9.7-3.7-1.6-3.7 0-8 3.7-9.7 3.8-1.6 8.1 0 9.7 3.7zm-14.9 15c.9 1.9 0 4.3-1.9 5.2s-4.3 0-5.2-1.9c-.9-1.9 0-4.3 1.9-5.2 1.9-1 4.3-.1 5.2 1.9zm14.3 29.6c.6 1.3 0 2.8-1.3 3.4-1.3.6-2.8 0-3.4-1.3-.6-1.3 0-2.8 1.3-3.4 1.3-.7 2.8-.1 3.4 1.3z" opacity=".5" fill="#fff"/><path class="st1" d="M750.8 216.4c-1 0-3 1.9-1.3 2.7 2.1.7 3.1 2.7 3.1 5.3-1.9 10.8-15.3 23.2-20.7 27.5-1.3 1.3.6 4.3 1.9 3.1 3-2.4 9-7.1 14-13.4-8.1 18.2-24.1 41.6-30.1 49.9-23.8 32.9-59.9 63.3-84.7 63.3-19.8 0-36.8-13.4-40.4-33.2-.3-2.1-3.1-2.7-2.7.3 4.4 27.2 25.4 37.8 50.8 37.8 27.7 0 60.2-20.1 78.2-40.6 28.9-33.2 47.8-71.4 42.8-93.1-2.2-8.5-7.6-9.8-10.9-9.6zm11.7-10.2c4 3.1 11.1 1.3 15.8-4 5-5.6 5.8-12.7 1.9-15.8-4-3.1-11.1-1.3-15.8 4.3-5.2 5.4-5.9 12.2-1.9 15.5zm457.5-41.6c5.6-9.4 5.3-16.8-7.7-16.8-9.7.3-27.5 7.1-35.7 13.4-1.9 1.9-1 3 1.3 1.9 1.6-.6 3.4-1.6 5.3-2.4 9.3-5 5.6 5.6 3.4 9.4-11.1 19.3-30.7 46.5-40.9 59.9-4.9 6.6-10.5 13.3-15.8 18.9-9.9 9.4-29.5 26.1-44.3 31.7-48.1 18 13.1-63.9 18.2-70.4 11.4-14.3 36.8-39.1 44.4-51.5 5.6-9.4 5.3-16.8-7.7-16.8-9.7.3-27.5 7.1-35.7 13.4-1.9 1.9-1 3 1.3 1.9 1.6-.6 3.4-1.6 5.3-2.4 9.3-5 5.6 5.6 3.4 9.4-11.1 19.3-30.7 46.5-40.9 59.9-8.4 11.4-18.7 22.7-26.7 29.1-3.1 2.7-1.3 5 1.9 3 3-1.9 7.1-6.1 12-11.1-8.7 17.4-15.8 41.9 7.1 44.9 19.6 2.7 42.8-17.3 57.9-32.2 1.6-1.6 3.5-3.4 5.5-5.5l1.3-1.3c-8.7 17.4-15.8 41.9 7.2 44.7 25.1 3.4 56.2-30.4 68.3-42.8 2.4-2.4 1.6-6.3-2.4-2.4-7.1 7.4-31.1 29.2-48.6 35.9-48.1 18 13.1-63.9 18.2-70.4 11.4-14.3 36.7-39 44.4-51.4zM929.1 288.8c7.7-1.9 14-6.2 14-12.7 0-.6-1.3-.6-1.3 0 0 4-4.4 7.2-9.4 8-12 1.9-35.4-12.1-46.5-26.3 12 4.4 36.2-2.1 47.5-10.3 10.6-7.7 14.8-16.1 15.6-22.9 1.3-11.4-11.1-18-28.2-11.4-11.1 4.4-24.4 14.3-38.1 32.5 14.5-24.1 43.1-63 71-88.1 34.1-30.4 53.9-24.5 23.2 7.7-12.7 13.1-36.5 30.4-52.8 37.8-5 2.1-2.7 5 1 3.4 17.4-7.7 40.7-23.5 54.6-36.8 41.5-39.8 6.9-70-39.1-27.7-31.1 28.8-51.5 58.9-69.2 97.9-6.1 7.4-10.6 13.4-16.1 18.2l-1.6 1.6c-15.2 13.1-39.3 30.7-54 31-10.6.3-15.1-7.7-13.1-18 3-16.1 19.5-35.1 33.8-41.6 18.4-8.4 29.4 8 5 21.1-9.3 4.7-20.4 7.4-24.8 7.4-5.3 0-4.7 2.1-.3 2.4 7.4.3 19.3-3 27.2-6.6 24.8-11.8 26.4-34.1-.6-34.8-29.4-1-64.5 24.1-64.2 55.3.3 14.3 11.7 21.8 27.2 21.8 26-.3 49.1-19.9 68-37.3 2.7-2.2 5.3-4.7 8-7.4-6.6 16.8-10 32.5-8.4 44.1 1 8.4 5.8 12.4 9.4 15.5.7.6 2.4 0 1.3-1.6-5.6-6.6-4-26.1 3.7-45.2 6.4 12.7 31.2 28.8 57.2 23zm-31.3-55c30.4-27.2 42.2-3 23 11.8-10 7.7-29.8 13.4-36.2 9.7l-1.3-.7c-.7-1.3-1.6-2.7-2.1-4 5.1-6 10.9-11.7 16.6-16.8z"/><path class="st1" d="M1066.5 202.9c12.1 1.3 7.1-13.4-5.3-9.7-5.6 1.6-10.8 12.1-14.8 21.4-12.1 18.2-32.5 42.9-46.8 55.9-12.7 10.8-24.4 13.7-10-6.6 5.8-8.1 13.1-16.8 17.4-25.5 10-21.8-11.4-31.7-28.5-18.4-10 7.7-23.5 23.5-34.1 32.2-3 2.4-2.1 5.8.7 3.4 8.4-6.8 23.2-22.4 35.9-31.7 10.6-8.1 14.8-3 8.7 4-8.4 9.7-23.2 26.7-27 37.5-5.3 16.1 1 23.2 11.7 23.2 14.5 0 36.2-22.7 50.8-40.6 4.7-6.1 10-13.1 14.5-20.1-12.7 24.5-25.8 49.3-42.2 71.7-23.2 31.7-52.2 55.3-79.7 55.3-19.8 0-37-13.4-40.7-33.2-.3-2.1-3-2.7-2.7.3 4.4 27.2 25.4 37.8 50.8 37.8 27.7 0 54.5-16.1 73.2-35.9 37.8-39.8 42.2-84.7 53.9-109.8 5.2-11.2 10.2-11.8 14.2-11.2zm24.4 402.9H829.1c-12.2 0-22.1-9.9-22.1-22.1V439.6c0-12.2 9.9-22.1 22.1-22.1H1091c12.2 0 22.1 9.9 22.1 22.1v144.2c-.1 12.2-10 22-22.2 22zM829.1 432.2c-4.1 0-7.4 3.2-7.4 7.4v144.2c0 4.1 3.2 7.4 7.4 7.4H1091c4.1 0 7.4-3.2 7.4-7.4V439.6c0-4.1-3.2-7.4-7.4-7.4H829.1z"/><path class="st1" d="M851.1 561.7v-100h29.4l29.4 36.8 29.4-36.8h29.4v100h-29.4v-57.4L910 541.1l-29.4-36.8v57.4h-29.5zm183.9 0-44.1-48.5h29.4v-51.5h29.4v51.5h29.4l-44.1 48.5z"/></svg>