<svg xmlns="http://www.w3.org/2000/svg" viewBox="0 0 1920 673" xml:space="preserve"><style>.st1{fill:#fff}.st5{fill:#f15a54}</style><path fill="#059ca0" d="M0 0h1920v673H0z"/><path class="st1" d="M570 419.1h780V673H570z"/><path fill="#008376" d="M1322 255H598l-28 28v145h780V283z"/><path fill="#00564a" d="M1327 260H593l-16.9 16.9V309h767.8v-32.1z"/><path class="st1" d="m613.4 270.1-6.5 6.5V300h23.7v-29.9h-17.2zm4.3 10.8h-2.1v-6.6h2.1v6.6zm4.3 0h-2.1v-6.6h2.1v6.6zm4.3 0h-2.1v-6.6h2.1v6.6zm507-10.8c-11.5 0-18.3 7.8-18.3 7.8l18.3 22.1 18.3-22.1s-6.8-7.8-18.3-7.8z"/><path opacity=".5" fill="#fff" d="m1155.7 300 29.9-29.9V300z"/><path class="st1" d="m1155.7 300 17.2-17.2V300zm94.8-2.4h-3.5v-17.1l-5.2 1.8v-3l8.3-3.1h.5v21.4zm17 0h-3.5v-17.1l-5.2 1.8v-3l8.3-3.1h.5v21.4zm9.8-16.2c.7 0 1.2.2 1.5.6s.5.8.5 1.4c0 .6-.2 1-.5 1.4s-.9.5-1.5.5-1.1-.2-1.5-.5-.6-.8-.6-1.4.2-1 .5-1.4 1-.6 1.6-.6zm0 12.4c.7 0 1.2.2 1.5.6s.5.8.5 1.4c0 .6-.2 1-.5 1.4s-.9.5-1.5.5-1.1-.2-1.5-.5-.6-.8-.6-1.4.2-1 .5-1.4 1-.6 1.6-.6zm19.5-5.2c0 3.1-.6 5.4-1.7 6.9-1.1 1.6-2.9 2.3-5.2 2.3-2.3 0-4-.8-5.2-2.3s-1.8-3.8-1.8-6.7v-3.7c0-3.1.6-5.4 1.7-6.9s2.9-2.3 5.3-2.3c2.3 0 4.1.7 5.2 2.2s1.7 3.7 1.8 6.7v3.8zm-3.6-4c0-2-.3-3.5-.8-4.4s-1.4-1.4-2.6-1.4c-1.2 0-2 .4-2.6 1.3s-.8 2.3-.9 4.1v4.8c0 2 .3 3.5.8 4.5s1.4 1.5 2.6 1.5c1.1 0 2-.5 2.5-1.4s.8-2.3.9-4.2v-4.8zm16.8 4.1c-1.2 1.3-2.6 1.9-4.2 1.9-1.9 0-3.4-.7-4.5-2s-1.7-3-1.7-5.2c0-1.4.3-2.7.8-3.8s1.4-2 2.4-2.7 2.3-1 3.6-1c2.1 0 3.9.8 5.1 2.4s1.9 3.7 1.9 6.4v1c0 3.8-.9 6.8-2.6 8.8s-4.3 3-7.8 3.1h-.4v-2.9h.5c2.1 0 3.7-.5 4.8-1.5s2-2.5 2.1-4.5zm-3.4-.9c.7 0 1.4-.2 2-.6s1.1-1 1.5-1.7v-1.4c0-1.6-.3-2.8-1-3.8s-1.5-1.4-2.5-1.4-1.8.4-2.5 1.3-.9 1.9-.9 3.2c0 1.3.3 2.4.9 3.2s1.5 1.2 2.5 1.2zm-88.7-13.3v-4.4h-10.6v4.4h-4.3V300h19.3v-25.5h-4.4zm-.3 10.1-10.1 11.8 3.4-8.6h-3.4l4.8-9.5h5.3l-3.9 6.3h3.9z"/><path class="st5" d="M836.5 629.7c-2 0-4.1-.9-5.4-2.6-2.4-3-1.9-7.4 1.2-9.7l94.7-74.7 73.9 54.2L1106 485.7c2.6-2.8 7-2.9 9.8-.3 2.8 2.6 2.9 7 .3 9.8l-113.6 120-75.3-55.2-86.4 68.2c-1.3 1-2.8 1.5-4.3 1.5z"/><circle class="st5" cx="926.6" cy="554.4" r="20.8"/><circle class="st5" cx="1002.8" cy="602.9" r="20.8"/><circle class="st5" cx="1113.7" cy="485.1" r="20.8"/><circle class="st5" cx="836.5" cy="616.7" r="20.8"/><path class="st1" d="m623.8 355.2 8.6 22.9 8.6-22.9h6.7v29.9h-5.2v-9.8l.5-13.2-8.8 23h-3.7l-8.8-23 .5 13.1v9.8H617v-29.9h6.8zm35.3 18.8v11.1h-5.2v-29.9h11.4c3.3 0 6 .9 7.9 2.6s2.9 4 2.9 6.9c0 2.9-1 5.2-2.9 6.8-1.9 1.6-4.6 2.4-8.1 2.4h-6zm0-4.2h6.2c1.8 0 3.3-.4 4.2-1.3 1-.9 1.5-2.1 1.5-3.8 0-1.6-.5-2.9-1.5-3.9s-2.3-1.5-4.1-1.5H659v10.5zm34.7 8.3h-11.6l-2.4 7h-5.4l11.3-29.9h4.7l11.3 29.9h-5.4l-2.5-7zm-10.1-4.2h8.7l-4.3-12.4-4.4 12.4zm24.5-11 .1 2.6c1.6-2 3.8-3 6.5-3 4.6 0 7 2.6 7.1 7.9v14.7h-5v-14.4c0-1.4-.3-2.5-.9-3.1-.6-.7-1.6-1-3-1-2 0-3.5.9-4.5 2.7v15.8h-5v-22.2h4.7zm17.8 10.9c0-3.4.8-6.2 2.4-8.2 1.6-2.1 3.7-3.1 6.4-3.1 2.4 0 4.3.8 5.7 2.5v-11.4h5v31.5H741l-.2-2.3c-1.5 1.8-3.5 2.7-6 2.7-2.6 0-4.7-1-6.3-3.1s-2.5-5-2.5-8.6zm5 .5c0 2.3.4 4 1.3 5.3s2.1 1.9 3.7 1.9c2 0 3.5-.9 4.5-2.7v-9.5c-.9-1.8-2.4-2.7-4.4-2.7-1.6 0-2.9.6-3.7 1.9-1 1.3-1.4 3.2-1.4 5.8zm31.2-6.9c-.7-.1-1.3-.2-2-.2-2.3 0-3.8.9-4.6 2.6V385h-5v-22.2h4.8l.1 2.5c1.2-1.9 2.9-2.9 5-2.9.7 0 1.3.1 1.8.3l-.1 4.7zm1.5 6.4c0-2.2.4-4.1 1.3-5.9.9-1.7 2.1-3.1 3.6-4 1.6-.9 3.3-1.4 5.4-1.4 3 0 5.4 1 7.3 2.9s2.9 4.5 3 7.7v1.2c0 2.2-.4 4.1-1.3 5.9s-2 3.1-3.6 4-3.4 1.4-5.4 1.4c-3.1 0-5.6-1-7.5-3.1s-2.8-4.9-2.8-8.3v-.4zm5 .4c0 2.3.5 4.1 1.4 5.4.9 1.3 2.3 1.9 3.9 1.9s3-.7 3.9-2 1.4-3.2 1.4-5.8c0-2.2-.5-4-1.4-5.3s-2.3-2-3.9-2-2.9.6-3.9 1.9c-.9 1.4-1.4 3.3-1.4 5.9zm19.9-17.1c0-.8.2-1.4.7-1.9s1.2-.8 2.1-.8 1.6.3 2.1.8.7 1.1.7 1.9c0 .8-.2 1.4-.7 1.9-.5.5-1.2.7-2.1.7s-1.6-.2-2.1-.7c-.5-.5-.7-1.1-.7-1.9zm5.3 28h-5v-22.2h5v22.2zm4.5-11.3c0-3.4.8-6.2 2.4-8.2 1.6-2.1 3.7-3.1 6.4-3.1 2.4 0 4.3.8 5.7 2.5v-11.4h5v31.5h-4.5l-.2-2.3c-1.5 1.8-3.5 2.7-6 2.7-2.6 0-4.7-1-6.3-3.1s-2.5-5-2.5-8.6zm4.9.5c0 2.3.4 4 1.3 5.3s2.1 1.9 3.7 1.9c2 0 3.5-.9 4.5-2.7v-9.5c-.9-1.8-2.4-2.7-4.4-2.7-1.6 0-2.9.6-3.7 1.9-.9 1.3-1.4 3.2-1.4 5.8zm43 1.1c-.3 3.2-1.5 5.7-3.5 7.5-2.1 1.8-4.8 2.7-8.2 2.7-2.4 0-4.5-.6-6.3-1.7-1.8-1.1-3.2-2.7-4.2-4.8s-1.5-4.5-1.5-7.2V369c0-2.8.5-5.3 1.5-7.4s2.4-3.8 4.3-5 4-1.7 6.5-1.7c3.3 0 5.9.9 8 2.7 2 1.8 3.2 4.3 3.5 7.6h-5.2c-.2-2.1-.9-3.7-1.9-4.6s-2.5-1.4-4.4-1.4c-2.3 0-4 .8-5.2 2.5-1.2 1.6-1.8 4.1-1.9 7.3v2.6c0 3.2.6 5.7 1.7 7.4 1.2 1.7 2.8 2.5 5.1 2.5 2 0 3.6-.5 4.6-1.4s1.7-2.4 1.9-4.6h5.2zm9-10.1c1.6-1.9 3.7-2.8 6.2-2.8 4.7 0 7.1 2.7 7.2 8.1v14.5h-5v-14.3c0-1.5-.3-2.6-1-3.3-.7-.6-1.6-1-2.9-1-2 0-3.5.9-4.5 2.7v15.9h-5v-31.5h5v11.7zm31.7 19.8c-.2-.4-.4-1.1-.6-2.1-1.6 1.7-3.5 2.5-5.8 2.5-2.2 0-4-.6-5.5-1.9s-2.1-2.8-2.1-4.7c0-2.4.9-4.2 2.6-5.4s4.3-1.9 7.5-1.9h3.1v-1.5c0-1.1-.3-2.1-1-2.8s-1.6-1-2.9-1c-1.1 0-2.1.3-2.8.9-.7.6-1.1 1.3-1.1 2.2h-5c0-1.2.4-2.4 1.2-3.4s1.9-1.9 3.3-2.5 2.9-.9 4.6-.9c2.6 0 4.7.7 6.2 2s2.3 3.1 2.4 5.5v10c0 2 .3 3.6.8 4.8v.3H887zm-5.5-3.6c1 0 1.9-.2 2.8-.7s1.5-1.1 2-1.9v-4.2h-2.7c-1.8 0-3.2.3-4.2 1s-1.4 1.6-1.4 2.7c0 1 .3 1.7 1 2.3s1.4.8 2.5.8zm26.6-14.1c-.7-.1-1.3-.2-2-.2-2.3 0-3.8.9-4.6 2.6V385h-5v-22.2h4.8l.1 2.5c1.2-1.9 2.9-2.9 5-2.9.7 0 1.3.1 1.8.3l-.1 4.7zm10.4-9.9v5.4h3.9v3.7h-3.9V379c0 .8.2 1.5.5 1.8s.9.6 1.8.6c.6 0 1.2-.1 1.7-.2v3.9c-1.1.3-2.2.5-3.3.5-3.8 0-5.7-2.1-5.7-6.3v-12.6h-3.7V363h3.7v-5.4h5z"/><path d="M575.4 673V323c0-34.3 28.1-62.4 62.4-62.4h644.5c34.3 0 62.4 28.1 62.4 62.4v350h27.7V329.9c0-57.5-46.4-103.9-103.9-103.9H651.6c-57.5 0-103.9 46.4-103.9 103.9V673h27.7z" fill="#122a3a"/></svg>