<svg xmlns="http://www.w3.org/2000/svg" viewBox="0 0 1920 673" xml:space="preserve"><path fill="#2F3C70" d="M0 0h1920v673H0z"/><path fill="#3D4888" d="M59.3 300.8c-18.6-11.7-38-23.9-59.4-34.8v-5.6c22.5 11.3 42.7 24.1 62.1 36.3 53.3 33.6 99.3 62.5 167.1 44.3 28-7.6 56.5-11.2 87.4-11.1 23.5.2 45.4 2.1 66.5 3.9 69 5.9 123.5 10.6 180.5-46.3 35.9-35.7 89.5-59.6 159.4-70.8 46-7.4 98.2-6.7 155.1 2.1 49.8 7.7 103.1 21.8 154.1 40.7 122.1 45.7 186 31.6 274.4 12.1 5.9-1.3 11.9-2.6 18-3.9 22.7-4.9 43-8.2 63.7-10.3 69.3-7 119.1 19.4 167.3 44.9 50.1 26.5 97.4 51.5 161.1 34.1 43-11.8 118.1-28.1 203.2-45.6v5.1c-84.6 17.4-159.1 33.6-201.9 45.3-65.6 17.9-113.8-7.6-164.8-34.5-47.5-25.1-96.7-51.1-164.4-44.3-20.5 2.1-40.5 5.4-63.1 10.3-6.1 1.3-12.1 2.6-18 3.9-44.2 9.8-82.4 18.2-125.3 18.5-46.8.3-95.1-9.5-151.9-30.7-109.7-40.8-221.5-56.3-306.7-42.6-68.9 11.1-121.6 34.5-156.7 69.4-58.7 58.6-117 53.6-184.5 47.8-21-1.8-42.8-3.7-66.1-3.9-30.4-.1-58.5 3.4-86.1 10.9-15.1 4.1-29.1 5.9-42.3 5.9-48.2-.3-86.2-24.3-128.7-51.1zM275.4 129c33-.7 65 2.6 95.1 9.8 24.4 5.9 46.5 12 67.9 17.9 40.1 11.1 74.8 20.7 109.2 24.2 37.7 3.9 71.2-.2 105.7-12.8 37-13.4 80.4-27.5 135.3-45.4 15.3-5 31.4-10.2 48.4-15.8 116.1-38 250-6.6 340.7 20.3 62.2 18.7 127.6 37.2 184.2 45.2 58.4 8.3 103.6 5.4 142.1-9.2 22.7-8.6 45-14.4 68.2-17.6 73.4-9.9 140.9 11.9 212.3 35 43.6 14.1 88.6 28.7 135.5 35.6v-5.1c-46.3-6.9-90.8-21.3-134-35.3-71.9-23.3-139.9-45.3-214.5-35.2-23.6 3.3-46.2 9.1-69.3 17.8-83 31.5-195.4 2.3-323.1-36.1-91.3-27.1-226.3-58.6-343.7-20.2-16.9 5.5-33 10.8-48.4 15.8-55 17.9-98.4 32-135.5 45.5-73.3 26.8-131.4 10.7-211.8-11.6-21.4-5.9-43.6-12-68.1-17.9-30.5-7.3-63-10.7-96.4-10-54.9 1.2-107.6-.8-158.6-2.8-38.2-1.5-76.8-2.9-116.8-3.1v5c39.9.1 78.5 1.6 116.6 3.1 51.2 2.1 104 4.1 159 2.9zM182 414.7c11 0 22.5-1.2 34.7-3.8 51.6-11.1 97.8-10.6 138.5-10.1 36.8.4 71.6.8 104.3-7.4 36.3-9.1 66.4-27.9 94.8-59.2 99.4-109.6 297.9-75 446.9-26.6 113.4 36.8 167.9 25.4 236.8 10.9 33.3-7 71-14.9 120.3-18 68.8-4.4 118 23.1 165.5 49.8 53.8 30.2 104.5 58.6 176.1 33.7 45.9-16 128.1-34.9 220.1-53.9V325c-92.6 19.1-175.5 38.1-221.7 54.3-69.4 24.2-119.3-3.7-172-33.3-48.1-27-97.9-54.9-168.2-50.4-49.7 3.1-87.6 11.1-121 18.1-68.2 14.3-122.1 25.7-234.3-10.7-96.2-31.2-181.3-46.8-253.1-46.3-88 .6-154.9 25.6-199.1 74.3-60.3 66.5-119.9 65.8-195.3 64.9-41-.5-87.5-1-139.6 10.2-69.3 14.9-116.4-17.9-170.9-55.9-14.3-10-29-20.3-44.8-30.2v5.9c14.7 9.3 28.5 19 41.9 28.4 45.9 32 86.7 60.4 140.1 60.4zm1458.9-164.8c-54-23.2-109.8-47.3-179.3-39.4-21.3 2.5-42.8 6.9-65.9 13.3-84.1 23.6-164.3 28.6-304.7-19.3-86.6-29.6-212.9-59.4-323-33.8-76 17.7-129.8 39-169.2 66.9-63.3 45-120.2 35.6-192.3 23.6-21.4-3.6-43.6-7.3-67.8-9.9-30.1-3.2-60.7-2.4-91 2.7-71.4 11.8-128.4-7.8-188.6-28.6-18.9-6.4-38.4-13.1-59.2-19.1v5.2c20.2 5.9 39.1 12.4 57.4 18.8 60.9 21 118.4 40.8 191.1 28.8 29.9-4.9 60-5.8 89.7-2.6 24 2.6 46.1 6.3 67.5 9.8 73.3 12.2 131.1 21.8 196-24.4 38.9-27.6 92.1-48.6 167.5-66.2 108.9-25.4 234.3 4.3 320.3 33.6 78 26.6 137.6 37 189.7 37 42.4 0 79.8-6.9 118-17.6 22.8-6.4 44.1-10.7 65.1-13.2 68.2-7.8 123.4 16 176.8 39 44.9 19.3 91.2 39.2 144.3 39.2 8.2 0 16.7-.5 25.3-1.5 28.9-3.5 67.7-10.3 111.4-18.9v-5.1c-44 8.7-82.9 15.5-112 19.1-62.7 7.5-113.4-14.3-167.1-37.4zm212.6 13c-61.1 3-115.1-18-167.2-38.4-57.9-22.6-117.7-45.9-188.1-37.2-21.7 2.7-43.6 7.5-67 14.8-86.2 27-173.3 20-310.8-24.9-131-42.8-242-52.6-329.9-29.3-79.7 21.2-133.4 41.2-174.1 65-66.5 39-124.8 27.1-198.6 12-21.5-4.4-43.6-8.9-68-12.7-30.2-4.7-61.4-5.2-92.8-1.5-71.6 8.3-131.6-5.3-195.2-19.8-20.2-4.6-40.6-9.2-61.8-13.3v5.1c20.7 4 40.8 8.5 60.7 13 64 14.5 124.4 28.2 196.9 19.8 31-3.6 61.8-3.1 91.5 1.5 24.2 3.7 46.4 8.3 67.8 12.7 74.9 15.3 134 27.4 202.2-12.6 40.3-23.5 93.6-43.4 172.9-64.5 86.9-23.1 197-13.3 327.1 29.2 70 22.9 125.5 35.4 174.8 39.4 50.2 4.1 94.4-.5 139.1-14.5 23.1-7.2 44.8-12 66.2-14.6 69.1-8.5 128.4 14.6 185.7 36.9 49.2 19.2 100 39 157.2 39 4 0 8-.1 12.1-.3 19.1-.9 41.5-3.5 66.1-7.3v-5.1c-25.2 4.1-47.8 6.7-66.8 7.6zM180.3 396c12.7 0 26.3-2.1 41.1-7 56.4-18.4 106.2-16.3 150.2-14.4 65.9 2.8 122.7 5.2 178.2-59.3 41.4-48.1 111.2-73.8 201.9-74.1 77.1-.3 165.7 17.5 249.3 50.1 54 21 95.5 28.3 132.9 28.3 37.2 0 70.3-7.3 107.2-15.4 31.6-6.9 67.4-14.8 111.1-19 68.1-6.5 114.8 21 159.9 47.5 35.8 21 70.2 41.2 112 41.2 15.1 0 31.2-2.6 48.7-8.8 47.1-16.7 142-37.4 247.2-57.9v-5.1c-105.8 20.7-201.3 41.5-248.8 58.3-63.6 22.6-108.7-3.9-156.5-32-45.8-26.9-93.3-54.8-162.9-48.2-44 4.2-80 12.1-111.7 19.1-73 16.1-130.7 28.7-237.1-12.7-84.2-32.8-173.4-50.7-251.2-50.4-92.1.4-163.2 26.6-205.6 75.8-53.9 62.6-109.7 60.3-174.2 57.5-44.4-1.9-94.7-4-151.9 14.6-65.4 21.3-104.9-10.5-155-50.9-19.5-15.4-40.7-32.4-65.2-47.3v5.8c22.8 14.2 42.7 30.3 61.8 45.6 38.4 31 72.8 58.7 118.6 58.7zM284.4 85.6c33.7.7 66.4 5.4 97 14 24.4 6.8 46.4 13.7 67.7 20.3 83.2 25.8 143.3 44.5 221.4 23.7 57.6-15.3 119.5-34.7 189.1-59.5 114.9-40.8 246.1-13 347.5 15.8l8.4 2.4c98.3 28.2 181.9 52.2 249.7 52.2 27.4 0 52.2-3.9 74.4-13.1 22.2-9.2 45.5-15.6 69.2-19 77.7-11.1 153.6 11.7 234 35.9 25.3 7.6 51 15.3 77.1 22v-5.2c-25.6-6.6-50.9-14.2-75.7-21.6-80.9-24.3-157.3-47.3-236.1-36-24.1 3.5-47.8 10-70.4 19.4-75.4 31.1-183.7 0-320.8-39.3l-8.4-2.4c-68.6-19.5-124.8-30.5-176.8-34.7-66.2-5.3-123 .9-173.8 18.9-69.5 24.7-131.2 44.1-188.7 59.3-76.8 20.5-136.3 2-218.7-23.6-21.3-6.6-43.4-13.5-67.8-20.3-31-8.7-64-13.5-98.2-14.2C178.8 78 86.9 80-.1 87v5c86.9-7 178.8-9 284.5-6.4zm9-43.4c34.6 2.2 67.9 8.3 98.8 18.1 24 7.7 45.6 15.1 66.5 22.3 85.4 29.4 147.1 50.6 229 36.3 54.3-9.5 117.9-28.3 194.5-57.7 115.4-43.9 250-17 354.4 11.4 17.9 4.9 35.7 9.9 52.8 14.7 118 33.2 219.8 62 285.8 32.4 21.9-9.8 45.6-16.7 70.2-20.5 84.9-12.8 173.4 12.6 267.1 39.4 2.4.7 4.9 1.4 7.3 2.1v-5.2c-2-.6-4-1.1-6-1.7-94.3-27-183.3-52.4-269.2-39.5-25.1 3.8-49.2 10.8-71.5 20.9-64.4 28.9-165.4.4-282.4-32.6-17.2-4.8-34.9-9.8-52.9-14.8-71-19.3-128.4-30-180.6-33.5-67.4-4.6-125.3 2.7-176.9 22.3-76.2 29.2-139.5 48-193.4 57.4-80.6 14.1-141.8-6.9-226.5-36.1-20.9-7.2-42.6-14.6-66.6-22.3-31.3-9.9-64.9-16.1-100-18.4-98-6.5-197.6 3-293.9 18.4v5.1c96.3-15.5 195.8-25 293.5-18.5zm1605.7 196.3c-58.8-1.1-112.8-20.2-164.9-38.7-62.6-22.2-127.4-45.1-199.4-35.8-22.5 2.9-44.8 8.3-68.2 16.3-86.4 29.8-189.2 9.4-316.9-30.5-137.8-43.1-248-51.2-336.8-24.8-86.1 25.6-138 43.9-179 63.1-69.8 32.9-129.5 18.5-205.1.3-21.5-5.2-43.6-10.5-68.1-15.4-30.3-6-62.2-8-94.6-5.8-68.7 4.7-129-2.8-192.8-10.7-24-3-48.4-6-73.4-8.3v5c24.8 2.3 48.9 5.3 72.8 8.3 64.1 7.9 124.6 15.4 193.7 10.7 32-2.2 63.4-.3 93.3 5.7 24.4 4.8 46.5 10.2 67.9 15.4 43.1 10.4 81.2 19.6 118.9 19.6 29.2 0 58.3-5.5 89.5-20.2 40.7-19.1 92.4-37.3 178.3-62.8 87.8-26.1 197-18 333.9 24.7 76.1 23.8 131.5 36.8 179.5 42.3 54.6 6.2 99.3 2.5 140.6-11.8 23.1-8 45-13.2 67.2-16.1 70.8-9.2 132.1 12.5 197.1 35.5 52.6 18.6 106.9 37.9 166.5 39 2 0 3.9.1 5.9.1 4.8 0 9.8-.1 14.9-.3v-5c-7.2.3-14.1.4-20.8.2zm-301.6 37.2c-50.9-24.2-103.4-49.3-172.6-41.9-20.8 2.3-41.9 6.2-64.8 11.8-90 22.4-164.1 34.5-298.6-13.7-54.3-19.3-107.4-32.6-157.9-39.8-58.4-8.2-111.7-7.7-158.2 1.5-72.8 14.4-126.6 37-164.3 68.9-60.1 51-115.7 43.9-186.2 35-21.4-2.7-43.4-5.5-67.4-6.9-30.5-1.8-59.7.5-89.2 6.9-69.9 15.2-120.3-8.9-178.7-36.8-18.9-9-38.5-18.4-59.8-26.8v5.4c20.5 8.2 39.4 17.3 57.6 26 46.4 22.2 87.9 42 138.2 42 13.8 0 28.3-1.5 43.7-4.8 29.1-6.3 57.9-8.5 87.9-6.8 23.8 1.4 45.8 4.2 67.1 6.9 34.5 4.4 67.1 8.5 98 4.9 34.4-4 63.6-17 92-41.1 37.1-31.4 90.1-53.5 162.1-67.8 85.3-16.9 196.6-3.4 313.5 38.1 68.7 24.6 121.7 33.7 169.2 33.7 46.4 0 87.4-8.6 132.3-19.8 22.6-5.6 43.6-9.5 64.1-11.7 67.8-7.3 119.7 17.5 169.9 41.5 42.8 20.4 83.6 39.9 132 39.9 11.5 0 23.4-1.1 35.8-3.5 36.6-7.1 92.7-18.7 156.6-32.1v-5.1c-64.3 13.5-120.9 25.1-157.6 32.3-63.3 12.1-112.6-11.3-164.7-36.2zM161.5 0h-39.4C81 5.9 40.2 14.2-.1 23.6v5.1C53.3 16.3 107.6 5.7 161.5 0zm1195.8 648.9c-37.8-8.2-65.3-15.9-87.4-22.2-74-20.8-98.9-27.8-285.7 3.8-69.8 11.9-118.1 26.8-155.9 42.4h13.6c35.7-13.8 80.8-26.8 143.2-37.5 185.7-31.5 210.3-24.5 283.5-4 22.2 6.2 49.8 14 87.7 22.2 10.4 2.2 21 4.6 32.3 7.2 17 3.8 35.3 7.9 55.2 12.1h24.9c-29.3-5.8-55.4-11.7-79-16.9-11.4-2.5-22-4.9-32.4-7.1zM469.7 45.7C540.2 72.1 595.9 93 659.6 95.5c67.1 2.7 140.5-14.4 245.3-57.2 139.4-56.9 301.5-10.8 444.5 29.9 109.1 31 203.3 57.8 261.5 29.6 88.6-42.9 197.8-25.7 309 3.4V96c-111.7-29.1-221.5-46.2-311.2-2.7-56.5 27.4-149.9.8-258-29.9-69-19.6-147.1-41.9-223.7-51.5C1039.1.9 965.9 8 903 33.7 687 121.8 615 94.8 471.5 41c-21-7.9-42.6-16-66.8-24.5C385.3 9.6 365 4.2 343.7 0h-31.3c31 4 61.3 10.8 90.6 21.2 24.1 8.5 45.8 16.6 66.7 24.5zM1259 655.6c-68.5-22.8-99.7-33.3-277.3 3.3-20.8 4.3-39.6 9-56.7 14.1h18.5c12.2-3.2 25.2-6.3 39.2-9.2 176.3-36.3 207.1-26 274.7-3.4 11.5 3.8 24.3 8.1 39.3 12.6h17.9c-21.9-6.1-39.5-12-55.6-17.4zM1462.9 4.3c22.2 0 43.6-1.3 64-4.3h-142.6c27.3 2.7 53.5 4.3 78.6 4.3zM1296 11.1c75.1 14.2 143.9 27.2 203.6 27.2 38.2 0 72.6-5.3 102.6-19C1619.6 11.4 1638 5 1657.8 0h-18.6c-13.6 4.2-26.6 9.1-39.1 14.8-75.6 34.5-181.1 14.5-303.3-8.6-10.8-2-22-4.1-33.2-6.2h-27.3c5.8 1.1 11.7 2.2 17.4 3.3 14.4 2.6 28.6 5.3 42.3 7.8zm513.7 16.6c-84.9-7.9-150.1.5-205.2 26.4-65.3 30.7-164.1 7.4-278.5-19.6-20.6-4.9-41.8-9.9-63.3-14.7-29.9-6.7-61.8-13.8-94.9-19.8h-30.3c43.5 6.7 85.4 16 124 24.7 21.5 4.8 42.7 9.8 63.3 14.7 115.3 27.2 214.9 50.7 281.8 19.3 54.3-25.5 118.7-33.7 202.6-25.9 36.2 3.3 73.4 9.6 110.7 17.5v-5.1c-37.1-7.9-74.1-14.2-110.2-17.5zm-1160.4-4c53.1 0 109.2-7.5 176.1-23.7h-22C675.3 28.5 595.1 21.5 493.6 0h-23.3c58.1 13 112.8 22.8 170.2 23.7h8.8zm-223.2-13c9.2 2.9 17.9 5.7 26.6 8.3C532 43 592.1 59.5 661.3 59.5c62.6 0 132.6-13.6 230.8-47.5 14.4-5 29-8.9 43.8-12h-21.5c-8 2.2-16 4.6-23.9 7.3-205.2 70.8-286.3 52.2-436.3 6.9-8.7-2.6-17.3-5.4-26.5-8.3-6.2-2-12.5-4-18.9-6h-17.2c11.9 3.6 23.3 7.3 34.5 10.8zM1043 673h27.8c63.2-10.5 98.8-8.4 130.5 0h17.4c-41.2-13.8-82-18.5-175.7 0zM580.3 568c137.5-70.5 142.3-70.6 396.7-73.8l20-.3c118.2-1.4 173.2-7.8 213.4-12.4 51.6-6 77.5-9 182.5 6.2 58.5 8.4 112.8 28.3 170.3 49.3 22.6 8.3 46 16.8 69.8 24.7 36.6 12.1 80.3 25.2 126.9 30.6 47 5.5 91.7 2.5 136.6-9.2 7.8-2 15.5-4 23.3-6v-5.2c-8.2 2.1-16.4 4.2-24.6 6.4-91.2 23.7-170.2 8.6-260.7-21.3-23.8-7.9-47.1-16.4-69.7-24.6-57.7-21.1-112.3-41-171.3-49.5-105.7-15.2-131.8-12.2-183.8-6.2-40.1 4.6-94.9 11-212.9 12.4l-20 .3c-127.9 1.6-192.1 2.4-242.7 11.7-50.8 9.3-86.5 26.9-156.2 62.6-10.5 5.4-21.1 11-31.4 16.4-70.4 37.2-143.2 75.6-237.7 73.1-48.4-1.2-98.6-12.2-153.6-33.4C98.7 597.8 47.7 584-.1 574.1v5.1c47.3 9.8 97.7 23.5 153.6 45.1 55.5 21.4 106.3 32.4 155.3 33.7 3.1.1 6.1.1 9.1.1 91.4 0 162.3-37.5 231-73.8 10.3-5.3 20.9-10.9 31.4-16.3zm860.8 64.8c-27-6.4-52.4-12.4-76.5-17.2-33.1-6.6-58.4-12.5-78.8-17.3-83.9-19.6-99-23.2-299 3.9-138.3 18.9-195 45.2-249.6 70.8H749c51.5-23.9 109-48.1 238.4-65.8 199.1-26.9 214.1-23.4 297.2-3.9 20.4 4.8 45.8 10.7 78.9 17.3 24 4.8 49.4 10.8 76.3 17.1 46.1 10.9 98.3 23.2 160.4 33.5 3.6.6 7.3 1.2 11 1.8h33.1c-14.6-2.1-29-4.4-43.2-6.7-61.9-10.3-114-22.6-160-33.5zm474-104.4c-121.5 38.9-213-2.7-309.9-46.8-61-27.7-124.1-56.4-197-65.3-96.2-11.8-127.9-5.3-168 3-41.6 8.5-93.3 19.1-238.2 13-62.7-2.6-112.3-6.1-152.1-8.9-70.6-4.9-113.2-7.9-149.6-.9-34.3 6.5-64.1 21.8-113.9 58.3-9.2 6.8-18.5 13.7-27.4 20.3-107.8 80.4-209.5 156.4-378.1 79.4-59.4-27.1-120.7-43.3-181-56.9v5.1c59.7 13.6 120.3 29.6 179 56.3 50.4 23 94.8 32.6 135.3 32.6 97 0 170.9-55.1 247.8-112.5 8.9-6.7 18.2-13.6 27.4-20.3 92.8-68 118.3-66.2 260.1-56.4 39.9 2.8 89.5 6.2 152.3 8.9 145.5 6.1 197.6-4.5 239.4-13.1 39.7-8.1 71-14.6 166.4-2.9 72.2 8.8 134.9 37.4 195.5 64.9 49.3 22.4 95.8 43.6 146.6 54.7 57.6 12.7 110.7 10.2 166.9-7.8 1.1-.3 2.2-.7 3.2-1v-5.2c-1.6.5-3.2 1-4.7 1.5zM-.1 598.8v5.1c42.3 8.8 88.6 21.4 140.9 40.1 38.3 13.7 74.4 23.2 109.3 29H291c-47-3.8-95.6-14.9-148.4-33.7-53.1-18.9-99.9-31.6-142.7-40.5zm1905.3-45.5c-104.2 30.2-190 3.6-262.2-23.8-19.2-7.3-38.5-15.2-57.1-22.8-58.5-23.9-118.9-48.6-184.9-57.3-99.3-13.3-128.7-8.7-173.1-1.7-39.9 6.3-94.4 14.9-228.3 12.8-42-.6-77.5-1.5-108.9-2.3-174.6-4.3-197.1-4.9-308.4 63.8-10.5 6.5-21 13.1-31.2 19.6-72.5 45.9-141 89.3-231.2 90.8-47.7.9-97.4-9.7-151.7-32.5-59-24.4-114.6-39.4-168.3-50.7v5.1c53.2 11.2 108.2 26.1 166.3 50.4 52.9 22.1 101.4 32.9 148.1 32.9 1.9 0 3.7 0 5.6-.1 91.6-1.6 160.7-45.3 233.8-91.6 10.2-6.4 20.7-13.1 31.2-19.6 110-67.9 132.3-67.4 305.6-63.1 31.3.8 66.9 1.7 108.9 2.3 134.3 2.1 189.1-6.5 229.2-12.8 44-6.9 73.1-11.5 171.7 1.7 65.4 8.6 125.5 33.2 183.7 56.9 18.7 7.6 38 15.5 57.3 22.8 73 27.6 159.7 54.5 265.4 23.9 4.4-1.3 8.8-2.6 13.3-3.8V549c-5 1.5-9.9 2.9-14.8 4.3zm-19.8 49.9c-88.9 20.4-167.9 7.2-259.2-18.9-29.6-8.5-57.8-17.7-85.1-26.6-53.1-17.3-103.2-33.6-154.8-41.7-118.2-18.4-135.2-16.9-207.1-10.6-38.8 3.4-91.9 8.1-184.8 11.9-239 10-265 21.2-374.4 68.1-13.6 5.8-29 12.4-46.1 19.6-9.5 4-19.1 8.1-28.5 12.1-57 24.5-115.6 49.7-186.9 55.9h37.4c55.8-10.2 104.2-31 151.5-51.3 9.3-4 19-8.2 28.4-12.1 17.1-7.2 32.6-13.8 46.2-19.6 111.4-47.8 134.6-57.7 372.7-67.7 93-3.8 146.2-8.5 185.1-11.9 71.4-6.3 88.4-7.8 205.9 10.6 51.2 8 101.1 24.3 154 41.5 27.3 8.9 55.6 18.1 85.3 26.6 92 26.3 171.7 39.6 261.6 19 10.9-2.5 22-5.1 33.4-7.7v-5.1c-11.8 2.6-23.4 5.3-34.6 7.9zm-9.9 24.9c-86.8 17.3-165.7 5.9-257.6-16.5-37.1-9.1-71.2-18.9-104.1-28.5-46.8-13.6-91-26.5-134.6-33.8l-6.3-1.1c-132.7-22.5-132.7-22.5-252.2-12.6-32.8 2.7-73.7 6.1-128.8 10-195 14.1-242 32.6-319.8 63.2-27.7 10.9-59 23.2-102.3 37.5-7.4 2.4-15 5-22.3 7.5-19.4 6.6-39 13.2-59.3 19.2h17.1c14.8-4.7 29.3-9.6 43.8-14.4 7.3-2.5 14.9-5 22.3-7.5 43.4-14.4 74.9-26.7 102.6-37.6 77.4-30.5 124.2-48.9 318.4-62.9 55.2-3.9 96-7.3 128.8-10 118.8-9.9 118.8-9.9 250.9 12.5l6.3 1.1c43.3 7.3 87.4 20.1 134.1 33.7 33 9.6 67.1 19.5 104.3 28.6 92.5 22.5 172.1 34 259.8 16.5 14.6-2.9 29-5.9 43.4-8.8V619c-14.8 3.1-29.6 6.1-44.5 9.1zm-9.9 24.9c-90 15.2-176.3 2.2-256.1-14.1-47.3-9.7-88.5-20.4-128.3-30.7-38.4-10-74.7-19.4-109.4-25.8-23-4.2-41.9-7.9-58.6-11.1-102.9-20-102.9-20-304.3.6l-19.7 2C828.5 590.6 774 613 711 639c-26.9 11.1-54.4 22.4-92 34h16.5c30.3-10 54.1-19.8 77.4-29.4 62.7-25.8 116.9-48.1 277-64.7l19.7-2c200.6-20.5 200.6-20.5 302.8-.7 16.7 3.2 35.6 6.9 58.6 11.1 34.5 6.3 70.7 15.7 109 25.7 38 9.9 81.1 21.1 128.6 30.8 55.1 11.2 113.3 20.9 173.7 20.9 27.6 0 55.7-2 84.2-6.8 17.9-3 35.8-6.2 53.5-9.5v-5.1c-18.2 3.4-36.2 6.6-54.4 9.7zm23.8 20h30.5v-4.8c-10.1 1.8-20.3 3.3-30.5 4.8zM188.2 541.6c46.2 14.6 88.3 21.9 128.1 21.9 31.5 0 61.6-4.5 91.1-13.6 65.7-20.2 122.1-61.3 173.2-102.7 93.9-76.1 147.9-70.4 308.4-53.5 32.8 3.5 69.9 7.4 112.7 11.2 138.7 12.3 189.8 2.4 234.8-6.4 38.4-7.5 74.6-14.5 158.7-7.4 71.8 6 132.1 34.3 190.3 61.7 86.1 40.5 167.4 78.7 276.9 43.1 18.1-5.9 37.4-11.8 57.4-17.7V473c-20.6 6.1-40.4 12.1-59 18.2-107.6 35-188.1-2.8-273.2-42.9-58.6-27.6-119.3-56.1-192-62.1-84.8-7.2-121.4-.1-160.1 7.5-46.9 9.1-95.5 18.6-233.4 6.3-42.8-3.8-79.9-7.7-112.6-11.2-162-17.1-216.6-22.8-312.1 54.5C453 544.2 354.3 589 189.7 536.8c-46.1-14.6-91.6-27.3-135.5-39.6-18-5-36.1-10.1-54.3-15.3v5.2c17.8 5.1 35.4 10 52.9 14.9 44 12.3 89.4 25 135.4 39.6zm130.4-32.4c32 0 60.6-3 87.4-9 58.9-13.2 111.6-42 165.8-90.6 97.5-87.4 184.3-74.2 374.4-45.4 17.7 2.7 36 5.5 55.4 8.3 131.5 19.4 180.7 9.9 232.7 0 37.5-7.2 76.2-14.6 148.6-11.6 71.2 2.8 128.3 30.9 183.6 58 54.2 26.6 106.1 52.2 167.2 52.2 23.3 0 48-3.7 74.6-12.5 31.8-10.5 69.9-21.4 111.7-32.3V421c-42.3 11.1-81 22.1-113.2 32.8-94.3 31.3-164.1-3-238-39.3-55.7-27.4-113.3-55.7-185.6-58.6-73-3.1-112 4.4-149.8 11.7-51.6 9.9-100.4 19.3-231.1 0-19.4-2.9-37.6-5.6-55.3-8.3-95-14.4-163.7-24.8-222.3-20.8-61.6 4.3-108.3 24.4-156.2 67.4-102.5 91.9-199.3 114.7-370 87.3C127.6 481.8 64.6 461.3-.1 436v5.4c64.4 25 127.1 45.4 197.7 56.7 46 7.4 85.6 11.1 121 11.1zm-1.1 27.1c31.5 0 60.9-3.8 89.2-11.3 56.4-15 108.7-44.8 169.5-96.7 95.3-81.2 166.4-72.2 338.4-50.4 25.9 3.3 55.3 7 87 10.7 135.2 15.7 185.2 6.1 233.5-3.2 38.9-7.5 75.7-14.6 154-9.5 71.5 4.4 130.3 32.6 187.1 59.9 58.1 27.9 113.8 54.6 179 54.6 25.1 0 51.6-4 80.1-13.3 25.5-8.4 54-16.8 84.6-25.3v-5.2c-31.1 8.6-60.2 17.3-86.1 25.8-100.9 33.1-176-2.9-255.4-41.1-57.3-27.5-116.5-55.9-189-60.4-78.9-5.1-117.7 2.4-155.3 9.6-47.9 9.2-97.5 18.8-232 3.1-31.7-3.7-61.1-7.4-87-10.7-173.4-21.8-245.2-30.9-342.2 51.7-102.6 87.4-201.7 133-378.8 90.4-66.8-16.1-129.3-33.7-194.2-55.3v5.3c64.5 21.4 126.7 38.9 193 54.9 45.6 10.9 86.6 16.4 124.6 16.4zm-2.4 54.3c31.7 0 62.4-5.3 93-15.8C473 552.4 529.9 508.5 585 466c93.1-71.8 133.2-68.3 282.6-55.3 38 3.3 81 7 134.1 10.4 142.1 9.1 192.4-.9 236.8-9.7 39.2-7.8 73.1-14.5 162.9-5.2 72 7.4 133.6 35.9 193.1 63.3 66.2 30.6 129.7 59.9 203.6 59.9 28.7 0 58.9-4.4 91.5-14.9 9.9-3.2 20-6.4 30.3-9.6v-5.2c-10.9 3.3-21.5 6.7-31.9 10-114.5 36.9-200.4-2.8-291.4-44.8-59.9-27.7-121.8-56.3-194.7-63.8-90.6-9.4-124.8-2.6-164.3 5.3-44.1 8.8-94.1 18.7-235.5 9.6-53.1-3.4-96.1-7.1-134-10.4C717.2 392.5 676.6 389 582 462c-111.2 85.7-216.3 166.7-396.6 96.6-62-24.1-124.6-40.2-185.4-55.5v5.2c60.3 15.1 122.3 31.2 183.6 55 46.8 18.3 90 27.3 131.5 27.3zm-108-136.1c25.6-.4 49.3-.2 72.3.1 13 .1 25.6.3 37.8.3 96.1 0 170.1-7.8 245.8-83 99.1-98.5 237.9-76.5 438.4-31.8 123.2 27.5 174.2 17.4 233.3 5.8 35.2-6.9 75.2-14.8 136-15.2h2.4c69 0 121.8 27.5 172.9 54.1 46.6 24.2 91.2 47.5 144.3 47.5 19.9 0 41-3.3 63.9-11 40.7-13.8 99.7-29 165.9-44.3v-5.1c-66.7 15.4-126.4 30.7-167.5 44.7-81.6 27.7-141.2-3.3-204.2-36.2-52.2-27.2-106.2-55.3-177.6-54.6-61.3.4-101.4 8.3-136.9 15.3-58.5 11.5-109 21.5-231.2-5.8-92.7-20.7-182-39.1-256.9-38-79.2 1.1-138.3 23.8-186.1 71.2-83.8 83.2-166.1 82.4-280 81.3-23-.2-46.8-.5-72.5-.1-78.7 1.1-138.5-30.4-207.3-67v5.7c68.5 36.4 128.3 67.4 207.2 66.1zM318.5 482c30.7 0 59.6-1.8 86.7-6.7 62-11.2 112-37.3 162.2-84.5 101.1-95.3 214.1-74.7 419.3-37.1l14.8 2.7c127.5 23.3 176.2 13.9 232.7 3 37.4-7.2 76.1-14.7 142.6-13.5 70.7 1.1 126.1 29.1 179.6 56.1 50.3 25.4 98.6 49.8 155.6 49.8 21.6 0 44.5-3.5 69.2-11.8 37.1-12.4 85.1-25.5 138.8-38.7V396c-54.3 13.3-102.9 26.5-140.4 39.1-87.9 29.5-152.5-3.2-220.9-37.7-54-27.3-109.9-55.5-181.8-56.6-67.1-1.2-106 6.3-143.7 13.6-55.9 10.8-104.2 20.1-230.8-3l-14.8-2.7c-101.4-18.5-181.4-33.2-249-31.1-72.1 2.2-126 23.6-174.6 69.5-104.1 98.2-205.1 96-361.2 84.3-74.8-5.7-136.4-30.3-203-60.9v5.5c66.2 30.4 127.8 54.7 202.5 60.3 41.2 3.1 80 5.7 116.2 5.7zM4.7 673c-1.6-.3-3.2-.7-4.8-1v1h4.8zm-4.8-49.8v5.1c38 8.1 80.2 19.4 128.3 35.3 10.1 3.4 20.1 6.5 30 9.4h18.4c-15.3-4.2-30.9-8.8-46.9-14.1C81 642.8 38.4 631.4-.1 623.2zm188.2-189.1c7.7 0 15.6-.4 23.8-1.4 42.7-4.8 81.9-4.9 116.5-5 89-.3 159.4-.5 230.3-74.6 45-47 106.8-70.3 189-71.2 83.6-.9 179.5 22 253.6 42 118.5 32 169.8 21.6 234.6 8.5 34.5-7 73.5-14.9 128.6-16.7 69.5-2.5 120.9 25.2 170.6 51.9 58.8 31.7 114.4 61.7 191.9 35 43.7-15 114.1-32.2 193-49.4V348c-79.5 17.3-150.5 34.6-194.6 49.8-75.4 25.9-130.1-3.5-187.9-34.7-50.3-27.1-102.2-55.1-173.1-52.5-55.5 1.9-94.7 9.8-129.4 16.8-64.2 13-115 23.3-232.3-8.4-74.5-20.1-170.8-43-255-42.2-83.6.9-146.6 24.7-192.6 72.8-69.4 72.6-138.8 72.8-226.7 73.1-34.7.1-74.1.2-117 5.1-73.7 8.3-126.8-24-188.3-61.4-7.5-4.6-15.2-9.3-23.1-13.9v5.8c6.9 4.2 13.8 8.3 20.5 12.4 55.4 33.7 104.2 63.4 167.6 63.4zM98.7 673c-36.3-10.7-69-19-98.8-25.4v5.1c24.8 5.3 51.5 12 80.7 20.2h18.1v.1z"/><path d="M450.5 256.8v63.8h-45.3v-188h75c14.4 0 27.1 2.6 38.2 7.9 11.1 5.3 19.6 12.8 25.7 22.6 6.1 9.8 9.1 20.9 9.1 33.3 0 18.3-6.6 33-19.7 44s-31.1 16.5-54 16.5h-29zm0-35h29.7c8.8 0 15.5-2.2 20.1-6.6 4.6-4.4 6.9-10.6 6.9-18.6 0-8.8-2.4-15.8-7.1-21-4.7-5.3-11.2-7.9-19.4-8h-30.2v54.2zm223.8 48.8c0-6.6-2.3-11.8-7-15.5-4.7-3.7-12.9-7.5-24.7-11.5-11.8-4-21.4-7.8-28.9-11.5-24.4-12-36.5-28.4-36.5-49.3 0-10.4 3-19.6 9.1-27.6s14.7-14.2 25.8-18.6c11.1-4.4 23.6-6.6 37.4-6.6 13.5 0 25.6 2.4 36.4 7.2 10.7 4.8 19 11.7 25 20.6s8.9 19.1 8.9 30.5h-45.2c0-7.7-2.3-13.6-7-17.8-4.7-4.2-11-6.3-19-6.3-8.1 0-14.5 1.8-19.2 5.4-4.7 3.6-7 8.1-7 13.6 0 4.8 2.6 9.2 7.7 13.1 5.2 3.9 14.2 8 27.2 12.1 13 4.2 23.7 8.7 32 13.5 20.3 11.7 30.5 27.9 30.5 48.4 0 16.4-6.2 29.4-18.6 38.7-12.4 9.4-29.4 14.1-51 14.1-15.2 0-29-2.7-41.4-8.2-12.4-5.5-21.7-13-27.9-22.5-6.2-9.5-9.4-20.5-9.4-32.9H617c0 10.1 2.6 17.5 7.8 22.3 5.2 4.8 13.7 7.2 25.4 7.2 7.5 0 13.4-1.6 17.8-4.8 4.2-3.2 6.3-7.7 6.3-13.6zM895 257c-.6 13.1-4.1 24.6-10.6 34.7-6.5 10-15.5 17.8-27.2 23.3s-25 8.3-40 8.3c-24.7 0-44.2-8-58.4-24.1-14.2-16.1-21.3-38.8-21.3-68.2v-9.3c0-18.4 3.2-34.5 9.6-48.4 6.4-13.8 15.6-24.5 27.7-32s26-11.3 41.8-11.3c22.8 0 41.1 6 55 18 13.9 12 21.7 28.6 23.6 49.7H850c-.3-11.4-3.2-19.7-8.7-24.7-5.4-5-13.7-7.5-24.8-7.5-11.3 0-19.5 4.2-24.8 12.7-5.3 8.4-8 21.9-8.3 40.4v13.3c0 20.1 2.5 34.4 7.6 43 5 8.6 13.7 12.9 26 12.9 10.4 0 18.4-2.5 23.9-7.4s8.4-12.7 8.8-23.4H895zm75.3 2.7 23.2-78.8h46.6L983.2 344l-2.5 5.9c-8.1 18.1-22.4 27.1-42.9 27.1-5.7 0-11.7-.9-17.9-2.6v-31h5.7c6.1 0 10.8-.9 14-2.6 3.2-1.8 5.6-4.9 7.2-9.5l3.5-9.3-48.6-141.1h46.5l22.1 78.8zm165.7-39.4-14.3-1c-13.7 0-22.5 4.3-26.3 12.9v88.5h-43.5V180.9h40.8l1.4 17.9c7.3-13.7 17.5-20.5 30.6-20.5 4.6 0 8.7.5 12.1 1.5l-.8 40.5zm-71.5 234.2H1039v69.2h-20.5v-69.2h-25v-15.8h71v15.8zm76.2 0h-25.5v69.2h-20.5v-69.2h-25v-15.8h71v15.8zm62.2 35.3h-33v33.8h-20.5v-85h56.8v15.8h-36.4V474h33v15.8zm45.1 33.9v-49.5h-9.2v-13.7h9.2v-5c0-7.2 2.1-12.8 6.4-16.8 4.2-4 10.2-6 17.9-6 2.8 0 5.9.4 9.2 1.2l.1 14.5c-1.2-.3-2.8-.5-4.8-.5-6 0-8.9 2.6-8.9 7.7v4.8h12.3v13.7h-12.3v49.5H1248zm36.4-32.2c0-6.3 1.2-11.9 3.7-16.8s6-8.7 10.6-11.4c4.6-2.6 10-4 16.2-4 9.5 0 16.9 2.9 22.4 8.8s8.2 13.8 8.2 23.9v.7c0 9.8-2.7 17.7-8.2 23.4-5.5 5.8-12.9 8.7-22.2 8.7-9 0-16.2-2.7-21.7-8.1-5.4-5.4-8.4-12.7-8.8-21.9l-.2-3.3zm19.7 1.2c0 5.8.9 10.1 2.7 12.8 1.8 2.7 4.5 4.1 8.1 4.1 7 0 10.6-5.4 10.7-16.2v-2c0-11.3-3.6-17-10.9-17-6.6 0-10.1 4.9-10.7 14.6l.1 3.7zm68-32.2.6 7.4c4.4-5.7 10.4-8.6 18-8.6 6.6 0 11.5 2 14.7 5.9 3.2 3.9 4.9 9.8 5 17.7v40.7h-19.7v-39.9c0-3.2-.6-5.5-1.9-7-1.3-1.5-3.6-2.2-7-2.2-3.9 0-6.7 1.5-8.6 4.6v44.6h-19.7v-63.1h18.6zm72.2-15.7v15.7h10.4v13.7h-10.4V503c0 2.4.4 4 1.3 5 .9.9 2.5 1.4 5.1 1.4 1.9 0 3.6-.1 4.9-.4v14.1c-3.5 1.1-7.2 1.7-11.1 1.7-6.8 0-11.8-1.6-15-4.8s-4.8-8-4.8-14.5v-31.3h-8.1v-13.7h8.1v-15.7h19.6zm51.2 61.1c0-1.7-.9-3-2.6-4-1.8-1-5.1-2.1-10-3.2s-9-2.5-12.1-4.3c-3.2-1.8-5.6-3.9-7.3-6.4-1.7-2.5-2.5-5.4-2.5-8.7 0-5.8 2.4-10.6 7.2-14.3 4.8-3.8 11-5.6 18.8-5.6 8.3 0 15 1.9 20.1 5.7 5.1 3.8 7.6 8.7 7.6 14.9H1495c0-5.1-2.7-7.6-8-7.6-2.1 0-3.8.6-5.2 1.7-1.4 1.1-2.1 2.6-2.1 4.3 0 1.8.9 3.2 2.6 4.3 1.7 1.1 4.4 2 8.2 2.7 3.8.7 7.1 1.5 9.9 2.5 9.5 3.3 14.2 9.1 14.2 17.6 0 5.8-2.6 10.4-7.7 14.1-5.1 3.6-11.7 5.4-19.9 5.4-5.4 0-10.2-1-14.5-2.9-4.2-1.9-7.5-4.6-9.9-7.9-2.4-3.3-3.6-6.9-3.6-10.6h18.4c.1 2.9 1.1 5 2.9 6.4 1.9 1.3 4.3 2 7.2 2 2.7 0 4.7-.5 6-1.6 1.4-1.3 2-2.7 2-4.5z" fill="#FFF"/></svg>