<svg version="1.1" xmlns="http://www.w3.org/2000/svg" x="0" y="0" viewBox="0 0 1920 673" xml:space="preserve"><path fill="#672179" d="M0 0h1920v673H0z"/><path d="M1073.2 452.1l-41.4-13.8V234.7l41.4-13.8 101.1 76.2 167.9-166.2 100.7 42.8v325.6l-100.7 42.8-167.9-166.2-101.1 76.2zm153.3-115.8l115.4 87.3V249.4l-115.4 86.9zm-153.3 60.6l61-60.6-61-60.1v120.7zM771.5 130.8L631.7 269.1l-79.3-59.8-65.6 21.9v210.6l65.6 21.9 79.3-59.8 139.8 138.3 117.4-49.8V180.6z" fill="#fff"/><path d="M547.7 435.2l-35.4-11.8V249.6l35.4-11.8 86.3 65L777.3 161l85.9 36.5v277.9l-85.9 36.5L634 370.1l-86.3 65.1zm130.8-98.9l98.5 74.5V262.2l-98.5 74.1zM547.7 388l52.1-51.7-52.1-51.3v103z" fill="#68217a"/></svg>