<svg xmlns="http://www.w3.org/2000/svg" viewBox="0 0 1920 673" xml:space="preserve"><style>.st6{fill:#bfbfbf}</style><path fill="#eaeaec" d="M0 0h1920v673H0z"/><linearGradient id="a" gradientUnits="userSpaceOnUse" x1="35.716" y1="856.397" x2="42.129" y2="856.397" gradientTransform="matrix(29.8 0 0 -26.5 -28.1 23060.902)"><stop offset=".26" stop-color="#f97a12"/><stop offset=".46" stop-color="#b07b58"/><stop offset=".72" stop-color="#577bae"/><stop offset=".91" stop-color="#1e7ce5"/><stop offset="1" stop-color="#087cfa"/></linearGradient><path fill="url(#a)" d="m1135.8 451.5-99.6-78.4 49.5-91.9 142 55.3z"/><linearGradient id="b" gradientUnits="userSpaceOnUse" x1="29.537" y1="869.395" x2="37.302" y2="866.627" gradientTransform="matrix(40.6 0 0 -63 -16.2 55049)"><stop offset="0" stop-color="#f97a12"/><stop offset=".07" stop-color="#cb7a3e"/><stop offset=".15" stop-color="#9e7b6a"/><stop offset=".24" stop-color="#757b91"/><stop offset=".33" stop-color="#537bb1"/><stop offset=".43" stop-color="#387ccc"/><stop offset=".54" stop-color="#237ce0"/><stop offset=".66" stop-color="#147cef"/><stop offset=".79" stop-color="#0b7cf7"/><stop offset="1" stop-color="#087cfa"/></linearGradient><path fill="url(#b)" d="m1443 240.8-7.7 237.7-158.1 63.6-95.1-61.7 138.8-143.9-60.4-133.7 54.6-65.5z"/><linearGradient id="c" gradientUnits="userSpaceOnUse" x1="49.119" y1="862.041" x2="46.03" y2="868.748" gradientTransform="matrix(28.4 0 0 -39.1 8.2 34088.7)"><stop offset="0" stop-color="#fe315d"/><stop offset=".08" stop-color="#cb417e"/><stop offset=".16" stop-color="#9e4e9b"/><stop offset=".25" stop-color="#755bb4"/><stop offset=".34" stop-color="#5365ca"/><stop offset=".44" stop-color="#386ddb"/><stop offset=".54" stop-color="#2374e9"/><stop offset=".66" stop-color="#1478f3"/><stop offset=".79" stop-color="#0b7bf8"/><stop offset="1" stop-color="#087cfa"/></linearGradient><path fill="url(#c)" d="m1443 240.8-125.3 147.7-57.2-185.7 54.6-65.5z"/><linearGradient id="d" gradientUnits="userSpaceOnUse" x1="23.278" y1="870.102" x2="28.639" y2="863.124" gradientTransform="matrix(49.1 0 0 -62.4 -48.1 54521.8)"><stop offset="0" stop-color="#fe315d"/><stop offset=".04" stop-color="#f63462"/><stop offset=".1" stop-color="#df3a71"/><stop offset=".17" stop-color="#c24383"/><stop offset=".29" stop-color="#ad4a91"/><stop offset=".55" stop-color="#755bb4"/><stop offset=".92" stop-color="#1d76ed"/><stop offset="1" stop-color="#087cfa"/></linearGradient><path fill="url(#d)" d="m1229.7 472.1-164.5 59.7 26.3-92.5 34.1-114.4-93.8-31.5 59.7-162.5 128.5 15.4 127.3 145.2z"/><path d="M1108.9 208h257v257h-257z"/><path d="M1133.3 416.8h96.4v16.1h-96.4zm68.7-156.1v-19.3h-52.7v19.3h14.8v67.4h-14.8v20h52.7v-20h-14.7v-67.4zm51.4 88.7c-7.3.3-14.6-1.2-21.2-4.5-5.4-3-10.2-6.9-14.1-11.6l14.8-16.7c2.7 2.9 5.7 5.5 9 7.7 3.1 1.8 6.7 2.7 10.3 2.6 4 .3 7.8-1.4 10.3-4.5 3-3.8 4.4-8.7 3.9-13.5v-68.8h23.8v69.4c.2 5.7-.6 11.4-2.6 16.7-1.7 5.4-4.8 10.3-9 14.1-7.4 5.5-16.1 8.6-25.2 9.1" fill="#fff"/><path class="st6" d="M405 256.2h555v69.6H405v-69.6z"/><path d="M405 310.4h555V673H405V310.4z" fill="#46535c"/><path class="st6" d="M509.1 500.6h52v19.5h-52v-19.5zm156.1-78h-69.4v19.5h69.4v-19.5zm-104.1-58.5h104.1v-19.5H561.1v19.5zm242.8 97.5H665.2v19.5H804v-19.5zm0-78H578.4v19.5h225.5v-19.5zm-260.1-39H439.7v19.5h104.1v-19.5zm104 117H509.1v19.5h138.8v-19.5zm-86.7-78h-86.7v19.5h86.7v-19.5zm17.3 136.6h346.9v-19.5H578.4v19.5zm69.4 78h17.3v-19.5h-17.3v19.5zm34.7 0h69.4v-19.5h-69.4v19.5zm138.8-214.6v19.5h17.3v-19.5h-17.3zm-312.2 58.5h69.4v-19.5h-69.4v19.5zm34.7 117.1h86.7v-19.5h-86.7v19.5zm-34.7 78h52v-19.5h-52v19.5zm34.7-39h86.7v-19.5h-86.7v19.5zM892.5 544h-51.3v112.8h82v-82L892.5 544zm16.4 30.8h-16.4v-16.4l16.4 16.4zm4.1 71.8h-61.5v-92.3h30.8V585H913v61.6z"/></svg>