<svg xmlns="http://www.w3.org/2000/svg" xmlns:xlink="http://www.w3.org/1999/xlink" viewBox="0 0 1920 673" xml:space="preserve"><style>.st0{fill:#1575ed}.st1{fill:#0760da}.st2{fill:#1367e3}.st3{fill:#0a56d1}.st4{fill:#0a57d5}.st5{fill:#104ecb}.st6{fill:#1a4dc4}.st8{fill:#2666a4}.st28{fill:#3f529e}</style><path class="st0" d="M0 568.7h1920V673H0z"/><path class="st1" d="M0 473.9h1920v104.3H0z"/><path class="st2" d="M0 379.2h1920v104.3H0z"/><path class="st3" d="M0 284.4h1920v104.3H0z"/><path class="st4" d="M0 189.6h1920v104.3H0z"/><path class="st5" d="M0 94.8h1920v104.3H0z"/><path class="st6" d="M0 0h1920v104.3H0z"/><defs><path id="a" d="M1212.9 112.8c-.9-3.6-2.4-7-4.2-10.2-2.2-3.8-5.1-7.3-8.4-10.2-7.2-6.3-16.6-10.2-26.8-10.2h-427c-10.3 0-19.6 3.9-26.8 10.2-3.3 2.9-6.1 6.3-8.4 10.2-1.8 3.2-3.3 6.6-4.2 10.2-.8 3.3-1.3 6.7-1.3 10.2v427c0 3.5.5 6.9 1.3 10.2.9 3.6 2.4 7 4.2 10.2 2.2 3.8 5.1 7.3 8.4 10.2 7.2 6.3 16.6 10.2 26.8 10.2h427c10.3 0 19.6-3.9 26.8-10.2 3.3-2.9 6.1-6.3 8.4-10.2 1.8-3.2 3.3-6.6 4.2-10.2.8-3.3 1.3-6.7 1.3-10.2V123c0-3.5-.5-6.9-1.3-10.2z"/></defs><clipPath id="b"><use xlink:href="#a" overflow="visible"/></clipPath><g clip-path="url(#b)"><path class="st8" d="M705.8 579.5h508.4v11.2H705.8z"/><path fill="#1e629b" d="M705.8 569.3h508.4v11.2H705.8z"/><path fill="#165b93" d="M705.8 559.2h508.4v11.2H705.8z"/><path class="st8" d="M705.8 549h508.4v11.2H705.8z"/><path fill="#074e94" d="M705.8 538.8h508.4V550H705.8z"/><path fill="#1360ad" d="M705.8 528.7h508.4v11.2H705.8z"/><path fill="#0b62b8" d="M705.8 518.5h508.4v11.2H705.8z"/><path fill="#0f71d1" d="M705.8 508.3h508.4v11.2H705.8z"/><path fill="#0c77e0" d="M705.8 498.2h508.4v11.2H705.8z"/><path fill="#0d7eed" d="M705.8 488h508.4v11.2H705.8z"/><path fill="#0d7ff0" d="M705.8 477.8h508.4V489H705.8z"/><path fill="#0c7def" d="M705.8 467.7h508.4v11.2H705.8z"/><path fill="#1182f3" d="M705.8 457.5h508.4v11.2H705.8z"/><path fill="#0b7ced" d="M705.8 447.3h508.4v11.2H705.8z"/><path fill="#1484f5" d="M705.8 437.2h508.4v11.2H705.8z"/><path fill="#0773e6" d="M705.8 427h508.4v11.2H705.8z"/><path fill="#167ff3" d="M705.8 416.8h508.4V428H705.8z"/><path fill="#066be0" d="M705.8 406.7h508.4v11.2H705.8z"/><path class="st0" d="M705.8 396.5h508.4v11.2H705.8z"/><path class="st1" d="M705.8 386.3h508.4v11.2H705.8z"/><path class="st2" d="M705.8 376.2h508.4v11.2H705.8z"/><path class="st3" d="M705.8 366h508.4v11.2H705.8z"/><path class="st4" d="M705.8 355.8h508.4V367H705.8z"/><path class="st5" d="M705.8 345.7h508.4v11.2H705.8z"/><path class="st6" d="M705.8 335.5h508.4v11.2H705.8z"/><path fill="#204bb7" d="M705.8 325.3h508.4v11.2H705.8z"/><path fill="#2746a4" d="M705.8 315.1h508.4v11.2H705.8z"/><path fill="#374fa6" d="M705.8 305h508.4v11.2H705.8z"/><path class="st28" d="M705.8 294.8h508.4V306H705.8z"/><path class="st28" d="M705.8 284.6h508.4v11.2H705.8z"/><path class="st28" d="M705.8 274.5h508.4v11.2H705.8z"/><path fill="#5862a1" d="M705.8 264.3h508.4v11.2H705.8z"/><path fill="#6a70a6" d="M705.8 254.1h508.4v11.2H705.8z"/><path fill="#7376a1" d="M705.8 244h508.4v11.2H705.8z"/><path fill="#8486a6" d="M705.8 233.8h508.4V245H705.8z"/><path fill="#8f90a7" d="M705.8 223.6h508.4v11.2H705.8z"/><path fill="#9e9eae" d="M705.8 213.5h508.4v11.2H705.8z"/><path fill="#ababb4" d="M705.8 203.3h508.4v11.2H705.8z"/><path fill="#b9b9bf" d="M705.8 193.1h508.4v11.2H705.8z"/><path fill="#c4c4c9" d="M705.8 183h508.4v11.2H705.8z"/><path fill="#cacacc" d="M705.8 172.8h508.4V184H705.8z"/><path fill="#ceced3" d="M705.8 162.6h508.4v11.2H705.8z"/><path fill="#d2d2dd" d="M705.8 152.5h508.4v11.2H705.8z"/><path fill="#c4c4d8" d="M705.8 142.3h508.4v11.2H705.8z"/><path fill="#acaccd" d="M705.8 132.1h508.4v11.2H705.8z"/><path fill="#9090be" d="M705.8 122h508.4v11.2H705.8z"/><path fill="#6a6aa5" d="M705.8 111.8h508.4V123H705.8z"/><path fill="#444486" d="M705.8 101.6h508.4v11.2H705.8z"/><path fill="#3b3b7a" d="M705.8 91.5h508.4v11.2H705.8z"/><path fill="#2f2f68" d="M705.8 82.3h508.4v10.2H705.8z"/></g><path d="M758.6 167.9h53.7c12.1 0 21.3.9 27.7 2.8 8.5 2.5 15.8 7 21.9 13.4 6.1 6.4 10.7 14.3 13.9 23.6 3.2 9.3 4.8 20.7 4.8 34.4 0 12-1.5 22.3-4.5 30.9-3.6 10.6-8.8 19.1-15.6 25.7-5.1 5-12 8.8-20.6 11.6-6.5 2.1-15.1 3.1-26 3.1h-55.3V167.9zm29.3 24.6v96.3h21.9c8.2 0 14.1-.5 17.8-1.4 4.8-1.2 8.7-3.2 11.9-6.1 3.1-2.8 5.7-7.5 7.7-14s3-15.4 3-26.6c0-11.2-1-19.9-3-25.9s-4.8-10.7-8.3-14.1c-3.6-3.4-8.1-5.7-13.6-6.8-4.1-.9-12.1-1.4-24.1-1.4h-13.3zm117.5 120.9V167.9h107.8v24.6h-78.5v32.2h73v24.5h-73v39.6h81.2v24.5H905.4zm172.6 0L1026 168h31.8l36.8 107.6 35.6-107.6h31.1l-52.1 145.4H1078z" fill="#fff"/><path d="m854 468.6 35.6 11.3c-5.5 19.9-14.5 34.6-27.2 44.2-12.7 9.6-28.8 14.5-48.3 14.5-24.2 0-44-8.3-59.6-24.8-15.6-16.5-23.3-39.1-23.3-67.7 0-30.3 7.8-53.8 23.5-70.6 15.6-16.8 36.2-25.1 61.7-25.1 22.3 0 40.3 6.6 54.2 19.7 8.3 7.8 14.5 18.9 18.6 33.5l-36.4 8.7c-2.2-9.4-6.6-16.9-13.5-22.3s-15.1-8.2-24.9-8.2c-13.5 0-24.4 4.8-32.8 14.5-8.4 9.7-12.6 25.4-12.6 47 0 23 4.1 39.4 12.4 49.1 8.3 9.8 19 14.6 32.3 14.6 9.8 0 18.2-3.1 25.2-9.3 7-6 12-15.7 15.1-29.1zm106.9 40.8v-47.3h-47.7v-32.6h47.7v-47.3h31.8v47.3h47.8v32.6h-47.8v47.3h-31.8zm148.4 0v-47.3h-47.7v-32.6h47.7v-47.3h31.8v47.3h47.8v32.6h-47.8v47.3h-31.8z" fill="#042549"/><path d="M1173.5 92.5c16.8 0 30.5 13.7 30.5 30.5v427c0 16.8-13.7 30.5-30.5 30.5h-427c-16.8 0-30.5-13.7-30.5-30.5V123c0-16.8 13.7-30.5 30.5-30.5h427m0-10.2h-427c-22.4 0-40.7 18.3-40.7 40.7v427c0 22.4 18.3 40.7 40.7 40.7h427c22.4 0 40.7-18.3 40.7-40.7V123c0-22.4-18.3-40.7-40.7-40.7z" fill="#1b1b1b"/><path d="M1377.1 448.9v15.8h-31.5v-31.5h15.8v-15.8h-94.5v173.3h126V448.9h-15.8zm0 126h-94.5V433.1h47.3v47.3h47.3v94.5zm-15.7-126v-15.8h15.8v15.8h-15.8z" fill="#f0f2f4"/></svg>