<svg xmlns="http://www.w3.org/2000/svg" viewBox="0 0 1920 673" xml:space="preserve"><style>.st1{fill:#409936}.st2{fill:#5aba53}</style><path fill="#4aa842" d="M0 0h1920v673H0z"/><path class="st1" d="M764.1 103.9c-6.8 5.7-7.6 15.8-1.9 22.6 3.2 3.8 7.7 5.7 12.2 5.7 3.6 0 7.3-1.2 10.3-3.8 6.8-5.7 7.6-15.8 1.9-22.5-5.6-6.8-15.7-7.7-22.5-2zM663.7 667c4.2-.1 8.5-1.8 11.6-5.1 6.1-6.4 5.8-16.6-.7-22.6-6.4-6.1-16.6-5.8-22.6.7-6.1 6.4-5.8 16.6.7 22.6 3.1 2.9 7 4.4 11 4.4zm38.7-547c3.1 2.8 7 4.3 10.9 4.3 4.3 0 8.6-1.7 11.7-5.1 6-6.5 5.6-16.6-.9-22.6s-16.6-5.6-22.6.9c-5.9 6.4-5.5 16.5.9 22.5zm37.7-58.4c-6.9 5.5-8 15.6-2.5 22.5 3.2 3.9 7.8 6 12.5 6 3.5 0 7-1.2 10-3.5 6.9-5.5 8-15.6 2.5-22.5-5.6-6.9-15.6-8.1-22.5-2.5zM716 19.5c-7 5.4-8.3 15.4-2.9 22.4 3.2 4.1 7.9 6.2 12.7 6.2 3.4 0 6.8-1.1 9.8-3.3 7-5.4 8.3-15.4 2.9-22.4-5.5-7-15.5-8.3-22.5-2.9zm-73.7 73.9c-5.4 7-4 17.1 3 22.4 2.9 2.2 6.3 3.3 9.7 3.3 4.8 0 9.6-2.2 12.7-6.3 5.3-7 4-17-3-22.4s-17-4.1-22.4 3zM676.8 54c-6.2 6.3-6.2 16.4 0 22.6 3.1 3.1 7.2 4.7 11.3 4.7s8.2-1.6 11.3-4.7c6.2-6.3 6.2-16.4 0-22.6-6.4-6.2-16.5-6.2-22.6 0zm335.5-17.1c-8.8-1.4-17.1 4.4-18.6 13.1s4.3 17 13 18.5c.9.2 1.8.2 2.8.2 7.6 0 14.4-5.5 15.8-13.3 1.5-8.7-4.3-17-13-18.5zm-377.2 94c-7.6-4.4-17.4-1.8-21.9 5.9-4.4 7.7-1.8 17.5 5.9 21.9 2.5 1.4 5.3 2.1 8 2.1 5.5 0 10.9-2.9 13.9-8 4.5-7.7 1.8-17.4-5.9-21.9zm245.3-37.8c-8.4 2.7-13 11.8-10.2 20.2 2.2 6.8 8.5 11 15.2 11 1.6 0 3.3-.3 5-.8 8.4-2.7 13-11.8 10.3-20.2-2.9-8.4-11.9-13-20.3-10.2zm13.2-37.3c1.4 7.8 8.1 13.2 15.7 13.2.9 0 1.9-.1 2.8-.3 8.7-1.5 14.5-9.8 13-18.5-1.5-8.8-9.8-14.6-18.5-13-8.7 1.5-14.5 9.8-13 18.6zM783.5 31.9c-7.6 4.4-10.2 14.2-5.8 21.9 3 5.1 8.3 8 13.9 8 2.7 0 5.5-.7 8-2.2 7.6-4.4 10.2-14.2 5.8-21.9s-14.2-10.3-21.9-5.8zM968.5.2c-.6 8.8 6 16.5 14.8 17.1h1.2c8.3 0 15.3-6.4 15.9-14.9.1-.8 0-1.6 0-2.4h-31.8c0 .1 0 .1-.1.2zm-50.3 2.5c.6 8.4 7.7 14.8 15.9 14.8h1.2c8.8-.7 15.4-8.4 14.8-17.2V0h-31.8c-.1.9-.1 1.8-.1 2.7zM807.5 73.4c-7.6 4.4-10.2 14.2-5.8 21.9 3 5.1 8.3 8 13.8 8 2.7 0 5.5-.7 8-2.2 7.7-4.4 10.2-14.2 5.8-21.9-4.3-7.6-14.1-10.2-21.8-5.8zm23.4-64.5c-8.2 3.2-12.3 12.5-9 20.8 2.5 6.3 8.5 10.1 14.9 10.1 2 0 3.9-.4 5.9-1.1 8.2-3.2 12.3-12.5 9-20.8-3.3-8.2-12.6-12.2-20.8-9zm24.5 42c-8.3 3-12.6 12.2-9.5 20.5 2.4 6.5 8.5 10.5 15 10.5 1.8 0 3.7-.3 5.5-1 8.3-3 12.6-12.2 9.5-20.5-3-8.2-12.2-12.5-20.5-9.5zM652 11c-6.3 6.1-6.6 16.2-.6 22.6 3.1 3.3 7.4 5 11.6 5 3.9 0 7.9-1.5 11-4.4 6.4-6.1 6.7-16.2.6-22.6-6.1-6.4-16.2-6.7-22.6-.6zM539.5 452.6c1.2 0 2.5-.1 3.7-.4 8.6-2 13.9-10.7 11.9-19.3-2-8.6-10.7-13.9-19.3-11.9S522 431.7 524 440.3c1.8 7.3 8.4 12.3 15.5 12.3zm14.5 48.1c1.8 0 3.7-.3 5.5-1 8.3-3 12.6-12.2 9.5-20.5-3-8.3-12.2-12.6-20.5-9.5s-12.6 12.2-9.5 20.5c2.3 6.4 8.4 10.5 15 10.5zm19.9 46.1c2.4 0 4.9-.5 7.2-1.7 7.9-4 11.1-13.6 7.1-21.5s-13.6-11.1-21.5-7.1-11.1 13.6-7.1 21.5c2.9 5.5 8.5 8.8 14.3 8.8zm-43.1-143.7c.6 0 1.3 0 1.9-.1 8.8-1 15.1-9 14-17.8-1-8.8-9-15.1-17.7-14-8.8 1-15.1 9-14 17.8 1 8.1 7.8 14.1 15.8 14.1zm124.7 183.4c3.3 0 6.7-1.1 9.7-3.3 7-5.4 8.3-15.4 2.9-22.4-5.4-7-15.4-8.3-22.4-2.9s-8.3 15.4-2.9 22.4c3.2 4.1 7.9 6.2 12.7 6.2z"/><circle class="st1" cx="527.9" cy="337" r="16"/><path class="st1" d="M605.2 499.8c2 0 4.1-.4 6.1-1.2 8.2-3.4 12-12.8 8.6-20.9-3.4-8.2-12.8-12-20.9-8.6-8.2 3.4-12 12.8-8.6 20.9 2.6 6.1 8.5 9.8 14.8 9.8zm22.3 45c2.7 0 5.5-.7 8-2.2 7.6-4.4 10.3-14.2 5.8-21.9-4.4-7.6-14.2-10.3-21.9-5.8-7.6 4.4-10.3 14.2-5.8 21.9 3 5.1 8.3 8 13.9 8zm-48.1-141.7c.6-.1 1.3-.1 2-.2 8.8-1.1 14.9-9.2 13.8-17.9-1.1-8.8-9.2-14.9-17.9-13.8-8.8 1.2-14.9 9.2-13.8 18 1.1 8 7.9 13.9 15.9 13.9zm9.4-149.6c7.1 0 13.5-4.7 15.4-11.9 2.3-8.5-2.8-17.3-11.3-19.6-8.6-2.2-17.3 2.9-19.6 11.4-2.3 8.5 2.8 17.3 11.4 19.6 1.5.4 2.8.5 4.1.5z"/><circle class="st1" cx="575.9" cy="336.9" r="16"/><path class="st1" d="M563.2 284.8c-1.1 8.8 5 16.8 13.8 17.9.7.1 1.4.1 2.1.1 7.9 0 14.8-5.9 15.9-14 1.1-8.8-5-16.8-13.8-17.9-8.8-1.1-16.9 5.1-18 13.9zm41.3 147.4c-2.3-8.5-11.1-13.6-19.6-11.3-8.5 2.3-13.6 11.1-11.3 19.6 1.9 7.1 8.3 11.8 15.4 11.8 1.4 0 2.8-.2 4.2-.5 8.5-2.3 13.6-11.1 11.3-19.6zm-65.9-248.5c-3 8.3 1.3 17.5 9.6 20.5 1.8.6 3.6 1 5.5 1 6.5 0 12.7-4 15-10.5 3-8.4-1.3-17.6-9.6-20.6s-17.5 1.3-20.5 9.6zM514.8 285c-1 8.8 5.3 16.7 14.1 17.7.6.1 1.2.1 1.8.1 8 0 14.9-6 15.9-14.2 1-8.8-5.3-16.7-14.1-17.7-8.7-1-16.7 5.3-17.7 14.1zM589 452.3zm-8.2-323.6c-7.9-3.9-17.5-.8-21.5 7.1-4 7.9-.8 17.5 7.1 21.5 2.3 1.2 4.8 1.7 7.2 1.7 5.9 0 11.5-3.2 14.3-8.8 3.9-7.9.7-17.5-7.1-21.5zm121.6-8.7zm175.5 390.9c4.4-7.7 1.8-17.4-5.9-21.9-7.7-4.4-17.4-1.8-21.9 5.9-4.4 7.6-1.8 17.4 5.8 21.9 2.5 1.5 5.3 2.2 8 2.2 5.6-.1 11-3 14-8.1z"/><circle class="st1" cx="960.1" cy="624.5" r="16"/><path class="st1" d="M1140.1 440.5c4.5-7.7 1.9-17.4-5.8-21.9-7.7-4.4-17.4-1.8-21.9 5.8-4.4 7.6-1.8 17.4 5.8 21.9 2.5 1.5 5.3 2.2 8 2.2 5.5 0 10.9-2.9 13.9-8zm-238.2 28.8c4.4-7.7 1.8-17.4-5.9-21.9-7.6-4.4-17.4-1.8-21.9 5.8-4.4 7.7-1.8 17.5 5.9 21.9 2.5 1.5 5.3 2.2 8 2.2 5.5 0 10.9-2.9 13.9-8zm4.3 68.1c1.4.5 2.8.6 4.1.6 7.1 0 13.5-4.7 15.5-11.9 2.3-8.5-2.8-17.3-11.3-19.6-8.5-2.3-17.3 2.8-19.6 11.3s2.8 17.3 11.3 19.6zm200.8-53.9c6.3-6.3 6.2-16.4 0-22.6-6.3-6.3-16.4-6.3-22.6 0s-6.3 16.4 0 22.6c3.1 3.1 7.2 4.7 11.3 4.7 4.1 0 8.2-1.5 11.3-4.7zm13.5 47.3c3.8 0 7.7-1.4 10.7-4.1 6.6-5.9 7.1-16 1.2-22.6s-16-7.1-22.6-1.2-7.1 16-1.2 22.6c3.2 3.5 7.6 5.3 11.9 5.3zm-64.5-12c2.7 0 5.5-.7 8-2.2 7.6-4.4 10.3-14.2 5.8-21.9-4.4-7.7-14.2-10.3-21.9-5.8s-10.3 14.2-5.8 21.9c3 5.1 8.3 8 13.9 8zm24 41.5c2.7 0 5.5-.7 8-2.2 7.7-4.4 10.3-14.2 5.8-21.9-4.4-7.6-14.2-10.3-21.9-5.8-7.6 4.4-10.3 14.2-5.8 21.9 3 5.2 8.4 8 13.9 8zm-40-85.3c7.7-4.4 10.3-14.2 5.8-21.9-4.4-7.6-14.2-10.3-21.9-5.8-7.7 4.4-10.3 14.2-5.8 21.9 3 5.1 8.3 8 13.9 8 2.7 0 5.5-.7 8-2.2zm-357.6 67c3.1 0 6.3-.9 9-2.8 7.3-5 9.2-15 4.2-22.2-5-7.3-15-9.2-22.2-4.2s-9.2 15-4.2 22.2c3.1 4.5 8.1 7 13.2 7zm-25.2-43.4c2.3 0 4.7-.5 7-1.6 8-3.8 11.3-13.4 7.4-21.4-3.9-8-13.4-11.3-21.4-7.4-7.9 3.8-11.3 13.4-7.4 21.4 2.8 5.7 8.5 9 14.4 9zm53.4-1.8c2.7 0 5.5-.7 8-2.2 7.6-4.4 10.3-14.2 5.8-21.9-4.4-7.6-14.2-10.3-21.9-5.8-7.6 4.4-10.3 14.2-5.8 21.9 3 5.1 8.4 8 13.9 8zm-71.8-44.9c1.6 0 3.2-.2 4.7-.7 8.5-2.6 13.2-11.6 10.6-20-2.6-8.4-11.6-13.2-20-10.6s-13.2 11.6-10.6 20c2.2 6.9 8.5 11.3 15.3 11.3zM832 558.3c2.5 1.5 5.3 2.2 8 2.2 5.5 0 10.9-2.9 13.9-8 4.4-7.7 1.8-17.4-5.9-21.9-7.6-4.4-17.4-1.8-21.9 5.9-4.4 7.6-1.7 17.4 5.9 21.8zm3.6-74.6c6.2-6.3 6.2-16.4 0-22.6-6.3-6.3-16.4-6.2-22.6 0-6.3 6.3-6.2 16.4 0 22.6 3.1 3.1 7.2 4.7 11.3 4.7 4 0 8.1-1.6 11.3-4.7zm-41.8-35c2.7 0 5.5-.7 8-2.2 7.6-4.4 10.3-14.2 5.8-21.9-4.4-7.6-14.2-10.3-21.9-5.8-7.6 4.5-10.2 14.2-5.8 21.9 2.9 5.1 8.2 8 13.9 8zm-18.6 42c7.1-5.2 8.7-15.2 3.5-22.4-5.2-7.1-15.2-8.7-22.4-3.5-7 5.2-8.6 15.2-3.4 22.4 3.1 4.3 8 6.6 12.9 6.6 3.3 0 6.6-1 9.4-3.1zm369.4-.3c2.8 2.1 6.1 3.1 9.4 3.1 5 0 9.9-2.2 13-6.5 5.2-7.2 3.6-17.2-3.5-22.4-7.2-5.2-17.2-3.6-22.4 3.5-5.2 7.1-3.6 17.2 3.5 22.3zm-12.3-385.2c-5.7 6.8-4.8 16.9 2 22.5 3 2.5 6.6 3.7 10.3 3.7 4.6 0 9.1-1.9 12.3-5.7 5.6-6.7 4.7-16.8-2.1-22.5-6.8-5.7-16.9-4.8-22.5 2zm87.4-52c-6.2 6.3-6.2 16.4 0 22.6 3.1 3.1 7.2 4.7 11.3 4.7 4.1 0 8.2-1.6 11.3-4.7 6.2-6.3 6.2-16.4 0-22.6-6.2-6.3-16.5-6.3-22.6 0zm-201.2 49.9c-2.7 8.4 1.9 17.4 10.3 20.1 1.6.5 3.3.8 4.9.8 6.8 0 13-4.3 15.2-11.1 2.7-8.3-1.9-17.4-10.3-20.1-8.4-2.7-17.4 1.9-20.1 10.3zm116.9-71.7c-7.7-4.5-17.4-1.9-21.9 5.8-4.4 7.7-1.8 17.4 5.9 21.9 2.5 1.5 5.3 2.1 8 2.1 5.5 0 10.9-2.9 13.9-8 4.4-7.7 1.8-17.4-5.9-21.8zm21 32.1c-5.5 6.9-4.4 17 2.5 22.5 3 2.3 6.5 3.5 10 3.5 4.7 0 9.4-2.1 12.5-6 5.6-7 4.4-17.1-2.5-22.6s-17-4.4-22.5 2.6zm-113.6-3.4c-3 8.3 1.3 17.5 9.6 20.5 1.8.7 3.6 1 5.4 1 6.6 0 12.7-4 15.1-10.6 3-8.3-1.3-17.5-9.6-20.5-8.3-3-17.5 1.3-20.5 9.6zm46.7 18.7c-4.4 7.7-1.8 17.4 5.9 21.9 2.5 1.5 5.3 2.1 8 2.1 5.5 0 10.9-2.9 13.9-8 4.4-7.7 1.8-17.4-5.9-21.9s-17.4-1.8-21.9 5.9zm-1.4-70.3c-8.2-3.2-17.5.8-20.7 9.1-3.2 8.2.8 17.5 9.1 20.7 1.9.8 3.9 1.1 5.8 1.1 6.4 0 12.4-3.9 14.9-10.2 3.1-8.2-.9-17.5-9.1-20.7zM1195 95.8c-6.5 6-6.8 16.1-.8 22.6 3.2 3.4 7.4 5.1 11.7 5.1 3.9 0 7.8-1.4 10.9-4.3 6.5-6 6.8-16.1.8-22.6s-16.1-6.8-22.6-.8zm6.3 398.5c2.5 1.5 5.3 2.2 8 2.2 5.6 0 11-2.9 13.9-8 4.4-7.6 1.8-17.4-5.8-21.9-7.7-4.4-17.4-1.8-21.9 5.8-4.4 7.6-1.8 17.4 5.8 21.9zm27.4 44.7c2.8 1.9 5.9 2.8 9 2.8 5.1 0 10.1-2.5 13.2-7 5-7.3 3.1-17.3-4.2-22.2-7.3-5-17.3-3.1-22.2 4.2-5 7.3-3.1 17.3 4.2 22.2zm34.1-40.7c6 0 11.7-3.3 14.4-9.1 3.8-8 .5-17.5-7.5-21.4s-17.5-.5-21.4 7.5c-3.7 8-.4 17.5 7.6 21.4 2.1 1.1 4.5 1.6 6.9 1.6zm-92.5 35.5c3 2.5 6.7 3.8 10.3 3.8 4.5 0 9.1-2 12.2-5.7 5.7-6.8 4.8-16.9-2-22.6s-16.9-4.8-22.5 2c-5.6 6.8-4.8 16.9 2 22.5zm141.6-197.7v-.4c0-8.8-7.2-16-16-16s-16 7.2-16 16v.7c0 8.8 7.2 16 16 16s16-7.2 16-16v-.3zm-57.5-246.6c-7 5.4-8.3 15.5-2.9 22.4 3.2 4.1 7.9 6.2 12.7 6.2 3.4 0 6.8-1.1 9.8-3.3 7-5.4 8.3-15.4 2.9-22.4-5.5-7-15.5-8.3-22.5-2.9zm-10.1-78.7c-6 6.4-5.7 16.6.7 22.6 3.1 2.9 7 4.4 10.9 4.4 4.3 0 8.5-1.7 11.7-5 6-6.4 5.8-16.6-.7-22.6-6.6-6.2-16.6-5.8-22.6.6zm39.8 119.2c-7.6 4.4-10.2 14.2-5.8 21.9 3 5.1 8.3 8 13.9 8 2.7 0 5.5-.7 8-2.2 7.6-4.4 10.2-14.2 5.8-21.9-4.5-7.7-14.3-10.3-21.9-5.8zm83.2-48.1c-7.6 4.4-10.2 14.2-5.8 21.9 3 5.1 8.3 8 13.9 8 2.7 0 5.5-.7 8-2.2 7.6-4.4 10.2-14.2 5.8-21.9-4.5-7.7-14.4-10.3-21.9-5.8zM607.9 587.6c7.4-4.9 9.4-14.8 4.5-22.2-4.9-7.4-14.8-9.4-22.2-4.5s-9.4 14.8-4.5 22.2c3.1 4.6 8.2 7.1 13.4 7.1 3 0 6.1-.9 8.8-2.6zM506.4 135.2c-3.6 8.1 0 17.5 8.1 21.1 2.1.9 4.3 1.4 6.5 1.4 6.1 0 12-3.5 14.6-9.5 3.6-8.1 0-17.5-8.1-21.1-8-3.6-17.5.1-21.1 8.1zm-39.9 150c-.9 8.8 5.5 16.6 14.3 17.6.6.1 1.1.1 1.7.1 8.1 0 15-6.1 15.9-14.4.9-8.8-5.5-16.6-14.3-17.5-8.8-1-16.7 5.4-17.6 14.2zm21.4-101.4c-2.7 8.3 1.9 17.4 10.3 20.1 1.6.5 3.3.8 4.9.8 6.8 0 13-4.3 15.2-11.1 2.7-8.4-1.9-17.4-10.3-20.1-8.4-2.7-17.4 1.9-20.1 10.3z"/><circle class="st1" cx="479.9" cy="337" r="16"/><path class="st1" d="M490.4 452.8c1.1 0 2.2-.1 3.3-.3 8.6-1.8 14.2-10.3 12.3-19-1.8-8.6-10.3-14.2-19-12.3-8.6 1.8-14.2 10.3-12.3 19 1.6 7.4 8.3 12.6 15.7 12.6zm54 140.1c2.7 0 5.5-.7 8-2.2 7.6-4.4 10.3-14.2 5.8-21.9-4.4-7.6-14.2-10.3-21.9-5.8-7.6 4.5-10.3 14.2-5.8 21.9 3 5.1 8.3 8 13.9 8zm27.4 42.1c3.3 0 6.6-1 9.5-3.1 7.1-5.2 8.7-15.2 3.5-22.4-5.2-7.1-15.2-8.7-22.4-3.5-7.1 5.2-8.7 15.2-3.5 22.4 3 4.3 7.9 6.6 12.9 6.6zm-50.3-86.8c2.2 0 4.4-.5 6.5-1.4 8.1-3.6 11.7-13.1 8.1-21.1-3.6-8.1-13.1-11.7-21.1-8.1-8.1 3.6-11.7 13.1-8.1 21.1 2.6 5.9 8.4 9.5 14.6 9.5zm-39-145c.6 0 1.1 0 1.7-.1 8.8-.9 15.2-8.8 14.2-17.6-.9-8.8-8.8-15.2-17.6-14.3s-15.2 8.8-14.2 17.6c.9 8.2 7.8 14.4 15.9 14.4zM529.9 89c-4.4 7.6-1.8 17.4 5.9 21.9 2.5 1.5 5.3 2.1 8 2.1 5.5 0 10.9-2.9 13.9-8 4.4-7.7 1.8-17.5-5.9-21.9s-17.4-1.8-21.9 5.9zM701.5 6.3c3.3 0 6.7-1 9.6-3.2 1.2-.9 2.2-2 3.1-3.1h-25.4c3.1 4.1 7.9 6.3 12.7 6.3zm317-1.1c-1.9 8.6 3.5 17.2 12.1 19.1 1.2.3 2.4.4 3.5.4 7.3 0 13.9-5 15.6-12.5 1-4.4 0-8.7-2.2-12.2h-26.8c-1 1.5-1.7 3.3-2.2 5.2zm189.3-2.8c2.9 2.1 6.2 3.2 9.5 3.2 4.5 0 9-1.9 12.1-5.6h-24.2c.7.9 1.6 1.7 2.6 2.4zM869 12.6c1.7 7.4 8.3 12.4 15.6 12.4 1.2 0 2.4-.1 3.6-.4 8.6-2 14-10.6 12-19.2-.5-2-1.3-3.8-2.4-5.4h-26.5C869 3.5 868 8 869 12.6zM616.4 48.9c-5.7 6.8-4.8 16.9 2 22.5 3 2.5 6.6 3.7 10.3 3.7 4.6 0 9.1-1.9 12.3-5.7 5.6-6.7 4.7-16.8-2.1-22.5s-16.9-4.8-22.5 2zm-35.8-7c-7.2-5.2-17.2-3.6-22.4 3.5-5.2 7.2-3.6 17.2 3.6 22.4 2.8 2.1 6.1 3.1 9.4 3.1 4.9 0 9.8-2.3 13-6.6 5.2-7.2 3.6-17.2-3.6-22.4zm27 44.2c-7.4-4.9-17.3-2.8-22.2 4.6-4.9 7.4-2.8 17.3 4.6 22.2 2.7 1.8 5.8 2.6 8.8 2.6 5.2 0 10.3-2.5 13.4-7.2 4.9-7.4 2.8-17.3-4.6-22.2zm821.8 508.3c5.8 0 11.4-3.2 14.2-8.7 4-7.9 1-17.5-6.9-21.6s-17.5-1-21.6 6.9c-4 7.9-1 17.5 6.9 21.6 2.5 1.2 5 1.8 7.4 1.8zm35.7-55.7c3.3-8.2-.7-17.5-8.9-20.8-8.2-3.3-17.5.7-20.8 8.9-3.3 8.2.7 17.5 8.9 20.8 2 .8 4 1.2 5.9 1.2 6.4-.1 12.4-3.9 14.9-10.1zm-69.4 96.6c2.7 1.7 5.7 2.5 8.6 2.5 5.3 0 10.4-2.6 13.5-7.3 4.7-7.4 2.6-17.3-4.8-22.1-7.4-4.8-17.3-2.6-22.1 4.8-4.8 7.4-2.6 17.3 4.8 22.1zm-695.9-15.8c6.2-6.3 6.2-16.4 0-22.6-6.3-6.3-16.4-6.2-22.6 0-6.2 6.3-6.2 16.4 0 22.6 3.2 3.1 7.3 4.7 11.3 4.7 4.1 0 8.2-1.6 11.3-4.7zm794.4-180.1c1.7-8.7-4-17.1-12.7-18.7-8.7-1.7-17.1 4-18.7 12.7-1.7 8.7 4 17.1 12.7 18.7 1 .2 2 .3 3 .3 7.5 0 14.2-5.3 15.7-13zm-865 191c3.6 0 7.3-1.2 10.3-3.8 6.8-5.7 7.6-15.8 1.9-22.5-5.7-6.8-15.8-7.6-22.5-2-6.8 5.7-7.6 15.8-1.9 22.5 3.1 3.9 7.6 5.8 12.2 5.8zm854.7-361c-8.8.9-15.2 8.7-14.4 17.5.8 8.3 7.8 14.5 15.9 14.5.5 0 1 0 1.5-.1 8.8-.9 15.2-8.7 14.4-17.5-.8-8.8-8.5-15.3-17.4-14.4zm20 66.1c0-8.9-7.2-16.1-16-16-8.8 0-16 7.2-16 16v1c0 8.8 7.2 16 16 16s16-7.2 16-16v-1zm-2.4 52.7c.8-8.8-5.6-16.6-14.4-17.4-8.8-.8-16.6 5.6-17.4 14.4-.8 8.8 5.6 16.6 14.4 17.4.5 0 1 .1 1.5.1 8.1 0 15.1-6.2 15.9-14.5zm-19.4 101.5c2.5-8.5-2.4-17.4-10.9-19.8-8.5-2.5-17.4 2.4-19.8 10.8-2.6 8.5 2.3 17.4 10.8 19.9 1.5.4 3 .6 4.5.6 6.9 0 13.3-4.5 15.4-11.5zm-581 178c2-8.6-3.5-17.2-12.1-19.1-8.6-2-17.2 3.5-19.1 12.1-1 4.4-.1 8.8 2.2 12.3h26.7c1-1.6 1.8-3.3 2.3-5.3zm149.3-7.2c-2-8.6-10.5-14-19.2-12-8.6 2-14 10.5-12 19.2.4 2 1.2 3.7 2.3 5.3h26.6c2.4-3.5 3.4-8 2.3-12.5zm-338.8 9.9c-6.9-5.1-16.4-3.9-21.8 2.6h24.5c-.7-.9-1.6-1.8-2.7-2.6zm664.2-78c5.5 0 10.9-2.9 13.9-8 4.4-7.6 1.8-17.4-5.8-21.9-7.6-4.4-17.4-1.8-21.9 5.8-4.5 7.8-1.9 17.6 5.8 22 2.5 1.5 5.3 2.1 8 2.1zm-167.4 77.7c-1.1.9-2.1 1.8-3 2.9h25c-5.3-6.7-15-8-22-2.9zm130.5-38.6c2.8 2.1 6.1 3.1 9.4 3.1 4.9 0 9.8-2.3 12.9-6.6 5.2-7.1 3.6-17.2-3.5-22.4-7.1-5.2-17.2-3.6-22.3 3.5-5.2 7.1-3.6 17.2 3.5 22.4zm-35.6-7c5.7-6.8 4.8-16.9-2-22.5-6.8-5.7-16.9-4.8-22.5 2-5.8 6.6-4.9 16.7 1.9 22.4 3 2.5 6.7 3.8 10.3 3.8 4.5 0 9-1.9 12.3-5.7zm8.8-37.3c2.7 1.8 5.8 2.6 8.8 2.6 5.2.1 10.3-2.5 13.4-7.1 4.9-7.4 2.8-17.3-4.6-22.2-7.4-4.9-17.3-2.8-22.2 4.5-4.9 7.4-2.8 17.3 4.6 22.2zm-32-541.2c-6.8 5.7-7.6 15.8-1.9 22.6 3.2 3.8 7.7 5.7 12.2 5.7 3.6 0 7.3-1.2 10.3-3.8 6.7-5.7 7.6-15.8 1.9-22.6s-15.8-7.6-22.5-1.9zm-221.5 577.2c1.8 0 3.6-.4 5.4-1 8.3-3 12.6-12.2 9.6-20.5s-12.2-12.6-20.5-9.5c-8.3 3-12.6 12.2-9.5 20.5 2.4 6.5 8.5 10.5 15 10.5zm-57.3 47.3c-.7-8.8-8.3-15.4-17.1-14.8-8.8.7-15.4 8.3-14.8 17.2v.1h31.8c.1-.8.1-1.7.1-2.5zm110.7-70.7c7.6-4.4 10.3-14.2 5.8-21.9-4.4-7.6-14.2-10.3-21.9-5.8-7.7 4.4-10.3 14.2-5.8 21.9 3 5.1 8.3 8 13.9 8 2.7-.1 5.5-.8 8-2.2zm-161 72.9c.6-8.8-6-16.5-14.8-17.1s-16.5 6-17.1 14.8c-.1.9 0 1.7.1 2.6H951c-.1-.1-.1-.2 0-.3zm-43.6-36.8c.9.2 1.8.3 2.7.3 7.6 0 14.4-5.5 15.8-13.3 1.5-8.7-4.3-17-13-18.5s-17 4.3-18.5 13 4.3 17 13 18.5zm220.6 7.6c2.7 0 5.5-.7 8-2.2 7.6-4.4 10.3-14.2 5.8-21.9-4.4-7.7-14.2-10.3-21.9-5.8s-10.3 14.2-5.8 21.9c3 5.1 8.4 8 13.9 8zm41.4-28.3c3.6 0 7.1-1.2 10-3.5 6.9-5.5 8-15.6 2.5-22.5s-15.6-8-22.5-2.5-8 15.6-2.5 22.5c3.2 4 7.8 6 12.5 6zm-14-45.9c6.8-5.7 7.6-15.8 2-22.5-5.7-6.8-15.8-7.6-22.5-2-6.8 5.7-7.6 15.8-2 22.5 3.1 3.8 7.6 5.8 12.2 5.8 3.6 0 7.3-1.2 10.3-3.8zm-293.8 54c6.5 0 12.7-4 15-10.5 3-8.3-1.3-17.5-9.6-20.5s-17.5 1.3-20.5 9.6c-3 8.3 1.3 17.5 9.6 20.5 1.8.6 3.7.9 5.5.9zm-98.5-14c5.5-6.9 4.4-17-2.5-22.5s-17-4.4-22.5 2.5-4.4 17 2.5 22.5c2.9 2.4 6.5 3.5 10 3.5 4.7 0 9.4-2.1 12.5-6zM716.6 654c2.9 2.2 6.3 3.3 9.7 3.3 4.8 0 9.6-2.2 12.7-6.3 5.4-7 4.1-17.1-2.9-22.4-7-5.4-17.1-4.1-22.4 2.9-5.5 7.1-4.1 17.1 2.9 22.5zm70.7-86.5c5.7-6.8 4.8-16.9-2-22.5-6.8-5.7-16.9-4.8-22.5 2-5.8 6.8-4.9 16.9 1.9 22.5 3 2.5 6.6 3.7 10.3 3.7 4.6 0 9.1-2 12.3-5.7zm-62.7 9.4c6.5-6 6.8-16.1.8-22.6s-16.1-6.8-22.6-.8c-6.4 6-6.8 16.1-.8 22.6 3.2 3.4 7.4 5.1 11.7 5.1 3.9 0 7.8-1.4 10.9-4.3zm91.5 25.2c5.5 0 10.9-2.9 13.9-8 4.4-7.6 1.8-17.4-5.9-21.8s-17.4-1.8-21.9 5.8c-4.4 7.7-1.8 17.4 5.9 21.9 2.5 1.4 5.2 2.1 8 2.1zm15.4 62.2c1.9.8 3.9 1.1 5.8 1.1 6.4 0 12.4-3.8 14.9-10.2 3.2-8.2-.8-17.5-9.1-20.7-8.2-3.2-17.5.8-20.7 9.1-3.1 8.2 1 17.5 9.1 20.7zm362.3-7.1c3.3-.1 6.8-1.2 9.7-3.4 7-5.4 8.3-15.4 2.9-22.4s-15.4-8.3-22.4-2.9-8.3 15.4-2.9 22.4c3.2 4.1 8 6.3 12.7 6.3zm-409.9-15.8c2.5 1.5 5.3 2.1 8 2.1 5.7.1 11.1-2.7 14-7.9 4.4-7.6 1.8-17.4-5.9-21.9s-17.4-1.8-21.9 5.8c-4.4 7.7-1.8 17.4 5.8 21.9zM627.6 402.9c.8 0 1.6 0 2.4-.2 8.7-1.3 14.8-9.5 13.4-18.2-1.3-8.7-9.5-14.8-18.2-13.4-8.7 1.3-14.8 9.5-13.4 18.2 1.2 7.9 8.1 13.6 15.8 13.6zM1426 220.1c-8.6 1.8-14.1 10.4-12.3 19 1.6 7.5 8.3 12.7 15.6 12.7 1.1 0 2.2-.1 3.4-.4 8.6-1.8 14.1-10.3 12.3-19-1.9-8.6-10.4-14.1-19-12.3zm27.3 168.2c.9-8.8-5.5-16.7-14.3-17.6-8.8-.9-16.7 5.5-17.6 14.3-.9 8.8 5.5 16.7 14.3 17.6.6.1 1.2.1 1.7.1 8 0 15-6.2 15.9-14.4zm-42-216.3c-8.4 2.8-13 11.8-10.2 20.2 2.2 6.8 8.5 11 15.2 11 1.6 0 3.3-.3 5-.8 8.4-2.7 13-11.8 10.2-20.2-2.8-8.3-11.8-12.9-20.2-10.2zm44.6 163.5c0-8.9-7.2-16-16-16s-16 7.2-16 16v1c0 8.8 7.2 16 16 16s16-7.2 16-16v-1zm-20.4-66.1c-8.8.9-15.2 8.8-14.2 17.6.9 8.2 7.8 14.3 15.9 14.3.6 0 1.1 0 1.7-.1 8.8-.9 15.2-8.8 14.2-17.6-.9-8.7-8.8-15.1-17.6-14.2zm-97.2-228.7c-7.1 5.2-8.7 15.2-3.5 22.4 3.1 4.3 8 6.6 12.9 6.6 3.3 0 6.6-1 9.4-3.1 7.1-5.2 8.7-15.2 3.5-22.4-5-7.1-15.1-8.7-22.3-3.5zm53.3 85.1c-8.1 3.6-11.7 13.1-8 21.1 2.7 5.9 8.5 9.5 14.6 9.5 2.2 0 4.4-.4 6.5-1.4 8.1-3.6 11.7-13.1 8.1-21.1-3.7-8.1-13.1-11.7-21.2-8.1zm-79.9-40.7c-7.4 4.9-9.4 14.8-4.5 22.2 3.1 4.6 8.2 7.2 13.4 7.2 3 0 6.1-.9 8.8-2.7 7.4-4.9 9.4-14.8 4.5-22.2s-14.9-9.4-22.2-4.5zm-94.6 468.2c-6.5-6-16.6-5.6-22.6.8-6 6.5-5.6 16.6.8 22.6 3.1 2.9 7 4.3 10.9 4.3 4.3 0 8.6-1.7 11.7-5.1 6.1-6.5 5.7-16.6-.8-22.6zm39.2 113.3c3.9 0 7.9-1.4 11-4.4 6.5-5.9 6.8-16.1.7-22.5-6.1-6.4-16.2-6.7-22.6-.7-6.4 6.1-6.7 16.2-.7 22.6 3.2 3.3 7.4 5 11.6 5zm20.9-86.7c5.4-7 4.1-17.1-2.9-22.4-7-5.4-17-4.1-22.4 2.9-5.4 7.1-4.1 17.1 2.9 22.5 2.9 2.2 6.3 3.3 9.7 3.3 4.8 0 9.5-2.2 12.7-6.3zm168-140.3c1.8-8.7-3.7-17.1-12.3-19-8.6-1.8-17.1 3.7-19 12.3-1.8 8.6 3.7 17.1 12.3 19 1.1.2 2.2.4 3.3.4 7.4 0 14.1-5.2 15.7-12.7zM1231.6 624c4.1 0 8.2-1.6 11.3-4.7 6.2-6.2 6.2-16.4 0-22.6-6.3-6.3-16.4-6.3-22.6 0s-6.2 16.4 0 22.6c3 3.1 7.1 4.7 11.3 4.7zm52.8-81.7c2.5 1.5 5.3 2.2 8 2.2 5.5 0 10.9-2.9 13.9-8 4.5-7.6 1.9-17.4-5.8-21.9-7.6-4.4-17.4-1.8-21.9 5.8-4.4 7.6-1.8 17.4 5.8 21.9zm107.6 4c2.1 1 4.4 1.4 6.5 1.4 6.1 0 12-3.5 14.6-9.5 3.6-8.1 0-17.5-8.1-21.1s-17.5 0-21.1 8.1 0 17.5 8.1 21.1zm-11-56.5c3-8.3-1.3-17.5-9.6-20.5-8.3-3-17.5 1.3-20.5 9.6-3 8.2 1.3 17.4 9.6 20.4 1.8.7 3.7 1 5.5 1 6.5 0 12.7-4 15-10.5zm15-50c2-8.6-3.3-17.2-11.9-19.2s-17.2 3.3-19.2 11.9 3.3 17.2 11.9 19.3c1.2.3 2.5.4 3.7.4 7.2-.1 13.8-5.1 15.5-12.4zm-119.9-218.3c-8.4 2.6-13.2 11.6-10.5 20 2.1 6.9 8.5 11.3 15.3 11.3 1.6 0 3.2-.2 4.7-.7 8.5-2.6 13.2-11.6 10.5-20s-11.6-13.2-20-10.6zm-291 369.7zM1308.3 174c-8.1 3.4-12 12.8-8.6 20.9 2.6 6.1 8.5 9.9 14.8 9.9 2 0 4.1-.4 6.2-1.2 8.2-3.4 12-12.8 8.6-20.9-3.5-8.2-12.9-12.1-21-8.7zm-22.5 246.2c-8.5-2.6-17.4 2.1-20 10.6s2.1 17.4 10.6 20c1.6.5 3.2.7 4.7.7 6.8 0 13.1-4.4 15.3-11.3 2.6-8.4-2.1-17.4-10.6-20zm8.7-49.5c-8.7-1.3-16.9 4.7-18.2 13.5-1.3 8.7 4.7 16.9 13.5 18.2.8.1 1.6.2 2.4.2 7.8 0 14.6-5.7 15.8-13.7 1.3-8.7-4.7-16.9-13.5-18.2zm-269.4 147.1c-2.3-8.5-11.1-13.6-19.6-11.3-8.5 2.3-13.6 11-11.3 19.6 1.9 7.1 8.4 11.9 15.5 11.9 1.3 0 2.7-.2 4.1-.6 8.5-2.3 13.6-11.1 11.3-19.6zm-285.6 20c3.6 0 7.3-1.2 10.3-3.8 6.8-5.7 7.6-15.8 2-22.5-5.7-6.8-15.8-7.6-22.5-2-6.9 5.8-7.8 15.9-2.1 22.6 3.3 3.8 7.8 5.7 12.3 5.7zm70.6-34.7c-6.6-5.9-16.7-5.4-22.6 1.2-5.9 6.6-5.4 16.7 1.2 22.6 3.1 2.8 6.9 4.1 10.7 4.1 4.4 0 8.8-1.8 11.9-5.3 5.9-6.6 5.4-16.7-1.2-22.6zM935 591.2c8.1 0 15-6.1 15.9-14.4.9-8.8-5.5-16.6-14.3-17.6-8.8-.9-16.6 5.5-17.6 14.3-.9 8.9 5.5 16.7 14.3 17.6.6.1 1.1.1 1.7.1zm66.1-17.7c-.9-8.8-8.8-15.2-17.6-14.3-8.8.9-15.2 8.8-14.3 17.6.8 8.3 7.8 14.4 15.9 14.4.6 0 1.1 0 1.7-.1 8.8-.9 15.2-8.8 14.3-17.6zM1224 155.7c3.1 4.5 8.1 7 13.2 7 3.1 0 6.3-.9 9-2.8 7.3-5 9.1-15 4.2-22.3-5-7.3-15-9.1-22.3-4.1-7.3 5-9.1 14.9-4.1 22.2zm136.2 17.2c-8.3 3-12.6 12.2-9.5 20.5 2.4 6.5 8.5 10.5 15 10.5 1.8 0 3.7-.3 5.5-1 8.3-3 12.6-12.2 9.5-20.5-3-8.3-12.2-12.6-20.5-9.5zm-21.8-45.3c-7.9 4-11 13.6-7.1 21.5 2.8 5.6 8.5 8.8 14.3 8.8 2.4 0 4.9-.6 7.2-1.7 7.9-4 11-13.6 7.1-21.5-4-8-13.6-11.1-21.5-7.1zm-13.8 160.1c1.1 8 7.9 13.9 15.8 13.9.7 0 1.4 0 2.1-.1 8.8-1.2 14.9-9.2 13.8-18s-9.1-15-17.9-13.8c-8.8 1.2-14.9 9.2-13.8 18zm51.8-67.3c-8.6 2-13.9 10.7-11.9 19.3 1.8 7.3 8.3 12.3 15.5 12.3 1.2 0 2.5-.1 3.7-.4 8.6-2.1 13.9-10.7 11.8-19.3-1.8-8.6-10.5-13.9-19.1-11.9zm-33.7 150.4c-8.8-1.1-16.8 5-17.9 13.8s5 16.8 13.8 17.9c.7.1 1.4.1 2.1.1 7.9 0 14.8-5.9 15.8-13.9 1.1-8.8-5-16.8-13.8-17.9zm17.2-35.3c0-8.7-7.2-15.9-16-15.9s-16 7.2-16 16v.8c0 8.8 7.2 16 16 16s16-7.2 16-16v-.9zm-33.4-114.7c-8.5 2.3-13.6 11.1-11.3 19.6 1.9 7.1 8.4 11.8 15.4 11.8 1.4 0 2.8-.2 4.2-.6 8.5-2.3 13.6-11.1 11.3-19.6-2.3-8.4-11-13.5-19.6-11.2zm.3 230.5c1.4.4 2.8.5 4.1.5 7.1.1 13.6-4.7 15.5-11.8 2.3-8.5-2.8-17.3-11.3-19.6-8.5-2.3-17.3 2.8-19.6 11.3-2.3 8.5 2.8 17.3 11.3 19.6zm-37-181.4c-8.7 1.3-14.8 9.5-13.4 18.2 1.2 7.9 8 13.6 15.8 13.6.8 0 1.6-.1 2.4-.2 8.7-1.3 14.8-9.5 13.4-18.2-1.4-8.7-9.6-14.7-18.2-13.4zm-73.8 66.6v-.6c0-8.8-7.2-16-16-16s-16 7.2-16 16v.5c0 8.8 7.2 16 16 16s16-7.1 16-15.9zm11.8-47.9c1.4 7.8 8.1 13.2 15.7 13.2.9 0 1.9-.1 2.8-.3 8.7-1.5 14.5-9.9 13-18.5-1.5-8.7-9.8-14.5-18.5-13s-14.5 9.9-13 18.6zm-2.9-66.3c-8.3 3-12.6 12.2-9.5 20.5 2.4 6.5 8.5 10.5 15 10.5 1.8 0 3.7-.3 5.5-1 8.3-3 12.6-12.2 9.5-20.5-3-8.3-12.1-12.5-20.5-9.5zm-14.4 167.4c1.8-8.7-3.7-17.1-12.3-19-8.7-1.8-17.1 3.7-19 12.4-1.8 8.6 3.7 17.1 12.4 19 1.1.2 2.2.3 3.3.3 7.3 0 14-5.2 15.6-12.7zm-37.7 59c2.1.9 4.3 1.4 6.5 1.4 6.1 0 12-3.5 14.6-9.5 3.6-8.1 0-17.5-8.1-21.1s-17.5 0-21.1 8.1 0 17.5 8.1 21.1zm28.3-270.6c-7.6 4.5-10.2 14.2-5.8 21.9 3 5.1 8.3 8 13.9 8 2.7 0 5.5-.7 8-2.2 7.6-4.5 10.2-14.2 5.8-21.9-4.5-7.6-14.3-10.2-21.9-5.8zm62.8 157.6c0-8.8-7.2-15.9-16-15.9s-16 7.2-16 16v.7c0 8.8 7.2 16 16 16s16-7.2 16-16v-.8zm-38.7 114.4c1.8.7 3.6 1 5.5 1 6.5-.1 12.6-4.1 15-10.6 3-8.3-1.3-17.5-9.6-20.5-8.3-3-17.5 1.3-20.5 9.6-3 8.3 1.3 17.5 9.6 20.5zm-46.3-160.7c1.6 7.5 8.2 12.7 15.6 12.7 1.1 0 2.2-.1 3.4-.4 8.6-1.9 14.1-10.4 12.3-19-1.8-8.7-10.3-14.2-19-12.3-8.5 1.9-14 10.4-12.3 19zm76.5-113.7c-8 3.9-11.3 13.4-7.4 21.4 2.8 5.7 8.5 9 14.4 9 2.3 0 4.7-.5 7-1.6 7.9-3.9 11.3-13.4 7.4-21.4s-13.4-11.3-21.4-7.4zm-114.1 225.9c1.4.4 2.8.5 4.1.5 7.1.1 13.5-4.6 15.5-11.8 2.3-8.5-2.8-17.3-11.3-19.6s-17.3 2.8-19.6 11.3 2.8 17.3 11.3 19.6zm105-30.8c-8.7-1.5-17 4.3-18.5 13s4.3 17 13 18.5c.9.2 1.9.2 2.8.2 7.6 0 14.4-5.5 15.7-13.2 1.5-8.7-4.3-17-13-18.5zM1387 269.6c-8.8 1-15 9-14 17.8 1 8.1 7.9 14.1 15.9 14.1.6 0 1.3 0 1.9-.1 8.8-1 15-9 14-17.8s-9-15.1-17.8-14zm-241.7 32.8c1.4 0 2.8-.2 4.2-.5 8.5-2.3 13.6-11.1 11.3-19.6-2.3-8.5-11.1-13.6-19.6-11.3s-13.6 11.1-11.3 19.6c1.9 7.1 8.4 11.8 15.4 11.8zm329.9-82.5c-8.7 1.7-14.3 10.1-12.7 18.8 1.5 7.7 8.2 13 15.7 13 1 0 2-.1 3.1-.3 8.7-1.7 14.3-10.1 12.7-18.8-1.7-8.7-10.1-14.4-18.8-12.7zm-302.7 3.9c-8.1 3.6-11.7 13.1-8 21.1 2.7 5.9 8.5 9.5 14.6 9.5 2.2 0 4.4-.5 6.5-1.4 8.1-3.6 11.7-13.1 8.1-21.1-3.7-8.1-13.2-11.7-21.2-8.1zm-4.6 112.7v-.4c0-8.8-7.2-16-16-16s-16 7.2-16 16v.4c0 8.8 7.2 16 16 16s16-7.2 16-16zm743.7 116.1c.6.1 1.1.1 1.7.1 2.4 0 4.6-.5 6.7-1.5v-29.1c-1.5-.7-3.2-1.2-5-1.4-8.8-.9-16.7 5.5-17.6 14.3-1 8.8 5.4 16.7 14.2 17.6zM392.2 596.3c8.1-3.5 11.9-12.9 8.4-21s-12.9-11.9-21-8.4-11.9 12.9-8.4 21c2.5 6 8.5 9.7 14.7 9.7 2.1 0 4.2-.4 6.3-1.3zm1199.3-29.1c-8.2-3.2-17.5.8-20.7 9s.8 17.5 9 20.7c1.9.8 3.9 1.1 5.8 1.1 6.4 0 12.4-3.8 14.9-10.1 3.2-8.2-.8-17.5-9-20.7zm15.4-47.9c-8.5-2.6-17.4 2.1-20 10.6-2.6 8.4 2.1 17.4 10.6 20 1.6.5 3.2.7 4.7.7 6.9-.1 13.2-4.5 15.3-11.3 2.6-8.5-2.1-17.4-10.6-20zm19.9-98.5c-8.7-1.3-16.9 4.7-18.2 13.5-1.3 8.7 4.7 16.9 13.5 18.2.8.1 1.6.2 2.4.2 7.8-.1 14.6-5.8 15.8-13.7 1.4-8.7-4.6-16.9-13.5-18.2zm48.5.1c-8.8-1.2-16.8 4.9-18 13.6-1.2 8.8 4.9 16.8 13.6 18.1.8.1 1.5.1 2.2.1 7.9 0 14.7-5.8 15.8-13.8 1.1-8.8-5-16.8-13.6-18zM490.8 594.8c2.5 0 5-.6 7.3-1.8 7.9-4.1 10.9-13.7 6.9-21.6-4.1-7.9-13.7-10.9-21.6-6.9-7.8 4.2-10.9 13.9-6.8 21.7 2.7 5.5 8.3 8.6 14.2 8.6zm67 58.5c-5.5-6.9-15.5-8.1-22.5-2.7-6.9 5.5-8.1 15.4-2.8 22.4h25.3c4.3-5.7 4.5-13.8 0-19.7zm1025.4-282.5c-8.8-.7-16.5 5.9-17.2 14.7s5.9 16.5 14.7 17.2h1.3c8.2 0 15.2-6.4 15.9-14.7.7-8.8-5.9-16.5-14.7-17.2zM1904 169.2c-8.7 1.4-14.7 9.6-13.3 18.3 1.3 7.9 8 13.5 15.8 13.5.8 0 1.7-.1 2.5-.2 4.7-.7 8.5-3.4 10.9-7.1v-17.4c-3.3-5.2-9.5-8.1-15.9-7.1zm12.3 233.4h.8c.9 0 1.9-.1 2.8-.3v-31.5c-.6-.1-1.3-.2-2-.2-8.8-.5-16.3 6.3-16.8 15.2-.4 8.8 6.4 16.4 15.2 16.8zm-746.4-263.9c-6.8 5.7-7.6 15.8-1.9 22.6 3.2 3.8 7.7 5.7 12.2 5.7 3.6 0 7.3-1.2 10.3-3.8 6.7-5.8 7.6-15.9 1.9-22.6-5.7-6.8-15.8-7.6-22.5-1.9zm748.5 213.8c.5 0 1 0 1.5-.1v-33.5c-.5 0-1-.1-1.5-.1-8.8 0-16 7.2-16 16v1.6c0 8.9 7.2 16.1 16 16.1zm-7-133.7c-8.8.9-15.2 8.8-14.2 17.6.9 8.2 7.8 14.3 15.9 14.3.6 0 1.1 0 1.7-.1 1.8-.2 3.6-.7 5.2-1.5v-28.9c-2.7-1.2-5.6-1.7-8.6-1.4zm-44.1 202c-8.8-1-16.7 5.4-17.6 14.2-1 8.8 5.4 16.7 14.2 17.6.6.1 1.2.1 1.8.1 7.9 0 14.9-6.1 15.8-14.3.9-8.8-5.5-16.7-14.2-17.6zm-6 49.8c-8.7-1.4-17 4.5-18.4 13.2s4.5 17 13.2 18.4c.9.1 1.8.2 2.6.2 7.7 0 14.5-5.5 15.8-13.4 1.3-8.7-4.6-17-13.2-18.4zM1362 19.3c3.2 4 7.8 6.1 12.6 6.1 3.5 0 7-1.1 9.9-3.4 6.7-5.4 8-15 3-22h-25.9c-4.2 5.7-4.2 13.5.4 19.3z"/><circle class="st1" cx="623.9" cy="336.9" r="16"/><path class="st1" d="M1165.8 661.1c-4.4-7.6-14.2-10.3-21.9-5.8-6.3 3.6-9.2 10.9-7.5 17.7h31.1c1-3.9.5-8.1-1.7-11.9zm-139.9-43.7c-1.5-8.7-9.8-14.5-18.5-13s-14.5 9.8-13 18.5c1.4 7.8 8.1 13.2 15.7 13.2 1 0 1.9 0 2.8-.2 8.7-1.5 14.5-9.8 13-18.5zM535.8 252.9c1.2.3 2.5.4 3.7.4 7.3 0 13.8-5 15.6-12.3 2-8.6-3.3-17.2-11.9-19.2-8.7-2.1-17.3 3.3-19.3 11.9-2.1 8.6 3.2 17.2 11.9 19.2zM901 569.8c2.7-8.4-1.9-17.4-10.3-20.2-8.4-2.7-17.4 1.9-20.2 10.3-2.6 8.4 2 17.5 10.4 20.2 1.6.5 3.3.8 4.9.8 6.8 0 13-4.3 15.2-11.1zm196.7 73.7c-3.2-8.2-12.5-12.3-20.7-9-8.2 3.2-12.3 12.5-9 20.8 2.4 6.2 8.4 10 14.8 10 2 0 3.9-.4 5.9-1.1 8.2-3.2 12.3-12.5 9-20.7zm-58.5-63.5c8.4-2.7 13-11.8 10.3-20.2-2.7-8.4-11.8-13-20.2-10.3-8.4 2.7-13 11.8-10.3 20.2 2.2 6.8 8.4 11.1 15.2 11.1 1.6 0 3.3-.3 5-.8zM598.8 204.7c2 .8 4.1 1.2 6.1 1.2 6.3 0 12.3-3.7 14.8-9.9 3.4-8.2-.5-17.5-8.7-20.9-8.2-3.3-17.6.6-20.9 8.7-3.4 8.2.5 17.5 8.7 20.9zm792 166.1c-8.8-1-16.7 5.3-17.7 14.1s5.3 16.7 14.1 17.7c.6.1 1.3.1 1.9.1 7.9-.1 14.9-6.1 15.8-14.2 1-8.8-5.3-16.7-14.1-17.7zM1180.6 21.7c-5.4 7-4 17.1 3 22.4 2.9 2.2 6.3 3.3 9.7 3.3 4.8 0 9.6-2.2 12.7-6.3 5.3-7 4-17-3-22.4-7-5.4-17.1-4-22.4 3zm-427-9.5c3 5.1 8.3 8 13.9 8 2.7 0 5.5-.7 8-2.2 6.4-3.7 9.3-11.1 7.4-18H752c-1 4-.6 8.3 1.6 12.2zM508.4 500.5c8.4-2.7 13-11.8 10.3-20.2-2.7-8.4-11.8-13-20.2-10.3-8.4 2.7-13 11.8-10.3 20.2 2.2 6.8 8.5 11.1 15.2 11.1 1.6 0 3.3-.3 5-.8zM487 252.8c1.1.2 2.2.4 3.3.4 7.4 0 14-5.2 15.6-12.7 1.8-8.6-3.7-17.1-12.4-19-8.6-1.8-17.1 3.8-18.9 12.4-1.8 8.6 3.7 17.1 12.4 18.9zm289.1 402.6c-7.7-4.5-17.4-1.8-21.9 5.8-2.1 3.7-2.6 7.9-1.7 11.8h31.2c1.6-6.7-1.2-13.9-7.6-17.6zm553.5-165.8c3.4-8.2-.5-17.5-8.7-20.9s-17.5.5-20.9 8.7.5 17.5 8.7 20.9c2 .8 4 1.2 6.1 1.2 6.3 0 12.2-3.7 14.8-9.9zm78.3-154.1c0-8.8-7.2-15.9-16-15.9s-16 7.2-16 16v.9c0 8.8 7.2 16 16 16s16-7.2 16-16v-1zM1143.4 17.4c2.5 1.5 5.3 2.1 8 2.1 5.5 0 10.9-2.9 13.9-8 2-3.6 2.5-7.7 1.6-11.5h-31.2c-1.4 6.7 1.5 13.8 7.7 17.4zm216.9 520.2c4-7.9.8-17.5-7.1-21.5s-17.5-.8-21.5 7.1-.8 17.5 7.1 21.5c2.4 1.1 4.8 1.7 7.2 1.7 5.9 0 11.5-3.2 14.3-8.8zm61.2-68c-8.4-2.7-17.4 1.9-20.2 10.3-2.7 8.4 1.9 17.4 10.3 20.2 1.6.5 3.3.8 4.9.8 6.8-.1 13.1-4.4 15.3-11.1 2.7-8.4-1.9-17.4-10.3-20.2zm498.4-387.9c-.9 2.7-1.1 5.7-.3 8.8.1.3.2.6.3 1v-9.8zM831.5 115c-7.6 4.4-10.2 14.2-5.8 21.9 3 5.1 8.3 8 13.9 8 2.7 0 5.5-.7 8-2.2 7.6-4.4 10.3-14.2 5.8-21.9-4.4-7.7-14.2-10.3-21.9-5.8zm24.1 41.5c-7.6 4.4-10.2 14.2-5.8 21.9 3 5.1 8.3 8 13.9 8 2.7 0 5.5-.7 8-2.2 7.6-4.4 10.2-14.2 5.8-21.9-4.5-7.7-14.2-10.2-21.9-5.8zm29.2 241.9c7.6-4.4 10.2-14.2 5.8-21.9-4.4-7.6-14.2-10.3-21.9-5.8-7.6 4.4-10.3 14.2-5.8 21.9 3 5.1 8.3 8 13.9 8 2.7 0 5.5-.7 8-2.2zm-72.2-186.2c3.1 3.1 7.2 4.7 11.3 4.7s8.2-1.6 11.3-4.7c6.2-6.3 6.2-16.4 0-22.6-6.2-6.3-16.3-6.2-22.6 0-6.2 6.3-6.2 16.4 0 22.6zm-33.1 20.5c-4.4 7.6-1.8 17.4 5.9 21.9 2.5 1.5 5.3 2.1 8 2.1 5.6 0 11-2.9 13.9-8 4.4-7.7 1.8-17.4-5.9-21.9-7.7-4.4-17.4-1.8-21.9 5.9zM932.7 81.9c-8.8.9-15.2 8.8-14.2 17.6.9 8.2 7.8 14.3 15.9 14.3.6 0 1.1 0 1.7-.1 8.8-.9 15.2-8.8 14.2-17.6-.9-8.7-8.8-15.1-17.6-14.2zM660.4 284.1c-1.5 8.7 4.3 17 13 18.5.9.2 1.8.2 2.8.2 7.6 0 14.4-5.5 15.8-13.3 1.5-8.7-4.3-17-13-18.5-8.8-1.4-17.1 4.4-18.6 13.1zm23.2-30.7c1.8.7 3.6 1 5.4 1 6.5 0 12.7-4 15-10.5 3-8.3-1.3-17.5-9.6-20.5-8.2-3.1-17.4 1.2-20.4 9.5s1.3 17.5 9.6 20.5zm141 148.5c1.8 0 3.7-.3 5.5-1 8.3-3 12.6-12.2 9.5-20.5-3-8.3-12.2-12.6-20.5-9.5-8.3 3-12.6 12.2-9.6 20.5 2.5 6.5 8.6 10.5 15.1 10.5zm-36.3-255.4c-6.6 5.9-7.1 16-1.1 22.6 3.2 3.5 7.5 5.3 11.9 5.3 3.8 0 7.7-1.4 10.7-4.1 6.6-5.9 7.1-16 1.2-22.6-6-6.6-16.1-7.1-22.7-1.2zm102.4 150.1c4.4-7.7 1.8-17.4-5.9-21.9-7.7-4.4-17.5-1.8-21.9 5.9-4.4 7.6-1.8 17.4 5.9 21.9 2.5 1.5 5.3 2.1 8 2.1 5.5 0 10.9-2.9 13.9-8zM860 441.3c6.8-5.7 7.6-15.8 2-22.5s-15.8-7.6-22.6-1.9-7.6 15.8-1.9 22.5c3.1 3.8 7.6 5.7 12.2 5.7 3.6 0 7.3-1.2 10.3-3.8z"/><circle class="st1" cx="815.9" cy="336.7" r="16"/><path class="st1" d="M905.8 135.6c-8.5 2.3-13.6 11.1-11.3 19.6 1.9 7.1 8.4 11.8 15.4 11.8 1.4 0 2.8-.2 4.2-.6 8.5-2.3 13.6-11.1 11.3-19.6-2.3-8.4-11.1-13.5-19.6-11.2zm-26 62.4c-7.6 4.4-10.2 14.2-5.8 21.9 3 5.1 8.3 8 13.9 8 2.7 0 5.5-.7 8-2.2 7.7-4.4 10.3-14.2 5.8-21.9-4.5-7.6-14.3-10.2-21.9-5.8z"/><circle class="st1" cx="863.9" cy="336.6" r="16"/><path class="st1" d="M809.4 281.9c-3 8.3 1.3 17.5 9.6 20.5 1.8.6 3.6 1 5.5 1 6.5 0 12.7-4 15-10.5 3-8.3-1.3-17.5-9.6-20.5-8.3-3.1-17.4 1.2-20.5 9.5zm50.4-50.1c-6.8-5.7-16.9-4.8-22.5 2-5.7 6.8-4.8 16.9 2 22.5 3 2.5 6.6 3.7 10.3 3.7 4.6 0 9.1-1.9 12.3-5.7 5.5-6.7 4.6-16.8-2.1-22.5zM671.9 352.9c8.8 0 16-7.2 16-16 0-8.9-7.2-16.1-16-16-8.8 0-16 7.2-16 16s7.2 16 16 16zm46.3-174c-7.7-4.4-17.4-1.8-21.8 5.9-4.4 7.7-1.8 17.5 5.8 21.9 2.5 1.5 5.3 2.1 8 2.1 5.5 0 10.9-2.9 13.9-8 4.4-7.7 1.8-17.4-5.9-21.9zm31.1-39.5c-6.8-5.6-16.9-4.8-22.6 2-5.7 6.8-4.8 16.9 2 22.5 3 2.5 6.6 3.7 10.3 3.7 4.6 0 9.1-1.9 12.3-5.7 5.7-6.8 4.8-16.9-2-22.5zm-58.3-5.1c-7.3-5-17.2-3.1-22.2 4.2s-3.1 17.3 4.2 22.2c2.8 1.9 5.9 2.8 9 2.8 5.1 0 10.1-2.5 13.2-7 5.1-7.3 3.1-17.3-4.2-22.2zm83.4 268.1c1.4 0 2.8-.2 4.1-.5 8.5-2.3 13.6-11.1 11.3-19.6s-11.1-13.6-19.6-11.3-13.6 11.1-11.3 19.6c2 7.1 8.5 11.8 15.5 11.8zm.5-219.6c-7.1-5.3-17.1-3.7-22.3 3.5-5.2 7.1-3.6 17.1 3.5 22.4 2.8 2.1 6.1 3 9.4 3 5 0 9.8-2.3 13-6.6 5.2-7.1 3.6-17.2-3.6-22.3zm-132.4 1.3c-3.8 8-.5 17.5 7.5 21.4 2.2 1.1 4.6 1.6 6.9 1.6 5.9 0 11.7-3.3 14.4-9.1 3.9-8 .5-17.5-7.4-21.4-8-3.8-17.5-.5-21.4 7.5zm-30.8 100.3c-1.3 8.7 4.7 16.9 13.5 18.2.8.1 1.6.2 2.4.2 7.8 0 14.6-5.7 15.8-13.7 1.3-8.7-4.7-16.9-13.5-18.2-8.7-1.2-16.9 4.8-18.2 13.5zm11.6-51.3c-2.6 8.5 2.1 17.4 10.6 20 1.6.5 3.1.7 4.7.7 6.9 0 13.2-4.4 15.3-11.3 2.6-8.5-2.2-17.4-10.6-20-8.4-2.6-17.4 2.2-20 10.6zm117.4 217.2c2.2 0 4.4-.5 6.5-1.4 8.1-3.6 11.7-13.1 8.1-21.1-3.6-8.1-13.1-11.7-21.1-8.1-8.1 3.6-11.7 13.1-8.1 21.1 2.6 6 8.5 9.5 14.6 9.5zm-18.9-147.7c1.1.2 2.2.4 3.3.4 7.4 0 14.1-5.2 15.6-12.7 1.8-8.6-3.7-17.1-12.4-19-8.6-1.9-17.1 3.6-18.9 12.3-1.8 8.7 3.7 17.1 12.4 19zm52.5.4c7.1 0 13.5-4.7 15.5-11.9 2.3-8.5-2.8-17.3-11.4-19.6-8.5-2.3-17.3 2.8-19.6 11.4-2.3 8.5 2.8 17.3 11.4 19.6 1.5.4 2.8.5 4.1.5zm-85 148.3c1.8 0 3.7-.3 5.5-1 8.3-3 12.6-12.2 9.5-20.5-3-8.3-12.2-12.6-20.5-9.5-8.3 3-12.6 12.2-9.5 20.5 2.3 6.5 8.5 10.5 15 10.5zM734 253.8c2.1.9 4.3 1.4 6.5 1.4 6.1 0 12-3.5 14.6-9.5 3.6-8.1-.1-17.5-8.1-21.1-8.1-3.6-17.5 0-21.1 8.1-3.5 8 .1 17.5 8.1 21.1z"/><circle class="st1" cx="719.9" cy="336.8" r="16"/><circle class="st1" cx="767.9" cy="336.7" r="16"/><path class="st1" d="M676.3 402.8c.9 0 1.8 0 2.8-.2 8.7-1.5 14.5-9.8 13-18.5s-9.8-14.5-18.5-13-14.5 9.8-13 18.5c1.4 7.8 8.1 13.2 15.7 13.2zm48.8-.2c1.1 0 2.2-.1 3.3-.3 8.6-1.8 14.2-10.3 12.3-19-1.8-8.6-10.3-14.2-19-12.3s-14.2 10.3-12.3 19c1.7 7.5 8.3 12.6 15.7 12.6z"/><circle class="st1" cx="959.8" cy="240.5" r="16"/><path class="st1" d="M959.4 32.5c-8.9 0-16.1 7.2-16 16 0 8.8 7.2 16 16 16s16-7.2 16-16-7.2-16-16-16zm82.3 129.5c-4.4 7.6-1.8 17.4 5.9 21.8 2.5 1.5 5.3 2.1 8 2.1 5.5 0 10.9-2.9 13.9-8 4.4-7.7 1.8-17.4-5.9-21.9-7.7-4.2-17.4-1.6-21.9 6zm42.4 27.2c-6.2 6.3-6.2 16.4 0 22.6 3.1 3.1 7.2 4.7 11.3 4.7 4.1 0 8.2-1.6 11.3-4.7 6.2-6.3 6.2-16.4 0-22.6-6.3-6.3-16.4-6.3-22.6 0zm35.8 147.2v-.4c0-8.8-7.2-16-16-16-8.9.2-16 7.4-16 16.2v.2c0 8.8 7.2 16 16 16s16-7.2 16-16zm-11.7-189.2c-5.9 6.6-5.4 16.7 1.2 22.6 3.1 2.7 6.9 4.1 10.7 4.1 4.4 0 8.8-1.8 11.9-5.3 5.9-6.6 5.3-16.7-1.2-22.6-6.5-6-16.6-5.4-22.6 1.2zm36.2 34.9c-7.1 5.2-8.7 15.2-3.5 22.4 3.1 4.3 8 6.6 12.9 6.6 3.3 0 6.6-1 9.4-3.1 7.1-5.2 8.7-15.2 3.5-22.4-5.1-7.1-15.1-8.7-22.3-3.5zm-120.5 154.1c0-8.8-7.2-16-16.1-15.9-8.8 0-16 7.2-15.9 16.1v.1c0 8.8 7.2 16 16 16s16-7.2 16-16c0 0 0-.1 0 0v-.3zm-6.1-132.5c-4.4 7.7-1.8 17.4 5.9 21.9 2.5 1.5 5.3 2.1 8 2.1 5.5 0 10.9-2.9 13.9-8 4.4-7.7 1.7-17.5-5.9-21.9-7.6-4.4-17.4-1.8-21.9 5.9zm69.7-89.2c-7.7-4.4-17.4-1.8-21.8 5.9s-1.8 17.4 5.9 21.9c2.5 1.5 5.3 2.1 8 2.1 5.5 0 10.9-2.9 13.9-8 4.3-7.7 1.7-17.5-6-21.9zm-27.7 117c-6.8 5.7-7.6 15.8-1.9 22.5 3.2 3.8 7.7 5.7 12.2 5.7 3.6 0 7.3-1.2 10.3-3.8 6.8-5.7 7.6-15.8 1.9-22.5-5.6-6.7-15.7-7.6-22.5-1.9zm20.5 60.9c2.4 6.5 8.5 10.5 15 10.5 1.8 0 3.7-.3 5.5-1 8.3-3 12.5-12.2 9.5-20.5-3.1-8.2-12.3-12.5-20.5-9.5-8.4 3-12.6 12.2-9.5 20.5zm2.2 147c5.7-6.8 4.8-16.9-2-22.5-6.8-5.7-16.8-4.8-22.5 2-5.7 6.6-4.8 16.7 1.9 22.4 3 2.5 6.6 3.8 10.3 3.8 4.6 0 9.1-1.9 12.3-5.7zm35.5-213.1c-7.6 4.4-10.2 14.2-5.8 21.9 3 5.1 8.3 8 13.8 8 2.8 0 5.5-.7 8.1-2.2 7.6-4.4 10.2-14.2 5.8-21.9-4.4-7.6-14.1-10.2-21.9-5.8zm-83 172c2.5 1.5 5.3 2.2 8 2.2 5.6 0 10.9-2.9 13.9-8 4.4-7.7 1.8-17.4-5.8-21.9-7.7-4.4-17.4-1.8-21.9 5.8-4.4 7.7-1.8 17.4 5.8 21.9zm60.2 3.5c6.5 0 12.7-4 15-10.5 3-8.3-1.3-17.5-9.6-20.5-8.3-3-17.5 1.3-20.5 9.6s1.3 17.5 9.6 20.5c1.9.6 3.7.9 5.5.9zm-39.3-81.5c-8.8 0-16 7.2-16 16v.2c0 8.8 7.2 16 16 16s16-7.2 16-16v-.2c0-8.9-7.1-16-16-16zm-21-45.8c-7.6 4.4-10.2 14.2-5.8 21.9 3 5.1 8.3 8 13.8 8 2.7 0 5.5-.7 8-2.2 7.6-4.4 10.2-14.2 5.8-21.9-4.4-7.7-14.1-10.3-21.8-5.8z"/><circle class="st1" cx="959.9" cy="336.5" r="16"/><path class="st1" d="M987.7 494c8.7-1.5 14.5-9.8 13-18.5s-9.8-14.5-18.5-13-14.5 9.8-13 18.5c1.4 7.9 8.1 13.3 15.7 13.3.9 0 1.8-.1 2.8-.3zM904 433.6c2.5 1.5 5.3 2.1 8 2.1 5.5 0 10.8-2.9 13.8-8 4.4-7.6 1.8-17.4-5.8-21.9-7.7-4.4-17.4-1.8-21.9 5.9-4.4 7.7-1.8 17.4 5.9 21.9zm-.2-194c-7.6 4.4-10.2 14.2-5.8 21.9 3 5.1 8.3 8 13.9 8 2.7 0 5.5-.7 8-2.2 7.6-4.4 10.2-14.2 5.8-21.9s-14.2-10.3-21.9-5.8z"/><circle class="st1" cx="911.9" cy="336.6" r="16"/><circle class="st1" cx="960" cy="528.5" r="16"/><path class="st1" d="M1015.9 433.5c7.7-4.4 10.3-14.2 5.8-21.9-4.4-7.7-14.2-10.3-21.9-5.8-7.6 4.4-10.3 14.2-5.8 21.9 3 5.1 8.3 8 13.9 8 2.8-.1 5.5-.8 8-2.2zM986.2 81.8c-8.8-.9-16.6 5.5-17.5 14.3s5.5 16.6 14.3 17.5c.6.1 1.1.1 1.7.1 8.1 0 15.1-6.1 15.9-14.4.8-8.7-5.6-16.6-14.4-17.5zm27.2 53.6c-8.6-2.2-17.3 2.9-19.6 11.4-2.3 8.5 2.8 17.3 11.4 19.6 1.4.4 2.8.5 4.1.5 7.1 0 13.5-4.7 15.5-11.9 2.3-8.5-2.8-17.3-11.4-19.6zm8.4 125.8c4.4-7.6 1.8-17.4-5.9-21.9-7.7-4.3-17.5-1.7-21.9 6-4.4 7.7-1.8 17.4 5.9 21.8 2.5 1.5 5.3 2.1 8 2.1 5.4 0 10.9-2.9 13.9-8zm-89.9-82.3c-8.7 1.5-14.5 9.8-13 18.5 1.4 7.8 8.1 13.2 15.7 13.2.9 0 1.9-.1 2.8-.2 8.7-1.5 14.5-9.8 13-18.5s-9.8-14.5-18.5-13zm65.9 123.9c4.4-7.7 1.8-17.5-5.9-21.9s-17.4-1.8-21.8 5.9c-4.5 7.7-1.9 17.5 5.8 21.9 2.5 1.4 5.3 2.1 8 2.1 5.4 0 10.9-2.9 13.9-8z"/><circle class="st1" cx="960" cy="432.5" r="16"/><path class="st1" d="M922.1 370.2c-4.4 7.6-1.8 17.4 5.9 21.8 2.5 1.5 5.3 2.1 8 2.1 5.5 0 10.9-2.9 13.9-8 4.4-7.6 1.8-17.4-5.9-21.8-7.7-4.4-17.4-1.8-21.9 5.9zm69.8 21.7c7.7-4.4 10.3-14.2 5.8-21.9-4.4-7.6-14.2-10.3-21.9-5.8-7.7 4.4-10.3 14.2-5.8 21.9 3.1 5.1 8.4 8 13.9 8 2.7 0 5.5-.7 8-2.2z"/><circle class="st1" cx="959.6" cy="144.5" r="16"/><path class="st1" d="M987.4 178.9c-8.7-1.5-17 4.3-18.5 13s4.3 17 13 18.5c.9.2 1.8.2 2.8.2 7.6 0 14.4-5.5 15.7-13.3 1.5-8.7-4.3-16.9-13-18.4zm-59.7 102.2c-7.6 4.5-10.2 14.3-5.8 21.9 3 5.1 8.4 8 13.9 8 2.7 0 5.5-.7 8-2.2 7.6-4.5 10.2-14.3 5.8-21.9-4.5-7.6-14.2-10.2-21.9-5.8zm7.3 213.2c7.6 0 14.4-5.5 15.7-13.3 1.5-8.7-4.3-17-13-18.5s-17 4.3-18.5 13c-1.5 8.8 4.3 17.1 13 18.6.9.2 1.9.2 2.8.2zm890.7-5.2c1.5-8.7-4.3-17-13-18.5s-17 4.3-18.5 13 4.3 17 13 18.5c.9.2 1.9.2 2.8.2 7.6 0 14.3-5.4 15.7-13.2zM169 552.1c1.3 0 2.6-.2 3.9-.5 8.6-2.1 13.8-10.8 11.6-19.4-2.2-8.6-10.9-13.8-19.4-11.6-8.6 2.2-13.8 10.8-11.6 19.4 1.8 7.3 8.3 12.1 15.5 12.1zm-18.4-98.6c.6 0 1.3 0 2-.1 8.8-1.1 15-9.1 13.9-17.8-1.1-8.8-9.1-15-17.8-13.9-8.8 1.1-15 9.1-13.9 17.8.9 8 7.8 14 15.8 14zm7.7 49.6c1 0 2-.1 3-.3 8.7-1.6 14.4-10 12.8-18.7-1.6-8.7-10-14.4-18.7-12.8s-14.4 10-12.8 18.7c1.4 7.7 8.1 13.1 15.7 13.1zm75.3 168.1c-3.7-8-13.2-11.5-21.2-7.8-4.2 1.9-7.2 5.5-8.5 9.6h30.4c-.2-.6-.4-1.2-.7-1.8zm1525.3-7.5c-8.1-3.5-17.5.2-21 8.3-.1.3-.3.7-.4 1h30.1c-1.4-4-4.4-7.5-8.7-9.3zm43.4-75.1c2.5-8.5-2.3-17.4-10.8-19.9s-17.4 2.3-19.9 10.8 2.3 17.4 10.8 19.9c1.5.5 3.1.7 4.6.7 6.8-.1 13.3-4.6 15.3-11.5zm13.2-49.4c2-8.6-3.3-17.2-11.9-19.3-8.6-2-17.2 3.3-19.3 11.9-2.1 8.6 3.3 17.2 11.9 19.3 1.2.3 2.5.4 3.7.4 7.3 0 13.8-5 15.6-12.3zm-38.8 77.4c-8.3-3-17.5 1.3-20.5 9.6-3 8.3 1.3 17.5 9.6 20.5 1.8.6 3.7 1 5.5 1 6.5-.1 12.6-4.1 15-10.6 3-8.3-1.4-17.5-9.6-20.5zM182.8 600.4c1.6 0 3.2-.2 4.9-.8 8.4-2.7 13.1-11.7 10.4-20.1s-11.7-13.1-20.1-10.4c-8.4 2.7-13.1 11.7-10.4 20.1 2.1 6.9 8.4 11.2 15.2 11.2zM167 85.2c-2.7 8.4 2 17.4 10.4 20.1 1.6.5 3.2.8 4.8.8 6.8 0 13.1-4.4 15.3-11.2 2.7-8.4-2-17.4-10.4-20.1-8.3-2.7-17.3 2-20.1 10.4zm-24.7 99.3c-1.6 8.7 4.1 17 12.8 18.6 1 .2 2 .3 2.9.3 7.6 0 14.3-5.4 15.7-13.1 1.6-8.7-4.1-17-12.8-18.6s-17 4.1-18.6 12.8zM1685.9 1.1c2.7 5.8 8.5 9.3 14.5 9.3 2.3 0 4.5-.5 6.7-1.5 4-1.8 6.8-5.1 8.3-8.9h-29.9c.1.4.3.7.4 1.1zm-1474 9.7c2.2 1 4.4 1.5 6.7 1.5 6.1 0 11.9-3.5 14.6-9.3.5-1 .8-2 1-3H203c1.1 4.6 4.3 8.7 8.9 10.8z"/><circle class="st1" cx="144.4" cy="337.3" r="16"/><path class="st1" d="M146 403.5h1c8.8-.5 15.5-8.1 15-17-.6-8.8-8.1-15.5-17-15-8.8.5-15.5 8.1-15 17 .5 8.4 7.6 15 16 15zm-16-117.4c-.6 8.8 6.1 16.4 14.9 16.9h1c8.4 0 15.5-6.5 16-15 .5-8.8-6.2-16.4-15-16.9s-16.4 6.2-16.9 15zm4.5-51c-1.1 8.8 5.2 16.8 14 17.8.7.1 1.3.1 2 .1 8 0 14.9-6 15.9-14.1 1.1-8.8-5.2-16.7-14-17.8-8.8-1-16.8 5.3-17.9 14zm18.6-100.6c-2.1 8.6 3.1 17.3 11.6 19.4 1.3.3 2.6.5 3.9.5 7.2 0 13.7-4.9 15.5-12.1 2.1-8.6-3.1-17.3-11.6-19.4s-17.3 3-19.4 11.6zm-48.9.2c-2 8.6 3.3 17.2 11.9 19.2 1.2.3 2.5.4 3.7.4 7.3 0 13.8-5 15.6-12.3 1.9-8.5-3.4-17.2-12-19.2s-17.2 3.3-19.2 11.9zm38.7-77.4c1.8.6 3.6 1 5.5 1 6.5 0 12.7-4 15-10.5 3-8.3-1.3-17.5-9.6-20.5-8.3-3.1-17.5 1.2-20.5 9.5s1.3 17.5 9.6 20.5zm-25.6 28c-2.5 8.5 2.3 17.4 10.8 19.9 1.5.5 3.1.7 4.6.7 6.9 0 13.3-4.5 15.3-11.4 2.5-8.5-2.3-17.4-10.8-19.9-8.5-2.6-17.4 2.3-19.9 10.7zm43.3-75.1c2.1.9 4.2 1.3 6.3 1.3 6.2 0 12.1-3.6 14.7-9.7.3-.6.5-1.2.6-1.8h-30.7c1.4 4.4 4.6 8.2 9.1 10.2zm1591.3-1.1c2.1 0 4.3-.4 6.4-1.3 3.7-1.6 6.5-4.4 8.1-7.8h-28.9c2.7 5.7 8.4 9.1 14.4 9.1z"/><circle class="st1" cx="96.9" cy="337.4" r="16"/><path class="st1" d="M1833 438.5c1-8.8-5.3-16.7-14-17.7-8.8-1-16.7 5.3-17.7 14.1s5.3 16.7 14.1 17.7c.6.1 1.2.1 1.9.1 8 0 14.9-6.1 15.7-14.2zM86.7 235.4c-1 8.8 5.3 16.7 14.1 17.7.6.1 1.2.1 1.8.1 8 0 14.9-6 15.9-14.2 1-8.8-5.3-16.7-14.1-17.7s-16.7 5.3-17.7 14.1zm-4.4 51c-.5 8.8 6.3 16.4 15.1 16.9h.9c8.4 0 15.5-6.6 16-15.1.5-8.8-6.3-16.4-15.1-16.9s-16.4 6.2-16.9 15.1zm1738.1-17.9c-8.8.5-15.5 8.1-15 16.9.5 8.5 7.5 15 15.9 15h1c8.8-.5 15.5-8.1 15-16.9-.5-8.8-8-15.5-16.9-15zm-5.4-49.9c-8.8 1-15.1 9-14 17.8 1 8.1 7.9 14.1 15.9 14.1.6 0 1.3 0 1.9-.1 8.8-1 15.1-9 14-17.8-1-8.8-9-15.1-17.8-14zm23.9 116.1c0-8.9-7.2-16.1-16-16-8.8 0-16 7.2-16 16v1.8c0 8.8 7.2 16 16 16s16-7.2 16-16v-1.8zM1765 24.6c-8.3 3-12.6 12.2-9.5 20.5 2.4 6.5 8.5 10.5 15 10.5 1.8 0 3.7-.3 5.5-1 8.3-3 12.6-12.2 9.5-20.5-3-8.3-12.2-12.5-20.5-9.5zm57.4 346.1c-8.8-.5-16.4 6.2-16.9 15.1-.5 8.8 6.2 16.4 15.1 16.9h.9c8.4 0 15.5-6.6 16-15.1.4-8.8-6.3-16.4-15.1-16.9zm-40.7-298.8c-8.5 2.6-13.3 11.5-10.7 19.9 2.1 6.9 8.4 11.4 15.3 11.4 1.5 0 3.1-.2 4.6-.7 8.5-2.5 13.3-11.5 10.7-19.9-2.5-8.4-11.4-13.2-19.9-10.7zm25.1 97.2c-8.7 1.5-14.5 9.8-13 18.5 1.4 7.8 8.1 13.2 15.7 13.2.9 0 1.9-.1 2.8-.2 8.7-1.5 14.5-9.9 13-18.5-1.5-8.7-9.8-14.5-18.5-13zm-11.1-49c-8.6 2-13.9 10.7-11.8 19.3 1.8 7.4 8.3 12.3 15.6 12.3 1.2 0 2.5-.1 3.7-.4 8.6-2 13.9-10.7 11.9-19.3-2.2-8.6-10.8-13.9-19.4-11.9zM93.9 184.8c-1.5 8.7 4.3 17 13 18.5.9.2 1.8.2 2.8.2 7.6 0 14.4-5.5 15.7-13.3 1.5-8.7-4.3-17-13-18.5-8.7-1.4-17 4.4-18.5 13.1zm97.2-.3c-1.7 8.7 3.9 17.1 12.6 18.8 1.1.2 2.1.3 3.1.3 7.5 0 14.2-5.3 15.7-12.9 1.7-8.7-3.9-17.1-12.6-18.8s-17.1 3.9-18.8 12.6zM1731.9 72.6c-8.4 2.7-13.1 11.7-10.4 20.1 2.2 6.8 8.5 11.1 15.2 11.1 1.6 0 3.3-.3 4.9-.8 8.4-2.7 13.1-11.7 10.4-20.1-2.7-8.4-11.7-13-20.1-10.3zM199 453.5c.7 0 1.4 0 2.1-.1 8.8-1.2 14.9-9.2 13.8-18-1.2-8.8-9.2-14.9-17.9-13.8-8.8 1.2-14.9 9.2-13.8 18 1.1 8 7.8 13.9 15.8 13.9zm-16.1-218.4c-1.1 8.8 5.1 16.8 13.8 17.9.7.1 1.4.1 2.1.1 7.9 0 14.8-5.9 15.9-14 1.1-8.8-5-16.8-13.8-17.9-8.8-1.1-16.9 5.1-18 13.9zm19.8-100.6c-2.3 8.5 2.8 17.3 11.4 19.6 1.4.4 2.8.5 4.1.5 7.1 0 13.5-4.7 15.4-11.9 2.3-8.5-2.8-17.3-11.4-19.6-8.5-2.2-17.3 2.9-19.5 11.4zM178 286.1c-.6 8.8 6.1 16.4 15 17h1c8.4 0 15.4-6.5 15.9-15 .6-8.8-6.1-16.4-14.9-17-8.8-.5-16.5 6.2-17 15zm16.1 117.4h1.1c8.8-.6 15.5-8.2 14.9-17-.6-8.8-8.2-15.5-17-14.9s-15.5 8.2-14.9 17c.6 8.4 7.6 14.9 15.9 14.9z"/><circle class="st1" cx="192.4" cy="337.3" r="16"/><path class="st1" d="M217.5 85.5c-2.8 8.4 1.7 17.5 10 20.3 1.7.6 3.4.8 5.1.8 6.7 0 12.9-4.2 15.2-10.9 2.8-8.4-1.7-17.5-10-20.3-8.4-2.8-17.5 1.7-20.3 10.1zm26.7-27.2c2 .8 4.1 1.2 6.1 1.2 6.3 0 12.2-3.7 14.8-9.9 3.4-8.2-.5-17.5-8.7-20.9s-17.5.5-20.9 8.7c-3.4 8.2.5 17.5 8.7 20.9zm1437 14.9c-8.4 2.9-12.8 11.9-10 20.3 2.3 6.6 8.5 10.8 15.1 10.8 1.7 0 3.5-.3 5.2-.9 8.4-2.9 12.8-12 10-20.3s-11.9-12.8-20.3-9.9zm15.7 47.7c-8.5 2.3-13.6 11.1-11.3 19.6 1.9 7.1 8.4 11.8 15.4 11.8 1.4 0 2.8-.2 4.2-.6 8.5-2.3 13.6-11.1 11.3-19.6-2.3-8.5-11.1-13.5-19.6-11.2zm12.5 48.6c-8.7 1.7-14.3 10.2-12.6 18.8 1.5 7.6 8.2 12.9 15.7 12.9 1 0 2.1-.1 3.1-.3 8.7-1.7 14.3-10.2 12.6-18.8-1.8-8.7-10.2-14.3-18.8-12.6zm10.7-113c1.9 0 3.9-.4 5.8-1.1 8.2-3.2 12.3-12.5 9.1-20.7-3.2-8.2-12.5-12.3-20.7-9.1-8.2 3.2-12.3 12.5-9.1 20.7 2.5 6.3 8.5 10.2 14.9 10.2zm-57.6-29.9c-8.2 3.4-12 12.8-8.6 20.9 2.6 6.1 8.5 9.9 14.8 9.9 2.1 0 4.1-.4 6.2-1.2 8.2-3.4 12-12.8 8.6-20.9-3.5-8.2-12.9-12.1-21-8.7zM264 12c2.3 1.1 4.7 1.7 7.1 1.7 5.9 0 11.6-3.3 14.4-8.9.8-1.6 1.2-3.2 1.5-4.8h-31.7c.8 5 3.9 9.6 8.7 12zm1369.5-9.2c2.8 5.6 8.5 8.9 14.3 8.9 2.4 0 4.8-.5 7.1-1.7 4.2-2.1 7.1-5.8 8.3-10h-30.7c.3.9.6 1.9 1 2.8zM204.7 27.6c-8.2-3.2-17.5.9-20.7 9.2-3.2 8.2.9 17.5 9.2 20.7 1.9.7 3.8 1.1 5.8 1.1 6.4 0 12.5-3.9 14.9-10.2 3.2-8.3-.9-17.6-9.2-20.8zm1570.2 343.2c-8.8-.5-16.4 6.2-16.9 15s6.1 16.3 14.9 16.9h1c8.4 0 15.4-6.5 16-15 .5-8.8-6.2-16.4-15-16.9zM207.1 503c1 0 2.1-.1 3.1-.3 8.7-1.7 14.3-10.2 12.6-18.8-1.7-8.7-10.1-14.3-18.8-12.6-8.7 1.7-14.3 10.2-12.6 18.8 1.6 7.6 8.4 12.9 15.7 12.9zm1578.1-64.4c1.1-8.8-5.2-16.8-13.9-17.8-8.8-1.1-16.8 5.2-17.8 13.9-1.1 8.8 5.2 16.8 13.9 17.8.7.1 1.3.1 2 .1 7.9.1 14.8-5.9 15.8-14zm-7.8 50.6c1.6-8.7-4.1-17-12.8-18.7-8.7-1.6-17 4.1-18.6 12.8-1.6 8.7 4.1 17 12.8 18.7 1 .2 2 .3 2.9.3 7.5 0 14.3-5.4 15.7-13.1zm-4.6-220.4c-8.8.5-15.5 8.1-15 17 .6 8.5 7.6 15 16 15h1c8.8-.6 15.5-8.1 15-17-.5-8.8-8.1-15.5-17-15zm-26.1-148.2c-8.6 2.2-13.8 10.9-11.6 19.4 1.8 7.3 8.3 12.1 15.5 12.1 1.3 0 2.6-.2 3.9-.5 8.6-2.2 13.8-10.9 11.6-19.4-2.2-8.6-10.9-13.8-19.4-11.6zm11.7 48.8c-8.7 1.6-14.4 10-12.8 18.7 1.4 7.7 8.2 13.1 15.7 13.1 1 0 2-.1 3-.3 8.7-1.6 14.4-10 12.8-18.7s-10-14.4-18.7-12.8zm8.7 49.5c-8.8 1.1-15 9.1-13.9 17.9 1 8.1 7.9 14 15.9 14 .7 0 1.3 0 2-.1 8.8-1.1 15-9.1 13.9-17.9-1.1-8.8-9.1-15-17.9-13.9zm24.3 116c0-8.8-7.2-16-16-15.9-8.8 0-16 7.2-16 16v1.5c0 8.8 7.2 16 16 16s16-7.2 16-16v-1.6zM250.9 646.8c2.1 0 4.1-.4 6.1-1.2 8.2-3.4 12-12.8 8.6-20.9-3.4-8.2-12.8-12-20.9-8.6-8.2 3.4-12 12.8-8.6 20.9 2.7 6.1 8.5 9.8 14.8 9.8zM233.3 600c1.7 0 3.5-.3 5.2-.9 8.4-2.8 12.8-11.9 10-20.3s-11.9-12.8-20.3-10c-8.4 2.8-12.8 11.9-10 20.3 2.1 6.7 8.3 10.9 15.1 10.9zm-39.5 16.9c-8.2 3.2-12.3 12.5-9.1 20.7 2.4 6.3 8.5 10.2 14.9 10.2 1.9 0 3.9-.4 5.8-1.1 8.2-3.2 12.3-12.5 9.1-20.7-3.2-8.2-12.6-12.3-20.7-9.1zm28.9-65.5c8.5-2.3 13.6-11.1 11.3-19.6-2.3-8.5-11.1-13.6-19.6-11.3-8.5 2.3-13.6 11.1-11.3 19.6 1.9 7.1 8.4 11.9 15.5 11.9 1.3-.1 2.7-.3 4.1-.6zm1485 111.5c-8-3.7-17.5-.2-21.2 7.8-.3.8-.6 1.5-.8 2.3h30.7c-1.3-4.3-4.3-8.1-8.7-10.1zM286 669.4c-4-7.9-13.5-11.2-21.4-7.2-4.5 2.3-7.5 6.3-8.5 10.8h31.2c-.3-1.2-.8-2.4-1.3-3.6zm1466.5-80.9c2.7-8.4-2-17.4-10.4-20.1s-17.4 2-20.1 10.4 2 17.4 10.4 20.1c1.6.5 3.2.8 4.9.8 6.7 0 13.1-4.4 15.2-11.2zm14-49.2c2.1-8.6-3.1-17.3-11.6-19.4-8.6-2.1-17.3 3.1-19.4 11.6-2.1 8.6 3 17.3 11.6 19.4 1.3.3 2.6.5 3.9.5 7.2 0 13.7-4.9 15.5-12.1zM61.3 503.2c.9 0 1.8-.1 2.6-.2 8.7-1.5 14.6-9.7 13.2-18.4-1.5-8.7-9.7-14.6-18.4-13.2-8.7 1.5-14.6 9.7-13.2 18.4 1.3 7.8 8.1 13.4 15.8 13.4zm1850.1 162.6c-7.5-2.7-15.6.5-19.4 7.2h27.9c-1.8-3.2-4.6-5.8-8.5-7.2zM58.8 8.7c1.9.7 3.8 1.1 5.7 1.1 6.2 0 12.2-3.7 14.7-9.8H49.9c1.6 3.9 4.8 7.1 8.9 8.7zM42.9 56.3c1.6.5 3.3.8 4.9.8 6.8 0 13-4.3 15.2-11.1 2.7-8.4-1.9-17.4-10.3-20.1-8.4-2.7-17.4 1.9-20.1 10.3-2.7 8.4 1.9 17.4 10.3 20.1z"/><circle class="st1" cx="48.9" cy="337.3" r="16"/><path class="st1" d="M18.1 85.1c-2.3 8.5 2.8 17.3 11.4 19.6 1.4.4 2.8.5 4.1.5 7.1 0 13.5-4.7 15.4-11.9 2.3-8.5-2.8-17.3-11.3-19.6-8.5-2.2-17.3 2.9-19.6 11.4zm30.2 564.3c1.6 0 3.3-.3 5-.8 8.4-2.7 13-11.8 10.3-20.2-2.7-8.4-11.8-13-20.2-10.3s-13 11.8-10.3 20.2c2.2 6.8 8.4 11.1 15.2 11.1zm11 16.3c-3.7 1.4-6.6 4.1-8.3 7.3h28.1c-3.7-7-12.1-10.2-19.8-7.3zM18.9 520.9c-8.6 1.8-14.2 10.3-12.3 19 1.6 7.5 8.2 12.7 15.6 12.7 1.2 0 2.3-.1 3.4-.4 8.6-1.8 14.2-10.3 12.3-19-1.8-8.6-10.3-14.2-19-12.3zm15.2 80.5c1.3-.1 2.7-.2 4.1-.6 8.5-2.3 13.6-11.1 11.3-19.6s-11.1-13.6-19.6-11.3c-8.5 2.3-13.6 11.1-11.3 19.6 1.9 7.2 8.4 11.9 15.5 11.9zM6.3 134.8c-1.8 8.6 3.7 17.1 12.4 19 1.1.2 2.2.3 3.3.3 7.4 0 14-5.2 15.6-12.7 1.8-8.7-3.7-17.2-12.3-19-8.6-1.8-17.1 3.7-19 12.4zm1913.6 446.7c-.5 2.3-.5 4.5 0 6.7v-6.7zm-65.4-574c1.9 0 3.9-.3 5.8-1.1 3.4-1.3 6-3.6 7.8-6.4H1841c2.8 4.7 8 7.5 13.5 7.5zm62.8 640.9c.9.3 1.8.5 2.6.6v-31.7c-6 .8-11.3 5-13.2 11.1-2.5 8.5 2.1 17.4 10.6 20zm-4-109.4c1.8-8.6-3.7-17.1-12.3-19-8.6-1.8-17.1 3.7-19 12.4-1.8 8.7 3.7 17.2 12.4 19 1.1.2 2.2.3 3.3.3 7.5 0 14.1-5.2 15.6-12.7zm-11.8 49.7c2.3-8.5-2.8-17.3-11.3-19.6-8.5-2.3-17.3 2.8-19.6 11.3-2.3 8.5 2.8 17.3 11.3 19.6 1.4.4 2.8.5 4.1.5 7.2 0 13.6-4.7 15.5-11.8zm-35.2-565.1c-8.4 2.8-13 11.8-10.2 20.2 2.2 6.8 8.5 11 15.2 11 1.7 0 3.3-.3 5-.8 8.4-2.7 13-11.8 10.3-20.2-2.8-8.4-11.8-13-20.3-10.2zm15.1 47.8c-8.5 2.3-13.6 11.1-11.3 19.6 1.9 7.1 8.4 11.8 15.4 11.8 1.4 0 2.8-.2 4.2-.6 8.5-2.3 13.6-11.1 11.3-19.6-2.3-8.4-11.1-13.5-19.6-11.2zM1894 120c-8.7 1.8-14.2 10.3-12.3 19 1.6 7.5 8.3 12.7 15.6 12.7 1.1 0 2.2-.1 3.3-.3 8.6-1.9 14.2-10.4 12.3-19-1.8-8.7-10.3-14.2-18.9-12.4zm15.2 350.6c-8.7-1.4-16.9 4.6-18.3 13.3-1.3 8.8 4.6 16.9 13.4 18.3.8.1 1.7.2 2.5.2 5.3 0 10.2-2.7 13.1-6.9v-18.2c-2.4-3.5-6.2-6-10.7-6.7zm-1896 32.6c.8 0 1.7-.1 2.5-.2 8.7-1.4 14.7-9.6 13.3-18.3-1.4-8.7-9.6-14.7-18.3-13.3-4.6.7-8.3 3.3-10.7 6.8v17.9c2.9 4.4 7.9 7.1 13.2 7.1zm-6.6-49.8c.6.1 1.2.1 1.7 0 8.8-.9 15.2-8.8 14.3-17.6-.9-8.8-8.8-15.2-17.6-14.3-1.8.2-3.5.7-5 1.4v29c2.1 1 4.3 1.5 6.6 1.5zM0 581.7v-.1 8.1c.6-2.6.7-5.3 0-8zm2.7-178.1c.3-.1.6-.1.9-.1 8.8-.5 15.6-8 15.1-16.8s-8-15.6-16.8-15.1c-.7 0-1.3.1-1.9.2v31.5c.9.2 1.9.3 2.7.3zM1906.2 43c2 6.3 7.5 10.6 13.7 11.2V22.4c-1.1.1-2.1.3-3.2.6-8.4 2.6-13.1 11.5-10.5 20zM1.4 353.3c8.8 0 16-7.2 16-16s-7.2-16-16-16c-.5 0-1 0-1.4.1v31.8c.5 0 1 .1 1.4.1zm1.4 295.9c8.4-2.6 13.2-11.5 10.6-20-1.8-6.3-7.3-10.5-13.4-11.2v31.8c1-.1 1.9-.3 2.8-.6zm5.8 17.2c-3.5 1.2-6.2 3.6-8.1 6.6h27.1c-3.8-6.3-11.7-9.2-19-6.6zm1907.7-397.7c-8.8.5-15.6 8-15.1 16.8.5 8.5 7.5 15.1 16 15.1h.9c.7 0 1.4-.1 1.9-.3v-31.5c-1.3 0-2.6-.1-3.7-.1zM12.9 45.4c2.6-8.5-2.2-17.4-10.6-20-.7-.2-1.5-.4-2.3-.5v31.6c5.9-.9 11.1-5 12.9-11.1zM8.1 8c1.8.7 3.6 1 5.5 1 6 0 11.6-3.4 14.3-9H0v1.4C1.8 4.3 4.6 6.7 8.1 8zM0 87.2v3.5c.1-1.2.1-2.3 0-3.5zM1905.4 6.7c1.8 0 3.7-.3 5.5-1 3.1-1.1 5.7-3.2 7.5-5.7h-26c3.1 4.2 7.9 6.7 13 6.7zM1.8 303.1h.8c8.5 0 15.5-6.6 16-15.2.5-8.8-6.3-16.3-15.1-16.7-1.2-.1-2.4 0-3.5.2v31.5c.6.1 1.3.2 1.8.2zm8.7-100c.8.1 1.7.2 2.5.2 7.7.1 14.5-5.5 15.7-13.4 1.4-8.7-4.6-16.9-13.3-18.3-6.2-1-12 1.8-15.4 6.4v18.6c2.4 3.4 6.1 5.8 10.5 6.5zm6.9 134.2zM4.8 252.9c.6.1 1.1.1 1.6.1 8.1 0 15.1-6.1 15.9-14.4 1-8.6-5.4-16.5-14.2-17.4-2.9-.3-5.7.2-8.1 1.3v29.1c1.5.7 3.2 1.2 4.8 1.3zM149 648.5c1.8 0 3.7-.3 5.5-1 8.3-3 12.6-12.2 9.5-20.5-3-8.3-12.2-12.6-20.5-9.5-8.3 3.1-12.6 12.2-9.5 20.5 2.3 6.5 8.5 10.5 15 10.5zm1719.6-379.7c-8.8.5-15.6 8.1-15.1 16.9.5 8.5 7.5 15.1 16 15.1h.9c8.8-.5 15.6-8 15.1-16.9-.6-8.8-8.1-15.6-16.9-15.1zm-36.6-197c-8.5 2.4-13.4 11.3-11 19.8 2 7 8.4 11.6 15.4 11.6 1.4 0 2.9-.2 4.4-.6 8.5-2.4 13.4-11.3 11-19.8-2.5-8.5-11.3-13.4-19.8-11zm54.9 263.1c0-8.8-7.2-15.9-16-15.9s-16 7.2-16 16v1.5c0 8.8 7.2 16 16 16s16-7.2 16-16v-1.6zm-22.1 204.3c1.9-8.6-3.5-17.2-12.1-19.1s-17.2 3.5-19.1 12.1 3.5 17.2 12.1 19.1c1.2.3 2.3.4 3.5.4 7.3 0 13.9-5.1 15.6-12.5zm5.6-168.5c-8.8-.5-16.4 6.3-16.8 15.1-.5 8.8 6.3 16.4 15.1 16.8h.9c8.4 0 15.5-6.6 16-15.1.4-8.8-6.4-16.3-15.2-16.8zm-25.1-250.5c-8.6 1.9-14 10.5-12.1 19.1 1.7 7.4 8.3 12.5 15.6 12.5 1.2 0 2.3-.1 3.5-.4 8.6-1.9 14-10.5 12.1-19.1s-10.6-14-19.1-12.1zm10.5 49.1c-8.7 1.5-14.6 9.7-13.1 18.4 1.3 7.8 8.1 13.4 15.8 13.4.9 0 1.8-.1 2.7-.2 8.7-1.5 14.6-9.7 13.1-18.4-1.5-8.8-9.9-14.7-18.5-13.2zm7.8 49.6c-8.8 1-15.1 8.9-14.1 17.7.9 8.2 7.8 14.2 15.9 14.2.6 0 1.2 0 1.8-.1 8.8-1 15.1-8.9 14.1-17.7s-9-15.1-17.7-14.1zm-11.3 369.8c2.4-8.5-2.6-17.3-11.1-19.7-8.5-2.4-17.3 2.5-19.7 11-2.4 8.5 2.6 17.3 11.1 19.8 1.4.4 2.9.6 4.3.6 6.9 0 13.4-4.6 15.4-11.7zM133.2 600.9c1.5 0 3-.2 4.6-.7 8.5-2.5 13.3-11.5 10.7-19.9-2.5-8.5-11.5-13.3-19.9-10.7-8.5 2.5-13.3 11.5-10.7 19.9 2.1 6.9 8.4 11.4 15.3 11.4zM110 503.3c.9 0 1.9-.1 2.8-.2 8.7-1.5 14.5-9.8 13-18.5s-9.8-14.5-18.5-13-14.5 9.8-13 18.5c1.3 7.7 8.1 13.2 15.7 13.2zm10.2 49.1c1.2 0 2.5-.1 3.7-.4 8.6-2 13.9-10.7 11.9-19.3-2-8.6-10.7-13.9-19.3-11.9-8.6 2-13.9 10.7-11.9 19.3 1.7 7.4 8.3 12.3 15.6 12.3zm-17.5-98.8c.6 0 1.2 0 1.9-.1 8.8-1 15.1-9 14-17.7-1-8.8-9-15.1-17.8-14-8.8 1-15.1 9-14 17.7 1 8.1 7.9 14.1 15.9 14.1zM1827 617.2c-8.4-2.9-17.5 1.6-20.3 9.9-2.9 8.4 1.6 17.5 9.9 20.3 1.7.6 3.5.9 5.2.9 6.7 0 12.9-4.2 15.1-10.8 2.9-8.4-1.6-17.5-9.9-20.3zm-16.7 47.4c-8.1-3.2-17.2.5-20.6 8.4h29.2c-1.6-3.7-4.6-6.8-8.6-8.4zM98.4 403.6h1c8.8-.5 15.5-8.1 15-16.9-.5-8.8-8.1-15.6-16.9-15-8.8.5-15.5 8.1-15 16.9.4 8.4 7.5 15 15.9 15zm83.9 269.1c-3.5-8.1-12.9-11.8-21-8.3-4 1.7-6.9 4.9-8.4 8.6h29.5c0-.1 0-.2-.1-.3zM92.6 56.6c1.7.6 3.5.9 5.2.9 6.6 0 12.9-4.2 15.1-10.8 2.9-8.4-1.6-17.5-10-20.3-8.3-3-17.4 1.5-20.3 9.9-2.9 8.4 1.6 17.4 10 20.3zm1626 162.3c-8.8 1.2-14.9 9.2-13.8 18 1.1 8 7.9 13.9 15.8 13.9.7 0 1.4 0 2.1-.1 8.8-1.2 14.9-9.2 13.8-18s-9.1-15-17.9-13.8zM70.9 552.4c1.2 0 2.3-.1 3.5-.4 8.6-1.9 14-10.5 12.1-19.1-1.9-8.6-10.5-14-19.1-12.1s-14 10.5-12.1 19.1c1.7 7.5 8.3 12.5 15.6 12.5zm-16.5-98.9c.6 0 1.2 0 1.8-.1 8.8-1 15.1-8.9 14.1-17.6-1-8.8-8.9-15.1-17.6-14.2-8.8 1-15.1 8.9-14.1 17.7.8 8.1 7.8 14.2 15.8 14.2zM1816.1 24.2c-8.4 2.9-12.8 12-9.9 20.3 2.3 6.6 8.5 10.8 15.1 10.8 1.7 0 3.5-.3 5.2-.9 8.4-2.9 12.8-12 9.9-20.3-2.8-8.4-12-12.8-20.3-9.9zm-1706.3 641c-3.8 1.5-6.7 4.4-8.3 7.8h28.8c-3.7-7.5-12.6-11-20.5-7.8zM98.2 649c1.7 0 3.5-.3 5.2-.9 8.4-2.9 12.8-12 9.9-20.3-2.9-8.4-12-12.8-20.3-9.9-8.4 2.9-12.8 12-9.9 20.3 2.3 6.6 8.5 10.8 15.1 10.8zm1762.6 16.1c-7.8-3-16.5.6-20.1 7.9h28.7c-1.8-3.5-4.8-6.4-8.6-7.9zM49.5 371.4c-8.8.5-15.6 8-15.1 16.8.4 8.6 7.4 15.2 15.9 15.2h.9c8.8-.5 15.6-8 15.1-16.9-.5-8.8-8-15.6-16.8-15.1zm33.7 229.7c1.4 0 2.9-.2 4.4-.6 8.5-2.4 13.4-11.3 11-19.8s-11.3-13.5-19.8-11c-8.5 2.4-13.4 11.3-11 19.8 2 7 8.4 11.6 15.4 11.6zm26.1-592c2 .8 4 1.2 6 1.2 6.3 0 12.3-3.8 14.8-10 0-.1.1-.2.1-.3h-29.8c1.6 4 4.7 7.4 8.9 9.1zM67.4 85c-2.4 8.5 2.6 17.3 11.1 19.7 1.4.4 2.9.6 4.3.6 7 0 13.4-4.6 15.4-11.7 2.4-8.5-2.6-17.3-11.1-19.7-8.5-2.3-17.3 2.6-19.7 11.1zm1809.3 532.5c-8.4-2.7-17.4 1.9-20.2 10.3-2.7 8.4 1.9 17.4 10.3 20.2 1.6.5 3.3.8 4.9.8 6.8-.1 13.1-4.4 15.3-11.2 2.7-8.4-1.9-17.4-10.3-20.1zM1803.6 8.4c2 0 4.1-.4 6-1.2 3.6-1.4 6.3-4 8-7.2h-28.1c2.9 5.2 8.4 8.4 14.1 8.4zM45.2 184.7c-1.4 8.7 4.5 17 13.2 18.4.9.1 1.8.2 2.6.2 7.7 0 14.5-5.6 15.8-13.4 1.4-8.7-4.5-16.9-13.2-18.4-8.7-1.4-17 4.5-18.4 13.2zm-6.8 50.6c-1 8.8 5.4 16.7 14.2 17.6.6.1 1.2.1 1.8.1 8.1 0 15-6.1 15.9-14.3.9-8.8-5.4-16.7-14.2-17.6-8.9-.9-16.8 5.4-17.7 14.2zM55 134.6c-1.9 8.6 3.5 17.2 12.1 19.1 1.2.3 2.3.4 3.5.4 7.3 0 13.9-5.1 15.6-12.5 1.9-8.6-3.5-17.2-12.1-19.1-8.7-2-17.2 3.4-19.1 12.1zm-5.6 168.5h.9c8.4 0 15.5-6.6 16-15.1.5-8.8-6.3-16.4-15.1-16.8-8.8-.5-16.4 6.3-16.8 15.1-.6 8.8 6.1 16.3 15 16.8zM267.8 85.4c-3 8.3 1.3 17.5 9.6 20.5 1.8.6 3.6 1 5.5 1 6.5 0 12.7-4 15-10.5 3-8.3-1.3-17.5-9.6-20.5-8.3-3.1-17.5 1.2-20.5 9.5zm170.2 511c2.3 0 4.6-.5 6.8-1.5 8-3.8 11.5-13.3 7.7-21.3-3.7-8-13.3-11.5-21.3-7.7-8 3.7-11.5 13.3-7.7 21.3 2.8 5.8 8.5 9.2 14.5 9.2zm-34.5-94.3c1.4 0 2.8-.2 4.1-.5 8.5-2.3 13.6-11.1 11.3-19.6s-11.1-13.6-19.6-11.3c-8.5 2.3-13.6 11.1-11.3 19.6 2 7.1 8.5 11.8 15.5 11.8zm15.2 47.9c1.8 0 3.7-.3 5.5-1 8.3-3 12.6-12.2 9.5-20.5-3-8.3-12.2-12.6-20.5-9.5-8.3 3-12.6 12.2-9.5 20.5 2.3 6.5 8.4 10.5 15 10.5zm-26-97c.9 0 1.9 0 2.8-.2 8.7-1.5 14.5-9.8 13-18.5s-9.8-14.5-18.5-13-14.5 9.8-13 18.5c1.3 7.8 8 13.2 15.7 13.2zM1520 612.3c-7.8-4.1-17.5-1.1-21.6 6.7-4.1 7.8-1.1 17.5 6.7 21.6 2.4 1.3 4.9 1.9 7.4 1.9 5.8 0 11.3-3.1 14.2-8.6 4.1-7.8 1.1-17.5-6.7-21.6zm-24.2 44.2c-7.5-4.7-17.3-2.5-22.1 5-2.2 3.5-2.8 7.7-2 11.5h31.3c1.2-6.2-1.4-12.8-7.2-16.5zM461.2 640.9c2.7 0 5.5-.7 8-2.2 7.6-4.4 10.3-14.2 5.8-21.9-4.4-7.6-14.2-10.3-21.9-5.8-7.6 4.4-10.3 14.2-5.8 21.9 3 5.1 8.4 8 13.9 8zm-75.1-237.7c.5 0 .9 0 1.4-.1 8.8-.8 15.3-8.5 14.5-17.3s-8.5-15.3-17.3-14.5-15.3 8.5-14.5 17.3c.7 8.4 7.7 14.6 15.9 14.6zM501.4 658c-5.1-7.2-15.1-9-22.3-3.9-6.1 4.3-8.3 12.2-5.7 18.9h29.8c1.9-4.8 1.5-10.5-1.8-15zM452.7 62.9c2.5 1.5 5.3 2.1 8 2.1 5.5 0 10.9-2.9 13.9-8 4.4-7.7 1.8-17.4-5.9-21.9-7.7-4.4-17.5-1.8-21.9 5.9-4.4 7.6-1.8 17.4 5.9 21.9zm1096.2 524.5c3.5-8.1-.3-17.5-8.4-21s-17.5.3-21 8.4.3 17.5 8.4 21c2 .9 4.2 1.3 6.3 1.3 6.2 0 12.1-3.6 14.7-9.7zM383.9 353c8.8 0 16-7.2 16-16s-7.2-16-16-16-16 7.2-16 16c0 8.9 7.2 16.1 16 16zm19.4-218.4c-3 8.3 1.3 17.5 9.6 20.5 1.8.7 3.6 1 5.4 1 6.5 0 12.7-4 15.1-10.6 3-8.3-1.3-17.5-9.6-20.5s-17.5 1.3-20.5 9.6zm75.2-114.9c2.8 2 6 2.9 9.2 2.9 5 0 10-2.4 13.1-6.8C504.2 11 504.6 5 502.3 0h-29.1c-3.2 6.9-1.1 15.2 5.3 19.7zm-55.6 67.2c-3.7 8-.3 17.5 7.8 21.3 2.2 1 4.5 1.5 6.8 1.5 6 0 11.8-3.4 14.5-9.3 3.7-8.1.2-17.6-7.8-21.3s-17.5-.3-21.3 7.8zm-35.1 97c-2.3 8.6 2.8 17.3 11.4 19.6 1.4.4 2.8.6 4.1.6 7-.1 13.5-4.8 15.4-12 2.3-8.5-2.8-17.3-11.3-19.6s-17.3 2.8-19.6 11.4zm-17.7 101.7c-.8 8.7 5.7 16.4 14.6 17.2.5 0 .9.1 1.4.1 8.2 0 15.2-6.3 15.9-14.6.8-8.8-5.8-16.5-14.6-17.3s-16.5 5.8-17.3 14.6zm1048-271c3.1 4.4 8.1 6.8 13.1 6.8 3.2 0 6.4-1 9.2-2.9 6-4.3 8.2-11.9 5.9-18.5h-30.1c-1.7 4.7-1.2 10.2 1.9 14.6zM376.7 234.3c-1.5 8.7 4.3 17 13 18.5.9.2 1.8.2 2.8.2 7.6 0 14.4-5.4 15.7-13.2 1.5-8.7-4.3-17-13-18.5s-17 4.3-18.5 13zm1128-202.9c-7.8 4.1-10.8 13.8-6.7 21.6 2.9 5.4 8.4 8.5 14.2 8.5 2.5 0 5.1-.6 7.5-1.9 7.8-4.1 10.8-13.8 6.7-21.6-4.2-7.7-14-10.7-21.7-6.6zm-1134 54.8c-3.5 8.1.3 17.5 8.5 21 2 .9 4.2 1.3 6.3 1.3 6.2 0 12.1-3.7 14.7-9.8 3.5-8.1-.3-17.5-8.5-21s-17.5.4-21 8.5zm28.8-25c2.4 1.3 4.9 1.8 7.4 1.8 5.8 0 11.3-3.1 14.2-8.6 4.1-7.8 1.1-17.4-6.7-21.5-7.8-4.1-17.5-1.1-21.6 6.7-4.1 7.8-1.1 17.5 6.7 21.6zm1073.8-50.5c3 4.8 8.2 7.4 13.5 7.4 2.9 0 5.9-.8 8.6-2.5 5.5-3.5 8.1-9.6 7.3-15.6h-31.8c-.4 3.6.3 7.4 2.4 10.7zM423.5 17.1c2.6 1.7 5.6 2.5 8.5 2.5 5.3 0 10.5-2.6 13.5-7.4C448 8.4 448.6 4 447.7 0h-31.2c-1.5 6.4 1.1 13.4 7 17.1zm-71 117.3c-2.8 8.4 1.8 17.4 10.1 20.2 1.7.6 3.4.8 5 .8 6.7.1 13-4.1 15.2-10.9 2.8-8.4-1.8-17.4-10.1-20.2-8.4-2.8-17.4 1.8-20.2 10.1zM328 234.6c-1.4 8.7 4.5 16.9 13.3 18.3.9.1 1.7.2 2.6.2 7.6-.1 14.4-5.7 15.7-13.5 1.4-8.7-4.5-16.9-13.3-18.3-8.7-1.4-16.9 4.5-18.3 13.3zm10.3-50.6c-2.1 8.6 3.2 17.3 11.7 19.3 1.3.3 2.6.5 3.8.5 7.1 0 13.7-4.9 15.5-12.2 2.1-8.6-3.2-17.3-11.7-19.4s-17.2 3.2-19.3 11.8zm1243.3 305.6c2.1-8.6-3.1-17.3-11.7-19.4s-17.3 3.1-19.4 11.7 3.1 17.3 11.7 19.3c1.3.3 2.6.5 3.8.5 7.2.1 13.8-4.8 15.6-12.1zm18.3-154.3c0-8.9-7.2-16-16-16s-16 7.2-16 16v1.2c0 8.8 7.2 16 16 16s16-7.2 16-16v-1.2zm-72.5-259.1c-8.1 3.5-11.9 12.9-8.4 21 2.6 6.1 8.5 9.7 14.7 9.7 2.1 0 4.2-.4 6.3-1.3 8.1-3.5 11.9-12.9 8.4-21-3.5-8.2-12.9-11.9-21-8.4zm39.9 463c2.8-8.4-1.7-17.5-10.1-20.2-8.4-2.8-17.5 1.7-20.2 10.1-2.9 8.3 1.6 17.4 10 20.2 1.7.6 3.4.8 5.1.8 6.7 0 12.9-4.2 15.2-10.9zm13.1-270c-8.8.7-15.4 8.4-14.6 17.3.7 8.3 7.7 14.6 16 14.6h1.3c8.8-.7 15.4-8.4 14.6-17.3-.7-8.8-8.4-15.4-17.3-14.6zm11.3 169.9c1.4-8.7-4.5-16.9-13.3-18.3-8.7-1.4-16.9 4.5-18.3 13.3-1.4 8.7 4.5 16.9 13.3 18.4.9.1 1.7.2 2.6.2 7.7-.1 14.4-5.7 15.7-13.6zm-18.6-219.7c-8.7 1.4-14.6 9.6-13.2 18.4 1.3 7.8 8.1 13.4 15.8 13.4.9 0 1.7-.1 2.6-.2 8.7-1.4 14.6-9.6 13.2-18.4-1.4-8.7-9.6-14.6-18.4-13.2zm-26.6-96.8c-8.4 2.8-12.9 11.9-10.1 20.3 2.3 6.6 8.5 10.9 15.2 10.9 1.7 0 3.4-.3 5.1-.8 8.4-2.8 12.9-11.9 10.1-20.3-2.8-8.4-11.9-12.9-20.3-10.1zm15.2 47.8c-8.6 2.1-13.8 10.8-11.7 19.4 1.9 7.3 8.4 12.2 15.6 12.2 1.3 0 2.6-.2 3.8-.5 8.6-2.1 13.8-10.8 11.7-19.4-2.1-8.6-10.8-13.8-19.4-11.7zM1516.5 539c3-8.3-1.3-17.5-9.6-20.5-8.3-3-17.5 1.3-20.5 9.6-3 8.3 1.3 17.5 9.6 20.5 1.8.7 3.7 1 5.5 1 6.5-.1 12.6-4.1 15-10.6zM418.3 285.5c-.9 8.6 5.6 16.4 14.4 17.3.5 0 1 .1 1.5.1 8.2 0 15.1-6.2 15.9-14.5.8-8.8-5.6-16.6-14.4-17.4-8.7-.8-16.6 5.7-17.4 14.5zm7.2-51.4c-1.6 8.7 4.1 17.1 12.7 18.7 1 .2 2 .3 3 .3 7.5 0 14.2-5.3 15.7-13 1.6-8.7-4-17.1-12.7-18.7-8.6-1.7-16.9 4-18.7 12.7zm44.3 315.1c2 0 4-.4 6-1.1 8.2-3.3 12.2-12.6 8.9-20.8-3.3-8.2-12.6-12.2-20.8-8.9-8.2 3.3-12.2 12.6-8.9 20.8 2.5 6.2 8.5 10 14.8 10z"/><circle class="st1" cx="432" cy="337" r="16"/><path class="st1" d="M454.5 134.7c-3.3 8.3.7 17.6 8.9 20.9 2 .8 4 1.1 5.9 1.1 6.4 0 12.4-3.8 14.9-10.1 3.3-8.2-.7-17.5-8.9-20.8-8.2-3.3-17.5.7-20.8 8.9zm-1.2 367c1.5 0 3-.2 4.5-.6 8.5-2.5 13.3-11.4 10.8-19.9s-11.4-13.3-19.9-10.8-13.3 11.4-10.8 19.9c2.1 6.9 8.5 11.4 15.4 11.4zm-19-98.5c.5 0 1 0 1.5-.1 8.8-.8 15.3-8.7 14.4-17.5-.8-8.8-8.6-15.2-17.4-14.4s-15.2 8.7-14.4 17.5c.9 8.3 7.8 14.5 15.9 14.5zm7.2 49.7c1 0 2-.1 3-.3 8.7-1.7 14.4-10.1 12.7-18.7-1.7-8.7-10.1-14.4-18.7-12.7-8.6 1.7-14.4 10.1-12.7 18.7 1.5 7.7 8.2 13 15.7 13zm-3.7-269.1c-2.5 8.5 2.4 17.4 10.9 19.8 1.5.4 3 .7 4.5.7 6.9 0 13.3-4.5 15.4-11.5 2.3-8.5-2.5-17.4-11-19.9s-17.5 2.4-19.8 10.9zm983.7-104.3c-7.8 4.1-10.9 13.7-6.8 21.6 2.8 5.5 8.4 8.6 14.2 8.6 2.5 0 5-.6 7.3-1.8 7.8-4.1 10.9-13.7 6.8-21.6-4-7.8-13.6-10.9-21.5-6.8zm-26.4-42.7c-7.4 4.8-9.5 14.7-4.8 22.1 3.1 4.7 8.2 7.3 13.5 7.3 3 0 6-.8 8.7-2.6 7.4-4.8 9.5-14.7 4.8-22.1-5-7.4-14.9-9.5-22.2-4.7zm48.8 87.7c-8.2 3.3-12.2 12.6-8.9 20.8 2.5 6.2 8.5 10 14.9 10 2 0 4-.4 6-1.2 8.2-3.3 12.2-12.6 8.9-20.8-3.4-8.1-12.6-12.1-20.9-8.8zM476 87.7c-4 7.8-1 17.5 6.9 21.5 2.3 1.2 4.8 1.8 7.3 1.8 5.8 0 11.4-3.2 14.2-8.7 4-7.9 1-17.5-6.9-21.6-7.8-3.9-17.5-.8-21.5 7zm829.3-84.8c-6.6 5.9-7.1 16-1.1 22.6 3.2 3.5 7.5 5.3 11.9 5.3 3.8 0 7.7-1.4 10.7-4.1 6.5-6.1 7-16.2 1.1-22.7-1.6-1.8-3.5-3.1-5.6-4h-12.5c-1.5.7-3.1 1.6-4.5 2.9zM506.7 65c2.7 1.7 5.7 2.5 8.6 2.5 5.3 0 10.4-2.6 13.5-7.4 4.8-7.4 2.6-17.3-4.8-22.1-7.4-4.8-17.3-2.6-22.1 4.8-4.8 7.5-2.7 17.4 4.8 22.2zM531.8.7c-5.5 6.9-4.3 17 2.7 22.5 2.9 2.3 6.4 3.4 9.9 3.4 4.7 0 9.4-2.1 12.6-6.1 4.9-6.2 4.5-14.8-.6-20.5h-24c-.1.2-.4.5-.6.7zM591 5.1c-5.9 6.6-5.4 16.7 1.2 22.6 3.1 2.8 6.9 4.1 10.7 4.1 4.4 0 8.7-1.8 11.9-5.3 5.9-6.6 5.4-16.7-1.2-22.6-2.3-2.1-5.1-3.4-8-3.9h-5.4c-3.5.6-6.7 2.3-9.2 5.1zm958.7 383.1c.7-8.9-5.8-16.7-14.6-17.4-8.8-.8-16.6 5.8-17.3 14.6-.8 8.8 5.8 16.6 14.6 17.3.5 0 .9.1 1.4.1 8.2 0 15.2-6.3 15.9-14.6zm2.2-52.9c0-8.8-7.2-15.9-16-15.9s-16 7.2-16 16v1.1c0 8.8 7.2 16 16 16s16-7.2 16-16v-1.2zm-19.7-66c-8.8.8-15.3 8.5-14.5 17.3.7 8.3 7.7 14.6 15.9 14.6.5 0 1 0 1.4-.1 8.8-.8 15.3-8.5 14.5-17.3s-8.5-15.3-17.3-14.5zm-81.9-235.5c-7.7 4.4-10.2 14.2-5.8 21.9 3 5.1 8.3 8 13.9 8 2.7 0 5.5-.7 8-2.2 7.6-4.4 10.2-14.2 5.8-21.9-4.4-7.6-14.3-10.2-21.9-5.8zm74 185.8c-8.7 1.5-14.5 9.8-13 18.5 1.4 7.9 8.1 13.3 15.7 13.3.9 0 1.9-.1 2.8-.3 8.7-1.5 14.5-9.8 13-18.5s-9.8-14.5-18.5-13zm-28.8-96.1c-8.3 3.1-12.6 12.2-9.5 20.5 2.3 6.5 8.4 10.5 15 10.5 1.8 0 3.7-.3 5.5-1 8.3-3 12.6-12.2 9.5-20.5-3-8.3-12.2-12.6-20.5-9.5zM1475 77.6c-8 3.8-11.4 13.3-7.7 21.3 2.7 5.8 8.5 9.2 14.5 9.2 2.3 0 4.6-.5 6.8-1.5 8-3.8 11.4-13.3 7.7-21.3s-13.3-11.4-21.3-7.7zM516 638.3c3 0 6-.8 8.7-2.5 7.4-4.8 9.6-14.7 4.8-22.1s-14.7-9.6-22.1-4.8c-7.4 4.8-9.6 14.7-4.8 22.1 3 4.7 8.1 7.3 13.4 7.3zm1027-199c1.5-8.7-4.3-17-13-18.5s-17 4.3-18.5 13 4.3 17 13 18.5c.9.2 1.9.2 2.8.2 7.6 0 14.5-5.5 15.7-13.2zm181.6-170.6c-8.8.6-15.5 8.2-14.9 17 .6 8.5 7.6 14.9 16 14.9h1.1c8.8-.6 15.5-8.2 14.9-17s-8.3-15.5-17.1-14.9zm-397.2 377c-6.6-5.9-16.7-5.4-22.6 1.2s-5.4 16.7 1.2 22.6c1.9 1.7 4.1 2.9 6.3 3.5h8.6c2.8-.8 5.5-2.4 7.6-4.7 6-6.5 5.4-16.7-1.1-22.6zm60.3 27c5.5-6.9 4.3-17-2.7-22.5-6.9-5.5-17-4.3-22.5 2.7-4.7 6-4.4 14.4.3 20.1h24.7c0-.1.1-.2.2-.3zm53.3-19c-7.2-5.1-17.2-3.3-22.3 3.9-3.3 4.7-3.7 10.5-1.6 15.4h29.5c2.9-6.8.7-14.9-5.6-19.3zM609 673c1.9-.7 3.6-1.7 5.2-3.1 6.6-5.9 7.1-16 1.2-22.6-5.9-6.6-16-7.1-22.6-1.2s-7.1 16-1.2 22.6c1.8 2 4 3.4 6.4 4.3h11zm923-183.3c2.3-8.5-2.8-17.3-11.3-19.6-8.5-2.3-17.3 2.8-19.6 11.3-2.3 8.5 2.8 17.3 11.3 19.6 1.4.4 2.8.5 4.1.5 7.1.1 13.6-4.7 15.5-11.8zm-1210.1-204c-.7 8.8 5.9 16.5 14.7 17.2h1.3c8.3 0 15.3-6.4 15.9-14.7.7-8.8-5.9-16.5-14.7-17.2s-16.5 5.8-17.2 14.7zm1160.3 310.2c6 0 11.8-3.4 14.5-9.2 3.7-8 .3-17.5-7.7-21.3-8-3.7-17.5-.3-21.3 7.7-3.7 8-.3 17.6 7.7 21.3 2.2 1 4.5 1.5 6.8 1.5zm-15.3 14.7c-7.7-4.4-17.4-1.8-21.9 5.8-4.4 7.6-1.8 17.4 5.8 21.9 2.6 1.5 5.3 2.2 8 2.2 5.5 0 10.9-2.9 13.9-8 4.5-7.7 1.9-17.4-5.8-21.9zm45.1-439.7c-8.5 2.3-13.6 11.1-11.3 19.6 1.9 7.2 8.4 11.9 15.4 11.9 1.4 0 2.8-.2 4.2-.6 8.5-2.3 13.6-11.1 11.3-19.6-2.3-8.5-11.1-13.6-19.6-11.3zM1630.7 74c-8.3 3.1-12.6 12.2-9.5 20.5 2.4 6.5 8.5 10.5 15 10.5 1.9 0 3.7-.3 5.5-1 8.3-3 12.6-12.2 9.5-20.5-3-8.3-12.2-12.6-20.5-9.5zM316.3 13.1c2.4 1.3 5 1.9 7.5 1.9 5.7 0 11.3-3.1 14.1-8.5 1.1-2.1 1.7-4.3 1.8-6.5h-31.8c.3 5.4 3.3 10.4 8.4 13.1zm-21 45.8c2.1.9 4.3 1.4 6.5 1.4 6.1 0 12-3.5 14.6-9.5 3.6-8.1 0-17.5-8.1-21.1-8.1-3.7-17.5 0-21.1 8.1-3.7 8.1.1 17.5 8.1 21.1zm1315.5-31c-8.1 3.6-11.7 13.1-8.1 21.1 2.7 5.9 8.5 9.5 14.6 9.5 2.2 0 4.4-.5 6.5-1.4 8.1-3.6 11.7-13.1 8.1-21.1-3.6-8.1-13-11.7-21.1-8.1zM1581.2 5c2.9 5.4 8.4 8.5 14.1 8.5 2.5 0 5.1-.6 7.5-1.9 4.6-2.5 7.5-6.8 8.2-11.6h-31.5c.3 1.7.8 3.4 1.7 5z"/><circle class="st1" cx="335.9" cy="337.1" r="16"/><path class="st1" d="M239.5 184.2c-1.9 8.7 3.7 17.1 12.4 18.9 1.3.3 2.4.4 3.4.4 7.4 0 14.1-5.2 15.6-12.7 1.8-8.6-3.7-17.1-12.4-19-8.6-1.8-17.1 3.7-19 12.4zm-8.6 50.6c-1.2 8.8 4.9 16.8 13.7 18 .7.1 1.5.2 2.2.2 7.9 0 14.7-5.8 15.8-13.8 1.2-8.8-4.9-16.8-13.7-18-8.7-1.3-16.8 4.8-18 13.6zM252 134.3c-2.4 8.5 2.5 17.4 11 19.8 1.5.4 2.9.6 4.4.6 7 0 13.4-4.6 15.4-11.6 2.4-8.5-2.5-17.3-11-19.8-8.5-2.4-17.3 2.5-19.8 11zm1418.6 84.8c-8.8 1.2-14.8 9.3-13.6 18.1 1.1 8 8 13.8 15.8 13.8.7 0 1.5 0 2.3-.2 8.8-1.2 14.8-9.3 13.6-18.1-1.3-8.7-9.4-14.8-18.1-13.6zm-23.2-97.7c-8.5 2.4-13.4 11.3-11 19.8 2 7 8.4 11.6 15.4 11.6 1.5 0 3-.2 4.5-.7 8.5-2.4 13.4-11.3 10.9-19.8-2.4-8.5-11.3-13.4-19.8-10.9zm46.7 266.4c.6-8.8-6.1-16.5-14.9-17.1s-16.5 6-17.1 14.9c-.6 8.8 6 16.5 14.9 17.1h1.1c8.4 0 15.5-6.4 16-14.9zm1.8-52.7c0-8.8-7.2-16-16-15.9-8.8 0-16 7.2-16 16v1.3c0 8.8 7.2 16 16 16s16-7.2 16-16v-1.4zm-28.3 204.2c2.4-8.5-2.5-17.4-11-19.8s-17.4 2.5-19.8 11 2.5 17.3 11 19.8c1.5.4 2.9.6 4.4.6 7 0 13.4-4.5 15.4-11.6zm12.3-49.8c1.8-8.6-3.7-17.1-12.4-19-8.6-1.8-17.1 3.7-19 12.3-1.7 8.7 3.9 17.2 12.5 19 1.1.2 2.2.4 3.3.4 7.5 0 14-5.2 15.6-12.7zm-19.3-319.7c-8.5 1.9-14.1 10.4-12.2 19 1.6 7.5 8.2 12.7 15.6 12.7 1.1 0 2.2-.1 3.3-.4 8.6-1.8 14.2-10.3 12.3-19-1.8-8.6-10.3-14.2-19-12.3zm16.3 99.2c-8.8.6-15.5 8.3-14.8 17.1.6 8.4 7.6 14.9 16 14.9h1.1c8.8-.6 15.5-8.3 14.8-17.1-.6-8.9-8.2-15.5-17.1-14.9zM225.6 285.9c-.6 8.8 6.1 16.4 14.9 17h1.1c8.3 0 15.4-6.5 15.9-14.9.6-8.8-6.1-16.5-14.9-17-8.8-.6-16.3 6.1-17 14.9zm21.3 167.4c.7 0 1.5 0 2.2-.1 8.8-1.2 14.8-9.3 13.6-18.1-1.2-8.8-9.3-14.8-18.1-13.6-8.8 1.2-14.9 9.3-13.6 18.1 1.2 8 8 13.7 15.9 13.7zM1714.8 646c1.9.7 3.9 1.1 5.8 1.1 6.4 0 12.5-3.9 14.9-10.2 3.3-8.2-.8-17.5-9.1-20.7-8.2-3.2-17.5.9-20.7 9.1s.9 17.5 9.1 20.7zm13.7-156.7c1.7-8.7-3.9-17.1-12.6-18.8-8.7-1.7-17.1 3.9-18.8 12.6-1.7 8.7 3.9 17.1 12.6 18.8 1 .2 2.1.3 3.1.3 7.5 0 14.2-5.3 15.7-12.9zm-53.2 126.1c-8.2-3.4-17.5.5-20.9 8.6-3.4 8.3.5 17.6 8.6 21 2 .8 4.1 1.2 6.1 1.2 6.3 0 12.2-3.7 14.8-9.9 3.4-8.2-.5-17.5-8.6-20.9z"/><circle class="st1" cx="239.9" cy="337.2" r="16"/><path class="st1" d="M1716.9 539.2c2.3-8.5-2.8-17.3-11.3-19.6-8.5-2.3-17.3 2.8-19.6 11.3-2.3 8.5 2.8 17.3 11.3 19.6 1.4.4 2.8.6 4.1.6 7.1 0 13.6-4.7 15.5-11.9zm19.9-100.5c1.1-8.8-5-16.8-13.8-17.9s-16.8 5-17.9 13.8 5 16.8 13.8 17.9c.7.1 1.4.1 2.1.1 7.9 0 14.7-5.8 15.8-13.9zm6.6-103.8c0-8.9-7.2-16-16-16s-16 7.2-16 16v1.6c0 8.8 7.2 16 16 16s16-7.2 16-16v-1.6zm-16.6 35.8c-8.8-.6-16.4 6.1-17 14.9-.6 8.8 6.1 16.4 14.9 17h1c8.4 0 15.4-6.5 16-15 .6-8.7-6-16.3-14.9-16.9zM1702 588.3c2.8-8.4-1.6-17.5-10-20.3s-17.5 1.6-20.3 10 1.6 17.5 10 20.3c1.7.6 3.4.8 5.1.8 6.8.1 13-4.1 15.2-10.8zm-50.3-.1c3-8.3-1.3-17.5-9.6-20.5-8.3-3-17.5 1.3-20.5 9.6-3 8.3 1.3 17.5 9.6 20.5 1.8.7 3.6 1 5.5 1 6.5-.1 12.7-4.1 15-10.6zm3.7 73.5c-7.9-3.9-17.5-.7-21.4 7.3-.6 1.3-1.1 2.6-1.3 4h31.4c-.9-4.7-3.9-9-8.7-11.3zM255.6 502.8c1.1 0 2.2-.1 3.3-.4 8.6-1.8 14.2-10.3 12.3-19-1.8-8.7-10.3-14.2-19-12.3-8.6 1.8-14.2 10.3-12.3 19 1.7 7.6 8.3 12.7 15.7 12.7zm-13.9-99.4h1.1c8.8-.6 15.5-8.3 14.9-17.1-.6-8.8-8.3-15.5-17.1-14.9s-15.5 8.3-14.8 17.1c.5 8.4 7.5 14.9 15.9 14.9zm26.1 148.2c1.4 0 2.9-.2 4.4-.6 8.5-2.4 13.4-11.3 11-19.8-2.4-8.5-11.3-13.4-19.8-11s-13.4 11.3-11 19.8c2 7 8.4 11.6 15.4 11.6zm70.6 115.9c-4.2-7.8-13.9-10.7-21.6-6.6-4.8 2.6-7.7 7.1-8.4 12.1h31.7c-.2-1.9-.7-3.7-1.7-5.5zm-36.2-21.6c2.2 0 4.4-.5 6.5-1.4 8.1-3.6 11.7-13.1 8.1-21.1-3.6-8.1-13.1-11.7-21.1-8.1-8.1 3.6-11.7 13.1-8.1 21.1 2.6 5.9 8.5 9.5 14.6 9.5zm-18.9-46.5c1.8 0 3.7-.3 5.5-1 8.3-3 12.6-12.2 9.5-20.5-3-8.3-12.2-12.6-20.5-9.5-8.3 3-12.6 12.2-9.5 20.5 2.4 6.4 8.5 10.5 15 10.5zm1178.5-428c-8.5 2.5-13.3 11.4-10.8 19.9 2.1 7 8.4 11.5 15.3 11.5 1.5 0 3-.2 4.5-.7 8.5-2.5 13.3-11.4 10.8-19.9-2.3-8.4-11.3-13.3-19.8-10.8zm186.1 163.9c0-8.8-7.2-15.9-16-15.9s-16 7.2-16 16v1.1c0 8.8 7.2 16 16 16s16-7.2 16-16v-1.2zM1622 219.4c-8.7 1.3-14.8 9.5-13.4 18.2 1.2 7.9 8 13.6 15.8 13.6.8 0 1.6-.1 2.4-.2 8.7-1.3 14.8-9.5 13.4-18.2-1.4-8.7-9.4-14.7-18.2-13.4zm6.8 49.8c-8.8.7-15.4 8.4-14.8 17.2.6 8.4 7.7 14.8 15.9 14.8h1.2c8.8-.7 15.4-8.4 14.8-17.2-.6-8.9-8.3-15.5-17.1-14.8zm17.2 118.7c.7-8.8-6-16.5-14.8-17.1-8.8-.7-16.5 6-17.1 14.8-.7 8.8 6 16.5 14.8 17.1h1.2c8.3 0 15.3-6.4 15.9-14.8zm-48.9-265.7c-8.4 2.6-13.2 11.6-10.5 20 2.1 6.9 8.5 11.3 15.3 11.3 1.6-.1 3.2-.4 4.7-.8 8.4-2.6 13.2-11.6 10.5-20-2.6-8.4-11.6-13.2-20-10.5zm14.3 48.1c-8.6 2-14 10.5-12 19.2 1.7 7.4 8.3 12.4 15.6 12.4 1.2 0 2.4-.1 3.6-.4 8.6-2 14-10.5 12-19.2-2-8.6-10.6-14-19.2-12zm-32-95.2c-8.2 3.2-12.3 12.5-9 20.8 2.5 6.3 8.5 10.1 14.9 10.1 2 0 3.9-.4 5.9-1.1 8.2-3.2 12.3-12.5 9-20.8-3.3-8.2-12.6-12.3-20.8-9zm51.4 414.4c2-8.6-3.4-17.2-12.1-19.2-8.6-1.9-17.2 3.4-19.1 12.1-2 8.6 3.4 17.2 12.1 19.1 1.2.3 2.4.4 3.5.4 7.4.1 14-4.9 15.6-12.4zM354 502.4c1.3 0 2.6-.2 3.8-.5 8.6-2.1 13.8-10.8 11.7-19.4s-10.8-13.8-19.4-11.7c-8.6 2.1-13.8 10.8-11.7 19.4 1.9 7.3 8.4 12.2 15.6 12.2zm14 48.3c1.7 0 3.4-.3 5.1-.8 8.4-2.8 12.9-11.9 10.1-20.3s-11.9-12.9-20.3-10.1c-8.4 2.8-12.9 11.9-10.1 20.3 2.3 6.6 8.5 10.9 15.2 10.9zM1558.1 29.6c-8 3.9-11.3 13.4-7.4 21.4 2.8 5.7 8.5 9 14.4 9 2.3 0 4.7-.5 7-1.6 8-3.8 11.3-13.4 7.4-21.4-3.9-7.9-13.4-11.2-21.4-7.4zM344 453.2c.8 0 1.7-.1 2.6-.2 8.7-1.4 14.7-9.6 13.2-18.4-1.4-8.7-9.6-14.6-18.3-13.2s-14.7 9.6-13.2 18.4c1.2 7.8 8 13.4 15.7 13.4zm1228.3 160.4c-8-3.8-17.5-.5-21.4 7.5-3.7 8-.3 17.6 7.6 21.4 2.2 1.1 4.6 1.6 6.9 1.6 6 0 11.7-3.3 14.4-9.1 3.9-8 .5-17.5-7.5-21.4zM337.9 403.3h1.3c8.8-.7 15.4-8.4 14.7-17.2s-8.4-15.4-17.2-14.7c-8.8.7-15.4 8.4-14.7 17.2.7 8.4 7.7 14.7 15.9 14.7zm69.6 239.6c2.5 0 5.1-.6 7.4-1.9 7.8-4.1 10.8-13.8 6.7-21.6-4.1-7.8-13.8-10.8-21.6-6.7-7.8 4.1-10.8 13.8-6.7 21.6 2.9 5.5 8.4 8.6 14.2 8.6zm1142.6 15.7c-7.7-4.4-17.4-1.8-21.9 5.8-1.6 2.7-2.2 5.7-2.1 8.6h31.9c.2-5.7-2.6-11.3-7.9-14.4zm-1103.9 3.2c-4.7-7.5-14.6-9.7-22.1-4.9-5.6 3.5-8.3 9.9-7.2 16.1h31.6c.7-3.7 0-7.7-2.3-11.2zM1527.7 7.7c3 5.1 8.3 8 13.8 8 2.7 0 5.5-.7 8-2.2 5-2.9 7.8-8.1 7.9-13.5h-31.9c.2 2.6.9 5.3 2.2 7.7zM334.4 598.5c1.9 0 3.9-.4 5.9-1.1 8.2-3.2 12.3-12.5 9-20.8-3.2-8.2-12.5-12.3-20.8-9-8.2 3.2-12.3 12.5-9 20.8 2.4 6.3 8.5 10.1 14.9 10.1zm-60.6-210c.6 8.4 7.6 14.8 15.9 14.8h1.2c8.8-.7 15.4-8.3 14.8-17.1-.7-8.8-8.3-15.4-17.1-14.8-8.8.6-15.4 8.2-14.8 17.1zm43.9 162.6c1.6 0 3.2-.2 4.7-.7 8.4-2.6 13.2-11.6 10.6-20-2.6-8.5-11.6-13.2-20-10.6-8.4 2.6-13.2 11.6-10.6 20 2.2 6.9 8.5 11.3 15.3 11.3zm-22.3-97.9c.8 0 1.6-.1 2.4-.2 8.7-1.3 14.8-9.5 13.5-18.2s-9.5-14.8-18.2-13.4c-8.7 1.3-14.8 9.5-13.4 18.2 1.1 7.9 7.9 13.6 15.7 13.6zm9.3 49.4c1.2 0 2.4-.1 3.6-.4 8.6-2 14-10.5 12.1-19.2-2-8.6-10.6-14-19.2-12s-14 10.5-12 19.2c1.6 7.3 8.2 12.4 15.5 12.4zm1298.6 157.8c-7.8-4.1-17.5-1.2-21.6 6.6-1 1.9-1.6 4-1.8 6h31.8c-.5-5.1-3.4-10-8.4-12.6zM354.5 644.5c2.3 0 4.7-.5 7-1.6 8-3.8 11.3-13.4 7.4-21.4-3.9-8-13.4-11.3-21.4-7.5s-11.3 13.4-7.4 21.4c2.7 5.8 8.4 9.1 14.4 9.1zm37.3 20.2c-4.4-7.7-14.2-10.3-21.9-5.8-5.2 3-8.1 8.5-8 14.1H394c.1-2.8-.6-5.7-2.2-8.3zm1232.7-49.9c-8.1-3.6-17.5 0-21.1 8.1s0 17.5 8.1 21.1c2.1.9 4.3 1.4 6.5 1.4 6.1 0 11.9-3.6 14.6-9.5 3.6-8.1 0-17.5-8.1-21.1zM347.1 59.9c2.2 1.1 4.6 1.6 6.9 1.6 5.9 0 11.7-3.3 14.4-9.1 3.9-8 .6-17.6-7.4-21.4-8-3.8-17.5-.5-21.4 7.5-3.8 8-.5 17.5 7.5 21.4zm-45 74.4c-2.6 8.4 2.1 17.4 10.6 20 1.6.5 3.1.7 4.7.7 6.8 0 13.2-4.4 15.3-11.3 2.6-8.5-2.2-17.4-10.6-20-8.5-2.6-17.3 2.1-20 10.6zm17-48.6c-3.2 8.2.8 17.5 9.1 20.7 1.9.8 3.9 1.1 5.8 1.1 6.4 0 12.4-3.9 14.9-10.2 3.2-8.2-.8-17.5-9.1-20.7-8.2-3.2-17.5.8-20.7 9.1zm50.5-70.9c2.5 1.5 5.3 2.1 8 2.1 5.5 0 10.9-2.9 13.9-8 1.6-2.8 2.3-5.9 2.1-8.9h-32c-.3 5.8 2.6 11.6 8 14.8z"/><circle class="st1" cx="287.9" cy="337.1" r="16"/><path class="st1" d="M273.8 285.7c-.6 8.8 6 16.5 14.8 17.1h1.2c8.3 0 15.3-6.4 15.9-14.8.6-8.8-6-16.5-14.8-17.1-8.8-.6-16.4 6-17.1 14.8zm5.5-51.1c-1.3 8.7 4.7 16.9 13.5 18.2.8.1 1.6.2 2.4.2 7.8-.1 14.7-5.8 15.8-13.7 1.3-8.7-4.7-16.9-13.5-18.2-8.7-1.3-16.9 4.7-18.2 13.5zm9.6-50.5c-2 8.6 3.5 17.2 12.1 19.1 1.2.3 2.4.4 3.5.4 7.3-.1 13.9-5.1 15.6-12.5 1.9-8.6-3.5-17.2-12.1-19.1-8.6-1.9-17.2 3.5-19.1 12.1z"/><path class="st2" d="M878.1 222.3c-25.4 0-43.1 8.6-52.2 25.4-9.6 16.8-14.4 43.6-14.4 80.5s4.8 63.2 13.9 79c9.1 15.8 26.8 23.9 52.7 23.9s43.6-7.7 52.7-23.5c8.6-15.8 13.4-42.1 13.4-79.5 0-36.9-4.8-64.2-13.9-80.9-9.6-16.3-26.8-24.9-52.2-24.9z"/><path class="st2" d="M1218.6 100.1H728.2l-89.1 89.1v383.6h552.7l89.1-89.1V100.2h-62.3zM981.1 406.7c-6.7 20.1-18.2 35.4-34 46l33.5 54.6-41.7 19.6-35.9-59.4c-5.3 1.4-13.4 2.4-24.9 2.4-42.1 0-71.8-11.5-88.1-34-16.8-23-24.9-58.9-24.9-107.8 0-49.3 8.6-85.7 25.4-109.7 16.8-23.9 46.5-35.9 88.1-35.9 41.7 0 70.9 12 87.6 35.4 16.8 23.5 25.4 60.3 25.4 109.7 0 32.6-3.3 58.9-10.5 79.1zm126.4 58.4c-23 0-38.8-5.3-47.4-15.8-8.6-10.5-12.9-30.7-12.9-59.9V295H1016v-37.8h31.1v-58.9h44.1v58.9h56V295h-56v89.6c0 16.3 1.4 27.3 3.8 33 2.4 5.3 8.6 8.1 18.7 8.1l33.5-1.4 1.9 35.4c-18.6 3.5-32 5.4-41.6 5.4z"/><path d="M1113.7 425.8c-10.1 0-16.3-2.9-18.7-8.1-2.4-5.7-3.8-16.8-3.8-33v-89.6h56v-37.8h-56v-58.9h-44.1v58.9H1016v37.8h31.1v94.4c0 29.2 4.3 49.3 12.9 59.9 8.6 10.5 24.4 15.8 47.4 15.8 9.6 0 23-1.9 41.7-5.3l-1.9-35.4-33.5 1.3zM878.6 182.5c-41.7 0-71.4 12-88.1 35.9-16.8 23.9-25.4 60.3-25.4 109.7 0 48.9 8.1 84.8 24.9 107.8 16.3 22.5 46 34 88.1 34 11.5 0 19.6-1 24.9-2.4l35.9 59.4 41.7-19.6-33.5-54.6c15.8-10.5 27.3-25.9 34-46 7.2-20.1 10.5-46.5 10.5-79 0-49.3-8.6-86.2-25.4-109.7-16.7-23.5-46-35.5-87.6-35.5zm52.2 225.1c-9.1 15.8-26.8 23.5-52.7 23.5s-43.6-8.1-52.7-23.9c-9.1-15.8-13.9-42.1-13.9-79s4.8-63.7 14.4-80.5c9.1-16.8 26.8-25.4 52.2-25.4 25.4 0 42.6 8.6 52.2 24.9 9.1 16.8 13.9 44.1 13.9 80.9 0 37.4-4.8 63.7-13.4 79.5z" fill="#fff"/></svg>