<svg xmlns="http://www.w3.org/2000/svg" viewBox="0 0 1920 673" xml:space="preserve"><style>.st3{fill:#b5b5b5}</style><path fill="#173f5f" d="M0 0h1920v673H0z"/><path d="M347.6 206.4 288.2 147l2.8-2.8 59.4 59.4-2.8 2.8zm-8.5 8.5-59.3-59.4-2.9 2.8 59.4 59.4 2.8-2.8zm-106-12.8 59.4 59.4 2.8-2.8-59.4-59.4-2.8 2.8zm58 148.5 59.4-59.4-2.8-2.8-59.4 59.4 2.8 2.8zM210.5 91.8l2.8 2.8 59.4-59.4-2.8-2.8-59.4 59.4zm11.3 11.4 2.8 2.8L284 46.6l-2.8-2.8-59.4 59.4zm11.3 11.3 2.8 2.8 59.4-59.4-2.8-2.8-59.4 59.4zm11.3 11.3 2.8 2.8 59.4-59.4-2.8-2.8-59.4 59.4zm77.8-12.7zm55.2-55.2 59.4 59.4 2.8-2.8-59.4-59.4-2.8 2.8zM366 69.2l59.4 59.4 2.8-2.8-59.4-59.4-2.8 2.8zm-59.4 178.2L247.2 188l-2.8 2.8 59.4 59.4 2.8-2.8zm26.9-145.7 59.4 59.4 2.8-2.8-59.4-59.4-2.8 2.8zm55.2-55.1 59.4 59.4 2.8-2.8-59.4-59.4-2.8 2.8zm-89.1 89.1 59.4 59.4 2.8-2.8-59.4-59.4-2.8 2.8zm-141.5 82 59.4-59.4-2.8-2.8-59.4 59.4 2.8 2.8zm226.3-48L325 110.2l-2.8 2.9 59.4 59.4 2.8-2.8zm0 356.3L325 466.6l-2.8 2.8 59.4 59.4 2.8-2.8zm43.9-43.8-59.4-59.4-2.8 2.8 59.4 59.4 2.8-2.8zM400 35.3l59.4 59.4 2.8-2.8-59.4-59.4-2.8 2.8zm-19.8 582.6 59.4-59.4-2.8-2.8-59.4 59.4 2.8 2.8zm15.5-103.2-59.4-59.4-2.8 2.8 59.4 59.4 2.8-2.8zm55.2 55.1-2.8-2.8-59.4 59.4 2.8 2.8 59.4-59.4zm33.9 34L482 601l-59.4 59.4 2.8 2.8 59.4-59.4zM272.7 281.4 213.3 222l-2.8 2.8 59.4 59.4 2.8-2.8zm200.8 311.1-2.8-2.8-59.4 59.4 2.8 2.8 59.4-59.4zm55.2-123.1-2.8-2.8-59.4 59.4 2.8 2.8 59.4-59.4zM339.2 279.9l-2.8-2.8-59.5 59.4 2.9 2.8 59.4-59.4zM224.6 462.4 284 403l-2.8-2.8-59.4 59.4 2.8 2.8zm70.7-48.1-2.8-2.8-59.4 59.4 2.8 2.8 59.4-59.4zM284 270.1l-59.4-59.4-2.8 2.8 59.4 59.4 2.8-2.8zm75 29.6-59.4 59.4 2.8 2.8 59.4-59.4-2.8-2.8zm14.1 14.2-2.8-2.8-59.4 59.4 2.8 2.8 59.4-59.4zm11.3 11.3-2.8-2.8-59.4 59.4 2.8 2.8 59.4-59.4zm-77.8 100.4-2.8-2.8-59.4 59.4 2.8 2.8 59.4-59.4zm193.8-134.4 59.4 59.4 2.8-2.8-59.4-59.4-2.8 2.8zm73.5 45.3-59.4-59.4-2.8 2.8 59.4 59.4 2.8-2.8zm-36.7 141.4-59.4 59.4 2.8 2.8 59.4-59.4-2.8-2.8zm52.3-275.8 59.4 59.4 2.8-2.8-59.4-59.4-2.8 2.8zm-11.3 11.4 59.4 59.3 2.8-2.8-59.4-59.4-2.8 2.9zM411.3 24l59.4 59.4 2.8-2.8-59.4-59.4-2.8 2.8zm100.4 190.9 2.8 2.8 59.4-59.4-2.8-2.8-59.4 59.4zm-11.3-11.3 2.8 2.8 59.4-59.4-2.8-2.8-59.4 59.4zm106 165.4-2.8-2.8-59.4 59.4 2.8 2.8 59.4-59.4zm11.4-76.3-59.4-59.4-2.8 2.8 59.4 59.4 2.8-2.8zM606.4 304 547 244.6l-2.8 2.8 59.4 59.4 2.8-2.8zm89.1-89.1zm-94.7-24.1 59.4 59.4 2.8-2.8-59.4-59.4-2.8 2.8zm-49.5 168.3-59.4-59.4-2.8 2.8 59.4 59.4 2.8-2.8zm-82-36.7-2.8 2.8 59.4 59.4 2.8-2.8-59.4-59.4zm70.7 48L480.6 311l-2.8 2.8 59.4 59.4 2.8-2.8zm93.3-33.9 2.8 2.8 59.4-59.4-2.8-2.8-59.4 59.4zm73.5-132.9-59.4-59.4-2.8 2.8 59.4 59.4 2.8-2.8zm-73.5-45.3 59.4 59.4 2.8-2.8-59.4-59.4-2.8 2.8zm-66.5 66.5 59.4 59.4 2.8-2.8-59.4-59.4-2.8 2.8zm-89-43.9 2.8 2.8 59.4-59.4-2.8-2.8-59.4 59.4zm77.7-100.4 2.8 2.8 59.4-59.4-2.8-2.8-59.4 59.4zm-63.6 114.6 59.4-59.4-2.8-2.8-59.4 59.4 2.8 2.8zm52.3-125.9L547 72l59.4-59.4-2.8-2.8-59.4 59.4zm73.6 311.1-2.8-2.8-59.4 59.4 2.8 2.8 59.4-59.4zM422.6 12.6 482 72l2.8-2.8-59.4-59.4-2.8 2.8zM458 161.1zm-2.8-2.8 2.8 2.8 59.4-59.4-2.8-2.8-59.4 59.4zm11.2 11.3 2.8 2.8 59.4-59.4-2.8-2.8-59.4 59.4zm174 233.4-2.8-2.8-59.4 59.4 2.8 2.8 59.4-59.4zm11.3 11.3-2.8-2.8-59.4 59.4 2.8 2.8 59.4-59.4zm52.4-125.9-59.4 59.4 2.8 2.8 59.4-59.4-2.8-2.8zM629 391.6l-2.8-2.8-59.4 59.4 2.8 2.8 59.4-59.4zm-28.2-265.8 2.8 2.8L663 69.2l-2.8-2.8-59.4 59.4zm-22.6-22.6 2.8 2.8 59.4-59.4-2.8-2.8-59.4 59.4zm-11.4-11.4 2.8 2.8L629 35.2l-2.8-2.8-59.4 59.4zm22.7 22.7 2.8 2.8 59.4-59.4-2.8-2.8-59.4 59.4zM462.2 581.2l-2.8-2.8-59.4 59.4 2.8 2.8 59.4-59.4zm954.6-292.8-59.4 59.4 2.8 2.8 59.4-59.4-2.8-2.8zm-56.6-144.2-2.8 2.8 59.4 59.4 2.8-2.8-59.4-59.4zm4.2 270.1-2.8-2.8-59.4 59.4 2.8 2.8 59.4-59.4zm41.1-137.2-59.4 59.4 2.8 2.8 59.4-59.4-2.8-2.8zm-103.3-75 59.4 59.4 2.8-2.8-59.4-59.4-2.8 2.8zm43.9-43.8 59.4 59.4 2.8-2.8-59.4-59.4-2.8 2.8zm-66.5 289.9 2.8 2.8 59.4-59.4-2.8-2.8-59.4 59.4zm11.3-234.7 59.4 59.4 2.8-2.8-59.4-59.4-2.8 2.8zm22.7-22.7 59.4 59.4 2.8-2.8-59.4-59.4-2.8 2.8zm-60.9 179.7-59.4-59.4-2.8 2.8 59.4 59.4 2.8-2.8zm-70.7-48.1-2.8 2.8 59.4 59.4 2.8-2.8-59.4-59.4zm97.6-97.6 59.4 59.4 2.8-2.8-59.4-59.4-2.8 2.8zm-41 241.8-59.4 59.4 2.8 2.8 59.4-59.4-2.8-2.8zm25.4-107.4-59.4-59.4-2.8 2.8 59.4 59.4 2.8-2.8zm66.5-66.5-59.4-59.4-2.8 2.8 59.4 59.4 2.8-2.8zm22.7 110.3-2.8-2.8-59.4 59.4 2.8 2.8 59.4-59.4zm-128.7-123.1 59.4 59.4 2.8-2.8-59.4-59.4-2.8 2.8zm94.7 24.1-59.4-59.4-2.8 2.8 59.4 59.4 2.8-2.8zm56.6 299.8-59.4-59.4-2.8 2.8 59.4 59.4 2.8-2.8zm-151.3-388.9 2.8 2.8 59.4-59.4-2.8-2.8-59.4 59.4zm-38.2 377.6-2.8-2.8-59.4 59.4 2.8 2.8 59.4-59.4zm166.9 33.9-59.4-59.4-2.8 2.8 59.4 59.4 2.8-2.8zm55.1-55.1-59.4-59.4-2.8 2.8 59.4 59.4 2.8-2.8zm19.8-271.6-59.4 59.4 2.8 2.8 59.4-59.4-2.8-2.8zm-34-271.5L1422.3 0h-5.6l-25.4 25.4 2.8 2.8zm-52.3 609.5-59.4-59.4-2.8 2.8 59.4 59.4 2.8-2.8zm31.2-214.9-59.4 59.4 2.8 2.8 59.4-59.4-2.8-2.8zm-8.5 192.3-59.4-59.4-2.8 2.8 59.4 59.4 2.8-2.8zm-92-264.5 2.8-2.8-59.4-59.4-2.8 2.8 59.4 59.4zm58 29.7-2.8-2.8-59.4 59.4 2.8 2.8 59.4-59.4zm-11.3-11.3-2.8-2.8-59.4 59.4 2.8 2.8 59.4-59.4zm-106.1-165.4 2.8 2.8 59.4-59.4-2.8-2.8-59.4 59.4zm2.8 359.1 59.4-59.4-2.8-2.8-59.4 59.4 2.8 2.8zm103.3 97.7-59.4-59.4-2.8 2.8 59.4 59.4 2.8-2.8zm-32.5-145.7-2.8-2.8-59.4 59.4 2.8 2.8 59.4-59.4zm43.8 134.3-59.4-59.4-2.8 2.8 59.4 59.4 2.8-2.8zm-333.7-22.6L937.4 567l-2.8 2.8 59.4 59.4 2.8-2.8zm-267.3-89.1-59.4-59.4-2.8 2.8 59.4 59.4 2.8-2.8zm7.1 80.6 59.4-59.4-2.8-2.8-59.4 59.4 2.8 2.8zm48-70.7-2.8-2.8-59.4 59.4 2.8 2.8 59.4-59.4zm-69.3-247.5-59.4 59.4 2.8 2.8 59.4-59.4-2.8-2.8zm91.9 270.1-2.8-2.8-59.4 59.4 2.8 2.8 59.4-59.4zm22.7 22.7-2.8-2.8-59.4 59.4 2.8 2.8 59.4-59.4zm-11.3-11.3-2.8-2.8-59.4 59.4 2.8 2.8 59.4-59.4zM660.2 422.8l-59.4 59.4 2.8 2.8 59.4-59.4-2.8-2.8zm-19.8 203.6L581 567l-2.8 2.8 59.4 59.4 2.8-2.8zm-34 34L547 601l-2.8 2.8 59.4 59.4 2.8-2.8zm22.7-22.7-59.4-59.4-2.8 2.8 59.4 59.4 2.8-2.8zm66.4-66.4-59.4-59.4-2.8 2.8 59.4 59.4 2.8-2.8zm-121.6-56.6-2.8-2.8-59.4 59.4 2.8 2.8 59.4-59.4zM617.8 649l-59.4-59.4-2.8 2.8 59.4 59.4 2.8-2.8zm45.2-45.2-59.4-59.4-2.8 2.8 59.4 59.4 2.8-2.8zm178.2 0-2.8-2.8-59.4 59.4 2.8 2.8 59.4-59.4zm-189.5 11.3-59.4-59.4-2.8 2.8 59.4 59.4 2.8-2.8zm352.1-114.6-2.8 2.8 59.4 59.4 2.8-2.8-59.4-59.4zm82.1 36.8-59.4-59.4-2.8 2.8 59.4 59.4 2.8-2.8zm-66.5 66.5L960 544.4l-2.8 2.8 59.4 59.4 2.8-2.8zm155.6-22.6-2.8-2.8-59.4 59.4 2.8 2.8 59.4-59.4zm-123.1-9.9-59.4-59.4-2.8 2.8 59.4 59.4 2.8-2.8zm22.7-22.7-59.4-59.4-2.8 2.8 59.4 59.4 2.8-2.8zm89 21.2-2.8-2.8-59.4 59.4 2.8 2.8 59.4-59.4zm-22.6-22.6-2.8-2.8-59.4 59.4 2.8 2.8 59.4-59.4zm11.3 11.3-2.8-2.8-59.4 59.4 2.8 2.8 59.4-59.4zM919 503.4l-2.8-2.8-59.4 59.4 2.8 2.8 59.4-59.4zm-25.5-25.5-59.4 59.4 2.8 2.8 59.4-59.4-2.8-2.8zm36.8 36.8-2.8-2.8-59.4 59.4 2.8 2.8 59.4-59.4zm32.5 145.7L903.4 601l-2.8 2.8 59.4 59.4 2.8-2.8zm-55.1-168.3-2.8-2.8-59.4 59.4 2.8 2.8 59.4-59.4zm-356.4 0-2.8-2.8-59.4 59.4 2.8 2.8 59.4-59.4zm456.8 123-59.4-59.4-2.8 2.8 59.4 59.4 2.8-2.8zm-34 33.9-59.4-59.4-2.8 2.8 59.4 59.4 2.8-2.8zm11.4-11.3-59.4-59.4-2.8 2.8 59.4 59.4 2.8-2.8zM667.3 124.4l59.4 59.4 2.8-2.8-59.4-59.5-2.8 2.9zm151.3 323.8zm0 0-59.4-59.4-2.8 2.8 59.4 59.4 2.8-2.8zm-11.3 11.3-59.4-59.4-2.8 2.8 59.4 59.4 2.8-2.8zm4.2-123 59.4 59.4 2.8-2.8-59.4-59.4-2.8 2.8zm-43.8 43.8 59.4 59.4 2.8-2.8-59.4-59.4-2.8 2.8zM779 369l59.4 59.4 2.8-2.8-59.4-59.4-2.8 2.8zm106 12.8-59.4-59.4-2.8 2.8 59.4 59.4 2.8-2.8zm-89 89.1-59.4-59.4-2.8 2.8 59.4 59.4 2.8-2.8zm45.2-45.3zm-11.3 11.3zm-312.5 21.2-2.8-2.8-59.4 59.4 2.8 2.8 59.4-59.4zm267.2 24.1-59.4-59.4-2.8 2.8 59.4 59.4 2.8-2.8zm-106-100.4 2.8 2.8 59.4-59.4-2.8-2.8-59.4 59.4zm415.8-209.3 2.8-2.8-59.4-59.4-2.8 2.8 59.4 59.4zm147-147.1L1216 0h-5.6l28.2 28.2 2.8-2.8zM667.3 370.5l2.8 2.8 59.4-59.4-2.8-2.8-59.4 59.4zm84.8 144.2-59.4-59.4-2.8 2.8 59.4 59.4 2.8-2.8zM740.8 526l-59.4-59.4-2.8 2.8 59.4 59.4 2.8-2.8zm127.3-246.1 59.4 59.4 2.8-2.8-59.4-59.4-2.8 2.8zm55.1-55.1 59.4 59.4 2.8-2.8L926 222l-2.8 2.8zm-49.5 233.3-2.8-2.8-59.4 59.4 2.8 2.8 59.4-59.4zM962.8 304l-59.4-59.4-2.8 2.8 59.4 59.4 2.8-2.8zm-16.9-101.9 59.4 59.4 2.8-2.8-59.4-59.4-2.8 2.8zm-11.4 11.4 59.4 59.4 2.8-2.8-59.4-59.4-2.8 2.8zm39.6 79.2-59.4-59.4-2.8 2.8 59.4 59.4 2.8-2.8zm-117.3-89.1 2.8 2.8L919 147l-2.8-2.8-59.4 59.4zm11.3 11.3 2.8 2.8 59.4-59.4-2.8-2.8-59.4 59.4zm169.7-186.7L1066 0h-5.6L1035 25.4l2.8 2.8zM907.7 359.1l-59.4-59.4-2.8 2.8 59.4 59.4 2.8-2.8zm155.5-67.9-2.8-2.8-59.4 59.4 2.8 2.8 59.4-59.4zm-166.8 79.2L837 311l-2.8 2.8 59.4 59.4 2.8-2.8zm60.8-179.6 59.4 59.4 2.8-2.8L960 188l-2.8 2.8zM885 469.4l-2.8-2.8-59.4 59.4 2.8 2.8 59.4-59.4zm104.7-311.1 59.4 59.4 2.8-2.8-59.4-59.4-2.8 2.8zm14.1-14.1-2.8 2.8 59.4 59.4 2.8-2.8-59.4-59.4zm-14.1 192.3 2.8 2.8 59.4-59.4-2.8-2.8-59.4 59.4zm924.9 322.4 5.4 5.4v-5.7l-2.6-2.5-2.8 2.8zm5.4-645.1L1906.2 0h-5.7l19.5 19.5v-5.7zm-39.3 322.7 39.3 39.3v-5.6l-36.5-36.5-2.8 2.8zM155.3 636.3 192 673h5.6l-39.5-39.5-2.8 2.8zM1920 347.6l-25.2-25.2-2.8 2.8 28 28v-5.6zM726.7 667.5l-5.5 5.5h5.6l2.7-2.7-2.8-2.8zm189.5-316.9 2.8-2.8-59.4-59.4-2.8 2.8 59.4 59.4zm879.6 316.9-5.5 5.5h5.6l2.7-2.7-2.8-2.8zM1561 656.1l-2.8 2.8 14.1 14.1h5.6l-16.9-16.9zm359-348.2v-5.7l-2.6-2.5-2.8 2.8 5.4 5.4zM94.5 569.8l-2.8-2.8-59.4 59.4 2.8 2.8 59.4-59.4zm11.3 11.4-2.8-2.8-59.4 59.4 2.8 2.8 59.4-59.4zM21 615.1l2.8 2.8 59.4-59.4-2.8-2.8L21 615.1zm114.5 41-2.8 2.8 14.1 14.1h5.6l-16.9-16.9zm-18.4-219.2-59.4-59.4-2.8 2.8 59.4 59.4 2.8-2.8zm1789-125.9-2.8 2.8 16.7 16.7v-5.7l-13.9-13.8zm11.3-115.9 2.6-2.6v-5.7l-5.4 5.4 2.8 2.9zM370.3 667.5l-5.5 5.5h5.6l2.7-2.7-2.8-2.8zm541.6-587 2.8 2.8 59.4-59.4-2.8-2.8-59.4 59.4zm-601 43.9zm248.9 376.2L500.4 560l2.8 2.8 59.4-59.4-2.8-2.8zm-59.4 147 25.4 25.4h5.6l-28.2-28.2-2.8 2.8zm356.4 0 25.4 25.4h5.6l-28.2-28.2-2.8 2.8zm-353.6-84.8zm25.4-537.4L503.2 0h-5.6l28.2 28.2 2.8-2.8zM373.1 181l-59.4-59.5-2.8 2.9 59.4 59.4 2.8-2.8zM325 28.2 353.2 0h-5.6l-25.4 25.4 2.8 2.8zm1500.5 7.1 59.4 59.4 2.8-2.8-59.4-59.4-2.8 2.8zm11.3-11.3 59.4 59.4 2.8-2.8-59.4-59.4-2.8 2.8zm-773.6 623.6-2.8-2.8-28.2 28.2h5.6l25.4-25.4zm186.7-630.7 2.8-2.8L1238.6 0h-5.6l16.9 16.9zm660.4 52.3-59.4-59.4-2.8 2.8 59.4 59.4 2.8-2.8zM1399.7 0h-5.6L1380 14.1l2.8 2.8L1399.7 0zm-1052 644.8L319.5 673h5.6l25.4-25.4-2.8-2.8zm1221.8 2.8 25.4 25.4h5.6l-28.2-28.2-2.8 2.8zm244.7-601 59.4 59.4 2.8-2.8-59.4-59.4-2.8 2.8zM752.1 336.5l-2.8-2.8-59.4 59.4 2.8 2.8 59.4-59.4zm15.6-43.8 2.8 2.8 59.4-59.4-2.8-2.8-59.4 59.4zm-11.3-11.3 2.8 2.8 59.4-59.4-2.8-2.8-59.4 59.4zM745 270l2.8 2.8 59.4-59.4-2.8-2.8L745 270zm852.8-244.6L1572.4 0h-5.6l28.2 28.2 2.8-2.8zm-864 233.3 2.8 2.8 59.4-59.4-2.8-2.8-59.4 59.4zm100.3-77.8 2.8 2.8 59.4-59.4-2.8-2.8-59.4 59.4zm-166.8-56.5zm55.1 123 2.8 2.8 59.4-59.4-2.8-2.8-59.4 59.4zm59.4 59.4 59.4-59.4-2.8-2.8L779 304l2.8 2.8zm164.1-192.3 2.8 2.8 59.4-59.4-2.8-2.8-59.4 59.4zm66.4 21.2 59.4 59.4 2.8-2.8-59.4-59.4-2.8 2.8zm-55.1-9.9 2.8 2.8 59.4-59.4-2.8-2.8-59.4 59.4zm66.4-1.4 59.4 59.4 2.8-2.8-59.4-59.4-2.8 2.8zm-89-21.2 2.8 2.8 59.4-59.4-2.8-2.8-59.4 59.4zm-34-34 2.8 2.8 59.4-59.4-2.8-2.8-59.4 59.4zm22.6 22.6 2.8 2.8 59.4-59.4-2.8-2.8-59.4 59.4zm-74.9 103.3 59.4-59.4-2.8-2.8-59.4 59.4 2.8 2.8zM482 244.6 422.6 304l2.8 2.8 59.4-59.4-2.8-2.8zM962.8 369l-2.8-2.8-59.4 59.4 2.8 2.8 59.4-59.4zM400 281.3l2.8 2.9 59.4-59.4-2.8-2.8-59.4 59.3zm-63.7 114.6 59.4-59.4-2.8-2.8-59.4 59.4 2.8 2.8zm75-103.2 2.8 2.8 59.4-59.4-2.8-2.8-59.4 59.4zm50.9 155.5-59.4-59.4-2.8 2.8 59.4 59.4 2.8-2.8zm-11.3 11.3-59.4-59.4-2.8 2.8 59.4 59.4 2.8-2.8zm595.4-357.8 59.4 59.4 2.8-2.8-59.4-59.4-2.8 2.8zM462.2 448.2zm-50.9-67.9 59.4 59.4 2.8-2.8-59.4-59.4-2.8 2.8zm106.1 12.8L458 333.7l-2.8 2.8 59.4 59.4 2.8-2.8zM366 247.4l2.9 2.8 59.4-59.4-2.8-2.8-59.5 59.4zm118.8 178.2zm-45.2-223.5-2.8-2.8-59.4 59.4 2.8 2.8 59.4-59.4zm11.3 11.3-2.8-2.8-59.4 59.4 2.8 2.8 59.4-59.4zm205-77.7 59.4 59.4 2.8-2.8-59.4-59.4-2.8 2.8zM473.5 436.9zm11.3-11.3-59.4-59.4-2.8 2.8 59.4 59.4 2.8-2.8zm-45.2 45.3-59.4-59.4-2.8 2.8 59.4 59.4 2.8-2.8zm673.2-189.5 2.8 2.8 59.4-59.4-2.8-2.8-59.4 59.4zm70.7-48.1-59.4 59.4 2.8 2.8 59.4-59.4-2.8-2.8zm-82.1 36.7 2.8 2.8 59.4-59.4-2.8-2.8-59.4 59.4zm96.2 155.6-59.4-59.4-2.8 2.8 59.4 59.4 2.8-2.8zm-107.5-166.9 2.8 2.8 59.4-59.4-2.8-2.8-59.4 59.4zm107.5 166.9zM1035 381.8l2.8 2.8 59.4-59.4-2.8-2.8-59.4 59.4zm73.5-45.3-2.8-2.8-59.4 59.4 2.8 2.8 59.4-59.4zm-22.7-22.7-2.8-2.8-59.4 59.4 2.8 2.8 59.4-59.4zm100.4 123.1-59.4-59.4-2.8 2.8 59.4 59.4 2.8-2.8zm-200.8-45.3-2.8-2.8-59.4 59.4 2.8 2.8 59.4-59.4zm22.7 22.7-2.8-2.8-59.4 59.4 2.8 2.8 59.4-59.4zm-34-34-2.8-2.8-59.4 59.4 2.8 2.8 59.4-59.4zm22.7 22.7-2.8-2.8-59.4 59.4 2.8 2.8 59.4-59.4zm82-155.6 2.8 2.8 59.4-59.4-2.8-2.8-59.4 59.4zm-7 52.4-59.4 59.4 2.8 2.8 59.4-59.4-2.8-2.8zm-52.4 125.8-2.8-2.8-59.4 59.4 2.8 2.8 59.4-59.4zm121.6 56.6-59.4-59.4-2.8 2.8 59.4 59.4 2.8-2.8zm26.9-323.9 2.8 2.8 59.4-59.4-2.8-2.8-59.4 59.4zm-32.5-145.7 59.4 59.4 2.8-2.8-59.4-59.4-2.8 2.8zm46.6 159.8 59.4-59.4-2.8-2.8-59.4 59.4 2.8 2.8zM1124 24l59.4 59.4 2.8-2.8-59.4-59.4-2.8 2.8zm-33.9 33.9 59.4 59.4 2.8-2.8-59.4-59.4-2.8 2.8zm22.6-22.6 59.4 59.4 2.8-2.8-59.4-59.4-2.8 2.8zm137.2 86.2-59.4 59.4 2.8 2.8 59.4-59.4-2.8-2.8zm-148.5-74.9 59.4 59.4 2.8-2.8-59.4-59.4-2.8 2.8zm73.6 401.6-59.4-59.4-2.8 2.8 59.4 59.4 2.8-2.8zm-22.7 22.7-59.4-59.4-2.8 2.8 59.4 59.4 2.8-2.8zm-73.5-401.7 59.4 59.4 2.8-2.8-59.4-59.4-2.8 2.8zm84.8 390.3-59.4-59.4-2.8 2.8 59.4 59.4 2.8-2.8zm-55.1 55.2-59.4-59.4-2.8 2.8 59.4 59.4 2.8-2.8zm121.6-56.6-2.8-2.8-59.4 59.4 2.8 2.8 59.4-59.4zm-35.3-213.5-59.4 59.4 2.8 2.8 59.4-59.4-2.8-2.8zM1097.2 526l-59.4-59.4-2.8 2.8 59.4 59.4 2.8-2.8zm77.8-77.8zm-4.3-114.5-2.8 2.8 59.4 59.4 2.8-2.8-59.4-59.4zm591.2 299.8-39.5 39.5h5.6l36.7-36.7-2.8-2.8zM715.3 656.1 698.4 673h5.6l14.1-14.1-2.8-2.8zm1072-107.5-59.4-59.4-2.8 2.8 59.4 59.4 2.8-2.8zm-14.1 96.2L1745 673h5.6l25.4-25.4-2.8-2.8zm80.6-97.6-2.8-2.8-59.4 59.4 2.8 2.8 59.4-59.4zm31.1 31.2-59.4 59.4 2.8 2.8 59.4-59.4-2.8-2.8zm25.5-152.8zm-62.2-56.6 59.4 59.4 2.8-2.8-59.4-59.4-2.8 2.8zm71.8 112v-5.7l-39.3 39.3 2.8 2.8L1920 481zm-400 88.8-2.8-2.8-59.4 59.4 2.8 2.8 59.4-59.4zm-11.3-11.3-2.8-2.8-59.4 59.4 2.8 2.8 59.4-59.4zm22.6 22.7-2.8-2.8-59.4 59.4 2.8 2.8 59.4-59.4zM1899 436.9zm-401.6 110.3-2.8-2.8-59.4 59.4 2.8 2.8 59.4-59.4zm56.6 56.6-2.8-2.8-59.4 59.4 2.8 2.8 59.4-59.4zm52.3-125.9-59.4 59.4 2.8 2.8 59.4-59.4-2.8-2.8zm-25.5 158.4 36.7 36.7h5.6l-39.5-39.5-2.8 2.8zm-38.1-43.8-2.8-2.8-59.4 59.4 2.8 2.8 59.4-59.4zM192.1 361.9l2.8-2.8-59.4-59.4-2.8 2.8 59.4 59.4zm58 7.1-2.8-2.8-59.4 59.4 2.8 2.8 59.4-59.4zm1192.1 168.3-59.4-59.4-2.8 2.8 59.4 59.4 2.8-2.8zM135.5 195.1l59.4-59.4-2.8-2.8-59.4 59.4 2.8 2.8zm125.9 185.2-2.8-2.8-59.4 59.4 2.8 2.8 59.4-59.4zM146.8 562.8l59.4-59.4-2.8-2.8L144 560l2.8 2.8zM359 656.1 342.1 673h5.6l14.1-14.1-2.8-2.8zm-19.8-19.8-2.8-2.8-39.5 39.5h5.6l36.7-36.7zM250 12.6l-2.8-2.8-59.4 59.4 2.8 2.8L250 12.6zM1884.9 222l-59.4 59.4 2.8 2.8 59.4-59.4-2.8-2.8zm35.1-103.1-39.3 39.3 2.8 2.9 36.5-36.5v-5.7zM1371.5 5.5 1377 0h-5.6l-2.7 2.7 2.8 2.8zM1759 36.7l2.8 2.8L1801.3 0h-5.6L1759 36.7zm77.8 343.6 59.4 59.4 2.8-2.8-59.4-59.4-2.8 2.8zM194.9 2.8 192.1 0h-5.6l5.6 5.6 2.8-2.8zm495 33.9 2.8 2.8L732.2 0h-5.6l-36.7 36.7zm183.8 0L837 0h-5.6l39.5 39.5 2.8-2.8zm387.5-31.1 2.8-2.8-2.8-2.8h-5.6l5.6 5.6zm537.4 531.7-59.4-59.4-2.8 2.8 59.4 59.4 2.8-2.8zm-1425.5 0-59.4-59.4-2.8 2.8 59.4 59.4 2.8-2.8zm-11.3 11.3zm0 0-59.4-59.4-2.8 2.8 59.4 59.5 2.8-2.9zm118.8 118.8-2.8 2.8 2.8 2.8h5.6l-5.6-5.6zm-52.3-120.2-2.8-2.8-59.4 59.4 2.8 2.8 59.4-59.4zm267.2 89.1-2.8-2.8-39.5 39.5h5.6l36.7-36.7zm-183.8 0 36.7 36.7h5.6l-39.5-39.5-2.8 2.8zm-19.8 19.8-2.8 2.8 14.1 14.1h5.6l-16.9-16.9zm-196.6-41-59.4-59.4-2.8 2.8 59.4 59.4 2.8-2.8zm-22.6 22.6-59.4-59.4-2.8 2.8 59.4 59.4 2.8-2.8zm18.4-137.2-2.8 2.8 59.4 59.4 2.8-2.8-59.4-59.4zm-41 159.9L190.7 601l-2.8 2.8 59.4 59.4 2.8-2.8zm33.9-34L224.6 567l-2.8 2.8 59.4 59.4 2.8-2.8zM261.4 649 202 589.6l-2.8 2.8 59.4 59.4 2.8-2.8zm442.7-4.2L675.9 673h5.6l25.4-25.4-2.8-2.8zm-364.9-73.5-59.4-59.4-2.8 2.8 59.4 59.4 2.8-2.8zm-32.6 32.5-59.4-59.4-2.8 2.8 59.4 59.4 2.8-2.8zm541.7 52.3-2.8 2.8 14.1 14.1h5.6l-16.9-16.9zm287.1 4.3 2.8 2.8 59.4-59.4-2.8-2.8-59.4 59.4zm108.7 12.6-28.2-28.2-2.8 2.8 25.4 25.4h5.6zm-19.6-36.7 36.7 36.7h5.6l-39.5-39.5-2.8 2.8zm25.4-158.4-59.4 59.4 2.8 2.8 59.4-59.4-2.8-2.8zm14.2 14.2-2.8-2.8-59.4 59.4 2.8 2.8 59.4-59.4zm96.1 8.4-2.8 2.8 59.4 59.4 2.8-2.8-59.4-59.4zm45.3 133L1366 673h5.6l36.7-36.7-2.8-2.8zm11.3 11.3-28.2 28.2h5.6l25.4-25.4-2.8-2.8zm-364.9-8.5-2.8-2.8-39.5 39.5h5.6l36.7-36.7zM837 667.4l-2.8 2.8 2.8 2.8h5.6l-5.6-5.6zm593.9-118.8-59.4-59.4-2.8 2.8 59.4 59.4 2.8-2.8zm-712.7 0-59.4-59.4-2.8 2.8 59.4 59.4 2.8-2.8zm149.9 87.7 36.7 36.7h5.6l-39.5-39.5-2.8 2.8zm322.4 33.9 2.8 2.8h5.6l-5.6-5.6-2.8 2.8zm-543-169.7-2.8 2.8 59.4 59.4 2.8-2.8-59.4-59.4zm435.6 167-5.5 5.5h5.6l2.7-2.7-2.8-2.8zm-11.3-11.4-16.9 16.9h5.6l14.1-14.1-2.8-2.8zM9.7 425.6 69.1 485l2.8-2.8-59.4-59.4-2.8 2.8zm96.1 22.6zm-73.5-45.3 59.4 59.4 2.8-2.8-59.4-59.4-2.8 2.8zm73.5 45.3-59.4-59.4-2.8 2.8L103 451l2.8-2.8zM94.5 213.5l-2.8-2.8L32.3 270l2.8 2.8 59.4-59.3zM14 673l2.7-2.7-2.8-2.9-5.6 5.6H14zm-1.5-66.4 59.4-59.4-2.8-2.8-59.4 59.4 2.8 2.8zM21 414.3l59.4 59.4 2.8-2.8-59.4-59.4-2.8 2.8zm62.2-212.2-2.8-2.8L21 258.7l2.8 2.8 59.4-59.4zm74.9 372 59.4-59.4-2.8-2.8-59.4 59.4 2.8 2.8zm-29.7 29.7-2.8-2.8-59.4 59.4 2.8 2.8 59.4-59.4zm-82-319.6 59.4-59.4-2.8-2.8-59.4 59.4 2.8 2.8zm77.8 383.2-2.8 2.8 2.8 2.8h5.6l-5.6-5.6zm-7.1-74.9-2.8-2.8-59.4 59.4 2.8 2.8 59.4-59.4zM12.4 250.2l59.4-59.4L69 188 9.6 247.4l2.8 2.8zm89.2 267.3 59.4-59.4-2.8-2.8-59.4 59.4 2.8 2.8zM9.6 69.2 69 128.6l2.8-2.8-59.4-59.4-2.8 2.8zm73.6 45.3L23.8 55.1 21 57.9l59.4 59.4 2.8-2.8zm77.7-77.8L124.2 0h-5.6l39.5 39.5 2.8-2.8zm19.9 441.2-59.4 59.4 2.8 2.8 59.4-59.4-2.8-2.8zM28 526 0 498v5.7l25.2 25.2L28 526zm-11.3 11.3zM28 526zm11.3-11.3L0 475.3v5.7l36.5 36.5 2.8-2.8zm-22.6 22.6L0 520.6v5.7l13.9 13.9 2.8-2.9zM5.4 548.6zM2.6 656.1 0 658.7v5.7l5.4-5.4-2.8-2.9zm2.8-107.5L0 543.2v5.7l2.6 2.6 2.8-2.9zM13.8 0 0 13.8v5.7L19.5 0h-5.7zm22.7 333.7L0 370.2v5.7l39.3-39.4-2.8-2.8zM5.4 192.3 0 186.8v5.7l2.6 2.6 2.8-2.8zM28 169.7l-28-28v5.5l25.2 25.3 2.8-2.8zm11.3-11.4L0 119v5.6l36.5 36.5 2.8-2.8zm-25.4 25.5 2.8-2.8L0 164.2v5.7l13.9 13.9zM2.6 299.7 0 302.3v5.7l5.4-5.4-2.8-2.9zm22.6 22.7L0 347.6v5.7l28-28-2.8-2.9zm-11.3-11.3L0 324.9v5.7l16.7-16.7-2.8-2.8zM175 673l-28.2-28.2-2.8 2.8 25.4 25.4h5.6zm8.6-658.9L169.5 0h-5.6l16.9 16.9 2.8-2.8zm1653.2 278.6 2.8 2.8 59.4-59.4-2.8-2.8-59.4 59.4zm83.2 210.9v-5.7l-28 28 2.8 2.8 25.2-25.1zM1848.1 304l2.8 2.8 59.4-59.4-2.8-2.8-59.4 59.4zM57.7 295.5l59.4-59.4-2.8-2.8-59.4 59.4 2.8 2.8zm52.4-125.9 2.8 2.8 59.4-59.4-2.8-2.8-59.4 59.4zm14.1 14.1 59.4-59.4-2.8-2.8-59.4 59.4 2.8 2.8zM69 306.8l59.4-59.4-2.8-2.8L66.2 304l2.8 2.8zm1851-165.2-28 28 2.8 2.9 25.2-25.2v-5.7zm-135.5 514.5-16.9 16.9h5.6l14.1-14.1-2.8-2.8zm-234.8 11.3-2.8 2.8 2.8 2.8h5.6l-5.6-5.6zm-110.3.1-5.5 5.5h5.6l2.7-2.7-2.8-2.8zm397.4-18.4 2.8 2.8 59.4-59.4-2.8-2.8-59.4 59.4zm-408.7 7-16.9 16.9h5.6l14.1-14.1-2.8-2.8zm475.2 14.1 2.8 2.8h5.6l-5.6-5.6-2.8 2.8zm-55.1-9.8 2.8 2.8 59.4-59.4-2.8-2.8-59.4 59.4zM32.3 46.6 91.7 106l2.8-2.8-59.4-59.4-2.8 2.8zm1873.8 620.8zm-2.8-486.5 2.8 2.9 13.9-13.9v-5.7l-16.7 16.7zM172.3 25.4 146.9 0h-5.6l28.2 28.2 2.8-2.8zm1733.8 158.4zM98.8 158.3l2.8 2.8 59.4-59.4-2.8-2.8-59.4 59.4zM66.2 12.6 125.6 72l2.8-2.8L69 9.8l-2.8 2.8zM43.6 35.3 103 94.7l2.8-2.8-59.4-59.4-2.8 2.8zM54.9 24l59.4 59.4 2.8-2.8-59.4-59.4-2.8 2.8zM1920 520.6l-16.7 16.7 2.8 2.8 13.9-13.8v-5.7zm-1791.6-95L69 366.2l-2.8 2.8 59.4 59.4 2.8-2.8zm-15.5-103.2-2.8 2.8 59.4 59.4 2.8-2.8-59.4-59.4zM110.1 526l2.8 2.8 59.4-59.4-2.8-2.8-59.4 59.4zm1807.3 25.5 2.6-2.6v-5.7l-5.4 5.4 2.8 2.9zm-1789-125.9zm32.6-32.5-59.4-59.4-2.8 2.8 59.4 59.4 2.8-2.8zm22.6-22.7L124.2 311l-2.8 2.8 59.4 59.4 2.8-2.8zm1021.1 285.7-2.8 2.8L1216 673h5.6l-16.9-16.9zM135.5 551.5l59.4-59.4-2.8-2.8-59.4 59.4 2.8 2.8zM1380 124.4l59.4 59.4 2.8-2.8-59.4-59.4-2.8 2.8zm174 301.2zm-2.8-181-59.4 59.4 2.8 2.8 59.4-59.4-2.8-2.8zm2.8 181-59.4-59.4-2.8 2.8 59.4 59.4 2.8-2.8zm-15.6-253.2 59.4-59.4-2.8-2.8-59.4 59.4 2.8 2.8zm48.1 220.7-59.4-59.4-2.8 2.8 59.4 59.4 2.8-2.8zM1480.4 24l59.4 59.4 2.8-2.8-59.4-59.4-2.8 2.8zm-11.3 11.3 59.4 59.4 2.8-2.8-59.4-59.4-2.8 2.8zm22.6-22.7 59.4 59.4 2.8-2.8-59.4-59.4-2.8 2.8zm-33.9 34 59.4 59.4 2.8-2.8-59.4-59.4-2.8 2.8zM213.3 451l59.4-59.4-2.8-2.8-59.4 59.4 2.8 2.8zm1192.1-55.1 59.4-59.4-2.8-2.8-59.4 59.4 2.8 2.8zm137.2 41-59.4-59.4-2.8 2.8 59.4 59.4 2.8-2.8zm-25.4-226.2-59.4 59.3 2.8 2.8 59.4-59.3-2.8-2.8zm29.7-29.8 2.8 2.8 59.4-59.4-2.8-2.8-59.4 59.4zm-4.2 55.2-2.8-2.8-59.4 59.4 2.8 2.8 59.4-59.4zm-11.4-11.3-2.8-2.8-59.4 59.4 2.8 2.8 59.4-59.4zm-96.1 22.6 2.8 2.8 59.4-59.4-2.8-2.8-59.4 59.4zm73.5-45.3-2.8-2.8-59.4 59.4 2.8 2.8 59.4-59.4zm-11.3 280.1-59.4-59.4-2.8 2.8 59.4 59.4 2.8-2.8zm-50.9-424.3 59.4 59.4 2.8-2.8-59.4-59.4-2.8 2.8zm73.5 401.6-59.4-59.4-2.8 2.8 59.4 59.4 2.8-2.8zm-11.3 11.4-59.4-59.4-2.8 2.8 59.4 59.4 2.8-2.8zm22.6-22.7-59.4-59.4-2.8 2.8 59.4 59.4 2.8-2.8zm55.2 9.9-2.8-2.8-59.4 59.4 2.8 2.8 59.4-59.4zm-25.5-263 59.4-59.4-2.8-2.8-59.4 59.4 2.8 2.8zm-22.6 127.3-2.8 2.8 59.4 59.4 2.8-2.8-59.4-59.4zm59.4 147-2.8-2.8-59.4 59.4 2.8 2.8 59.4-59.4zm-66.5-21.2zm-80.6-275.7 2.8-2.8-59.4-59.4-2.8 2.8 59.4 59.4zm425.7 287-59.4-59.4-2.8 2.8 59.4 59.4 2.8-2.8zm-473.8-357.8 59.4 59.4 2.8-2.8-59.4-59.4-2.8 2.8zm32.6-32.5 59.4 59.4 2.8-2.8-59.4-59.4-2.8 2.8zm7 244.7-2.8-2.8-59.4 59.4 2.8 2.8 59.4-59.4zm11.4 212.1-59.4-59.4-2.8 2.8 59.4 59.4 2.8-2.8zm11.3-11.3-59.4-59.4-2.8 2.8 59.4 59.4 2.8-2.8zm-11.4-189.5-2.8-2.8-59.4 59.4 2.8 2.8 59.4-59.4zm251.8-169.7-2.8 2.8 59.4 59.4 2.8-2.8-59.4-59.4zm-96.2 214.9-59.4-59.4-2.8 2.8 59.4 59.4 2.8-2.8zm93.4-33.9 2.8 2.8 59.4-59.4-2.8-2.8-59.4 59.4zm-130.2 226.2 59.4-59.4-2.8-2.8-59.4 59.4 2.8 2.8zm97.6-371.9 59.4 59.4 2.8-2.8-59.4-59.4-2.8 2.8zm14.2 186.7-59.4 59.4 2.8 2.8 59.4-59.4-2.8-2.8zm-25.5-175.4 59.4 59.4 2.8-2.8-59.4-59.4-2.8 2.8zm-22.6 22.6 59.4 59.4 2.8-2.8-59.4-59.4-2.8 2.8zm11.3-11.2 59.4 59.4 2.8-2.8-59.4-59.4-2.8 2.8zm-33.9-144.3 2.8 2.8 59.4-59.4-2.8-2.8-59.4 59.4zM1759 393.1l2.8 2.8 59.4-59.4-2.8-2.8-59.4 59.4zm-33.9-257.4 59.4 59.4 2.8-2.8-59.4-59.4-2.8 2.8zM1675.6 304l-59.4-59.4-2.8 2.8 59.4 59.4 2.8-2.8zm127.3 110.3 59.4 59.4 2.8-2.8-59.4-59.4-2.8 2.8zm59.4-215-59.4 59.4 2.8 2.8 59.4-59.4-2.8-2.8zm-125.9-74.9 59.4 59.4 2.8-2.8-59.4-59.4-2.8 2.8zm11.3-11.3 59.4 59.4 2.8-2.8-59.4-59.4-2.8 2.8zm43.9 134.3 2.8 2.8 59.4-59.4-2.8-2.8-59.4 59.4zm-43.9 134.4 2.8 2.8 59.4-59.4-2.8-2.8-59.4 59.4zm-89.1-267.3 2.8 2.8 59.4-59.4-2.8-2.8-59.4 59.4zm58 29.7-2.8 2.8 59.4 59.4 2.8-2.8-59.4-59.4zm-46.7-18.4 2.8 2.8 59.4-59.4-2.8-2.8-59.4 59.4zm103.3 162.6-59.4 59.4 2.8 2.8 59.4-59.4-2.8-2.8zM1624.7 80.5l2.8 2.8 59.4-59.4-2.8-2.8-59.4 59.4zm96.1 333.8-2.8-2.8-59.4 59.4 2.8 2.8 59.4-59.4zM1636 91.8l2.8 2.8 59.4-59.4-2.8-2.8-59.4 59.4zm11.3 11.4 2.8 2.8 59.4-59.4-2.8-2.8-59.4 59.4zm39.6 189.5-59.4-59.4-2.8 2.8 59.4 59.4 2.8-2.8zm-58 57.9 2.8-2.8-59.4-59.4-2.8 2.8 59.4 59.4zm80.6 52.4-2.8-2.8-59.4 59.4 2.8 2.8 59.4-59.4zm-128.7-188.1 2.8 2.8 59.4-59.4-2.8-2.8-59.4 59.4zm.1 65 59.4 59.4 2.8-2.8-59.4-59.4-2.8 2.8zm-11.4-76.3 2.8 2.8 59.4-59.4-2.8-2.8-59.4 59.4zm128.7 188-2.8-2.8-59.4 59.4 2.8 2.8 59.4-59.4zm-140-89.1 59.4 59.4 2.8-2.8-59.4-59.4-2.8 2.8zm117.4 66.5-2.8-2.8-59.4 59.4 2.8 2.8 59.4-59.4zm-151.3-210.7 2.8 2.8 59.4-59.4-2.8-2.8-59.4 59.4zM779 12.6 838.4 72l2.8-2.8-59.4-59.4-2.8 2.8zm489.3 67.9 2.8 2.8 59.4-59.4-2.8-2.8-59.4 59.4zM767.7 24l59.4 59.4 2.8-2.8-59.4-59.4-2.8 2.8zM885 25.4 859.6 0H854l28.2 28.2 2.8-2.8zm-59.4 147L885 113l-2.8-2.8-59.4 59.4 2.8 2.8zM733.8 57.9l59.4 59.4 2.8-2.8-59.4-59.4-2.8 2.8zM745 46.6l59.4 59.4 2.8-2.8-59.4-59.4-2.8 2.8zm11.4-11.3 59.4 59.4 2.8-2.8-59.4-59.4-2.8 2.8zm289.9 1.4 2.8 2.8L1088.6 0h-5.6l-36.7 36.7zm158.4 158.4 59.4-59.4-2.8-2.8-59.4 59.4 2.8 2.8zm25.4-158.4L1193.4 0h-5.6l39.5 39.5 2.8-2.8zM893.5 16.9l2.8-2.8L882.2 0h-5.6l16.9 16.9zM1257 69.2l2.8 2.8 59.4-59.4-2.8-2.8-59.4 59.4zm-534.6 0 59.4 59.4 2.8-2.8-59.4-59.4-2.8 2.8zm304-52.3L1043.3 0h-5.6l-14.1 14.1 2.8 2.8zM904.8 5.6l2.8-2.8-2.8-2.8h-5.6l5.6 5.6zm107.5-2.9 2.8 2.8 5.5-5.5h-5.6l-2.7 2.7zM811.5 158.3l2.8 2.8 59.4-59.4-2.8-2.8-59.4 59.4zm-664.7 48.1 59.4-59.4-2.8-2.8-59.4 59.4 2.8 2.8zM202 83.3l59.4-59.4-2.8-2.8-59.4 59.4 2.8 2.8zM302.4 5.5l5.5-5.5h-5.6l-2.7 2.7 2.8 2.8zm-99 345.1 2.8-2.8-59.4-59.4-2.8 2.8 59.4 59.4zm58-57.9L202 233.3l-2.8 2.8 59.4 59.4 2.8-2.8zm-43.9 43.8-59.4-59.4-2.8 2.8 59.4 59.4 2.8-2.8zm96.2-319.6L330.6 0H325l-14.1 14.1 2.8 2.8zM250 304l-59.4-59.4-2.8 2.8 59.4 59.4 2.8-2.8zM655.9 2.7l2.8 2.8 5.5-5.5h-5.6l-2.7 2.7zM704 0l-25.4 25.4 2.8 2.8L709.6 0H704zM333.5 36.7l2.8 2.8L375.8 0h-5.6l-36.7 36.7zm356.4 65 59.4 59.4 2.8-2.8-59.4-59.4-2.8 2.8zm-11.3 11.4 59.4 59.4 2.8-2.8-59.4-59.4-2.8 2.8zm-8.5-96.2L687 0h-5.6l-14.1 14.1 2.8 2.8zM548.5 5.6l2.8-2.8-2.8-2.8h-5.6l5.6 5.6zm-31.2 31.1L480.7 0H475l39.5 39.5 2.8-2.8zm19.9-19.8 2.8-2.8L525.9 0h-5.6l16.9 16.9zm1339.2 552.9-2.8-2.8-59.4 59.4 2.8 2.8 59.4-59.4zm-77.8-255.9-2.8-2.8-59.4 59.4 2.8 2.8 59.4-59.4zm-14.1-14.2-59.4 59.4 2.8 2.8 59.4-59.4-2.8-2.8zm25.4 226.3-59.4-59.4-2.8 2.8 59.4 59.4 2.8-2.8zm-80.5-103.2-59.4 59.4 2.8 2.8 59.4-59.4-2.8-2.8zm91.9 91.9-59.4-59.4-2.8 2.8 59.4 59.4 2.8-2.8zm-15.6 103.2 59.4-59.4-2.8-2.8-59.4 59.4 2.8 2.8zm48.1-135.7-59.4-59.4-2.8 2.8L1851 485l2.8-2.8zM1561 551.5l59.4-59.4-2.8-2.8-59.4 59.4 2.8 2.8zm215 8.4-59.4-59.4-2.8 2.8 59.4 59.4 2.8-2.8zm-89.1 89.1-59.4-59.4-2.8 2.8 59.4 59.4 2.8-2.8zm-11.3 11.4-59.4-59.4-2.8 2.8 59.4 59.4 2.8-2.8zm22.6-22.7-59.4-59.4-2.8 2.8 59.4 59.4 2.8-2.8zm-55.2-123-2.8-2.8-59.4 59.4 2.8 2.8 59.4-59.4zm89.2 89.1-59.4-59.4-2.8 2.8 59.4 59.4 2.8-2.8zm-22.7 22.6-59.4-59.4-2.8 2.8 59.4 59.4 2.8-2.8zm55.2-55.1-59.4-59.4-2.8 2.8 59.4 59.4 2.8-2.8zm-43.9 43.8-59.4-59.4-2.8 2.8 59.4 59.4 2.8-2.8zm166.9-166.9zm-519-312.5 59.4 59.4 2.8-2.8-59.4-59.4-2.8 2.8zm33.9-99 2.8 2.8L1444.9 0h-5.6l-36.7 36.7zm183.9 0L1549.8 0h-5.6l39.5 39.5 2.8-2.8zm19.8-19.8 2.8-2.8L1595 0h-5.6l16.9 16.9zm-292.7 108.9 2.8 2.8 59.4-59.4-2.8-2.8-59.4 59.4zm-22.7-22.6 2.8 2.8 59.4-59.4-2.8-2.8-59.4 59.4zm11.3 11.3 2.8 2.8 59.4-59.4-2.8-2.8-59.4 59.4zM1617.6 5.6l2.8-2.8-2.8-2.8h-5.6l5.6 5.6zM1773.1 0l-25.4 25.4 2.8 2.8L1778.7 0h-5.6zm18.5 69.2 59.4 59.4 2.8-2.8-59.4-59.4-2.8 2.8zm82 141.4-59.4 59.4 2.8 2.8 59.4-59.4-2.8-2.8zm-70.7-152.7 59.4 59.4 2.8-2.8-59.4-59.4-2.8 2.8zm84.8 390.3-59.4-59.4-2.8 2.8 59.4 59.4 2.8-2.8zM1759 101.7l59.4 59.4 2.8-2.8-59.4-59.4-2.8 2.8zm-19.8-84.8L1756.1 0h-5.6l-14.1 14.1 2.8 2.8zm-11.3-11.4 5.5-5.5h-5.6l-2.7 2.7 2.8 2.8zm-448.3 86.3 2.8 2.8 59.4-59.4-2.8-2.8-59.4 59.4z" opacity=".2" fill="#fff"/><circle cx="960" cy="336.5" r="234.1" fill="#e0e0e0"/><path class="st3" d="M1072.8 356.9c-24.8 0-34.7-17.1-35.1-17.9l11.7-6.5c.2.4 6.8 11.1 23.5 11.1 18.6 0 45.1-14.5 54.8-36.1 5.2-11.6 5.7-22.6 1.6-30.4-3.4-6.2-9.7-10.1-18.7-11.5-20.4-3.2-30.7 27.5-30.9 27.8l-12.7-4.2c.6-1.7 14-41.7 45.6-36.8 16.6 2.6 24.6 11.4 28.4 18.3 6.2 11.4 5.8 26.8-1.1 42.2-12.2 27.2-44.3 44-67.1 44z"/><ellipse cx="960" cy="374.7" rx="190" ry="14.8" fill="#bbb"/><path class="st3" d="M852.4 329.4c19.3 38.6 49 53.4 55.7 70.5H1012c6.7-17.1 36.4-31.9 55.7-70.5 12.9-25.8 20.2-56.6 23.6-74.2 1.4-7.3-4.2-14.1-11.7-14.1H840.5c-7.5 0-13.1 6.8-11.7 14.1 3.4 17.6 10.7 48.4 23.6 74.2z"/><path d="M1150 374.7c0 8.2-85.1 14.8-190 14.8s-190-6.7-190-14.8c0 15.8 32 29.8 80.8 38.3l7.5 9.9c0 4.9 45.5 8.9 101.7 8.9s101.7-4 101.7-8.9l7.5-9.9c48.8-8.4 80.8-22.5 80.8-38.3z" fill="#999"/></svg>