<svg xmlns="http://www.w3.org/2000/svg" viewBox="0 0 1920 673" xml:space="preserve"><style>.st4{fill:#599bfb}.st5{fill:#5098fa}.st6{fill:#5ca7f8}.st10{fill:#61b3c9}</style><linearGradient id="a" gradientUnits="userSpaceOnUse" x1="1.713" y1="9.49" x2="1917.633" y2="663.287"><stop offset="0" stop-color="#5d96fd"/><stop offset=".397" stop-color="#63aef0"/><stop offset=".661" stop-color="#65b9eb"/><stop offset=".711" stop-color="#66bee5"/><stop offset=".851" stop-color="#67c6da"/><stop offset="1" stop-color="#67c9d6"/></linearGradient><path fill="url(#a)" d="M0 0h1920v673H0z"/><path fill="#518afd" d="M95.7 107H195v99.3H95.7z"/><path d="M195 206.3h99.3v99.3H195zm99.3-99.3h99.3v99.3h-99.3z" fill="#70a5f9"/><path fill="#5592fb" d="M393.7 206.3H493v99.3h-99.3z"/><path class="st4" d="M601.7 107H701v99.3h-99.3z"/><path class="st5" d="M701 107h99.3v99.3H701z"/><path class="st6" d="M701 206.3h99.3v99.3H701z"/><path fill="#6cabfa" d="M403 405.3h99.3v99.3H403z"/><path fill="#66abf9" d="M601.7 305.7H701V405h-99.3z"/><path fill="#59a0f8" d="M502.3 405.3h99.3v99.3h-99.3z"/><path class="st10" d="M1415.4 511.7h99.3V611h-99.3z"/><path fill="#5fb3d3" d="M1316.1 412.3h99.3v99.3h-99.3z"/><path fill="#61b9d8" d="M1216.8 412.3h99.3v99.3h-99.3z"/><path fill="#6fbfe0" d="M1216.8 312.3h99.3v99.3h-99.3z"/><path fill="#5fbbdb" d="M1028.3 511.7h99.3V611h-99.3z"/><path fill="#60bacb" d="M1614.1 511.7h99.3V611h-99.3z"/><path fill="#64bbcd" d="M1809.7 412.3h99.3v99.3h-99.3z"/><path class="st10" d="M1514.8 412.3h99.3v99.3h-99.3z"/><path fill="#76bfdb" d="M1614.1 129h99.3v99.3h-99.3z"/><path fill="#64b4d3" d="M1713.4 129h99.3v99.3h-99.3z"/><path fill="#70bbd9" d="M1514.8 228.3h99.3v99.3h-99.3z"/><path class="st4" d="M95.7 405.3H195v99.3H95.7z"/><path class="st5" d="M195 405.3h99.3v99.3H195z"/><path class="st6" d="M502.3 501.3h99.3v99.3h-99.3z"/><path d="M981.2 576.5c-13.3 6.7-29.1 6.7-42.4 0L761.7 474.7c-12.5-8.1-20.4-21.7-21.2-36.5V234.8c.8-14.9 8.7-28.4 21.2-36.5L938.8 96.5c13.3-6.7 29.1-6.7 42.4 0l177.1 101.7c12.5 8.1 20.4 21.7 21.2 36.5v203.4c-.8 14.9-8.7 28.4-21.2 36.5L981.2 576.5z" fill="#302f36"/><linearGradient id="b" gradientUnits="userSpaceOnUse" x1="784.77" y1="332.743" x2="1135.199" y2="332.743"><stop offset="0" stop-color="#009ebd"/><stop offset="1" stop-color="#00d5fd"/></linearGradient><path d="M938.1 267.2c-12.4 0-24.6 3.5-35 10.1v22.5c18.2-19.2 48.6-20.1 67.8-1.9 19.2 18.2 20.1 48.6 1.9 67.8-18.2 19.2-48.6 20.1-67.8 1.9-9.6-9.1-15-21.7-15-34.9v-13.1c0-29-23.5-52.6-52.6-52.6-29 0-52.6 23.5-52.6 52.6v78.6h17.5v-78.6c0-19.3 15.7-35 35-35s35 15.7 35 35v13.1c-.1 36.3 29.3 65.8 65.6 65.8 36.3.1 65.8-29.3 65.8-65.6.1-36.3-29.2-65.8-65.6-65.7.1-.1 0-.1 0 0zm197.1 107.1c-23 7.2-47.5-5.6-54.8-28.6-7.2-23 5.6-47.5 28.6-54.8 8.5-2.7 17.7-2.7 26.2 0v-18.1c-4.3-.9-8.7-1.4-13.1-1.4-21.5 0-41.4 11.2-52.6 29.6-11.1-18.4-31.1-29.6-52.6-29.6-4.4 0-8.8.5-13.1 1.4v18c23-7.2 47.6 5.5 54.8 28.6 7.2 23-5.5 47.6-28.6 54.8-8.5 2.7-17.7 2.7-26.2 0v18.1c4.3.9 8.7 1.4 13.1 1.4 21.5 0 41.4-11.2 52.6-29.6 11.1 18.4 31.1 29.6 52.6 29.6 4.4 0 8.8-.5 13.1-1.4v-18z" fill="url(#b)"/></svg>