<svg xmlns="http://www.w3.org/2000/svg" viewBox="0 0 1920 673" style="enable-background:new 0 0 1920 673" xml:space="preserve"><path style="fill:#285e7c" d="M0 0h1920v673H0z"/><path d="M565.5 35.5h87.2v19.6h-87.2V35.5zm69.7 39.2h244.1v19.6H635.2V74.7zm-139.5 39.2h296.4v19.6H495.7v-19.6zM426 192.4h87.2V212H426v-19.6zm104.6 0H548V212h-17.4v-19.6zm34.9 0h174.4V212H565.5v-19.6zm191.8 0h17.4V212h-17.4v-19.6zm34.8 0h209.2V212H792.1v-19.6zm226.7 0h17.4V212h-17.4v-19.6zm34.9 0h17.4V212h-17.4v-19.6zm34.9 0h17.4V212h-17.4v-19.6zm34.8 0H1228V212h-104.6v-19.6zM426 270.9h52.3v19.6H426v-19.6zm69.7 0h17.4v19.6h-17.4v-19.6zm34.9 0h34.9v19.6h-34.9v-19.6zm52.3 0h296.4v19.6H582.9v-19.6zm-87.2 39.2h34.9v19.6h-34.9v-19.6zm52.3 0h17.4v19.6H548v-19.6zm34.9 0h17.4v19.6h-17.4v-19.6zm-87.2 39.2H705V369H495.7v-19.7zm226.7 0h17.4V369h-17.4v-19.7zm34.9 0h17.4V369h-17.4v-19.7zm-261.6 39.3h69.7v19.6h-69.7v-19.6zm87.2 0h17.4v19.6h-17.4v-19.6zm34.9 0H705v19.6h-87.2v-19.6zm-122.1 39.2h122.1v19.6H495.7v-19.6zm139.5 0h17.4v19.6h-17.4v-19.6zm34.9 0h17.4v19.6h-17.4v-19.6zM426 506.3h104.6v19.6H426v-19.6zm122 0h34.9v19.6H548v-19.6zm52.3 0h854.4v19.6H600.3v-19.6zM426 584.7h69.7v19.6H426v-19.6zm87.2 0H827v19.6H513.2v-19.6zm331.3 0h69.7v19.6h-69.7v-19.6zm87.1 0h34.9v19.6h-34.9v-19.6zm52.3 0h87.2v19.6h-87.2v-19.6zM495.7 624h313.9v19.6H495.7V624z" style="opacity:.61;fill:#fff"/><defs><filter id="a" filterUnits="userSpaceOnUse" x="657" y="35.3" width="605.9" height="602.4"><feColorMatrix values="1 0 0 0 0 0 1 0 0 0 0 0 1 0 0 0 0 0 1 0"/></filter></defs><mask maskUnits="userSpaceOnUse" x="657" y="35.3" width="605.9" height="602.4" id="b"><path d="M1086.8 635.1c9.7 3.8 20.6 3.4 30-1.2l124.7-60c13.1-6.3 21.4-19.6 21.4-34.1V133.1c0-14.5-8.3-27.8-21.4-34.1l-124.7-60c-14.4-6.9-31.7-4-43 7.3L835.2 264.1l-104-78.9c-9.7-7.3-23.2-6.7-32.2 1.4l-33.3 30.3c-11 10-11 27.3 0 37.3l90.2 82.3-90.2 82.3c-11 10-11 27.3 0 37.3l33.3 30.3c9 8.2 22.5 8.8 32.2 1.4l104-78.9 238.7 217.7c3.6 3.8 8 6.6 12.9 8.5zm24.9-436.1L930.6 336.5 1111.7 474V199z" style="fill-rule:evenodd;clip-rule:evenodd;fill:#fff;filter:url(#a)"/></mask><g style="mask:url(#b)"><path d="M1241.5 99.1 1116.8 39c-14.4-7-31.7-4-43 7.3L665.3 418.8c-11 10-11 27.3 0 37.3l33.4 30.3c9 8.2 22.5 8.8 32.2 1.4l491.9-373.1c16.5-12.5 40.2-.7 40.2 20v-1.4c0-14.6-8.4-27.9-21.5-34.2z" style="fill:#0065a9"/><path d="M1241.5 573.9 1116.8 634c-14.4 7-31.7 4-43-7.3L665.3 254.2c-11-10-11-27.3 0-37.3l33.4-30.3c9-8.2 22.5-8.8 32.2-1.4l491.9 373.1c16.5 12.5 40.2.7 40.2-20v1.5c0 14.5-8.4 27.8-21.5 34.1z" style="fill:#007acc"/><path d="M1116.8 634c-14.4 6.9-31.7 4-43-7.3 14 14 37.8 4.1 37.8-15.7V62c0-19.8-23.9-29.6-37.8-15.7 11.3-11.3 28.6-14.3 43-7.3l124.7 60c13.1 6.3 21.4 19.6 21.4 34.1v406.8c0 14.5-8.3 27.8-21.4 34.1l-124.7 60z" style="fill:#1f9cf0"/><linearGradient id="c" gradientUnits="userSpaceOnUse" x1="959.816" y1="638.71" x2="959.816" y2="36.286" gradientTransform="matrix(1 0 0 -1 0 674)"><stop offset="0" style="stop-color:#fff"/><stop offset="1" style="stop-color:#fff;stop-opacity:0"/></linearGradient><path d="M1086.4 635.1c9.7 3.8 20.6 3.4 30-1.2l124.7-60c13.1-6.3 21.4-19.6 21.4-34.1V133.1c0-14.5-8.3-27.8-21.4-34.1l-124.7-60c-14.4-6.9-31.7-4-43 7.3L834.8 264.1l-104-78.9c-9.7-7.3-23.2-6.7-32.2 1.4l-33.3 30.3c-11 10-11 27.3 0 37.3l90.2 82.3-90.2 82.3c-11 10-11 27.3 0 37.3l33.3 30.3c9 8.2 22.5 8.8 32.2 1.4l104-78.9 238.7 217.7c3.7 3.8 8.1 6.6 12.9 8.5zm24.9-436.1L930.2 336.5 1111.3 474V199z" style="opacity:.25;fill-rule:evenodd;clip-rule:evenodd;fill:url(#c);enable-background:new"/></g></svg>