<svg xmlns="http://www.w3.org/2000/svg" viewBox="0 0 1920 673" style="enable-background:new 0 0 1920 673" xml:space="preserve"><style>.st1{fill:#fff}</style><path style="fill:#81b5c9" d="M0 0h1920v673H0z"/><path class="st1" d="M1317.96 593.91H602.04c-33.38 0-60.33-26.95-60.33-60.33V139.42c0-33.38 26.95-60.33 60.33-60.33h715.91c33.38 0 60.33 26.95 60.33 60.33v394.15c.01 33.39-26.94 60.34-60.32 60.34zm-715.92-474.6c-11.26 0-20.11 8.85-20.11 20.11v394.15c0 11.26 8.85 20.11 20.11 20.11h715.91c11.26 0 20.11-8.85 20.11-20.11V139.42c0-11.26-8.85-20.11-20.11-20.11H602.04z"/><path class="st1" d="M662.37 473.25v-273.5h80.44l80.44 100.55 80.44-100.55h80.44v273.49h-80.44V316.39l-80.44 100.55-80.44-100.55v156.86h-80.44zm502.75 0-120.66-132.73h80.44V199.75h80.44v140.77h80.44l-120.66 132.73z"/></svg>