<svg xmlns="http://www.w3.org/2000/svg" xml:space="preserve" viewBox="0 0 1920 673"><style>.st2{fill:#fff}.st3{fill:#f7f7f4}.st3,.st4,.st5{stroke:#ccc;stroke-width:.3787;stroke-linejoin:bevel;stroke-miterlimit:4.2667}.st4{fill:#efeeea}.st5{fill:#fff}.st6{fill:#646464}.st10,.st7,.st9{stroke:#ccc;stroke-width:.3787;stroke-linejoin:bevel;stroke-miterlimit:4.2667}.st7,.st9{fill:#ffd242}.st9{fill:#3775a9}.st10{fill:#2f6491}</style><path id="background" d="M0 0h1920v673H0z" style="fill:#d1993f"/><g id="image"><path d="M956.13 11.07c-26.55.12-51.9 2.39-74.2 6.34-65.74 11.61-77.67 35.91-77.67 80.74v59.19h155.29v19.73H745.99c-45.13 0-84.68 27.13-97.02 78.71-14.26 59.14-14.89 96.09 0 157.83 11.04 45.98 37.41 78.71 82.54 78.71h53.4v-70.95c0-51.26 44.35-96.5 97.02-96.5h155.11c43.18 0 77.67-35.55 77.67-78.89V98.12c0-42.09-35.51-73.68-77.67-80.74-26.68-4.44-54.36-6.46-80.92-6.34zm-83.99 47.6c16.04 0 29.14 13.32 29.14 29.68 0 16.31-13.1 29.5-29.14 29.5-16.1 0-29.14-13.19-29.14-29.5 0-16.36 13.05-29.68 29.14-29.68m261.92 118.35V246c0 53.47-45.33 98.47-97.02 98.47H881.93c-42.49 0-77.67 36.36-77.67 78.89v147.87c0 42.09 36.6 66.84 77.67 78.89 49.16 14.46 96.32 17.07 155.11 0 39.1-11.32 77.67-34.1 77.67-78.89v-59.19H959.6v-19.73h232.78c45.13 0 61.98-31.48 77.67-78.71 16.21-48.65 15.52-95.45 0-157.83-11.16-44.93-32.46-78.71-77.67-78.71h-58.27zm-87.23 374.52c16.1 0 29.14 13.19 29.14 29.5 0 16.37-13.04 29.68-29.14 29.68-16.04 0-29.14-13.32-29.14-29.68 0-16.31 13.1-29.5 29.14-29.5" style="opacity:.1;fill:#fff"/><path d="M1350 372.43c-66.15 0-119.77 53.62-119.77 119.77 0 54.13 35.9 99.85 85.19 114.69.11-1.85.28-4.04.49-6.67.26-3.15-1.42-7.83-3.81-9.62-26.64-19.93-35.27-41.17-28.99-73.81.3-1.56 2.23-2.15 3.33-1.01 7.2 7.45 12.32 12.16 19.84 20.91 11.19 13.02 15.54 28.33 14.18 45.82 1.22-5.31 2.98-10.56 3.56-15.93 2.41-22.18 7.73-43.18 24.21-59.47 4.24-4.2 9.37-8.22 14.85-10.31 14.45-5.51 29.47-9.64 39.24-23.35.8.49-4.5 18.66-5.4 22.59-6.44 21.88-4.19 22.96-11.83 44.41-5.05 14.15-15.93 24-31.19 27.93-15.01 3.86-23.45 13.97-25.54 28.94-.78 5.57-1.24 9.45-1.49 12.44 7.48 1.47 15.22 2.24 23.13 2.24 66.15 0 119.77-53.62 119.77-119.77s-53.61-119.8-119.77-119.8m-11.56 134.39c-.24 2.07-1.44 5.03-3.05 6.87-5.77 6.57-11.03 18.41-14.15 34.2-5.66-17.48-25.52-32.98-32.67-45.98-2.46-4.47-.51-19.59 2.81-32.18 6.06-17.78 6.35-20.92 9.79-35.87 16.85 13.63 20.37 22.63 29.48 38.72 4.55 8.03 9.55 19.01 7.79 34.24m42.19-22.68c-15.83 6.46-25.6 10.16-35.69 18.16 2.52-13.51-6.01-29.38-11.34-41.38-.79-1.76 9.47-18.54 11.29-21.35 12.02-14.97 11.66-17.65 28.24-23.77 13.51-4.99 27.14-9.68 40.57-14.46-2.4 32.85-8.04 72.6-33.07 82.8" class="st2"/><path d="m678.81 413.71 43.54 15.85 44.19-16.09L723 397.63zm43.73-35.78 43.55 15.85 44.19-16.09-43.54-15.85z" class="st3"/><path d="m722.54 377.93 43.55 15.85v51.18l-43.55-15.85z" class="st4"/><path d="m635.07 481.3 43.54 15.85 44.19-16.09-43.55-15.85z" class="st3"/><path d="m635.07 481.3 43.54 15.85v51.18l-43.54-15.85z" class="st4"/><path d="m635.07 408.52 43.54 15.85 44.19-16.09-43.55-15.85z" class="st3"/><path d="M678.62 424.37v51.18l44.19-16.08v-51.18z" class="st5"/><path d="m635.07 408.52 43.54 15.85v51.18l-43.54-15.85z" class="st4"/><path d="m679.32 364.98-.07.09a7.79 7.79 0 0 0-7.72 7.79c0 .5.05 1 .15 1.49l-32.88 40.27 21.41 26.21-10.83-26.21 27.95-34.23c.65.18 1.33.27 2 .27.68 0 1.35-.09 2-.26l14.88 18.22 15.04 5.47-24.28-29.73c.1-.49.14-.99.14-1.49 0-4.27-3.44-7.75-7.72-7.79zm5.98-20.4a5.978 5.978 0 1 0-11.95-.37v9.51c.1 3.3 2.86 5.89 6.16 5.79 3.16-.1 5.7-2.63 5.79-5.79zm-2.74-.01v9.14a3.23 3.23 0 0 1-3.24 3.23c-1.78 0-3.23-1.45-3.23-3.23v-9.14c0-1.79 1.45-3.23 3.23-3.23 1.79 0 3.24 1.45 3.24 3.23m2.74-31.38a5.978 5.978 0 1 0-11.95-.37v9.51c.1 3.3 2.86 5.89 6.16 5.79 3.16-.1 5.7-2.63 5.79-5.79zm-2.74-.01v9.14a3.23 3.23 0 0 1-3.24 3.23c-1.78 0-3.23-1.45-3.23-3.23v-9.14c0-1.79 1.45-3.23 3.23-3.23 1.79 0 3.24 1.45 3.24 3.23" class="st6"/><path d="M680.78 324.36v18.19c0 .8-.65 1.46-1.46 1.46-.8 0-1.46-.65-1.46-1.46v-18.19c0-.8.65-1.46 1.46-1.46s1.46.65 1.46 1.46m0 31.39v18.19c0 .8-.65 1.46-1.46 1.46-.8 0-1.46-.65-1.46-1.46v-18.19c0-.8.65-1.46 1.46-1.46s1.46.65 1.46 1.46m0-62.89v18.19c0 .8-.65 1.46-1.46 1.46-.8 0-1.46-.65-1.46-1.46v-18.19c0-.8.65-1.46 1.46-1.46.81.01 1.46.66 1.46 1.46" class="st6"/><path d="m678.8 497.21 43.55 15.85v51.18l-43.54-15.85z" class="st4"/><path d="m678.8 445.52 43.55 15.85 44.19-16.09L723 429.44z" class="st3"/><path d="m678.8 445.52 43.55 15.85v51.18l-43.54-15.85z" class="st4"/><path d="M897.3 481.25v51.18l44.19-16.08v-51.18z" class="st5"/><path d="M853.56 497.15v51.18l44.19-16.08v-51.18z" class="st7"/><path d="M889.74 509.63c0 4.99-3.8 10.41-8.48 12.12h-.01c-4.68 1.7-8.48-.96-8.48-5.94 0-4.99 3.8-10.41 8.48-12.12 4.69-1.71 8.49.95 8.49 5.94" class="st2"/><path d="M809.82 513.06v51.18l44.19-16.09v-51.18z" class="st7"/><path d="M766.09 528.96v51.18l44.19-16.09v-51.18z" class="st5"/><path d="m722.54 513.11 43.55 15.85v51.18l-43.55-15.85z" class="st4"/><path d="M897.3 429.56v51.18l44.19-16.08v-51.18z" class="st7"/><path d="m853.75 362.02 43.55 15.85 44.19-16.09-43.54-15.85z" style="fill:#ffc91d;stroke:#ccc;stroke-width:.3787;stroke-linejoin:bevel;stroke-miterlimit:4.2667"/><path d="M897.3 377.87v51.18l44.19-16.08v-51.18zm-43.74 67.59v51.18l44.19-16.08v-51.18z" class="st7"/><path d="M853.56 393.78v51.18l44.19-16.08V377.7z" class="st9"/><path d="m810.01 326.24 43.54 15.85 44.2-16.09-43.54-15.85z" class="st10"/><path d="M853.56 342.09v51.18l44.19-16.08V326z" class="st9"/><path d="M809.82 461.37v51.18l44.19-16.09v-51.18z" class="st7"/><path d="M809.82 409.68v51.18l44.19-16.09v-51.18zm-43.73 67.59v51.18l44.19-16.09v-51.18z" class="st9"/><path d="m722.54 461.42 43.55 15.85v51.18l-43.55-15.85zm0-51.69 43.55 15.85 44.19-16.08-43.54-15.85z" class="st10"/><path d="M766.09 425.58v51.18l44.19-16.09V409.5z" class="st9"/><path d="m722.54 409.73 43.55 15.85v51.18l-43.55-15.85zm43.74-67.59 43.54 15.85 44.19-16.09-43.55-15.85z" class="st10"/><path d="M809.82 357.99v51.18l44.19-16.09V341.9z" class="st9"/><path d="m766.28 342.14 43.54 15.85v51.18l-43.54-15.85z" class="st10"/><path d="M834.81 374.43c0 4.99-3.8 10.41-8.48 12.12-4.69 1.71-8.49-.95-8.49-5.94s3.8-10.41 8.48-12.12c4.69-1.71 8.49.95 8.49 5.94" class="st2"/><path d="M737.2 201.64c0-27-7.7-40.86-23.09-41.62-6.12-.3-12.23.71-17.93 2.94-4.64 1.66-7.77 3.31-9.41 4.97v64.44c9.85 6.18 18.6 9.05 26.22 8.6 16.13-1.06 24.21-14.16 24.21-39.33m19 1.12c0 13.72-3.22 25.1-9.69 34.16-7.21 10.25-17.21 15.53-29.98 15.82-9.63.31-19.56-2.72-29.77-9.04v58.57l-16.52-5.89V166.36c2.71-3.33 6.2-6.18 10.42-8.6 9.83-5.73 21.78-8.68 35.84-8.82l.24.23c12.85-.16 22.75 5.11 29.71 15.82 6.49 9.81 9.75 22.39 9.75 37.77m100.95 38.44c0 18.4-1.84 31.14-5.53 38.22-3.71 7.08-10.75 12.74-21.16 16.95-8.44 3.33-17.57 5.13-27.36 5.44l-2.73-10.41c9.96-1.35 16.97-2.71 21.04-4.07 8.01-2.71 13.5-6.87 16.52-12.43 2.42-4.54 3.62-13.19 3.62-26.01v-4.3a85 85 0 0 1-35.51 7.68c-8.13 0-15.31-2.55-21.49-7.68-6.94-5.58-10.41-12.67-10.41-21.25v-68.75l16.52-5.65v69.2c0 7.39 2.39 13.08 7.16 17.08 4.77 3.99 10.95 5.91 18.53 5.77 7.57-.16 15.68-3.09 24.31-8.82v-80.73h16.52v89.76zm64.48 10.62c-1.97.16-3.78.23-5.44.23-9.34 0-16.63-2.22-21.84-6.68-5.18-4.47-7.79-10.63-7.79-18.49v-65.06h-11.31v-10.39h11.31v-27.6l16.5-5.87v33.47h18.56v10.39h-18.56v64.61c0 6.2 1.66 10.59 4.99 13.16 2.86 2.11 7.39 3.33 13.57 3.63v8.6zm100.02-1.35h-16.52v-63.76c0-6.49-1.52-12.07-4.53-16.73-3.49-5.28-8.33-7.92-14.55-7.92-7.57 0-17.04 3.99-28.41 11.98v76.43h-16.52V98.06l16.52-5.2v69.42c10.55-7.68 22.08-11.53 34.61-11.53 8.75 0 15.83 2.94 21.25 8.82 5.44 5.88 8.15 13.19 8.15 21.94zm87.79-51.44c0-10.37-1.97-18.94-5.89-25.72-4.66-8.26-11.91-12.61-21.7-13.06-18.11 1.05-27.15 14.02-27.15 38.89 0 11.4 1.88 20.93 5.67 28.57 4.84 9.74 12.11 14.55 21.8 14.39 18.18-.14 27.27-14.49 27.27-43.07m18.09.11c0 14.76-3.78 27.05-11.31 36.87-8.29 10.99-19.75 16.5-34.38 16.5-14.49 0-25.79-5.51-33.94-16.5-7.39-9.81-11.08-22.1-11.08-36.87 0-13.88 3.99-25.56 11.98-35.06 8.44-10.08 19.54-15.14 33.26-15.14s24.88 5.06 33.49 15.14c7.98 9.51 11.98 21.18 11.98 35.06m94.7 51.33h-16.52V183.1c0-7.39-2.23-13.16-6.67-17.31-4.45-4.14-10.37-6.14-17.76-5.98-7.84.15-15.31 2.71-22.39 7.68v82.99h-16.52v-85.03c9.5-6.92 18.25-11.44 26.24-13.55 7.54-1.97 14.19-2.95 19.92-2.95 3.92 0 7.61.38 11.08 1.14 6.49 1.5 11.77 4.28 15.83 8.37 4.54 4.52 6.8 9.94 6.8 16.28v75.73zm32.1-117.22h2.84v-17.8h6.72v-2.12h-16.28v2.12h6.72zm12.08 0h2.42v-16.26l5.26 16.26h2.7l5.48-16.2v16.2h2.65v-19.92h-3.5l-5.99 17.07-5.11-17.07h-3.91zM972.2 324.45h8.36v-17.31h7.5c10.17 0 17.96-4.83 17.96-15.29 0-10.96-7.65-14.57-17.96-14.57H972.2zm8.36-24.01V284h6.85c6.85 0 10.39 1.95 10.39 7.86 0 5.77-3.39 8.58-10.39 8.58zm29.4 14.49c0 6.2 4.33 10.39 10.53 10.39 4.18 0 7.79-2.09 10.96-4.76h.22l.65 3.89h6.78v-20.98c0-9.88-4.33-15.29-13.2-15.29-5.63 0-10.6 2.16-14.5 4.62l3.03 5.55c3.1-1.88 6.42-3.46 9.95-3.46 4.76 0 6.34 3.17 6.42 6.92-14.49 1.59-20.84 5.55-20.84 13.12m8.08-.64c0-3.54 3.17-6.06 12.77-7.28v7.93c-2.6 2.45-4.83 3.89-7.72 3.89-2.96 0-5.05-1.37-5.05-4.54m28.88-7.5c0 11.75 7.43 18.53 17.09 18.53 4.04 0 8.29-1.59 11.61-4.54l-3.46-5.26c-1.95 1.58-4.4 3.03-7.28 3.03-5.55 0-9.45-4.69-9.45-11.76 0-7.14 3.97-11.82 9.66-11.82 2.24 0 4.11.94 5.99 2.6l3.97-5.26c-2.38-2.31-5.84-4.11-10.39-4.11-9.45-.02-17.74 6.76-17.74 18.59m35.69 17.66h8.15v-9.01l5.55-6.35 9.09 15.36h9.01l-13.34-20.98 12.12-14.43h-9.09l-13.12 16.3h-.22v-31.8h-8.15zm35.39-9.52c0 6.2 4.33 10.39 10.53 10.39 4.18 0 7.79-2.09 10.96-4.76h.22l.65 3.89h6.78v-20.98c0-9.88-4.33-15.29-13.2-15.29-5.63 0-10.6 2.16-14.5 4.62l3.03 5.55c3.1-1.88 6.42-3.46 9.95-3.46 4.76 0 6.35 3.17 6.42 6.92-14.5 1.59-20.84 5.55-20.84 13.12m8.07-.64c0-3.54 3.17-6.06 12.77-7.28v7.93c-2.6 2.45-4.83 3.89-7.72 3.89-2.96 0-5.05-1.37-5.05-4.54m35.73 15.36c0-1.66.87-3.25 2.74-4.69 1.37.36 2.88.5 4.83.5h4.83c4.04 0 6.27.8 6.27 3.54 0 3.03-3.89 5.7-9.59 5.7-5.62-.01-9.08-1.88-9.08-5.05m-6.92 1.22c0 6.2 6.27 9.23 14.71 9.23 11.54 0 18.9-5.48 18.9-12.47 0-6.13-4.47-8.73-12.98-8.73h-6.27c-4.33 0-5.77-1.23-5.77-3.24 0-1.59.65-2.45 1.73-3.39 1.54.62 3.18.93 4.83.93 7.5 0 13.41-4.18 13.41-12.04 0-2.45-.87-4.62-2.02-5.99h6.49v-6.13h-12.69c-1.67-.57-3.43-.87-5.19-.87-7.43 0-13.99 4.54-13.99 12.69 0 4.18 2.24 7.57 4.62 9.38v.29c-2.02 1.44-3.89 3.82-3.89 6.56 0 2.88 1.37 4.76 3.17 5.92v.29c-3.26 2.02-5.06 4.62-5.06 7.57m15.14-22.86c-3.46 0-6.2-2.6-6.2-7.14 0-4.47 2.74-7 6.2-7s6.13 2.6 6.13 7c0 4.54-2.74 7.14-6.13 7.14m21.27-1.22c0 11.68 7.64 18.53 17.45 18.53 4.47 0 8.73-1.59 12.12-3.82l-2.81-5.19c-2.6 1.66-5.19 2.6-8.22 2.6-5.7 0-9.74-3.61-10.46-10.02h22.5c.22-.87.36-2.31.36-3.89 0-9.88-5.05-16.8-14.64-16.8-8.29-.02-16.3 7.05-16.3 18.59m8.01-3.18c.72-5.91 4.33-9.01 8.51-9.01 4.83 0 7.21 3.39 7.21 9.01zm-227.1 94.4h8.36v-47.16h-8.36zm19.56 0h8.29v-24.74c2.96-2.88 4.97-4.4 8.08-4.4 3.89 0 5.55 2.16 5.55 8.01v21.13h8.29V375.8c0-8.94-3.32-14.06-10.89-14.06-4.83 0-8.44 2.53-11.61 5.63h-.29l-.58-4.76h-6.85c.01-.01.01 35.4.01 35.4m38.26-17.67c0 11.68 5.7 18.53 14.57 18.53 3.82 0 7.43-2.09 10.02-4.69h.29l.58 3.82h6.85v-50.9h-8.29v12.84l.29 5.7c-2.74-2.38-5.26-3.89-9.3-3.89-7.73-.01-15.01 7.05-15.01 18.59m8.58-.07c0-7.43 3.68-11.68 8.22-11.68 2.38 0 4.76.8 7.21 2.96v16.51c-2.38 2.74-4.69 3.97-7.43 3.97-5.12-.01-8-4.12-8-11.76m31.98.07c0 11.68 7.65 18.53 17.45 18.53 4.47 0 8.73-1.59 12.12-3.82l-2.81-5.19c-2.6 1.66-5.19 2.6-8.22 2.6-5.7 0-9.74-3.61-10.46-10.02h22.5c.22-.87.36-2.31.36-3.89 0-9.88-5.05-16.8-14.64-16.8-8.29-.01-16.3 7.05-16.3 18.59m8.01-3.17c.72-5.91 4.33-9.01 8.51-9.01 4.83 0 7.21 3.39 7.21 9.01zm25.82 20.84h8.65l3.75-7c1.01-2.16 2.09-4.26 3.1-6.27h.29c1.23 2.02 2.45 4.18 3.61 6.27l4.33 7h8.94l-11.25-17.52 10.46-17.89h-8.58l-3.39 6.71c-.87 1.95-1.88 4.04-2.74 5.99h-.29c-1.11-1.98-2.19-3.98-3.25-5.99l-3.96-6.71h-8.94l10.53 16.95z" class="st6"/></g></svg>