<svg xmlns="http://www.w3.org/2000/svg" xml:space="preserve" viewBox="0 0 1920 673"><path d="M0 0h1920v673H0z" style="fill:#8daf4a"/><path d="M956.13 11.07c-26.55.12-51.9 2.39-74.2 6.34-65.74 11.61-77.67 35.91-77.67 80.74v59.19h155.29v19.73H745.99c-45.13 0-84.68 27.13-97.02 78.71-14.26 59.14-14.89 96.09 0 157.83 11.04 45.98 37.41 78.71 82.54 78.71h53.4v-70.95c0-51.26 44.35-96.5 97.02-96.5h155.11c43.18 0 77.67-35.55 77.67-78.89V98.12c0-42.09-35.51-73.68-77.67-80.74-26.68-4.44-54.36-6.46-80.92-6.34zm-83.99 47.6c16.04 0 29.14 13.32 29.14 29.68 0 16.31-13.1 29.5-29.14 29.5-16.1 0-29.14-13.19-29.14-29.5 0-16.36 13.05-29.68 29.14-29.68m261.92 118.35V246c0 53.47-45.33 98.47-97.02 98.47H881.93c-42.49 0-77.67 36.36-77.67 78.89v147.87c0 42.09 36.6 66.84 77.67 78.89 49.16 14.46 96.32 17.07 155.11 0 39.1-11.32 77.67-34.1 77.67-78.89v-59.19H959.6v-19.73h232.78c45.13 0 61.98-31.48 77.67-78.71 16.21-48.65 15.52-95.45 0-157.83-11.16-44.93-32.46-78.71-77.67-78.71h-58.27zm-87.23 374.52c16.1 0 29.14 13.19 29.14 29.5 0 16.37-13.04 29.68-29.14 29.68-16.04 0-29.14-13.32-29.14-29.68 0-16.31 13.1-29.5 29.14-29.5" style="opacity:.1;fill:#fff"/><path d="M960.01 69.57c-147.41 0-266.9 119.48-266.9 266.9 0 120.62 80 222.51 189.84 255.58.26-4.12.62-9.01 1.09-14.86.58-7.02-3.16-17.44-8.5-21.44-59.36-44.41-78.6-91.75-64.61-164.47.66-3.48 4.97-4.78 7.43-2.24 16.04 16.61 27.46 27.1 44.22 46.59 24.94 29.02 34.63 63.14 31.6 102.1 2.71-11.83 6.64-23.53 7.94-35.51 5.38-49.43 17.23-96.23 53.96-132.53 9.46-9.35 20.88-18.32 33.1-22.97 32.2-12.28 65.68-21.48 87.44-52.03 1.77 1.09-10.04 41.57-12.04 50.35-14.35 48.77-9.33 51.16-26.37 98.97-11.25 31.54-35.51 53.49-69.5 62.24-33.46 8.6-52.25 31.13-56.92 64.48-1.73 12.41-2.75 21.05-3.33 27.71 16.68 3.27 33.91 5 51.54 5 147.41 0 266.9-119.48 266.9-266.9S1107.42 69.57 960.01 69.57m-25.77 299.48c-.53 4.61-3.2 11.21-6.79 15.31-12.85 14.65-24.58 41.02-31.54 76.2-12.62-38.95-56.86-73.49-72.81-102.47-5.49-9.97-1.13-43.66 6.26-71.7 13.49-39.63 14.16-46.61 21.82-79.94 37.56 30.36 45.39 50.43 65.7 86.28 10.14 17.89 21.29 42.36 17.38 76.29zm94.01-50.54c-35.27 14.39-57.05 22.63-79.54 40.46 5.62-30.11-13.39-65.46-25.28-92.22-1.75-3.93 21.1-41.32 25.15-47.57 26.78-33.35 25.99-39.33 62.92-52.97 30.11-11.12 60.47-21.57 90.4-32.22-5.3 73.21-17.88 161.78-73.65 184.52" style="fill:#fff"/></svg>