<svg xmlns="http://www.w3.org/2000/svg" viewBox="0 0 1920 673" style="enable-background:new 0 0 1920 673" xml:space="preserve"><style>.st12,.st13{fill:none;stroke:#000;stroke-width:8.9409}.st13{stroke-width:5.5881}</style><path style="fill:#4a55af" d="M0 0h1920v673H0z"/><path d="M956.13 11.07c-26.55.12-51.9 2.39-74.2 6.34-65.74 11.61-77.67 35.91-77.67 80.74v59.19h155.29v19.73H745.99c-45.13 0-84.68 27.13-97.02 78.71-14.26 59.14-14.89 96.09 0 157.83 11.04 45.98 37.41 78.71 82.54 78.71h53.4v-70.95c0-51.26 44.35-96.5 97.02-96.5h155.11c43.18 0 77.67-35.55 77.67-78.89V98.12c0-42.09-35.51-73.68-77.67-80.74-26.68-4.44-54.36-6.46-80.92-6.34l.01.03zm-83.99 47.6c16.04 0 29.14 13.32 29.14 29.68 0 16.31-13.1 29.5-29.14 29.5-16.1 0-29.14-13.19-29.14-29.5 0-16.36 13.05-29.68 29.14-29.68zm261.92 118.35V246c0 53.47-45.33 98.47-97.02 98.47H881.93c-42.49 0-77.67 36.36-77.67 78.89v147.87c0 42.09 36.6 66.84 77.67 78.89 49.16 14.46 96.32 17.07 155.11 0 39.1-11.32 77.67-34.1 77.67-78.89v-59.19H959.6v-19.73h232.78c45.13 0 61.98-31.48 77.67-78.71 16.21-48.65 15.52-95.45 0-157.83-11.16-44.93-32.46-78.71-77.67-78.71h-58.27l-.05-.04zm-87.23 374.52c16.1 0 29.14 13.19 29.14 29.5 0 16.37-13.04 29.68-29.14 29.68-16.04 0-29.14-13.32-29.14-29.68 0-16.31 13.1-29.5 29.14-29.5z" style="opacity:.1;fill:#fff"/><linearGradient id="a" gradientUnits="userSpaceOnUse" x1="950.07" y1="417.409" x2="950.07" y2="377.734" gradientTransform="matrix(1 0 0 -1 0 672.724)"><stop offset="0" style="stop-color:#714d29"/><stop offset="1" style="stop-color:#c1a180"/></linearGradient><path d="m980.8 275.99 3.07-20.68-31.85 13.13-35.76 16.21 9.5 6.71 35.2 3.63 19.84-19z" style="fill:url(#a)"/><path d="m988.07 216.2 29.06 18.72-9.78 10.34-19.28 6.99-14.53 7.82-22.07 8.94-28.78 12.57-27.38 6.43 5.31-20.4-46.38-7.54-12.85-11.18-4.47-32.69 7.54-7.26 23.47-19.84 13.69-8.94 17.04-1.96v17.04l18.44-4.19 35.2 10.62h9.78l7.26 20.68 18.73-6.15z" style="fill:#e9d77a;stroke:#000;stroke-width:.5588"/><path d="m1004.55 246.37 12.85-10.34 5.59 7.54 5.31 16.48v17.6l-6.71 17.6-12.29 17.6-20.4 16.76-12.57 17.32-5.31 14.81-12.29 4.75-37.44 17.32-25.98 27.1 3.63-25.15 13.69-37.16 19.84-24.03 25.15-24.87 21.79-26.54 3.63-20.12 21.51-6.67z" style="fill:#fdf7dd;stroke:#000;stroke-width:.5588"/><path d="m1032.77 202.23-42.75 12.57v.28l27.66 19 12.57 29.34-10.62 37.16-19 17.6-23.19 29.9-6.43 11.73 19 16.48 5.59-16.48 32.69-34.09 17.6-29.06 4.19-44.7-17.31-49.73z" style="fill:#19a2f4;stroke:#000;stroke-width:.5588"/><linearGradient id="b" gradientUnits="userSpaceOnUse" x1="1066.582" y1="418.247" x2="1066.582" y2="374.101" gradientTransform="matrix(1 0 0 -1 0 672.724)"><stop offset="0" style="stop-color:#714d29"/><stop offset="1" style="stop-color:#c1a180"/></linearGradient><path style="fill:url(#b)" d="m1044.51 298.62 44.15-7.26-10.9-29.9-26.82-6.99-6.43 44.15z"/><linearGradient id="c" gradientUnits="userSpaceOnUse" x1="849.066" y1="553.199" x2="849.066" y2="472.451" gradientTransform="matrix(1 0 0 -1 0 672.724)"><stop offset="0" style="stop-color:#714d29"/><stop offset="1" style="stop-color:#c1a180"/></linearGradient><path style="fill:url(#c)" d="m805.9 152.77 38-33.25 29.62 15.93-14.81 15.09 18.16 20.12h15.37l5.59 4.19-17.04 4.47-26.26 20.96-26.26-10.9v-10.06l-7.26-16.21-20.68-2.51 5.57-7.83z"/><linearGradient id="d" gradientUnits="userSpaceOnUse" x1="858.566" y1="365.999" x2="858.566" y2="262.061" gradientTransform="matrix(1 0 0 -1 0 672.724)"><stop offset="0" style="stop-color:#c1a180"/><stop offset="1" style="stop-color:#714d29"/></linearGradient><path style="fill:url(#d)" d="m788.85 306.73 54.2 7.54 9.22 13.69 23.19-21.23 13.97 23.75 24.31-22.63 17.32 13.13-21.51 38.84-16.48 50.85-29.62-31.57v-13.41l-31.85-5.87-27.94-29.34-3.91 9.78-13.69-12.29 2.79-21.24z"/><linearGradient id="e" gradientUnits="userSpaceOnUse" x1="1062.251" y1="363.205" x2="1062.251" y2="288.604" gradientTransform="matrix(1 0 0 -1 0 672.724)"><stop offset="0" style="stop-color:#c1a180"/><stop offset="1" style="stop-color:#714d29"/></linearGradient><path style="fill:url(#e)" d="m986.39 374.06 47.22-52.53 9.78-3.35 18.16 12.85 15.65-9.5 8.94 6.15h11.46l8.94-12.29 12.29-5.87 19.28 6.99v5.03l-56.16 17.32-6.43 15.65h-28.22l-12.01 29.62h-36.6l-12.3-10.07z"/><radialGradient id="f" cx="539.863" cy="634.363" r=".559" gradientTransform="matrix(488.9996 153.5 218.1384 -694.9158 -401536.063 358368)" gradientUnits="userSpaceOnUse"><stop offset="0" style="stop-color:#fff"/><stop offset="1" style="stop-color:#bbb"/></radialGradient><path style="fill:url(#f)" d="m1151.24 365.68-10.62-45.82-57 19-8.1 14.81h-28.78l-10.62 30.73h-36.88l-27.66-22.91-51.13 22.91-27.94 27.38-26.54-32.13-1.68-13.97-32.13-5.87-29.06-31.85-3.91 10.62-15.93-10.62c-1.49 6.61-4.58 20.96-5.03 25.43-.56 5.59-10.06 60.91-6.43 107.29 3.63 46.38 56.72 97.23 76 105.34 19.28 8.1 94.16 33.53 190.27 14.53 76.89-15.2 107.48-95.56 113.16-133.83v-81.04z"/><radialGradient id="g" cx="539.82" cy="634.005" r=".559" gradientTransform="matrix(313 185.0001 178.5487 -302.0851 -281243.406 91762.805)" gradientUnits="userSpaceOnUse"><stop offset="0" style="stop-color:#fff"/><stop offset="1" style="stop-color:silver"/></radialGradient><path style="fill:url(#g)" d="M996.17 92.14c-59.87-21.99-128.76 3.63-154.79 24.87l32.69 16.48-15.37 17.04 18.44 19.84h21.23v23.19l37.16-7.82 12.85 14.25 12.85 3.35 8.1 18.72 67.06-22.07 18.16 52.81 21.51 10.06 13.69 27.38 8.66 3.67c12.57-41.11 8.66-26.58 12.57-56.91-1.68-35.34-6.86-57.08-17.6-69.98-10.72-12.9-22.37-47.39-97.21-74.88z"/><path class="st12" d="M962.08 294.71c-9.78.37-33.47-.73-50.01-8.1"/><path class="st13" d="M982.76 259.79c9.13 7.54 31.07 20.12 45.82 10.06m-58.39 19.55c1.12 9.13 9.61 27.16 34.65 26.26m-64.55.01c2.43 8.23 13.88 25 40.23 26.26m-70.12 17.88c5.68 5.68 21.57 15.87 39.68 11.18"/><path class="st13" d="M985.83 215.92c32.41 10.06 47.22 36.88 42.47 60.07-9.4 45.91-36.88 36.04-58.12 84.66"/><path d="M770.97 281.58c63.15 29.9 96.86 1.58 110.64-15.37l-18.72-4.19c-12.29 26.15-66.12 23.94-91.92 19.56z" style="fill:#e356e9"/><path d="m881.62 266.21 2.17 1.76 2.85-3.5-4.41-.99-.61 2.73zm-110.65 15.37.47-2.75c-1.38-.23-2.71.58-3.13 1.92-.42 1.33.21 2.77 1.47 3.36l1.19-2.53zm91.93-19.56.61-2.73-2.19-.49-.95 2.03 2.53 1.19zm16.55 2.43c-6.68 8.22-18.12 19.1-35.45 24.34-17.27 5.23-40.77 4.97-71.83-9.73l-2.39 5.05c32.09 15.19 57.02 15.73 75.84 10.03 18.76-5.68 31.07-17.43 38.17-26.16l-4.34-3.53zm-108.94 19.88c13.07 2.22 33.26 3.9 51.82 1.69 9.28-1.1 18.29-3.2 25.84-6.77 7.56-3.58 13.82-8.74 17.25-16.04l-5.06-2.38c-2.71 5.78-7.79 10.15-14.59 13.37-6.81 3.23-15.17 5.21-24.11 6.27-17.88 2.13-37.51.51-50.23-1.65l-.92 5.51zm111.72-20.84-18.72-4.19-1.22 5.45 18.72 4.19 1.22-5.45z"/><path class="st12" d="M893.91 409.55c2.98-20.86 16.21-66.83 39.68-88.29 29.34-26.82 49.17-42.47 50.57-66.78-8.75 1.49-23.06 8.67-36.04 16.21-22.63 13.13-50.85 17.88-53.92 17.88 1.12-5.22 5.53-17.83 4.19-20.96-1.68-3.91-41.91-.56-57-16.48l-4.75-32.69c.47-2.14 3.19-8.44 5.87-9.78 1.47-.74 16.13-9 22.91-15.93 13.13-13.41 20.98-14.81 32.97-14.81"/><path d="M926.32 258.67c-14.25 7.54-25.89 2.61-32.69 2.79l6.99 13.69c5.03.28 17.58-.57 25.15-4.47 9.22-4.75 23.75-21.51 29.34-25.98 4.47-3.58 13.13-8.57 16.76-10.62-4.19 0-6.76.11-9.22.56-3.07.56-15.37 10.62-16.76 12.01-1.41 1.4-12.54 8.3-19.57 12.02z"/><path class="st13" d="m843.9 120.36 30.45 13.97-16.21 15.65 19 21.23h21.51v24.31l37.16-8.38 12.01 13.41 13.41 2.79 7.54 18.16 66.22-20.96 19.84 56.72 21.79 4.47 13.41 30.73"/><path class="st12" d="m852.28 201.95-1.96-3.91-6.15.84-1.68-6.71-13.41-.84v-14.81s-6.15-10.06-9.22-13.41c-2.46-2.68-16.86-1.12-23.75 0 21.23-26.92 76.84-84.13 161.22-76.28 81.03 7.54 188.6 76.28 141.1 207.04l-10.9-2.51-10.06 4.19-5.31-4.19-25.71 4.19m-15.91 23.75 13.97-1.68 15.93 13.41 17.32-10.9 7.26 7.82h14.25l6.15-12.85 13.69-5.31 18.72 5.31s89.97 285.63-186.36 273.82C683.52 577.47 791.65 309.8 791.65 309.8l14.53-3.91 39.12 9.22 7.26 12.85 23.47-22.07 14.25 25.15 23.75-22.35 17.32 13.69"/><path class="st13" d="m1139.23 319.86-57.28 20.12-6.71 14.25h-28.5l-11.18 30.18h-36.6l-26.26-23.75-52.25 23.75-28.22 29.06-27.66-34.09v-13.69l-32.69-5.03-28.22-32.13-3.91 11.46-11.18-11.46"/><path class="st12" d="M1029.7 203.07c12.76 15.93 31.4 63.48 12.85 98.35-23.19 43.59-47.22 52.81-54.76 73.2"/><path d="M859.54 217.32v-8.66c-3.63-.28-8.1 3.07-9.78 4.75-1.68 1.68-.28 6.71 1.12 8.1 1.12 1.12 2.89.47 3.63 0l5.03-4.19zm15.08 1.22 8.01-3.31c1.65 3.25.25 8.66-.66 10.85-.91 2.19-6.09 2.82-7.92 2.06-1.46-.61-1.53-2.49-1.39-3.36l1.96-6.24z"/><path class="st13" d="M985.55 252.52c10.62-1.4 26.09-8.12 30.45-15.93"/><path d="M924.46 244.23c13.48 3.62 27.71-5.76 31.79-20.95 2.1-7.81 1.1-15.64-2.19-21.89l-5.38-1.12-13.41-12.85-10.06 2.5c-8.2 3.01-15.11 10.41-17.76 20.26-4.09 15.19 3.53 30.43 17.01 34.05z"/><path d="M933.27 199.18c1.33-1.09 3.61-1.91 6.11-1.09 2.85.93 6.53 3.27 8.05 6.28 1.94 3.82 1.94 8.19 1.67 13.64-.24 4.64-3.3 16.84-13.56 17.75-9.72.86-10.17-8.99-9.78-17.32.56-12.02 4.85-17.08 7.51-19.26z" style="fill:#fecd10"/><path d="M926.78 201.1c-.12-.54-.44-1.53-1.4-2.24-.86-.63-1.96-.84-3.07-.84-1.4 0-1.94.32-2.86 1.26-.79.8-2.08 3.18-.57 6.47 1.47 3.2 3.41 2.32 5.52.63 2.04-1.65 2.62-4.2 2.38-5.28z" style="fill:#fff"/><defs><filter id="h" filterUnits="userSpaceOnUse" x="934.14" y="196.64" width="17.88" height="36.04"><feColorMatrix values="1 0 0 0 0 0 1 0 0 0 0 0 1 0 0 0 0 0 1 0"/></filter></defs><mask maskUnits="userSpaceOnUse" x="934.14" y="196.64" width="17.88" height="36.04" id="i"><path d="M933.27 199.18c1.33-1.09 3.61-1.91 6.11-1.09 2.85.93 6.53 3.27 8.05 6.28 1.94 3.82 1.94 8.19 1.67 13.64-.24 4.64-3.3 16.84-13.56 17.75-9.72.86-10.17-8.99-9.78-17.32.56-12.02 4.85-17.08 7.51-19.26z" style="fill:#fe9f10;filter:url(#h)"/></mask><g style="mask:url(#i)"><path d="m952.03 222.07-1.68-18.72-6.71-6.15-5.31-.56-4.19 1.68c13.13 4.19 12.57 24.03 8.94 34.37l8.95-10.62z" style="fill:#fe9f10"/></g></svg>