<svg xmlns="http://www.w3.org/2000/svg" xml:space="preserve" viewBox="0 0 1920 673"><path d="M0 0h1920v673H0z" style="fill:#22142e"/><path d="M956.1 11.1c-26.6.1-51.9 2.4-74.2 6.3-65.7 11.6-77.7 35.9-77.7 80.7v59.2h155.3V177H746c-45.1 0-84.7 27.1-97 78.7-14.3 59.1-14.9 96.1 0 157.8 11 46 37.4 78.7 82.5 78.7h53.4v-71c0-51.3 44.3-96.5 97-96.5H1037c43.2 0 77.7-35.6 77.7-78.9V98.1c0-42.1-35.5-73.7-77.7-80.7-26.6-4.5-54.3-6.5-80.9-6.3m-84 47.6c16 0 29.1 13.3 29.1 29.7 0 16.3-13.1 29.5-29.1 29.5-16.1 0-29.1-13.2-29.1-29.5 0-16.4 13-29.7 29.1-29.7m262 118.3v69c0 53.5-45.3 98.5-97 98.5H881.9c-42.5 0-77.7 36.4-77.7 78.9v147.9c0 42.1 36.6 66.8 77.7 78.9 49.2 14.5 96.3 17.1 155.1 0 39.1-11.3 77.7-34.1 77.7-78.9V512H959.6v-19.7h232.8c45.1 0 62-31.5 77.7-78.7 16.2-48.6 15.5-95.5 0-157.8-11.2-44.9-32.5-78.7-77.7-78.7zm-87.3 374.5c16.1 0 29.1 13.2 29.1 29.5 0 16.4-13 29.7-29.1 29.7-16 0-29.1-13.3-29.1-29.7 0-16.3 13.1-29.5 29.1-29.5" style="opacity:.1;fill:#fff"/><path d="m693.9 72.7 1.1 265 .9 212c.1 29.3 24 52.9 53.2 52.8l212-.9 132.5-.6 13.5-.1c29.2-.1 52.8-24.3 52.8-53.5h24.3v53h42l-2.2-530-243.8 1 1 211.2V415h-43.4l1-132.1-1-211.2z" style="fill:#de5fe9"/></svg>